<?xml version="1.0" encoding="UTF-8"?>
<svg version="1.1" xmlns="http://www.w3.org/2000/svg" width="588" height="322">
<path d="M0 0 C0.70189453 0.00451172 1.40378906 0.00902344 2.12695312 0.01367188 C3.85550538 0.02543073 5.58401365 0.04336546 7.3125 0.0625 C7.3125 0.7225 7.3125 1.3825 7.3125 2.0625 C8.6325 1.7325 9.9525 1.4025 11.3125 1.0625 C11.3125 1.7225 11.3125 2.3825 11.3125 3.0625 C12.6325 2.7325 13.9525 2.4025 15.3125 2.0625 C15.5 4.4375 15.5 4.4375 15.3125 7.0625 C12.3125 9.0625 12.3125 9.0625 10.3125 10.0625 C11.3025 10.0625 12.2925 10.0625 13.3125 10.0625 C15.3125 12.0625 15.3125 12.0625 15.3125 15.0625 C13.6625 15.3925 12.0125 15.7225 10.3125 16.0625 C11.3025 16.3925 12.2925 16.7225 13.3125 17.0625 C11.9925 17.3925 10.6725 17.7225 9.3125 18.0625 C9.9725 19.0525 10.6325 20.0425 11.3125 21.0625 C9.9925 21.0625 8.6725 21.0625 7.3125 21.0625 C6.3225 23.5375 6.3225 23.5375 5.3125 26.0625 C5.9725 26.0625 6.6325 26.0625 7.3125 26.0625 C7.3125 26.7225 7.3125 27.3825 7.3125 28.0625 C7.9725 28.0625 8.6325 28.0625 9.3125 28.0625 C9.3125 28.7225 9.3125 29.3825 9.3125 30.0625 C10.6325 29.4025 11.9525 28.7425 13.3125 28.0625 C12.5625 34.8125 12.5625 34.8125 10.3125 37.0625 C10.9725 37.7225 11.6325 38.3825 12.3125 39.0625 C12 41.4375 12 41.4375 11.3125 44.0625 C11.126875 44.825625 10.94125 45.58875 10.75 46.375 C10.605625 46.931875 10.46125 47.48875 10.3125 48.0625 C6.73674104 48.0625 5.25954065 46.97409393 2.3125 45.0625 C2.3125 46.0525 2.3125 47.0425 2.3125 48.0625 C0.3125 47.0625 0.3125 47.0625 -0.6875 45.0625 C-1.326875 44.753125 -1.96625 44.44375 -2.625 44.125 C-4.6875 43.0625 -4.6875 43.0625 -6.6875 40.0625 C-6.0275 40.0625 -5.3675 40.0625 -4.6875 40.0625 C-4.81125 38.763125 -4.935 37.46375 -5.0625 36.125 C-5.13210937 35.39410156 -5.20171875 34.66320312 -5.2734375 33.91015625 C-5.47839844 32.99556641 -5.47839844 32.99556641 -5.6875 32.0625 C-6.3475 31.7325 -7.0075 31.4025 -7.6875 31.0625 C-8.161875 30.0725 -8.63625 29.0825 -9.125 28.0625 C-10.39613827 24.77332942 -10.39613827 24.77332942 -13.6875 24.0625 C-16.02083333 21.72916667 -18.35416667 19.39583333 -20.6875 17.0625 C-20.0275 15.7425 -19.3675 14.4225 -18.6875 13.0625 C-18.0275 13.0625 -17.3675 13.0625 -16.6875 13.0625 C-16.6875 10.0925 -16.6875 7.1225 -16.6875 4.0625 C-14.7075 3.7325 -12.7275 3.4025 -10.6875 3.0625 C-10.6875 2.4025 -10.6875 1.7425 -10.6875 1.0625 C-7.06882441 -0.1437252 -3.76243749 -0.04566918 0 0 Z M-9.6875 3.0625 C-9.3575 4.0525 -9.0275 5.0425 -8.6875 6.0625 C-8.0275 5.4025 -7.3675 4.7425 -6.6875 4.0625 C-7.6775 3.7325 -8.6675 3.4025 -9.6875 3.0625 Z M3.3125 3.0625 C4.3125 6.0625 4.3125 6.0625 4.3125 6.0625 Z M9.3125 3.0625 C9.3125 3.7225 9.3125 4.3825 9.3125 5.0625 C9.9725 5.0625 10.6325 5.0625 11.3125 5.0625 C11.3125 4.4025 11.3125 3.7425 11.3125 3.0625 C10.6525 3.0625 9.9925 3.0625 9.3125 3.0625 Z M11.3125 5.0625 C11.3125 5.7225 11.3125 6.3825 11.3125 7.0625 C11.9725 7.0625 12.6325 7.0625 13.3125 7.0625 C13.3125 6.4025 13.3125 5.7425 13.3125 5.0625 C12.6525 5.0625 11.9925 5.0625 11.3125 5.0625 Z M9.3125 12.0625 C10.3125 14.0625 10.3125 14.0625 10.3125 14.0625 Z M6.3125 16.0625 C7.3125 18.0625 7.3125 18.0625 7.3125 18.0625 Z M-8.6875 24.0625 C-7.6875 26.0625 -7.6875 26.0625 -7.6875 26.0625 Z M5.3125 31.0625 C5.3125 32.0525 5.3125 33.0425 5.3125 34.0625 C6.6325 33.7325 7.9525 33.4025 9.3125 33.0625 C9.3125 32.0725 9.3125 31.0825 9.3125 30.0625 C7.2379644 29.9134288 7.2379644 29.9134288 5.3125 31.0625 Z M1.3125 36.0625 C2.3125 38.0625 2.3125 38.0625 2.3125 38.0625 Z M3.3125 41.0625 C4.3025 42.5475 4.3025 42.5475 5.3125 44.0625 C5.3125 43.0725 5.3125 42.0825 5.3125 41.0625 C4.6525 41.0625 3.9925 41.0625 3.3125 41.0625 Z " fill="#EAD6CA" transform="translate(72.6875,154.9375)"/>
<path d="M0 0 C2.31 0 4.62 0 7 0 C7 0.66 7 1.32 7 2 C7.33 2.66 7.66 3.32 8 4 C8.66 4 9.32 4 10 4 C10 4.66 10 5.32 10 6 C11.32 5.34 12.64 4.68 14 4 C13.25 10.75 13.25 10.75 11 13 C11.66 13.66 12.32 14.32 13 15 C12.6875 17.375 12.6875 17.375 12 20 C11.814375 20.763125 11.62875 21.52625 11.4375 22.3125 C11.293125 22.869375 11.14875 23.42625 11 24 C7.42424104 24 5.94704065 22.91159393 3 21 C3 21.99 3 22.98 3 24 C1 23 1 23 0 21 C-0.639375 20.690625 -1.27875 20.38125 -1.9375 20.0625 C-4 19 -4 19 -6 16 C-5.34 16 -4.68 16 -4 16 C-4.20625 15.071875 -4.4125 14.14375 -4.625 13.1875 C-5 10 -5 10 -3 7 C-2.34 6.34 -1.68 5.68 -1 5 C-0.35232207 2.42938689 -0.35232207 2.42938689 0 0 Z M6 7 C6 7.99 6 8.98 6 10 C7.32 9.67 8.64 9.34 10 9 C10 8.01 10 7.02 10 6 C7.9254644 5.8509288 7.9254644 5.8509288 6 7 Z M2 12 C3 14 3 14 3 14 Z M4 17 C4.99 18.485 4.99 18.485 6 20 C6 19.01 6 18.02 6 17 C5.34 17 4.68 17 4 17 Z " fill="#D8D4D2" transform="translate(72,179)"/>
<path d="M0 0 C0 0.99 0 1.98 0 3 C0.66 3.45375 1.32 3.9075 2 4.375 C2.66 4.91125 3.32 5.4475 4 6 C4.1875 8.5625 4.1875 8.5625 4 11 C4.33 11.66 4.66 12.32 5 13 C4.62875 13.928125 4.2575 14.85625 3.875 15.8125 C2.60335116 18.99781589 2.60335116 18.99781589 4.4375 21.625 C4.953125 22.40875 5.46875 23.1925 6 24 C5.6875 26.3125 5.6875 26.3125 5 28 C3 27 3 27 1.5625 24 C0.29136173 20.71082942 0.29136173 20.71082942 -3 20 C-5.33333333 17.66666667 -7.66666667 15.33333333 -10 13 C-9.34 11.68 -8.68 10.36 -8 9 C-7.34 9 -6.68 9 -6 9 C-6 6.03 -6 3.06 -6 0 C-3.50907189 -1.24546405 -2.58919267 -0.7767578 0 0 Z M2 20 C3 22 3 22 3 22 Z " fill="#E7D0BC" transform="translate(62,159)"/>
<path d="M0 0 C0.70189453 0.00451172 1.40378906 0.00902344 2.12695312 0.01367188 C3.85550538 0.02543073 5.58401365 0.04336546 7.3125 0.0625 C7.3125 0.7225 7.3125 1.3825 7.3125 2.0625 C8.6325 1.7325 9.9525 1.4025 11.3125 1.0625 C11.3125 1.7225 11.3125 2.3825 11.3125 3.0625 C12.6325 2.7325 13.9525 2.4025 15.3125 2.0625 C15.5 4.4375 15.5 4.4375 15.3125 7.0625 C11.64494001 9.50753999 9.73771863 9.33081152 5.375 9.3125 C4.14910156 9.31765625 2.92320313 9.3228125 1.66015625 9.328125 C-1.42491052 9.08333557 -3.11096294 8.68978656 -5.6875 7.0625 C-5.6875 6.0725 -5.6875 5.0825 -5.6875 4.0625 C-6.326875 3.93875 -6.96625 3.815 -7.625 3.6875 C-8.305625 3.48125 -8.98625 3.275 -9.6875 3.0625 C-10.0175 2.4025 -10.3475 1.7425 -10.6875 1.0625 C-7.06882441 -0.1437252 -3.76243749 -0.04566918 0 0 Z M3.3125 3.0625 C4.3125 6.0625 4.3125 6.0625 4.3125 6.0625 Z M9.3125 3.0625 C9.3125 3.7225 9.3125 4.3825 9.3125 5.0625 C9.9725 5.0625 10.6325 5.0625 11.3125 5.0625 C11.3125 4.4025 11.3125 3.7425 11.3125 3.0625 C10.6525 3.0625 9.9925 3.0625 9.3125 3.0625 Z M11.3125 5.0625 C11.3125 5.7225 11.3125 6.3825 11.3125 7.0625 C11.9725 7.0625 12.6325 7.0625 13.3125 7.0625 C13.3125 6.4025 13.3125 5.7425 13.3125 5.0625 C12.6525 5.0625 11.9925 5.0625 11.3125 5.0625 Z " fill="#FDFCFC" transform="translate(72.6875,154.9375)"/>
<path d="M0 0 C1.4540625 0.0309375 1.4540625 0.0309375 2.9375 0.0625 C2.751875 0.825625 2.56625 1.58875 2.375 2.375 C1.70930827 5.15217375 1.70930827 5.15217375 2.9375 8.0625 C3.9275 7.7325 4.9175 7.4025 5.9375 7.0625 C7.60416667 7.0625 9.27083333 7.0625 10.9375 7.0625 C10.9375 7.7225 10.9375 8.3825 10.9375 9.0625 C11.5975 9.3925 12.2575 9.7225 12.9375 10.0625 C9.3075 10.3925 5.6775 10.7225 1.9375 11.0625 C2.2675 12.3825 2.5975 13.7025 2.9375 15.0625 C1.9475 15.0625 0.9575 15.0625 -0.0625 15.0625 C-0.0625 15.7225 -0.0625 16.3825 -0.0625 17.0625 C-1.875 17.75 -1.875 17.75 -4.0625 18.0625 C-5.875 17.0625 -5.875 17.0625 -7.0625 15.0625 C-6.72916667 8.72916667 -6.72916667 8.72916667 -4.0625 6.0625 C-4.02186168 4.39632885 -4.019779 2.72861905 -4.0625 1.0625 C-3.0625 0.0625 -3.0625 0.0625 0 0 Z M-0.0625 8.0625 C0.2675 8.7225 0.5975 9.3825 0.9375 10.0625 C1.9275 9.7325 2.9175 9.4025 3.9375 9.0625 C2.6175 8.7325 1.2975 8.4025 -0.0625 8.0625 Z M-2.0625 14.0625 C-2.3925 14.7225 -2.7225 15.3825 -3.0625 16.0625 C-2.4025 16.0625 -1.7425 16.0625 -1.0625 16.0625 C-1.3925 15.4025 -1.7225 14.7425 -2.0625 14.0625 Z " fill="#C6D7E1" transform="translate(513.0625,227.9375)"/>
<path d="M0 0 C2.31 0 4.62 0 7 0 C7 0.66 7 1.32 7 2 C7.33 2.66 7.66 3.32 8 4 C8.66 4 9.32 4 10 4 C10 4.66 10 5.32 10 6 C11.32 5.34 12.64 4.68 14 4 C13.25 10.75 13.25 10.75 11 13 C11.66 13.66 12.32 14.32 13 15 C12.625 17.625 12.625 17.625 12 20 C10.68 20 9.36 20 8 20 C8 19.34 8 18.68 8 18 C7.34 18 6.68 18 6 18 C2.74031891 8.58997722 2.74031891 8.58997722 2 4 C1.34 4 0.68 4 0 4 C0 2.68 0 1.36 0 0 Z M6 7 C6 7.99 6 8.98 6 10 C7.32 9.67 8.64 9.34 10 9 C10 8.01 10 7.02 10 6 C7.9254644 5.8509288 7.9254644 5.8509288 6 7 Z " fill="#68B6EC" transform="translate(72,179)"/>
<path d="M0 0 C5 0 10 0 15 0 C17 2 17 2 17 5 C15.35 5.33 13.7 5.66 12 6 C12.99 6.33 13.98 6.66 15 7 C13.68 7.33 12.36 7.66 11 8 C11 8.33 11 8.66 11 9 C7.37 9 3.74 9 0 9 C0 6.03 0 3.06 0 0 Z M11 2 C12 4 12 4 12 4 Z M8 6 C9 8 9 8 9 8 Z " fill="#999999" transform="translate(71,165)"/>
<path d="M0 0 C18.48 0 36.96 0 56 0 C55.67 0.66 55.34 1.32 55 2 C47.2686591 3.76134425 38.75108818 3.19160989 30.875 3.1875 C29.59923096 3.18814453 28.32346191 3.18878906 27.0090332 3.18945312 C17.85838859 3.13827047 9.01501268 2.59004948 0 1 C0 0.67 0 0.34 0 0 Z " fill="#768592" transform="translate(378,174)"/>
<path d="M0 0 C2.86331684 0.52060306 5.53522406 1.17167564 8.3125 2.0625 C12.45036388 3.11449929 15.75313177 3.14901292 20 3 C20 4.32 20 5.64 20 7 C17.89651926 7.19504458 15.79217415 7.38078496 13.6875 7.5625 C12.51574219 7.66691406 11.34398437 7.77132812 10.13671875 7.87890625 C7 8 7 8 4 7 C2.8125 4.9375 2.8125 4.9375 2 3 C1.34 3 0.68 3 0 3 C0 2.01 0 1.02 0 0 Z " fill="#E5BA99" transform="translate(161,117)"/>
<path d="M0 0 C-0.66 0 -1.32 0 -2 0 C-2 0.66 -2 1.32 -2 2 C-1.01 2.66 -0.02 3.32 1 4 C-0.98 4.33 -2.96 4.66 -5 5 C-5 4.34 -5 3.68 -5 3 C-5.99 3 -6.98 3 -8 3 C-8 3.66 -8 4.32 -8 5 C-7.34 5.66 -6.68 6.32 -6 7 C-6.99 7 -7.98 7 -9 7 C-9.33 7.66 -9.66 8.32 -10 9 C-10.66 9 -11.32 9 -12 9 C-11.1875 6.0625 -11.1875 6.0625 -10 3 C-9.01 2.67 -8.02 2.34 -7 2 C-7.33 1.01 -7.66 0.02 -8 -1 C-4.59745511 -2.2151946 -3.06748874 -1.86240388 0 0 Z M-4 -1 C-3 1 -3 1 -3 1 Z " fill="#8B8B8D" transform="translate(580,200)"/>
<path d="M0 0 C1.32 0.66 2.64 1.32 4 2 C4 2.66 4 3.32 4 4 C5.1446875 4.0928125 5.1446875 4.0928125 6.3125 4.1875 C9 5 9 5 10.875 7.3125 C12.07817396 10.18674892 12.15154588 11.17347829 11 14 C9 13 9 13 7.5625 10 C6.29136173 6.71082942 6.29136173 6.71082942 3 6 C1.66666667 4.66666667 0.33333333 3.33333333 -1 2 C-0.67 1.34 -0.34 0.68 0 0 Z M8 6 C9 8 9 8 9 8 Z " fill="#967D5F" transform="translate(56,173)"/>
<path d="M0 0 C0.103125 0.598125 0.20625 1.19625 0.3125 1.8125 C1.09385053 4.29861534 2.14895416 5.22943442 4 7 C4 7.66 4 8.32 4 9 C2.02 9 0.04 9 -2 9 C-2.33 8.34 -2.66 7.68 -3 7 C-5.02463255 6.34786708 -5.02463255 6.34786708 -7 6 C-7 5.01 -7 4.02 -7 3 C-4.69 2.01 -2.38 1.02 0 0 Z " fill="#5EB2ED" transform="translate(72,220)"/>
<path d="M0 0 C4.29 0.33 8.58 0.66 13 1 C11.68 1.33 10.36 1.66 9 2 C9 2.66 9 3.32 9 4 C5.7 4.33 2.4 4.66 -1 5 C-0.67 3.35 -0.34 1.7 0 0 Z " fill="#FCFBFC" transform="translate(71,174)"/>
<path d="M0 0 C0.99 0.33 1.98 0.66 3 1 C3 3.64 3 6.28 3 9 C9.27 9 15.54 9 22 9 C22 9.33 22 9.66 22 10 C18.52125243 10.19590444 15.04199096 10.38031592 11.5625 10.5625 C10.56927734 10.61857422 9.57605469 10.67464844 8.55273438 10.73242188 C7.60849609 10.78076172 6.66425781 10.82910156 5.69140625 10.87890625 C4.81685791 10.9260376 3.94230957 10.97316895 3.04125977 11.02172852 C1 11 1 11 0 10 C-0.07205511 8.31391034 -0.08386068 6.62499341 -0.0625 4.9375 C-0.05347656 4.01839844 -0.04445313 3.09929687 -0.03515625 2.15234375 C-0.02355469 1.44207031 -0.01195312 0.73179687 0 0 Z M1 1 C1 3.64 1 6.28 1 9 C1.33 9 1.66 9 2 9 C2 6.36 2 3.72 2 1 C1.67 1 1.34 1 1 1 Z " fill="#848385" transform="translate(564,144)"/>
<path d="M0 0 C4 4.625 4 4.625 4 8 C3.401875 7.835 2.80375 7.67 2.1875 7.5 C-0.11344336 6.8885876 -0.11344336 6.8885876 -3 7 C-3.33 7.66 -3.66 8.32 -4 9 C-4.66 7.68 -5.32 6.36 -6 5 C-5.38125 4.731875 -4.7625 4.46375 -4.125 4.1875 C-1.7004767 3.04443152 -1.7004767 3.04443152 0 0 Z " fill="#9C8561" transform="translate(58,165)"/>
<path d="M0 0 C6.93 0 13.86 0 21 0 C21.33 0.66 21.66 1.32 22 2 C21.40985107 1.99476318 20.81970215 1.98952637 20.21166992 1.98413086 C17.53695745 1.96333953 14.86226199 1.95033299 12.1875 1.9375 C10.7943457 1.92493164 10.7943457 1.92493164 9.37304688 1.91210938 C8.48037109 1.90888672 7.58769531 1.90566406 6.66796875 1.90234375 C5.84578857 1.89710693 5.0236084 1.89187012 4.17651367 1.88647461 C1.81827404 1.91258476 1.81827404 1.91258476 -1 3 C-0.67 2.01 -0.34 1.02 0 0 Z " fill="#181819" transform="translate(57,307)"/>
<path d="M0 0 C2.375 -0.125 2.375 -0.125 5 0 C5.66 0.66 6.32 1.32 7 2 C9.3245339 2.37051993 9.3245339 2.37051993 12.0078125 2.4140625 C12.99394531 2.45273438 13.98007813 2.49140625 14.99609375 2.53125 C16.02863281 2.5621875 17.06117187 2.593125 18.125 2.625 C19.16527344 2.66367188 20.20554687 2.70234375 21.27734375 2.7421875 C23.85138311 2.83664766 26.42541155 2.92221214 29 3 C29 3.33 29 3.66 29 4 C20.75 4 12.5 4 4 4 C4 3.34 4 2.68 4 2 C2.68 2 1.36 2 0 2 C0 1.34 0 0.68 0 0 Z " fill="#99CEF0" transform="translate(54,228)"/>
<path d="M0 0 C7.92 0.33 15.84 0.66 24 1 C23.67 1.66 23.34 2.32 23 3 C22.03578125 2.97679687 21.0715625 2.95359375 20.078125 2.9296875 C18.81484375 2.91164062 17.5515625 2.89359375 16.25 2.875 C14.37054688 2.84019531 14.37054688 2.84019531 12.453125 2.8046875 C9.27179508 2.98462698 7.63478104 3.31001418 5 5 C5 4.34 5 3.68 5 3 C3.35 3 1.7 3 0 3 C0 2.01 0 1.02 0 0 Z " fill="#5D6D7D" transform="translate(381,222)"/>
<path d="M0 0 C3.63 0 7.26 0 11 0 C11 0.99 11 1.98 11 3 C8.36 2.67 5.72 2.34 3 2 C2.67 2.66 2.34 3.32 2 4 C1.01 3.67 0.02 3.34 -1 3 C-0.67 2.01 -0.34 1.02 0 0 Z " fill="#171719" transform="translate(64,312)"/>
<path d="M0 0 C2.00720923 0.28674418 4.0085944 0.61866701 6 1 C5.40138258 3.35171131 4.73075648 5.6859378 4 8 C3.01 8.495 3.01 8.495 2 9 C1.01 8.34 0.02 7.68 -1 7 C-1.25 3.9375 -1.25 3.9375 -1 1 C-0.67 0.67 -0.34 0.34 0 0 Z M1 5 C1.33 5.66 1.66 6.32 2 7 C2.33 6.34 2.66 5.68 3 5 C2.34 5 1.68 5 1 5 Z " fill="#5C6B7B" transform="translate(399,271)"/>
<path d="M0 0 C1.98 0.99 3.96 1.98 6 3 C5.34 4.32 4.68 5.64 4 7 C1.16032769 7 -1.23735711 6.59732819 -4 6 C-2.84826645 3.53199953 -1.95216435 1.95216435 0 0 Z " fill="#5FB2ED" transform="translate(76,211)"/>
<path d="M0 0 C1.65 0 3.3 0 5 0 C5.95024979 3.69541586 5.95024979 6.30458414 5 10 C1.64085078 7.76056718 1.18318364 6.73157917 0 3 C0 2.01 0 1.02 0 0 Z M2 3 C2.33 3.99 2.66 4.98 3 6 C3 5.34 3 4.68 3 4 C3.66 3.67 4.32 3.34 5 3 C4.01 3 3.02 3 2 3 Z " fill="#4E3C51" transform="translate(370,172)"/>
<path d="M0 0 C0.33 2.64 0.66 5.28 1 8 C-0.32 7.01 -1.64 6.02 -3 5 C-3.99 5.66 -4.98 6.32 -6 7 C-6 4.69 -6 2.38 -6 0 C-3.50907189 -1.24546405 -2.58919267 -0.7767578 0 0 Z " fill="#9E8865" transform="translate(62,159)"/>
<path d="M0 0 C1.4540625 0.0309375 1.4540625 0.0309375 2.9375 0.0625 C3.5975 1.7125 4.2575 3.3625 4.9375 5.0625 C2.6275 5.3925 0.3175 5.7225 -2.0625 6.0625 C-2.7225 4.4125 -3.3825 2.7625 -4.0625 1.0625 C-3.0625 0.0625 -3.0625 0.0625 0 0 Z M0.9375 2.0625 C0.6075 2.7225 0.2775 3.3825 -0.0625 4.0625 C0.9275 3.7325 1.9175 3.4025 2.9375 3.0625 C2.2775 2.7325 1.6175 2.4025 0.9375 2.0625 Z " fill="#EED6C8" transform="translate(38.0625,202.9375)"/>
<path d="M0 0 C2.97 0 5.94 0 9 0 C8.34 1.32 7.68 2.64 7 4 C4.125 4.125 4.125 4.125 1 4 C0.34 3.34 -0.32 2.68 -1 2 C-0.67 1.34 -0.34 0.68 0 0 Z " fill="#75797F" transform="translate(388,286)"/>
<path d="M0 0 C2.35953094 2.35953094 2.49141413 3.77895617 3 7 C1.51882199 6.71872579 0.04006751 6.42466268 -1.4375 6.125 C-2.26121094 5.96257812 -3.08492188 5.80015625 -3.93359375 5.6328125 C-4.61550781 5.42398437 -5.29742187 5.21515625 -6 5 C-6.33 4.34 -6.66 3.68 -7 3 C-5.55245745 1.55245745 -3.96037087 1.44266439 -2 1 C-2 1.66 -2 2.32 -2 3 C-1.34 3 -0.68 3 0 3 C0 2.01 0 1.02 0 0 Z " fill="#5B6B7B" transform="translate(424,276)"/>
<path d="M0 0 C0.33 0.66 0.66 1.32 1 2 C4.3 2 7.6 2 11 2 C11 2.33 11 2.66 11 3 C7.7 3 4.4 3 1 3 C1 5.31 1 7.62 1 10 C-0.5 8.8125 -0.5 8.8125 -2 7 C-2.1875 4.3125 -2.1875 4.3125 -2 2 C-1.34 2 -0.68 2 0 2 C0 1.34 0 0.68 0 0 Z " fill="#D5CAC5" transform="translate(70,162)"/>
<path d="M0 0 C1.41377341 2.63904371 2.37240135 5.07120629 3 8 C1.35 8 -0.3 8 -2 8 C-2 7.34 -2 6.68 -2 6 C-2.66 5.34 -3.32 4.68 -4 4 C-3.34 4 -2.68 4 -2 4 C-2 3.01 -2 2.02 -2 1 C-1.34 0.67 -0.68 0.34 0 0 Z " fill="#65B2E8" transform="translate(70,191)"/>
<path d="M0 0 C0.99 0.33 1.98 0.66 3 1 C3 1.66 3 2.32 3 3 C2.34 3 1.68 3 1 3 C0.87882813 3.63808594 0.75765625 4.27617187 0.6328125 4.93359375 C0.46523438 5.75988281 0.29765625 6.58617187 0.125 7.4375 C-0.03742187 8.26121094 -0.19984375 9.08492187 -0.3671875 9.93359375 C-0.57601562 10.61550781 -0.78484375 11.29742187 -1 12 C-1.99 12.495 -1.99 12.495 -3 13 C-2.68991116 11.39536551 -2.37683713 9.79130769 -2.0625 8.1875 C-1.88847656 7.29417969 -1.71445312 6.40085938 -1.53515625 5.48046875 C-1 3 -1 3 0 0 Z " fill="#4378A4" transform="translate(513,229)"/>
<path d="M0 0 C3.63 0 7.26 0 11 0 C11.33 0.66 11.66 1.32 12 2 C4.19354839 3.35111663 4.19354839 3.35111663 1 2 C0.67 1.34 0.34 0.68 0 0 Z " fill="#5E6E7E" transform="translate(410,206)"/>
<path d="M0 0 C0.66 0 1.32 0 2 0 C2.66 1.98 3.32 3.96 4 6 C3.34 6 2.68 6 2 6 C1.67 5.67 1.34 5.34 1 5 C0.01 5.99 -0.98 6.98 -2 8 C-2.66 7.34 -3.32 6.68 -4 6 C-3.34 5.34 -2.68 4.68 -2 4 C-2 3.34 -2 2.68 -2 2 C-1.34 1.34 -0.68 0.68 0 0 Z " fill="#8FA3AC" transform="translate(12,184)"/>
<path d="M0 0 C2.875 0.3125 2.875 0.3125 6 1 C6.66 1.99 7.32 2.98 8 4 C7.34 5.32 6.68 6.64 6 8 C5.34 7.01 4.68 6.02 4 5 C1.94074861 4.27617533 1.94074861 4.27617533 0 4 C0 2.68 0 1.36 0 0 Z " fill="#858485" transform="translate(404,291)"/>
<path d="M0 0 C1.4540625 0.0309375 1.4540625 0.0309375 2.9375 0.0625 C1.9475 0.3925 0.9575 0.7225 -0.0625 1.0625 C-1.29219878 4.57440809 -1.29219878 4.57440809 -2.0625 8.0625 C-4.0625 6.0625 -4.0625 6.0625 -4.25 3.5 C-3.97031732 -0.13587487 -3.72751987 0.07607183 0 0 Z " fill="#7ABEEC" transform="translate(513.0625,227.9375)"/>
<path d="M0 0 C0.66 0.33 1.32 0.66 2 1 C2.1875 3.875 2.1875 3.875 2 7 C1.01 7.66 0.02 8.32 -1 9 C-1.09765625 2.84765625 -1.09765625 2.84765625 -1 1 C-0.67 0.67 -0.34 0.34 0 0 Z " fill="#5B6B7B" transform="translate(410,256)"/>
<path d="M0 0 C5.28 0.33 10.56 0.66 16 1 C16 1.33 16 1.66 16 2 C11.05 2.33 6.1 2.66 1 3 C0.67 2.01 0.34 1.02 0 0 Z " fill="#5E6E7E" transform="translate(388,206)"/>
<path d="M0 0 C0.66 0.99 1.32 1.98 2 3 C-1.13498292 4.85776765 -3.37471432 5.20140476 -7 5 C-6.67 4.01 -6.34 3.02 -6 2 C-3 1 -3 1 -1 1 C-0.67 0.67 -0.34 0.34 0 0 Z " fill="#5D6B79" transform="translate(419,282)"/>
<path d="M0 0 C1.98 0.99 1.98 0.99 4 2 C2.92598892 4.91517292 2.22189824 6.77810176 0 9 C0 6.03 0 3.06 0 0 Z " fill="#848486" transform="translate(143,243)"/>
<path d="M0 0 C1.04449911 3.13349732 0.93423645 3.98968256 0 7 C-0.99 6.67 -1.98 6.34 -3 6 C-2.67 5.01 -2.34 4.02 -2 3 C-2.99 3 -3.98 3 -5 3 C-5 2.34 -5 1.68 -5 1 C-3.35 0.67 -1.7 0.34 0 0 Z " fill="#73BDF0" transform="translate(522,228)"/>
<path d="M0 0 C0.66 0 1.32 0 2 0 C2 0.66 2 1.32 2 2 C2.66 2 3.32 2 4 2 C4.33 3.32 4.66 4.64 5 6 C4.01 6 3.02 6 2 6 C1.34 5.34 0.68 4.68 0 4 C0 2.68 0 1.36 0 0 Z " fill="#E6DDD9" transform="translate(78,197)"/>
<path d="M0 0 C1.98 0 3.96 0 6 0 C6.33 0.99 6.66 1.98 7 3 C4.39417629 3.93065133 3.35801776 4.14917407 0.75 3.0625 C0.1725 2.711875 -0.405 2.36125 -1 2 C-0.67 1.34 -0.34 0.68 0 0 Z " fill="#EDECEE" transform="translate(48,218)"/>
<path d="M0 0 C-0.66 0 -1.32 0 -2 0 C-2 0.66 -2 1.32 -2 2 C-3.65 2 -5.3 2 -7 2 C-7.33 1.01 -7.66 0.02 -8 -1 C-4.59745511 -2.2151946 -3.06748874 -1.86240388 0 0 Z M-4 -1 C-3 1 -3 1 -3 1 Z " fill="#7F8287" transform="translate(580,200)"/>
<path d="M0 0 C0.66 0.33 1.32 0.66 2 1 C2.625 4.0625 2.625 4.0625 3 7 C2.01 7 1.02 7 0 7 C-1.125 2.25 -1.125 2.25 0 0 Z " fill="#8E9590" transform="translate(65,179)"/>
<path d="M0 0 C3.1875 0.875 3.1875 0.875 6 2 C6 2.66 6 3.32 6 4 C4.68 4.33 3.36 4.66 2 5 C2 4.34 2 3.68 2 3 C0.68 3.33 -0.64 3.66 -2 4 C-2.33 3.34 -2.66 2.68 -3 2 C-2.01 1.34 -1.02 0.68 0 0 Z " fill="#717A81" transform="translate(568,140)"/>
<path d="M0 0 C0.99 0.495 0.99 0.495 2 1 C1.67 5.95 1.34 10.9 1 16 C0.67 16 0.34 16 0 16 C0 10.72 0 5.44 0 0 Z " fill="#848487" transform="translate(141,242)"/>
<path d="M0 0 C1.32 0.66 2.64 1.32 4 2 C4 3.32 4 4.64 4 6 C1.525 5.01 1.525 5.01 -1 4 C-0.67 2.68 -0.34 1.36 0 0 Z " fill="#F5F0EC" transform="translate(62,158)"/>
<path d="M0 0 C2.31 0.33 4.62 0.66 7 1 C6.67 1.99 6.34 2.98 6 4 C5.01 3.34 4.02 2.68 3 2 C0.84725052 2.30840599 0.84725052 2.30840599 -1 3 C-0.67 2.01 -0.34 1.02 0 0 Z " fill="#667584" transform="translate(388,202)"/>
<path d="M0 0 C2.97 0 5.94 0 9 0 C9.33 0.66 9.66 1.32 10 2 C7.03 2 4.06 2 1 2 C0.67 1.34 0.34 0.68 0 0 Z " fill="#181819" transform="translate(76,312)"/>
<path d="M0 0 C0.33 0.66 0.66 1.32 1 2 C-3.62 2 -8.24 2 -13 2 C-13 1.67 -13 1.34 -13 1 C-6.565 0.505 -6.565 0.505 0 0 Z " fill="#181819" transform="translate(49,304)"/>
<path d="M0 0 C0.99 0.33 1.98 0.66 3 1 C3 1.66 3 2.32 3 3 C2.34 3 1.68 3 1 3 C1 5.31 1 7.62 1 10 C0.67 10 0.34 10 0 10 C-0.19412181 8.52168779 -0.38012131 7.04230684 -0.5625 5.5625 C-0.66691406 4.73878906 -0.77132813 3.91507812 -0.87890625 3.06640625 C-0.91886719 2.38449219 -0.95882813 1.70257813 -1 1 C-0.67 0.67 -0.34 0.34 0 0 Z " fill="#848186" transform="translate(400,289)"/>
<path d="M0 0 C0.99 0.33 1.98 0.66 3 1 C3.99 0.67 4.98 0.34 6 0 C6.33 0.99 6.66 1.98 7 3 C4 4 4 4 1.8125 3.0625 C1.214375 2.711875 0.61625 2.36125 0 2 C0 1.34 0 0.68 0 0 Z " fill="#93C7ED" transform="translate(58,220)"/>
<path d="M0 0 C0.33 0 0.66 0 1 0 C1 3.96 1 7.92 1 12 C1.66 12.33 2.32 12.66 3 13 C2.01 13 1.02 13 0 13 C0 8.71 0 4.42 0 0 Z " fill="#808080" transform="translate(98,197)"/>
<path d="M0 0 C0.66 0.33 1.32 0.66 2 1 C1.67 1.66 1.34 2.32 1 3 C0.77532169 4.53668865 0.59203195 6.07968054 0.4375 7.625 C0.35371094 8.44226563 0.26992188 9.25953125 0.18359375 10.1015625 C0.12300781 10.72804688 0.06242187 11.35453125 0 12 C-0.33 12 -0.66 12 -1 12 C-1.02698189 10.37509046 -1.04638757 8.75005367 -1.0625 7.125 C-1.07410156 6.22007812 -1.08570313 5.31515625 -1.09765625 4.3828125 C-1 2 -1 2 0 0 Z " fill="#818083" transform="translate(424,287)"/>
<path d="M0 0 C4.29 0.33 8.58 0.66 13 1 C13 1.33 13 1.66 13 2 C8.71 2 4.42 2 0 2 C0 1.34 0 0.68 0 0 Z " fill="#5B6A7B" transform="translate(410,268)"/>
<path d="M0 0 C2.475 0.99 2.475 0.99 5 2 C4.67 3.32 4.34 4.64 4 6 C1.2160817 4.60804085 1.02101003 2.84424221 0 0 Z " fill="#E5E4E6" transform="translate(147,238)"/>
<path d="M0 0 C2.97 0 5.94 0 9 0 C7.515 1.485 7.515 1.485 6 3 C3.02602384 2.72963853 2.14553974 2.14553974 0 0 Z " fill="#5C6B7B" transform="translate(382,191)"/>
<path d="M0 0 C4.29 0 8.58 0 13 0 C13 0.33 13 0.66 13 1 C8.71 1 4.42 1 0 1 C0 0.67 0 0.34 0 0 Z " fill="#181819" transform="translate(36,300)"/>
<path d="M0 0 C0.66 0.99 1.32 1.98 2 3 C0.02 3.99 0.02 3.99 -2 5 C-2.99 4.34 -3.98 3.68 -5 3 C-4.360625 2.690625 -3.72125 2.38125 -3.0625 2.0625 C-1.06389179 1.1654837 -1.06389179 1.1654837 0 0 Z " fill="#F2F2F4" transform="translate(56,213)"/>
<path d="M0 0 C0.66 0.99 1.32 1.98 2 3 C-0.31 3 -2.62 3 -5 3 C-3 1 -3 1 0 0 Z " fill="#5C6C7C" transform="translate(407,254)"/>
<path d="M0 0 C1.32 0.66 2.64 1.32 4 2 C2.02 2.99 2.02 2.99 0 4 C0 2.68 0 1.36 0 0 Z " fill="#812E53" transform="translate(369,271)"/>
<path d="M0 0 C3.3 0 6.6 0 10 0 C9.34 0.66 8.68 1.32 8 2 C5.27130593 1.96712417 2.7033382 1.43602229 0 1 C0 0.67 0 0.34 0 0 Z " fill="#191A1F" transform="translate(141,261)"/>
<path d="M0 0 C0.66 0 1.32 0 2 0 C1.67 1.32 1.34 2.64 1 4 C0.01 3.67 -0.98 3.34 -2 3 C-1.34 2.01 -0.68 1.02 0 0 Z " fill="#848486" transform="translate(144,238)"/>
<path d="M0 0 C1.67542976 0.28604898 3.34385343 0.61781233 5 1 C3.02 1.99 3.02 1.99 1 3 C0.34 2.34 -0.32 1.68 -1 1 C-0.67 0.67 -0.34 0.34 0 0 Z " fill="#818081" transform="translate(416,287)"/>
<path d="M0 0 C0.66 0 1.32 0 2 0 C2 0.66 2 1.32 2 2 C2.99 2 3.98 2 5 2 C4.67 2.99 4.34 3.98 4 5 C3.67 4.34 3.34 3.68 3 3 C2.34 3 1.68 3 1 3 C0.67 2.01 0.34 1.02 0 0 Z " fill="#5B6A79" transform="translate(424,283)"/>
<path d="M0 0 C1.32 0.66 2.64 1.32 4 2 C2.02 2.99 2.02 2.99 0 4 C-0.33 3.34 -0.66 2.68 -1 2 C-0.67 1.34 -0.34 0.68 0 0 Z " fill="#5A6A7B" transform="translate(380,282)"/>
<path d="M0 0 C0.66 0 1.32 0 2 0 C2.33 1.65 2.66 3.3 3 5 C2.01 4.67 1.02 4.34 0 4 C-0.33 3.01 -0.66 2.02 -1 1 C-0.67 0.67 -0.34 0.34 0 0 Z " fill="#5B6B7B" transform="translate(428,279)"/>
<path d="M0 0 C1.98 0.66 3.96 1.32 6 2 C3.53721199 3.231394 1.7204945 3.07159196 -1 3 C-0.67 2.01 -0.34 1.02 0 0 Z " fill="#617080" transform="translate(402,244)"/>
<path d="M0 0 C0.99 0.33 1.98 0.66 3 1 C3 1.66 3 2.32 3 3 C1.35 3 -0.3 3 -2 3 C-2 2.34 -2 1.68 -2 1 C-1.34 0.67 -0.68 0.34 0 0 Z " fill="#5B6979" transform="translate(388,219)"/>
<path d="M0 0 C0.99 0.66 1.98 1.32 3 2 C2 3 2 3 -0.5625 3.0625 C-1.7690625 3.0315625 -1.7690625 3.0315625 -3 3 C-2.01 2.01 -1.02 1.02 0 0 Z " fill="#77B5DF" transform="translate(16,193)"/>
<path d="M0 0 C2.97 0 5.94 0 9 0 C9 0.33 9 0.66 9 1 C6.03 1 3.06 1 0 1 C0 0.67 0 0.34 0 0 Z " fill="#181819" transform="translate(39,308)"/>
<path d="M0 0 C0.33 0 0.66 0 1 0 C1 2.97 1 5.94 1 9 C0.67 9 0.34 9 0 9 C0 6.03 0 3.06 0 0 Z " fill="#858588" transform="translate(425,290)"/>
<path d="M0 0 C1.9375 0.375 1.9375 0.375 4 1 C4.33 1.66 4.66 2.32 5 3 C3.0625 2.625 3.0625 2.625 1 2 C0.67 1.34 0.34 0.68 0 0 Z " fill="#80747D" transform="translate(405,288)"/>
<path d="M0 0 C-3.01031744 0.93423645 -3.86650268 1.04449911 -7 0 C-4.3333581 -1.33332095 -2.83319697 -0.67102033 0 0 Z " fill="#637180" transform="translate(397,283)"/>
<path d="M0 0 C1.32 0.33 2.64 0.66 4 1 C3.01 2.485 3.01 2.485 2 4 C1.34 2.68 0.68 1.36 0 0 Z " fill="#615B70" transform="translate(377,272)"/>
<path d="M0 0 C0.99 0 1.98 0 3 0 C2.67 0.99 2.34 1.98 2 3 C1.01 3 0.02 3 -1 3 C-0.67 2.01 -0.34 1.02 0 0 Z " fill="#5B6A79" transform="translate(391,271)"/>
<path d="M0 0 C2.31 0.33 4.62 0.66 7 1 C7 1.33 7 1.66 7 2 C4.36 2 1.72 2 -1 2 C-0.67 1.34 -0.34 0.68 0 0 Z " fill="#5B6A7B" transform="translate(402,268)"/>
<path d="M0 0 C0.99 0.33 1.98 0.66 3 1 C3 1.66 3 2.32 3 3 C2.01 3.33 1.02 3.66 0 4 C-0.33 3.34 -0.66 2.68 -1 2 C-0.67 1.34 -0.34 0.68 0 0 Z " fill="#657280" transform="translate(408,249)"/>
<path d="M0 0 C2.475 0.99 2.475 0.99 5 2 C4.01 2.66 3.02 3.32 2 4 C2 3.34 2 2.68 2 2 C1.34 2 0.68 2 0 2 C0 1.34 0 0.68 0 0 Z " fill="#847F84" transform="translate(139,235)"/>
<path d="M0 0 C2.64 0 5.28 0 8 0 C7.67 0.66 7.34 1.32 7 2 C4.69 1.67 2.38 1.34 0 1 C0 0.67 0 0.34 0 0 Z " fill="#5FB3EE" transform="translate(77,228)"/>
<path d="M0 0 C0.99 0.33 1.98 0.66 3 1 C2.67 1.66 2.34 2.32 2 3 C2.66 3.33 3.32 3.66 4 4 C2.68 3.67 1.36 3.34 0 3 C0 2.01 0 1.02 0 0 Z " fill="#5FB3EE" transform="translate(82,213)"/>
<path d="M0 0 C1.32 1.65 2.64 3.3 4 5 C3.01 5.495 3.01 5.495 2 6 C0 3 0 3 0 0 Z " fill="#D1DEE9" transform="translate(46,210)"/>
<path d="M0 0 C0.66 0.33 1.32 0.66 2 1 C1.67 1.66 1.34 2.32 1 3 C-0.65 2.67 -2.3 2.34 -4 2 C-3.34 1.67 -2.68 1.34 -2 1 C-1.34 1.33 -0.68 1.66 0 2 C0 1.34 0 0.68 0 0 Z " fill="#5D6C7C" transform="translate(394,197)"/>
<path d="M0 0 C3 1 3 1 4 3 C2.35 2.67 0.7 2.34 -1 2 C-0.67 1.34 -0.34 0.68 0 0 Z " fill="#838586" transform="translate(575,190)"/>
<path d="M0 0 C0.66 0 1.32 0 2 0 C1.67 2.31 1.34 4.62 1 7 C0.67 7 0.34 7 0 7 C0 4.69 0 2.38 0 0 Z " fill="#F9FBFB" transform="translate(88,188)"/>
<path d="M0 0 C0.33 0 0.66 0 1 0 C1 2.97 1 5.94 1 9 C0.67 9 0.34 9 0 9 C0 6.03 0 3.06 0 0 Z " fill="#858484" transform="translate(562,144)"/>
<path d="M0 0 C0.99 0.66 1.98 1.32 3 2 C2.01 2.495 2.01 2.495 1 3 C-1.125 2.0625 -1.125 2.0625 -3 1 C-2.01 0.67 -1.02 0.34 0 0 Z " fill="#686B72" transform="translate(432,286)"/>
<path d="M0 0 C0.33 1.32 0.66 2.64 1 4 C0.01 4.33 -0.98 4.66 -2 5 C-1.34 3.35 -0.68 1.7 0 0 Z " fill="#5D6B7A" transform="translate(397,270)"/>
<path d="M0 0 C0 0.99 0 1.98 0 3 C-1.32 3 -2.64 3 -4 3 C-4 2.34 -4 1.68 -4 1 C-2.68 0.67 -1.36 0.34 0 0 Z " fill="#5F6D7A" transform="translate(394,268)"/>
<path d="M0 0 C0.99 0.495 0.99 0.495 2 1 C2.625 3.0625 2.625 3.0625 3 5 C2.01 4.67 1.02 4.34 0 4 C0 2.68 0 1.36 0 0 Z " fill="#5A6A7A" transform="translate(402,238)"/>
<path d="M0 0 C1.98 0.99 1.98 0.99 4 2 C2.68 2 1.36 2 0 2 C0 1.34 0 0.68 0 0 Z " fill="#EDF4F8" transform="translate(86,240)"/>
<path d="M0 0 C0.99 0.99 1.98 1.98 3 3 C2.34 3.66 1.68 4.32 1 5 C0.67 3.35 0.34 1.7 0 0 Z " fill="#CCD2D7" transform="translate(379,176)"/>
<path d="M0 0 C0 1.66666667 0 3.33333333 0 5 C-0.66 5 -1.32 5 -2 5 C-1.125 1.125 -1.125 1.125 0 0 Z " fill="#5B565C" transform="translate(98,161)"/>
<path d="M0 0 C2.31 0 4.62 0 7 0 C7 0.33 7 0.66 7 1 C4.69 1 2.38 1 0 1 C0 0.67 0 0.34 0 0 Z " fill="#181819" transform="translate(54,312)"/>
<path d="M0 0 C0.33 0 0.66 0 1 0 C1 2.31 1 4.62 1 7 C0.67 7 0.34 7 0 7 C0 4.69 0 2.38 0 0 Z " fill="#858588" transform="translate(398,292)"/>
<path d="M0 0 C1.32 0.66 2.64 1.32 4 2 C2.35 2 0.7 2 -1 2 C-0.67 1.34 -0.34 0.68 0 0 Z " fill="#7C8085" transform="translate(573,284)"/>
<path d="M0 0 C1.98 0 3.96 0 6 0 C5.67 0.66 5.34 1.32 5 2 C3.35 1.67 1.7 1.34 0 1 C0 0.67 0 0.34 0 0 Z " fill="#FAFAFA" transform="translate(563,283)"/>
<path d="M0 0 C0.99 0.33 1.98 0.66 3 1 C3 1.99 3 2.98 3 4 C1 3 1 3 0 0 Z " fill="#59697A" transform="translate(407,277)"/>
<path d="M0 0 C1.32 0.33 2.64 0.66 4 1 C3.67 1.66 3.34 2.32 3 3 C2.34 3 1.68 3 1 3 C0.67 2.01 0.34 1.02 0 0 Z " fill="#637280" transform="translate(402,247)"/>
<path d="M0 0 C0.99 0.99 1.98 1.98 3 3 C2.01 3 1.02 3 0 3 C0 2.01 0 1.02 0 0 Z " fill="#596A7A" transform="translate(405,239)"/>
<path d="M0 0 C1.32 0 2.64 0 4 0 C3.67 0.66 3.34 1.32 3 2 C2.01 2 1.02 2 0 2 C0 1.34 0 0.68 0 0 Z " fill="#586979" transform="translate(406,236)"/>
<path d="M0 0 C0.33 0 0.66 0 1 0 C1 1.98 1 3.96 1 6 C0.34 5.67 -0.32 5.34 -1 5 C-0.67 3.35 -0.34 1.7 0 0 Z " fill="#6C90B5" transform="translate(37,231)"/>
<path d="M0 0 C2.475 0.495 2.475 0.495 5 1 C4.01 1.33 3.02 1.66 2 2 C1.34 1.34 0.68 0.68 0 0 Z " fill="#D1CBC6" transform="translate(40,209)"/>
<path d="M0 0 C0.33 0.99 0.66 1.98 1 3 C-0.32 2.34 -1.64 1.68 -3 1 C-2.01 0.67 -1.02 0.34 0 0 Z " fill="#CED0D2" transform="translate(568,200)"/>
<path d="M0 0 C1.32 0.33 2.64 0.66 4 1 C2.68 1.33 1.36 1.66 0 2 C0 1.34 0 0.68 0 0 Z " fill="#282729" transform="translate(93,198)"/>
<path d="M0 0 C2.31 0 4.62 0 7 0 C7 0.33 7 0.66 7 1 C4.69 1 2.38 1 0 1 C0 0.67 0 0.34 0 0 Z " fill="#8294A5" transform="translate(394,189)"/>
<path d="M0 0 C0.66 0.33 1.32 0.66 2 1 C1.01 2.485 1.01 2.485 0 4 C0 2.68 0 1.36 0 0 Z " fill="#778088" transform="translate(434,175)"/>
<path d="M0 0 C0.66 0.66 1.32 1.32 2 2 C0.68 2.33 -0.64 2.66 -2 3 C-1.34 2.67 -0.68 2.34 0 2 C0 1.34 0 0.68 0 0 Z " fill="#E5E5E6" transform="translate(85,319)"/>
<path d="M0 0 C0.33 1.32 0.66 2.64 1 4 C0.01 3.67 -0.98 3.34 -2 3 C-1.34 3 -0.68 3 0 3 C0 2.01 0 1.02 0 0 Z " fill="#818082" transform="translate(397,288)"/>
<path d="M0 0 C0 0.66 0 1.32 0 2 C-1.32 1.67 -2.64 1.34 -4 1 C-2 0 -2 0 0 0 Z " fill="#5B6B7B" transform="translate(407,278)"/>
<path d="M0 0 C0.99 0 1.98 0 3 0 C2.67 0.99 2.34 1.98 2 3 C1.34 2.67 0.68 2.34 0 2 C0 1.34 0 0.68 0 0 Z " fill="#843C5A" transform="translate(373,275)"/>
<path d="M0 0 C0.99 0.33 1.98 0.66 3 1 C3 1.66 3 2.32 3 3 C2.34 3 1.68 3 1 3 C0.67 2.01 0.34 1.02 0 0 Z " fill="#5B6B7B" transform="translate(423,271)"/>
<path d="M0 0 C1.32 0 2.64 0 4 0 C4 0.66 4 1.32 4 2 C2.68 1.34 1.36 0.68 0 0 Z " fill="#873F5C" transform="translate(372,259)"/>
<path d="M0 0 C0.33 0 0.66 0 1 0 C1 1.98 1 3.96 1 6 C0.67 6 0.34 6 0 6 C0 4.02 0 2.04 0 0 Z " fill="#5A6A7B" transform="translate(428,246)"/>
<path d="M0 0 C0.33 0.66 0.66 1.32 1 2 C1.66 2.33 2.32 2.66 3 3 C2.01 3 1.02 3 0 3 C0 2.01 0 1.02 0 0 Z " fill="#F3F1F4" transform="translate(45,236)"/>
<path d="M0 0 C0.66 0 1.32 0 2 0 C1.67 0.99 1.34 1.98 1 3 C0.34 2.34 -0.32 1.68 -1 1 C-0.67 0.67 -0.34 0.34 0 0 Z " fill="#F3F2F4" transform="translate(150,236)"/>
<path d="M0 0 C0.66 0 1.32 0 2 0 C2 0.66 2 1.32 2 2 C1.01 2.33 0.02 2.66 -1 3 C-0.67 2.01 -0.34 1.02 0 0 Z " fill="#D7DCDF" transform="translate(50,228)"/>
<path d="M0 0 C0.33 1.32 0.66 2.64 1 4 C0.01 4.495 0.01 4.495 -1 5 C-0.67 3.35 -0.34 1.7 0 0 Z " fill="#DFDFDC" transform="translate(32,219)"/>
<path d="M0 0 C1.32 0 2.64 0 4 0 C4 0.66 4 1.32 4 2 C2.68 1.34 1.36 0.68 0 0 Z " fill="#5A6B7B" transform="translate(385,215)"/>
<path d="M0 0 C0.66 0.99 1.32 1.98 2 3 C0.68 2.67 -0.64 2.34 -2 2 C-1.34 2 -0.68 2 0 2 C0 1.34 0 0.68 0 0 Z " fill="#D4C4BA" transform="translate(36,213)"/>
<path d="M0 0 C0.66 0 1.32 0 2 0 C2.33 0.99 2.66 1.98 3 3 C2.01 3.495 2.01 3.495 1 4 C0.67 2.68 0.34 1.36 0 0 Z " fill="#5A6A7B" transform="translate(402,211)"/>
<path d="M0 0 C1.32 0.33 2.64 0.66 4 1 C2.68 1.33 1.36 1.66 0 2 C0 1.34 0 0.68 0 0 Z " fill="#C9C0B9" transform="translate(42,212)"/>
<path d="M0 0 C1.32 0 2.64 0 4 0 C4 0.66 4 1.32 4 2 C2.68 1.34 1.36 0.68 0 0 Z " fill="#F5F3F4" transform="translate(58,212)"/>
<path d="M0 0 C0.66 0 1.32 0 2 0 C2 0.99 2 1.98 2 3 C1.01 2.67 0.02 2.34 -1 2 C-0.67 1.34 -0.34 0.68 0 0 Z " fill="#A48B6B" transform="translate(57,189)"/>
<path d="M0 0 C0.66 0.66 1.32 1.32 2 2 C1.67 2.66 1.34 3.32 1 4 C0.34 3.67 -0.32 3.34 -1 3 C-0.67 2.01 -0.34 1.02 0 0 Z " fill="#4C4A50" transform="translate(571,188)"/>
<path d="M0 0 C0.66 0.99 1.32 1.98 2 3 C1.01 3 0.02 3 -1 3 C-0.67 2.01 -0.34 1.02 0 0 Z " fill="#F8FAFA" transform="translate(436,185)"/>
<path d="M0 0 C0.99 0 1.98 0 3 0 C3 0.66 3 1.32 3 2 C2.01 2 1.02 2 0 2 C0 1.34 0 0.68 0 0 Z " fill="#7D8185" transform="translate(580,181)"/>
<path d="M0 0 C0.33 0 0.66 0 1 0 C1 1.98 1 3.96 1 6 C0.67 6 0.34 6 0 6 C0 4.02 0 2.04 0 0 Z " fill="#FEFEFE" transform="translate(436,176)"/>
<path d="M0 0 C0.99 0.99 1.98 1.98 3 3 C2.01 3 1.02 3 0 3 C0 2.01 0 1.02 0 0 Z " fill="#625D63" transform="translate(96,175)"/>
<path d="M0 0 C0.33 0 0.66 0 1 0 C1 1.98 1 3.96 1 6 C0.67 6 0.34 6 0 6 C0 4.02 0 2.04 0 0 Z " fill="#FDFDFE" transform="translate(102,165)"/>
<path d="M0 0 C0.33 0 0.66 0 1 0 C1 1.98 1 3.96 1 6 C0.67 6 0.34 6 0 6 C0 4.02 0 2.04 0 0 Z " fill="#FCFBFC" transform="translate(100,165)"/>
<path d="M0 0 C0.66 0.66 1.32 1.32 2 2 C1.01 2 0.02 2 -1 2 C-0.67 1.34 -0.34 0.68 0 0 Z " fill="#D3D4D4" transform="translate(80,319)"/>
<path d="M0 0 C0.66 0.66 1.32 1.32 2 2 C1.01 2 0.02 2 -1 2 C-0.67 1.34 -0.34 0.68 0 0 Z " fill="#D3D4D4" transform="translate(77,319)"/>
<path d="M0 0 C0.66 0.66 1.32 1.32 2 2 C1.01 2 0.02 2 -1 2 C-0.67 1.34 -0.34 0.68 0 0 Z " fill="#D3D4D4" transform="translate(74,319)"/>
<path d="M0 0 C0.66 0.66 1.32 1.32 2 2 C1.01 2 0.02 2 -1 2 C-0.67 1.34 -0.34 0.68 0 0 Z " fill="#D3D4D4" transform="translate(71,319)"/>
<path d="M0 0 C0.66 0.66 1.32 1.32 2 2 C1.01 2 0.02 2 -1 2 C-0.67 1.34 -0.34 0.68 0 0 Z " fill="#D3D4D4" transform="translate(68,319)"/>
<path d="M0 0 C0.66 0.66 1.32 1.32 2 2 C1.01 2 0.02 2 -1 2 C-0.67 1.34 -0.34 0.68 0 0 Z " fill="#D3D4D4" transform="translate(65,319)"/>
<path d="M0 0 C0.66 0.66 1.32 1.32 2 2 C1.01 2 0.02 2 -1 2 C-0.67 1.34 -0.34 0.68 0 0 Z " fill="#D3D4D4" transform="translate(62,319)"/>
<path d="M0 0 C0.66 0.66 1.32 1.32 2 2 C1.01 2 0.02 2 -1 2 C-0.67 1.34 -0.34 0.68 0 0 Z " fill="#D3D4D4" transform="translate(59,319)"/>
<path d="M0 0 C0.66 0.66 1.32 1.32 2 2 C1.01 2 0.02 2 -1 2 C-0.67 1.34 -0.34 0.68 0 0 Z " fill="#D3D4D4" transform="translate(56,319)"/>
<path d="M0 0 C0.66 0.66 1.32 1.32 2 2 C1.01 2 0.02 2 -1 2 C-0.67 1.34 -0.34 0.68 0 0 Z " fill="#D3D4D4" transform="translate(53,319)"/>
<path d="M0 0 C0.66 0.66 1.32 1.32 2 2 C1.01 2 0.02 2 -1 2 C-0.67 1.34 -0.34 0.68 0 0 Z " fill="#D3D4D4" transform="translate(50,319)"/>
<path d="M0 0 C0.66 0.66 1.32 1.32 2 2 C1.01 2 0.02 2 -1 2 C-0.67 1.34 -0.34 0.68 0 0 Z " fill="#D3D4D4" transform="translate(47,319)"/>
<path d="M0 0 C0.66 0.66 1.32 1.32 2 2 C1.01 2 0.02 2 -1 2 C-0.67 1.34 -0.34 0.68 0 0 Z " fill="#D3D4D4" transform="translate(44,319)"/>
<path d="M0 0 C0.66 0.66 1.32 1.32 2 2 C1.01 2 0.02 2 -1 2 C-0.67 1.34 -0.34 0.68 0 0 Z " fill="#D3D4D4" transform="translate(41,319)"/>
<path d="M0 0 C0.66 0.66 1.32 1.32 2 2 C1.01 2 0.02 2 -1 2 C-0.67 1.34 -0.34 0.68 0 0 Z " fill="#D3D4D4" transform="translate(38,319)"/>
<path d="M0 0 C0.66 0.66 1.32 1.32 2 2 C1.01 2 0.02 2 -1 2 C-0.67 1.34 -0.34 0.68 0 0 Z " fill="#D3D4D4" transform="translate(35,319)"/>
<path d="M0 0 C0.66 0.66 1.32 1.32 2 2 C1.01 2 0.02 2 -1 2 C-0.67 1.34 -0.34 0.68 0 0 Z " fill="#D3D4D4" transform="translate(32,319)"/>
<path d="M0 0 C0.66 0.66 1.32 1.32 2 2 C1.01 2 0.02 2 -1 2 C-0.67 1.34 -0.34 0.68 0 0 Z " fill="#D3D4D4" transform="translate(29,319)"/>
<path d="M0 0 C0.66 0.66 1.32 1.32 2 2 C1.01 2 0.02 2 -1 2 C-0.67 1.34 -0.34 0.68 0 0 Z " fill="#D3D4D4" transform="translate(26,319)"/>
<path d="M0 0 C0.66 0.66 1.32 1.32 2 2 C1.01 2 0.02 2 -1 2 C-0.67 1.34 -0.34 0.68 0 0 Z " fill="#D3D4D4" transform="translate(23,319)"/>
<path d="M0 0 C0.66 0.66 1.32 1.32 2 2 C1.01 2 0.02 2 -1 2 C-0.67 1.34 -0.34 0.68 0 0 Z " fill="#D3D4D4" transform="translate(20,319)"/>
<path d="M0 0 C0.66 0.66 1.32 1.32 2 2 C1.01 2 0.02 2 -1 2 C-0.67 1.34 -0.34 0.68 0 0 Z " fill="#D3D4D4" transform="translate(17,319)"/>
<path d="M0 0 C0.66 0.66 1.32 1.32 2 2 C1.01 2 0.02 2 -1 2 C-0.67 1.34 -0.34 0.68 0 0 Z " fill="#D3D4D4" transform="translate(14,319)"/>
<path d="M0 0 C0.66 0.66 1.32 1.32 2 2 C1.01 2 0.02 2 -1 2 C-0.67 1.34 -0.34 0.68 0 0 Z " fill="#D3D4D4" transform="translate(11,319)"/>
<path d="M0 0 C0.66 0 1.32 0 2 0 C2 0.66 2 1.32 2 2 C1.01 1.67 0.02 1.34 -1 1 C-0.67 0.67 -0.34 0.34 0 0 Z " fill="#666667" transform="translate(8,318)"/>
<path d="M0 0 C0.99 0.33 1.98 0.66 3 1 C2.01 1.33 1.02 1.66 0 2 C0 1.34 0 0.68 0 0 Z " fill="#444446" transform="translate(43,311)"/>
<path d="M0 0 C1.32 0.33 2.64 0.66 4 1 C3.01 1.33 2.02 1.66 1 2 C0.67 1.34 0.34 0.68 0 0 Z " fill="#2B2B2D" transform="translate(50,301)"/>
<path d="M0 0 C0.99 0 1.98 0 3 0 C3 0.66 3 1.32 3 2 C2.01 2 1.02 2 0 2 C0 1.34 0 0.68 0 0 Z " fill="#83797F" transform="translate(384,289)"/>
<path d="M0 0 C0.99 0.33 1.98 0.66 3 1 C2.34 1.66 1.68 2.32 1 3 C0.67 2.01 0.34 1.02 0 0 Z " fill="#59697A" transform="translate(406,283)"/>
<path d="M0 0 C0.66 0.66 1.32 1.32 2 2 C0.68 1.67 -0.64 1.34 -2 1 C-1.34 0.67 -0.68 0.34 0 0 Z " fill="#615B70" transform="translate(379,279)"/>
<path d="M0 0 C1.65 0 3.3 0 5 0 C5 0.33 5 0.66 5 1 C3.35 1 1.7 1 0 1 C0 0.67 0 0.34 0 0 Z " fill="#191A1F" transform="translate(209,264)"/>
<path d="M0 0 C1.65 0 3.3 0 5 0 C5 0.33 5 0.66 5 1 C3.35 1 1.7 1 0 1 C0 0.67 0 0.34 0 0 Z " fill="#1A1A1F" transform="translate(198,263)"/>
<path d="M0 0 C0.66 0 1.32 0 2 0 C2 0.66 2 1.32 2 2 C1.01 1.67 0.02 1.34 -1 1 C-0.67 0.67 -0.34 0.34 0 0 Z " fill="#5A697A" transform="translate(411,252)"/>
<path d="M0 0 C0 0.99 0 1.98 0 3 C-0.66 2.34 -1.32 1.68 -2 1 C-1.34 0.67 -0.68 0.34 0 0 Z " fill="#5B6B7B" transform="translate(410,246)"/>
<path d="M0 0 C0.66 0.66 1.32 1.32 2 2 C0.68 1.67 -0.64 1.34 -2 1 C-1.34 0.67 -0.68 0.34 0 0 Z " fill="#F3F1F3" transform="translate(45,241)"/>
<path d="M0 0 C0.99 0.33 1.98 0.66 3 1 C2.01 1.33 1.02 1.66 0 2 C0 1.34 0 0.68 0 0 Z " fill="#D2CFCF" transform="translate(44,229)"/>
<path d="M0 0 C0.33 0.66 0.66 1.32 1 2 C1.66 2.33 2.32 2.66 3 3 C2.01 3 1.02 3 0 3 C0 2.01 0 1.02 0 0 Z " fill="#868586" transform="translate(359,225)"/>
<path d="M0 0 C0.66 0 1.32 0 2 0 C2 0.66 2 1.32 2 2 C1.01 1.67 0.02 1.34 -1 1 C-0.67 0.67 -0.34 0.34 0 0 Z " fill="#5FB3EE" transform="translate(67,227)"/>
<path d="M0 0 C0.66 0.33 1.32 0.66 2 1 C0.68 1.33 -0.64 1.66 -2 2 C-1.34 1.34 -0.68 0.68 0 0 Z " fill="#5C6C7C" transform="translate(392,225)"/>
<path d="M0 0 C1.65 0 3.3 0 5 0 C5 0.33 5 0.66 5 1 C3.35 1 1.7 1 0 1 C0 0.67 0 0.34 0 0 Z " fill="#60B3EE" transform="translate(80,224)"/>
<path d="M0 0 C0.66 0.33 1.32 0.66 2 1 C0.68 1.33 -0.64 1.66 -2 2 C-1.34 1.34 -0.68 0.68 0 0 Z " fill="#F3F1F4" transform="translate(52,222)"/>
<path d="M0 0 C0.99 0.495 0.99 0.495 2 1 C1.01 2.485 1.01 2.485 0 4 C0 2.68 0 1.36 0 0 Z " fill="#5C82A9" transform="translate(35,220)"/>
<path d="M0 0 C0.99 0.33 1.98 0.66 3 1 C2.01 1.33 1.02 1.66 0 2 C0 1.34 0 0.68 0 0 Z " fill="#5A697A" transform="translate(412,220)"/>
<path d="M0 0 C0.66 0.33 1.32 0.66 2 1 C1.67 1.66 1.34 2.32 1 3 C0.34 2.34 -0.32 1.68 -1 1 C-0.67 0.67 -0.34 0.34 0 0 Z " fill="#5A697A" transform="translate(401,219)"/>
<path d="M0 0 C1.98 0.99 1.98 0.99 4 2 C2.68 2 1.36 2 0 2 C0 1.34 0 0.68 0 0 Z " fill="#677685" transform="translate(380,216)"/>
<path d="M0 0 C0.99 0.33 1.98 0.66 3 1 C2.01 1.33 1.02 1.66 0 2 C0 1.34 0 0.68 0 0 Z " fill="#DDCBBE" transform="translate(37,217)"/>
<path d="M0 0 C0.99 0 1.98 0 3 0 C3 0.66 3 1.32 3 2 C2.01 1.67 1.02 1.34 0 1 C0 0.67 0 0.34 0 0 Z " fill="#5B6B7C" transform="translate(396,215)"/>
<path d="M0 0 C0.99 0 1.98 0 3 0 C3 0.66 3 1.32 3 2 C2.01 1.67 1.02 1.34 0 1 C0 0.67 0 0.34 0 0 Z " fill="#FBFBFA" transform="translate(87,215)"/>
<path d="M0 0 C0.66 0 1.32 0 2 0 C2 0.99 2 1.98 2 3 C1.34 2.67 0.68 2.34 0 2 C0 1.34 0 0.68 0 0 Z " fill="#5A6A7A" transform="translate(416,214)"/>
<path d="M0 0 C1.32 0.33 2.64 0.66 4 1 C3.01 1.495 3.01 1.495 2 2 C1.34 1.34 0.68 0.68 0 0 Z " fill="#919DA9" transform="translate(392,212)"/>
<path d="M0 0 C0.33 0.99 0.66 1.98 1 3 C0.34 3 -0.32 3 -1 3 C-0.67 2.01 -0.34 1.02 0 0 Z " fill="#F3F4F6" transform="translate(63,208)"/>
<path d="M0 0 C1.32 0 2.64 0 4 0 C3.67 0.66 3.34 1.32 3 2 C2.01 1.34 1.02 0.68 0 0 Z " fill="#5D6D7D" transform="translate(423,207)"/>
<path d="M0 0 C0.66 0 1.32 0 2 0 C2.33 0.99 2.66 1.98 3 3 C2.34 3 1.68 3 1 3 C0.67 2.01 0.34 1.02 0 0 Z " fill="#5B6B7B" transform="translate(381,203)"/>
<path d="M0 0 C0.66 0 1.32 0 2 0 C1.67 0.99 1.34 1.98 1 3 C0.67 2.01 0.34 1.02 0 0 Z " fill="#F7F9F9" transform="translate(60,203)"/>
<path d="M0 0 C0.99 0 1.98 0 3 0 C2.67 0.66 2.34 1.32 2 2 C1.34 2 0.68 2 0 2 C0 1.34 0 0.68 0 0 Z " fill="#D1C2B2" transform="translate(23,200)"/>
<path d="M0 0 C0.66 0 1.32 0 2 0 C1.67 0.99 1.34 1.98 1 3 C0.67 2.01 0.34 1.02 0 0 Z " fill="#898070" transform="translate(56,195)"/>
<path d="M0 0 C0.99 0.495 0.99 0.495 2 1 C2 1.66 2 2.32 2 3 C1.34 3 0.68 3 0 3 C0 2.01 0 1.02 0 0 Z " fill="#8191A1" transform="translate(380,186)"/>
<path d="M0 0 C0.99 0.33 1.98 0.66 3 1 C2.01 1.33 1.02 1.66 0 2 C0 1.34 0 0.68 0 0 Z " fill="#7C7F82" transform="translate(577,183)"/>
<path d="M0 0 C1.32 0.33 2.64 0.66 4 1 C3.01 1.33 2.02 1.66 1 2 C0.67 1.34 0.34 0.68 0 0 Z " fill="#757479" transform="translate(571,183)"/>
<path d="M0 0 C4 1 4 1 4 1 Z " fill="#141415" transform="translate(81,316)"/>
<path d="M0 0 C1.485 0.99 1.485 0.99 3 2 C2.01 2 1.02 2 0 2 C0 1.34 0 0.68 0 0 Z " fill="#212223" transform="translate(34,309)"/>
<path d="M0 0 C1 4 1 4 1 4 Z " fill="#858484" transform="translate(412,295)"/>
<path d="M0 0 C0 3 0 3 0 3 Z " fill="#868588" transform="translate(527,294)"/>
<path d="M0 0 C0.99 0 1.98 0 3 0 C2.67 0.66 2.34 1.32 2 2 C1.34 1.34 0.68 0.68 0 0 Z " fill="#787C80" transform="translate(569,287)"/>
<path d="M0 0 C0.99 0.33 1.98 0.66 3 1 C2.01 1 1.02 1 0 1 C0 0.67 0 0.34 0 0 Z " fill="#67717C" transform="translate(409,286)"/>
<path d="M0 0 C0.99 0.33 1.98 0.66 3 1 C2.01 1.33 1.02 1.66 0 2 C0 1.34 0 0.68 0 0 Z " fill="#5A6A7B" transform="translate(405,274)"/>
<path d="M0 0 C0.66 0.66 1.32 1.32 2 2 C1.01 1.67 0.02 1.34 -1 1 C-0.67 0.67 -0.34 0.34 0 0 Z " fill="#5D6C7C" transform="translate(384,270)"/>
<path d="M0 0 C0.99 0.33 1.98 0.66 3 1 C2.01 1 1.02 1 0 1 C0 0.67 0 0.34 0 0 Z " fill="#615A70" transform="translate(377,261)"/>
<path d="M0 0 C0.66 0 1.32 0 2 0 C2 0.66 2 1.32 2 2 C1.34 2 0.68 2 0 2 C0 1.34 0 0.68 0 0 Z " fill="#FBFAFA" transform="translate(88,251)"/>
<path d="M0 0 C0.66 0 1.32 0 2 0 C2 0.66 2 1.32 2 2 C1.34 2 0.68 2 0 2 C0 1.34 0 0.68 0 0 Z " fill="#F2F2F2" transform="translate(65,233)"/>
<path d="M0 0 C0 3 0 3 0 3 Z " fill="#62B4EE" transform="translate(528,232)"/>
<path d="M0 0 C0.66 0.66 1.32 1.32 2 2 C1.01 1.67 0.02 1.34 -1 1 C-0.67 0.67 -0.34 0.34 0 0 Z " fill="#838284" transform="translate(357,227)"/>
<path d="M0 0 C0.66 0 1.32 0 2 0 C2 0.66 2 1.32 2 2 C1.34 2 0.68 2 0 2 C0 1.34 0 0.68 0 0 Z " fill="#9D9C9D" transform="translate(354,224)"/>
<path d="M0 0 C0.66 0 1.32 0 2 0 C1.67 0.99 1.34 1.98 1 3 C0.67 2.01 0.34 1.02 0 0 Z " fill="#E9E5E3" transform="translate(46,221)"/>
<path d="M0 0 C1.485 0.99 1.485 0.99 3 2 C2.01 2 1.02 2 0 2 C0 1.34 0 0.68 0 0 Z " fill="#5A6979" transform="translate(392,220)"/>
<path d="M0 0 C0.66 0.66 1.32 1.32 2 2 C1.01 1.67 0.02 1.34 -1 1 C-0.67 0.67 -0.34 0.34 0 0 Z " fill="#678FBB" transform="translate(38,220)"/>
<path d="M0 0 C0.99 0.33 1.98 0.66 3 1 C2.01 1 1.02 1 0 1 C0 0.67 0 0.34 0 0 Z " fill="#5A6A7A" transform="translate(405,220)"/>
<path d="M0 0 C0.99 1.485 0.99 1.485 2 3 C1.34 3 0.68 3 0 3 C0 2.01 0 1.02 0 0 Z " fill="#5D88B7" transform="translate(43,219)"/>
<path d="M0 0 C0.99 0.33 1.98 0.66 3 1 C2.01 1 1.02 1 0 1 C0 0.67 0 0.34 0 0 Z " fill="#87ADCA" transform="translate(33,218)"/>
<path d="M0 0 C0.99 0 1.98 0 3 0 C2.67 0.66 2.34 1.32 2 2 C1.34 1.34 0.68 0.68 0 0 Z " fill="#E0CABA" transform="translate(40,215)"/>
<path d="M0 0 C0.66 0.66 1.32 1.32 2 2 C1.01 2.495 1.01 2.495 0 3 C0 2.01 0 1.02 0 0 Z " fill="#F4F9F9" transform="translate(87,210)"/>
<path d="M0 0 C0.33 0.99 0.66 1.98 1 3 C0.34 2.67 -0.32 2.34 -1 2 C-0.67 1.34 -0.34 0.68 0 0 Z " fill="#5EB2EE" transform="translate(84,208)"/>
<path d="M0 0 C0.66 0 1.32 0 2 0 C2 0.66 2 1.32 2 2 C1.34 2 0.68 2 0 2 C0 1.34 0 0.68 0 0 Z " fill="#98C9EA" transform="translate(59,209)"/>
<path d="M0 0 C4 1 4 1 4 1 Z " fill="#FBF9FA" transform="translate(81,205)"/>
<path d="M0 0 C0.99 0.495 0.99 0.495 2 1 C1.67 1.66 1.34 2.32 1 3 C0.67 2.01 0.34 1.02 0 0 Z " fill="#ECEBEB" transform="translate(69,202)"/>
<path d="M0 0 C0.99 0 1.98 0 3 0 C2.67 0.66 2.34 1.32 2 2 C1.34 1.34 0.68 0.68 0 0 Z " fill="#707E8B" transform="translate(398,202)"/>
<path d="M0 0 C0.99 0.33 1.98 0.66 3 1 C2.01 1 1.02 1 0 1 C0 0.67 0 0.34 0 0 Z " fill="#2D2C30" transform="translate(555,194)"/>
<path d="M0 0 C0 3 0 3 0 3 Z " fill="#2D2C30" transform="translate(569,188)"/>
<path d="M0 0 C4 1 4 1 4 1 Z " fill="#8092A4" transform="translate(389,189)"/>
<path d="M0 0 C1.485 0.99 1.485 0.99 3 2 C2.01 2 1.02 2 0 2 C0 1.34 0 0.68 0 0 Z " fill="#977F5A" transform="translate(16,186)"/>
<path d="M0 0 C0.99 0.33 1.98 0.66 3 1 C2.01 1 1.02 1 0 1 C0 0.67 0 0.34 0 0 Z " fill="#575F70" transform="translate(377,183)"/>
<path d="M0 0 C0.66 0.66 1.32 1.32 2 2 C1.01 1.67 0.02 1.34 -1 1 C-0.67 0.67 -0.34 0.34 0 0 Z " fill="#EFDCCC" transform="translate(52,183)"/>
<path d="M0 0 C4 1 4 1 4 1 Z " fill="#FEFDFE" transform="translate(428,177)"/>
<path d="M0 0 C1 4 1 4 1 4 Z " fill="#FDFDFE" transform="translate(102,160)"/>
<path d="M0 0 C1 4 1 4 1 4 Z " fill="#FCFBFC" transform="translate(100,160)"/>
<path d="M0 0 C1 4 1 4 1 4 Z " fill="#636363" transform="translate(96,156)"/>
<path d="M0 0 C0.99 0.33 1.98 0.66 3 1 C2.01 1 1.02 1 0 1 C0 0.67 0 0.34 0 0 Z " fill="#9B8A67" transform="translate(58,156)"/>
<path d="M0 0 C3 1 3 1 3 1 Z " fill="#FFFDFF" transform="translate(0,320)"/>
<path d="M0 0 C0.33 0.66 0.66 1.32 1 2 C0.34 1.67 -0.32 1.34 -1 1 C-0.67 0.67 -0.34 0.34 0 0 Z " fill="#151416" transform="translate(46,313)"/>
<path d="M0 0 C0.66 0 1.32 0 2 0 C1.67 0.66 1.34 1.32 1 2 C0.67 1.34 0.34 0.68 0 0 Z " fill="#18181A" transform="translate(86,312)"/>
<path d="M0 0 C3 1 3 1 3 1 Z " fill="#181819" transform="translate(81,302)"/>
<path d="M0 0 C0.66 0.66 1.32 1.32 2 2 C1.34 2 0.68 2 0 2 C0 1.34 0 0.68 0 0 Z " fill="#844165" transform="translate(403,288)"/>
<path d="" fill="#634363" transform="translate(0,0)"/>
<path d="M0 0 C0.66 0 1.32 0 2 0 C1.67 0.66 1.34 1.32 1 2 C0.67 1.34 0.34 0.68 0 0 Z " fill="#7E1F48" transform="translate(365,286)"/>
<path d="M0 0 C0.33 0.66 0.66 1.32 1 2 C0.34 1.67 -0.32 1.34 -1 1 C-0.67 0.67 -0.34 0.34 0 0 Z " fill="#606873" transform="translate(434,284)"/>
<path d="M0 0 C0.99 0.495 0.99 0.495 2 1 C1.01 1.495 1.01 1.495 0 2 C0 1.34 0 0.68 0 0 Z " fill="#596A7A" transform="translate(384,285)"/>
<path d="" fill="#68737F" transform="translate(0,0)"/>
<path d="M0 0 C3 1 3 1 3 1 Z " fill="#A5AEB7" transform="translate(431,281)"/>
<path d="M0 0 C0.66 0 1.32 0 2 0 C1.67 0.66 1.34 1.32 1 2 C0.67 1.34 0.34 0.68 0 0 Z " fill="#788693" transform="translate(396,281)"/>
<path d="M0 0 C0.66 0 1.32 0 2 0 C1.67 0.66 1.34 1.32 1 2 C0.67 1.34 0.34 0.68 0 0 Z " fill="#7D2A52" transform="translate(375,281)"/>
<path d="M0 0 C3 1 3 1 3 1 Z " fill="#5C6C7C" transform="translate(396,279)"/>
<path d="M0 0 C0.66 0.66 1.32 1.32 2 2 C1.34 2 0.68 2 0 2 C0 1.34 0 0.68 0 0 Z " fill="#5B6A7A" transform="translate(385,277)"/>
<path d="M0 0 C0.66 0 1.32 0 2 0 C1.67 0.66 1.34 1.32 1 2 C0.67 1.34 0.34 0.68 0 0 Z " fill="#BFC4C9" transform="translate(431,277)"/>
<path d="M0 0 C0.66 0 1.32 0 2 0 C1.67 0.66 1.34 1.32 1 2 C0.67 1.34 0.34 0.68 0 0 Z " fill="#697A8C" transform="translate(427,275)"/>
<path d="M0 0 C0.99 0.495 0.99 0.495 2 1 C1.01 1.495 1.01 1.495 0 2 C0 1.34 0 0.68 0 0 Z " fill="#606D7C" transform="translate(386,269)"/>
<path d="" fill="#5B6A7A" transform="translate(0,0)"/>
<path d="" fill="#606F7E" transform="translate(0,0)"/>
<path d="M0 0 C0.99 0.495 0.99 0.495 2 1 C1.01 1.495 1.01 1.495 0 2 C0 1.34 0 0.68 0 0 Z " fill="#5B6B7C" transform="translate(429,255)"/>
<path d="M0 0 C0.99 0.495 0.99 0.495 2 1 C1.01 1.495 1.01 1.495 0 2 C0 1.34 0 0.68 0 0 Z " fill="#F3F1F4" transform="translate(148,255)"/>
<path d="M0 0 C0.33 0.66 0.66 1.32 1 2 C0.34 1.67 -0.32 1.34 -1 1 C-0.67 0.67 -0.34 0.34 0 0 Z " fill="#EFF0F1" transform="translate(433,254)"/>
<path d="M0 0 C0.66 0.66 1.32 1.32 2 2 C1.34 2 0.68 2 0 2 C0 1.34 0 0.68 0 0 Z " fill="#939395" transform="translate(146,248)"/>
<path d="M0 0 C3 1 3 1 3 1 Z " fill="#5D6B7A" transform="translate(399,241)"/>
<path d="M0 0 C0.33 0.66 0.66 1.32 1 2 C0.34 1.67 -0.32 1.34 -1 1 C-0.67 0.67 -0.34 0.34 0 0 Z " fill="#F3F1F3" transform="translate(48,240)"/>
<path d="M0 0 C0.66 0 1.32 0 2 0 C1.67 0.66 1.34 1.32 1 2 C0.67 1.34 0.34 0.68 0 0 Z " fill="#E3E5E7" transform="translate(35,239)"/>
<path d="M0 0 C0.99 0.495 0.99 0.495 2 1 C1.01 1.495 1.01 1.495 0 2 C0 1.34 0 0.68 0 0 Z " fill="#858486" transform="translate(138,238)"/>
<path d="M0 0 C3 1 3 1 3 1 Z " fill="#F6F7F8" transform="translate(77,236)"/>
<path d="M0 0 C0.66 0.66 1.32 1.32 2 2 C1.34 2 0.68 2 0 2 C0 1.34 0 0.68 0 0 Z " fill="#93D0F8" transform="translate(525,231)"/>
<path d="M0 0 C3 1 3 1 3 1 Z " fill="#67788A" transform="translate(400,227)"/>
<path d="M0 0 C0.99 0.495 0.99 0.495 2 1 C1.01 1.495 1.01 1.495 0 2 C0 1.34 0 0.68 0 0 Z " fill="#D0D4D4" transform="translate(49,226)"/>
<path d="M0 0 C3 1 3 1 3 1 Z " fill="#5DB3EE" transform="translate(83,226)"/>
<path d="M0 0 C3 1 3 1 3 1 Z " fill="#5D6D7D" transform="translate(395,225)"/>
<path d="M0 0 C3 1 3 1 3 1 Z " fill="#5D6D7D" transform="translate(412,223)"/>
<path d="M0 0 C0.66 0.66 1.32 1.32 2 2 C1.34 2 0.68 2 0 2 C0 1.34 0 0.68 0 0 Z " fill="#59697A" transform="translate(416,220)"/>
<path d="M0 0 C0.66 0.66 1.32 1.32 2 2 C1.34 2 0.68 2 0 2 C0 1.34 0 0.68 0 0 Z " fill="#848387" transform="translate(361,219)"/>
<path d="M0 0 C0.33 0.66 0.66 1.32 1 2 C0.34 1.67 -0.32 1.34 -1 1 C-0.67 0.67 -0.34 0.34 0 0 Z " fill="#687686" transform="translate(410,218)"/>
<path d="M0 0 C0.99 0.495 0.99 0.495 2 1 C1.01 1.495 1.01 1.495 0 2 C0 1.34 0 0.68 0 0 Z " fill="#5E6E7D" transform="translate(396,219)"/>
<path d="M0 0 C3 1 3 1 3 1 Z " fill="#5A6979" transform="translate(409,216)"/>
<path d="M0 0 C0.99 0.495 0.99 0.495 2 1 C1.01 1.495 1.01 1.495 0 2 C0 1.34 0 0.68 0 0 Z " fill="#5B6B7B" transform="translate(404,215)"/>
<path d="M0 0 C0.33 0.66 0.66 1.32 1 2 C0.34 1.67 -0.32 1.34 -1 1 C-0.67 0.67 -0.34 0.34 0 0 Z " fill="#5B6B7B" transform="translate(382,213)"/>
<path d="M0 0 C3 1 3 1 3 1 Z " fill="#5EB3EE" transform="translate(55,211)"/>
<path d="M0 0 C0.99 0.495 0.99 0.495 2 1 C1.01 1.495 1.01 1.495 0 2 C0 1.34 0 0.68 0 0 Z " fill="#FDFCFB" transform="translate(564,208)"/>
<path d="M0 0 C0.99 0.495 0.99 0.495 2 1 C1.01 1.495 1.01 1.495 0 2 C0 1.34 0 0.68 0 0 Z " fill="#5D6C7D" transform="translate(428,207)"/>
<path d="M0 0 C0.99 0.495 0.99 0.495 2 1 C1.01 1.495 1.01 1.495 0 2 C0 1.34 0 0.68 0 0 Z " fill="#5D6C7D" transform="translate(407,207)"/>
<path d="" fill="#5B6B7B" transform="translate(0,0)"/>
<path d="M0 0 C0.99 0.495 0.99 0.495 2 1 C1.01 1.495 1.01 1.495 0 2 C0 1.34 0 0.68 0 0 Z " fill="#8DA1B6" transform="translate(562,205)"/>
<path d="M0 0 C0.99 0.495 0.99 0.495 2 1 C1.01 1.495 1.01 1.495 0 2 C0 1.34 0 0.68 0 0 Z " fill="#EFD7C8" transform="translate(77,202)"/>
<path d="M0 0 C3 1 3 1 3 1 Z " fill="#F0E0D7" transform="translate(26,202)"/>
<path d="M0 0 C0.33 0.66 0.66 1.32 1 2 C0.34 1.67 -0.32 1.34 -1 1 C-0.67 0.67 -0.34 0.34 0 0 Z " fill="#F9FBFB" transform="translate(71,200)"/>
<path d="M0 0 C0.33 0.66 0.66 1.32 1 2 C0.34 1.67 -0.32 1.34 -1 1 C-0.67 0.67 -0.34 0.34 0 0 Z " fill="#60707F" transform="translate(387,197)"/>
<path d="M0 0 C0.99 0.495 0.99 0.495 2 1 C1.01 1.495 1.01 1.495 0 2 C0 1.34 0 0.68 0 0 Z " fill="#A5A499" transform="translate(21,195)"/>
<path d="M0 0 C0.66 0 1.32 0 2 0 C1.67 0.66 1.34 1.32 1 2 C0.67 1.34 0.34 0.68 0 0 Z " fill="#585D6F" transform="translate(377,193)"/>
<path d="" fill="#60B4EE" transform="translate(0,0)"/>
<path d="M0 0 C0.66 0 1.32 0 2 0 C1.67 0.66 1.34 1.32 1 2 C0.67 1.34 0.34 0.68 0 0 Z " fill="#5A6A7B" transform="translate(405,191)"/>
<path d="M0 0 C3 1 3 1 3 1 Z " fill="#585D6F" transform="translate(377,191)"/>
<path d="" fill="#5E6773" transform="translate(0,0)"/>
<path d="M0 0 C3 1 3 1 3 1 Z " fill="#8F7754" transform="translate(60,183)"/>
<path d="" fill="#2E2D30" transform="translate(0,0)"/>
<path d="M0 0 C0.66 0 1.32 0 2 0 C1.67 0.66 1.34 1.32 1 2 C0.67 1.34 0.34 0.68 0 0 Z " fill="#70757C" transform="translate(433,180)"/>
<path d="M0 0 C0.99 0.495 0.99 0.495 2 1 C1.01 1.495 1.01 1.495 0 2 C0 1.34 0 0.68 0 0 Z " fill="#A89385" transform="translate(50,180)"/>
<path d="M0 0 C3 1 3 1 3 1 Z " fill="#8D7351" transform="translate(55,179)"/>
<path d="M0 0 C2 1 2 1 2 1 Z " fill="#555356" transform="translate(1,317)"/>
<path d="M0 0 C2 1 2 1 2 1 Z " fill="#141415" transform="translate(78,316)"/>
<path d="M0 0 C2 1 2 1 2 1 Z " fill="#141415" transform="translate(75,316)"/>
<path d="M0 0 C2 1 2 1 2 1 Z " fill="#141415" transform="translate(72,316)"/>
<path d="M0 0 C2 1 2 1 2 1 Z " fill="#17171A" transform="translate(39,313)"/>
<path d="" fill="#625860" transform="translate(0,0)"/>
<path d="M0 0 C2 1 2 1 2 1 Z " fill="#161516" transform="translate(54,302)"/>
<path d="" fill="#F4F1F3" transform="translate(0,0)"/>
<path d="M0 0 C2 1 2 1 2 1 Z " fill="#838385" transform="translate(564,292)"/>
<path d="" fill="#858485" transform="translate(0,0)"/>
<path d="M0 0 C2 1 2 1 2 1 Z " fill="#828286" transform="translate(411,289)"/>
<path d="" fill="#838283" transform="translate(0,0)"/>
<path d="" fill="#6A4C68" transform="translate(0,0)"/>
<path d="M0 0 C2 1 2 1 2 1 Z " fill="#E6E9EA" transform="translate(435,286)"/>
<path d="M0 0 C2 1 2 1 2 1 Z " fill="#5B6979" transform="translate(419,286)"/>
<path d="M0 0 C2 1 2 1 2 1 Z " fill="#757D86" transform="translate(577,284)"/>
<path d="" fill="#F5F5F4" transform="translate(0,0)"/>
<path d="" fill="#576879" transform="translate(0,0)"/>
<path d="M0 0 C2 1 2 1 2 1 Z " fill="#7D2850" transform="translate(369,281)"/>
<path d="M0 0 C2 1 2 1 2 1 Z " fill="#7D2850" transform="translate(365,281)"/>
<path d="M0 0 C2 1 2 1 2 1 Z " fill="#F4F5F6" transform="translate(531,279)"/>
<path d="M0 0 C2 1 2 1 2 1 Z " fill="#EDEFF0" transform="translate(433,279)"/>
<path d="M0 0 C2 1 2 1 2 1 Z " fill="#596979" transform="translate(411,267)"/>
<path d="M0 0 C2 1 2 1 2 1 Z " fill="#5A697A" transform="translate(408,267)"/>
<path d="M0 0 C2 1 2 1 2 1 Z " fill="#7D3057" transform="translate(368,265)"/>
<path d="M0 0 C2 1 2 1 2 1 Z " fill="#82305A" transform="translate(361,265)"/>
<path d="M0 0 C2 1 2 1 2 1 Z " fill="#1A1A1F" transform="translate(216,264)"/>
<path d="M0 0 C2 1 2 1 2 1 Z " fill="#1A1A1F" transform="translate(173,264)"/>
<path d="M0 0 C2 1 2 1 2 1 Z " fill="#1A1A1F" transform="translate(207,263)"/>
<path d="M0 0 C2 1 2 1 2 1 Z " fill="#1A1A1F" transform="translate(147,263)"/>
<path d="" fill="#7D2850" transform="translate(0,0)"/>
<path d="M0 0 C2 1 2 1 2 1 Z " fill="#FDFCFC" transform="translate(85,260)"/>
<path d="M0 0 C2 1 2 1 2 1 Z " fill="#6B4761" transform="translate(377,259)"/>
<path d="" fill="#5A6A7B" transform="translate(0,0)"/>
<path d="M0 0 C2 1 2 1 2 1 Z " fill="#5A6A7B" transform="translate(425,250)"/>
<path d="" fill="#F1F0F3" transform="translate(0,0)"/>
<path d="M0 0 C2 1 2 1 2 1 Z " fill="#FAFAF9" transform="translate(88,249)"/>
<path d="M0 0 C2 1 2 1 2 1 Z " fill="#FAFAF9" transform="translate(88,247)"/>
<path d="M0 0 C2 1 2 1 2 1 Z " fill="#FAFAF9" transform="translate(88,245)"/>
<path d="" fill="#81A4AE" transform="translate(0,0)"/>
<path d="" fill="#5A6A7B" transform="translate(0,0)"/>
<path d="M0 0 C2 1 2 1 2 1 Z " fill="#C4C3C4" transform="translate(432,241)"/>
<path d="M0 0 C2 1 2 1 2 1 Z " fill="#5A6A7B" transform="translate(420,240)"/>
<path d="" fill="#5B6B7B" transform="translate(0,0)"/>
<path d="M0 0 C2 1 2 1 2 1 Z " fill="#5B6A7A" transform="translate(396,240)"/>
<path d="M0 0 C2 1 2 1 2 1 Z " fill="#C4C3C4" transform="translate(432,239)"/>
<path d="M0 0 C2 1 2 1 2 1 Z " fill="#E9E8E7" transform="translate(34,237)"/>
<path d="M0 0 C2 1 2 1 2 1 Z " fill="#9A9A9E" transform="translate(147,236)"/>
<path d="" fill="#F5F5F7" transform="translate(0,0)"/>
<path d="M0 0 C2 1 2 1 2 1 Z " fill="#ECEDEE" transform="translate(74,235)"/>
<path d="" fill="#788692" transform="translate(0,0)"/>
<path d="M0 0 C2 1 2 1 2 1 Z " fill="#EEEEED" transform="translate(77,234)"/>
<path d="" fill="#F3F3F3" transform="translate(0,0)"/>
<path d="M0 0 C2 1 2 1 2 1 Z " fill="#67B6EE" transform="translate(522,233)"/>
<path d="" fill="#647281" transform="translate(0,0)"/>
<path d="M0 0 C2 1 2 1 2 1 Z " fill="#D2D8DB" transform="translate(46,233)"/>
<path d="M0 0 C2 1 2 1 2 1 Z " fill="#F4F1F3" transform="translate(54,232)"/>
<path d="" fill="#87CFF7" transform="translate(0,0)"/>
<path d="M0 0 C2 1 2 1 2 1 Z " fill="#5E6E7E" transform="translate(391,229)"/>
<path d="M0 0 C2 1 2 1 2 1 Z " fill="#7D8D9B" transform="translate(387,227)"/>
<path d="M0 0 C2 1 2 1 2 1 Z " fill="#59B2ED" transform="translate(511,226)"/>
<path d="M0 0 C2 1 2 1 2 1 Z " fill="#BBCEDE" transform="translate(43,226)"/>
<path d="M0 0 C2 1 2 1 2 1 Z " fill="#DEE0DF" transform="translate(32,226)"/>
<path d="M0 0 C2 1 2 1 2 1 Z " fill="#5EB2ED" transform="translate(58,225)"/>
<path d="M0 0 C2 1 2 1 2 1 Z " fill="#5A697A" transform="translate(406,224)"/>
<path d="M0 0 C2 1 2 1 2 1 Z " fill="#F4F1F3" transform="translate(54,223)"/>
<path d="M0 0 C2 1 2 1 2 1 Z " fill="#858486" transform="translate(358,222)"/>
<path d="M0 0 C2 1 2 1 2 1 Z " fill="#5EB2ED" transform="translate(81,222)"/>
<path d="M0 0 C2 1 2 1 2 1 Z " fill="#5CB2EE" transform="translate(77,222)"/>
<path d="M0 0 C2 1 2 1 2 1 Z " fill="#5A6A7B" transform="translate(409,221)"/>
<path d="" fill="#6CAEE0" transform="translate(0,0)"/>
<path d="" fill="#868588" transform="translate(0,0)"/>
<path d="" fill="#78828B" transform="translate(0,0)"/>
<path d="M0 0 C2 1 2 1 2 1 Z " fill="#F3F1F5" transform="translate(56,219)"/>
<path d="M0 0 C2 1 2 1 2 1 Z " fill="#FAFAF9" transform="translate(88,218)"/>
<path d="M0 0 C2 1 2 1 2 1 Z " fill="#5A697A" transform="translate(406,216)"/>
<path d="" fill="#5B6B7B" transform="translate(0,0)"/>
<path d="" fill="#DCCABC" transform="translate(0,0)"/>
<path d="" fill="#5B6B7B" transform="translate(0,0)"/>
<path d="M0 0 C2 1 2 1 2 1 Z " fill="#5E6E7E" transform="translate(397,213)"/>
<path d="M0 0 C2 1 2 1 2 1 Z " fill="#FDFCF9" transform="translate(88,213)"/>
<path d="M0 0 C2 1 2 1 2 1 Z " fill="#F3F2F3" transform="translate(67,212)"/>
<path d="M0 0 C2 1 2 1 2 1 Z " fill="#5C6C7C" transform="translate(399,210)"/>
<path d="M0 0 C2 1 2 1 2 1 Z " fill="#5BB2EE" transform="translate(32,209)"/>
<path d="" fill="#F2F1F2" transform="translate(0,0)"/>
<path d="M0 0 C2 1 2 1 2 1 Z " fill="#878685" transform="translate(578,206)"/>
<path d="" fill="#EFD7CA" transform="translate(0,0)"/>
<path d="M0 0 C2 1 2 1 2 1 Z " fill="#8B959D" transform="translate(395,202)"/>
<path d="M0 0 C2 1 2 1 2 1 Z " fill="#878687" transform="translate(579,201)"/>
<path d="M0 0 C2 1 2 1 2 1 Z " fill="#858588" transform="translate(581,200)"/>
<path d="M0 0 C2 1 2 1 2 1 Z " fill="#59697A" transform="translate(387,200)"/>
<path d="M0 0 C2 1 2 1 2 1 Z " fill="#FCFDFE" transform="translate(20,200)"/>
<path d="" fill="#2C2C30" transform="translate(0,0)"/>
<path d="" fill="#8D654E" transform="translate(0,0)"/>
<path d="" fill="#61707F" transform="translate(0,0)"/>
<path d="M0 0 C2 1 2 1 2 1 Z " fill="#828488" transform="translate(573,197)"/>
<path d="M0 0 C2 1 2 1 2 1 Z " fill="#383536" transform="translate(554,196)"/>
<path d="" fill="#6A7A89" transform="translate(0,0)"/>
<path d="M0 0 C2 1 2 1 2 1 Z " fill="#2D2C30" transform="translate(566,195)"/>
<path d="M0 0 C2 1 2 1 2 1 Z " fill="#78848E" transform="translate(386,195)"/>
<path d="M0 0 C2 1 2 1 2 1 Z " fill="#60B3EE" transform="translate(64,194)"/>
<path d="M0 0 C2 1 2 1 2 1 Z " fill="#868585" transform="translate(582,193)"/>
<path d="" fill="#7C7C7F" transform="translate(0,0)"/>
<path d="M0 0 C2 1 2 1 2 1 Z " fill="#2C2C30" transform="translate(554,192)"/>
<path d="" fill="#8A7E68" transform="translate(0,0)"/>
<path d="M0 0 C2 1 2 1 2 1 Z " fill="#8092A4" transform="translate(382,189)"/>
<path d="M0 0 C2 1 2 1 2 1 Z " fill="#212124" transform="translate(94,189)"/>
<path d="M0 0 C2 1 2 1 2 1 Z " fill="#514256" transform="translate(370,186)"/>
<path d="" fill="#2D2C30" transform="translate(0,0)"/>
<path d="M0 0 C2 1 2 1 2 1 Z " fill="#77797B" transform="translate(571,181)"/>
<path d="M0 0 C2 1 2 1 2 1 Z " fill="#8C7251" transform="translate(60,181)"/>
<path d="M0 0 C2 1 2 1 2 1 Z " fill="#95815B" transform="translate(57,181)"/>
<path d="M0 0 C2 1 2 1 2 1 Z " fill="#5A595D" transform="translate(375,179)"/>
<path d="M0 0 C2 1 2 1 2 1 Z " fill="#4A3A4F" transform="translate(376,177)"/>
<path d="M0 0 C2 1 2 1 2 1 Z " fill="#917956" transform="translate(53,177)"/>
<path d="M0 0 C2 1 2 1 2 1 Z " fill="#D5D4D5" transform="translate(99,173)"/>
<path d="M0 0 C2 1 2 1 2 1 Z " fill="#646464" transform="translate(96,173)"/>
<path d="M0 0 C2 1 2 1 2 1 Z " fill="#19191B" transform="translate(92,166)"/>
<path d="M0 0 C2 1 2 1 2 1 Z " fill="#858486" transform="translate(567,144)"/>
<path d="M0 0 C2 1 2 1 2 1 Z " fill="#5C6A78" transform="translate(563,136)"/>
<path d="" fill="#FFFCF9" transform="translate(0,0)"/>
<path d="M0 0 C2 1 2 1 2 1 Z " fill="#F3F1F4" transform="translate(219,82)"/>
<path d="M0 0 C2 1 2 1 2 1 Z " fill="#D9D9D9" transform="translate(480,5)"/>
<path d="M0 0 C2 1 2 1 2 1 Z " fill="#696969" transform="translate(477,5)"/>
<path d="M0 0 C2 1 2 1 2 1 Z " fill="#666568" transform="translate(477,1)"/>
<path d="" fill="#FFFDFD" transform="translate(0,0)"/>
<path d="" fill="#646367" transform="translate(0,0)"/>
<path d="" fill="#646367" transform="translate(0,0)"/>
<path d="" fill="#2F3035" transform="translate(0,0)"/>
<path d="" fill="#161619" transform="translate(0,0)"/>
<path d="" fill="#131211" transform="translate(0,0)"/>
<path d="" fill="#131211" transform="translate(0,0)"/>
<path d="" fill="#161619" transform="translate(0,0)"/>
<path d="" fill="#19191B" transform="translate(0,0)"/>
<path d="" fill="#19191B" transform="translate(0,0)"/>
<path d="" fill="#161619" transform="translate(0,0)"/>
<path d="" fill="#161619" transform="translate(0,0)"/>
<path d="" fill="#17181C" transform="translate(0,0)"/>
<path d="" fill="#2E2D30" transform="translate(0,0)"/>
<path d="" fill="#19191B" transform="translate(0,0)"/>
<path d="" fill="#414141" transform="translate(0,0)"/>
<path d="" fill="#323338" transform="translate(0,0)"/>
<path d="" fill="#161619" transform="translate(0,0)"/>
<path d="" fill="#181818" transform="translate(0,0)"/>
<path d="" fill="#181818" transform="translate(0,0)"/>
<path d="" fill="#1A1A1B" transform="translate(0,0)"/>
<path d="" fill="#161619" transform="translate(0,0)"/>
<path d="" fill="#646564" transform="translate(0,0)"/>
<path d="" fill="#414141" transform="translate(0,0)"/>
<path d="" fill="#19191B" transform="translate(0,0)"/>
<path d="" fill="#181818" transform="translate(0,0)"/>
<path d="" fill="#19191B" transform="translate(0,0)"/>
<path d="" fill="#181818" transform="translate(0,0)"/>
<path d="" fill="#19191B" transform="translate(0,0)"/>
<path d="" fill="#181818" transform="translate(0,0)"/>
<path d="" fill="#19191B" transform="translate(0,0)"/>
<path d="" fill="#181818" transform="translate(0,0)"/>
<path d="" fill="#19191B" transform="translate(0,0)"/>
<path d="" fill="#181818" transform="translate(0,0)"/>
<path d="" fill="#19191B" transform="translate(0,0)"/>
<path d="" fill="#181818" transform="translate(0,0)"/>
<path d="" fill="#1A1A1B" transform="translate(0,0)"/>
<path d="" fill="#3C3B3F" transform="translate(0,0)"/>
<path d="" fill="#F3F1F5" transform="translate(0,0)"/>
<path d="" fill="#F3F1F5" transform="translate(0,0)"/>
<path d="" fill="#D8DEDD" transform="translate(0,0)"/>
<path d="" fill="#888584" transform="translate(0,0)"/>
<path d="" fill="#878787" transform="translate(0,0)"/>
<path d="" fill="#858484" transform="translate(0,0)"/>
<path d="" fill="#808085" transform="translate(0,0)"/>
<path d="" fill="#858484" transform="translate(0,0)"/>
<path d="" fill="#888584" transform="translate(0,0)"/>
<path d="" fill="#858484" transform="translate(0,0)"/>
<path d="" fill="#7E204A" transform="translate(0,0)"/>
<path d="" fill="#F4F4F4" transform="translate(0,0)"/>
<path d="" fill="#F8FAFA" transform="translate(0,0)"/>
<path d="" fill="#5B6979" transform="translate(0,0)"/>
<path d="" fill="#7E204A" transform="translate(0,0)"/>
<path d="" fill="#7E204A" transform="translate(0,0)"/>
<path d="" fill="#858588" transform="translate(0,0)"/>
<path d="" fill="#FFFFFF" transform="translate(0,0)"/>
<path d="" fill="#5B6979" transform="translate(0,0)"/>
<path d="" fill="#5A6A7B" transform="translate(0,0)"/>
<path d="" fill="#7F1F48" transform="translate(0,0)"/>
<path d="" fill="#7F1F48" transform="translate(0,0)"/>
<path d="" fill="#5A6A7B" transform="translate(0,0)"/>
<path d="" fill="#5C6C7C" transform="translate(0,0)"/>
<path d="" fill="#7F1F48" transform="translate(0,0)"/>
<path d="" fill="#7F1F48" transform="translate(0,0)"/>
<path d="" fill="#7E204A" transform="translate(0,0)"/>
<path d="" fill="#7F1F48" transform="translate(0,0)"/>
<path d="" fill="#FFFFFF" transform="translate(0,0)"/>
<path d="" fill="#5C6C7C" transform="translate(0,0)"/>
<path d="" fill="#58697A" transform="translate(0,0)"/>
<path d="" fill="#7E204A" transform="translate(0,0)"/>
<path d="" fill="#7E204A" transform="translate(0,0)"/>
<path d="" fill="#5C6C7C" transform="translate(0,0)"/>
<path d="" fill="#6A7784" transform="translate(0,0)"/>
<path d="" fill="#576878" transform="translate(0,0)"/>
<path d="" fill="#6A7784" transform="translate(0,0)"/>
<path d="" fill="#5A6A7B" transform="translate(0,0)"/>
<path d="" fill="#5C6C7C" transform="translate(0,0)"/>
<path d="" fill="#5C6C7C" transform="translate(0,0)"/>
<path d="" fill="#5A6A7B" transform="translate(0,0)"/>
<path d="" fill="#7E204A" transform="translate(0,0)"/>
<path d="" fill="#FFFDFF" transform="translate(0,0)"/>
<path d="" fill="#5C6C7C" transform="translate(0,0)"/>
<path d="" fill="#5A6A7B" transform="translate(0,0)"/>
<path d="" fill="#5A6A7B" transform="translate(0,0)"/>
<path d="" fill="#5C6C7C" transform="translate(0,0)"/>
<path d="" fill="#5C6C7C" transform="translate(0,0)"/>
<path d="" fill="#7E204A" transform="translate(0,0)"/>
<path d="" fill="#7F1F48" transform="translate(0,0)"/>
<path d="" fill="#7E204A" transform="translate(0,0)"/>
<path d="" fill="#FFFEFB" transform="translate(0,0)"/>
<path d="" fill="#5C6C7C" transform="translate(0,0)"/>
<path d="" fill="#5A6A7B" transform="translate(0,0)"/>
<path d="" fill="#5C6C7C" transform="translate(0,0)"/>
<path d="" fill="#5C6C7C" transform="translate(0,0)"/>
<path d="" fill="#5B6979" transform="translate(0,0)"/>
<path d="" fill="#7E204A" transform="translate(0,0)"/>
<path d="" fill="#5A6A7B" transform="translate(0,0)"/>
<path d="" fill="#5A6A7B" transform="translate(0,0)"/>
<path d="" fill="#8292A0" transform="translate(0,0)"/>
<path d="" fill="#788896" transform="translate(0,0)"/>
<path d="" fill="#5A6A7B" transform="translate(0,0)"/>
<path d="" fill="#617080" transform="translate(0,0)"/>
<path d="" fill="#7E204A" transform="translate(0,0)"/>
<path d="" fill="#5A6A7B" transform="translate(0,0)"/>
<path d="" fill="#5A6A7B" transform="translate(0,0)"/>
<path d="" fill="#576878" transform="translate(0,0)"/>
<path d="" fill="#5C6C7C" transform="translate(0,0)"/>
<path d="" fill="#5C6C7C" transform="translate(0,0)"/>
<path d="" fill="#5B6979" transform="translate(0,0)"/>
<path d="" fill="#5B6979" transform="translate(0,0)"/>
<path d="" fill="#7E204A" transform="translate(0,0)"/>
<path d="" fill="#5C6C7C" transform="translate(0,0)"/>
<path d="" fill="#606B76" transform="translate(0,0)"/>
<path d="" fill="#1C1C21" transform="translate(0,0)"/>
<path d="" fill="#5C6C7C" transform="translate(0,0)"/>
<path d="" fill="#5B6979" transform="translate(0,0)"/>
<path d="" fill="#7E204A" transform="translate(0,0)"/>
<path d="" fill="#18191E" transform="translate(0,0)"/>
<path d="" fill="#18191E" transform="translate(0,0)"/>
<path d="" fill="#1C1C21" transform="translate(0,0)"/>
<path d="" fill="#1C1C21" transform="translate(0,0)"/>
<path d="" fill="#1C1C21" transform="translate(0,0)"/>
<path d="" fill="#1C1C21" transform="translate(0,0)"/>
<path d="" fill="#1C1C21" transform="translate(0,0)"/>
<path d="" fill="#1C1C21" transform="translate(0,0)"/>
<path d="" fill="#1C1C21" transform="translate(0,0)"/>
<path d="" fill="#1C1C21" transform="translate(0,0)"/>
<path d="" fill="#1C1C21" transform="translate(0,0)"/>
<path d="" fill="#1C1C21" transform="translate(0,0)"/>
<path d="" fill="#1C1C21" transform="translate(0,0)"/>
<path d="" fill="#1C1C21" transform="translate(0,0)"/>
<path d="" fill="#18191E" transform="translate(0,0)"/>
<path d="" fill="#1C1C21" transform="translate(0,0)"/>
<path d="" fill="#1C1C21" transform="translate(0,0)"/>
<path d="" fill="#1C1C21" transform="translate(0,0)"/>
<path d="" fill="#1C1C21" transform="translate(0,0)"/>
<path d="" fill="#1C1C21" transform="translate(0,0)"/>
<path d="" fill="#1C1C21" transform="translate(0,0)"/>
<path d="" fill="#1C1C21" transform="translate(0,0)"/>
<path d="" fill="#1C1C21" transform="translate(0,0)"/>
<path d="" fill="#18191E" transform="translate(0,0)"/>
<path d="" fill="#1C1C21" transform="translate(0,0)"/>
<path d="" fill="#18191E" transform="translate(0,0)"/>
<path d="" fill="#1C1C21" transform="translate(0,0)"/>
<path d="" fill="#18191E" transform="translate(0,0)"/>
<path d="" fill="#88305E" transform="translate(0,0)"/>
<path d="" fill="#414141" transform="translate(0,0)"/>
<path d="" fill="#414141" transform="translate(0,0)"/>
<path d="" fill="#FAFAFA" transform="translate(0,0)"/>
<path d="" fill="#FAFAFA" transform="translate(0,0)"/>
<path d="" fill="#828283" transform="translate(0,0)"/>
<path d="" fill="#ECEDEE" transform="translate(0,0)"/>
<path d="" fill="#858484" transform="translate(0,0)"/>
<path d="" fill="#EEEEEE" transform="translate(0,0)"/>
<path d="" fill="#5A6A7B" transform="translate(0,0)"/>
<path d="" fill="#5A6A7B" transform="translate(0,0)"/>
<path d="" fill="#FFFDFF" transform="translate(0,0)"/>
<path d="" fill="#BCBCBC" transform="translate(0,0)"/>
<path d="" fill="#5A6A7B" transform="translate(0,0)"/>
<path d="" fill="#576878" transform="translate(0,0)"/>
<path d="" fill="#F4F1F3" transform="translate(0,0)"/>
<path d="" fill="#F3F1F5" transform="translate(0,0)"/>
<path d="" fill="#B3B590" transform="translate(0,0)"/>
<path d="" fill="#B6B590" transform="translate(0,0)"/>
<path d="" fill="#5A6A7B" transform="translate(0,0)"/>
<path d="" fill="#F3F1F5" transform="translate(0,0)"/>
<path d="" fill="#B2B39A" transform="translate(0,0)"/>
<path d="" fill="#B2B39A" transform="translate(0,0)"/>
<path d="" fill="#576878" transform="translate(0,0)"/>
<path d="" fill="#5A6A7B" transform="translate(0,0)"/>
<path d="" fill="#5C6C7C" transform="translate(0,0)"/>
<path d="" fill="#F4F1F3" transform="translate(0,0)"/>
<path d="" fill="#5B6979" transform="translate(0,0)"/>
<path d="" fill="#5A6A7B" transform="translate(0,0)"/>
<path d="" fill="#5B6979" transform="translate(0,0)"/>
<path d="" fill="#57B2ED" transform="translate(0,0)"/>
<path d="" fill="#60B2ED" transform="translate(0,0)"/>
<path d="" fill="#F3F1F5" transform="translate(0,0)"/>
<path d="" fill="#5B6979" transform="translate(0,0)"/>
<path d="" fill="#5B6979" transform="translate(0,0)"/>
<path d="" fill="#5A6A7B" transform="translate(0,0)"/>
<path d="" fill="#5A6A7B" transform="translate(0,0)"/>
<path d="" fill="#858484" transform="translate(0,0)"/>
<path d="" fill="#F5F5F4" transform="translate(0,0)"/>
<path d="" fill="#606B76" transform="translate(0,0)"/>
<path d="" fill="#5C6C7C" transform="translate(0,0)"/>
<path d="" fill="#FFFDFF" transform="translate(0,0)"/>
<path d="" fill="#FFFDFF" transform="translate(0,0)"/>
<path d="" fill="#D1D9E2" transform="translate(0,0)"/>
<path d="" fill="#F3F1F5" transform="translate(0,0)"/>
<path d="" fill="#FDFDFD" transform="translate(0,0)"/>
<path d="" fill="#E9E9EA" transform="translate(0,0)"/>
<path d="" fill="#FCFDFE" transform="translate(0,0)"/>
<path d="" fill="#FFFFFF" transform="translate(0,0)"/>
<path d="" fill="#FFFDFF" transform="translate(0,0)"/>
<path d="" fill="#5B6979" transform="translate(0,0)"/>
<path d="" fill="#5B6979" transform="translate(0,0)"/>
<path d="" fill="#5A6A7B" transform="translate(0,0)"/>
<path d="" fill="#FCFDFE" transform="translate(0,0)"/>
<path d="" fill="#ECEDEE" transform="translate(0,0)"/>
<path d="" fill="#5A6A7B" transform="translate(0,0)"/>
<path d="" fill="#5B6979" transform="translate(0,0)"/>
<path d="" fill="#6F767F" transform="translate(0,0)"/>
<path d="" fill="#E9E9EA" transform="translate(0,0)"/>
<path d="" fill="#5CB2EE" transform="translate(0,0)"/>
<path d="" fill="#5DB2EE" transform="translate(0,0)"/>
<path d="" fill="#5DB2EE" transform="translate(0,0)"/>
<path d="" fill="#78848E" transform="translate(0,0)"/>
<path d="" fill="#EAEEEF" transform="translate(0,0)"/>
<path d="" fill="#F0F0F1" transform="translate(0,0)"/>
<path d="" fill="#FAFAFA" transform="translate(0,0)"/>
<path d="" fill="#E4E2E1" transform="translate(0,0)"/>
<path d="" fill="#6CB3E1" transform="translate(0,0)"/>
<path d="" fill="#58697A" transform="translate(0,0)"/>
<path d="" fill="#FFFDFF" transform="translate(0,0)"/>
<path d="" fill="#6CB3E1" transform="translate(0,0)"/>
<path d="" fill="#5C6C7C" transform="translate(0,0)"/>
<path d="" fill="#F3F3F3" transform="translate(0,0)"/>
<path d="" fill="#D6DEE1" transform="translate(0,0)"/>
<path d="" fill="#5C6C7C" transform="translate(0,0)"/>
<path d="" fill="#58697A" transform="translate(0,0)"/>
<path d="" fill="#5A6A7B" transform="translate(0,0)"/>
<path d="" fill="#5A6A7B" transform="translate(0,0)"/>
<path d="" fill="#5A6A7B" transform="translate(0,0)"/>
<path d="" fill="#58697A" transform="translate(0,0)"/>
<path d="" fill="#858588" transform="translate(0,0)"/>
<path d="" fill="#858484" transform="translate(0,0)"/>
<path d="" fill="#5CB2EE" transform="translate(0,0)"/>
<path d="" fill="#7CA6C1" transform="translate(0,0)"/>
<path d="" fill="#8292A0" transform="translate(0,0)"/>
<path d="" fill="#617080" transform="translate(0,0)"/>
<path d="" fill="#5C6C7C" transform="translate(0,0)"/>
<path d="" fill="#F0F0F1" transform="translate(0,0)"/>
<path d="" fill="#D1D9E2" transform="translate(0,0)"/>
<path d="" fill="#909DAB" transform="translate(0,0)"/>
<path d="" fill="#D1D9E2" transform="translate(0,0)"/>
<path d="" fill="#EEEEEE" transform="translate(0,0)"/>
<path d="" fill="#5C6C7C" transform="translate(0,0)"/>
<path d="" fill="#FFFDFF" transform="translate(0,0)"/>
<path d="" fill="#5A6A7B" transform="translate(0,0)"/>
<path d="" fill="#F3F1F5" transform="translate(0,0)"/>
<path d="" fill="#F3F1F5" transform="translate(0,0)"/>
<path d="" fill="#5C6C7C" transform="translate(0,0)"/>
<path d="" fill="#5A6A7B" transform="translate(0,0)"/>
<path d="" fill="#5DB2EE" transform="translate(0,0)"/>
<path d="" fill="#5DB2EE" transform="translate(0,0)"/>
<path d="" fill="#3E82BE" transform="translate(0,0)"/>
<path d="" fill="#5DB2EE" transform="translate(0,0)"/>
<path d="" fill="#BDCBCE" transform="translate(0,0)"/>
<path d="" fill="#617080" transform="translate(0,0)"/>
<path d="" fill="#5DB2EE" transform="translate(0,0)"/>
<path d="" fill="#6EBAF0" transform="translate(0,0)"/>
<path d="" fill="#888688" transform="translate(0,0)"/>
<path d="" fill="#5A6A7B" transform="translate(0,0)"/>
<path d="" fill="#E3CFC5" transform="translate(0,0)"/>
<path d="" fill="#5DB2EE" transform="translate(0,0)"/>
<path d="" fill="#96D3FC" transform="translate(0,0)"/>
<path d="" fill="#F3F1F5" transform="translate(0,0)"/>
<path d="" fill="#E6C7AB" transform="translate(0,0)"/>
<path d="" fill="#6F767F" transform="translate(0,0)"/>
<path d="" fill="#78848E" transform="translate(0,0)"/>
<path d="" fill="#58697A" transform="translate(0,0)"/>
<path d="" fill="#5B6979" transform="translate(0,0)"/>
<path d="" fill="#58697A" transform="translate(0,0)"/>
<path d="" fill="#5DB2EE" transform="translate(0,0)"/>
<path d="" fill="#5A6A7B" transform="translate(0,0)"/>
<path d="" fill="#5C6C7C" transform="translate(0,0)"/>
<path d="" fill="#5B6979" transform="translate(0,0)"/>
<path d="" fill="#57B2ED" transform="translate(0,0)"/>
<path d="" fill="#F5F5F4" transform="translate(0,0)"/>
<path d="" fill="#5A6A7B" transform="translate(0,0)"/>
<path d="" fill="#E3CFC5" transform="translate(0,0)"/>
<path d="" fill="#58697A" transform="translate(0,0)"/>
<path d="" fill="#B7B7B9" transform="translate(0,0)"/>
<path d="" fill="#8292A0" transform="translate(0,0)"/>
<path d="" fill="#8292A0" transform="translate(0,0)"/>
<path d="" fill="#5DB2EE" transform="translate(0,0)"/>
<path d="" fill="#5DB2EE" transform="translate(0,0)"/>
<path d="" fill="#5A6A7B" transform="translate(0,0)"/>
<path d="" fill="#F5F5F4" transform="translate(0,0)"/>
<path d="" fill="#F4F1F3" transform="translate(0,0)"/>
<path d="" fill="#D5C5B4" transform="translate(0,0)"/>
<path d="" fill="#57B2ED" transform="translate(0,0)"/>
<path d="" fill="#5C6C7C" transform="translate(0,0)"/>
<path d="" fill="#5C6C7C" transform="translate(0,0)"/>
<path d="" fill="#FFFFFF" transform="translate(0,0)"/>
<path d="" fill="#E4FBFE" transform="translate(0,0)"/>
<path d="" fill="#F4F1F3" transform="translate(0,0)"/>
<path d="" fill="#5A6A7B" transform="translate(0,0)"/>
<path d="" fill="#5C6C7C" transform="translate(0,0)"/>
<path d="" fill="#5C6C7C" transform="translate(0,0)"/>
<path d="" fill="#58697A" transform="translate(0,0)"/>
<path d="" fill="#576878" transform="translate(0,0)"/>
<path d="" fill="#5A6A7B" transform="translate(0,0)"/>
<path d="" fill="#5A6A7B" transform="translate(0,0)"/>
<path d="" fill="#EBF7F9" transform="translate(0,0)"/>
<path d="" fill="#F7EFE8" transform="translate(0,0)"/>
<path d="" fill="#858484" transform="translate(0,0)"/>
<path d="" fill="#EFD8CC" transform="translate(0,0)"/>
<path d="" fill="#F4F1F3" transform="translate(0,0)"/>
<path d="" fill="#F0F0F1" transform="translate(0,0)"/>
<path d="" fill="#5B6979" transform="translate(0,0)"/>
<path d="" fill="#5B6979" transform="translate(0,0)"/>
<path d="" fill="#5B6979" transform="translate(0,0)"/>
<path d="" fill="#58697A" transform="translate(0,0)"/>
<path d="" fill="#ECD7C7" transform="translate(0,0)"/>
<path d="" fill="#F8FAFA" transform="translate(0,0)"/>
<path d="" fill="#FCFDFE" transform="translate(0,0)"/>
<path d="" fill="#F4F1F3" transform="translate(0,0)"/>
<path d="" fill="#FAFAFA" transform="translate(0,0)"/>
<path d="" fill="#5B6979" transform="translate(0,0)"/>
<path d="" fill="#58697A" transform="translate(0,0)"/>
<path d="" fill="#161619" transform="translate(0,0)"/>
<path d="" fill="#F0D7C8" transform="translate(0,0)"/>
<path d="" fill="#FAFAFA" transform="translate(0,0)"/>
<path d="" fill="#F8FAFA" transform="translate(0,0)"/>
<path d="" fill="#FDFDFD" transform="translate(0,0)"/>
<path d="" fill="#5C6C7C" transform="translate(0,0)"/>
<path d="" fill="#E4E2E1" transform="translate(0,0)"/>
<path d="" fill="#D8DEDD" transform="translate(0,0)"/>
<path d="" fill="#D1D9E2" transform="translate(0,0)"/>
<path d="" fill="#474445" transform="translate(0,0)"/>
<path d="" fill="#ECEDEE" transform="translate(0,0)"/>
<path d="" fill="#F0D7C8" transform="translate(0,0)"/>
<path d="" fill="#617080" transform="translate(0,0)"/>
<path d="" fill="#F0D7C8" transform="translate(0,0)"/>
<path d="" fill="#FCFDFE" transform="translate(0,0)"/>
<path d="" fill="#EFD8CC" transform="translate(0,0)"/>
<path d="" fill="#58697A" transform="translate(0,0)"/>
<path d="" fill="#FFFFFF" transform="translate(0,0)"/>
<path d="" fill="#FFFDFF" transform="translate(0,0)"/>
<path d="" fill="#EED7C9" transform="translate(0,0)"/>
<path d="" fill="#A3A2A3" transform="translate(0,0)"/>
<path d="" fill="#858484" transform="translate(0,0)"/>
<path d="" fill="#414141" transform="translate(0,0)"/>
<path d="" fill="#4E3C30" transform="translate(0,0)"/>
<path d="" fill="#58697A" transform="translate(0,0)"/>
<path d="" fill="#617080" transform="translate(0,0)"/>
<path d="" fill="#FFFDFD" transform="translate(0,0)"/>
<path d="" fill="#5CB2EE" transform="translate(0,0)"/>
<path d="" fill="#EED7C9" transform="translate(0,0)"/>
<path d="" fill="#858588" transform="translate(0,0)"/>
<path d="" fill="#2E2D30" transform="translate(0,0)"/>
<path d="" fill="#F8FAFA" transform="translate(0,0)"/>
<path d="" fill="#5AB3EE" transform="translate(0,0)"/>
<path d="" fill="#EED7C9" transform="translate(0,0)"/>
<path d="" fill="#E4E2E1" transform="translate(0,0)"/>
<path d="" fill="#788896" transform="translate(0,0)"/>
<path d="" fill="#737474" transform="translate(0,0)"/>
<path d="" fill="#ECD7C7" transform="translate(0,0)"/>
<path d="" fill="#60B2ED" transform="translate(0,0)"/>
<path d="" fill="#735D51" transform="translate(0,0)"/>
<path d="" fill="#5C6C7C" transform="translate(0,0)"/>
<path d="" fill="#998059" transform="translate(0,0)"/>
<path d="" fill="#EED7C9" transform="translate(0,0)"/>
<path d="" fill="#888584" transform="translate(0,0)"/>
<path d="" fill="#5B6979" transform="translate(0,0)"/>
<path d="" fill="#737474" transform="translate(0,0)"/>
<path d="" fill="#90745F" transform="translate(0,0)"/>
<path d="" fill="#2E2E30" transform="translate(0,0)"/>
<path d="" fill="#6CB3E1" transform="translate(0,0)"/>
<path d="" fill="#5A6A7B" transform="translate(0,0)"/>
<path d="" fill="#5DB2EE" transform="translate(0,0)"/>
<path d="" fill="#2C2C30" transform="translate(0,0)"/>
<path d="" fill="#5CB2EE" transform="translate(0,0)"/>
<path d="" fill="#68ADDE" transform="translate(0,0)"/>
<path d="" fill="#909DAB" transform="translate(0,0)"/>
<path d="" fill="#4B354D" transform="translate(0,0)"/>
<path d="" fill="#4B354D" transform="translate(0,0)"/>
<path d="" fill="#686769" transform="translate(0,0)"/>
<path d="" fill="#48364D" transform="translate(0,0)"/>
<path d="" fill="#4B354D" transform="translate(0,0)"/>
<path d="" fill="#7AC7F8" transform="translate(0,0)"/>
<path d="" fill="#9C795E" transform="translate(0,0)"/>
<path d="" fill="#788896" transform="translate(0,0)"/>
<path d="" fill="#4D3E52" transform="translate(0,0)"/>
<path d="" fill="#57B2ED" transform="translate(0,0)"/>
<path d="" fill="#474445" transform="translate(0,0)"/>
<path d="" fill="#4B354D" transform="translate(0,0)"/>
<path d="" fill="#FFFDFF" transform="translate(0,0)"/>
<path d="" fill="#63B5EF" transform="translate(0,0)"/>
<path d="" fill="#9B825C" transform="translate(0,0)"/>
<path d="" fill="#878787" transform="translate(0,0)"/>
<path d="" fill="#FFFFFF" transform="translate(0,0)"/>
<path d="" fill="#FFFFFF" transform="translate(0,0)"/>
<path d="" fill="#4C344D" transform="translate(0,0)"/>
<path d="" fill="#4B354D" transform="translate(0,0)"/>
<path d="" fill="#FCFDFE" transform="translate(0,0)"/>
<path d="" fill="#95815B" transform="translate(0,0)"/>
<path d="" fill="#F5F5F4" transform="translate(0,0)"/>
<path d="" fill="#47334B" transform="translate(0,0)"/>
<path d="" fill="#60B2ED" transform="translate(0,0)"/>
<path d="" fill="#5CB2EE" transform="translate(0,0)"/>
<path d="" fill="#7F8488" transform="translate(0,0)"/>
<path d="" fill="#7E8384" transform="translate(0,0)"/>
<path d="" fill="#7D7E83" transform="translate(0,0)"/>
<path d="" fill="#F4F4F4" transform="translate(0,0)"/>
<path d="" fill="#636363" transform="translate(0,0)"/>
<path d="" fill="#FCFDFE" transform="translate(0,0)"/>
<path d="" fill="#49344C" transform="translate(0,0)"/>
<path d="" fill="#FFFFFF" transform="translate(0,0)"/>
<path d="" fill="#897051" transform="translate(0,0)"/>
<path d="" fill="#D0CFCF" transform="translate(0,0)"/>
<path d="" fill="#947E5B" transform="translate(0,0)"/>
<path d="" fill="#FFFFFF" transform="translate(0,0)"/>
<path d="" fill="#998059" transform="translate(0,0)"/>
<path d="" fill="#483348" transform="translate(0,0)"/>
<path d="" fill="#737578" transform="translate(0,0)"/>
<path d="" fill="#FCFDFE" transform="translate(0,0)"/>
<path d="" fill="#C1C1C1" transform="translate(0,0)"/>
<path d="" fill="#19191B" transform="translate(0,0)"/>
<path d="" fill="#636363" transform="translate(0,0)"/>
<path d="" fill="#9E9894" transform="translate(0,0)"/>
<path d="" fill="#636363" transform="translate(0,0)"/>
<path d="" fill="#998059" transform="translate(0,0)"/>
<path d="" fill="#636363" transform="translate(0,0)"/>
<path d="" fill="#ABACAC" transform="translate(0,0)"/>
<path d="" fill="#ECD7C7" transform="translate(0,0)"/>
<path d="" fill="#978158" transform="translate(0,0)"/>
<path d="" fill="#888688" transform="translate(0,0)"/>
<path d="" fill="#858588" transform="translate(0,0)"/>
<path d="" fill="#788896" transform="translate(0,0)"/>
<path d="" fill="#878787" transform="translate(0,0)"/>
<path d="" fill="#2C5D77" transform="translate(0,0)"/>
<path d="" fill="#7B7B7B" transform="translate(0,0)"/>
<path d="" fill="#476778" transform="translate(0,0)"/>
<path d="" fill="#2C5D77" transform="translate(0,0)"/>
<path d="" fill="#5C6C7C" transform="translate(0,0)"/>
<path d="" fill="#7F8488" transform="translate(0,0)"/>
<path d="" fill="#888584" transform="translate(0,0)"/>
<path d="" fill="#E5BA96" transform="translate(0,0)"/>
<path d="" fill="#E2B896" transform="translate(0,0)"/>
<path d="" fill="#E6BA9B" transform="translate(0,0)"/>
<path d="" fill="#E5BB98" transform="translate(0,0)"/>
<path d="" fill="#6F573C" transform="translate(0,0)"/>
<path d="" fill="#8F7552" transform="translate(0,0)"/>
<path d="" fill="#E2B896" transform="translate(0,0)"/>
<path d="" fill="#FFFDFF" transform="translate(0,0)"/>
</svg>
