<?xml version="1.0" encoding="UTF-8"?>
<svg version="1.1" xmlns="http://www.w3.org/2000/svg" width="587" height="239">
<path d="M0 0 C5.41538462 -0.36923077 5.41538462 -0.36923077 8.375 1.5 C8.91125 1.995 9.4475 2.49 10 3 C10.33 2.34 10.66 1.68 11 1 C11.433125 1.45375 11.86625 1.9075 12.3125 2.375 C14.10798342 4.20024334 14.10798342 4.20024334 17 6 C17.6875 8.625 17.6875 8.625 18 11 C16.35 10.34 14.7 9.68 13 9 C13 9.99 13 10.98 13 12 C12.01 12.495 12.01 12.495 11 13 C11 13.99 11 14.98 11 16 C12.98 15.01 14.96 14.02 17 13 C17.0272415 14.41655793 17.04650467 15.83327045 17.0625 17.25 C17.07410156 18.03890625 17.08570312 18.8278125 17.09765625 19.640625 C17.00385306 21.90691002 16.63241063 23.8288895 16 26 C15.34 26 14.68 26 14 26 C13.34 24.35 12.68 22.7 12 21 C12 22.32 12 23.64 12 25 C11.01 25 10.02 25 9 25 C8.67 30.94 8.34 36.88 8 43 C6.515 43.495 6.515 43.495 5 44 C3.77030122 47.51190809 3.77030122 47.51190809 3 51 C1.125 50.75 1.125 50.75 -1 50 C-1.66666667 48.66666667 -2.33333333 47.33333333 -3 46 C-5.05000871 45.19471111 -5.05000871 45.19471111 -7 45 C-7 44.01 -7 43.02 -7 42 C-7.99 41.67 -8.98 41.34 -10 41 C-9.67 40.34 -9.34 39.68 -9 39 C-9.89163577 36.88316159 -9.89163577 36.88316159 -11 35 C-10.01 34.505 -10.01 34.505 -9 34 C-6.875 34.9375 -6.875 34.9375 -5 36 C-4.84850702 32.37114676 -4.84850702 32.37114676 -6 29 C-5.67 28.67 -5.34 28.34 -5 28 C-5.99 28 -6.98 28 -8 28 C-7.67 26.68 -7.34 25.36 -7 24 C-6.01 24 -5.02 24 -4 24 C-4.66 22.68 -5.32 21.36 -6 20 C-4.68 18.68 -3.36 17.36 -2 16 C-2.66 16 -3.32 16 -4 16 C-4.66 15.01 -5.32 14.02 -6 13 C-8.05003955 11.80767387 -8.05003955 11.80767387 -10 11 C-10 10.34 -10 9.68 -10 9 C-8.02 9 -6.04 9 -4 9 C-4 7.68 -4 6.36 -4 5 C-0.535 4.505 -0.535 4.505 3 4 C3 3.34 3 2.68 3 2 C2.01 1.34 1.02 0.68 0 0 Z M3 15 C4 17 4 17 4 17 Z M7 14 C6.01 14.495 6.01 14.495 5 15 C5.33 15.99 5.66 16.98 6 18 C7.32 17.34 8.64 16.68 10 16 C9.01 15.34 8.02 14.68 7 14 Z M4 37 C4 38.98 4 40.96 4 43 C6.34287418 40.32752366 6.34287418 40.32752366 7 37 C6.01 37 5.02 37 4 37 Z M-2 43 C-2.33 43.66 -2.66 44.32 -3 45 C-2.01 44.67 -1.02 44.34 0 44 C-0.66 43.67 -1.32 43.34 -2 43 Z M2 44 C3 46 3 46 3 46 Z " fill="#DFCEC4" transform="translate(82,74)"/>
<path d="M0 0 C0.22786458 2.05078125 0.45572917 4.1015625 0.68359375 6.15234375 C0.81886614 8.01140229 0.81886614 8.01140229 2 9 C2.226875 8.4225 2.45375 7.845 2.6875 7.25 C4 5 4 5 9 1 C9 8.92 9 16.84 9 25 C8.01 25.33 7.02 25.66 6 26 C4.77030122 29.51190809 4.77030122 29.51190809 4 33 C2.125 32.75 2.125 32.75 0 32 C-0.66666667 30.66666667 -1.33333333 29.33333333 -2 28 C-4.05000871 27.19471111 -4.05000871 27.19471111 -6 27 C-6 26.01 -6 25.02 -6 24 C-6.99 23.67 -7.98 23.34 -9 23 C-8.67 22.34 -8.34 21.68 -8 21 C-8.89163577 18.88316159 -8.89163577 18.88316159 -10 17 C-9.34 16.67 -8.68 16.34 -8 16 C-5.875 16.9375 -5.875 16.9375 -4 18 C-3.84850702 14.37114676 -3.84850702 14.37114676 -5 11 C-4.67 10.67 -4.34 10.34 -4 10 C-4.99 10 -5.98 10 -7 10 C-6.67 8.68 -6.34 7.36 -6 6 C-5.01 6 -4.02 6 -3 6 C-3.66 4.68 -4.32 3.36 -5 2 C-2 0 -2 0 0 0 Z M5 19 C5 20.98 5 22.96 5 25 C7.34287418 22.32752366 7.34287418 22.32752366 8 19 C7.01 19 6.02 19 5 19 Z M-1 25 C-1.33 25.66 -1.66 26.32 -2 27 C-1.01 26.67 -0.02 26.34 1 26 C0.34 25.67 -0.32 25.34 -1 25 Z M3 26 C4 28 4 28 4 28 Z " fill="#D9D5D4" transform="translate(81,92)"/>
<path d="M0 0 C3.74993479 -0.05811773 7.49975352 -0.09363593 11.25 -0.125 C12.84521484 -0.15013672 12.84521484 -0.15013672 14.47265625 -0.17578125 C15.49746094 -0.18222656 16.52226563 -0.18867188 17.578125 -0.1953125 C18.52075195 -0.20578613 19.46337891 -0.21625977 20.43457031 -0.22705078 C23.13648047 0.01207907 24.62316391 0.77150245 27 2 C28.32 2 29.64 2 31 2 C31 2.66 31 3.32 31 4 C31.66 4 32.32 4 33 4 C32.67 5.65 32.34 7.3 32 9 C31.34 8.67 30.68 8.34 30 8 C29.34 8.66 28.68 9.32 28 10 C22.33937824 8.36470927 22.33937824 8.36470927 20.56079102 6.45336914 C18.57198419 4.6014425 17.52271355 4.6083372 14.83984375 4.55859375 C14.04642578 4.53216797 13.25300781 4.50574219 12.43554688 4.47851562 C11.61119141 4.46498047 10.78683594 4.45144531 9.9375 4.4375 C8.30057862 4.40310554 6.66380269 4.36052369 5.02734375 4.30859375 C4.30281006 4.29626709 3.57827637 4.28394043 2.83178711 4.27124023 C1 4 1 4 -1 2 C5.93 2 12.86 2 20 2 C13.4 1.67 6.8 1.34 0 1 C0 0.67 0 0.34 0 0 Z M21 4 C24.6441774 6.4294516 26.71241272 6.16179575 31 6 C31 5.67 31 5.34 31 5 C27.7 4.67 24.4 4.34 21 4 Z " fill="#171719" transform="translate(57,224)"/>
<path d="M0 0 C2.64 0 5.28 0 8 0 C8.33 0.66 8.66 1.32 9 2 C8.690625 2.598125 8.38125 3.19625 8.0625 3.8125 C6.81718011 6.3763939 6.84363398 8.18541165 7 11 C6.34 11 5.68 11 5 11 C5.66 11.33 6.32 11.66 7 12 C7 12.66 7 13.32 7 14 C5.68 14 4.36 14 3 14 C3 14.66 3 15.32 3 16 C2.34 16 1.68 16 1 16 C0.34 16.66 -0.32 17.32 -1 18 C-1 17.34 -1 16.68 -1 16 C-1.66 16 -2.32 16 -3 16 C-2.88590407 14.54077307 -2.75834456 13.08259402 -2.625 11.625 C-2.55539062 10.81289062 -2.48578125 10.00078125 -2.4140625 9.1640625 C-2 7 -2 7 0 5 C-0.33 4.34 -0.66 3.68 -1 3 C-0.67 2.01 -0.34 1.02 0 0 Z " fill="#60A2D1" transform="translate(515,145)"/>
<path d="M0 0 C0.99 0.99 1.98 1.98 3 3 C2.01 3.33 1.02 3.66 0 4 C-0.70211894 5.65204456 -1.36971413 7.31923769 -2 9 C-2.99 9.495 -2.99 9.495 -4 10 C-3.67 11.98 -3.34 13.96 -3 16 C-3.99 16.33 -4.98 16.66 -6 17 C-6 16.01 -6 15.02 -6 14 C-9.13349732 12.95550089 -9.98968256 13.06576355 -13 14 C-13 10 -13 10 -11 8 C-10.319375 7.71125 -9.63875 7.4225 -8.9375 7.125 C-6.79766997 6.17699769 -6.79766997 6.17699769 -6.375 3.9375 C-6.189375 2.9784375 -6.189375 2.9784375 -6 2 C-5.34 1.67 -4.68 1.34 -4 1 C-3.67 1.66 -3.34 2.32 -3 3 C-2.01 2.67 -1.02 2.34 0 2 C0 1.34 0 0.68 0 0 Z M-8 7 C-7 9 -7 9 -7 9 Z " fill="#99CBEE" transform="translate(79,123)"/>
<path d="M0 0 C2.86331684 0.52060306 5.53522406 1.17167564 8.3125 2.0625 C12.45036388 3.11449929 15.75313177 3.14901292 20 3 C20 4.32 20 5.64 20 7 C17.89651926 7.19504458 15.79217415 7.38078496 13.6875 7.5625 C12.51574219 7.66691406 11.34398437 7.77132812 10.13671875 7.87890625 C7 8 7 8 4 7 C2.8125 4.9375 2.8125 4.9375 2 3 C1.34 3 0.68 3 0 3 C0 2.01 0 1.02 0 0 Z " fill="#E5BA99" transform="translate(161,35)"/>
<path d="M0 0 C25.41 0 50.82 0 77 0 C77 0.33 77 0.66 77 1 C51.59 1 26.18 1 0 1 C0 0.67 0 0.34 0 0 Z " fill="#646466" transform="translate(222,209)"/>
<path d="M0 0 C6.27 0.33 12.54 0.66 19 1 C19.33 1.66 19.66 2.32 20 3 C21.32 3.66 22.64 4.32 24 5 C21.03 5 18.06 5 15 5 C15 4.67 15 4.34 15 4 C13.0085944 3.61866701 11.00720923 3.28674418 9 3 C8.67 3.33 8.34 3.66 8 4 C9.32 4 10.64 4 12 4 C11.67 4.66 11.34 5.32 11 6 C10.0925 5.814375 9.185 5.62875 8.25 5.4375 C5.14714806 4.81587232 5.14714806 4.81587232 2.75 5.5625 C2.1725 5.706875 1.595 5.85125 1 6 C0.34 5.34 -0.32 4.68 -1 4 C-0.67 2.68 -0.34 1.36 0 0 Z " fill="#181819" transform="translate(55,228)"/>
<path d="M0 0 C0 7.92 0 15.84 0 24 C-0.99 24 -1.98 24 -3 24 C-2.49396008 21.83125748 -2.00016187 20.00032373 -1 18 C-1.66 18 -2.32 18 -3 18 C-3.24878997 15.56305726 -3.47463404 13.12761611 -3.6875 10.6875 C-3.79674805 9.65206055 -3.79674805 9.65206055 -3.90820312 8.59570312 C-4.32991135 3.46078528 -4.32991135 3.46078528 -2.58203125 1.01953125 C-1 0 -1 0 0 0 Z " fill="#F9FBFA" transform="translate(90,93)"/>
<path d="M0 0 C5.41538462 -0.36923077 5.41538462 -0.36923077 8.375 1.5 C8.91125 1.995 9.4475 2.49 10 3 C9.67 4.32 9.34 5.64 9 7 C4.37078475 8.0161692 0.65537393 7.83796731 -4 7 C-4 6.34 -4 5.68 -4 5 C-0.535 4.505 -0.535 4.505 3 4 C3 3.34 3 2.68 3 2 C2.01 1.34 1.02 0.68 0 0 Z " fill="#EDEAE8" transform="translate(82,74)"/>
<path d="M0 0 C0.33 0 0.66 0 1 0 C1.0272415 1.41655793 1.04650467 2.83327045 1.0625 4.25 C1.07410156 5.03890625 1.08570312 5.8278125 1.09765625 6.640625 C1.00385306 8.90691002 0.63241063 10.8288895 0 13 C-0.66 13 -1.32 13 -2 13 C-2.66 11.35 -3.32 9.7 -4 8 C-4 9.32 -4 10.64 -4 12 C-4.66 12 -5.32 12 -6 12 C-7.125 5.25 -7.125 5.25 -6 3 C-4.34795544 2.29788106 -2.68076231 1.63028587 -1 1 C-0.67 0.67 -0.34 0.34 0 0 Z " fill="#3A3637" transform="translate(98,87)"/>
<path d="M0 0 C-0.66 0 -1.32 0 -2 0 C-2 0.66 -2 1.32 -2 2 C-1.01 2.66 -0.02 3.32 1 4 C-0.98 4.33 -2.96 4.66 -5 5 C-5 4.34 -5 3.68 -5 3 C-5.99 3 -6.98 3 -8 3 C-8 3.66 -8 4.32 -8 5 C-7.34 5.66 -6.68 6.32 -6 7 C-6.99 7 -7.98 7 -9 7 C-9.33 7.66 -9.66 8.32 -10 9 C-10.66 9 -11.32 9 -12 9 C-11.1875 6.0625 -11.1875 6.0625 -10 3 C-9.01 2.67 -8.02 2.34 -7 2 C-7.33 1.01 -7.66 0.02 -8 -1 C-4.59745511 -2.2151946 -3.06748874 -1.86240388 0 0 Z M-4 -1 C-3 1 -3 1 -3 1 Z " fill="#8B8B8D" transform="translate(580,118)"/>
<path d="M0 0 C1.8253125 0.2784375 1.8253125 0.2784375 3.6875 0.5625 C7.02977939 0.98993182 9.71968417 0.92258883 13 0 C12.67 1.32 12.34 2.64 12 4 C11.01 4 10.02 4 9 4 C8.67 5.32 8.34 6.64 8 8 C7.13375 7.071875 7.13375 7.071875 6.25 6.125 C4.19750179 4.18652947 2.56633418 3.09985751 0 2 C0 1.34 0 0.68 0 0 Z " fill="#A4A09B" transform="translate(72,83)"/>
<path d="M0 0 C0.66 0 1.32 0 2 0 C2.0272616 2.04159095 2.04651345 4.08328963 2.0625 6.125 C2.07410156 7.26195313 2.08570312 8.39890625 2.09765625 9.5703125 C2.005327 12.8129156 1.61389906 15.81932612 1 19 C0.01 18.67 -0.98 18.34 -2 18 C-1.34 12.06 -0.68 6.12 0 0 Z " fill="#82BAE0" transform="translate(85,98)"/>
<path d="M0 0 C0 9 0 9 -1 11 C-2.64363134 11.72159424 -4.31050386 12.39351421 -6 13 C-6.33 12.01 -6.66 11.02 -7 10 C-6.34 10 -5.68 10 -5 10 C-4.896875 8.72125 -4.79375 7.4425 -4.6875 6.125 C-4.51171875 3.9453125 -4.51171875 3.9453125 -4 2 C-1 0 -1 0 0 0 Z " fill="#EDD8CB" transform="translate(82,107)"/>
<path d="M0 0 C0.99 0 1.98 0 3 0 C3 0.99 3 1.98 3 3 C3.66 3 4.32 3 5 3 C5.33 2.34 5.66 1.68 6 1 C6.99 1.66 7.98 2.32 9 3 C9 3.66 9 4.32 9 5 C7.68 5 6.36 5 5 5 C5 5.66 5 6.32 5 7 C4.34 7 3.68 7 3 7 C2.34 7.66 1.68 8.32 1 9 C1 8.34 1 7.68 1 7 C0.34 7 -0.32 7 -1 7 C-0.67 4.69 -0.34 2.38 0 0 Z " fill="#C8D7E0" transform="translate(513,154)"/>
<path d="M0 0 C3 1 3 1 4 3 C4.99 3.66 5.98 4.32 7 5 C7.6875 7.625 7.6875 7.625 8 10 C5.525 9.01 5.525 9.01 3 8 C2.34 8.66 1.68 9.32 1 10 C0.01 10 -0.98 10 -2 10 C-1.34 6.7 -0.68 3.4 0 0 Z " fill="#443F40" transform="translate(92,75)"/>
<path d="M0 0 C-0.99 0.495 -0.99 0.495 -2 1 C-2 1.66 -2 2.32 -2 3 C-7.75 4 -7.75 4 -10 4 C-10.66 3.34 -11.32 2.68 -12 2 C-12.33 4.31 -12.66 6.62 -13 9 C-13.33 9 -13.66 9 -14 9 C-14 6.36 -14 3.72 -14 1 C-8.83430559 -0.79217969 -5.48946087 -1.12029814 0 0 Z M-6 0 C-5.34 0.66 -4.68 1.32 -4 2 C-4 1.34 -4 0.68 -4 0 C-4.66 0 -5.32 0 -6 0 Z " fill="#848286" transform="translate(412,208)"/>
<path d="M0 0 C2.97 0 5.94 0 9 0 C9.89377528 3.57510111 10.0258444 5.24917563 9.5625 8.75 C9.46066406 9.54921875 9.35882813 10.3484375 9.25390625 11.171875 C9.17011719 11.77515625 9.08632813 12.3784375 9 13 C8.67 13 8.34 13 8 13 C7.67 9.7 7.34 6.4 7 3 C4.36 3 1.72 3 -1 3 C-0.67 2.01 -0.34 1.02 0 0 Z " fill="#787B7F" transform="translate(388,204)"/>
<path d="M0 0 C0.33 0 0.66 0 1 0 C1.125 6.625 1.125 6.625 0 10 C-2.475 9.01 -2.475 9.01 -5 8 C-4.67 7.34 -4.34 6.68 -4 6 C-4.89163577 3.88316159 -4.89163577 3.88316159 -6 2 C-5.34 1.67 -4.68 1.34 -4 1 C-1.875 1.9375 -1.875 1.9375 0 3 C0 2.01 0 1.02 0 0 Z " fill="#6AB5E9" transform="translate(77,107)"/>
<path d="M0 0 C0.33 0 0.66 0 1 0 C1 7.92 1 15.84 1 24 C0.34 23.67 -0.32 23.34 -1 23 C-1.02887512 19.35418313 -1.04675585 15.70839537 -1.0625 12.0625 C-1.07087891 11.02158203 -1.07925781 9.98066406 -1.08789062 8.90820312 C-1.09272461 7.42416992 -1.09272461 7.42416992 -1.09765625 5.91015625 C-1.10289307 4.99371338 -1.10812988 4.07727051 -1.11352539 3.13305664 C-1 1 -1 1 0 0 Z " fill="#151516" transform="translate(94,178)"/>
<path d="M0 0 C0.99 0.99 1.98 1.98 3 3 C2.01 3.33 1.02 3.66 0 4 C0 4.66 0 5.32 0 6 C-2.33214148 7.20628008 -4.49642139 8.1654738 -7 9 C-6.7525 8.1028125 -6.7525 8.1028125 -6.5 7.1875 C-5.8885876 4.88655664 -5.8885876 4.88655664 -6 2 C-5.34 1.67 -4.68 1.34 -4 1 C-3.67 1.66 -3.34 2.32 -3 3 C-2.01 2.67 -1.02 2.34 0 2 C0 1.34 0 0.68 0 0 Z " fill="#C8D7E2" transform="translate(79,123)"/>
<path d="M0 0 C-0.66 2.31 -1.32 4.62 -2 7 C-3.875 6.8125 -3.875 6.8125 -6 6 C-7.25 3.4375 -7.25 3.4375 -8 1 C-3.375 -1.125 -3.375 -1.125 0 0 Z M-3 0 C-2 2 -2 2 -2 2 Z " fill="#F2EEEC" transform="translate(87,118)"/>
<path d="M0 0 C0.33 0 0.66 0 1 0 C1 1.98 1 3.96 1 6 C-4.75 6.125 -4.75 6.125 -7 5 C-7 4.34 -7 3.68 -7 3 C-3.535 2.505 -3.535 2.505 0 2 C0 1.34 0 0.68 0 0 Z " fill="#FDFBFB" transform="translate(85,76)"/>
<path d="M0 0 C0.99 0.66 1.98 1.32 3 2 C2.34 2 1.68 2 1 2 C1 2.99 1 3.98 1 5 C-2.00313748 6.50156874 -4.79067522 6.09281204 -8.125 6.0625 C-9.40632813 6.05347656 -10.68765625 6.04445312 -12.0078125 6.03515625 C-13.48894531 6.01775391 -13.48894531 6.01775391 -15 6 C-15 5.67 -15 5.34 -15 5 C-8.565 4.505 -8.565 4.505 -2 4 C-2 3.01 -2 2.02 -2 1 C-1.34 0.67 -0.68 0.34 0 0 Z " fill="#1D1D1E" transform="translate(51,218)"/>
<path d="M0 0 C1.66666667 0 3.33333333 0 5 0 C4.67 2.31 4.34 4.62 4 7 C3.01 6.67 2.02 6.34 1 6 C1.66 5.67 2.32 5.34 3 5 C1.68 4.67 0.36 4.34 -1 4 C-0.67 2.68 -0.34 1.36 0 0 Z " fill="#67B2E7" transform="translate(75,98)"/>
<path d="M0 0 C1.98 0.495 1.98 0.495 4 1 C3.67 1.721875 3.34 2.44375 3 3.1875 C1.99396471 6.01697427 1.83022598 8.02895466 2 11 C0.4375 10 0.4375 10 -1 8 C-0.96726452 5.23385218 -0.49404328 2.73969453 0 0 Z " fill="#86C5EF" transform="translate(520,145)"/>
<path d="M0 0 C-0.66 0 -1.32 0 -2 0 C-2 0.66 -2 1.32 -2 2 C-3.65 2 -5.3 2 -7 2 C-7.33 1.01 -7.66 0.02 -8 -1 C-4.59745511 -2.2151946 -3.06748874 -1.86240388 0 0 Z M-4 -1 C-3 1 -3 1 -3 1 Z " fill="#7F8287" transform="translate(580,118)"/>
<path d="M0 0 C1.32 1.32 2.64 2.64 4 4 C1.36 4 -1.28 4 -4 4 C-2.68 2.68 -1.36 1.36 0 0 Z " fill="#646366" transform="translate(109,206)"/>
<path d="M0 0 C0 1.65 0 3.3 0 5 C-1.9375 4.625 -1.9375 4.625 -4 4 C-4.33 3.34 -4.66 2.68 -5 2 C-2 0 -2 0 0 0 Z " fill="#FCFBFC" transform="translate(81,92)"/>
<path d="M0 0 C1.32 1.32 2.64 2.64 4 4 C1.69 4 -0.62 4 -3 4 C-2.67 3.01 -2.34 2.02 -2 1 C-1.34 0.67 -0.68 0.34 0 0 Z " fill="#646366" transform="translate(217,206)"/>
<path d="M0 0 C1.32 1.32 2.64 2.64 4 4 C1.69 4 -0.62 4 -3 4 C-2.67 3.01 -2.34 2.02 -2 1 C-1.34 0.67 -0.68 0.34 0 0 Z " fill="#646366" transform="translate(205,206)"/>
<path d="M0 0 C1.32 1.32 2.64 2.64 4 4 C1.69 4 -0.62 4 -3 4 C-2.67 3.01 -2.34 2.02 -2 1 C-1.34 0.67 -0.68 0.34 0 0 Z " fill="#646366" transform="translate(193,206)"/>
<path d="M0 0 C1.32 1.32 2.64 2.64 4 4 C1.69 4 -0.62 4 -3 4 C-2.67 3.01 -2.34 2.02 -2 1 C-1.34 0.67 -0.68 0.34 0 0 Z " fill="#646366" transform="translate(181,206)"/>
<path d="M0 0 C1.32 1.32 2.64 2.64 4 4 C1.69 4 -0.62 4 -3 4 C-2.67 3.01 -2.34 2.02 -2 1 C-1.34 0.67 -0.68 0.34 0 0 Z " fill="#646366" transform="translate(169,206)"/>
<path d="M0 0 C1.32 1.32 2.64 2.64 4 4 C1.69 4 -0.62 4 -3 4 C-2.67 3.01 -2.34 2.02 -2 1 C-1.34 0.67 -0.68 0.34 0 0 Z " fill="#646366" transform="translate(157,206)"/>
<path d="M0 0 C1.32 1.32 2.64 2.64 4 4 C1.69 4 -0.62 4 -3 4 C-2.67 3.01 -2.34 2.02 -2 1 C-1.34 0.67 -0.68 0.34 0 0 Z " fill="#646366" transform="translate(145,206)"/>
<path d="M0 0 C1.32 1.32 2.64 2.64 4 4 C1.69 4 -0.62 4 -3 4 C-2.67 3.01 -2.34 2.02 -2 1 C-1.34 0.67 -0.68 0.34 0 0 Z " fill="#646366" transform="translate(133,206)"/>
<path d="M0 0 C1.32 1.32 2.64 2.64 4 4 C1.69 4 -0.62 4 -3 4 C-2.67 3.01 -2.34 2.02 -2 1 C-1.34 0.67 -0.68 0.34 0 0 Z " fill="#646366" transform="translate(121,206)"/>
<path d="M0 0 C0 1.65 0 3.3 0 5 C-0.99 5.495 -0.99 5.495 -2 6 C-2 4.68 -2 3.36 -2 2 C-3.32 2.33 -4.64 2.66 -6 3 C-3.375 0 -3.375 0 0 0 Z " fill="#59404D" transform="translate(99,150)"/>
<path d="M0 0 C0.33 0.66 0.66 1.32 1 2 C1.66 2 2.32 2 3 2 C3.33 2.99 3.66 3.98 4 5 C1.69 4.67 -0.62 4.34 -3 4 C-2 2 -2 2 0 0 Z " fill="#F5F4F5" transform="translate(67,122)"/>
<path d="M0 0 C0.33 0.66 0.66 1.32 1 2 C0.67 2.66 0.34 3.32 0 4 C0.66 4.33 1.32 4.66 2 5 C1.01 5.33 0.02 5.66 -1 6 C-1.99 5.34 -2.98 4.68 -4 4 C-2.66666667 2.66666667 -1.33333333 1.33333333 0 0 Z " fill="#63565E" transform="translate(98,156)"/>
<path d="M0 0 C4.29 0 8.58 0 13 0 C13 0.33 13 0.66 13 1 C8.71 1 4.42 1 0 1 C0 0.67 0 0.34 0 0 Z " fill="#181819" transform="translate(36,218)"/>
<path d="M0 0 C0 0.66 0 1.32 0 2 C-1.65 2 -3.3 2 -5 2 C-5 2.66 -5 3.32 -5 4 C-5.66 3.67 -6.32 3.34 -7 3 C-7 2.34 -7 1.68 -7 1 C-4.50935112 0.31292445 -2.62113708 0 0 0 Z " fill="#823659" transform="translate(376,193)"/>
<path d="M0 0 C1 3 1 3 0 6 C-1.32 5.67 -2.64 5.34 -4 5 C-3.34 4.67 -2.68 4.34 -2 4 C-0.86649466 1.98330173 -0.86649466 1.98330173 0 0 Z " fill="#634755" transform="translate(98,135)"/>
<path d="M0 0 C1.32 0.66 2.64 1.32 4 2 C2.02 2.99 2.02 2.99 0 4 C-0.66 3.34 -1.32 2.68 -2 2 C-1.34 1.34 -0.68 0.68 0 0 Z " fill="#812D52" transform="translate(369,189)"/>
<path d="M0 0 C2.31 0.33 4.62 0.66 7 1 C6.01 2.485 6.01 2.485 5 4 C3.0625 3.6875 3.0625 3.6875 1 3 C0.67 2.01 0.34 1.02 0 0 Z " fill="#5FB3EE" transform="translate(79,144)"/>
<path d="M0 0 C1.485 0.99 1.485 0.99 3 2 C2.34 3.32 1.68 4.64 1 6 C0.34 5.34 -0.32 4.68 -1 4 C-0.625 1.875 -0.625 1.875 0 0 Z " fill="#18181A" transform="translate(93,203)"/>
<path d="M0 0 C3.3 0 6.6 0 10 0 C10 0.33 10 0.66 10 1 C6.7 1 3.4 1 0 1 C0 0.67 0 0.34 0 0 Z " fill="#181819" transform="translate(39,226)"/>
<path d="M0 0 C1.32 0.66 2.64 1.32 4 2 C2.02 2.99 2.02 2.99 0 4 C-0.33 3.34 -0.66 2.68 -1 2 C-0.67 1.34 -0.34 0.68 0 0 Z " fill="#5A6A7B" transform="translate(380,200)"/>
<path d="M0 0 C1.65 0.33 3.3 0.66 5 1 C5 1.33 5 1.66 5 2 C3.02 2 1.04 2 -1 2 C-0.67 1.34 -0.34 0.68 0 0 Z " fill="#EBE7E4" transform="translate(518,194)"/>
<path d="M0 0 C1.32 0.33 2.64 0.66 4 1 C3.01 2.485 3.01 2.485 2 4 C1.34 3.67 0.68 3.34 0 3 C0 2.01 0 1.02 0 0 Z " fill="#706F74" transform="translate(571,101)"/>
<path d="M0 0 C1.32 0.33 2.64 0.66 4 1 C3.01 2.485 3.01 2.485 2 4 C1.34 2.68 0.68 1.36 0 0 Z " fill="#615B70" transform="translate(377,190)"/>
<path d="M0 0 C0.66 0.33 1.32 0.66 2 1 C1.67 2.32 1.34 3.64 1 5 C0.34 4.67 -0.32 4.34 -1 4 C-0.67 2.68 -0.34 1.36 0 0 Z " fill="#1B1C1D" transform="translate(94,154)"/>
<path d="M0 0 C3 1 3 1 4 3 C2.35 2.67 0.7 2.34 -1 2 C-0.67 1.34 -0.34 0.68 0 0 Z " fill="#838586" transform="translate(575,108)"/>
<path d="M0 0 C2.475 0.495 2.475 0.495 5 1 C5 1.66 5 2.32 5 3 C3.35 3 1.7 3 0 3 C0 2.01 0 1.02 0 0 Z " fill="#363438" transform="translate(93,105)"/>
<path d="M0 0 C1.98 0 3.96 0 6 0 C6 0.33 6 0.66 6 1 C3.69 1.33 1.38 1.66 -1 2 C-0.67 1.34 -0.34 0.68 0 0 Z " fill="#C5C5AD" transform="translate(530,194)"/>
<path d="M0 0 C1.98 0.99 1.98 0.99 4 2 C2.68 2 1.36 2 0 2 C0 1.34 0 0.68 0 0 Z " fill="#EDF4F8" transform="translate(86,158)"/>
<path d="M0 0 C1.32 0.66 2.64 1.32 4 2 C2.68 2 1.36 2 0 2 C-0.33 2.66 -0.66 3.32 -1 4 C-0.67 2.68 -0.34 1.36 0 0 Z " fill="#5FB3EE" transform="translate(528,150)"/>
<path d="M0 0 C0.33 0.66 0.66 1.32 1 2 C1.99 2.33 2.98 2.66 4 3 C2.02 3 0.04 3 -2 3 C-1.34 2.67 -0.68 2.34 0 2 C0 1.34 0 0.68 0 0 Z " fill="#858486" transform="translate(359,143)"/>
<path d="M0 0 C0.66 0.66 1.32 1.32 2 2 C1.34 2.66 0.68 3.32 0 4 C-0.66 3.01 -1.32 2.02 -2 1 C-1.34 0.67 -0.68 0.34 0 0 Z " fill="#B2D6EE" transform="translate(62,125)"/>
<path d="M0 0 C1.32 0 2.64 0 4 0 C3.67 0.66 3.34 1.32 3 2 C1.68 1.67 0.36 1.34 -1 1 C-0.67 0.67 -0.34 0.34 0 0 Z " fill="#7B7F83" transform="translate(577,101)"/>
<path d="M0 0 C2.475 0.495 2.475 0.495 5 1 C3.68 1.33 2.36 1.66 1 2 C0.67 1.34 0.34 0.68 0 0 Z " fill="#656566" transform="translate(97,207)"/>
<path d="M0 0 C0.99 0 1.98 0 3 0 C2.67 0.99 2.34 1.98 2 3 C1.34 2.67 0.68 2.34 0 2 C0 1.34 0 0.68 0 0 Z " fill="#71777E" transform="translate(376,143)"/>
<path d="M0 0 C0.33 0.99 0.66 1.98 1 3 C-0.32 2.34 -1.64 1.68 -3 1 C-2.01 0.67 -1.02 0.34 0 0 Z " fill="#CED0D2" transform="translate(568,118)"/>
<path d="M0 0 C0.99 0 1.98 0 3 0 C2.67 0.66 2.34 1.32 2 2 C1.01 1.67 0.02 1.34 -1 1 C-0.67 0.67 -0.34 0.34 0 0 Z " fill="#858485" transform="translate(409,212)"/>
<path d="M0 0 C0.66 0 1.32 0 2 0 C2 0.99 2 1.98 2 3 C1.34 3 0.68 3 0 3 C0 2.01 0 1.02 0 0 Z " fill="#845E70" transform="translate(372,206)"/>
<path d="M0 0 C1.98 0.495 1.98 0.495 4 1 C2.35 1.33 0.7 1.66 -1 2 C-0.67 1.34 -0.34 0.68 0 0 Z " fill="#F4F5F5" transform="translate(532,196)"/>
<path d="M0 0 C0.33 0 0.66 0 1 0 C1 1.65 1 3.3 1 5 C0.34 3.68 -0.32 2.36 -1 1 C-0.67 0.67 -0.34 0.34 0 0 Z " fill="#647483" transform="translate(390,196)"/>
<path d="M0 0 C0.66 0 1.32 0 2 0 C1.67 1.32 1.34 2.64 1 4 C0.67 2.68 0.34 1.36 0 0 Z " fill="#656466" transform="translate(96,178)"/>
<path d="M0 0 C1.32 0 2.64 0 4 0 C4 0.66 4 1.32 4 2 C2.68 1.34 1.36 0.68 0 0 Z " fill="#873F5C" transform="translate(372,177)"/>
<path d="M0 0 C0.66 0.66 1.32 1.32 2 2 C0.68 2.33 -0.64 2.66 -2 3 C-1.34 2.01 -0.68 1.02 0 0 Z " fill="#5EB2EE" transform="translate(76,141)"/>
<path d="M0 0 C1.98 0.99 1.98 0.99 4 2 C3.01 2.495 3.01 2.495 2 3 C1.34 2.67 0.68 2.34 0 2 C0 1.34 0 0.68 0 0 Z " fill="#F2F1F2" transform="translate(62,133)"/>
<path d="M0 0 C0.66 0.99 1.32 1.98 2 3 C1.01 3.495 1.01 3.495 0 4 C-0.33 3.01 -0.66 2.02 -1 1 C-0.67 0.67 -0.34 0.34 0 0 Z " fill="#DBDADB" transform="translate(100,126)"/>
<path d="M0 0 C0.66 0.66 1.32 1.32 2 2 C1.67 2.66 1.34 3.32 1 4 C0.34 3.67 -0.32 3.34 -1 3 C-0.67 2.01 -0.34 1.02 0 0 Z " fill="#4C4A50" transform="translate(571,106)"/>
<path d="M0 0 C2 2 2 2 2 4 C1.34 4 0.68 4 0 4 C0 2.68 0 1.36 0 0 Z " fill="#2D2C30" transform="translate(568,100)"/>
<path d="M0 0 C1.32 0.33 2.64 0.66 4 1 C3.01 1.33 2.02 1.66 1 2 C0.67 1.34 0.34 0.68 0 0 Z " fill="#19191B" transform="translate(6,234)"/>
<path d="M0 0 C0.99 0.33 1.98 0.66 3 1 C2.01 1.33 1.02 1.66 0 2 C0 1.34 0 0.68 0 0 Z " fill="#444446" transform="translate(43,229)"/>
<path d="M0 0 C0.66 0.33 1.32 0.66 2 1 C1.34 1.66 0.68 2.32 0 3 C0 2.01 0 1.02 0 0 Z " fill="#181819" transform="translate(53,227)"/>
<path d="M0 0 C1.65 0 3.3 0 5 0 C5 0.33 5 0.66 5 1 C3.35 1 1.7 1 0 1 C0 0.67 0 0.34 0 0 Z " fill="#181819" transform="translate(81,224)"/>
<path d="M0 0 C0.66 0 1.32 0 2 0 C1.67 0.99 1.34 1.98 1 3 C0.67 2.01 0.34 1.02 0 0 Z " fill="#171718" transform="translate(54,223)"/>
<path d="M0 0 C0.99 0 1.98 0 3 0 C3 0.66 3 1.32 3 2 C2.01 2 1.02 2 0 2 C0 1.34 0 0.68 0 0 Z " fill="#83797F" transform="translate(384,207)"/>
<path d="M0 0 C0.66 0.66 1.32 1.32 2 2 C1.01 2 0.02 2 -1 2 C-0.67 1.34 -0.34 0.68 0 0 Z " fill="#1B1B1C" transform="translate(94,147)"/>
<path d="M0 0 C0.66 0.66 1.32 1.32 2 2 C1.01 2 0.02 2 -1 2 C-0.67 1.34 -0.34 0.68 0 0 Z " fill="#6CB8ED" transform="translate(529,146)"/>
<path d="M0 0 C0 0.99 0 1.98 0 3 C-0.66 2.34 -1.32 1.68 -2 1 C-1.34 0.67 -0.68 0.34 0 0 Z " fill="#704B5E" transform="translate(98,141)"/>
<path d="M0 0 C1.485 0.99 1.485 0.99 3 2 C2.01 2 1.02 2 0 2 C0 1.34 0 0.68 0 0 Z " fill="#9FD2F1" transform="translate(68,137)"/>
<path d="M0 0 C0.99 0.33 1.98 0.66 3 1 C2.01 1.33 1.02 1.66 0 2 C0 1.34 0 0.68 0 0 Z " fill="#2E2D2F" transform="translate(94,116)"/>
<path d="M0 0 C0.66 0 1.32 0 2 0 C2 0.66 2 1.32 2 2 C1.01 1.67 0.02 1.34 -1 1 C-0.67 0.67 -0.34 0.34 0 0 Z " fill="#969697" transform="translate(75,88)"/>
<path d="M0 0 C0.33 0.99 0.66 1.98 1 3 C0.34 2.67 -0.32 2.34 -1 2 C-0.67 1.34 -0.34 0.68 0 0 Z " fill="#434347" transform="translate(4,234)"/>
<path d="M0 0 C4 1 4 1 4 1 Z " fill="#141415" transform="translate(81,234)"/>
<path d="M0 0 C1.485 0.99 1.485 0.99 3 2 C2.01 2 1.02 2 0 2 C0 1.34 0 0.68 0 0 Z " fill="#212223" transform="translate(34,227)"/>
<path d="M0 0 C0.99 0.495 0.99 0.495 2 1 C1.34 1.66 0.68 2.32 0 3 C0 2.01 0 1.02 0 0 Z " fill="#2B2A2B" transform="translate(50,224)"/>
<path d="M0 0 C0.99 0 1.98 0 3 0 C2.67 0.66 2.34 1.32 2 2 C1.34 1.34 0.68 0.68 0 0 Z " fill="#6C7885" transform="translate(392,200)"/>
<path d="M0 0 C0.66 0 1.32 0 2 0 C2 0.66 2 1.32 2 2 C1.34 2 0.68 2 0 2 C0 1.34 0 0.68 0 0 Z " fill="#656466" transform="translate(96,198)"/>
<path d="M0 0 C0.99 0.33 1.98 0.66 3 1 C2.01 1.33 1.02 1.66 0 2 C0 1.34 0 0.68 0 0 Z " fill="#5B6A7B" transform="translate(393,197)"/>
<path d="M0 0 C0.99 0.33 1.98 0.66 3 1 C2.01 1 1.02 1 0 1 C0 0.67 0 0.34 0 0 Z " fill="#5A6A7A" transform="translate(385,196)"/>
<path d="M0 0 C0.66 0.66 1.32 1.32 2 2 C1.01 2.495 1.01 2.495 0 3 C0 2.01 0 1.02 0 0 Z " fill="#647587" transform="translate(396,194)"/>
<path d="M0 0 C0.66 0 1.32 0 2 0 C2 0.66 2 1.32 2 2 C1.34 2 0.68 2 0 2 C0 1.34 0 0.68 0 0 Z " fill="#2F3034" transform="translate(99,194)"/>
<path d="M0 0 C0.66 0 1.32 0 2 0 C2 0.66 2 1.32 2 2 C1.34 2 0.68 2 0 2 C0 1.34 0 0.68 0 0 Z " fill="#656466" transform="translate(96,194)"/>
<path d="M0 0 C0.66 0 1.32 0 2 0 C2 0.66 2 1.32 2 2 C1.34 2 0.68 2 0 2 C0 1.34 0 0.68 0 0 Z " fill="#656466" transform="translate(96,190)"/>
<path d="M0 0 C0.99 0.33 1.98 0.66 3 1 C2.01 1 1.02 1 0 1 C0 0.67 0 0.34 0 0 Z " fill="#615A70" transform="translate(377,179)"/>
<path d="M0 0 C0.66 0 1.32 0 2 0 C2 0.66 2 1.32 2 2 C1.34 2 0.68 2 0 2 C0 1.34 0 0.68 0 0 Z " fill="#FBFAFA" transform="translate(88,169)"/>
<path d="M0 0 C0.99 0.495 0.99 0.495 2 1 C1.34 1.66 0.68 2.32 0 3 C0 2.01 0 1.02 0 0 Z " fill="#858485" transform="translate(144,165)"/>
<path d="M0 0 C0.66 0 1.32 0 2 0 C2 0.66 2 1.32 2 2 C1.34 2 0.68 2 0 2 C0 1.34 0 0.68 0 0 Z " fill="#7E1F49" transform="translate(106,155)"/>
<path d="M0 0 C0.99 0 1.98 0 3 0 C2.67 0.66 2.34 1.32 2 2 C1.34 1.34 0.68 0.68 0 0 Z " fill="#BAB9BA" transform="translate(538,150)"/>
<path d="M0 0 C0.66 0 1.32 0 2 0 C2 0.66 2 1.32 2 2 C1.34 2 0.68 2 0 2 C0 1.34 0 0.68 0 0 Z " fill="#7E1F49" transform="translate(106,149)"/>
<path d="M0 0 C0 3 0 3 0 3 Z " fill="#73455D" transform="translate(98,147)"/>
<path d="M0 0 C0.99 0 1.98 0 3 0 C2.67 0.66 2.34 1.32 2 2 C1.34 1.34 0.68 0.68 0 0 Z " fill="#96C9EC" transform="translate(525,146)"/>
<path d="M0 0 C0.66 0 1.32 0 2 0 C2 0.66 2 1.32 2 2 C1.34 2 0.68 2 0 2 C0 1.34 0 0.68 0 0 Z " fill="#7E1F49" transform="translate(106,146)"/>
<path d="M0 0 C0 3 0 3 0 3 Z " fill="#73455D" transform="translate(98,144)"/>
<path d="M0 0 C0.66 0 1.32 0 2 0 C2 0.66 2 1.32 2 2 C1.34 2 0.68 2 0 2 C0 1.34 0 0.68 0 0 Z " fill="#9D9C9D" transform="translate(354,142)"/>
<path d="M0 0 C0.66 0 1.32 0 2 0 C2 0.66 2 1.32 2 2 C1.34 2 0.68 2 0 2 C0 1.34 0 0.68 0 0 Z " fill="#7E1F49" transform="translate(106,143)"/>
<path d="M0 0 C0.66 0 1.32 0 2 0 C2 0.66 2 1.32 2 2 C1.34 2 0.68 2 0 2 C0 1.34 0 0.68 0 0 Z " fill="#7E1F49" transform="translate(106,140)"/>
<path d="M0 0 C4 1 4 1 4 1 Z " fill="#828286" transform="translate(358,137)"/>
<path d="M0 0 C0.66 0 1.32 0 2 0 C2 0.66 2 1.32 2 2 C1.34 2 0.68 2 0 2 C0 1.34 0 0.68 0 0 Z " fill="#7E1F49" transform="translate(106,137)"/>
<path d="M0 0 C0.66 0 1.32 0 2 0 C2 0.66 2 1.32 2 2 C1.34 2 0.68 2 0 2 C0 1.34 0 0.68 0 0 Z " fill="#F3F2F4" transform="translate(54,135)"/>
<path d="M0 0 C0 3 0 3 0 3 Z " fill="#666566" transform="translate(97,129)"/>
<path d="M0 0 C1 4 1 4 1 4 Z " fill="#636363" transform="translate(96,122)"/>
<path d="M0 0 C0.66 0.66 1.32 1.32 2 2 C1.01 1.67 0.02 1.34 -1 1 C-0.67 0.67 -0.34 0.34 0 0 Z " fill="#EED7CA" transform="translate(76,122)"/>
<path d="M0 0 C0 3 0 3 0 3 Z " fill="#EEE0D8" transform="translate(72,121)"/>
<path d="M0 0 C0.99 0.33 1.98 0.66 3 1 C2.01 1.33 1.02 1.66 0 2 C0 1.34 0 0.68 0 0 Z " fill="#2D2C30" transform="translate(555,112)"/>
<path d="M0 0 C0.66 0 1.32 0 2 0 C2 0.66 2 1.32 2 2 C1.34 2 0.68 2 0 2 C0 1.34 0 0.68 0 0 Z " fill="#FDFCFD" transform="translate(101,104)"/>
<path d="M0 0 C4 1 4 1 4 1 Z " fill="#7F8286" transform="translate(574,99)"/>
<path d="M0 0 C0.99 0.33 1.98 0.66 3 1 C2.01 1 1.02 1 0 1 C0 0.67 0 0.34 0 0 Z " fill="#978569" transform="translate(63,92)"/>
<path d="M0 0 C3 1 3 1 3 1 Z " fill="#FFFDFF" transform="translate(0,238)"/>
<path d="M0 0 C0.33 0.66 0.66 1.32 1 2 C0.34 1.67 -0.32 1.34 -1 1 C-0.67 0.67 -0.34 0.34 0 0 Z " fill="#151416" transform="translate(46,231)"/>
<path d="M0 0 C3 1 3 1 3 1 Z " fill="#181819" transform="translate(81,220)"/>
<path d="" fill="#858484" transform="translate(0,0)"/>
<path d="" fill="#858484" transform="translate(0,0)"/>
<path d="M0 0 C3 1 3 1 3 1 Z " fill="#646466" transform="translate(210,209)"/>
<path d="M0 0 C3 1 3 1 3 1 Z " fill="#646466" transform="translate(198,209)"/>
<path d="M0 0 C3 1 3 1 3 1 Z " fill="#646466" transform="translate(186,209)"/>
<path d="M0 0 C3 1 3 1 3 1 Z " fill="#646466" transform="translate(174,209)"/>
<path d="M0 0 C3 1 3 1 3 1 Z " fill="#646466" transform="translate(162,209)"/>
<path d="M0 0 C3 1 3 1 3 1 Z " fill="#646466" transform="translate(150,209)"/>
<path d="M0 0 C3 1 3 1 3 1 Z " fill="#646466" transform="translate(138,209)"/>
<path d="M0 0 C3 1 3 1 3 1 Z " fill="#646466" transform="translate(126,209)"/>
<path d="M0 0 C3 1 3 1 3 1 Z " fill="#646466" transform="translate(114,209)"/>
<path d="M0 0 C0.66 0.66 1.32 1.32 2 2 C1.34 2 0.68 2 0 2 C0 1.34 0 0.68 0 0 Z " fill="#812550" transform="translate(374,204)"/>
<path d="M0 0 C0.66 0 1.32 0 2 0 C1.67 0.66 1.34 1.32 1 2 C0.67 1.34 0.34 0.68 0 0 Z " fill="#7E1F48" transform="translate(365,204)"/>
<path d="M0 0 C0.33 0.66 0.66 1.32 1 2 C0.34 1.67 -0.32 1.34 -1 1 C-0.67 0.67 -0.34 0.34 0 0 Z " fill="#59697A" transform="translate(401,203)"/>
<path d="M0 0 C0.33 0.66 0.66 1.32 1 2 C0.34 1.67 -0.32 1.34 -1 1 C-0.67 0.67 -0.34 0.34 0 0 Z " fill="#5D6C7D" transform="translate(399,202)"/>
<path d="M0 0 C0.99 0.495 0.99 0.495 2 1 C1.01 1.495 1.01 1.495 0 2 C0 1.34 0 0.68 0 0 Z " fill="#596A7A" transform="translate(384,203)"/>
<path d="M0 0 C0.99 0.495 0.99 0.495 2 1 C1.01 1.495 1.01 1.495 0 2 C0 1.34 0 0.68 0 0 Z " fill="#596979" transform="translate(388,201)"/>
<path d="M0 0 C0.66 0 1.32 0 2 0 C1.67 0.66 1.34 1.32 1 2 C0.67 1.34 0.34 0.68 0 0 Z " fill="#73818D" transform="translate(399,199)"/>
<path d="M0 0 C0.66 0.66 1.32 1.32 2 2 C1.34 2 0.68 2 0 2 C0 1.34 0 0.68 0 0 Z " fill="#7E254D" transform="translate(372,198)"/>
<path d="M0 0 C3 1 3 1 3 1 Z " fill="#5D6D7D" transform="translate(383,192)"/>
<path d="" fill="#606F7E" transform="translate(0,0)"/>
<path d="M0 0 C0.66 0.66 1.32 1.32 2 2 C1.34 2 0.68 2 0 2 C0 1.34 0 0.68 0 0 Z " fill="#939395" transform="translate(146,166)"/>
<path d="M0 0 C0.33 0.66 0.66 1.32 1 2 C0.34 1.67 -0.32 1.34 -1 1 C-0.67 0.67 -0.34 0.34 0 0 Z " fill="#FAF8FA" transform="translate(524,157)"/>
<path d="M0 0 C0.66 0 1.32 0 2 0 C1.67 0.66 1.34 1.32 1 2 C0.67 1.34 0.34 0.68 0 0 Z " fill="#E4E5E7" transform="translate(78,153)"/>
<path d="M0 0 C0.66 0.66 1.32 1.32 2 2 C1.34 2 0.68 2 0 2 C0 1.34 0 0.68 0 0 Z " fill="#97D5FB" transform="translate(525,149)"/>
<path d="M0 0 C3 1 3 1 3 1 Z " fill="#FAFAFA" transform="translate(81,150)"/>
<path d="M0 0 C0.33 0.66 0.66 1.32 1 2 C0.34 1.67 -0.32 1.34 -1 1 C-0.67 0.67 -0.34 0.34 0 0 Z " fill="#5A6A7A" transform="translate(380,144)"/>
<path d="M0 0 C0.99 0.495 0.99 0.495 2 1 C1.01 1.495 1.01 1.495 0 2 C0 1.34 0 0.68 0 0 Z " fill="#61B4EE" transform="translate(76,144)"/>
<path d="M0 0 C0.66 0.66 1.32 1.32 2 2 C1.34 2 0.68 2 0 2 C0 1.34 0 0.68 0 0 Z " fill="#868588" transform="translate(356,137)"/>
<path d="M0 0 C0.66 0.66 1.32 1.32 2 2 C1.34 2 0.68 2 0 2 C0 1.34 0 0.68 0 0 Z " fill="#F3F1F4" transform="translate(60,130)"/>
<path d="" fill="#65AFE5" transform="translate(0,0)"/>
<path d="M0 0 C0.99 0.495 0.99 0.495 2 1 C1.01 1.495 1.01 1.495 0 2 C0 1.34 0 0.68 0 0 Z " fill="#B5D9F3" transform="translate(59,128)"/>
<path d="M0 0 C0.99 0.495 0.99 0.495 2 1 C1.01 1.495 1.01 1.495 0 2 C0 1.34 0 0.68 0 0 Z " fill="#FDFCFB" transform="translate(564,126)"/>
<path d="M0 0 C0.99 0.495 0.99 0.495 2 1 C1.01 1.495 1.01 1.495 0 2 C0 1.34 0 0.68 0 0 Z " fill="#8DA1B6" transform="translate(562,123)"/>
<path d="M0 0 C0.99 0.495 0.99 0.495 2 1 C1.01 1.495 1.01 1.495 0 2 C0 1.34 0 0.68 0 0 Z " fill="#FBFCFC" transform="translate(61,122)"/>
<path d="M0 0 C3 1 3 1 3 1 Z " fill="#FCFCFC" transform="translate(74,80)"/>
<path d="M0 0 C2 1 2 1 2 1 Z " fill="#676767" transform="translate(8,236)"/>
<path d="M0 0 C2 1 2 1 2 1 Z " fill="#555356" transform="translate(1,235)"/>
<path d="M0 0 C2 1 2 1 2 1 Z " fill="#141415" transform="translate(78,234)"/>
<path d="M0 0 C2 1 2 1 2 1 Z " fill="#141415" transform="translate(75,234)"/>
<path d="M0 0 C2 1 2 1 2 1 Z " fill="#141415" transform="translate(72,234)"/>
<path d="M0 0 C2 1 2 1 2 1 Z " fill="#17171A" transform="translate(39,231)"/>
<path d="" fill="#4F4F52" transform="translate(0,0)"/>
<path d="" fill="#625860" transform="translate(0,0)"/>
<path d="M0 0 C2 1 2 1 2 1 Z " fill="#161516" transform="translate(54,220)"/>
<path d="" fill="#F4F1F3" transform="translate(0,0)"/>
<path d="" fill="#19191C" transform="translate(0,0)"/>
<path d="M0 0 C2 1 2 1 2 1 Z " fill="#858486" transform="translate(416,208)"/>
<path d="" fill="#616063" transform="translate(0,0)"/>
<path d="" fill="#616063" transform="translate(0,0)"/>
<path d="" fill="#616063" transform="translate(0,0)"/>
<path d="" fill="#616063" transform="translate(0,0)"/>
<path d="" fill="#616063" transform="translate(0,0)"/>
<path d="" fill="#616063" transform="translate(0,0)"/>
<path d="" fill="#616063" transform="translate(0,0)"/>
<path d="" fill="#616063" transform="translate(0,0)"/>
<path d="" fill="#616063" transform="translate(0,0)"/>
<path d="" fill="#616063" transform="translate(0,0)"/>
<path d="M0 0 C2 1 2 1 2 1 Z " fill="#666568" transform="translate(96,205)"/>
<path d="" fill="#7F1F48" transform="translate(0,0)"/>
<path d="" fill="#F5F5F4" transform="translate(0,0)"/>
<path d="M0 0 C2 1 2 1 2 1 Z " fill="#5A697A" transform="translate(405,201)"/>
<path d="M0 0 C2 1 2 1 2 1 Z " fill="#576879" transform="translate(385,201)"/>
<path d="" fill="#576879" transform="translate(0,0)"/>
<path d="M0 0 C2 1 2 1 2 1 Z " fill="#788692" transform="translate(396,199)"/>
<path d="M0 0 C2 1 2 1 2 1 Z " fill="#73808B" transform="translate(384,199)"/>
<path d="M0 0 C2 1 2 1 2 1 Z " fill="#7D2850" transform="translate(369,199)"/>
<path d="M0 0 C2 1 2 1 2 1 Z " fill="#7D2850" transform="translate(365,199)"/>
<path d="M0 0 C2 1 2 1 2 1 Z " fill="#2F3035" transform="translate(99,198)"/>
<path d="" fill="#7E204A" transform="translate(0,0)"/>
<path d="" fill="#5B6979" transform="translate(0,0)"/>
<path d="" fill="#303034" transform="translate(0,0)"/>
<path d="M0 0 C2 1 2 1 2 1 Z " fill="#B4B495" transform="translate(518,190)"/>
<path d="" fill="#656466" transform="translate(0,0)"/>
<path d="M0 0 C2 1 2 1 2 1 Z " fill="#7D3057" transform="translate(368,183)"/>
<path d="" fill="#656466" transform="translate(0,0)"/>
<path d="" fill="#1A1A1F" transform="translate(0,0)"/>
<path d="" fill="#7D2850" transform="translate(0,0)"/>
<path d="M0 0 C2 1 2 1 2 1 Z " fill="#FDFCFC" transform="translate(85,178)"/>
<path d="M0 0 C2 1 2 1 2 1 Z " fill="#6B4761" transform="translate(377,177)"/>
<path d="" fill="#F1F0F3" transform="translate(0,0)"/>
<path d="M0 0 C2 1 2 1 2 1 Z " fill="#FAFAF9" transform="translate(88,167)"/>
<path d="M0 0 C2 1 2 1 2 1 Z " fill="#FAFAF9" transform="translate(88,165)"/>
<path d="" fill="#B2B495" transform="translate(0,0)"/>
<path d="M0 0 C2 1 2 1 2 1 Z " fill="#838384" transform="translate(145,163)"/>
<path d="M0 0 C2 1 2 1 2 1 Z " fill="#FAFAF9" transform="translate(88,163)"/>
<path d="M0 0 C2 1 2 1 2 1 Z " fill="#72AFDA" transform="translate(520,160)"/>
<path d="M0 0 C2 1 2 1 2 1 Z " fill="#7E1F49" transform="translate(106,153)"/>
<path d="M0 0 C2 1 2 1 2 1 Z " fill="#6EBAF0" transform="translate(512,147)"/>
<path d="M0 0 C2 1 2 1 2 1 Z " fill="#212124" transform="translate(94,145)"/>
<path d="" fill="#858484" transform="translate(0,0)"/>
<path d="M0 0 C2 1 2 1 2 1 Z " fill="#171718" transform="translate(93,142)"/>
<path d="M0 0 C2 1 2 1 2 1 Z " fill="#5CB2EE" transform="translate(77,140)"/>
<path d="M0 0 C2 1 2 1 2 1 Z " fill="#63B5EF" transform="translate(80,139)"/>
<path d="M0 0 C2 1 2 1 2 1 Z " fill="#212124" transform="translate(94,137)"/>
<path d="M0 0 C2 1 2 1 2 1 Z " fill="#7E1F49" transform="translate(106,135)"/>
<path d="M0 0 C2 1 2 1 2 1 Z " fill="#171718" transform="translate(93,134)"/>
<path d="M0 0 C2 1 2 1 2 1 Z " fill="#F4F3F3" transform="translate(57,133)"/>
<path d="M0 0 C2 1 2 1 2 1 Z " fill="#60B3EE" transform="translate(80,132)"/>
<path d="M0 0 C2 1 2 1 2 1 Z " fill="#5FB3EE" transform="translate(77,132)"/>
<path d="M0 0 C2 1 2 1 2 1 Z " fill="#F0F6F6" transform="translate(57,131)"/>
<path d="" fill="#636365" transform="translate(0,0)"/>
<path d="M0 0 C2 1 2 1 2 1 Z " fill="#878685" transform="translate(578,124)"/>
<path d="M0 0 C2 1 2 1 2 1 Z " fill="#878687" transform="translate(579,119)"/>
<path d="" fill="#171718" transform="translate(0,0)"/>
<path d="M0 0 C2 1 2 1 2 1 Z " fill="#858588" transform="translate(581,118)"/>
<path d="" fill="#38383B" transform="translate(0,0)"/>
<path d="M0 0 C2 1 2 1 2 1 Z " fill="#62564E" transform="translate(553,114)"/>
<path d="M0 0 C2 1 2 1 2 1 Z " fill="#868585" transform="translate(582,111)"/>
<path d="" fill="#7C7C7F" transform="translate(0,0)"/>
<path d="M0 0 C2 1 2 1 2 1 Z " fill="#2C2C30" transform="translate(554,110)"/>
<path d="M0 0 C2 1 2 1 2 1 Z " fill="#2D2C30" transform="translate(568,105)"/>
<path d="M0 0 C2 1 2 1 2 1 Z " fill="#2D2C30" transform="translate(567,98)"/>
<path d="" fill="#FCFBFC" transform="translate(0,0)"/>
<path d="" fill="#967F5B" transform="translate(0,0)"/>
<path d="M0 0 C2 1 2 1 2 1 Z " fill="#FDFDFD" transform="translate(74,93)"/>
<path d="M0 0 C2 1 2 1 2 1 Z " fill="#FDFDFD" transform="translate(70,93)"/>
<path d="M0 0 C2 1 2 1 2 1 Z " fill="#FFFDFF" transform="translate(76,92)"/>
<path d="M0 0 C2 1 2 1 2 1 Z " fill="#BEBEBE" transform="translate(66,91)"/>
<path d="" fill="#FDFDFE" transform="translate(0,0)"/>
<path d="" fill="#FCFBFC" transform="translate(0,0)"/>
<path d="" fill="#FFFDFD" transform="translate(0,0)"/>
<path d="" fill="#FFFCF9" transform="translate(0,0)"/>
<path d="M0 0 C2 1 2 1 2 1 Z " fill="#F3F1F4" transform="translate(219,0)"/>
<path d="" fill="#161619" transform="translate(0,0)"/>
<path d="" fill="#19191B" transform="translate(0,0)"/>
<path d="" fill="#181818" transform="translate(0,0)"/>
<path d="" fill="#161619" transform="translate(0,0)"/>
<path d="" fill="#17181C" transform="translate(0,0)"/>
<path d="" fill="#2E2D30" transform="translate(0,0)"/>
<path d="" fill="#414141" transform="translate(0,0)"/>
<path d="" fill="#323338" transform="translate(0,0)"/>
<path d="" fill="#161619" transform="translate(0,0)"/>
<path d="" fill="#1A1A1B" transform="translate(0,0)"/>
<path d="" fill="#1A1A1B" transform="translate(0,0)"/>
<path d="" fill="#181818" transform="translate(0,0)"/>
<path d="" fill="#646564" transform="translate(0,0)"/>
<path d="" fill="#414141" transform="translate(0,0)"/>
<path d="" fill="#19191B" transform="translate(0,0)"/>
<path d="" fill="#181818" transform="translate(0,0)"/>
<path d="" fill="#19191B" transform="translate(0,0)"/>
<path d="" fill="#181818" transform="translate(0,0)"/>
<path d="" fill="#19191B" transform="translate(0,0)"/>
<path d="" fill="#181818" transform="translate(0,0)"/>
<path d="" fill="#19191B" transform="translate(0,0)"/>
<path d="" fill="#181818" transform="translate(0,0)"/>
<path d="" fill="#19191B" transform="translate(0,0)"/>
<path d="" fill="#181818" transform="translate(0,0)"/>
<path d="" fill="#19191B" transform="translate(0,0)"/>
<path d="" fill="#181818" transform="translate(0,0)"/>
<path d="" fill="#1A1A1B" transform="translate(0,0)"/>
<path d="" fill="#3C3B3F" transform="translate(0,0)"/>
<path d="" fill="#F3F1F5" transform="translate(0,0)"/>
<path d="" fill="#858588" transform="translate(0,0)"/>
<path d="" fill="#F3F1F5" transform="translate(0,0)"/>
<path d="" fill="#D8DEDD" transform="translate(0,0)"/>
<path d="" fill="#858588" transform="translate(0,0)"/>
<path d="" fill="#888688" transform="translate(0,0)"/>
<path d="" fill="#888584" transform="translate(0,0)"/>
<path d="" fill="#666666" transform="translate(0,0)"/>
<path d="" fill="#666666" transform="translate(0,0)"/>
<path d="" fill="#666666" transform="translate(0,0)"/>
<path d="" fill="#666666" transform="translate(0,0)"/>
<path d="" fill="#666666" transform="translate(0,0)"/>
<path d="" fill="#666666" transform="translate(0,0)"/>
<path d="" fill="#666666" transform="translate(0,0)"/>
<path d="" fill="#666666" transform="translate(0,0)"/>
<path d="" fill="#666666" transform="translate(0,0)"/>
<path d="" fill="#666666" transform="translate(0,0)"/>
<path d="" fill="#686769" transform="translate(0,0)"/>
<path d="" fill="#686769" transform="translate(0,0)"/>
<path d="" fill="#686769" transform="translate(0,0)"/>
<path d="" fill="#686769" transform="translate(0,0)"/>
<path d="" fill="#686769" transform="translate(0,0)"/>
<path d="" fill="#686769" transform="translate(0,0)"/>
<path d="" fill="#686769" transform="translate(0,0)"/>
<path d="" fill="#686769" transform="translate(0,0)"/>
<path d="" fill="#686769" transform="translate(0,0)"/>
<path d="" fill="#686769" transform="translate(0,0)"/>
<path d="" fill="#7E204A" transform="translate(0,0)"/>
<path d="" fill="#5A595D" transform="translate(0,0)"/>
<path d="" fill="#5A595D" transform="translate(0,0)"/>
<path d="" fill="#5A595D" transform="translate(0,0)"/>
<path d="" fill="#5A595D" transform="translate(0,0)"/>
<path d="" fill="#5A595D" transform="translate(0,0)"/>
<path d="" fill="#5A595D" transform="translate(0,0)"/>
<path d="" fill="#5A595D" transform="translate(0,0)"/>
<path d="" fill="#5A595D" transform="translate(0,0)"/>
<path d="" fill="#5A595D" transform="translate(0,0)"/>
<path d="" fill="#5A595D" transform="translate(0,0)"/>
<path d="" fill="#5A595D" transform="translate(0,0)"/>
<path d="" fill="#7F1F48" transform="translate(0,0)"/>
<path d="" fill="#5B6979" transform="translate(0,0)"/>
<path d="" fill="#5B6979" transform="translate(0,0)"/>
<path d="" fill="#FCFDFE" transform="translate(0,0)"/>
<path d="" fill="#FFFFFF" transform="translate(0,0)"/>
<path d="" fill="#FFFFFF" transform="translate(0,0)"/>
<path d="" fill="#7F1F48" transform="translate(0,0)"/>
<path d="" fill="#7F1F48" transform="translate(0,0)"/>
<path d="" fill="#5A6A7B" transform="translate(0,0)"/>
<path d="" fill="#5A6A7B" transform="translate(0,0)"/>
<path d="" fill="#7F1F48" transform="translate(0,0)"/>
<path d="" fill="#7F1F48" transform="translate(0,0)"/>
<path d="" fill="#7E204A" transform="translate(0,0)"/>
<path d="" fill="#7F1F48" transform="translate(0,0)"/>
<path d="" fill="#5B6979" transform="translate(0,0)"/>
<path d="" fill="#5A6A7B" transform="translate(0,0)"/>
<path d="" fill="#7E204A" transform="translate(0,0)"/>
<path d="" fill="#78848E" transform="translate(0,0)"/>
<path d="" fill="#7D3057" transform="translate(0,0)"/>
<path d="" fill="#5C6C7C" transform="translate(0,0)"/>
<path d="" fill="#7E204A" transform="translate(0,0)"/>
<path d="" fill="#5A6A7B" transform="translate(0,0)"/>
<path d="" fill="#5A6A7B" transform="translate(0,0)"/>
<path d="" fill="#5A6A7B" transform="translate(0,0)"/>
<path d="" fill="#5A6A7B" transform="translate(0,0)"/>
<path d="" fill="#5A6A7B" transform="translate(0,0)"/>
<path d="" fill="#FFFEFB" transform="translate(0,0)"/>
<path d="" fill="#5A6A7B" transform="translate(0,0)"/>
<path d="" fill="#7E204A" transform="translate(0,0)"/>
<path d="" fill="#788896" transform="translate(0,0)"/>
<path d="" fill="#904E6D" transform="translate(0,0)"/>
<path d="" fill="#B2B39A" transform="translate(0,0)"/>
<path d="" fill="#B6B590" transform="translate(0,0)"/>
<path d="" fill="#7E204A" transform="translate(0,0)"/>
<path d="" fill="#576878" transform="translate(0,0)"/>
<path d="" fill="#7E204A" transform="translate(0,0)"/>
<path d="" fill="#5B6979" transform="translate(0,0)"/>
<path d="" fill="#7E204A" transform="translate(0,0)"/>
<path d="" fill="#88305E" transform="translate(0,0)"/>
<path d="" fill="#FAFAFA" transform="translate(0,0)"/>
<path d="" fill="#FAFAFA" transform="translate(0,0)"/>
<path d="" fill="#2C2C30" transform="translate(0,0)"/>
<path d="" fill="#F4F1F3" transform="translate(0,0)"/>
<path d="" fill="#F3F1F5" transform="translate(0,0)"/>
<path d="" fill="#F3F1F5" transform="translate(0,0)"/>
<path d="" fill="#B3B590" transform="translate(0,0)"/>
<path d="" fill="#B3B590" transform="translate(0,0)"/>
<path d="" fill="#8A8A8B" transform="translate(0,0)"/>
<path d="" fill="#161619" transform="translate(0,0)"/>
<path d="" fill="#57B2ED" transform="translate(0,0)"/>
<path d="" fill="#60B2ED" transform="translate(0,0)"/>
<path d="" fill="#7E204A" transform="translate(0,0)"/>
<path d="" fill="#FFFDFF" transform="translate(0,0)"/>
<path d="" fill="#FFFDFF" transform="translate(0,0)"/>
<path d="" fill="#FDFDFD" transform="translate(0,0)"/>
<path d="" fill="#646367" transform="translate(0,0)"/>
<path d="" fill="#ECEDEE" transform="translate(0,0)"/>
<path d="" fill="#D8DEDD" transform="translate(0,0)"/>
<path d="" fill="#60B2ED" transform="translate(0,0)"/>
<path d="" fill="#E4E2E1" transform="translate(0,0)"/>
<path d="" fill="#6AB1E1" transform="translate(0,0)"/>
<path d="" fill="#FAFAFA" transform="translate(0,0)"/>
<path d="" fill="#6AB1E1" transform="translate(0,0)"/>
<path d="" fill="#6AB1E1" transform="translate(0,0)"/>
<path d="" fill="#FAFAFA" transform="translate(0,0)"/>
<path d="" fill="#F3F1F5" transform="translate(0,0)"/>
<path d="" fill="#57B2ED" transform="translate(0,0)"/>
<path d="" fill="#63B5EF" transform="translate(0,0)"/>
<path d="" fill="#63B5EF" transform="translate(0,0)"/>
<path d="" fill="#7D7E83" transform="translate(0,0)"/>
<path d="" fill="#888584" transform="translate(0,0)"/>
<path d="" fill="#888688" transform="translate(0,0)"/>
<path d="" fill="#858588" transform="translate(0,0)"/>
<path d="" fill="#181818" transform="translate(0,0)"/>
<path d="" fill="#858588" transform="translate(0,0)"/>
<path d="" fill="#60B2ED" transform="translate(0,0)"/>
<path d="" fill="#63B5EF" transform="translate(0,0)"/>
<path d="" fill="#858484" transform="translate(0,0)"/>
<path d="" fill="#5DB2EE" transform="translate(0,0)"/>
<path d="" fill="#181818" transform="translate(0,0)"/>
<path d="" fill="#6EBAF0" transform="translate(0,0)"/>
<path d="" fill="#60B2ED" transform="translate(0,0)"/>
<path d="" fill="#5CB2EE" transform="translate(0,0)"/>
<path d="" fill="#B6E5FD" transform="translate(0,0)"/>
<path d="" fill="#181818" transform="translate(0,0)"/>
<path d="" fill="#F5F5F4" transform="translate(0,0)"/>
<path d="" fill="#5DB2EE" transform="translate(0,0)"/>
<path d="" fill="#F3F1F5" transform="translate(0,0)"/>
<path d="" fill="#63B5EF" transform="translate(0,0)"/>
<path d="" fill="#F5F5F4" transform="translate(0,0)"/>
<path d="" fill="#161619" transform="translate(0,0)"/>
<path d="" fill="#181818" transform="translate(0,0)"/>
<path d="" fill="#F3F1F5" transform="translate(0,0)"/>
<path d="" fill="#161619" transform="translate(0,0)"/>
<path d="" fill="#737578" transform="translate(0,0)"/>
<path d="" fill="#F4F1F3" transform="translate(0,0)"/>
<path d="" fill="#F4F4F4" transform="translate(0,0)"/>
<path d="" fill="#F4F1F3" transform="translate(0,0)"/>
<path d="" fill="#5DB2EE" transform="translate(0,0)"/>
<path d="" fill="#5DB2EE" transform="translate(0,0)"/>
<path d="" fill="#6F6F6F" transform="translate(0,0)"/>
<path d="" fill="#858484" transform="translate(0,0)"/>
<path d="" fill="#F4F1F3" transform="translate(0,0)"/>
<path d="" fill="#F0F0F1" transform="translate(0,0)"/>
<path d="" fill="#6F6F6F" transform="translate(0,0)"/>
<path d="" fill="#F4F1F3" transform="translate(0,0)"/>
<path d="" fill="#F4F1F3" transform="translate(0,0)"/>
<path d="" fill="#FAFAFA" transform="translate(0,0)"/>
<path d="" fill="#FCFDFE" transform="translate(0,0)"/>
<path d="" fill="#6F6F6F" transform="translate(0,0)"/>
<path d="" fill="#EFD8CC" transform="translate(0,0)"/>
<path d="" fill="#E9E9EA" transform="translate(0,0)"/>
<path d="" fill="#474445" transform="translate(0,0)"/>
<path d="" fill="#6F6F6F" transform="translate(0,0)"/>
<path d="" fill="#A3A2A3" transform="translate(0,0)"/>
<path d="" fill="#6F6F6F" transform="translate(0,0)"/>
<path d="" fill="#858484" transform="translate(0,0)"/>
<path d="" fill="#8C654E" transform="translate(0,0)"/>
<path d="" fill="#6F6F6F" transform="translate(0,0)"/>
<path d="" fill="#6F6F6F" transform="translate(0,0)"/>
<path d="" fill="#735D51" transform="translate(0,0)"/>
<path d="" fill="#EBF7F9" transform="translate(0,0)"/>
<path d="" fill="#888584" transform="translate(0,0)"/>
<path d="" fill="#2C2C30" transform="translate(0,0)"/>
<path d="" fill="#6F6F6F" transform="translate(0,0)"/>
<path d="" fill="#2E2E30" transform="translate(0,0)"/>
<path d="" fill="#2C2C30" transform="translate(0,0)"/>
<path d="" fill="#5DB2EE" transform="translate(0,0)"/>
<path d="" fill="#2C2C30" transform="translate(0,0)"/>
<path d="" fill="#FAFAFA" transform="translate(0,0)"/>
<path d="" fill="#858588" transform="translate(0,0)"/>
<path d="" fill="#646367" transform="translate(0,0)"/>
<path d="" fill="#FFFFFF" transform="translate(0,0)"/>
<path d="" fill="#2E2D30" transform="translate(0,0)"/>
<path d="" fill="#47334B" transform="translate(0,0)"/>
<path d="" fill="#161619" transform="translate(0,0)"/>
<path d="" fill="#ABACAC" transform="translate(0,0)"/>
<path d="" fill="#7F8488" transform="translate(0,0)"/>
<path d="" fill="#2C2C30" transform="translate(0,0)"/>
<path d="" fill="#161619" transform="translate(0,0)"/>
<path d="" fill="#FCFDFE" transform="translate(0,0)"/>
<path d="" fill="#FFFDFF" transform="translate(0,0)"/>
<path d="" fill="#947E5B" transform="translate(0,0)"/>
<path d="" fill="#646564" transform="translate(0,0)"/>
<path d="" fill="#FFFDFF" transform="translate(0,0)"/>
<path d="" fill="#FAFAFA" transform="translate(0,0)"/>
<path d="" fill="#666666" transform="translate(0,0)"/>
<path d="" fill="#2C2C30" transform="translate(0,0)"/>
<path d="" fill="#C2C5C6" transform="translate(0,0)"/>
<path d="" fill="#6C5F6D" transform="translate(0,0)"/>
<path d="" fill="#636363" transform="translate(0,0)"/>
<path d="" fill="#8C8A84" transform="translate(0,0)"/>
<path d="" fill="#E5BA96" transform="translate(0,0)"/>
<path d="" fill="#E2B896" transform="translate(0,0)"/>
<path d="" fill="#E6BA9B" transform="translate(0,0)"/>
<path d="" fill="#E5BB98" transform="translate(0,0)"/>
<path d="" fill="#6F573C" transform="translate(0,0)"/>
<path d="" fill="#8F7552" transform="translate(0,0)"/>
<path d="" fill="#E2B896" transform="translate(0,0)"/>
</svg>
