<?xml version="1.0" encoding="UTF-8"?>
<svg version="1.1" xmlns="http://www.w3.org/2000/svg" width="587" height="322">
<path d="M0 0 C0.66 0.33 1.32 0.66 2 1 C1.67 1.66 1.34 2.32 1 3 C2.98 2.67 4.96 2.34 7 2 C7.495 5.96 7.495 5.96 8 10 C8.33 9.01 8.66 8.02 9 7 C10.65 6.67 12.3 6.34 14 6 C13.34 6.33 12.68 6.66 12 7 C12.66 7.33 13.32 7.66 14 8 C12.40909091 19.59090909 12.40909091 19.59090909 10 22 C10 21.01 10 20.02 10 19 C9.34 19.66 8.68 20.32 8 21 C8.495 21.99 8.495 21.99 9 23 C8.5625 25.125 8.5625 25.125 8 27 C6.68 27 5.36 27 4 27 C2.88944338 29.22111323 2.66109042 30.9146224 2.375 33.375 C2.23191406 34.53128906 2.23191406 34.53128906 2.0859375 35.7109375 C1.9989412 38.02820253 2.32492708 39.79341838 3 42 C2.34 42 1.68 42 1 42 C1.495 43.98 1.495 43.98 2 46 C0.02 46.495 0.02 46.495 -2 47 C-1.67 48.32 -1.34 49.64 -1 51 C-1.61875 51.226875 -2.2375 51.45375 -2.875 51.6875 C-5.23871582 52.85311983 -5.23871582 52.85311983 -6 55.5625 C-6.33 56.366875 -6.66 57.17125 -7 58 C-9.125 58.8125 -9.125 58.8125 -11 59 C-10.67 59.99 -10.34 60.98 -10 62 C-10.99 62.495 -10.99 62.495 -12 63 C-12 62.01 -12 61.02 -12 60 C-12.66 60 -13.32 60 -14 60 C-13.67 60.99 -13.34 61.98 -13 63 C-13.99 63.495 -13.99 63.495 -15 64 C-15 63.34 -15 62.68 -15 62 C-16.65 63.32 -18.3 64.64 -20 66 C-20.04125 65.38125 -20.0825 64.7625 -20.125 64.125 C-20.85212993 61.67200118 -20.85212993 61.67200118 -23.875 60.6875 C-27.00881487 59.71811724 -27.00881487 59.71811724 -30 61 C-30.66 61.66 -31.32 62.32 -32 63 C-32.33 61.35 -32.66 59.7 -33 58 C-29.375 55 -29.375 55 -26 55 C-25.67 54.34 -25.34 53.68 -25 53 C-23.35 53.33 -21.7 53.66 -20 54 C-20.33 54.99 -20.66 55.98 -21 57 C-22.32 57 -23.64 57 -25 57 C-25 57.66 -25 58.32 -25 59 C-22.36 59 -19.72 59 -17 59 C-16.67 58.01 -16.34 57.02 -16 56 C-15.01 55.505 -15.01 55.505 -14 55 C-13.855625 54.360625 -13.71125 53.72125 -13.5625 53.0625 C-13 51 -13 51 -10 49 C-10.99 48.01 -11.98 47.02 -13 46 C-12.34 46 -11.68 46 -11 46 C-11 45.01 -11 44.02 -11 43 C-12.485 42.505 -12.485 42.505 -14 42 C-14 40.68 -14 39.36 -14 38 C-12.02 37.505 -12.02 37.505 -10 37 C-10.2475 35.3603125 -10.2475 35.3603125 -10.5 33.6875 C-11 30 -11 30 -11 27 C-12.65 27.66 -14.3 28.32 -16 29 C-16.33 27.68 -16.66 26.36 -17 25 C-15.68 24.34 -14.36 23.68 -13 23 C-13 22.34 -13 21.68 -13 21 C-11.68 20.67 -10.36 20.34 -9 20 C-9.825 19.54625 -10.65 19.0925 -11.5 18.625 C-12.325 18.08875 -13.15 17.5525 -14 17 C-14 16.34 -14 15.68 -14 15 C-14.99 14.67 -15.98 14.34 -17 14 C-15.68 13.67 -14.36 13.34 -13 13 C-13 12.34 -13 11.68 -13 11 C-12.01 11.33 -11.02 11.66 -10 12 C-10 11.01 -10 10.02 -10 9 C-9.6937566 7.66018514 -9.36548445 6.32488113 -9 5 C-8.34 5 -7.68 5 -7 5 C-6.67 3.68 -6.34 2.36 -6 1 C-4.7934375 1.0309375 -4.7934375 1.0309375 -3.5625 1.0625 C-1.06645115 1.29633621 -1.06645115 1.29633621 0 0 Z M-5 2 C-5 3.65 -5 5.3 -5 7 C-3.68 6.67 -2.36 6.34 -1 6 C-1.66 6 -2.32 6 -3 6 C-3 4.68 -3 3.36 -3 2 C-3.66 2 -4.32 2 -5 2 Z M-6 9 C-2 10 -2 10 -2 10 Z M8 12 C8.33 13.32 8.66 14.64 9 16 C9.33 15.34 9.66 14.68 10 14 C9.34 13.34 8.68 12.68 8 12 Z M1 16 C0.67 17.32 0.34 18.64 0 20 C0.66 20 1.32 20 2 20 C1.67 18.68 1.34 17.36 1 16 Z M4 16 C3.67 17.32 3.34 18.64 3 20 C3.66 18.68 4.32 17.36 5 16 C4.67 16 4.34 16 4 16 Z M-10 24 C-6 25 -6 25 -6 25 Z M-1 38 C-1 39.98 -1 41.96 -1 44 C-0.34 42.68 0.32 41.36 1 40 C0.34 39.34 -0.32 38.68 -1 38 Z M-9 45 C-8.01 45.99 -7.02 46.98 -6 48 C-6.33 47.01 -6.66 46.02 -7 45 C-7.66 45 -8.32 45 -9 45 Z M-6 48 C-6 48.99 -6 49.98 -6 51 C-5.67 50.34 -5.34 49.68 -5 49 C-4.34 48.67 -3.68 48.34 -3 48 C-3.99 48 -4.98 48 -6 48 Z " fill="#C3CFD8" transform="translate(87,154)"/>
<path d="M0 0 C0.66 0.33 1.32 0.66 2 1 C1.67 1.66 1.34 2.32 1 3 C2.98 2.67 4.96 2.34 7 2 C7.33 4.64 7.66 7.28 8 10 C8.33 9.01 8.66 8.02 9 7 C10.65 6.67 12.3 6.34 14 6 C13.01 6.495 13.01 6.495 12 7 C12.66 7.33 13.32 7.66 14 8 C12.40909091 19.59090909 12.40909091 19.59090909 10 22 C10 21.01 10 20.02 10 19 C9.34 19.66 8.68 20.32 8 21 C8.33 21.66 8.66 22.32 9 23 C8.5625 25.125 8.5625 25.125 8 27 C6.68 26.34 5.36 25.68 4 25 C3.91840426 20.83861737 4.01751476 17.0527516 5 13 C4.071875 13.2475 4.071875 13.2475 3.125 13.5 C1 14 1 14 -1 14 C-2.66965451 14.31802943 -4.33678518 14.64984951 -6 15 C-6 16.32 -6 17.64 -6 19 C-8.875 19.1875 -8.875 19.1875 -12 19 C-14 16 -14 16 -14 15 C-14.99 14.67 -15.98 14.34 -17 14 C-15.68 13.67 -14.36 13.34 -13 13 C-13 12.34 -13 11.68 -13 11 C-12.01 11.33 -11.02 11.66 -10 12 C-10 11.01 -10 10.02 -10 9 C-9.6937566 7.66018514 -9.36548445 6.32488113 -9 5 C-8.34 5 -7.68 5 -7 5 C-6.67 3.68 -6.34 2.36 -6 1 C-4.7934375 1.0309375 -4.7934375 1.0309375 -3.5625 1.0625 C-1.06645115 1.29633621 -1.06645115 1.29633621 0 0 Z M-5 2 C-5 3.65 -5 5.3 -5 7 C-3.68 6.67 -2.36 6.34 -1 6 C-1.66 6 -2.32 6 -3 6 C-3 4.68 -3 3.36 -3 2 C-3.66 2 -4.32 2 -5 2 Z M-6 9 C-2 10 -2 10 -2 10 Z M8 12 C8.33 13.32 8.66 14.64 9 16 C9.33 15.34 9.66 14.68 10 14 C9.34 13.34 8.68 12.68 8 12 Z " fill="#D2C6BE" transform="translate(87,154)"/>
<path d="M0 0 C0.433125 0.495 0.86625 0.99 1.3125 1.5 C2.99740483 3.33218192 2.99740483 3.33218192 6 3 C5.835 3.845625 5.67 4.69125 5.5 5.5625 C4.9100376 9.03954597 4.9100376 9.03954597 5 12.75 C5 16 5 16 4 18 C3.73044167 20.33189345 3.55492623 22.66321507 3.37890625 25.00390625 C3.25386719 25.66261719 3.12882812 26.32132813 3 27 C2.34 27.33 1.68 27.66 1 28 C1 23.38 1 18.76 1 14 C0.01 14.495 0.01 14.495 -1 15 C-1.34541851 17.33157492 -1.67794257 19.66508361 -2 22 C-2.66 22.99 -3.32 23.98 -4 25 C-4.66 25 -5.32 25 -6 25 C-6.02698189 23.37509046 -6.04638757 21.75005367 -6.0625 20.125 C-6.07410156 19.22007812 -6.08570312 18.31515625 -6.09765625 17.3828125 C-6 15 -6 15 -5 13 C-5.78375 13.20625 -6.5675 13.4125 -7.375 13.625 C-8.24125 13.74875 -9.1075 13.8725 -10 14 C-10.66 13.34 -11.32 12.68 -12 12 C-12 11.34 -12 10.68 -12 10 C-9.69 9.34 -7.38 8.68 -5 8 C-5 6.68 -5 5.36 -5 4 C-3.35 3.67 -1.7 3.34 0 3 C0 2.01 0 1.02 0 0 Z M2 5 C1.67 6.32 1.34 7.64 1 9 C1.66 9 2.32 9 3 9 C2.67 7.68 2.34 6.36 2 5 Z " fill="#ECD8CD" transform="translate(86,165)"/>
<path d="M0 0 C6.75 0.875 6.75 0.875 9 2 C9 2.66 9 3.32 9 4 C9.66 4 10.32 4 11 4 C10.67 4.66 10.34 5.32 10 6 C11.22809091 7.64555699 11.22809091 7.64555699 13 9 C15.16299211 8.77242269 15.16299211 8.77242269 17 8 C17 9.32 17 10.64 17 12 C14.69 12.33 12.38 12.66 10 13 C9.67 14.32 9.34 15.64 9 17 C8.401875 16.835 7.80375 16.67 7.1875 16.5 C4.88655664 15.8885876 4.88655664 15.8885876 2 16 C0.3125 14.6875 0.3125 14.6875 -1 13 C-1 12.01 -1 11.02 -1 10 C-0.01 9.34 0.98 8.68 2 8 C2 4.79604584 1.25664978 2.90600261 0 0 Z M5 3 C6 5 6 5 6 5 Z M6 9 C6.33 9.66 6.66 10.32 7 11 C7.99 10.67 8.98 10.34 10 10 C8.68 9.67 7.36 9.34 6 9 Z M6 11 C7 13 7 13 7 13 Z " fill="#5C93BE" transform="translate(506,227)"/>
<path d="M0 0 C1.65 0.33 3.3 0.66 5 1 C4.67 1.99 4.34 2.98 4 4 C2.68 4 1.36 4 0 4 C0 4.66 0 5.32 0 6 C2.64 6 5.28 6 8 6 C8.33 5.01 8.66 4.02 9 3 C10.32 3 11.64 3 13 3 C14.68698082 2.38655243 16.35965807 1.72904086 18 1 C18.33 1.66 18.66 2.32 19 3 C17.625 4.5 17.625 4.5 16 6 C15.34 6 14.68 6 14 6 C14.33 6.99 14.66 7.98 15 9 C14.01 9.495 14.01 9.495 13 10 C13 9.01 13 8.02 13 7 C12.34 7 11.68 7 11 7 C11.33 7.99 11.66 8.98 12 10 C11.01 10.495 11.01 10.495 10 11 C10 10.34 10 9.68 10 9 C8.35 10.32 6.7 11.64 5 13 C4.938125 12.071875 4.938125 12.071875 4.875 11.125 C4.14787007 8.67200118 4.14787007 8.67200118 1.125 7.6875 C-2.00881487 6.71811724 -2.00881487 6.71811724 -5 8 C-5.66 8.66 -6.32 9.32 -7 10 C-7.33 8.35 -7.66 6.7 -8 5 C-4.375 2 -4.375 2 -1 2 C-0.67 1.34 -0.34 0.68 0 0 Z " fill="#C6E0F1" transform="translate(62,207)"/>
<path d="M0 0 C1.76462683 3.08809695 2 4.23312136 2 8 C2.33 7.01 2.66 6.02 3 5 C4.65 4.67 6.3 4.34 8 4 C7.01 4.495 7.01 4.495 6 5 C6.66 5.33 7.32 5.66 8 6 C6.40909091 17.59090909 6.40909091 17.59090909 4 20 C4 19.01 4 18.02 4 17 C3.34 17.66 2.68 18.32 2 19 C2.33 19.66 2.66 20.32 3 21 C2.5625 23.125 2.5625 23.125 2 25 C0.68 24.34 -0.64 23.68 -2 23 C-2.125 19.625 -2.125 19.625 -2 16 C-1.34 15.34 -0.68 14.68 0 14 C-0.26676204 12.01508358 -0.26676204 12.01508358 -1 10 C-2 7 -2 7 -1.0625 4.8125 C-0.711875 4.214375 -0.36125 3.61625 0 3 C-0.66 2.67 -1.32 2.34 -2 2 C-1.34 1.34 -0.68 0.68 0 0 Z M2 10 C2.33 11.32 2.66 12.64 3 14 C3.33 13.34 3.66 12.68 4 12 C3.34 11.34 2.68 10.68 2 10 Z " fill="#706A70" transform="translate(93,156)"/>
<path d="M0 0 C1.18722656 0.18175781 1.18722656 0.18175781 2.3984375 0.3671875 C3.59339844 0.52574219 3.59339844 0.52574219 4.8125 0.6875 C5.45960938 0.87054688 6.10671875 1.05359375 6.7734375 1.2421875 C7.1034375 1.9021875 7.4334375 2.5621875 7.7734375 3.2421875 C6.4534375 3.5721875 5.1334375 3.9021875 3.7734375 4.2421875 C3.9590625 4.7784375 4.1446875 5.3146875 4.3359375 5.8671875 C4.88763074 8.86209364 4.37941194 11.27964579 3.7734375 14.2421875 C3.4434375 14.2421875 3.1134375 14.2421875 2.7734375 14.2421875 C2.6496875 13.2728125 2.5259375 12.3034375 2.3984375 11.3046875 C2.0890625 9.78875 2.0890625 9.78875 1.7734375 8.2421875 C1.1134375 7.9121875 0.4534375 7.5821875 -0.2265625 7.2421875 C-0.2265625 9.5521875 -0.2265625 11.8621875 -0.2265625 14.2421875 C-1.8765625 14.2421875 -3.5265625 14.2421875 -5.2265625 14.2421875 C-5.30810183 12.65972043 -5.36599807 11.07602477 -5.4140625 9.4921875 C-5.44886719 8.61046875 -5.48367188 7.72875 -5.51953125 6.8203125 C-5.09117138 3.05074562 -4.02470955 0.43777542 0 0 Z M-4.2265625 4.2421875 C-3.2265625 6.2421875 -3.2265625 6.2421875 -3.2265625 6.2421875 Z " fill="#808287" transform="translate(430.2265625,284.7578125)"/>
<path d="M0 0 C2.86331684 0.52060306 5.53522406 1.17167564 8.3125 2.0625 C12.45036388 3.11449929 15.75313177 3.14901292 20 3 C20 4.32 20 5.64 20 7 C17.89651926 7.19504458 15.79217415 7.38078496 13.6875 7.5625 C12.51574219 7.66691406 11.34398437 7.77132812 10.13671875 7.87890625 C7 8 7 8 4 7 C2.8125 4.9375 2.8125 4.9375 2 3 C1.34 3 0.68 3 0 3 C0 2.01 0 1.02 0 0 Z " fill="#E5BA99" transform="translate(161,117)"/>
<path d="M0 0 C0.66 0.33 1.32 0.66 2 1 C1.67 1.99 1.34 2.98 1 4 C1.99 4.33 2.98 4.66 4 5 C4 6.32 4 7.64 4 9 C0.37 9 -3.26 9 -7 9 C-7 7.02 -7 5.04 -7 3 C-5.5459375 2.5359375 -5.5459375 2.5359375 -4.0625 2.0625 C-1.15934208 1.30476658 -1.15934208 1.30476658 0 0 Z " fill="#858485" transform="translate(409,290)"/>
<path d="M0 0 C0.66 0 1.32 0 2 0 C2 4.95 2 9.9 2 15 C2.99 14.67 3.98 14.34 5 14 C5 14.99 5 15.98 5 17 C4.34 17 3.68 17 3 17 C3.33 18.32 3.66 19.64 4 21 C2.02 20.67 0.04 20.34 -2 20 C-1.33333333 13.33333333 -0.66666667 6.66666667 0 0 Z " fill="#9FC6E2" transform="translate(85,179)"/>
<path d="M0 0 C7.375 0 7.375 0 11 1 C10.67 1.99 10.34 2.98 10 4 C9.01 4 8.02 4 7 4 C7 5.32 7 6.64 7 8 C4.125 8.1875 4.125 8.1875 1 8 C-1 5 -1 5 -1 4 C-1.99 3.67 -2.98 3.34 -4 3 C-2.68 2.67 -1.36 2.34 0 2 C0 1.34 0 0.68 0 0 Z " fill="#979694" transform="translate(74,165)"/>
<path d="M0 0 C0.433125 0.495 0.86625 0.99 1.3125 1.5 C2.99740483 3.33218192 2.99740483 3.33218192 6 3 C6.66 3 7.32 3 8 3 C7.34 4.32 6.68 5.64 6 7 C5.34 7 4.68 7 4 7 C3.67 7.66 3.34 8.32 3 9 C0.2303041 9.72886734 -2.12862585 10 -5 10 C-4.6875 7.625 -4.6875 7.625 -4 5 C-3.01 4.34 -2.02 3.68 -1 3 C-0.67 2.01 -0.34 1.02 0 0 Z " fill="#ECD9CC" transform="translate(78,200)"/>
<path d="M0 0 C0.66 0.33 1.32 0.66 2 1 C1.67 1.66 1.34 2.32 1 3 C3.475 3.99 3.475 3.99 6 5 C5.67 6.32 5.34 7.64 5 9 C3.35 9.33 1.7 9.66 0 10 C-0.33 9.01 -0.66 8.02 -1 7 C-1.66 6.67 -2.32 6.34 -3 6 C-3 4.68 -3 3.36 -3 2 C-2.01 1.34 -1.02 0.68 0 0 Z " fill="#D9D7D5" transform="translate(87,154)"/>
<path d="M0 0 C1.65 0.33 3.3 0.66 5 1 C4.67 1.99 4.34 2.98 4 4 C2.68 4 1.36 4 0 4 C-0.33 4.66 -0.66 5.32 -1 6 C-2.32467746 6.6837045 -3.65863633 7.34964186 -5 8 C-5.66 8.66 -6.32 9.32 -7 10 C-7.33 8.35 -7.66 6.7 -8 5 C-4.375 2 -4.375 2 -1 2 C-0.67 1.34 -0.34 0.68 0 0 Z " fill="#C5DFF2" transform="translate(62,207)"/>
<path d="M0 0 C0.66 0 1.32 0 2 0 C2.125 6.75 2.125 6.75 1 9 C0.73044167 11.33189345 0.55492623 13.66321507 0.37890625 16.00390625 C0.25386719 16.66261719 0.12882812 17.32132813 0 18 C-0.66 18.33 -1.32 18.66 -2 19 C-2 14.38 -2 9.76 -2 5 C-2.66 4.67 -3.32 4.34 -4 4 C-2.68 3.67 -1.36 3.34 0 3 C0 2.01 0 1.02 0 0 Z " fill="#E5E8E7" transform="translate(89,174)"/>
<path d="M0 0 C0.66 0.33 1.32 0.66 2 1 C2 1.99 2 2.98 2 4 C-0.31 4.33 -2.62 4.66 -5 5 C-5.33 6.32 -5.66 7.64 -6 9 C-7.32 8.67 -8.64 8.34 -10 8 C-9.67 7.67 -9.34 7.34 -9 7 C-9.33 7 -9.66 7 -10 7 C-10 5.02 -10 3.04 -10 1 C-7 1 -7 1 -4.4375 1.625 C-3.633125 1.74875 -2.82875 1.8725 -2 2 C-1.34 1.34 -0.68 0.68 0 0 Z M-9 3 C-8 5 -8 5 -8 5 Z " fill="#DCE6EC" transform="translate(521,235)"/>
<path d="M0 0 C2.64 0 5.28 0 8 0 C8 0.99 8 1.98 8 3 C5.36 3.33 2.72 3.66 0 4 C0 4.66 0 5.32 0 6 C0.66 6.66 1.32 7.32 2 8 C1.01 8 0.02 8 -1 8 C-1.33 8.66 -1.66 9.32 -2 10 C-2.66 10 -3.32 10 -4 10 C-3.1875 7.0625 -3.1875 7.0625 -2 4 C-1.01 3.67 -0.02 3.34 1 3 C0.67 2.01 0.34 1.02 0 0 Z " fill="#87888C" transform="translate(572,199)"/>
<path d="M0 0 C3.63 0 7.26 0 11 0 C10.34 2.64 9.68 5.28 9 8 C8.34 8 7.68 8 7 8 C6 5 6 5 6 2 C4.35 2.66 2.7 3.32 1 4 C0.67 2.68 0.34 1.36 0 0 Z " fill="#7FC1EE" transform="translate(70,179)"/>
<path d="M0 0 C-1.98 2.97 -1.98 2.97 -4 6 C-4.33 5.34 -4.66 4.68 -5 4 C-6.98 4.66 -8.96 5.32 -11 6 C-12 4 -12 4 -11.375 1.9375 C-10 0 -10 0 -7.6875 -0.8125 C-4.90291857 -1.00677312 -2.69377709 -0.69268554 0 0 Z M-8 1 C-7.67 1.66 -7.34 2.32 -7 3 C-6.67 2.34 -6.34 1.68 -6 1 C-6.66 1 -7.32 1 -8 1 Z " fill="#5DB2ED" transform="translate(70,222)"/>
<path d="M0 0 C6.93 0 13.86 0 21 0 C21.33 0.66 21.66 1.32 22 2 C21.40985107 1.99476318 20.81970215 1.98952637 20.21166992 1.98413086 C17.53695745 1.96333953 14.86226199 1.95033299 12.1875 1.9375 C10.7943457 1.92493164 10.7943457 1.92493164 9.37304688 1.91210938 C8.48037109 1.90888672 7.58769531 1.90566406 6.66796875 1.90234375 C5.84578857 1.89710693 5.0236084 1.89187012 4.17651367 1.88647461 C1.81827404 1.91258476 1.81827404 1.91258476 -1 3 C-0.67 2.01 -0.34 1.02 0 0 Z " fill="#181819" transform="translate(57,307)"/>
<path d="M0 0 C0.99 0.33 1.98 0.66 3 1 C2.34 1 1.68 1 1 1 C1 2.65 1 4.3 1 6 C2.32 6 3.64 6 5 6 C4.67 6.99 4.34 7.98 4 9 C1.36 8.67 -1.28 8.34 -4 8 C-3.67 6.68 -3.34 5.36 -3 4 C-2.34 4 -1.68 4 -1 4 C-0.67 2.68 -0.34 1.36 0 0 Z " fill="#FDFBFB" transform="translate(81,155)"/>
<path d="M0 0 C1.91302307 3.26613695 2.35674661 5.99445248 2.625 9.75 C2.69976562 10.73484375 2.77453125 11.7196875 2.8515625 12.734375 C2.92503906 13.85585937 2.92503906 13.85585937 3 15 C2.01 14.67 1.02 14.34 0 14 C-0.625 12.125 -0.625 12.125 -1 10 C-1.33 9.01 -1.66 8.02 -2 7 C-1.0625 4.8125 -1.0625 4.8125 0 3 C-0.66 2.67 -1.32 2.34 -2 2 C-1.34 1.34 -0.68 0.68 0 0 Z " fill="#1E1B1C" transform="translate(93,156)"/>
<path d="M0 0 C0.91007813 0.00902344 1.82015625 0.01804688 2.7578125 0.02734375 C3.45648437 0.03894531 4.15515625 0.05054688 4.875 0.0625 C3.885 0.5575 3.885 0.5575 2.875 1.0625 C2.545 2.0525 2.215 3.0425 1.875 4.0625 C-0.6 3.0725 -0.6 3.0725 -3.125 2.0625 C-2.795 3.3825 -2.465 4.7025 -2.125 6.0625 C-3.115 6.0625 -4.105 6.0625 -5.125 6.0625 C-5.455 5.0725 -5.785 4.0825 -6.125 3.0625 C-6.455 2.4025 -6.785 1.7425 -7.125 1.0625 C-4.60024538 -0.19987731 -2.81299534 -0.03606404 0 0 Z " fill="#7CC1EF" transform="translate(523.125,227.9375)"/>
<path d="M0 0 C0.99 0.33 1.98 0.66 3 1 C3.99 0.67 4.98 0.34 6 0 C8.26171875 0.12109375 8.26171875 0.12109375 10.6875 0.4375 C11.49574219 0.53933594 12.30398438 0.64117187 13.13671875 0.74609375 C13.75160156 0.82988281 14.36648438 0.91367188 15 1 C14.67 1.66 14.34 2.32 14 3 C13.01 2.67 12.02 2.34 11 2 C10.67 2.66 10.34 3.32 10 4 C6.95799954 4 4.00467194 3.44513658 1 3 C0.67 2.01 0.34 1.02 0 0 Z " fill="#5D6D7D" transform="translate(390,222)"/>
<path d="M0 0 C1.32 0.33 2.64 0.66 4 1 C4.25 6.625 4.25 6.625 2 10 C1.34 10 0.68 10 0 10 C0 6.7 0 3.4 0 0 Z " fill="#EED5C5" transform="translate(80,180)"/>
<path d="M0 0 C0.99 0.33 1.98 0.66 3 1 C3 1.66 3 2.32 3 3 C3.66 3 4.32 3 5 3 C4.67 3.66 4.34 4.32 4 5 C4.99 5.99 5.98 6.98 7 8 C4.69 8 2.38 8 0 8 C0 5.36 0 2.72 0 0 Z " fill="#6EB8EB" transform="translate(512,228)"/>
<path d="M0 0 C7.59 0.33 15.18 0.66 23 1 C23 1.33 23 1.66 23 2 C15.08 2 7.16 2 -1 2 C-0.67 1.34 -0.34 0.68 0 0 Z " fill="#93CCF1" transform="translate(59,230)"/>
<path d="M0 0 C3 2 3 2 4 4 C3.5625 6.125 3.5625 6.125 3 8 C1.68 7.34 0.36 6.68 -1 6 C-1.042721 4.33388095 -1.04063832 2.66617115 -1 1 C-0.67 0.67 -0.34 0.34 0 0 Z " fill="#181616" transform="translate(92,173)"/>
<path d="M0 0 C2.97 0 5.94 0 9 0 C8.34 0.66 7.68 1.32 7 2 C7.33 2.66 7.66 3.32 8 4 C5.03 3.67 2.06 3.34 -1 3 C-0.67 2.01 -0.34 1.02 0 0 Z " fill="#72777E" transform="translate(388,286)"/>
<path d="M0 0 C0.99 0.33 1.98 0.66 3 1 C1 4 1 4 -2 5 C-1.67 5.99 -1.34 6.98 -1 8 C-1.99 8.495 -1.99 8.495 -3 9 C-3 8.01 -3 7.02 -3 6 C-3.66 5.67 -4.32 5.34 -5 5 C-3.35 3.35 -1.7 1.7 0 0 Z " fill="#74B9E9" transform="translate(78,208)"/>
<path d="M0 0 C3.63 0 7.26 0 11 0 C11.33 0.66 11.66 1.32 12 2 C4.19354839 3.35111663 4.19354839 3.35111663 1 2 C0.67 1.34 0.34 0.68 0 0 Z " fill="#5E6E7E" transform="translate(410,206)"/>
<path d="M0 0 C7.59 0.33 15.18 0.66 23 1 C23 1.33 23 1.66 23 2 C15.41 2 7.82 2 0 2 C0 1.34 0 0.68 0 0 Z " fill="#F5F6F6" transform="translate(178,256)"/>
<path d="M0 0 C0 1.32 0 2.64 0 4 C-2.375 4.625 -2.375 4.625 -5 5 C-5.66 4.34 -6.32 3.68 -7 3 C-7 2.34 -7 1.68 -7 1 C-4.50935112 0.31292445 -2.62113708 0 0 0 Z " fill="#FDFCFD" transform="translate(81,174)"/>
<path d="M0 0 C0.33 0 0.66 0 1 0 C1 1.98 1 3.96 1 6 C2.65 6.33 4.3 6.66 6 7 C5.01 7.33 4.02 7.66 3 8 C2.67 8.66 2.34 9.32 2 10 C1.01 9.67 0.02 9.34 -1 9 C-0.67 6.03 -0.34 3.06 0 0 Z " fill="#E4ECF0" transform="translate(82,193)"/>
<path d="M0 0 C0 1.32 0 2.64 0 4 C-1.65 4.33 -3.3 4.66 -5 5 C-5.33 3.68 -5.66 2.36 -6 1 C-4 0 -4 0 0 0 Z " fill="#968058" transform="translate(26,152)"/>
<path d="M0 0 C5.28 0.33 10.56 0.66 16 1 C16 1.33 16 1.66 16 2 C11.05 2.33 6.1 2.66 1 3 C0.67 2.01 0.34 1.02 0 0 Z " fill="#5F6E7E" transform="translate(388,206)"/>
<path d="M0 0 C1.54897985 3.0979597 0.83239539 6.26216552 0.5625 9.625 C0.51029297 10.33140625 0.45808594 11.0378125 0.40429688 11.765625 C0.27458793 13.51079987 0.13795046 15.25545725 0 17 C-0.33 17 -0.66 17 -1 17 C-1 15.35 -1 13.7 -1 12 C-1.66 11.67 -2.32 11.34 -3 11 C-2.34 11 -1.68 11 -1 11 C-1.01160156 10.28972656 -1.02320312 9.57945312 -1.03515625 8.84765625 C-1.04417969 7.92855469 -1.05320312 7.00945312 -1.0625 6.0625 C-1.07410156 5.14597656 -1.08570312 4.22945312 -1.09765625 3.28515625 C-1 1 -1 1 0 0 Z " fill="#5D5C5F" transform="translate(97,187)"/>
<path d="M0 0 C2.64 0.33 5.28 0.66 8 1 C7.01 2.485 7.01 2.485 6 4 C3.69 3.67 1.38 3.34 -1 3 C-0.67 2.01 -0.34 1.02 0 0 Z " fill="#EED7C9" transform="translate(26,186)"/>
<path d="M0 0 C0.66 0.33 1.32 0.66 2 1 C2 2.32 2 3.64 2 5 C0.35 5.33 -1.3 5.66 -3 6 C-3 4.68 -3 3.36 -3 2 C-2.01 1.34 -1.02 0.68 0 0 Z " fill="#FDFBFA" transform="translate(87,154)"/>
<path d="M0 0 C-0.66 1.32 -1.32 2.64 -2 4 C-2.66 4 -3.32 4 -4 4 C-4.33 4.66 -4.66 5.32 -5 6 C-5.99 5.34 -6.98 4.68 -8 4 C-4.5 0 -4.5 0 0 0 Z " fill="#EDF1F2" transform="translate(86,203)"/>
<path d="M0 0 C3 2 3 2 3.6875 4.125 C3.790625 4.74375 3.89375 5.3625 4 6 C2.35 5.67 0.7 5.34 -1 5 C-0.67 3.35 -0.34 1.7 0 0 Z " fill="#B1B1B2" transform="translate(146,244)"/>
<path d="M0 0 C1.32 0 2.64 0 4 0 C4.33 1.98 4.66 3.96 5 6 C2.525 5.01 2.525 5.01 0 4 C0 2.68 0 1.36 0 0 Z " fill="#D9DBDB" transform="translate(505,237)"/>
<path d="M0 0 C-2.35968744 2.09749995 -3.54616994 2.96905704 -6.75 3.1875 C-7.86375 3.0946875 -7.86375 3.0946875 -9 3 C-8.67 2.01 -8.34 1.02 -8 0 C-5.04215769 -1.22393475 -3.00272755 -0.96516243 0 0 Z " fill="#865E4B" transform="translate(547,215)"/>
<path d="M0 0 C0.66 0 1.32 0 2 0 C1.67 2.31 1.34 4.62 1 7 C0.34 7 -0.32 7 -1 7 C-2 4 -2 4 -1.0625 1.8125 C-0.5365625 0.9153125 -0.5365625 0.9153125 0 0 Z " fill="#6DB4E4" transform="translate(78,180)"/>
<path d="M0 0 C1.98 0 3.96 0 6 0 C5.01 0.495 5.01 0.495 4 1 C4 1.99 4 2.98 4 4 C2.35 3.67 0.7 3.34 -1 3 C-0.67 2.01 -0.34 1.02 0 0 Z " fill="#DFDED3" transform="translate(530,276)"/>
<path d="M0 0 C1.98 0.495 1.98 0.495 4 1 C3.67 1.99 3.34 2.98 3 4 C2.01 4 1.02 4 0 4 C-0.33 4.99 -0.66 5.98 -1 7 C-0.67 4.69 -0.34 2.38 0 0 Z " fill="#B7ADA4" transform="translate(81,165)"/>
<path d="M0 0 C2.31 0.33 4.62 0.66 7 1 C6.67 1.99 6.34 2.98 6 4 C5.01 3.34 4.02 2.68 3 2 C0.84725052 2.30840599 0.84725052 2.30840599 -1 3 C-0.67 2.01 -0.34 1.02 0 0 Z " fill="#677584" transform="translate(388,202)"/>
<path d="M0 0 C0.33 0.66 0.66 1.32 1 2 C-3.62 2 -8.24 2 -13 2 C-13 1.67 -13 1.34 -13 1 C-6.565 0.505 -6.565 0.505 0 0 Z " fill="#181819" transform="translate(49,304)"/>
<path d="M0 0 C2.9375 0.375 2.9375 0.375 6 1 C6.33 1.66 6.66 2.32 7 3 C5.68 3.33 4.36 3.66 3 4 C3 3.34 3 2.68 3 2 C1.68 2.33 0.36 2.66 -1 3 C-0.67 2.01 -0.34 1.02 0 0 Z " fill="#5DB2EE" transform="translate(79,214)"/>
<path d="M0 0 C0.99 0 1.98 0 3 0 C3.33 1.32 3.66 2.64 4 4 C1.69 4.33 -0.62 4.66 -3 5 C-2 3 -2 3 0 0 Z " fill="#818284" transform="translate(564,132)"/>
<path d="M0 0 C0.66 0.66 1.32 1.32 2 2 C1.01 2.495 1.01 2.495 0 3 C-1.13350534 5.01669827 -1.13350534 5.01669827 -2 7 C-2.66 6.34 -3.32 5.68 -4 5 C-3.34 5 -2.68 5 -2 5 C-2.33 3.68 -2.66 2.36 -3 1 C-2.01 0.67 -1.02 0.34 0 0 Z " fill="#DFEEF6" transform="translate(527,213)"/>
<path d="M0 0 C0.66 0 1.32 0 2 0 C2 0.99 2 1.98 2 3 C0.02 3.66 -1.96 4.32 -4 5 C-2 2 -2 2 0 0 Z " fill="#978059" transform="translate(22,148)"/>
<path d="M0 0 C4.29 0 8.58 0 13 0 C13 0.33 13 0.66 13 1 C8.71 1 4.42 1 0 1 C0 0.67 0 0.34 0 0 Z " fill="#181819" transform="translate(36,300)"/>
<path d="M0 0 C0 0.66 0 1.32 0 2 C-1.65 2 -3.3 2 -5 2 C-5 2.66 -5 3.32 -5 4 C-5.66 3.67 -6.32 3.34 -7 3 C-7 2.34 -7 1.68 -7 1 C-4.50935112 0.31292445 -2.62113708 0 0 0 Z " fill="#823659" transform="translate(376,275)"/>
<path d="M0 0 C0.66 0.66 1.32 1.32 2 2 C1.67 2.99 1.34 3.98 1 5 C-1.0625 5.6875 -1.0625 5.6875 -3 6 C-2 4 -1 2 0 0 Z " fill="#F3F1F4" transform="translate(53,216)"/>
<path d="M0 0 C1.32 0.66 2.64 1.32 4 2 C2.02 2.99 2.02 2.99 0 4 C-0.66 3.34 -1.32 2.68 -2 2 C-1.34 1.34 -0.68 0.68 0 0 Z " fill="#812D52" transform="translate(369,271)"/>
<path d="M0 0 C1.32 0 2.64 0 4 0 C4.33 1.32 4.66 2.64 5 4 C2.525 3.01 2.525 3.01 0 2 C0 1.34 0 0.68 0 0 Z " fill="#CDD2D5" transform="translate(47,226)"/>
<path d="M0 0 C1.32 1.65 2.64 3.3 4 5 C2.35 5 0.7 5 -1 5 C-0.67 3.35 -0.34 1.7 0 0 Z " fill="#64B5ED" transform="translate(81,220)"/>
<path d="M0 0 C0.99 0.66 1.98 1.32 3 2 C2.67 2.99 2.34 3.98 2 5 C1.34 4.34 0.68 3.68 0 3 C-0.99 2.67 -1.98 2.34 -3 2 C-2.01 1.34 -1.02 0.68 0 0 Z " fill="#828485" transform="translate(576,190)"/>
<path d="M0 0 C1.65 0 3.3 0 5 0 C5.33 0.66 5.66 1.32 6 2 C4.02 2 2.04 2 0 2 C0 1.34 0 0.68 0 0 Z " fill="#E8E4DF" transform="translate(518,276)"/>
<path d="M0 0 C0.66 0.66 1.32 1.32 2 2 C1.34 2 0.68 2 0 2 C-0.66 3.32 -1.32 4.64 -2 6 C-2 4.35 -2 2.7 -2 1 C-1.34 0.67 -0.68 0.34 0 0 Z " fill="#E7EAE9" transform="translate(58,199)"/>
<path d="M0 0 C0.66 0 1.32 0 2 0 C2.33 1.65 2.66 3.3 3 5 C1.68 5.33 0.36 5.66 -1 6 C-0.67 4.02 -0.34 2.04 0 0 Z " fill="#5EB3EE" transform="translate(70,193)"/>
<path d="M0 0 C2.31 0.66 4.62 1.32 7 2 C3.94736336 2.98120464 2.05263664 2.98120464 -1 2 C-0.67 1.34 -0.34 0.68 0 0 Z " fill="#FBFBFD" transform="translate(69,153)"/>
<path d="M0 0 C1.32 0.66 2.64 1.32 4 2 C2.02 2.99 2.02 2.99 0 4 C-0.33 3.34 -0.66 2.68 -1 2 C-0.67 1.34 -0.34 0.68 0 0 Z " fill="#5A6A7B" transform="translate(380,282)"/>
<path d="M0 0 C1.4540625 0.0309375 1.4540625 0.0309375 2.9375 0.0625 C1.125 1.125 1.125 1.125 -1.0625 2.0625 C-2.0525 1.7325 -3.0425 1.4025 -4.0625 1.0625 C-3.0625 0.0625 -3.0625 0.0625 0 0 Z " fill="#F9F9F9" transform="translate(566.0625,282.9375)"/>
<path d="M0 0 C1.32 0.33 2.64 0.66 4 1 C3.01 2.485 3.01 2.485 2 4 C1.34 2.68 0.68 1.36 0 0 Z " fill="#615B70" transform="translate(377,272)"/>
<path d="M0 0 C0.86625 0.556875 0.86625 0.556875 1.75 1.125 C-0.89 1.125 -3.53 1.125 -6.25 1.125 C-2.80384615 -1.09038462 -2.80384615 -1.09038462 0 0 Z " fill="#60B3EE" transform="translate(77.25,223.875)"/>
<path d="M0 0 C0.66 0 1.32 0 2 0 C1.67 1.32 1.34 2.64 1 4 C0.01 3.34 -0.98 2.68 -2 2 C-1.34 2 -0.68 2 0 2 C0 1.34 0 0.68 0 0 Z " fill="#F2E9E3" transform="translate(71,204)"/>
<path d="M0 0 C0.66 0.33 1.32 0.66 2 1 C1.67 1.66 1.34 2.32 1 3 C-0.65 2.67 -2.3 2.34 -4 2 C-3.34 1.67 -2.68 1.34 -2 1 C-1.34 1.33 -0.68 1.66 0 2 C0 1.34 0 0.68 0 0 Z " fill="#5C6C7C" transform="translate(394,197)"/>
<path d="M0 0 C0.66 0.33 1.32 0.66 2 1 C1.67 2.65 1.34 4.3 1 6 C0.34 5.67 -0.32 5.34 -1 5 C-0.67 3.35 -0.34 1.7 0 0 Z " fill="#8F7E67" transform="translate(57,192)"/>
<path d="M0 0 C1.65 0 3.3 0 5 0 C5 0.66 5 1.32 5 2 C3.02 2 1.04 2 -1 2 C-0.67 1.34 -0.34 0.68 0 0 Z " fill="#4A354D" transform="translate(372,189)"/>
<path d="M0 0 C0.78375 0.04125 1.5675 0.0825 2.375 0.125 C0.375 2.125 0.375 2.125 -2.25 2.25 C-3.03375 2.20875 -3.8175 2.1675 -4.625 2.125 C-2.625 0.125 -2.625 0.125 0 0 Z " fill="#848486" transform="translate(579.625,185.875)"/>
<path d="M0 0 C1.98 0.66 3.96 1.32 6 2 C6 2.33 6 2.66 6 3 C4.35 3 2.7 3 1 3 C0.67 2.01 0.34 1.02 0 0 Z " fill="#CACFD4" transform="translate(80,151)"/>
<path d="M0 0 C0.66 0.33 1.32 0.66 2 1 C2 1.66 2 2.32 2 3 C0.68 2.67 -0.64 2.34 -2 2 C-1.34 1.34 -0.68 0.68 0 0 Z " fill="#C1C2C3" transform="translate(563,289)"/>
<path d="M0 0 C1.98 0.99 1.98 0.99 4 2 C2.68 2 1.36 2 0 2 C0 1.34 0 0.68 0 0 Z " fill="#EDF5F8" transform="translate(86,240)"/>
<path d="M0 0 C2.475 0.495 2.475 0.495 5 1 C2 2 2 2 0 2 C0 1.34 0 0.68 0 0 Z " fill="#B8C9D9" transform="translate(40,238)"/>
<path d="M0 0 C0.66 0.66 1.32 1.32 2 2 C1.01 2.99 0.02 3.98 -1 5 C-1.33 4.34 -1.66 3.68 -2 3 C-1.34 3 -0.68 3 0 3 C0 2.01 0 1.02 0 0 Z " fill="#454348" transform="translate(571,188)"/>
<path d="M0 0 C0.33 0 0.66 0 1 0 C1 1.65 1 3.3 1 5 C0.34 4.67 -0.32 4.34 -1 4 C-0.67 2.68 -0.34 1.36 0 0 Z " fill="#686368" transform="translate(97,177)"/>
<path d="M0 0 C1.2065625 0.0309375 1.2065625 0.0309375 2.4375 0.0625 C0.5625 1.125 0.5625 1.125 -1.5625 2.0625 C-2.2225 1.7325 -2.8825 1.4025 -3.5625 1.0625 C-2.5625 0.0625 -2.5625 0.0625 0 0 Z " fill="#FAFAFB" transform="translate(79.5625,148.9375)"/>
<path d="M0 0 C0.66 0 1.32 0 2 0 C2 1.32 2 2.64 2 4 C1.34 4 0.68 4 0 4 C0 2.68 0 1.36 0 0 Z " fill="#868586" transform="translate(571,132)"/>
<path d="M0 0 C1.65 0 3.3 0 5 0 C3.02 0.99 3.02 0.99 1 2 C0.67 1.34 0.34 0.68 0 0 Z " fill="#82868B" transform="translate(401,290)"/>
<path d="M0 0 C1.32 0.66 2.64 1.32 4 2 C2.35 2 0.7 2 -1 2 C-0.67 1.34 -0.34 0.68 0 0 Z " fill="#7D8184" transform="translate(573,284)"/>
<path d="M0 0 C1.65 0 3.3 0 5 0 C5 0.66 5 1.32 5 2 C3.35 1.67 1.7 1.34 0 1 C0 0.67 0 0.34 0 0 Z " fill="#F5F5F5" transform="translate(536,278)"/>
<path d="M0 0 C0.99 0.33 1.98 0.66 3 1 C2.67 1.99 2.34 2.98 2 4 C1.34 3.67 0.68 3.34 0 3 C0 2.01 0 1.02 0 0 Z " fill="#C0C8D0" transform="translate(42,231)"/>
<path d="M0 0 C0.99 0 1.98 0 3 0 C3.33 0.99 3.66 1.98 4 3 C2.68 2.34 1.36 1.68 0 1 C0 0.67 0 0.34 0 0 Z " fill="#D6D5D7" transform="translate(45,230)"/>
<path d="M0 0 C2.475 0.495 2.475 0.495 5 1 C3.02 1.99 3.02 1.99 1 3 C0.67 2.01 0.34 1.02 0 0 Z " fill="#5E6E7E" transform="translate(381,222)"/>
<path d="M0 0 C0.99 0 1.98 0 3 0 C3 0.99 3 1.98 3 3 C2.34 3 1.68 3 1 3 C0.67 2.01 0.34 1.02 0 0 Z " fill="#FBFBFA" transform="translate(87,220)"/>
<path d="M0 0 C1.32 0 2.64 0 4 0 C3.67 0.99 3.34 1.98 3 3 C2.01 2.01 1.02 1.02 0 0 Z " fill="#F3F1F4" transform="translate(56,219)"/>
<path d="M0 0 C0.33 1.32 0.66 2.64 1 4 C0.01 3.67 -0.98 3.34 -2 3 C-2 2.34 -2 1.68 -2 1 C-1.34 0.67 -0.68 0.34 0 0 Z " fill="#E6E4E5" transform="translate(49,216)"/>
<path d="M0 0 C0.99 0.33 1.98 0.66 3 1 C1.02 1.99 1.02 1.99 -1 3 C-0.67 2.01 -0.34 1.02 0 0 Z " fill="#F7F9F9" transform="translate(60,203)"/>
<path d="M0 0 C0.33 0.99 0.66 1.98 1 3 C-0.32 2.34 -1.64 1.68 -3 1 C-2.01 0.67 -1.02 0.34 0 0 Z " fill="#CED0D2" transform="translate(568,200)"/>
<path d="M0 0 C0.66 0.99 1.32 1.98 2 3 C1.01 3.33 0.02 3.66 -1 4 C-0.67 2.68 -0.34 1.36 0 0 Z " fill="#98979C" transform="translate(99,183)"/>
<path d="M0 0 C0.99 0.33 1.98 0.66 3 1 C3 1.66 3 2.32 3 3 C2.01 3 1.02 3 0 3 C0 2.01 0 1.02 0 0 Z " fill="#7C8084" transform="translate(580,180)"/>
<path d="M0 0 C0.66 0 1.32 0 2 0 C2 0.66 2 1.32 2 2 C2.99 2.33 3.98 2.66 5 3 C3.68 3 2.36 3 1 3 C0.67 2.01 0.34 1.02 0 0 Z " fill="#7297AA" transform="translate(65,179)"/>
<path d="M0 0 C0.66 0.66 1.32 1.32 2 2 C1.67 2.66 1.34 3.32 1 4 C0.34 4 -0.32 4 -1 4 C-0.67 2.68 -0.34 1.36 0 0 Z " fill="#978368" transform="translate(63,166)"/>
<path d="M0 0 C0.66 0.99 1.32 1.98 2 3 C0.35 3 -1.3 3 -3 3 C-2.01 2.67 -1.02 2.34 0 2 C0 1.34 0 0.68 0 0 Z " fill="#FBFBFC" transform="translate(74,160)"/>
<path d="M0 0 C1.98 0.495 1.98 0.495 4 1 C2.35 1.33 0.7 1.66 -1 2 C-0.67 1.34 -0.34 0.68 0 0 Z " fill="#CBCFD4" transform="translate(74,152)"/>
<path d="M0 0 C0.66 0.66 1.32 1.32 2 2 C0.68 2.33 -0.64 2.66 -2 3 C-1.34 2.67 -0.68 2.34 0 2 C0 1.34 0 0.68 0 0 Z " fill="#E5E5E6" transform="translate(85,319)"/>
<path d="M0 0 C0.33 0 0.66 0 1 0 C1 1.98 1 3.96 1 6 C0.67 6 0.34 6 0 6 C0 4.02 0 2.04 0 0 Z " fill="#858588" transform="translate(431,293)"/>
<path d="M0 0 C0.66 0 1.32 0 2 0 C2 0.99 2 1.98 2 3 C1.34 3 0.68 3 0 3 C0 2.01 0 1.02 0 0 Z " fill="#845E70" transform="translate(372,288)"/>
<path d="M0 0 C1.98 0.495 1.98 0.495 4 1 C2.35 1.33 0.7 1.66 -1 2 C-0.67 1.34 -0.34 0.68 0 0 Z " fill="#5B6B7B" transform="translate(423,285)"/>
<path d="M0 0 C0.99 0 1.98 0 3 0 C2.67 0.99 2.34 1.98 2 3 C1.34 2.01 0.68 1.02 0 0 Z " fill="#5B6A7A" transform="translate(391,271)"/>
<path d="M0 0 C0.33 0.99 0.66 1.98 1 3 C0.01 3 -0.98 3 -2 3 C-1.34 2.67 -0.68 2.34 0 2 C0 1.34 0 0.68 0 0 Z " fill="#201E24" transform="translate(201,259)"/>
<path d="M0 0 C0.99 0 1.98 0 3 0 C3 0.66 3 1.32 3 2 C2.01 2 1.02 2 0 2 C0 1.34 0 0.68 0 0 Z " fill="#F3F2F4" transform="translate(148,251)"/>
<path d="M0 0 C1.98 0 3.96 0 6 0 C6 0.33 6 0.66 6 1 C4.02 1 2.04 1 0 1 C0 0.67 0 0.34 0 0 Z " fill="#848386" transform="translate(221,236)"/>
<path d="M0 0 C0.99 0.33 1.98 0.66 3 1 C3 1.66 3 2.32 3 3 C2.34 3 1.68 3 1 3 C0.67 2.01 0.34 1.02 0 0 Z " fill="#5FB3EE" transform="translate(67,226)"/>
<path d="M0 0 C1.32 0 2.64 0 4 0 C4 0.66 4 1.32 4 2 C2.68 1.34 1.36 0.68 0 0 Z " fill="#5B6A7A" transform="translate(385,215)"/>
<path d="M0 0 C0.66 0 1.32 0 2 0 C2.33 0.99 2.66 1.98 3 3 C2.01 3.495 2.01 3.495 1 4 C0.67 2.68 0.34 1.36 0 0 Z " fill="#5B6B7B" transform="translate(402,211)"/>
<path d="M0 0 C0.99 0.495 0.99 0.495 2 1 C2 1.99 2 2.98 2 4 C1.34 3.67 0.68 3.34 0 3 C0 2.01 0 1.02 0 0 Z " fill="#6C6B6D" transform="translate(571,183)"/>
<path d="M0 0 C0.66 0.66 1.32 1.32 2 2 C1.01 2.33 0.02 2.66 -1 3 C-0.67 2.01 -0.34 1.02 0 0 Z " fill="#EFDACB" transform="translate(52,183)"/>
<path d="M0 0 C0.99 0.33 1.98 0.66 3 1 C1.68 1.33 0.36 1.66 -1 2 C-0.67 1.34 -0.34 0.68 0 0 Z " fill="#7C8083" transform="translate(577,183)"/>
<path d="M0 0 C0 0.66 0 1.32 0 2 C-1.32 1.67 -2.64 1.34 -4 1 C-2 0 -2 0 0 0 Z " fill="#FDFDFE" transform="translate(68,160)"/>
<path d="M0 0 C0.66 0.66 1.32 1.32 2 2 C1.01 2 0.02 2 -1 2 C-0.67 1.34 -0.34 0.68 0 0 Z " fill="#D3D4D4" transform="translate(80,319)"/>
<path d="M0 0 C0.66 0.66 1.32 1.32 2 2 C1.01 2 0.02 2 -1 2 C-0.67 1.34 -0.34 0.68 0 0 Z " fill="#D3D4D4" transform="translate(77,319)"/>
<path d="M0 0 C0.66 0.66 1.32 1.32 2 2 C1.01 2 0.02 2 -1 2 C-0.67 1.34 -0.34 0.68 0 0 Z " fill="#D3D4D4" transform="translate(74,319)"/>
<path d="M0 0 C0.66 0.66 1.32 1.32 2 2 C1.01 2 0.02 2 -1 2 C-0.67 1.34 -0.34 0.68 0 0 Z " fill="#D3D4D4" transform="translate(71,319)"/>
<path d="M0 0 C0.66 0.66 1.32 1.32 2 2 C1.01 2 0.02 2 -1 2 C-0.67 1.34 -0.34 0.68 0 0 Z " fill="#D3D4D4" transform="translate(68,319)"/>
<path d="M0 0 C0.66 0.66 1.32 1.32 2 2 C1.01 2 0.02 2 -1 2 C-0.67 1.34 -0.34 0.68 0 0 Z " fill="#D3D4D4" transform="translate(65,319)"/>
<path d="M0 0 C0.66 0.66 1.32 1.32 2 2 C1.01 2 0.02 2 -1 2 C-0.67 1.34 -0.34 0.68 0 0 Z " fill="#D3D4D4" transform="translate(62,319)"/>
<path d="M0 0 C0.66 0.66 1.32 1.32 2 2 C1.01 2 0.02 2 -1 2 C-0.67 1.34 -0.34 0.68 0 0 Z " fill="#D3D4D4" transform="translate(59,319)"/>
<path d="M0 0 C0.66 0.66 1.32 1.32 2 2 C1.01 2 0.02 2 -1 2 C-0.67 1.34 -0.34 0.68 0 0 Z " fill="#D3D4D4" transform="translate(56,319)"/>
<path d="M0 0 C0.66 0.66 1.32 1.32 2 2 C1.01 2 0.02 2 -1 2 C-0.67 1.34 -0.34 0.68 0 0 Z " fill="#D3D4D4" transform="translate(53,319)"/>
<path d="M0 0 C0.66 0.66 1.32 1.32 2 2 C1.01 2 0.02 2 -1 2 C-0.67 1.34 -0.34 0.68 0 0 Z " fill="#D3D4D4" transform="translate(50,319)"/>
<path d="M0 0 C0.66 0.66 1.32 1.32 2 2 C1.01 2 0.02 2 -1 2 C-0.67 1.34 -0.34 0.68 0 0 Z " fill="#D3D4D4" transform="translate(47,319)"/>
<path d="M0 0 C0.66 0.66 1.32 1.32 2 2 C1.01 2 0.02 2 -1 2 C-0.67 1.34 -0.34 0.68 0 0 Z " fill="#D3D4D4" transform="translate(44,319)"/>
<path d="M0 0 C0.66 0.66 1.32 1.32 2 2 C1.01 2 0.02 2 -1 2 C-0.67 1.34 -0.34 0.68 0 0 Z " fill="#D3D4D4" transform="translate(41,319)"/>
<path d="M0 0 C0.66 0.66 1.32 1.32 2 2 C1.01 2 0.02 2 -1 2 C-0.67 1.34 -0.34 0.68 0 0 Z " fill="#D3D4D4" transform="translate(38,319)"/>
<path d="M0 0 C0.66 0.66 1.32 1.32 2 2 C1.01 2 0.02 2 -1 2 C-0.67 1.34 -0.34 0.68 0 0 Z " fill="#D3D4D4" transform="translate(35,319)"/>
<path d="M0 0 C0.66 0.66 1.32 1.32 2 2 C1.01 2 0.02 2 -1 2 C-0.67 1.34 -0.34 0.68 0 0 Z " fill="#D3D4D4" transform="translate(32,319)"/>
<path d="M0 0 C0.66 0.66 1.32 1.32 2 2 C1.01 2 0.02 2 -1 2 C-0.67 1.34 -0.34 0.68 0 0 Z " fill="#D3D4D4" transform="translate(29,319)"/>
<path d="M0 0 C0.66 0.66 1.32 1.32 2 2 C1.01 2 0.02 2 -1 2 C-0.67 1.34 -0.34 0.68 0 0 Z " fill="#D3D4D4" transform="translate(26,319)"/>
<path d="M0 0 C0.66 0.66 1.32 1.32 2 2 C1.01 2 0.02 2 -1 2 C-0.67 1.34 -0.34 0.68 0 0 Z " fill="#D3D4D4" transform="translate(23,319)"/>
<path d="M0 0 C0.66 0.66 1.32 1.32 2 2 C1.01 2 0.02 2 -1 2 C-0.67 1.34 -0.34 0.68 0 0 Z " fill="#D3D4D4" transform="translate(20,319)"/>
<path d="M0 0 C0.66 0.66 1.32 1.32 2 2 C1.01 2 0.02 2 -1 2 C-0.67 1.34 -0.34 0.68 0 0 Z " fill="#D3D4D4" transform="translate(17,319)"/>
<path d="M0 0 C0.66 0.66 1.32 1.32 2 2 C1.01 2 0.02 2 -1 2 C-0.67 1.34 -0.34 0.68 0 0 Z " fill="#D3D4D4" transform="translate(14,319)"/>
<path d="M0 0 C0.66 0.66 1.32 1.32 2 2 C1.01 2 0.02 2 -1 2 C-0.67 1.34 -0.34 0.68 0 0 Z " fill="#D3D4D4" transform="translate(11,319)"/>
<path d="M0 0 C1.32 0.33 2.64 0.66 4 1 C3.01 1.33 2.02 1.66 1 2 C0.67 1.34 0.34 0.68 0 0 Z " fill="#2B2B2D" transform="translate(50,301)"/>
<path d="M0 0 C0.99 0 1.98 0 3 0 C3 0.66 3 1.32 3 2 C2.01 2 1.02 2 0 2 C0 1.34 0 0.68 0 0 Z " fill="#83797F" transform="translate(384,289)"/>
<path d="M0 0 C1.65 0 3.3 0 5 0 C5 0.33 5 0.66 5 1 C3.35 1 1.7 1 0 1 C0 0.67 0 0.34 0 0 Z " fill="#FFFFFF" transform="translate(517,285)"/>
<path d="M0 0 C0.66 0 1.32 0 2 0 C2 0.66 2 1.32 2 2 C1.01 1.67 0.02 1.34 -1 1 C-0.67 0.67 -0.34 0.34 0 0 Z " fill="#EFEDEA" transform="translate(515,276)"/>
<path d="M0 0 C1.32 0.33 2.64 0.66 4 1 C2.68 1.33 1.36 1.66 0 2 C0 1.34 0 0.68 0 0 Z " fill="#606D7A" transform="translate(390,269)"/>
<path d="M0 0 C1.65 0 3.3 0 5 0 C5 0.33 5 0.66 5 1 C3.35 1 1.7 1 0 1 C0 0.67 0 0.34 0 0 Z " fill="#1A1A1F" transform="translate(209,264)"/>
<path d="M0 0 C0.99 0 1.98 0 3 0 C3 0.66 3 1.32 3 2 C2.01 1.67 1.02 1.34 0 1 C0 0.67 0 0.34 0 0 Z " fill="#5EB3EE" transform="translate(83,226)"/>
<path d="M0 0 C0 0.99 0 1.98 0 3 C-0.66 2.34 -1.32 1.68 -2 1 C-1.34 0.67 -0.68 0.34 0 0 Z " fill="#F1F0F2" transform="translate(52,222)"/>
<path d="M0 0 C0.66 0.99 1.32 1.98 2 3 C1.01 2.67 0.02 2.34 -1 2 C-0.67 1.34 -0.34 0.68 0 0 Z " fill="#6CB6E9" transform="translate(72,220)"/>
<path d="M0 0 C0.99 0.33 1.98 0.66 3 1 C2.01 1.33 1.02 1.66 0 2 C0 1.34 0 0.68 0 0 Z " fill="#5A6A7A" transform="translate(412,220)"/>
<path d="M0 0 C0.66 0.33 1.32 0.66 2 1 C1.67 1.66 1.34 2.32 1 3 C0.34 2.34 -0.32 1.68 -1 1 C-0.67 0.67 -0.34 0.34 0 0 Z " fill="#5B697A" transform="translate(401,219)"/>
<path d="M0 0 C1.98 0.99 1.98 0.99 4 2 C2.68 2 1.36 2 0 2 C0 1.34 0 0.68 0 0 Z " fill="#667585" transform="translate(380,216)"/>
<path d="M0 0 C0.99 0 1.98 0 3 0 C3 0.66 3 1.32 3 2 C2.01 1.67 1.02 1.34 0 1 C0 0.67 0 0.34 0 0 Z " fill="#5B6A7A" transform="translate(396,215)"/>
<path d="M0 0 C0.66 0 1.32 0 2 0 C2 0.99 2 1.98 2 3 C1.34 2.67 0.68 2.34 0 2 C0 1.34 0 0.68 0 0 Z " fill="#5B697A" transform="translate(416,214)"/>
<path d="M0 0 C1.32 0.33 2.64 0.66 4 1 C3.01 1.495 3.01 1.495 2 2 C1.34 1.34 0.68 0.68 0 0 Z " fill="#8F9EAB" transform="translate(392,212)"/>
<path d="M0 0 C1.32 0 2.64 0 4 0 C3.67 0.66 3.34 1.32 3 2 C2.01 1.34 1.02 0.68 0 0 Z " fill="#5D6D7D" transform="translate(423,207)"/>
<path d="M0 0 C0 0.99 0 1.98 0 3 C-0.66 2.67 -1.32 2.34 -2 2 C-1.34 1.34 -0.68 0.68 0 0 Z " fill="#F2F2F3" transform="translate(69,203)"/>
<path d="M0 0 C1.65 0 3.3 0 5 0 C5 0.33 5 0.66 5 1 C3.35 1 1.7 1 0 1 C0 0.67 0 0.34 0 0 Z " fill="#868587" transform="translate(576,203)"/>
<path d="M0 0 C0.66 0 1.32 0 2 0 C2.33 0.99 2.66 1.98 3 3 C2.34 3 1.68 3 1 3 C0.67 2.01 0.34 1.02 0 0 Z " fill="#5A6A7A" transform="translate(381,203)"/>
<path d="M0 0 C0 0.99 0 1.98 0 3 C-0.66 2.67 -1.32 2.34 -2 2 C-1.34 1.34 -0.68 0.68 0 0 Z " fill="#777D82" transform="translate(575,194)"/>
<path d="M0 0 C1.65 0 3.3 0 5 0 C5 0.33 5 0.66 5 1 C3.35 1 1.7 1 0 1 C0 0.67 0 0.34 0 0 Z " fill="#5EB2EE" transform="translate(63,196)"/>
<path d="M0 0 C0.99 0.495 0.99 0.495 2 1 C1.67 1.99 1.34 2.98 1 4 C0.67 2.68 0.34 1.36 0 0 Z " fill="#7197AE" transform="translate(60,192)"/>
<path d="M0 0 C1.32 0.33 2.64 0.66 4 1 C2.68 1.33 1.36 1.66 0 2 C0 1.34 0 0.68 0 0 Z " fill="#5A6A7A" transform="translate(384,193)"/>
<path d="M0 0 C0.33 0.99 0.66 1.98 1 3 C0.01 3.495 0.01 3.495 -1 4 C-0.67 2.68 -0.34 1.36 0 0 Z " fill="#2D2D30" transform="translate(569,187)"/>
<path d="M0 0 C1.98 0.99 1.98 0.99 4 2 C2.68 1.67 1.36 1.34 0 1 C0 0.67 0 0.34 0 0 Z " fill="#90ABB4" transform="translate(66,185)"/>
<path d="M0 0 C0.99 0.495 0.99 0.495 2 1 C2 1.66 2 2.32 2 3 C1.34 3 0.68 3 0 3 C0 2.01 0 1.02 0 0 Z " fill="#2D2C30" transform="translate(568,183)"/>
<path d="M0 0 C0.66 0 1.32 0 2 0 C2.33 0.99 2.66 1.98 3 3 C2.34 3 1.68 3 1 3 C0.67 2.01 0.34 1.02 0 0 Z " fill="#87756A" transform="translate(29,183)"/>
<path d="M0 0 C0.66 0 1.32 0 2 0 C2 0.99 2 1.98 2 3 C1.34 2.67 0.68 2.34 0 2 C0 1.34 0 0.68 0 0 Z " fill="#DFEFF4" transform="translate(476,181)"/>
<path d="M0 0 C0.66 0.66 1.32 1.32 2 2 C0.68 1.67 -0.64 1.34 -2 1 C-1.34 0.67 -0.68 0.34 0 0 Z " fill="#4E3D50" transform="translate(370,180)"/>
<path d="M0 0 C1.65 0 3.3 0 5 0 C5 0.33 5 0.66 5 1 C3.35 1 1.7 1 0 1 C0 0.67 0 0.34 0 0 Z " fill="#4B354D" transform="translate(362,172)"/>
<path d="M0 0 C0.66 0.33 1.32 0.66 2 1 C1.01 1 0.02 1 -1 1 C-0.67 0.67 -0.34 0.34 0 0 Z " fill="#F8F7F8" transform="translate(561,303)"/>
<path d="M0 0 C0.66 0.66 1.32 1.32 2 2 C1.01 2.495 1.01 2.495 0 3 C0 2.01 0 1.02 0 0 Z " fill="#737C84" transform="translate(570,288)"/>
<path d="M0 0 C0.99 0.33 1.98 0.66 3 1 C2.01 1 1.02 1 0 1 C0 0.67 0 0.34 0 0 Z " fill="#B4B495" transform="translate(514,273)"/>
<path d="M0 0 C0.66 0.66 1.32 1.32 2 2 C1.01 1.67 0.02 1.34 -1 1 C-0.67 0.67 -0.34 0.34 0 0 Z " fill="#5D6C7C" transform="translate(384,270)"/>
<path d="M0 0 C4 1 4 1 4 1 Z " fill="#8C4F65" transform="translate(372,259)"/>
<path d="M0 0 C0.66 0 1.32 0 2 0 C2 0.66 2 1.32 2 2 C1.34 2 0.68 2 0 2 C0 1.34 0 0.68 0 0 Z " fill="#FDFCFA" transform="translate(88,251)"/>
<path d="M0 0 C1.485 0.99 1.485 0.99 3 2 C2.01 2 1.02 2 0 2 C0 1.34 0 0.68 0 0 Z " fill="#F5F9FD" transform="translate(523,236)"/>
<path d="M0 0 C0.66 0 1.32 0 2 0 C2 0.66 2 1.32 2 2 C1.34 2 0.68 2 0 2 C0 1.34 0 0.68 0 0 Z " fill="#F1F1F2" transform="translate(65,233)"/>
<path d="M0 0 C0.99 0.33 1.98 0.66 3 1 C2.01 1 1.02 1 0 1 C0 0.67 0 0.34 0 0 Z " fill="#60B3EE" transform="translate(79,226)"/>
<path d="M0 0 C0.99 0.33 1.98 0.66 3 1 C2.01 1 1.02 1 0 1 C0 0.67 0 0.34 0 0 Z " fill="#5A6A7A" transform="translate(405,220)"/>
<path d="M0 0 C0.99 0.33 1.98 0.66 3 1 C2.01 1 1.02 1 0 1 C0 0.67 0 0.34 0 0 Z " fill="#8B6356" transform="translate(539,213)"/>
<path d="M0 0 C0.99 0 1.98 0 3 0 C2.67 0.66 2.34 1.32 2 2 C1.34 1.34 0.68 0.68 0 0 Z " fill="#737E89" transform="translate(398,202)"/>
<path d="M0 0 C1 4 1 4 1 4 Z " fill="#858484" transform="translate(586,192)"/>
<path d="M0 0 C0.99 0.33 1.98 0.66 3 1 C2.01 1 1.02 1 0 1 C0 0.67 0 0.34 0 0 Z " fill="#2D2C30" transform="translate(555,194)"/>
<path d="M0 0 C0.99 0 1.98 0 3 0 C2.67 0.66 2.34 1.32 2 2 C1.34 1.34 0.68 0.68 0 0 Z " fill="#E9D2C3" transform="translate(35,187)"/>
<path d="M0 0 C0.99 0.33 1.98 0.66 3 1 C2.01 1 1.02 1 0 1 C0 0.67 0 0.34 0 0 Z " fill="#949393" transform="translate(64,165)"/>
<path d="M0 0 C0.99 0 1.98 0 3 0 C2.67 0.66 2.34 1.32 2 2 C1.34 1.34 0.68 0.68 0 0 Z " fill="#FDFCFD" transform="translate(70,149)"/>
<path d="M0 0 C3 1 3 1 3 1 Z " fill="#FFFDFF" transform="translate(0,320)"/>
<path d="M0 0 C0.33 0.66 0.66 1.32 1 2 C0.34 1.67 -0.32 1.34 -1 1 C-0.67 0.67 -0.34 0.34 0 0 Z " fill="#676667" transform="translate(9,318)"/>
<path d="M0 0 C0.66 0 1.32 0 2 0 C1.67 0.66 1.34 1.32 1 2 C0.67 1.34 0.34 0.68 0 0 Z " fill="#1E1E22" transform="translate(3,316)"/>
<path d="M0 0 C0.99 0.495 0.99 0.495 2 1 C1.01 1.495 1.01 1.495 0 2 C0 1.34 0 0.68 0 0 Z " fill="#161616" transform="translate(8,315)"/>
<path d="M0 0 C0.66 0 1.32 0 2 0 C1.67 0.66 1.34 1.32 1 2 C0.67 1.34 0.34 0.68 0 0 Z " fill="#161616" transform="translate(5,315)"/>
<path d="M0 0 C3 1 3 1 3 1 Z " fill="#181819" transform="translate(81,302)"/>
<path d="M0 0 C0.66 0.66 1.32 1.32 2 2 C1.34 2 0.68 2 0 2 C0 1.34 0 0.68 0 0 Z " fill="#812550" transform="translate(374,286)"/>
<path d="M0 0 C0.66 0 1.32 0 2 0 C1.67 0.66 1.34 1.32 1 2 C0.67 1.34 0.34 0.68 0 0 Z " fill="#7E1F48" transform="translate(365,286)"/>
<path d="M0 0 C0.99 0.495 0.99 0.495 2 1 C1.01 1.495 1.01 1.495 0 2 C0 1.34 0 0.68 0 0 Z " fill="#596A7A" transform="translate(384,285)"/>
<path d="M0 0 C0.66 0.66 1.32 1.32 2 2 C1.34 2 0.68 2 0 2 C0 1.34 0 0.68 0 0 Z " fill="#7E254D" transform="translate(372,280)"/>
<path d="M0 0 C0.66 0.66 1.32 1.32 2 2 C1.34 2 0.68 2 0 2 C0 1.34 0 0.68 0 0 Z " fill="#5B6A7A" transform="translate(385,277)"/>
<path d="M0 0 C0.99 0.495 0.99 0.495 2 1 C1.01 1.495 1.01 1.495 0 2 C0 1.34 0 0.68 0 0 Z " fill="#606D7C" transform="translate(386,269)"/>
<path d="" fill="#5B6A7A" transform="translate(0,0)"/>
<path d="" fill="#606F7E" transform="translate(0,0)"/>
<path d="M0 0 C3 1 3 1 3 1 Z " fill="#888586" transform="translate(221,238)"/>
<path d="M0 0 C3 1 3 1 3 1 Z " fill="#F7F7F8" transform="translate(77,236)"/>
<path d="M0 0 C0.66 0.66 1.32 1.32 2 2 C1.34 2 0.68 2 0 2 C0 1.34 0 0.68 0 0 Z " fill="#E3E4E7" transform="translate(43,235)"/>
<path d="M0 0 C0.99 0.495 0.99 0.495 2 1 C1.01 1.495 1.01 1.495 0 2 C0 1.34 0 0.68 0 0 Z " fill="#60B2E9" transform="translate(529,234)"/>
<path d="M0 0 C0.99 0.495 0.99 0.495 2 1 C1.01 1.495 1.01 1.495 0 2 C0 1.34 0 0.68 0 0 Z " fill="#5F6E7E" transform="translate(399,232)"/>
<path d="M0 0 C3 1 3 1 3 1 Z " fill="#EAEAED" transform="translate(53,231)"/>
<path d="M0 0 C0.66 0.66 1.32 1.32 2 2 C1.34 2 0.68 2 0 2 C0 1.34 0 0.68 0 0 Z " fill="#75BCEC" transform="translate(529,228)"/>
<path d="M0 0 C3 1 3 1 3 1 Z " fill="#5FB3EE" transform="translate(77,228)"/>
<path d="M0 0 C0.99 0.495 0.99 0.495 2 1 C1.01 1.495 1.01 1.495 0 2 C0 1.34 0 0.68 0 0 Z " fill="#8E9CA9" transform="translate(398,227)"/>
<path d="M0 0 C0.66 0.66 1.32 1.32 2 2 C1.34 2 0.68 2 0 2 C0 1.34 0 0.68 0 0 Z " fill="#A4C2DA" transform="translate(43,225)"/>
<path d="M0 0 C3 1 3 1 3 1 Z " fill="#E0DFE1" transform="translate(52,225)"/>
<path d="M0 0 C3 1 3 1 3 1 Z " fill="#5F6E7E" transform="translate(412,223)"/>
<path d="M0 0 C3 1 3 1 3 1 Z " fill="#5CB2EE" transform="translate(525,222)"/>
<path d="M0 0 C0.66 0.66 1.32 1.32 2 2 C1.34 2 0.68 2 0 2 C0 1.34 0 0.68 0 0 Z " fill="#5A697A" transform="translate(416,220)"/>
<path d="" fill="#5D6C7C" transform="translate(0,0)"/>
<path d="M0 0 C0.99 0.495 0.99 0.495 2 1 C1.01 1.495 1.01 1.495 0 2 C0 1.34 0 0.68 0 0 Z " fill="#E1DBDA" transform="translate(46,220)"/>
<path d="M0 0 C0.66 0.66 1.32 1.32 2 2 C1.34 2 0.68 2 0 2 C0 1.34 0 0.68 0 0 Z " fill="#A0D3F6" transform="translate(529,219)"/>
<path d="M0 0 C0.33 0.66 0.66 1.32 1 2 C0.34 1.67 -0.32 1.34 -1 1 C-0.67 0.67 -0.34 0.34 0 0 Z " fill="#687684" transform="translate(410,218)"/>
<path d="M0 0 C0.99 0.495 0.99 0.495 2 1 C1.01 1.495 1.01 1.495 0 2 C0 1.34 0 0.68 0 0 Z " fill="#5D6C7D" transform="translate(396,219)"/>
<path d="M0 0 C0.99 0.495 0.99 0.495 2 1 C1.01 1.495 1.01 1.495 0 2 C0 1.34 0 0.68 0 0 Z " fill="#F0EDEB" transform="translate(529,216)"/>
<path d="M0 0 C0.66 0 1.32 0 2 0 C1.67 0.66 1.34 1.32 1 2 C0.67 1.34 0.34 0.68 0 0 Z " fill="#5CB2EE" transform="translate(79,217)"/>
<path d="M0 0 C3 1 3 1 3 1 Z " fill="#596979" transform="translate(409,216)"/>
<path d="M0 0 C0.66 0.66 1.32 1.32 2 2 C1.34 2 0.68 2 0 2 C0 1.34 0 0.68 0 0 Z " fill="#F2F1F4" transform="translate(64,215)"/>
<path d="" fill="#8A6954" transform="translate(0,0)"/>
<path d="M0 0 C0.99 0.495 0.99 0.495 2 1 C1.01 1.495 1.01 1.495 0 2 C0 1.34 0 0.68 0 0 Z " fill="#5B6B7B" transform="translate(404,215)"/>
<path d="M0 0 C3 1 3 1 3 1 Z " fill="#FCFBF9" transform="translate(87,215)"/>
<path d="M0 0 C0.33 0.66 0.66 1.32 1 2 C0.34 1.67 -0.32 1.34 -1 1 C-0.67 0.67 -0.34 0.34 0 0 Z " fill="#5D6C7D" transform="translate(382,213)"/>
<path d="M0 0 C0.99 0.495 0.99 0.495 2 1 C1.01 1.495 1.01 1.495 0 2 C0 1.34 0 0.68 0 0 Z " fill="#FDFCFB" transform="translate(564,208)"/>
<path d="M0 0 C3 1 3 1 3 1 Z " fill="#BDBDBE" transform="translate(98,209)"/>
<path d="" fill="#5B6B7C" transform="translate(0,0)"/>
<path d="M0 0 C0.99 0.495 0.99 0.495 2 1 C1.01 1.495 1.01 1.495 0 2 C0 1.34 0 0.68 0 0 Z " fill="#5C6C7C" transform="translate(428,207)"/>
<path d="M0 0 C0.99 0.495 0.99 0.495 2 1 C1.01 1.495 1.01 1.495 0 2 C0 1.34 0 0.68 0 0 Z " fill="#5D6C7C" transform="translate(407,207)"/>
<path d="M0 0 C0.66 0 1.32 0 2 0 C1.67 0.66 1.34 1.32 1 2 C0.67 1.34 0.34 0.68 0 0 Z " fill="#F4F2F3" transform="translate(67,207)"/>
<path d="M0 0 C0.99 0.495 0.99 0.495 2 1 C1.01 1.495 1.01 1.495 0 2 C0 1.34 0 0.68 0 0 Z " fill="#8DA1B6" transform="translate(562,205)"/>
<path d="" fill="#17181C" transform="translate(0,0)"/>
<path d="" fill="#D8D2CA" transform="translate(0,0)"/>
<path d="M0 0 C0.33 0.66 0.66 1.32 1 2 C0.34 1.67 -0.32 1.34 -1 1 C-0.67 0.67 -0.34 0.34 0 0 Z " fill="#627280" transform="translate(387,197)"/>
<path d="M0 0 C3 1 3 1 3 1 Z " fill="#788795" transform="translate(386,195)"/>
<path d="M0 0 C0.99 0.495 0.99 0.495 2 1 C1.01 1.495 1.01 1.495 0 2 C0 1.34 0 0.68 0 0 Z " fill="#FDFCFD" transform="translate(100,189)"/>
<path d="M0 0 C3 1 3 1 3 1 Z " fill="#5CB2EE" transform="translate(72,190)"/>
<path d="M0 0 C0.66 0 1.32 0 2 0 C1.67 0.66 1.34 1.32 1 2 C0.67 1.34 0.34 0.68 0 0 Z " fill="#967C5C" transform="translate(57,189)"/>
<path d="M0 0 C3 1 3 1 3 1 Z " fill="#586878" transform="translate(382,185)"/>
<path d="M0 0 C3 1 3 1 3 1 Z " fill="#AD9C7E" transform="translate(62,184)"/>
<path d="M0 0 C0.66 0 1.32 0 2 0 C1.67 0.66 1.34 1.32 1 2 C0.67 1.34 0.34 0.68 0 0 Z " fill="#575D6F" transform="translate(377,183)"/>
<path d="M0 0 C0.66 0.66 1.32 1.32 2 2 C1.34 2 0.68 2 0 2 C0 1.34 0 0.68 0 0 Z " fill="#F7F4F1" transform="translate(50,181)"/>
<path d="M0 0 C0.66 0.66 1.32 1.32 2 2 C1.34 2 0.68 2 0 2 C0 1.34 0 0.68 0 0 Z " fill="#828487" transform="translate(572,179)"/>
<path d="M0 0 C0.66 0 1.32 0 2 0 C1.67 0.66 1.34 1.32 1 2 C0.67 1.34 0.34 0.68 0 0 Z " fill="#8B7556" transform="translate(63,175)"/>
<path d="M0 0 C0.99 0.495 0.99 0.495 2 1 C1.01 1.495 1.01 1.495 0 2 C0 1.34 0 0.68 0 0 Z " fill="#FEFDFE" transform="translate(74,149)"/>
<path d="M0 0 C3 1 3 1 3 1 Z " fill="#858485" transform="translate(557,134)"/>
<path d="M0 0 C0.66 0.66 1.32 1.32 2 2 C1.34 2 0.68 2 0 2 C0 1.34 0 0.68 0 0 Z " fill="#858485" transform="translate(560,132)"/>
<path d="M0 0 C0.33 0.66 0.66 1.32 1 2 C0.34 1.67 -0.32 1.34 -1 1 C-0.67 0.67 -0.34 0.34 0 0 Z " fill="#E8E8EB" transform="translate(481,0)"/>
<path d="M0 0 C2 1 2 1 2 1 Z " fill="#555356" transform="translate(1,317)"/>
<path d="" fill="#625860" transform="translate(0,0)"/>
<path d="M0 0 C2 1 2 1 2 1 Z " fill="#161516" transform="translate(54,302)"/>
<path d="" fill="#858588" transform="translate(0,0)"/>
<path d="M0 0 C2 1 2 1 2 1 Z " fill="#7E8384" transform="translate(574,289)"/>
<path d="" fill="#7F1F48" transform="translate(0,0)"/>
<path d="M0 0 C2 1 2 1 2 1 Z " fill="#757D86" transform="translate(577,284)"/>
<path d="" fill="#F5F5F4" transform="translate(0,0)"/>
<path d="" fill="#576879" transform="translate(0,0)"/>
<path d="M0 0 C2 1 2 1 2 1 Z " fill="#7D2850" transform="translate(369,281)"/>
<path d="M0 0 C2 1 2 1 2 1 Z " fill="#7D2850" transform="translate(365,281)"/>
<path d="" fill="#7E204A" transform="translate(0,0)"/>
<path d="" fill="#5B6979" transform="translate(0,0)"/>
<path d="M0 0 C2 1 2 1 2 1 Z " fill="#B4B495" transform="translate(519,274)"/>
<path d="" fill="#5B6979" transform="translate(0,0)"/>
<path d="M0 0 C2 1 2 1 2 1 Z " fill="#5B6B7B" transform="translate(395,272)"/>
<path d="" fill="#5A697A" transform="translate(0,0)"/>
<path d="M0 0 C2 1 2 1 2 1 Z " fill="#1A1A1F" transform="translate(216,264)"/>
<path d="M0 0 C2 1 2 1 2 1 Z " fill="#1A1A1F" transform="translate(207,263)"/>
<path d="M0 0 C2 1 2 1 2 1 Z " fill="#1A1A1F" transform="translate(198,263)"/>
<path d="" fill="#1A1A1F" transform="translate(0,0)"/>
<path d="" fill="#1A1A1F" transform="translate(0,0)"/>
<path d="" fill="#1A1A1F" transform="translate(0,0)"/>
<path d="" fill="#1A1A1F" transform="translate(0,0)"/>
<path d="" fill="#1A1A1F" transform="translate(0,0)"/>
<path d="" fill="#1A1A1F" transform="translate(0,0)"/>
<path d="" fill="#1A1A1F" transform="translate(0,0)"/>
<path d="" fill="#1A1A1F" transform="translate(0,0)"/>
<path d="" fill="#1A1A1F" transform="translate(0,0)"/>
<path d="" fill="#1A1A1F" transform="translate(0,0)"/>
<path d="M0 0 C2 1 2 1 2 1 Z " fill="#1A1A1F" transform="translate(176,262)"/>
<path d="" fill="#7D2850" transform="translate(0,0)"/>
<path d="M0 0 C2 1 2 1 2 1 Z " fill="#141415" transform="translate(206,260)"/>
<path d="M0 0 C2 1 2 1 2 1 Z " fill="#FEFDFD" transform="translate(85,260)"/>
<path d="M0 0 C2 1 2 1 2 1 Z " fill="#6B4761" transform="translate(377,259)"/>
<path d="M0 0 C2 1 2 1 2 1 Z " fill="#443D45" transform="translate(198,259)"/>
<path d="M0 0 C2 1 2 1 2 1 Z " fill="#443D45" transform="translate(195,259)"/>
<path d="M0 0 C2 1 2 1 2 1 Z " fill="#443D45" transform="translate(192,259)"/>
<path d="M0 0 C2 1 2 1 2 1 Z " fill="#443D45" transform="translate(189,259)"/>
<path d="M0 0 C2 1 2 1 2 1 Z " fill="#443D45" transform="translate(186,259)"/>
<path d="M0 0 C2 1 2 1 2 1 Z " fill="#443D45" transform="translate(183,259)"/>
<path d="M0 0 C2 1 2 1 2 1 Z " fill="#443D45" transform="translate(180,259)"/>
<path d="M0 0 C2 1 2 1 2 1 Z " fill="#F3F1F4" transform="translate(148,255)"/>
<path d="M0 0 C2 1 2 1 2 1 Z " fill="#B4B495" transform="translate(526,254)"/>
<path d="M0 0 C2 1 2 1 2 1 Z " fill="#B4B590" transform="translate(525,251)"/>
<path d="M0 0 C2 1 2 1 2 1 Z " fill="#FCFBFB" transform="translate(88,249)"/>
<path d="M0 0 C2 1 2 1 2 1 Z " fill="#FCFBFB" transform="translate(88,247)"/>
<path d="M0 0 C2 1 2 1 2 1 Z " fill="#B6B590" transform="translate(512,245)"/>
<path d="" fill="#B9B8A6" transform="translate(0,0)"/>
<path d="M0 0 C2 1 2 1 2 1 Z " fill="#FCFBFB" transform="translate(88,245)"/>
<path d="M0 0 C2 1 2 1 2 1 Z " fill="#908C78" transform="translate(516,243)"/>
<path d="M0 0 C2 1 2 1 2 1 Z " fill="#5B6A7A" transform="translate(400,241)"/>
<path d="M0 0 C2 1 2 1 2 1 Z " fill="#5A6A7B" transform="translate(396,240)"/>
<path d="" fill="#F4F1F3" transform="translate(0,0)"/>
<path d="" fill="#F0F1F2" transform="translate(0,0)"/>
<path d="" fill="#ECF5FB" transform="translate(0,0)"/>
<path d="M0 0 C2 1 2 1 2 1 Z " fill="#F3F1F4" transform="translate(45,237)"/>
<path d="" fill="#F5F5F5" transform="translate(0,0)"/>
<path d="M0 0 C2 1 2 1 2 1 Z " fill="#EEEDEF" transform="translate(74,235)"/>
<path d="M0 0 C2 1 2 1 2 1 Z " fill="#EEEDEF" transform="translate(77,234)"/>
<path d="" fill="#EFEEED" transform="translate(0,0)"/>
<path d="" fill="#77B6E5" transform="translate(0,0)"/>
<path d="" fill="#5EB2ED" transform="translate(0,0)"/>
<path d="M0 0 C2 1 2 1 2 1 Z " fill="#59697A" transform="translate(395,232)"/>
<path d="" fill="#5BB2EE" transform="translate(0,0)"/>
<path d="" fill="#63B1E7" transform="translate(0,0)"/>
<path d="" fill="#59697A" transform="translate(0,0)"/>
<path d="M0 0 C2 1 2 1 2 1 Z " fill="#BBCEDE" transform="translate(43,229)"/>
<path d="M0 0 C2 1 2 1 2 1 Z " fill="#60B3EE" transform="translate(74,228)"/>
<path d="M0 0 C2 1 2 1 2 1 Z " fill="#60B3EE" transform="translate(71,228)"/>
<path d="M0 0 C2 1 2 1 2 1 Z " fill="#60B3EE" transform="translate(76,226)"/>
<path d="M0 0 C2 1 2 1 2 1 Z " fill="#60B3EE" transform="translate(73,226)"/>
<path d="M0 0 C2 1 2 1 2 1 Z " fill="#60B3EE" transform="translate(70,226)"/>
<path d="M0 0 C2 1 2 1 2 1 Z " fill="#596979" transform="translate(406,224)"/>
<path d="M0 0 C2 1 2 1 2 1 Z " fill="#F0F4F4" transform="translate(56,224)"/>
<path d="" fill="#A6ADB8" transform="translate(0,0)"/>
<path d="M0 0 C2 1 2 1 2 1 Z " fill="#5CB2EE" transform="translate(536,221)"/>
<path d="" fill="#68BCF2" transform="translate(0,0)"/>
<path d="M0 0 C2 1 2 1 2 1 Z " fill="#596979" transform="translate(409,221)"/>
<path d="" fill="#67B4E8" transform="translate(0,0)"/>
<path d="" fill="#758392" transform="translate(0,0)"/>
<path d="M0 0 C2 1 2 1 2 1 Z " fill="#5B6A7A" transform="translate(388,219)"/>
<path d="" fill="#F5F7F7" transform="translate(0,0)"/>
<path d="M0 0 C2 1 2 1 2 1 Z " fill="#596979" transform="translate(406,216)"/>
<path d="" fill="#5A697A" transform="translate(0,0)"/>
<path d="M0 0 C2 1 2 1 2 1 Z " fill="#D2DEE9" transform="translate(46,214)"/>
<path d="M0 0 C2 1 2 1 2 1 Z " fill="#8A6B56" transform="translate(536,213)"/>
<path d="" fill="#5B6B7B" transform="translate(0,0)"/>
<path d="M0 0 C2 1 2 1 2 1 Z " fill="#62707F" transform="translate(397,213)"/>
<path d="M0 0 C2 1 2 1 2 1 Z " fill="#FAFAF9" transform="translate(88,213)"/>
<path d="M0 0 C2 1 2 1 2 1 Z " fill="#856552" transform="translate(529,212)"/>
<path d="M0 0 C2 1 2 1 2 1 Z " fill="#5A6A7B" transform="translate(399,210)"/>
<path d="M0 0 C2 1 2 1 2 1 Z " fill="#878685" transform="translate(578,206)"/>
<path d="" fill="#E3DED8" transform="translate(0,0)"/>
<path d="M0 0 C2 1 2 1 2 1 Z " fill="#8B959D" transform="translate(395,202)"/>
<path d="M0 0 C2 1 2 1 2 1 Z " fill="#59697A" transform="translate(387,200)"/>
<path d="" fill="#2C2C30" transform="translate(0,0)"/>
<path d="" fill="#8D654E" transform="translate(0,0)"/>
<path d="" fill="#5D6D7D" transform="translate(0,0)"/>
<path d="M0 0 C2 1 2 1 2 1 Z " fill="#2E2D30" transform="translate(568,196)"/>
<path d="M0 0 C2 1 2 1 2 1 Z " fill="#383536" transform="translate(554,196)"/>
<path d="" fill="#7C7B7C" transform="translate(0,0)"/>
<path d="M0 0 C2 1 2 1 2 1 Z " fill="#60B2ED" transform="translate(64,194)"/>
<path d="M0 0 C2 1 2 1 2 1 Z " fill="#868585" transform="translate(582,193)"/>
<path d="M0 0 C2 1 2 1 2 1 Z " fill="#7B8389" transform="translate(572,193)"/>
<path d="M0 0 C2 1 2 1 2 1 Z " fill="#5B6B7B" transform="translate(378,193)"/>
<path d="M0 0 C2 1 2 1 2 1 Z " fill="#2C2C30" transform="translate(554,192)"/>
<path d="M0 0 C2 1 2 1 2 1 Z " fill="#514256" transform="translate(373,186)"/>
<path d="M0 0 C2 1 2 1 2 1 Z " fill="#4A3A4F" transform="translate(375,185)"/>
<path d="" fill="#66B3E8" transform="translate(0,0)"/>
<path d="M0 0 C2 1 2 1 2 1 Z " fill="#4A384E" transform="translate(375,182)"/>
<path d="" fill="#F9F4F0" transform="translate(0,0)"/>
<path d="M0 0 C2 1 2 1 2 1 Z " fill="#7F8286" transform="translate(577,181)"/>
<path d="M0 0 C2 1 2 1 2 1 Z " fill="#7F8286" transform="translate(574,181)"/>
<path d="M0 0 C2 1 2 1 2 1 Z " fill="#2D2C30" transform="translate(567,180)"/>
<path d="M0 0 C2 1 2 1 2 1 Z " fill="#D2C6AE" transform="translate(33,180)"/>
<path d="M0 0 C2 1 2 1 2 1 Z " fill="#828488" transform="translate(577,179)"/>
<path d="M0 0 C2 1 2 1 2 1 Z " fill="#927B56" transform="translate(60,179)"/>
<path d="M0 0 C2 1 2 1 2 1 Z " fill="#49334C" transform="translate(374,178)"/>
<path d="M0 0 C2 1 2 1 2 1 Z " fill="#BEBEBE" transform="translate(69,173)"/>
<path d="" fill="#FFFDFF" transform="translate(0,0)"/>
<path d="" fill="#FAFAFA" transform="translate(0,0)"/>
<path d="" fill="#959698" transform="translate(0,0)"/>
<path d="" fill="#FFFDFF" transform="translate(0,0)"/>
<path d="M0 0 C2 1 2 1 2 1 Z " fill="#8F8F90" transform="translate(67,165)"/>
<path d="" fill="#FDFDFE" transform="translate(0,0)"/>
<path d="M0 0 C2 1 2 1 2 1 Z " fill="#FFFDFD" transform="translate(72,159)"/>
<path d="" fill="#FCFCFB" transform="translate(0,0)"/>
<path d="M0 0 C2 1 2 1 2 1 Z " fill="#FCFCFB" transform="translate(66,155)"/>
<path d="M0 0 C2 1 2 1 2 1 Z " fill="#C2C5C7" transform="translate(83,151)"/>
<path d="M0 0 C2 1 2 1 2 1 Z " fill="#FCFDFE" transform="translate(67,148)"/>
<path d="" fill="#858484" transform="translate(0,0)"/>
<path d="" fill="#858484" transform="translate(0,0)"/>
<path d="" fill="#FFFCF9" transform="translate(0,0)"/>
<path d="M0 0 C2 1 2 1 2 1 Z " fill="#F3F1F4" transform="translate(219,82)"/>
<path d="M0 0 C2 1 2 1 2 1 Z " fill="#D9D9D9" transform="translate(480,3)"/>
<path d="" fill="#FFFDFD" transform="translate(0,0)"/>
<path d="" fill="#646367" transform="translate(0,0)"/>
<path d="" fill="#2F3035" transform="translate(0,0)"/>
<path d="" fill="#161619" transform="translate(0,0)"/>
<path d="" fill="#686769" transform="translate(0,0)"/>
<path d="" fill="#19191B" transform="translate(0,0)"/>
<path d="" fill="#181818" transform="translate(0,0)"/>
<path d="" fill="#181818" transform="translate(0,0)"/>
<path d="" fill="#1A1A1B" transform="translate(0,0)"/>
<path d="" fill="#161619" transform="translate(0,0)"/>
<path d="" fill="#646564" transform="translate(0,0)"/>
<path d="" fill="#414141" transform="translate(0,0)"/>
<path d="" fill="#19191B" transform="translate(0,0)"/>
<path d="" fill="#181818" transform="translate(0,0)"/>
<path d="" fill="#19191B" transform="translate(0,0)"/>
<path d="" fill="#181818" transform="translate(0,0)"/>
<path d="" fill="#19191B" transform="translate(0,0)"/>
<path d="" fill="#181818" transform="translate(0,0)"/>
<path d="" fill="#19191B" transform="translate(0,0)"/>
<path d="" fill="#181818" transform="translate(0,0)"/>
<path d="" fill="#19191B" transform="translate(0,0)"/>
<path d="" fill="#181818" transform="translate(0,0)"/>
<path d="" fill="#19191B" transform="translate(0,0)"/>
<path d="" fill="#181818" transform="translate(0,0)"/>
<path d="" fill="#1A1A1B" transform="translate(0,0)"/>
<path d="" fill="#3C3B3F" transform="translate(0,0)"/>
<path d="" fill="#F8FAFA" transform="translate(0,0)"/>
<path d="" fill="#888688" transform="translate(0,0)"/>
<path d="" fill="#FAFAFA" transform="translate(0,0)"/>
<path d="" fill="#FCFDFE" transform="translate(0,0)"/>
<path d="" fill="#888688" transform="translate(0,0)"/>
<path d="" fill="#858588" transform="translate(0,0)"/>
<path d="" fill="#888688" transform="translate(0,0)"/>
<path d="" fill="#878787" transform="translate(0,0)"/>
<path d="" fill="#808085" transform="translate(0,0)"/>
<path d="" fill="#888584" transform="translate(0,0)"/>
<path d="" fill="#888584" transform="translate(0,0)"/>
<path d="" fill="#F1F1F2" transform="translate(0,0)"/>
<path d="" fill="#7F1F48" transform="translate(0,0)"/>
<path d="" fill="#F5F5F4" transform="translate(0,0)"/>
<path d="" fill="#7F8488" transform="translate(0,0)"/>
<path d="" fill="#FFFFFF" transform="translate(0,0)"/>
<path d="" fill="#5A6A7B" transform="translate(0,0)"/>
<path d="" fill="#7F1F48" transform="translate(0,0)"/>
<path d="" fill="#7F1F48" transform="translate(0,0)"/>
<path d="" fill="#7F1F48" transform="translate(0,0)"/>
<path d="" fill="#7F1F48" transform="translate(0,0)"/>
<path d="" fill="#7E204A" transform="translate(0,0)"/>
<path d="" fill="#7F1F48" transform="translate(0,0)"/>
<path d="" fill="#7E204A" transform="translate(0,0)"/>
<path d="" fill="#7D3057" transform="translate(0,0)"/>
<path d="" fill="#5C6C7C" transform="translate(0,0)"/>
<path d="" fill="#7E204A" transform="translate(0,0)"/>
<path d="" fill="#5A6A7B" transform="translate(0,0)"/>
<path d="" fill="#F8FAFA" transform="translate(0,0)"/>
<path d="" fill="#5A6A7B" transform="translate(0,0)"/>
<path d="" fill="#5B6979" transform="translate(0,0)"/>
<path d="" fill="#7E204A" transform="translate(0,0)"/>
<path d="" fill="#904E6D" transform="translate(0,0)"/>
<path d="" fill="#617080" transform="translate(0,0)"/>
<path d="" fill="#7E204A" transform="translate(0,0)"/>
<path d="" fill="#5A6A7B" transform="translate(0,0)"/>
<path d="" fill="#5A6A7B" transform="translate(0,0)"/>
<path d="" fill="#576878" transform="translate(0,0)"/>
<path d="" fill="#5B6979" transform="translate(0,0)"/>
<path d="" fill="#5B6979" transform="translate(0,0)"/>
<path d="" fill="#7E204A" transform="translate(0,0)"/>
<path d="" fill="#18191E" transform="translate(0,0)"/>
<path d="" fill="#5C6C7C" transform="translate(0,0)"/>
<path d="" fill="#1C1C21" transform="translate(0,0)"/>
<path d="" fill="#1C1C21" transform="translate(0,0)"/>
<path d="" fill="#1C1C21" transform="translate(0,0)"/>
<path d="" fill="#18191E" transform="translate(0,0)"/>
<path d="" fill="#18191E" transform="translate(0,0)"/>
<path d="" fill="#18191E" transform="translate(0,0)"/>
<path d="" fill="#18191E" transform="translate(0,0)"/>
<path d="" fill="#18191E" transform="translate(0,0)"/>
<path d="" fill="#18191E" transform="translate(0,0)"/>
<path d="" fill="#18191E" transform="translate(0,0)"/>
<path d="" fill="#18191E" transform="translate(0,0)"/>
<path d="" fill="#18191E" transform="translate(0,0)"/>
<path d="" fill="#1C1C21" transform="translate(0,0)"/>
<path d="" fill="#18191E" transform="translate(0,0)"/>
<path d="" fill="#1C1C21" transform="translate(0,0)"/>
<path d="" fill="#1C1C21" transform="translate(0,0)"/>
<path d="" fill="#18191E" transform="translate(0,0)"/>
<path d="" fill="#18191E" transform="translate(0,0)"/>
<path d="" fill="#7D3057" transform="translate(0,0)"/>
<path d="" fill="#88305E" transform="translate(0,0)"/>
<path d="" fill="#3C3B3F" transform="translate(0,0)"/>
<path d="" fill="#474445" transform="translate(0,0)"/>
<path d="" fill="#E9E9EA" transform="translate(0,0)"/>
<path d="" fill="#FFFDFF" transform="translate(0,0)"/>
<path d="" fill="#FCFDFE" transform="translate(0,0)"/>
<path d="" fill="#E4E2E1" transform="translate(0,0)"/>
<path d="" fill="#F3F1F5" transform="translate(0,0)"/>
<path d="" fill="#F4F1F3" transform="translate(0,0)"/>
<path d="" fill="#EEEEEE" transform="translate(0,0)"/>
<path d="" fill="#858484" transform="translate(0,0)"/>
<path d="" fill="#F3F1F5" transform="translate(0,0)"/>
<path d="" fill="#B3B590" transform="translate(0,0)"/>
<path d="" fill="#B3B590" transform="translate(0,0)"/>
<path d="" fill="#B3B590" transform="translate(0,0)"/>
<path d="" fill="#B3B590" transform="translate(0,0)"/>
<path d="" fill="#F4F1F3" transform="translate(0,0)"/>
<path d="" fill="#C7C6C8" transform="translate(0,0)"/>
<path d="" fill="#75BFDC" transform="translate(0,0)"/>
<path d="" fill="#576878" transform="translate(0,0)"/>
<path d="" fill="#5CB2EE" transform="translate(0,0)"/>
<path d="" fill="#63B5EF" transform="translate(0,0)"/>
<path d="" fill="#F3F1F5" transform="translate(0,0)"/>
<path d="" fill="#E9E9EA" transform="translate(0,0)"/>
<path d="" fill="#4D82BC" transform="translate(0,0)"/>
<path d="" fill="#FFFFFF" transform="translate(0,0)"/>
<path d="" fill="#FFFFFF" transform="translate(0,0)"/>
<path d="" fill="#FDFDFD" transform="translate(0,0)"/>
<path d="" fill="#F3F1F5" transform="translate(0,0)"/>
<path d="" fill="#FAFAFA" transform="translate(0,0)"/>
<path d="" fill="#F8FAFA" transform="translate(0,0)"/>
<path d="" fill="#FCFDFE" transform="translate(0,0)"/>
<path d="" fill="#FFFDFF" transform="translate(0,0)"/>
<path d="" fill="#FCFDFE" transform="translate(0,0)"/>
<path d="" fill="#5B6979" transform="translate(0,0)"/>
<path d="" fill="#E9E9EA" transform="translate(0,0)"/>
<path d="" fill="#FBFBFA" transform="translate(0,0)"/>
<path d="" fill="#5C6C7C" transform="translate(0,0)"/>
<path d="" fill="#617080" transform="translate(0,0)"/>
<path d="" fill="#E4E2E1" transform="translate(0,0)"/>
<path d="" fill="#F3F1F5" transform="translate(0,0)"/>
<path d="" fill="#F3F3F3" transform="translate(0,0)"/>
<path d="" fill="#5DB2EE" transform="translate(0,0)"/>
<path d="" fill="#E9E9EA" transform="translate(0,0)"/>
<path d="" fill="#ECEDEE" transform="translate(0,0)"/>
<path d="" fill="#9ACBE8" transform="translate(0,0)"/>
<path d="" fill="#D2D8DB" transform="translate(0,0)"/>
<path d="" fill="#6EBAF0" transform="translate(0,0)"/>
<path d="" fill="#5CB2EE" transform="translate(0,0)"/>
<path d="" fill="#5C6C7C" transform="translate(0,0)"/>
<path d="" fill="#7F93A8" transform="translate(0,0)"/>
<path d="" fill="#A3A2A3" transform="translate(0,0)"/>
<path d="" fill="#4D82BC" transform="translate(0,0)"/>
<path d="" fill="#FBFBFA" transform="translate(0,0)"/>
<path d="" fill="#5A6A7B" transform="translate(0,0)"/>
<path d="" fill="#E4E2E1" transform="translate(0,0)"/>
<path d="" fill="#FCFDFE" transform="translate(0,0)"/>
<path d="" fill="#5C6C7C" transform="translate(0,0)"/>
<path d="" fill="#5C6C7C" transform="translate(0,0)"/>
<path d="" fill="#E4E2E1" transform="translate(0,0)"/>
<path d="" fill="#5A6A7B" transform="translate(0,0)"/>
<path d="" fill="#58697A" transform="translate(0,0)"/>
<path d="" fill="#D1D9E2" transform="translate(0,0)"/>
<path d="" fill="#F3F1F5" transform="translate(0,0)"/>
<path d="" fill="#E9E9EA" transform="translate(0,0)"/>
<path d="" fill="#6A7784" transform="translate(0,0)"/>
<path d="" fill="#F4F1F3" transform="translate(0,0)"/>
<path d="" fill="#6EBAF0" transform="translate(0,0)"/>
<path d="" fill="#63B5EF" transform="translate(0,0)"/>
<path d="" fill="#6EBAF0" transform="translate(0,0)"/>
<path d="" fill="#7AC7F8" transform="translate(0,0)"/>
<path d="" fill="#DDEEF9" transform="translate(0,0)"/>
<path d="" fill="#8C654E" transform="translate(0,0)"/>
<path d="" fill="#FCFDFE" transform="translate(0,0)"/>
<path d="" fill="#5C6C7C" transform="translate(0,0)"/>
<path d="" fill="#5AB3EE" transform="translate(0,0)"/>
<path d="" fill="#75BFDC" transform="translate(0,0)"/>
<path d="" fill="#9ACBE8" transform="translate(0,0)"/>
<path d="" fill="#A0E4FE" transform="translate(0,0)"/>
<path d="" fill="#FCFDFE" transform="translate(0,0)"/>
<path d="" fill="#9ACBE8" transform="translate(0,0)"/>
<path d="" fill="#6EBAF0" transform="translate(0,0)"/>
<path d="" fill="#F3F1F5" transform="translate(0,0)"/>
<path d="" fill="#8B664F" transform="translate(0,0)"/>
<path d="" fill="#6A7784" transform="translate(0,0)"/>
<path d="" fill="#6E7C89" transform="translate(0,0)"/>
<path d="" fill="#EEEEEE" transform="translate(0,0)"/>
<path d="" fill="#5B6979" transform="translate(0,0)"/>
<path d="" fill="#58697A" transform="translate(0,0)"/>
<path d="" fill="#576878" transform="translate(0,0)"/>
<path d="" fill="#FCFDFE" transform="translate(0,0)"/>
<path d="" fill="#5C6C7C" transform="translate(0,0)"/>
<path d="" fill="#5A6A7B" transform="translate(0,0)"/>
<path d="" fill="#F4F1F3" transform="translate(0,0)"/>
<path d="" fill="#5C6C7C" transform="translate(0,0)"/>
<path d="" fill="#5CB2EE" transform="translate(0,0)"/>
<path d="" fill="#FAFAFA" transform="translate(0,0)"/>
<path d="" fill="#5C6C7C" transform="translate(0,0)"/>
<path d="" fill="#60B2ED" transform="translate(0,0)"/>
<path d="" fill="#5A6A7B" transform="translate(0,0)"/>
<path d="" fill="#A6B7C6" transform="translate(0,0)"/>
<path d="" fill="#788896" transform="translate(0,0)"/>
<path d="" fill="#788896" transform="translate(0,0)"/>
<path d="" fill="#63B5EF" transform="translate(0,0)"/>
<path d="" fill="#60B2ED" transform="translate(0,0)"/>
<path d="" fill="#63B5EF" transform="translate(0,0)"/>
<path d="" fill="#5C6C7C" transform="translate(0,0)"/>
<path d="" fill="#5DB2EE" transform="translate(0,0)"/>
<path d="" fill="#617080" transform="translate(0,0)"/>
<path d="" fill="#617080" transform="translate(0,0)"/>
<path d="" fill="#F4F1F3" transform="translate(0,0)"/>
<path d="" fill="#5C6C7C" transform="translate(0,0)"/>
<path d="" fill="#5A6A7B" transform="translate(0,0)"/>
<path d="" fill="#5A6A7B" transform="translate(0,0)"/>
<path d="" fill="#5A6A7B" transform="translate(0,0)"/>
<path d="" fill="#171817" transform="translate(0,0)"/>
<path d="" fill="#58697A" transform="translate(0,0)"/>
<path d="" fill="#58697A" transform="translate(0,0)"/>
<path d="" fill="#5B6979" transform="translate(0,0)"/>
<path d="" fill="#636363" transform="translate(0,0)"/>
<path d="" fill="#FFFBF4" transform="translate(0,0)"/>
<path d="" fill="#60B2ED" transform="translate(0,0)"/>
<path d="" fill="#737474" transform="translate(0,0)"/>
<path d="" fill="#858484" transform="translate(0,0)"/>
<path d="" fill="#F0F0F1" transform="translate(0,0)"/>
<path d="" fill="#5C6C7C" transform="translate(0,0)"/>
<path d="" fill="#5A6A7B" transform="translate(0,0)"/>
<path d="" fill="#5A6A7B" transform="translate(0,0)"/>
<path d="" fill="#5B6979" transform="translate(0,0)"/>
<path d="" fill="#FFFFFF" transform="translate(0,0)"/>
<path d="" fill="#F4F1F3" transform="translate(0,0)"/>
<path d="" fill="#FAFAFA" transform="translate(0,0)"/>
<path d="" fill="#5A6A7B" transform="translate(0,0)"/>
<path d="" fill="#5B6979" transform="translate(0,0)"/>
<path d="" fill="#617080" transform="translate(0,0)"/>
<path d="" fill="#D6DEE1" transform="translate(0,0)"/>
<path d="" fill="#474445" transform="translate(0,0)"/>
<path d="" fill="#737474" transform="translate(0,0)"/>
<path d="" fill="#FFFDFF" transform="translate(0,0)"/>
<path d="" fill="#6A7784" transform="translate(0,0)"/>
<path d="" fill="#5A6A7B" transform="translate(0,0)"/>
<path d="" fill="#737474" transform="translate(0,0)"/>
<path d="" fill="#A3A2A3" transform="translate(0,0)"/>
<path d="" fill="#161619" transform="translate(0,0)"/>
<path d="" fill="#414141" transform="translate(0,0)"/>
<path d="" fill="#4E3C30" transform="translate(0,0)"/>
<path d="" fill="#576878" transform="translate(0,0)"/>
<path d="" fill="#5C6C7C" transform="translate(0,0)"/>
<path d="" fill="#5AB3EE" transform="translate(0,0)"/>
<path d="" fill="#5AB3EE" transform="translate(0,0)"/>
<path d="" fill="#7F8488" transform="translate(0,0)"/>
<path d="" fill="#78848E" transform="translate(0,0)"/>
<path d="" fill="#5AB3EE" transform="translate(0,0)"/>
<path d="" fill="#7F8488" transform="translate(0,0)"/>
<path d="" fill="#2C2C30" transform="translate(0,0)"/>
<path d="" fill="#2C2C30" transform="translate(0,0)"/>
<path d="" fill="#735D51" transform="translate(0,0)"/>
<path d="" fill="#617080" transform="translate(0,0)"/>
<path d="" fill="#EED7C9" transform="translate(0,0)"/>
<path d="" fill="#7F8488" transform="translate(0,0)"/>
<path d="" fill="#2C2C30" transform="translate(0,0)"/>
<path d="" fill="#5A6A7B" transform="translate(0,0)"/>
<path d="" fill="#48364D" transform="translate(0,0)"/>
<path d="" fill="#7B7B7B" transform="translate(0,0)"/>
<path d="" fill="#5C6C7C" transform="translate(0,0)"/>
<path d="" fill="#2C2C30" transform="translate(0,0)"/>
<path d="" fill="#63B5EF" transform="translate(0,0)"/>
<path d="" fill="#EED7C9" transform="translate(0,0)"/>
<path d="" fill="#9ACBE8" transform="translate(0,0)"/>
<path d="" fill="#92BADC" transform="translate(0,0)"/>
<path d="" fill="#2C2C30" transform="translate(0,0)"/>
<path d="" fill="#9C795E" transform="translate(0,0)"/>
<path d="" fill="#181818" transform="translate(0,0)"/>
<path d="" fill="#9ACBE8" transform="translate(0,0)"/>
<path d="" fill="#58697A" transform="translate(0,0)"/>
<path d="" fill="#FBFBFA" transform="translate(0,0)"/>
<path d="" fill="#4C344D" transform="translate(0,0)"/>
<path d="" fill="#6E7C89" transform="translate(0,0)"/>
<path d="" fill="#8F7552" transform="translate(0,0)"/>
<path d="" fill="#9B825C" transform="translate(0,0)"/>
<path d="" fill="#FCFDFE" transform="translate(0,0)"/>
<path d="" fill="#60B2ED" transform="translate(0,0)"/>
<path d="" fill="#98805B" transform="translate(0,0)"/>
<path d="" fill="#5A595D" transform="translate(0,0)"/>
<path d="" fill="#474445" transform="translate(0,0)"/>
<path d="" fill="#2E2D30" transform="translate(0,0)"/>
<path d="" fill="#FBFBFA" transform="translate(0,0)"/>
<path d="" fill="#4B354D" transform="translate(0,0)"/>
<path d="" fill="#9B825C" transform="translate(0,0)"/>
<path d="" fill="#8F7552" transform="translate(0,0)"/>
<path d="" fill="#735D51" transform="translate(0,0)"/>
<path d="" fill="#7E8384" transform="translate(0,0)"/>
<path d="" fill="#7F93A8" transform="translate(0,0)"/>
<path d="" fill="#6C5F6D" transform="translate(0,0)"/>
<path d="" fill="#47334B" transform="translate(0,0)"/>
<path d="" fill="#98805B" transform="translate(0,0)"/>
<path d="" fill="#C1C1C1" transform="translate(0,0)"/>
<path d="" fill="#C1C1C1" transform="translate(0,0)"/>
<path d="" fill="#C2C5C6" transform="translate(0,0)"/>
<path d="" fill="#FFFDFF" transform="translate(0,0)"/>
<path d="" fill="#646367" transform="translate(0,0)"/>
<path d="" fill="#FCFDFE" transform="translate(0,0)"/>
<path d="" fill="#978158" transform="translate(0,0)"/>
<path d="" fill="#978158" transform="translate(0,0)"/>
<path d="" fill="#FFFDFD" transform="translate(0,0)"/>
<path d="" fill="#998059" transform="translate(0,0)"/>
<path d="" fill="#FFFFFF" transform="translate(0,0)"/>
<path d="" fill="#D1D9E2" transform="translate(0,0)"/>
<path d="" fill="#F8FAFA" transform="translate(0,0)"/>
<path d="" fill="#BCBCBC" transform="translate(0,0)"/>
<path d="" fill="#CED7D6" transform="translate(0,0)"/>
<path d="" fill="#B7B7B9" transform="translate(0,0)"/>
<path d="" fill="#F8FAFA" transform="translate(0,0)"/>
<path d="" fill="#E4E2E1" transform="translate(0,0)"/>
<path d="" fill="#FFFDFF" transform="translate(0,0)"/>
<path d="" fill="#98805B" transform="translate(0,0)"/>
<path d="" fill="#858484" transform="translate(0,0)"/>
<path d="" fill="#E5BA96" transform="translate(0,0)"/>
<path d="" fill="#E2B896" transform="translate(0,0)"/>
<path d="" fill="#E6BA9B" transform="translate(0,0)"/>
<path d="" fill="#E5BB98" transform="translate(0,0)"/>
<path d="" fill="#6F573C" transform="translate(0,0)"/>
<path d="" fill="#8F7552" transform="translate(0,0)"/>
<path d="" fill="#E2B896" transform="translate(0,0)"/>
<path d="" fill="#686769" transform="translate(0,0)"/>
<path d="" fill="#686769" transform="translate(0,0)"/>
</svg>
