<?xml version="1.0" encoding="UTF-8"?>
<svg version="1.1" xmlns="http://www.w3.org/2000/svg" width="581" height="240">
<path d="M0 0 C2.97 0.33 5.94 0.66 9 1 C9.625 4.375 9.625 4.375 10 8 C9.34 8.66 8.68 9.32 8 10 C8.66 10.66 9.32 11.32 10 12 C10.33 11.34 10.66 10.68 11 10 C11.66 10.33 12.32 10.66 13 11 C13.99 11.33 14.98 11.66 16 12 C16 11.34 16 10.68 16 10 C18 10 20 10 22 10 C22.495 13.465 22.495 13.465 23 17 C21.68 16.67 20.36 16.34 19 16 C19 15.34 19 14.68 19 14 C17.35 14 15.7 14 14 14 C14 14.66 14 15.32 14 16 C12 17 10 18 8 19 C8.99 19.33 9.98 19.66 11 20 C11 20.66 11 21.32 11 22 C12.11375 22.12375 13.2275 22.2475 14.375 22.375 C18 23 18 23 20 25 C18.93458984 25.07347656 18.93458984 25.07347656 17.84765625 25.1484375 C16.92855469 25.22320312 16.00945312 25.29796875 15.0625 25.375 C13.68771484 25.47941406 13.68771484 25.47941406 12.28515625 25.5859375 C11.53105469 25.72257812 10.77695313 25.85921875 10 26 C9.67 26.66 9.34 27.32 9 28 C8.67 27.01 8.34 26.02 8 25 C6.02463255 25.34786708 6.02463255 25.34786708 4 26 C3.67 26.66 3.34 27.32 3 28 C3.33 28.33 3.66 28.66 4 29 C3.34 29.99 2.68 30.98 2 32 C2 31.34 2 30.68 2 30 C1.01 29.67 0.02 29.34 -1 29 C-1.433125 28.484375 -1.86625 27.96875 -2.3125 27.4375 C-4.00323058 25.68252163 -4.00323058 25.68252163 -6.9375 26 C-10 26 -10 26 -12.375 24.625 C-12.91125 24.08875 -13.4475 23.5525 -14 23 C-14 22.34 -14 21.68 -14 21 C-13.34 20.67 -12.68 20.34 -12 20 C-12 19.01 -12 18.02 -12 17 C-12.66 17.33 -13.32 17.66 -14 18 C-14.80967438 15.08517222 -15.21845993 13.53886783 -14.0625 10.6875 C-13.711875 10.130625 -13.36125 9.57375 -13 9 C-12.34 9 -11.68 9 -11 9 C-10.67 8.01 -10.34 7.02 -10 6 C-9.34 6 -8.68 6 -8 6 C-7.67 5.34 -7.34 4.68 -7 4 C-5.02111039 3.27306096 -3.02045442 2.60183749 -1 2 C-1 2.99 -1 3.98 -1 5 C-0.67 3.35 -0.34 1.7 0 0 Z M7 13 C7 13.99 7 14.98 7 16 C7.66 15.34 8.32 14.68 9 14 C8.34 13.67 7.68 13.34 7 13 Z M-1 14 C0 16 0 16 0 16 Z M7 22 C8 24 8 24 8 24 Z " fill="#D7C3B1" transform="translate(65,73)"/>
<path d="M0 0 C18.48 0 36.96 0 56 0 C55.67 0.66 55.34 1.32 55 2 C47.2686591 3.76134425 38.75108818 3.19160989 30.875 3.1875 C29.59923096 3.18814453 28.32346191 3.18878906 27.0090332 3.18945312 C17.85838859 3.13827047 9.01501268 2.59004948 0 1 C0 0.67 0 0.34 0 0 Z " fill="#768592" transform="translate(378,92)"/>
<path d="M0 0 C3.375 -0.125 3.375 -0.125 7 0 C7.66 0.66 8.32 1.32 9 2 C9.33 1.34 9.66 0.68 10 0 C10.66 0.33 11.32 0.66 12 1 C12.99 1.33 13.98 1.66 15 2 C15 1.34 15 0.68 15 0 C17 0 19 0 21 0 C21.33 2.31 21.66 4.62 22 7 C20.68 6.67 19.36 6.34 18 6 C18 5.34 18 4.68 18 4 C16.35 4 14.7 4 13 4 C13 4.66 13 5.32 13 6 C12.01 6.495 12.01 6.495 11 7 C11 7.33 11 7.66 11 8 C8.36 8 5.72 8 3 8 C0 2.25 0 2.25 0 0 Z M6 3 C6 3.99 6 4.98 6 6 C6.66 5.34 7.32 4.68 8 4 C7.34 3.67 6.68 3.34 6 3 Z " fill="#969594" transform="translate(66,83)"/>
<path d="M0 0 C2.5558408 2.22247026 3.26439123 3.74230403 4 7 C4.66 7.66 5.32 8.32 6 9 C4.02 9 2.04 9 0 9 C0.99 11.31 1.98 13.62 3 16 C2.01 16 1.02 16 0 16 C0 16.66 0 17.32 0 18 C-0.66 17.67 -1.32 17.34 -2 17 C-2.99 16.67 -3.98 16.34 -5 16 C-4.85831863 14.56208484 -4.71148957 13.1246763 -4.5625 11.6875 C-4.44068359 10.48673828 -4.44068359 10.48673828 -4.31640625 9.26171875 C-4 7 -4 7 -3 4 C-3.99 4 -4.98 4 -6 4 C-6 3.34 -6 2.68 -6 2 C-4.02 1.34 -2.04 0.68 0 0 Z M-1 6 C0 8 0 8 0 8 Z M-3 13 C-2 15 -2 15 -2 15 Z " fill="#8FADC6" transform="translate(513,145)"/>
<path d="M0 0 C2.86331684 0.52060306 5.53522406 1.17167564 8.3125 2.0625 C12.45036388 3.11449929 15.75313177 3.14901292 20 3 C20 4.32 20 5.64 20 7 C17.89651926 7.19504458 15.79217415 7.38078496 13.6875 7.5625 C12.51574219 7.66691406 11.34398437 7.77132812 10.13671875 7.87890625 C7 8 7 8 4 7 C2.8125 4.9375 2.8125 4.9375 2 3 C1.34 3 0.68 3 0 3 C0 2.01 0 1.02 0 0 Z " fill="#E5BA99" transform="translate(161,35)"/>
<path d="M0 0 C2.97 0.33 5.94 0.66 9 1 C9.33 3.31 9.66 5.62 10 8 C3.375 9 3.375 9 0 9 C0 8.34 0 7.68 0 7 C-0.66 7 -1.32 7 -2 7 C-2.33 5.68 -2.66 4.36 -3 3 C-2.34 2.67 -1.68 2.34 -1 2 C-1 2.99 -1 3.98 -1 5 C-0.67 3.35 -0.34 1.7 0 0 Z " fill="#FEFCFD" transform="translate(65,73)"/>
<path d="M0 0 C2.31 0.33 4.62 0.66 7 1 C7 1.66 7 2.32 7 3 C8.11375 3.12375 9.2275 3.2475 10.375 3.375 C14 4 14 4 16 6 C14.93458984 6.07347656 14.93458984 6.07347656 13.84765625 6.1484375 C12.92855469 6.22320312 12.00945312 6.29796875 11.0625 6.375 C10.14597656 6.44460937 9.22945312 6.51421875 8.28515625 6.5859375 C7.53105469 6.72257812 6.77695313 6.85921875 6 7 C5.67 7.66 5.34 8.32 5 9 C4.67 8.01 4.34 7.02 4 6 C3.01 5.67 2.02 5.34 1 5 C0.67 3.35 0.34 1.7 0 0 Z M3 3 C4 5 4 5 4 5 Z " fill="#D8EAF7" transform="translate(69,92)"/>
<path d="M0 0 C-1.485 1.485 -1.485 1.485 -3 3 C-0.03 3.495 -0.03 3.495 3 4 C-1.30769231 7.93846154 -1.30769231 7.93846154 -4.8125 8.25 C-5.8953125 8.12625 -5.8953125 8.12625 -7 8 C-7.66 6.68 -8.32 5.36 -9 4 C-9.66 4 -10.32 4 -11 4 C-10.67 3.01 -10.34 2.02 -10 1 C-3.84210526 -1.28070175 -3.84210526 -1.28070175 0 0 Z " fill="#62B4EE" transform="translate(76,139)"/>
<path d="M0 0 C2.5558408 2.22247026 3.26439123 3.74230403 4 7 C4.66 7.66 5.32 8.32 6 9 C4.02 9 2.04 9 0 9 C0 8.01 0 7.02 0 6 C-0.99 6.33 -1.98 6.66 -3 7 C-3 6.01 -3 5.02 -3 4 C-3.99 4 -4.98 4 -6 4 C-6 3.34 -6 2.68 -6 2 C-4.02 1.34 -2.04 0.68 0 0 Z " fill="#5CA5DA" transform="translate(513,145)"/>
<path d="M0 0 C0 0.66 0 1.32 0 2 C-1.32 2 -2.64 2 -4 2 C-2.34920558 3.65079442 -0.36263821 3.22549447 1.91015625 3.31640625 C2.89951172 3.35830078 3.88886719 3.40019531 4.90820312 3.44335938 C5.94912109 3.48267578 6.99003906 3.52199219 8.0625 3.5625 C9.62967773 3.62727539 9.62967773 3.62727539 11.22851562 3.69335938 C13.81886884 3.79981225 16.40932186 3.9018276 19 4 C19 4.33 19 4.66 19 5 C10.75 5 2.5 5 -6 5 C-6 4.34 -6 3.68 -6 3 C-7.32 3 -8.64 3 -10 3 C-10 2.34 -10 1.68 -10 1 C-6.61981469 -0.04005702 -3.5219721 -0.08004482 0 0 Z " fill="#8FCAF0" transform="translate(64,145)"/>
<path d="M0 0 C2.31 0.33 4.62 0.66 7 1 C7 1.66 7 2.32 7 3 C7.66 3 8.32 3 9 3 C9.33 2.34 9.66 1.68 10 1 C10.99 2.65 11.98 4.3 13 6 C12.01 6.495 12.01 6.495 11 7 C10.67 6.67 10.34 6.34 10 6 C7.94603274 6.40929986 7.94603274 6.40929986 6 7 C6.33 6.34 6.66 5.68 7 5 C5.865625 4.87625 4.73125 4.7525 3.5625 4.625 C2.386875 4.41875 1.21125 4.2125 0 4 C-0.33 3.34 -0.66 2.68 -1 2 C-0.67 1.67 -0.34 1.34 0 1 C0 0.67 0 0.34 0 0 Z " fill="#5B6A7B" transform="translate(418,195)"/>
<path d="M0 0 C0.495 0.474375 0.99 0.94875 1.5 1.4375 C4.99468651 3.62167907 7.90966936 3.65913911 12 4 C11.34 4.66 10.68 5.32 10 6 C6.875 5.625 6.875 5.625 4 5 C4.33 7.31 4.66 9.62 5 12 C3.68 12 2.36 12 1 12 C1 11.01 1 10.02 1 9 C1.66 9 2.32 9 3 9 C1.92598892 6.08482708 1.22189824 4.22189824 -1 2 C-0.67 1.34 -0.34 0.68 0 0 Z " fill="#BFCDD7" transform="translate(69,103)"/>
<path d="M0 0 C3.16115776 1.36983503 3.9927092 1.9890638 6 5 C5.67 5.99 5.34 6.98 5 8 C3.35 6.35 1.7 4.7 0 3 C0.99 4.32 1.98 5.64 3 7 C2.67 7.66 2.34 8.32 2 9 C0.02 8.01 -1.96 7.02 -4 6 C-3.67 5.01 -3.34 4.02 -3 3 C-2.34 3 -1.68 3 -1 3 C-0.67 2.01 -0.34 1.02 0 0 Z " fill="#A08967" transform="translate(55,79)"/>
<path d="M0 0 C6.93 0 13.86 0 21 0 C21.33 0.66 21.66 1.32 22 2 C21.40985107 1.99476318 20.81970215 1.98952637 20.21166992 1.98413086 C17.53695745 1.96333953 14.86226199 1.95033299 12.1875 1.9375 C10.7943457 1.92493164 10.7943457 1.92493164 9.37304688 1.91210938 C8.48037109 1.90888672 7.58769531 1.90566406 6.66796875 1.90234375 C5.84578857 1.89710693 5.0236084 1.89187012 4.17651367 1.88647461 C1.81827404 1.91258476 1.81827404 1.91258476 -1 3 C-0.67 2.01 -0.34 1.02 0 0 Z " fill="#181819" transform="translate(57,225)"/>
<path d="M0 0 C0.99 0 1.98 0 3 0 C3 0.66 3 1.32 3 2 C2.34 2 1.68 2 1 2 C1.33 2.99 1.66 3.98 2 5 C2.06740865 6.56118428 2.08514456 8.1250252 2.0625 9.6875 C2.05347656 10.49574219 2.04445313 11.30398437 2.03515625 12.13671875 C2.02355469 12.75160156 2.01195312 13.36648437 2 14 C1.01 14 0.02 14 -1 14 C-1 11.69 -1 9.38 -1 7 C-1.99 6.67 -2.98 6.34 -4 6 C-3.525625 5.566875 -3.05125 5.13375 -2.5625 4.6875 C-0.76313043 2.97690387 -0.76313043 2.97690387 0 0 Z " fill="#7E787F" transform="translate(399,203)"/>
<path d="M0 0 C1.32 0 2.64 0 4 0 C4.33 0.66 4.66 1.32 5 2 C5.66 2 6.32 2 7 2 C6.34 3.65 5.68 5.3 5 7 C2.16032769 7 -0.23735711 6.59732819 -3 6 C-2 4 -1 2 0 0 Z M1 1 C2 3 2 3 2 3 Z " fill="#62B3EC" transform="translate(75,129)"/>
<path d="M0 0 C1.32 0 2.64 0 4 0 C4 2.64 4 5.28 4 8 C2.35 8.66 0.7 9.32 -1 10 C-1.66 9.34 -2.32 8.68 -3 8 C-2.01 8 -1.02 8 0 8 C-0.185625 7.05125 -0.37125 6.1025 -0.5625 5.125 C-1 2 -1 2 0 0 Z " fill="#828386" transform="translate(450,2)"/>
<path d="M0 0 C3.63 0 7.26 0 11 0 C11 0.99 11 1.98 11 3 C8.36 2.67 5.72 2.34 3 2 C2.67 2.66 2.34 3.32 2 4 C1.01 3.67 0.02 3.34 -1 3 C-0.67 2.01 -0.34 1.02 0 0 Z " fill="#171719" transform="translate(64,230)"/>
<path d="M0 0 C1.65 0 3.3 0 5 0 C5.95024979 3.69541586 5.95024979 6.30458414 5 10 C1.64085078 7.76056718 1.18318364 6.73157917 0 3 C0 2.01 0 1.02 0 0 Z M2 3 C2.33 3.99 2.66 4.98 3 6 C3 5.34 3 4.68 3 4 C3.66 3.67 4.32 3.34 5 3 C4.01 3 3.02 3 2 3 Z " fill="#503B52" transform="translate(370,90)"/>
<path d="M0 0 C3.94794145 1.67028292 6.81796118 4.1795565 10 7 C10 7.33 10 7.66 10 8 C8.02 8 6.04 8 4 8 C3.67 6.68 3.34 5.36 3 4 C2.01 4.495 2.01 4.495 1 5 C0.67 3.35 0.34 1.7 0 0 Z " fill="#99815F" transform="translate(50,86)"/>
<path d="M0 0 C0.99 0 1.98 0 3 0 C3.66 2.31 4.32 4.62 5 7 C3.02 7.33 1.04 7.66 -1 8 C-1.04241723 5.66705225 -1.04092937 3.33297433 -1 1 C-0.67 0.67 -0.34 0.34 0 0 Z M2 4 C3 7 3 7 3 7 Z " fill="#828487" transform="translate(443,2)"/>
<path d="M0 0 C2.0625 0.4375 2.0625 0.4375 4 1 C3.67 1.33 3.34 1.66 3 2 C6.3 2 9.6 2 13 2 C12.67 2.66 12.34 3.32 12 4 C9.27734375 4.4140625 9.27734375 4.4140625 5.9375 4.625 C4.83277344 4.69976562 3.72804688 4.77453125 2.58984375 4.8515625 C1.73519531 4.90054688 0.88054688 4.94953125 0 5 C-0.5625 3.0625 -0.5625 3.0625 -1 1 C-0.67 0.67 -0.34 0.34 0 0 Z " fill="#ECD9CE" transform="translate(36,122)"/>
<path d="M0 0 C3.3 0 6.6 0 10 0 C7 3 7 3 4.95703125 3.29296875 C2.97135417 3.1953125 0.98567708 3.09765625 -1 3 C-0.67 2.01 -0.34 1.02 0 0 Z " fill="#6F767E" transform="translate(388,204)"/>
<path d="M0 0 C3.63 0 7.26 0 11 0 C11.33 0.66 11.66 1.32 12 2 C4.19354839 3.35111663 4.19354839 3.35111663 1 2 C0.67 1.34 0.34 0.68 0 0 Z " fill="#5E6E7E" transform="translate(410,124)"/>
<path d="M0 0 C1.67542976 0.28604898 3.34385343 0.61781233 5 1 C5.33 1.99 5.66 2.98 6 4 C5.34 4 4.68 4 4 4 C3.67 4.66 3.34 5.32 3 6 C2.34 6 1.68 6 1 6 C0.34 4.35 -0.32 2.7 -1 1 C-0.67 0.67 -0.34 0.34 0 0 Z " fill="#DDD1CA" transform="translate(65,95)"/>
<path d="M0 0 C3 2 3 2 3.51171875 3.9453125 C3.67447917 5.96354167 3.83723958 7.98177083 4 10 C3.54625 9.38125 3.0925 8.7625 2.625 8.125 C0.89816177 5.86682692 -0.44284253 4.27857874 -3 3 C-2 1 -2 1 0 0 Z " fill="#A08C6F" transform="translate(60,76)"/>
<path d="M0 0 C3.375 0.3125 3.375 0.3125 7 1 C7.66 1.99 8.32 2.98 9 4 C8.01 4.66 7.02 5.32 6 6 C3.97945196 4.35830472 1.97956942 2.69088222 0 1 C0 0.67 0 0.34 0 0 Z " fill="#E2CAB4" transform="translate(52,86)"/>
<path d="M0 0 C0.66 0.33 1.32 0.66 2 1 C2.1875 3.875 2.1875 3.875 2 7 C1.01 7.66 0.02 8.32 -1 9 C-1.09765625 2.84765625 -1.09765625 2.84765625 -1 1 C-0.67 0.67 -0.34 0.34 0 0 Z " fill="#5A6A7B" transform="translate(410,174)"/>
<path d="M0 0 C2.50037734 2.17424117 3.43628586 3.73045798 4 7 C3.01 7 2.02 7 1 7 C1 7.66 1 8.32 1 9 C0.34 8.67 -0.32 8.34 -1 8 C-0.67 5.36 -0.34 2.72 0 0 Z " fill="#C2D4DF" transform="translate(512,154)"/>
<path d="M0 0 C5.28 0.33 10.56 0.66 16 1 C16 1.33 16 1.66 16 2 C11.05 2.33 6.1 2.66 1 3 C0.67 2.01 0.34 1.02 0 0 Z " fill="#5F6E7E" transform="translate(388,124)"/>
<path d="M0 0 C0.66 0.99 1.32 1.98 2 3 C-1.13498292 4.85776765 -3.37471432 5.20140476 -7 5 C-6.67 4.01 -6.34 3.02 -6 2 C-3 1 -3 1 -1 1 C-0.67 0.67 -0.34 0.34 0 0 Z " fill="#5E6A7A" transform="translate(419,200)"/>
<path d="M0 0 C0.66 0 1.32 0 2 0 C3.6875 1.6875 3.6875 1.6875 5 4 C4.6875 6.75 4.6875 6.75 4 9 C2.68 8.34 1.36 7.68 0 7 C0.66 6.34 1.32 5.68 2 5 C1.34 4.67 0.68 4.34 0 4 C0 2.68 0 1.36 0 0 Z " fill="#5A6A7B" transform="translate(399,189)"/>
<path d="M0 0 C2.64 0 5.28 0 8 0 C8 0.66 8 1.32 8 2 C8.99 2 9.98 2 11 2 C10.67 2.66 10.34 3.32 10 4 C5.78087253 3.5205537 3.20336822 2.83374881 0 0 Z " fill="#7DC3F2" transform="translate(515,145)"/>
<path d="M0 0 C0.33 0.66 0.66 1.32 1 2 C0.01 2.495 0.01 2.495 -1 3 C-1.65213292 5.02463255 -1.65213292 5.02463255 -2 7 C-2.33 6.01 -2.66 5.02 -3 4 C-3.99 4 -4.98 4 -6 4 C-6 3.34 -6 2.68 -6 2 C-4.02 1.34 -2.04 0.68 0 0 Z " fill="#75B9E8" transform="translate(513,145)"/>
<path d="M0 0 C0.33 0.66 0.66 1.32 1 2 C1.99 2.33 2.98 2.66 4 3 C3.67 3.99 3.34 4.98 3 6 C1.68 5.67 0.36 5.34 -1 5 C-0.67 3.35 -0.34 1.7 0 0 Z " fill="#AFAFB0" transform="translate(146,162)"/>
<path d="M0 0 C0.99 0.33 1.98 0.66 3 1 C3 1.66 3 2.32 3 3 C3.66 3.33 4.32 3.66 5 4 C3.02 4.33 1.04 4.66 -1 5 C-0.67 3.35 -0.34 1.7 0 0 Z " fill="#858485" transform="translate(407,209)"/>
<path d="M0 0 C0.66 0 1.32 0 2 0 C2 0.99 2 1.98 2 3 C3.32 3 4.64 3 6 3 C5.67 3.99 5.34 4.98 5 6 C2.69 5.01 0.38 4.02 -2 3 C-1.34 2.67 -0.68 2.34 0 2 C0 1.34 0 0.68 0 0 Z " fill="#5B6B7B" transform="translate(420,163)"/>
<path d="M0 0 C1.32 0.33 2.64 0.66 4 1 C3.67 1.99 3.34 2.98 3 4 C1.35 4 -0.3 4 -2 4 C-1.34 2.68 -0.68 1.36 0 0 Z " fill="#B8BDBC" transform="translate(549,159)"/>
<path d="M0 0 C2.31 0.33 4.62 0.66 7 1 C6.67 1.99 6.34 2.98 6 4 C5.01 3.34 4.02 2.68 3 2 C0.84725052 2.30840599 0.84725052 2.30840599 -1 3 C-0.67 2.01 -0.34 1.02 0 0 Z " fill="#677584" transform="translate(388,120)"/>
<path d="M0 0 C2.97 0 5.94 0 9 0 C9.33 0.66 9.66 1.32 10 2 C7.03 2 4.06 2 1 2 C0.67 1.34 0.34 0.68 0 0 Z " fill="#181819" transform="translate(76,230)"/>
<path d="M0 0 C0.33 0.66 0.66 1.32 1 2 C-3.62 2 -8.24 2 -13 2 C-13 1.67 -13 1.34 -13 1 C-6.565 0.505 -6.565 0.505 0 0 Z " fill="#181819" transform="translate(49,222)"/>
<path d="M0 0 C0.66 0.66 1.32 1.32 2 2 C2.99 2 3.98 2 5 2 C4.67 2.66 4.34 3.32 4 4 C1.69 3.67 -0.62 3.34 -3 3 C-2.01 2.01 -1.02 1.02 0 0 Z " fill="#788695" transform="translate(395,192)"/>
<path d="M0 0 C0.99 0.33 1.98 0.66 3 1 C3.99 0.67 4.98 0.34 6 0 C6.33 0.99 6.66 1.98 7 3 C4 4 4 4 1.8125 3.0625 C1.214375 2.711875 0.61625 2.36125 0 2 C0 1.34 0 0.68 0 0 Z " fill="#96C8ED" transform="translate(58,138)"/>
<path d="M0 0 C1.32 0.33 2.64 0.66 4 1 C3.67 2.65 3.34 4.3 3 6 C2.01 5.34 1.02 4.68 0 4 C0 2.68 0 1.36 0 0 Z " fill="#CDB8A5" transform="translate(51,98)"/>
<path d="M0 0 C0.66 0.33 1.32 0.66 2 1 C1.67 1.66 1.34 2.32 1 3 C0.77532169 4.53668865 0.59203195 6.07968054 0.4375 7.625 C0.35371094 8.44226563 0.26992188 9.25953125 0.18359375 10.1015625 C0.12300781 10.72804687 0.06242187 11.35453125 0 12 C-0.33 12 -0.66 12 -1 12 C-1.02698189 10.37509046 -1.04638757 8.75005367 -1.0625 7.125 C-1.07410156 6.22007812 -1.08570313 5.31515625 -1.09765625 4.3828125 C-1 2 -1 2 0 0 Z " fill="#807F81" transform="translate(424,205)"/>
<path d="M0 0 C2 1.3125 2 1.3125 4 3 C4 3.99 4 4.98 4 6 C1 5 1 5 -0.1875 2.9375 C-0.5896875 1.9784375 -0.5896875 1.9784375 -1 1 C-0.67 0.67 -0.34 0.34 0 0 Z " fill="#5B6B7B" transform="translate(406,193)"/>
<path d="M0 0 C1.70884005 1.62339805 3.37446717 3.29319053 5 5 C5 5.66 5 6.32 5 7 C4.34 7 3.68 7 3 7 C3 6.34 3 5.68 3 5 C2.01 4.67 1.02 4.34 0 4 C0 2.68 0 1.36 0 0 Z " fill="#72BBED" transform="translate(9,136)"/>
<path d="M0 0 C2.97 0 5.94 0 9 0 C7.515 1.485 7.515 1.485 6 3 C3.02602384 2.72963853 2.14553974 2.14553974 0 0 Z " fill="#5C6B7B" transform="translate(382,109)"/>
<path d="M0 0 C4.29 0 8.58 0 13 0 C13 0.33 13 0.66 13 1 C8.71 1 4.42 1 0 1 C0 0.67 0 0.34 0 0 Z " fill="#181819" transform="translate(36,218)"/>
<path d="M0 0 C0.99 0.33 1.98 0.66 3 1 C2.67 2.32 2.34 3.64 2 5 C1.01 4.67 0.02 4.34 -1 4 C-0.67 2.68 -0.34 1.36 0 0 Z " fill="#858588" transform="translate(403,208)"/>
<path d="M0 0 C0 0.66 0 1.32 0 2 C-1.65 2 -3.3 2 -5 2 C-5 2.66 -5 3.32 -5 4 C-5.66 3.67 -6.32 3.34 -7 3 C-7 2.34 -7 1.68 -7 1 C-4.50935112 0.31292445 -2.62113708 0 0 0 Z " fill="#843858" transform="translate(376,193)"/>
<path d="M0 0 C1.32 0 2.64 0 4 0 C4.33 1.32 4.66 2.64 5 4 C2.525 3.01 2.525 3.01 0 2 C0 1.34 0 0.68 0 0 Z " fill="#CFD3D7" transform="translate(47,144)"/>
<path d="M0 0 C1.32 0.66 2.64 1.32 4 2 C2.02 2.99 2.02 2.99 0 4 C-0.66 3.34 -1.32 2.68 -2 2 C-1.34 1.34 -0.68 0.68 0 0 Z " fill="#802B51" transform="translate(369,189)"/>
<path d="M0 0 C0.66 0.99 1.32 1.98 2 3 C-0.31 3 -2.62 3 -5 3 C-3 1 -3 1 0 0 Z " fill="#5C6C7C" transform="translate(407,172)"/>
<path d="M0 0 C0.66 1.32 1.32 2.64 2 4 C0.02 4 -1.96 4 -4 4 C-2.68 2.68 -1.36 1.36 0 0 Z " fill="#CCE6F8" transform="translate(523,152)"/>
<path d="M0 0 C2.97 0.33 5.94 0.66 9 1 C8.67 1.66 8.34 2.32 8 3 C5.36 3 2.72 3 0 3 C0 2.01 0 1.02 0 0 Z " fill="#5E6D7D" transform="translate(381,140)"/>
<path d="M0 0 C0.66 0.66 1.32 1.32 2 2 C1.625 4.125 1.625 4.125 1 6 C0.01 6 -0.98 6 -2 6 C-2 5.34 -2 4.68 -2 4 C-1.34 4 -0.68 4 0 4 C0 2.68 0 1.36 0 0 Z " fill="#BBCEDC" transform="translate(46,128)"/>
<path d="M0 0 C1.32 0.33 2.64 0.66 4 1 C2.515 2.485 2.515 2.485 1 4 C0.01 3.67 -0.98 3.34 -2 3 C-1.34 3 -0.68 3 0 3 C0 2.01 0 1.02 0 0 Z " fill="#B5BCBC" transform="translate(553,150)"/>
<path d="M0 0 C1.67542976 0.28604898 3.34385343 0.61781233 5 1 C3.02 1.99 3.02 1.99 1 3 C0.34 2.34 -0.32 1.68 -1 1 C-0.67 0.67 -0.34 0.34 0 0 Z " fill="#817F81" transform="translate(416,205)"/>
<path d="M0 0 C1.98 0 3.96 0 6 0 C6.33 0.66 6.66 1.32 7 2 C4.69 1.67 2.38 1.34 0 1 C0 0.67 0 0.34 0 0 Z " fill="#727278" transform="translate(429,205)"/>
<path d="M0 0 C1.32 0.66 2.64 1.32 4 2 C2.02 2.99 2.02 2.99 0 4 C-0.33 3.34 -0.66 2.68 -1 2 C-0.67 1.34 -0.34 0.68 0 0 Z " fill="#5A6A7B" transform="translate(380,200)"/>
<path d="M0 0 C1.65 0.33 3.3 0.66 5 1 C5 1.33 5 1.66 5 2 C3.02 2 1.04 2 -1 2 C-0.67 1.34 -0.34 0.68 0 0 Z " fill="#ECE8E5" transform="translate(518,194)"/>
<path d="M0 0 C1.98 0.66 3.96 1.32 6 2 C3.53721199 3.231394 1.7204945 3.07159196 -1 3 C-0.67 2.01 -0.34 1.02 0 0 Z " fill="#627080" transform="translate(402,162)"/>
<path d="M0 0 C2.475 0.99 2.475 0.99 5 2 C4.34 2.66 3.68 3.32 3 4 C3 3.34 3 2.68 3 2 C1.68 2.33 0.36 2.66 -1 3 C-0.67 2.01 -0.34 1.02 0 0 Z " fill="#8E9BA8" transform="translate(384,160)"/>
<path d="M0 0 C2.475 0.495 2.475 0.495 5 1 C5 1.66 5 2.32 5 3 C3.35 3 1.7 3 0 3 C0 2.01 0 1.02 0 0 Z " fill="#F3F1F3" transform="translate(45,154)"/>
<path d="M0 0 C1.98 0.66 3.96 1.32 6 2 C5.67 2.66 5.34 3.32 5 4 C3.31503702 3.03114628 1.64821244 2.03013277 0 1 C0 0.67 0 0.34 0 0 Z " fill="#D7D0CD" transform="translate(75,114)"/>
<path d="M0 0 C1.32 0.33 2.64 0.66 4 1 C3.01 2.485 3.01 2.485 2 4 C1.34 3.67 0.68 3.34 0 3 C0 2.01 0 1.02 0 0 Z " fill="#727375" transform="translate(571,101)"/>
<path d="M0 0 C2.97 0 5.94 0 9 0 C9 0.33 9 0.66 9 1 C6.03 1 3.06 1 0 1 C0 0.67 0 0.34 0 0 Z " fill="#181819" transform="translate(39,226)"/>
<path d="M0 0 C0.66 0.33 1.32 0.66 2 1 C1.67 1.66 1.34 2.32 1 3 C-0.65 2.67 -2.3 2.34 -4 2 C-2.125 0.9375 -2.125 0.9375 0 0 Z " fill="#A4A3A6" transform="translate(565,208)"/>
<path d="M0 0 C0.33 0 0.66 0 1 0 C1 2.97 1 5.94 1 9 C0.67 9 0.34 9 0 9 C0 6.03 0 3.06 0 0 Z " fill="#858484" transform="translate(425,208)"/>
<path d="M0 0 C1.32 0.33 2.64 0.66 4 1 C3.01 2.485 3.01 2.485 2 4 C1.34 2.68 0.68 1.36 0 0 Z " fill="#625B70" transform="translate(377,190)"/>
<path d="M0 0 C0.99 0 1.98 0 3 0 C2.67 0.99 2.34 1.98 2 3 C1.01 3 0.02 3 -1 3 C-0.67 2.01 -0.34 1.02 0 0 Z " fill="#5B6A7A" transform="translate(391,189)"/>
<path d="M0 0 C1.65 0 3.3 0 5 0 C4.67 0.99 4.34 1.98 4 3 C2.68 2.34 1.36 1.68 0 1 C0 0.67 0 0.34 0 0 Z " fill="#5B6B7C" transform="translate(421,173)"/>
<path d="M0 0 C0.99 0.33 1.98 0.66 3 1 C3 1.66 3 2.32 3 3 C2.01 3.33 1.02 3.66 0 4 C-0.33 3.34 -0.66 2.68 -1 2 C-0.67 1.34 -0.34 0.68 0 0 Z " fill="#647281" transform="translate(408,167)"/>
<path d="M0 0 C1.65 0 3.3 0 5 0 C5.33 0.99 5.66 1.98 6 3 C5.34 3 4.68 3 4 3 C4 2.34 4 1.68 4 1 C2.68 0.67 1.36 0.34 0 0 Z " fill="#A6D1F0" transform="translate(530,147)"/>
<path d="M0 0 C0.33 0.66 0.66 1.32 1 2 C0.67 2.66 0.34 3.32 0 4 C0.66 4.33 1.32 4.66 2 5 C0.68 4.67 -0.64 4.34 -2 4 C-1.34 2.68 -0.68 1.36 0 0 Z " fill="#67B7EF" transform="translate(81,138)"/>
<path d="M0 0 C0.66 0.33 1.32 0.66 2 1 C1.67 1.66 1.34 2.32 1 3 C-0.65 2.67 -2.3 2.34 -4 2 C-3.34 1.67 -2.68 1.34 -2 1 C-1.34 1.33 -0.68 1.66 0 2 C0 1.34 0 0.68 0 0 Z " fill="#5C6C7C" transform="translate(394,115)"/>
<path d="M0 0 C1.98 0.99 1.98 0.99 4 2 C3.01 2.66 2.02 3.32 1 4 C0.67 2.68 0.34 1.36 0 0 Z " fill="#6A7885" transform="translate(403,199)"/>
<path d="M0 0 C0 0.99 0 1.98 0 3 C-1.32 3 -2.64 3 -4 3 C-4 2.34 -4 1.68 -4 1 C-2.68 0.67 -1.36 0.34 0 0 Z " fill="#5F6D7B" transform="translate(394,186)"/>
<path d="M0 0 C1.98 0.99 1.98 0.99 4 2 C4 2.66 4 3.32 4 4 C3.34 4 2.68 4 2 4 C1.34 2.68 0.68 1.36 0 0 Z " fill="#616F7E" transform="translate(395,168)"/>
<path d="M0 0 C0.99 0.33 1.98 0.66 3 1 C3 1.99 3 2.98 3 4 C2.34 4 1.68 4 1 4 C0.67 2.68 0.34 1.36 0 0 Z " fill="#6A7885" transform="translate(383,165)"/>
<path d="M0 0 C1.32 0 2.64 0 4 0 C3.67 0.99 3.34 1.98 3 3 C2.01 2.67 1.02 2.34 0 2 C0 1.34 0 0.68 0 0 Z " fill="#D0CED1" transform="translate(553,166)"/>
<path d="M0 0 C0.99 0.495 0.99 0.495 2 1 C2.625 3.0625 2.625 3.0625 3 5 C2.01 4.67 1.02 4.34 0 4 C0 2.68 0 1.36 0 0 Z " fill="#5D6C7B" transform="translate(402,156)"/>
<path d="M0 0 C1.98 0.99 1.98 0.99 4 2 C2.68 2 1.36 2 0 2 C0 1.34 0 0.68 0 0 Z " fill="#EDF5F8" transform="translate(86,158)"/>
<path d="M0 0 C0.66 0 1.32 0 2 0 C2.33 1.32 2.66 2.64 3 4 C2.01 3.67 1.02 3.34 0 3 C0 2.01 0 1.02 0 0 Z " fill="#C2DCF0" transform="translate(59,127)"/>
<path d="M0 0 C1.32 0 2.64 0 4 0 C3.67 0.66 3.34 1.32 3 2 C1.68 1.67 0.36 1.34 -1 1 C-0.67 0.67 -0.34 0.34 0 0 Z " fill="#7B7F83" transform="translate(577,101)"/>
<path d="M0 0 C0.99 0.99 1.98 1.98 3 3 C2.34 3.66 1.68 4.32 1 5 C0.67 3.35 0.34 1.7 0 0 Z " fill="#CCD1D8" transform="translate(379,94)"/>
<path d="M0 0 C2.31 0 4.62 0 7 0 C7 0.33 7 0.66 7 1 C4.69 1 2.38 1 0 1 C0 0.67 0 0.34 0 0 Z " fill="#181819" transform="translate(54,230)"/>
<path d="M0 0 C1.32 0.33 2.64 0.66 4 1 C2.68 1.33 1.36 1.66 0 2 C0 1.34 0 0.68 0 0 Z " fill="#5A6A7A" transform="translate(422,180)"/>
<path d="M0 0 C0.99 0.495 0.99 0.495 2 1 C2 1.99 2 2.98 2 4 C1.34 4 0.68 4 0 4 C0 2.68 0 1.36 0 0 Z " fill="#F4F3F5" transform="translate(148,168)"/>
<path d="M0 0 C1.32 0.33 2.64 0.66 4 1 C3.67 1.66 3.34 2.32 3 3 C2.34 3 1.68 3 1 3 C0.67 2.01 0.34 1.02 0 0 Z " fill="#617180" transform="translate(402,165)"/>
<path d="M0 0 C0.99 0.99 1.98 1.98 3 3 C2.01 3 1.02 3 0 3 C0 2.01 0 1.02 0 0 Z " fill="#5C6B7B" transform="translate(405,157)"/>
<path d="M0 0 C1.32 0 2.64 0 4 0 C3.67 0.66 3.34 1.32 3 2 C2.01 2 1.02 2 0 2 C0 1.34 0 0.68 0 0 Z " fill="#5D6D7D" transform="translate(383,157)"/>
<path d="M0 0 C1.32 0 2.64 0 4 0 C3.67 0.66 3.34 1.32 3 2 C2.01 2 1.02 2 0 2 C0 1.34 0 0.68 0 0 Z " fill="#5A6A7A" transform="translate(406,154)"/>
<path d="M0 0 C0.99 0 1.98 0 3 0 C3 0.99 3 1.98 3 3 C2.34 3 1.68 3 1 3 C0.67 2.01 0.34 1.02 0 0 Z " fill="#FBFBF9" transform="translate(87,138)"/>
<path d="M0 0 C0.33 0.99 0.66 1.98 1 3 C0.01 3 -0.98 3 -2 3 C-2 2.34 -2 1.68 -2 1 C-1.34 0.67 -0.68 0.34 0 0 Z " fill="#E5E3E4" transform="translate(49,134)"/>
<path d="M0 0 C1.32 0.33 2.64 0.66 4 1 C2.02 1.99 2.02 1.99 0 3 C0 2.01 0 1.02 0 0 Z " fill="#DCCBBD" transform="translate(37,135)"/>
<path d="M0 0 C2.31 0 4.62 0 7 0 C7 0.33 7 0.66 7 1 C4.69 1 2.38 1 0 1 C0 0.67 0 0.34 0 0 Z " fill="#8092A3" transform="translate(394,107)"/>
<path d="M0 0 C0.66 0.33 1.32 0.66 2 1 C1.01 2.485 1.01 2.485 0 4 C0 2.68 0 1.36 0 0 Z " fill="#7A7E85" transform="translate(434,93)"/>
<path d="M0 0 C0.66 0 1.32 0 2 0 C2 0.99 2 1.98 2 3 C1.34 3 0.68 3 0 3 C0 2.01 0 1.02 0 0 Z " fill="#865F71" transform="translate(372,206)"/>
<path d="M0 0 C0.99 0 1.98 0 3 0 C2.67 0.99 2.34 1.98 2 3 C1.34 2.01 0.68 1.02 0 0 Z " fill="#5D6878" transform="translate(426,203)"/>
<path d="M0 0 C1.32 0 2.64 0 4 0 C4 0.66 4 1.32 4 2 C2.68 1.34 1.36 0.68 0 0 Z " fill="#85405E" transform="translate(372,177)"/>
<path d="M0 0 C1.98 0.99 1.98 0.99 4 2 C2.68 2 1.36 2 0 2 C0 1.34 0 0.68 0 0 Z " fill="#59697A" transform="translate(389,154)"/>
<path d="M0 0 C0.99 0.33 1.98 0.66 3 1 C2.67 1.66 2.34 2.32 2 3 C1.34 3 0.68 3 0 3 C0 2.01 0 1.02 0 0 Z " fill="#BAC4CD" transform="translate(42,149)"/>
<path d="M0 0 C0.33 1.32 0.66 2.64 1 4 C0.34 4 -0.32 4 -1 4 C-0.67 2.68 -0.34 1.36 0 0 Z " fill="#5B6B7B" transform="translate(404,141)"/>
<path d="M0 0 C0.99 0 1.98 0 3 0 C2.67 0.99 2.34 1.98 2 3 C1.34 2.01 0.68 1.02 0 0 Z " fill="#C7DFF1" transform="translate(18,139)"/>
<path d="M0 0 C1.32 0 2.64 0 4 0 C4 0.66 4 1.32 4 2 C2.68 1.34 1.36 0.68 0 0 Z " fill="#5B6A7A" transform="translate(385,133)"/>
<path d="M0 0 C0.66 0 1.32 0 2 0 C2.33 0.99 2.66 1.98 3 3 C2.01 3.495 2.01 3.495 1 4 C0.67 2.68 0.34 1.36 0 0 Z " fill="#5B6B7B" transform="translate(402,129)"/>
<path d="M0 0 C0.99 0.33 1.98 0.66 3 1 C2.01 1.66 1.02 2.32 0 3 C0 2.01 0 1.02 0 0 Z " fill="#B9CAD7" transform="translate(76,110)"/>
<path d="M0 0 C0.66 0 1.32 0 2 0 C2 0.99 2 1.98 2 3 C1.01 2.67 0.02 2.34 -1 2 C-0.67 1.34 -0.34 0.68 0 0 Z " fill="#A38D6C" transform="translate(57,107)"/>
<path d="M0 0 C0.66 0.99 1.32 1.98 2 3 C1.01 3 0.02 3 -1 3 C-0.67 2.01 -0.34 1.02 0 0 Z " fill="#F9F9FA" transform="translate(436,103)"/>
<path d="M0 0 C2 2 2 2 2 4 C1.34 4 0.68 4 0 4 C0 2.68 0 1.36 0 0 Z " fill="#2D2C30" transform="translate(568,100)"/>
<path d="M0 0 C0 0.99 0 1.98 0 3 C-0.99 2.34 -1.98 1.68 -3 1 C-2.01 0.67 -1.02 0.34 0 0 Z " fill="#5EB3EE" transform="translate(84,102)"/>
<path d="M0 0 C0.33 0 0.66 0 1 0 C1 1.98 1 3.96 1 6 C0.67 6 0.34 6 0 6 C0 4.02 0 2.04 0 0 Z " fill="#FEFEFE" transform="translate(436,94)"/>
<path d="M0 0 C1.98 0.99 1.98 0.99 4 2 C2.68 2 1.36 2 0 2 C0 1.34 0 0.68 0 0 Z " fill="#FFFDFF" transform="translate(76,77)"/>
<path d="M0 0 C0.66 0.66 1.32 1.32 2 2 C1.01 2 0.02 2 -1 2 C-0.67 1.34 -0.34 0.68 0 0 Z " fill="#D2D2D3" transform="translate(80,237)"/>
<path d="M0 0 C0.66 0.66 1.32 1.32 2 2 C1.01 2 0.02 2 -1 2 C-0.67 1.34 -0.34 0.68 0 0 Z " fill="#D2D2D3" transform="translate(77,237)"/>
<path d="M0 0 C0.66 0.66 1.32 1.32 2 2 C1.01 2 0.02 2 -1 2 C-0.67 1.34 -0.34 0.68 0 0 Z " fill="#D2D2D3" transform="translate(74,237)"/>
<path d="M0 0 C0.66 0.66 1.32 1.32 2 2 C1.01 2 0.02 2 -1 2 C-0.67 1.34 -0.34 0.68 0 0 Z " fill="#D2D2D3" transform="translate(71,237)"/>
<path d="M0 0 C0.66 0.66 1.32 1.32 2 2 C1.01 2 0.02 2 -1 2 C-0.67 1.34 -0.34 0.68 0 0 Z " fill="#D2D2D3" transform="translate(68,237)"/>
<path d="M0 0 C0.66 0.66 1.32 1.32 2 2 C1.01 2 0.02 2 -1 2 C-0.67 1.34 -0.34 0.68 0 0 Z " fill="#D2D2D3" transform="translate(65,237)"/>
<path d="M0 0 C0.66 0.66 1.32 1.32 2 2 C1.01 2 0.02 2 -1 2 C-0.67 1.34 -0.34 0.68 0 0 Z " fill="#D2D2D3" transform="translate(62,237)"/>
<path d="M0 0 C0.66 0.66 1.32 1.32 2 2 C1.01 2 0.02 2 -1 2 C-0.67 1.34 -0.34 0.68 0 0 Z " fill="#D2D2D3" transform="translate(59,237)"/>
<path d="M0 0 C0.66 0.66 1.32 1.32 2 2 C1.01 2 0.02 2 -1 2 C-0.67 1.34 -0.34 0.68 0 0 Z " fill="#D2D2D3" transform="translate(56,237)"/>
<path d="M0 0 C0.66 0.66 1.32 1.32 2 2 C1.01 2 0.02 2 -1 2 C-0.67 1.34 -0.34 0.68 0 0 Z " fill="#D2D2D3" transform="translate(53,237)"/>
<path d="M0 0 C0.66 0.66 1.32 1.32 2 2 C1.01 2 0.02 2 -1 2 C-0.67 1.34 -0.34 0.68 0 0 Z " fill="#D2D2D3" transform="translate(50,237)"/>
<path d="M0 0 C0.66 0.66 1.32 1.32 2 2 C1.01 2 0.02 2 -1 2 C-0.67 1.34 -0.34 0.68 0 0 Z " fill="#D2D2D3" transform="translate(47,237)"/>
<path d="M0 0 C0.66 0.66 1.32 1.32 2 2 C1.01 2 0.02 2 -1 2 C-0.67 1.34 -0.34 0.68 0 0 Z " fill="#D2D2D3" transform="translate(44,237)"/>
<path d="M0 0 C0.66 0.66 1.32 1.32 2 2 C1.01 2 0.02 2 -1 2 C-0.67 1.34 -0.34 0.68 0 0 Z " fill="#D2D2D3" transform="translate(41,237)"/>
<path d="M0 0 C0.66 0.66 1.32 1.32 2 2 C1.01 2 0.02 2 -1 2 C-0.67 1.34 -0.34 0.68 0 0 Z " fill="#D2D2D3" transform="translate(38,237)"/>
<path d="M0 0 C0.66 0.66 1.32 1.32 2 2 C1.01 2 0.02 2 -1 2 C-0.67 1.34 -0.34 0.68 0 0 Z " fill="#D2D2D3" transform="translate(35,237)"/>
<path d="M0 0 C0.66 0.66 1.32 1.32 2 2 C1.01 2 0.02 2 -1 2 C-0.67 1.34 -0.34 0.68 0 0 Z " fill="#D2D2D3" transform="translate(32,237)"/>
<path d="M0 0 C0.66 0.66 1.32 1.32 2 2 C1.01 2 0.02 2 -1 2 C-0.67 1.34 -0.34 0.68 0 0 Z " fill="#D2D2D3" transform="translate(29,237)"/>
<path d="M0 0 C0.66 0.66 1.32 1.32 2 2 C1.01 2 0.02 2 -1 2 C-0.67 1.34 -0.34 0.68 0 0 Z " fill="#D2D2D3" transform="translate(26,237)"/>
<path d="M0 0 C0.66 0.66 1.32 1.32 2 2 C1.01 2 0.02 2 -1 2 C-0.67 1.34 -0.34 0.68 0 0 Z " fill="#D2D2D3" transform="translate(23,237)"/>
<path d="M0 0 C0.66 0.66 1.32 1.32 2 2 C1.01 2 0.02 2 -1 2 C-0.67 1.34 -0.34 0.68 0 0 Z " fill="#D2D2D3" transform="translate(20,237)"/>
<path d="M0 0 C0.66 0.66 1.32 1.32 2 2 C1.01 2 0.02 2 -1 2 C-0.67 1.34 -0.34 0.68 0 0 Z " fill="#D2D2D3" transform="translate(17,237)"/>
<path d="M0 0 C0.66 0.66 1.32 1.32 2 2 C1.01 2 0.02 2 -1 2 C-0.67 1.34 -0.34 0.68 0 0 Z " fill="#D2D2D3" transform="translate(14,237)"/>
<path d="M0 0 C0.66 0.66 1.32 1.32 2 2 C1.01 2 0.02 2 -1 2 C-0.67 1.34 -0.34 0.68 0 0 Z " fill="#D2D2D3" transform="translate(11,237)"/>
<path d="M0 0 C0.66 0.66 1.32 1.32 2 2 C1.01 2 0.02 2 -1 2 C-0.67 1.34 -0.34 0.68 0 0 Z " fill="#1B1B1D" transform="translate(7,233)"/>
<path d="M0 0 C0.99 0.33 1.98 0.66 3 1 C2.01 1.33 1.02 1.66 0 2 C0 1.34 0 0.68 0 0 Z " fill="#444445" transform="translate(43,229)"/>
<path d="M0 0 C1.32 0.33 2.64 0.66 4 1 C3.01 1.33 2.02 1.66 1 2 C0.67 1.34 0.34 0.68 0 0 Z " fill="#2A2A2C" transform="translate(50,219)"/>
<path d="M0 0 C0.99 0 1.98 0 3 0 C3 0.66 3 1.32 3 2 C2.01 2 1.02 2 0 2 C0 1.34 0 0.68 0 0 Z " fill="#84767F" transform="translate(384,207)"/>
<path d="M0 0 C0.99 0.33 1.98 0.66 3 1 C2.01 1.33 1.02 1.66 0 2 C0 1.34 0 0.68 0 0 Z " fill="#B3B494" transform="translate(513,191)"/>
<path d="M0 0 C0.33 0.66 0.66 1.32 1 2 C0.34 2.66 -0.32 3.32 -1 4 C-0.67 2.68 -0.34 1.36 0 0 Z " fill="#5C6C7C" transform="translate(397,188)"/>
<path d="M0 0 C1.32 0.33 2.64 0.66 4 1 C2.68 1.33 1.36 1.66 0 2 C0 1.34 0 0.68 0 0 Z " fill="#CACACA" transform="translate(544,171)"/>
<path d="M0 0 C0.66 0 1.32 0 2 0 C2 0.66 2 1.32 2 2 C1.01 1.67 0.02 1.34 -1 1 C-0.67 0.67 -0.34 0.34 0 0 Z " fill="#5A6979" transform="translate(411,170)"/>
<path d="M0 0 C0.99 0 1.98 0 3 0 C2.67 0.66 2.34 1.32 2 2 C1.34 2 0.68 2 0 2 C0 1.34 0 0.68 0 0 Z " fill="#F0EFEE" transform="translate(547,168)"/>
<path d="M0 0 C1.98 0.99 1.98 0.99 4 2 C2.68 1.67 1.36 1.34 0 1 C0 0.67 0 0.34 0 0 Z " fill="#59697A" transform="translate(398,165)"/>
<path d="M0 0 C0 0.99 0 1.98 0 3 C-0.66 2.34 -1.32 1.68 -2 1 C-1.34 0.67 -0.68 0.34 0 0 Z " fill="#5A6A7B" transform="translate(410,164)"/>
<path d="M0 0 C0 0.99 0 1.98 0 3 C-0.66 2.34 -1.32 1.68 -2 1 C-1.34 0.67 -0.68 0.34 0 0 Z " fill="#5A6A7A" transform="translate(389,164)"/>
<path d="M0 0 C0.99 0.33 1.98 0.66 3 1 C2.01 1.33 1.02 1.66 0 2 C0 1.34 0 0.68 0 0 Z " fill="#ABACAE" transform="translate(553,162)"/>
<path d="M0 0 C0.99 0.495 0.99 0.495 2 1 C2 1.66 2 2.32 2 3 C1.34 3 0.68 3 0 3 C0 2.01 0 1.02 0 0 Z " fill="#B6B5B6" transform="translate(506,158)"/>
<path d="M0 0 C0.99 0 1.98 0 3 0 C3 0.66 3 1.32 3 2 C2.01 1.67 1.02 1.34 0 1 C0 0.67 0 0.34 0 0 Z " fill="#C7CBD1" transform="translate(43,147)"/>
<path d="M0 0 C0.33 0.66 0.66 1.32 1 2 C1.66 2.33 2.32 2.66 3 3 C2.01 3 1.02 3 0 3 C0 2.01 0 1.02 0 0 Z " fill="#858587" transform="translate(359,143)"/>
<path d="M0 0 C0.66 0 1.32 0 2 0 C1.67 0.99 1.34 1.98 1 3 C0.67 2.01 0.34 1.02 0 0 Z " fill="#72BBE9" transform="translate(7,144)"/>
<path d="M0 0 C0.99 0.33 1.98 0.66 3 1 C2.01 1.33 1.02 1.66 0 2 C0 1.34 0 0.68 0 0 Z " fill="#5A6A7A" transform="translate(412,138)"/>
<path d="M0 0 C0.66 0.33 1.32 0.66 2 1 C1.67 1.66 1.34 2.32 1 3 C0.34 2.34 -0.32 1.68 -1 1 C-0.67 0.67 -0.34 0.34 0 0 Z " fill="#5B697A" transform="translate(401,137)"/>
<path d="M0 0 C0.99 0.495 0.99 0.495 2 1 C1.01 2.485 1.01 2.485 0 4 C0 2.68 0 1.36 0 0 Z " fill="#5A80A4" transform="translate(35,138)"/>
<path d="M0 0 C1.98 0.99 1.98 0.99 4 2 C2.68 2 1.36 2 0 2 C0 1.34 0 0.68 0 0 Z " fill="#667585" transform="translate(380,134)"/>
<path d="M0 0 C0.99 0 1.98 0 3 0 C3 0.66 3 1.32 3 2 C2.01 1.67 1.02 1.34 0 1 C0 0.67 0 0.34 0 0 Z " fill="#5B6A7A" transform="translate(396,133)"/>
<path d="M0 0 C0.66 0 1.32 0 2 0 C2 0.99 2 1.98 2 3 C1.34 2.67 0.68 2.34 0 2 C0 1.34 0 0.68 0 0 Z " fill="#5B697A" transform="translate(416,132)"/>
<path d="M0 0 C1.32 0.33 2.64 0.66 4 1 C3.01 1.495 3.01 1.495 2 2 C1.34 1.34 0.68 0.68 0 0 Z " fill="#8F9EAB" transform="translate(392,130)"/>
<path d="M0 0 C0.33 0 0.66 0 1 0 C1 1.65 1 3.3 1 5 C0.67 5 0.34 5 0 5 C0 3.35 0 1.7 0 0 Z " fill="#E1C9B7" transform="translate(42,129)"/>
<path d="M0 0 C1.32 0 2.64 0 4 0 C3.67 0.66 3.34 1.32 3 2 C2.01 1.34 1.02 0.68 0 0 Z " fill="#5D6D7D" transform="translate(423,125)"/>
<path d="M0 0 C0.66 0 1.32 0 2 0 C2.33 0.99 2.66 1.98 3 3 C2.34 3 1.68 3 1 3 C0.67 2.01 0.34 1.02 0 0 Z " fill="#5A6A7A" transform="translate(381,121)"/>
<path d="M0 0 C0.66 0.99 1.32 1.98 2 3 C1.01 2.67 0.02 2.34 -1 2 C-0.67 1.34 -0.34 0.68 0 0 Z " fill="#F2ECE8" transform="translate(81,118)"/>
<path d="M0 0 C0.66 0 1.32 0 2 0 C1.67 0.99 1.34 1.98 1 3 C0.67 2.01 0.34 1.02 0 0 Z " fill="#878073" transform="translate(56,113)"/>
<path d="M0 0 C0.99 0.495 0.99 0.495 2 1 C2 1.66 2 2.32 2 3 C1.34 3 0.68 3 0 3 C0 2.01 0 1.02 0 0 Z " fill="#7F90A0" transform="translate(380,104)"/>
<path d="M0 0 C0.66 0 1.32 0 2 0 C2 0.66 2 1.32 2 2 C1.34 2 0.68 2 0 2 C0 1.34 0 0.68 0 0 Z " fill="#666567" transform="translate(8,236)"/>
<path d="M0 0 C0.33 0.99 0.66 1.98 1 3 C0.34 2.67 -0.32 2.34 -1 2 C-0.67 1.34 -0.34 0.68 0 0 Z " fill="#444445" transform="translate(4,234)"/>
<path d="M0 0 C4 1 4 1 4 1 Z " fill="#141415" transform="translate(81,234)"/>
<path d="M0 0 C1.485 0.99 1.485 0.99 3 2 C2.01 2 1.02 2 0 2 C0 1.34 0 0.68 0 0 Z " fill="#222121" transform="translate(34,227)"/>
<path d="M0 0 C1 4 1 4 1 4 Z " fill="#858588" transform="translate(412,213)"/>
<path d="M0 0 C0 3 0 3 0 3 Z " fill="#858587" transform="translate(527,212)"/>
<path d="M0 0 C0.66 0.66 1.32 1.32 2 2 C1.01 1.67 0.02 1.34 -1 1 C-0.67 0.67 -0.34 0.34 0 0 Z " fill="#5E6D7D" transform="translate(384,188)"/>
<path d="M0 0 C0.99 0.33 1.98 0.66 3 1 C2.01 1 1.02 1 0 1 C0 0.67 0 0.34 0 0 Z " fill="#62586D" transform="translate(377,179)"/>
<path d="M0 0 C0.66 0.33 1.32 0.66 2 1 C1.01 1 0.02 1 -1 1 C-0.67 0.67 -0.34 0.34 0 0 Z " fill="#627282" transform="translate(428,177)"/>
<path d="M0 0 C0.66 0 1.32 0 2 0 C2 0.66 2 1.32 2 2 C1.34 2 0.68 2 0 2 C0 1.34 0 0.68 0 0 Z " fill="#FDFCFA" transform="translate(88,169)"/>
<path d="M0 0 C0.99 0.33 1.98 0.66 3 1 C2.01 1 1.02 1 0 1 C0 0.67 0 0.34 0 0 Z " fill="#6F7E8D" transform="translate(425,162)"/>
<path d="M0 0 C4 1 4 1 4 1 Z " fill="#5D6C7B" transform="translate(391,163)"/>
<path d="M0 0 C0.99 0 1.98 0 3 0 C2.67 0.66 2.34 1.32 2 2 C1.34 1.34 0.68 0.68 0 0 Z " fill="#E2EFF8" transform="translate(525,154)"/>
<path d="M0 0 C0.99 0.33 1.98 0.66 3 1 C2.01 1 1.02 1 0 1 C0 0.67 0 0.34 0 0 Z " fill="#5A6A7B" transform="translate(382,154)"/>
<path d="M0 0 C0.99 0.495 0.99 0.495 2 1 C1.34 1.66 0.68 2.32 0 3 C0 2.01 0 1.02 0 0 Z " fill="#E0E1E5" transform="translate(46,151)"/>
<path d="M0 0 C0.66 0 1.32 0 2 0 C2 0.66 2 1.32 2 2 C1.34 2 0.68 2 0 2 C0 1.34 0 0.68 0 0 Z " fill="#F1F1F2" transform="translate(65,151)"/>
<path d="M0 0 C0.99 0.33 1.98 0.66 3 1 C2.01 1 1.02 1 0 1 C0 0.67 0 0.34 0 0 Z " fill="#F0EFEF" transform="translate(556,149)"/>
<path d="M0 0 C0.99 0.33 1.98 0.66 3 1 C2.01 1 1.02 1 0 1 C0 0.67 0 0.34 0 0 Z " fill="#D5E4F0" transform="translate(9,149)"/>
<path d="M0 0 C0.99 0.33 1.98 0.66 3 1 C2.01 1 1.02 1 0 1 C0 0.67 0 0.34 0 0 Z " fill="#5AB2ED" transform="translate(516,147)"/>
<path d="M0 0 C0.66 0.66 1.32 1.32 2 2 C1.01 1.67 0.02 1.34 -1 1 C-0.67 0.67 -0.34 0.34 0 0 Z " fill="#828284" transform="translate(357,145)"/>
<path d="M0 0 C1 4 1 4 1 4 Z " fill="#5B6B7B" transform="translate(406,142)"/>
<path d="M0 0 C0.66 0 1.32 0 2 0 C2 0.66 2 1.32 2 2 C1.34 2 0.68 2 0 2 C0 1.34 0 0.68 0 0 Z " fill="#9D9C9D" transform="translate(354,142)"/>
<path d="M0 0 C0.66 0.66 1.32 1.32 2 2 C1.01 1.67 0.02 1.34 -1 1 C-0.67 0.67 -0.34 0.34 0 0 Z " fill="#6890BF" transform="translate(38,138)"/>
<path d="M0 0 C0.99 0.33 1.98 0.66 3 1 C2.01 1 1.02 1 0 1 C0 0.67 0 0.34 0 0 Z " fill="#5A6A7A" transform="translate(405,138)"/>
<path d="M0 0 C1.485 0.99 1.485 0.99 3 2 C2.01 2 1.02 2 0 2 C0 1.34 0 0.68 0 0 Z " fill="#F3F1F3" transform="translate(52,135)"/>
<path d="M0 0 C0.99 0 1.98 0 3 0 C2.67 0.66 2.34 1.32 2 2 C1.34 1.34 0.68 0.68 0 0 Z " fill="#9CA4AD" transform="translate(42,135)"/>
<path d="M0 0 C0.66 0 1.32 0 2 0 C2 0.66 2 1.32 2 2 C1.34 2 0.68 2 0 2 C0 1.34 0 0.68 0 0 Z " fill="#A7C0D5" transform="translate(43,127)"/>
<path d="M0 0 C0.99 0 1.98 0 3 0 C2.67 0.66 2.34 1.32 2 2 C1.34 1.34 0.68 0.68 0 0 Z " fill="#737E89" transform="translate(398,120)"/>
<path d="M0 0 C0.99 0.33 1.98 0.66 3 1 C2.01 1.33 1.02 1.66 0 2 C0 1.34 0 0.68 0 0 Z " fill="#2D2C30" transform="translate(555,112)"/>
<path d="M0 0 C1.485 0.99 1.485 0.99 3 2 C2.01 2 1.02 2 0 2 C0 1.34 0 0.68 0 0 Z " fill="#5EB2EE" transform="translate(80,109)"/>
<path d="M0 0 C0.66 0.33 1.32 0.66 2 1 C1.01 1 0.02 1 -1 1 C-0.67 0.67 -0.34 0.34 0 0 Z " fill="#5DB3EE" transform="translate(67,108)"/>
<path d="M0 0 C4 1 4 1 4 1 Z " fill="#8495A6" transform="translate(389,107)"/>
<path d="M0 0 C1 4 1 4 1 4 Z " fill="#FFFFFF" transform="translate(89,102)"/>
<path d="M0 0 C0.99 0.33 1.98 0.66 3 1 C2.01 1 1.02 1 0 1 C0 0.67 0 0.34 0 0 Z " fill="#586072" transform="translate(377,101)"/>
<path d="M0 0 C0.66 0 1.32 0 2 0 C1.67 0.99 1.34 1.98 1 3 C0.67 2.01 0.34 1.02 0 0 Z " fill="#F6F9F9" transform="translate(87,99)"/>
<path d="M0 0 C4 1 4 1 4 1 Z " fill="#60B3EE" transform="translate(80,101)"/>
<path d="M0 0 C4 1 4 1 4 1 Z " fill="#7F8286" transform="translate(574,99)"/>
<path d="M0 0 C4 1 4 1 4 1 Z " fill="#FFFEFF" transform="translate(428,95)"/>
<path d="M0 0 C0.99 0.33 1.98 0.66 3 1 C2.01 1 1.02 1 0 1 C0 0.67 0 0.34 0 0 Z " fill="#998667" transform="translate(58,74)"/>
<path d="M0 0 C3 1 3 1 3 1 Z " fill="#FFFFFF" transform="translate(0,238)"/>
<path d="M0 0 C0.33 0.66 0.66 1.32 1 2 C0.34 1.67 -0.32 1.34 -1 1 C-0.67 0.67 -0.34 0.34 0 0 Z " fill="#151517" transform="translate(46,231)"/>
<path d="M0 0 C0.66 0 1.32 0 2 0 C1.67 0.66 1.34 1.32 1 2 C0.67 1.34 0.34 0.68 0 0 Z " fill="#181819" transform="translate(86,230)"/>
<path d="M0 0 C3 1 3 1 3 1 Z " fill="#18181A" transform="translate(81,220)"/>
<path d="M0 0 C3 1 3 1 3 1 Z " fill="#817C81" transform="translate(406,206)"/>
<path d="M0 0 C3 1 3 1 3 1 Z " fill="#753A5F" transform="translate(403,205)"/>
<path d="M0 0 C0.66 0.66 1.32 1.32 2 2 C1.34 2 0.68 2 0 2 C0 1.34 0 0.68 0 0 Z " fill="#7E1F49" transform="translate(374,204)"/>
<path d="M0 0 C3 1 3 1 3 1 Z " fill="#5A6979" transform="translate(408,204)"/>
<path d="M0 0 C0.66 0 1.32 0 2 0 C1.67 0.66 1.34 1.32 1 2 C0.67 1.34 0.34 0.68 0 0 Z " fill="#7E1F49" transform="translate(365,204)"/>
<path d="M0 0 C0.99 0.495 0.99 0.495 2 1 C1.01 1.495 1.01 1.495 0 2 C0 1.34 0 0.68 0 0 Z " fill="#5B6A7A" transform="translate(384,203)"/>
<path d="M0 0 C0.66 0 1.32 0 2 0 C1.67 0.66 1.34 1.32 1 2 C0.67 1.34 0.34 0.68 0 0 Z " fill="#5B6B7B" transform="translate(395,201)"/>
<path d="M0 0 C0.66 0.66 1.32 1.32 2 2 C1.34 2 0.68 2 0 2 C0 1.34 0 0.68 0 0 Z " fill="#7D254E" transform="translate(372,198)"/>
<path d="M0 0 C0.66 0 1.32 0 2 0 C1.67 0.66 1.34 1.32 1 2 C0.67 1.34 0.34 0.68 0 0 Z " fill="#5B6B7B" transform="translate(397,197)"/>
<path d="M0 0 C0.33 0.66 0.66 1.32 1 2 C0.34 1.67 -0.32 1.34 -1 1 C-0.67 0.67 -0.34 0.34 0 0 Z " fill="#5D6C7D" transform="translate(391,195)"/>
<path d="M0 0 C0.66 0.66 1.32 1.32 2 2 C1.34 2 0.68 2 0 2 C0 1.34 0 0.68 0 0 Z " fill="#5B6A7A" transform="translate(385,195)"/>
<path d="M0 0 C0.99 0.495 0.99 0.495 2 1 C1.01 1.495 1.01 1.495 0 2 C0 1.34 0 0.68 0 0 Z " fill="#5D6D7D" transform="translate(386,187)"/>
<path d="" fill="#5A6A7B" transform="translate(0,0)"/>
<path d="" fill="#5E6E7E" transform="translate(0,0)"/>
<path d="" fill="#58697A" transform="translate(0,0)"/>
<path d="M0 0 C0.99 0.495 0.99 0.495 2 1 C1.01 1.495 1.01 1.495 0 2 C0 1.34 0 0.68 0 0 Z " fill="#5A6A7B" transform="translate(427,180)"/>
<path d="M0 0 C0.33 0.66 0.66 1.32 1 2 C0.34 1.67 -0.32 1.34 -1 1 C-0.67 0.67 -0.34 0.34 0 0 Z " fill="#5C6C7C" transform="translate(400,173)"/>
<path d="" fill="#586979" transform="translate(0,0)"/>
<path d="M0 0 C0.99 0.495 0.99 0.495 2 1 C1.01 1.495 1.01 1.495 0 2 C0 1.34 0 0.68 0 0 Z " fill="#E1E6E6" transform="translate(552,156)"/>
<path d="M0 0 C0.99 0.495 0.99 0.495 2 1 C1.01 1.495 1.01 1.495 0 2 C0 1.34 0 0.68 0 0 Z " fill="#7E898B" transform="translate(550,155)"/>
<path d="M0 0 C3 1 3 1 3 1 Z " fill="#F7F7F8" transform="translate(77,154)"/>
<path d="M0 0 C0.33 0.66 0.66 1.32 1 2 C0.34 1.67 -0.32 1.34 -1 1 C-0.67 0.67 -0.34 0.34 0 0 Z " fill="#F3F1F4" transform="translate(13,152)"/>
<path d="" fill="#F8F8F9" transform="translate(0,0)"/>
<path d="M0 0 C3 1 3 1 3 1 Z " fill="#8BC6F0" transform="translate(521,150)"/>
<path d="" fill="#7FC6F6" transform="translate(0,0)"/>
<path d="M0 0 C0.66 0 1.32 0 2 0 C1.67 0.66 1.34 1.32 1 2 C0.67 1.34 0.34 0.68 0 0 Z " fill="#A8B3BD" transform="translate(553,147)"/>
<path d="M0 0 C0.66 0 1.32 0 2 0 C1.67 0.66 1.34 1.32 1 2 C0.67 1.34 0.34 0.68 0 0 Z " fill="#F3F1F4" transform="translate(18,145)"/>
<path d="M0 0 C3 1 3 1 3 1 Z " fill="#E0DFE1" transform="translate(52,143)"/>
<path d="M0 0 C3 1 3 1 3 1 Z " fill="#5F6E7E" transform="translate(412,141)"/>
<path d="M0 0 C0.66 0.66 1.32 1.32 2 2 C1.34 2 0.68 2 0 2 C0 1.34 0 0.68 0 0 Z " fill="#5A697A" transform="translate(416,138)"/>
<path d="M0 0 C0.33 0.66 0.66 1.32 1 2 C0.34 1.67 -0.32 1.34 -1 1 C-0.67 0.67 -0.34 0.34 0 0 Z " fill="#60B3EE" transform="translate(7,139)"/>
<path d="M0 0 C0.66 0.66 1.32 1.32 2 2 C1.34 2 0.68 2 0 2 C0 1.34 0 0.68 0 0 Z " fill="#868588" transform="translate(361,137)"/>
<path d="M0 0 C0.33 0.66 0.66 1.32 1 2 C0.34 1.67 -0.32 1.34 -1 1 C-0.67 0.67 -0.34 0.34 0 0 Z " fill="#687684" transform="translate(410,136)"/>
<path d="M0 0 C0.99 0.495 0.99 0.495 2 1 C1.01 1.495 1.01 1.495 0 2 C0 1.34 0 0.68 0 0 Z " fill="#5D6C7D" transform="translate(396,137)"/>
<path d="M0 0 C3 1 3 1 3 1 Z " fill="#596979" transform="translate(409,134)"/>
<path d="M0 0 C0.99 0.495 0.99 0.495 2 1 C1.01 1.495 1.01 1.495 0 2 C0 1.34 0 0.68 0 0 Z " fill="#5B6B7B" transform="translate(404,133)"/>
<path d="M0 0 C0.33 0.66 0.66 1.32 1 2 C0.34 1.67 -0.32 1.34 -1 1 C-0.67 0.67 -0.34 0.34 0 0 Z " fill="#5D6C7D" transform="translate(382,131)"/>
<path d="M0 0 C0.33 0.66 0.66 1.32 1 2 C0.34 1.67 -0.32 1.34 -1 1 C-0.67 0.67 -0.34 0.34 0 0 Z " fill="#5FB3EE" transform="translate(83,132)"/>
<path d="" fill="#5B6B7C" transform="translate(0,0)"/>
<path d="M0 0 C0.99 0.495 0.99 0.495 2 1 C1.01 1.495 1.01 1.495 0 2 C0 1.34 0 0.68 0 0 Z " fill="#5C6C7C" transform="translate(428,125)"/>
<path d="M0 0 C0.99 0.495 0.99 0.495 2 1 C1.01 1.495 1.01 1.495 0 2 C0 1.34 0 0.68 0 0 Z " fill="#5D6C7C" transform="translate(407,125)"/>
<path d="M0 0 C0.66 0 1.32 0 2 0 C1.67 0.66 1.34 1.32 1 2 C0.67 1.34 0.34 0.68 0 0 Z " fill="#F5F7F8" transform="translate(84,121)"/>
<path d="M0 0 C0.66 0 1.32 0 2 0 C1.67 0.66 1.34 1.32 1 2 C0.67 1.34 0.34 0.68 0 0 Z " fill="#EDEDEE" transform="translate(69,121)"/>
<path d="M0 0 C0.66 0 1.32 0 2 0 C1.67 0.66 1.34 1.32 1 2 C0.67 1.34 0.34 0.68 0 0 Z " fill="#E5E7E9" transform="translate(57,120)"/>
<path d="M0 0 C0.99 0.495 0.99 0.495 2 1 C1.01 1.495 1.01 1.495 0 2 C0 1.34 0 0.68 0 0 Z " fill="#DDECF4" transform="translate(71,117)"/>
<path d="M0 0 C0.33 0.66 0.66 1.32 1 2 C0.34 1.67 -0.32 1.34 -1 1 C-0.67 0.67 -0.34 0.34 0 0 Z " fill="#627280" transform="translate(387,115)"/>
<path d="M0 0 C0.66 0 1.32 0 2 0 C1.67 0.66 1.34 1.32 1 2 C0.67 1.34 0.34 0.68 0 0 Z " fill="#575C6E" transform="translate(377,111)"/>
<path d="M0 0 C0.66 0 1.32 0 2 0 C1.67 0.66 1.34 1.32 1 2 C0.67 1.34 0.34 0.68 0 0 Z " fill="#5A6A7B" transform="translate(405,109)"/>
<path d="M0 0 C3 1 3 1 3 1 Z " fill="#5A5F70" transform="translate(377,109)"/>
<path d="" fill="#5E6975" transform="translate(0,0)"/>
<path d="M0 0 C3 1 3 1 3 1 Z " fill="#957F5B" transform="translate(56,101)"/>
<path d="M0 0 C0.66 0 1.32 0 2 0 C1.67 0.66 1.34 1.32 1 2 C0.67 1.34 0.34 0.68 0 0 Z " fill="#F1D5C4" transform="translate(70,100)"/>
<path d="M0 0 C0.66 0 1.32 0 2 0 C1.67 0.66 1.34 1.32 1 2 C0.67 1.34 0.34 0.68 0 0 Z " fill="#6C757F" transform="translate(433,98)"/>
<path d="M0 0 C3 1 3 1 3 1 Z " fill="#BFC0C3" transform="translate(82,91)"/>
<path d="M0 0 C0.66 0 1.32 0 2 0 C1.67 0.66 1.34 1.32 1 2 C0.67 1.34 0.34 0.68 0 0 Z " fill="#F9FAFA" transform="translate(60,72)"/>
<path d="M0 0 C2 1 2 1 2 1 Z " fill="#58505A" transform="translate(1,235)"/>
<path d="M0 0 C2 1 2 1 2 1 Z " fill="#141415" transform="translate(78,234)"/>
<path d="M0 0 C2 1 2 1 2 1 Z " fill="#141415" transform="translate(75,234)"/>
<path d="M0 0 C2 1 2 1 2 1 Z " fill="#141415" transform="translate(72,234)"/>
<path d="M0 0 C2 1 2 1 2 1 Z " fill="#151516" transform="translate(39,231)"/>
<path d="" fill="#605F61" transform="translate(0,0)"/>
<path d="M0 0 C2 1 2 1 2 1 Z " fill="#171718" transform="translate(54,220)"/>
<path d="" fill="#F3F1F5" transform="translate(0,0)"/>
<path d="M0 0 C2 1 2 1 2 1 Z " fill="#838385" transform="translate(411,208)"/>
<path d="" fill="#858486" transform="translate(0,0)"/>
<path d="M0 0 C2 1 2 1 2 1 Z " fill="#878789" transform="translate(436,205)"/>
<path d="M0 0 C2 1 2 1 2 1 Z " fill="#5A6A7B" transform="translate(419,204)"/>
<path d="" fill="#7E204A" transform="translate(0,0)"/>
<path d="" fill="#F3F1F5" transform="translate(0,0)"/>
<path d="" fill="#59697A" transform="translate(0,0)"/>
<path d="M0 0 C2 1 2 1 2 1 Z " fill="#7D2850" transform="translate(369,199)"/>
<path d="M0 0 C2 1 2 1 2 1 Z " fill="#7D2850" transform="translate(365,199)"/>
<path d="M0 0 C2 1 2 1 2 1 Z " fill="#F4F3F4" transform="translate(531,197)"/>
<path d="M0 0 C2 1 2 1 2 1 Z " fill="#5C6C7C" transform="translate(394,197)"/>
<path d="" fill="#7F1F48" transform="translate(0,0)"/>
<path d="M0 0 C2 1 2 1 2 1 Z " fill="#FFFFFF" transform="translate(526,196)"/>
<path d="" fill="#5A6A7B" transform="translate(0,0)"/>
<path d="M0 0 C2 1 2 1 2 1 Z " fill="#59697A" transform="translate(425,195)"/>
<path d="M0 0 C2 1 2 1 2 1 Z " fill="#B4B495" transform="translate(517,192)"/>
<path d="" fill="#5C6C7C" transform="translate(0,0)"/>
<path d="M0 0 C2 1 2 1 2 1 Z " fill="#B3B590" transform="translate(518,190)"/>
<path d="M0 0 C2 1 2 1 2 1 Z " fill="#B4B495" transform="translate(512,189)"/>
<path d="M0 0 C2 1 2 1 2 1 Z " fill="#B4B495" transform="translate(510,187)"/>
<path d="M0 0 C2 1 2 1 2 1 Z " fill="#586979" transform="translate(411,185)"/>
<path d="M0 0 C2 1 2 1 2 1 Z " fill="#5C6C7C" transform="translate(408,185)"/>
<path d="M0 0 C2 1 2 1 2 1 Z " fill="#5B6B7B" transform="translate(428,184)"/>
<path d="M0 0 C2 1 2 1 2 1 Z " fill="#5B6A7A" transform="translate(421,183)"/>
<path d="M0 0 C2 1 2 1 2 1 Z " fill="#832854" transform="translate(368,183)"/>
<path d="" fill="#832753" transform="translate(0,0)"/>
<path d="M0 0 C2 1 2 1 2 1 Z " fill="#FEFDFD" transform="translate(85,178)"/>
<path d="M0 0 C2 1 2 1 2 1 Z " fill="#6A4C67" transform="translate(377,177)"/>
<path d="" fill="#5A6A7B" transform="translate(0,0)"/>
<path d="" fill="#5C6C7C" transform="translate(0,0)"/>
<path d="M0 0 C2 1 2 1 2 1 Z " fill="#5B6B7B" transform="translate(422,171)"/>
<path d="M0 0 C2 1 2 1 2 1 Z " fill="#5B6B7B" transform="translate(419,171)"/>
<path d="" fill="#5B6A7A" transform="translate(0,0)"/>
<path d="" fill="#5B6979" transform="translate(0,0)"/>
<path d="" fill="#62707F" transform="translate(0,0)"/>
<path d="" fill="#5D6D7D" transform="translate(0,0)"/>
<path d="" fill="#525252" transform="translate(0,0)"/>
<path d="M0 0 C2 1 2 1 2 1 Z " fill="#FCFBFB" transform="translate(88,167)"/>
<path d="M0 0 C2 1 2 1 2 1 Z " fill="#B3B590" transform="translate(511,165)"/>
<path d="M0 0 C2 1 2 1 2 1 Z " fill="#FCFBFB" transform="translate(88,165)"/>
<path d="M0 0 C2 1 2 1 2 1 Z " fill="#F3F1F4" transform="translate(558,164)"/>
<path d="M0 0 C2 1 2 1 2 1 Z " fill="#5A6A7B" transform="translate(380,164)"/>
<path d="" fill="#F3F1F4" transform="translate(0,0)"/>
<path d="" fill="#BABBA8" transform="translate(0,0)"/>
<path d="M0 0 C2 1 2 1 2 1 Z " fill="#FCFBFB" transform="translate(88,163)"/>
<path d="" fill="#7C9EB2" transform="translate(0,0)"/>
<path d="" fill="#5C6C7C" transform="translate(0,0)"/>
<path d="M0 0 C2 1 2 1 2 1 Z " fill="#C6C5C5" transform="translate(432,159)"/>
<path d="M0 0 C2 1 2 1 2 1 Z " fill="#5A6A7B" transform="translate(378,159)"/>
<path d="M0 0 C2 1 2 1 2 1 Z " fill="#5A6A7B" transform="translate(420,158)"/>
<path d="" fill="#5E6E7E" transform="translate(0,0)"/>
<path d="M0 0 C2 1 2 1 2 1 Z " fill="#C6C5C5" transform="translate(432,157)"/>
<path d="M0 0 C2 1 2 1 2 1 Z " fill="#FDFCFA" transform="translate(517,156)"/>
<path d="" fill="#F5F5F5" transform="translate(0,0)"/>
<path d="" fill="#BED4DE" transform="translate(0,0)"/>
<path d="M0 0 C2 1 2 1 2 1 Z " fill="#EEEDEF" transform="translate(74,153)"/>
<path d="M0 0 C2 1 2 1 2 1 Z " fill="#5DB2EE" transform="translate(520,152)"/>
<path d="M0 0 C2 1 2 1 2 1 Z " fill="#EEEDEF" transform="translate(77,152)"/>
<path d="" fill="#EFEEED" transform="translate(0,0)"/>
<path d="M0 0 C2 1 2 1 2 1 Z " fill="#F4F3F3" transform="translate(9,152)"/>
<path d="" fill="#60B3EE" transform="translate(0,0)"/>
<path d="" fill="#5FAFE5" transform="translate(0,0)"/>
<path d="M0 0 C2 1 2 1 2 1 Z " fill="#F3F1F5" transform="translate(54,150)"/>
<path d="" fill="#5A525B" transform="translate(0,0)"/>
<path d="" fill="#F4F3F3" transform="translate(0,0)"/>
<path d="M0 0 C2 1 2 1 2 1 Z " fill="#61B3EE" transform="translate(527,147)"/>
<path d="" fill="#F1F1F2" transform="translate(0,0)"/>
<path d="M0 0 C2 1 2 1 2 1 Z " fill="#60B3EE" transform="translate(67,145)"/>
<path d="M0 0 C2 1 2 1 2 1 Z " fill="#60B3EE" transform="translate(65,144)"/>
<path d="M0 0 C2 1 2 1 2 1 Z " fill="#DEE0DF" transform="translate(32,144)"/>
<path d="M0 0 C2 1 2 1 2 1 Z " fill="#5EB2ED" transform="translate(58,143)"/>
<path d="M0 0 C2 1 2 1 2 1 Z " fill="#F6F5F7" transform="translate(49,142)"/>
<path d="" fill="#CCCFD5" transform="translate(0,0)"/>
<path d="M0 0 C2 1 2 1 2 1 Z " fill="#63B5EF" transform="translate(8,142)"/>
<path d="M0 0 C2 1 2 1 2 1 Z " fill="#5E6E7E" transform="translate(391,141)"/>
<path d="M0 0 C2 1 2 1 2 1 Z " fill="#F3F1F5" transform="translate(54,141)"/>
<path d="M0 0 C2 1 2 1 2 1 Z " fill="#F3F1F5" transform="translate(47,141)"/>
<path d="M0 0 C2 1 2 1 2 1 Z " fill="#858486" transform="translate(358,140)"/>
<path d="" fill="#60B2ED" transform="translate(0,0)"/>
<path d="M0 0 C2 1 2 1 2 1 Z " fill="#596979" transform="translate(409,139)"/>
<path d="" fill="#67B6EE" transform="translate(0,0)"/>
<path d="" fill="#6AB0DF" transform="translate(0,0)"/>
<path d="" fill="#4582BF" transform="translate(0,0)"/>
<path d="" fill="#868588" transform="translate(0,0)"/>
<path d="" fill="#758392" transform="translate(0,0)"/>
<path d="M0 0 C2 1 2 1 2 1 Z " fill="#5B6A7A" transform="translate(388,137)"/>
<path d="M0 0 C2 1 2 1 2 1 Z " fill="#CBD9E2" transform="translate(45,137)"/>
<path d="M0 0 C2 1 2 1 2 1 Z " fill="#596979" transform="translate(406,134)"/>
<path d="M0 0 C2 1 2 1 2 1 Z " fill="#BBCEDE" transform="translate(45,134)"/>
<path d="" fill="#6BBCF3" transform="translate(0,0)"/>
<path d="" fill="#5A697A" transform="translate(0,0)"/>
<path d="" fill="#5B6B7B" transform="translate(0,0)"/>
<path d="M0 0 C2 1 2 1 2 1 Z " fill="#62707F" transform="translate(397,131)"/>
<path d="M0 0 C2 1 2 1 2 1 Z " fill="#DCCABC" transform="translate(38,131)"/>
<path d="M0 0 C2 1 2 1 2 1 Z " fill="#A4D2F0" transform="translate(8,131)"/>
<path d="M0 0 C2 1 2 1 2 1 Z " fill="#F3F3F0" transform="translate(67,130)"/>
<path d="M0 0 C2 1 2 1 2 1 Z " fill="#5A6A7B" transform="translate(399,128)"/>
<path d="" fill="#F5F5F4" transform="translate(0,0)"/>
<path d="" fill="#EFD7C8" transform="translate(0,0)"/>
<path d="M0 0 C2 1 2 1 2 1 Z " fill="#EFD7C8" transform="translate(75,123)"/>
<path d="" fill="#EED7CA" transform="translate(0,0)"/>
<path d="M0 0 C2 1 2 1 2 1 Z " fill="#F0D7C8" transform="translate(40,123)"/>
<path d="" fill="#E8ECED" transform="translate(0,0)"/>
<path d="M0 0 C2 1 2 1 2 1 Z " fill="#E9DDD6" transform="translate(73,121)"/>
<path d="M0 0 C2 1 2 1 2 1 Z " fill="#8B959D" transform="translate(395,120)"/>
<path d="M0 0 C2 1 2 1 2 1 Z " fill="#EED7C7" transform="translate(77,120)"/>
<path d="M0 0 C2 1 2 1 2 1 Z " fill="#59697A" transform="translate(387,118)"/>
<path d="" fill="#5D6D7D" transform="translate(0,0)"/>
<path d="M0 0 C2 1 2 1 2 1 Z " fill="#665348" transform="translate(553,114)"/>
<path d="" fill="#6C7A87" transform="translate(0,0)"/>
<path d="M0 0 C2 1 2 1 2 1 Z " fill="#73828F" transform="translate(386,113)"/>
<path d="M0 0 C2 1 2 1 2 1 Z " fill="#5CB2EE" transform="translate(68,111)"/>
<path d="M0 0 C2 1 2 1 2 1 Z " fill="#60B3EE" transform="translate(65,111)"/>
<path d="M0 0 C2 1 2 1 2 1 Z " fill="#2E2D30" transform="translate(554,110)"/>
<path d="M0 0 C2 1 2 1 2 1 Z " fill="#5CB2EE" transform="translate(82,108)"/>
<path d="M0 0 C2 1 2 1 2 1 Z " fill="#8997A5" transform="translate(382,107)"/>
<path d="M0 0 C2 1 2 1 2 1 Z " fill="#2D2C30" transform="translate(568,105)"/>
<path d="M0 0 C2 1 2 1 2 1 Z " fill="#514256" transform="translate(370,104)"/>
<path d="M0 0 C2 1 2 1 2 1 Z " fill="#8C7251" transform="translate(60,101)"/>
<path d="M0 0 C2 1 2 1 2 1 Z " fill="#2D2C30" transform="translate(567,98)"/>
<path d="M0 0 C2 1 2 1 2 1 Z " fill="#615263" transform="translate(375,97)"/>
<path d="M0 0 C2 1 2 1 2 1 Z " fill="#4E3C52" transform="translate(376,95)"/>
<path d="M0 0 C2 1 2 1 2 1 Z " fill="#19191B" transform="translate(92,84)"/>
<path d="M0 0 C2 1 2 1 2 1 Z " fill="#FCFDFE" transform="translate(76,80)"/>
<path d="" fill="#FAFAF9" transform="translate(0,0)"/>
<path d="M0 0 C2 1 2 1 2 1 Z " fill="#F2F1F3" transform="translate(219,0)"/>
<path d="" fill="#646367" transform="translate(0,0)"/>
<path d="" fill="#352F2D" transform="translate(0,0)"/>
<path d="" fill="#131211" transform="translate(0,0)"/>
<path d="" fill="#1A1A1B" transform="translate(0,0)"/>
<path d="" fill="#17181C" transform="translate(0,0)"/>
<path d="" fill="#181818" transform="translate(0,0)"/>
<path d="" fill="#19191B" transform="translate(0,0)"/>
<path d="" fill="#2F3035" transform="translate(0,0)"/>
<path d="" fill="#181818" transform="translate(0,0)"/>
<path d="" fill="#3C3B3F" transform="translate(0,0)"/>
<path d="" fill="#3C3B3F" transform="translate(0,0)"/>
<path d="" fill="#131211" transform="translate(0,0)"/>
<path d="" fill="#161619" transform="translate(0,0)"/>
<path d="" fill="#19191B" transform="translate(0,0)"/>
<path d="" fill="#161619" transform="translate(0,0)"/>
<path d="" fill="#181818" transform="translate(0,0)"/>
<path d="" fill="#666666" transform="translate(0,0)"/>
<path d="" fill="#474445" transform="translate(0,0)"/>
<path d="" fill="#181818" transform="translate(0,0)"/>
<path d="" fill="#19191B" transform="translate(0,0)"/>
<path d="" fill="#181818" transform="translate(0,0)"/>
<path d="" fill="#19191B" transform="translate(0,0)"/>
<path d="" fill="#181818" transform="translate(0,0)"/>
<path d="" fill="#19191B" transform="translate(0,0)"/>
<path d="" fill="#181818" transform="translate(0,0)"/>
<path d="" fill="#19191B" transform="translate(0,0)"/>
<path d="" fill="#181818" transform="translate(0,0)"/>
<path d="" fill="#19191B" transform="translate(0,0)"/>
<path d="" fill="#181818" transform="translate(0,0)"/>
<path d="" fill="#19191B" transform="translate(0,0)"/>
<path d="" fill="#19191B" transform="translate(0,0)"/>
<path d="" fill="#323338" transform="translate(0,0)"/>
<path d="" fill="#F5F5F4" transform="translate(0,0)"/>
<path d="" fill="#F4F1F3" transform="translate(0,0)"/>
<path d="" fill="#D2D8DB" transform="translate(0,0)"/>
<path d="" fill="#858484" transform="translate(0,0)"/>
<path d="" fill="#858588" transform="translate(0,0)"/>
<path d="" fill="#858484" transform="translate(0,0)"/>
<path d="" fill="#858783" transform="translate(0,0)"/>
<path d="" fill="#888584" transform="translate(0,0)"/>
<path d="" fill="#888584" transform="translate(0,0)"/>
<path d="" fill="#888688" transform="translate(0,0)"/>
<path d="" fill="#7E204A" transform="translate(0,0)"/>
<path d="" fill="#F5F5F4" transform="translate(0,0)"/>
<path d="" fill="#5A6A7B" transform="translate(0,0)"/>
<path d="" fill="#FFFDFF" transform="translate(0,0)"/>
<path d="" fill="#FFFDFF" transform="translate(0,0)"/>
<path d="" fill="#5B6979" transform="translate(0,0)"/>
<path d="" fill="#5A6A7B" transform="translate(0,0)"/>
<path d="" fill="#5A6A7B" transform="translate(0,0)"/>
<path d="" fill="#7E204A" transform="translate(0,0)"/>
<path d="" fill="#7E204A" transform="translate(0,0)"/>
<path d="" fill="#576878" transform="translate(0,0)"/>
<path d="" fill="#58697A" transform="translate(0,0)"/>
<path d="" fill="#5C6C7C" transform="translate(0,0)"/>
<path d="" fill="#5A6A7B" transform="translate(0,0)"/>
<path d="" fill="#7E204A" transform="translate(0,0)"/>
<path d="" fill="#7E204A" transform="translate(0,0)"/>
<path d="" fill="#7F1F48" transform="translate(0,0)"/>
<path d="" fill="#7E204A" transform="translate(0,0)"/>
<path d="" fill="#A6B1BB" transform="translate(0,0)"/>
<path d="" fill="#5A6A7B" transform="translate(0,0)"/>
<path d="" fill="#7F1F48" transform="translate(0,0)"/>
<path d="" fill="#617080" transform="translate(0,0)"/>
<path d="" fill="#6A7784" transform="translate(0,0)"/>
<path d="" fill="#78848E" transform="translate(0,0)"/>
<path d="" fill="#7A2247" transform="translate(0,0)"/>
<path d="" fill="#5B6979" transform="translate(0,0)"/>
<path d="" fill="#7F1F48" transform="translate(0,0)"/>
<path d="" fill="#5C6C7C" transform="translate(0,0)"/>
<path d="" fill="#5A6A7B" transform="translate(0,0)"/>
<path d="" fill="#5B6979" transform="translate(0,0)"/>
<path d="" fill="#5A6A7B" transform="translate(0,0)"/>
<path d="" fill="#5C6C7C" transform="translate(0,0)"/>
<path d="" fill="#7F1F48" transform="translate(0,0)"/>
<path d="" fill="#6E7C89" transform="translate(0,0)"/>
<path d="" fill="#5C6C7C" transform="translate(0,0)"/>
<path d="" fill="#5C6C7C" transform="translate(0,0)"/>
<path d="" fill="#5C6C7C" transform="translate(0,0)"/>
<path d="" fill="#89515E" transform="translate(0,0)"/>
<path d="" fill="#B6B590" transform="translate(0,0)"/>
<path d="" fill="#5C6C7C" transform="translate(0,0)"/>
<path d="" fill="#5C6C7C" transform="translate(0,0)"/>
<path d="" fill="#5C6C7C" transform="translate(0,0)"/>
<path d="" fill="#7F1F48" transform="translate(0,0)"/>
<path d="" fill="#5C6C7C" transform="translate(0,0)"/>
<path d="" fill="#5C6C7C" transform="translate(0,0)"/>
<path d="" fill="#58697A" transform="translate(0,0)"/>
<path d="" fill="#5A6A7B" transform="translate(0,0)"/>
<path d="" fill="#606B76" transform="translate(0,0)"/>
<path d="" fill="#606B76" transform="translate(0,0)"/>
<path d="" fill="#7F1F48" transform="translate(0,0)"/>
<path d="" fill="#5A6A7B" transform="translate(0,0)"/>
<path d="" fill="#5C6C7C" transform="translate(0,0)"/>
<path d="" fill="#5C6C7C" transform="translate(0,0)"/>
<path d="" fill="#5A6A7B" transform="translate(0,0)"/>
<path d="" fill="#5A6A7B" transform="translate(0,0)"/>
<path d="" fill="#5C6C7C" transform="translate(0,0)"/>
<path d="" fill="#5C6C7C" transform="translate(0,0)"/>
<path d="" fill="#5C6C7C" transform="translate(0,0)"/>
<path d="" fill="#EEEEEE" transform="translate(0,0)"/>
<path d="" fill="#5A6A7B" transform="translate(0,0)"/>
<path d="" fill="#5C6C7C" transform="translate(0,0)"/>
<path d="" fill="#7F1F48" transform="translate(0,0)"/>
<path d="" fill="#8292A0" transform="translate(0,0)"/>
<path d="" fill="#7D3057" transform="translate(0,0)"/>
<path d="" fill="#788896" transform="translate(0,0)"/>
<path d="" fill="#FFFDFF" transform="translate(0,0)"/>
<path d="" fill="#FCFDFE" transform="translate(0,0)"/>
<path d="" fill="#5A6A7B" transform="translate(0,0)"/>
<path d="" fill="#5C6C7C" transform="translate(0,0)"/>
<path d="" fill="#858588" transform="translate(0,0)"/>
<path d="" fill="#5C6C7C" transform="translate(0,0)"/>
<path d="" fill="#5C6C7C" transform="translate(0,0)"/>
<path d="" fill="#F3F1F5" transform="translate(0,0)"/>
<path d="" fill="#58697A" transform="translate(0,0)"/>
<path d="" fill="#5C6C7C" transform="translate(0,0)"/>
<path d="" fill="#5A6A7B" transform="translate(0,0)"/>
<path d="" fill="#888688" transform="translate(0,0)"/>
<path d="" fill="#F4F1F3" transform="translate(0,0)"/>
<path d="" fill="#5A6A7B" transform="translate(0,0)"/>
<path d="" fill="#5C6C7C" transform="translate(0,0)"/>
<path d="" fill="#58697A" transform="translate(0,0)"/>
<path d="" fill="#5A6A7B" transform="translate(0,0)"/>
<path d="" fill="#5C6C7C" transform="translate(0,0)"/>
<path d="" fill="#5B6979" transform="translate(0,0)"/>
<path d="" fill="#858484" transform="translate(0,0)"/>
<path d="" fill="#666666" transform="translate(0,0)"/>
<path d="" fill="#5A6A7B" transform="translate(0,0)"/>
<path d="" fill="#7F93A8" transform="translate(0,0)"/>
<path d="" fill="#858588" transform="translate(0,0)"/>
<path d="" fill="#F1F1F2" transform="translate(0,0)"/>
<path d="" fill="#5A6A7B" transform="translate(0,0)"/>
<path d="" fill="#5A6A7B" transform="translate(0,0)"/>
<path d="" fill="#F0F0F1" transform="translate(0,0)"/>
<path d="" fill="#F7EFE8" transform="translate(0,0)"/>
<path d="" fill="#8292A0" transform="translate(0,0)"/>
<path d="" fill="#B6B590" transform="translate(0,0)"/>
<path d="" fill="#B3B590" transform="translate(0,0)"/>
<path d="" fill="#5C6C7C" transform="translate(0,0)"/>
<path d="" fill="#5A6A7B" transform="translate(0,0)"/>
<path d="" fill="#5C6C7C" transform="translate(0,0)"/>
<path d="" fill="#B3B590" transform="translate(0,0)"/>
<path d="" fill="#B3B590" transform="translate(0,0)"/>
<path d="" fill="#58697A" transform="translate(0,0)"/>
<path d="" fill="#5C6C7C" transform="translate(0,0)"/>
<path d="" fill="#878787" transform="translate(0,0)"/>
<path d="" fill="#617080" transform="translate(0,0)"/>
<path d="" fill="#58697A" transform="translate(0,0)"/>
<path d="" fill="#646367" transform="translate(0,0)"/>
<path d="" fill="#576878" transform="translate(0,0)"/>
<path d="" fill="#5C6C7C" transform="translate(0,0)"/>
<path d="" fill="#58697A" transform="translate(0,0)"/>
<path d="" fill="#5A7B94" transform="translate(0,0)"/>
<path d="" fill="#5CB2EE" transform="translate(0,0)"/>
<path d="" fill="#63B5EF" transform="translate(0,0)"/>
<path d="" fill="#5C6C7C" transform="translate(0,0)"/>
<path d="" fill="#5C6C7C" transform="translate(0,0)"/>
<path d="" fill="#5C6C7C" transform="translate(0,0)"/>
<path d="" fill="#5B6979" transform="translate(0,0)"/>
<path d="" fill="#6F6B67" transform="translate(0,0)"/>
<path d="" fill="#5C6C7C" transform="translate(0,0)"/>
<path d="" fill="#B3D1E4" transform="translate(0,0)"/>
<path d="" fill="#FFFDFD" transform="translate(0,0)"/>
<path d="" fill="#5B6979" transform="translate(0,0)"/>
<path d="" fill="#606B76" transform="translate(0,0)"/>
<path d="" fill="#FFFFFF" transform="translate(0,0)"/>
<path d="" fill="#FFFFFF" transform="translate(0,0)"/>
<path d="" fill="#F4F1F3" transform="translate(0,0)"/>
<path d="" fill="#FBFBFA" transform="translate(0,0)"/>
<path d="" fill="#D0CFCF" transform="translate(0,0)"/>
<path d="" fill="#FAFAFA" transform="translate(0,0)"/>
<path d="" fill="#F3F1F5" transform="translate(0,0)"/>
<path d="" fill="#FDFDFD" transform="translate(0,0)"/>
<path d="" fill="#FFFDFF" transform="translate(0,0)"/>
<path d="" fill="#FCFDFE" transform="translate(0,0)"/>
<path d="" fill="#CAD8D8" transform="translate(0,0)"/>
<path d="" fill="#B3D1E4" transform="translate(0,0)"/>
<path d="" fill="#636363" transform="translate(0,0)"/>
<path d="" fill="#D4E4F1" transform="translate(0,0)"/>
<path d="" fill="#5C6C7C" transform="translate(0,0)"/>
<path d="" fill="#5C6C7C" transform="translate(0,0)"/>
<path d="" fill="#FAFAFA" transform="translate(0,0)"/>
<path d="" fill="#E9E9EA" transform="translate(0,0)"/>
<path d="" fill="#F4F1F3" transform="translate(0,0)"/>
<path d="" fill="#FFFDFD" transform="translate(0,0)"/>
<path d="" fill="#FBFBFA" transform="translate(0,0)"/>
<path d="" fill="#5DB2EE" transform="translate(0,0)"/>
<path d="" fill="#E4E2E1" transform="translate(0,0)"/>
<path d="" fill="#F8FAFA" transform="translate(0,0)"/>
<path d="" fill="#E9E9EA" transform="translate(0,0)"/>
<path d="" fill="#ECEDEE" transform="translate(0,0)"/>
<path d="" fill="#E9E9EA" transform="translate(0,0)"/>
<path d="" fill="#F5F5F4" transform="translate(0,0)"/>
<path d="" fill="#646367" transform="translate(0,0)"/>
<path d="" fill="#F4F1F3" transform="translate(0,0)"/>
<path d="" fill="#5CB2EE" transform="translate(0,0)"/>
<path d="" fill="#D8DEDD" transform="translate(0,0)"/>
<path d="" fill="#96D3FC" transform="translate(0,0)"/>
<path d="" fill="#858484" transform="translate(0,0)"/>
<path d="" fill="#858588" transform="translate(0,0)"/>
<path d="" fill="#D2D8DB" transform="translate(0,0)"/>
<path d="" fill="#D6DEE1" transform="translate(0,0)"/>
<path d="" fill="#5C6C7C" transform="translate(0,0)"/>
<path d="" fill="#5A6A7B" transform="translate(0,0)"/>
<path d="" fill="#5DB2EE" transform="translate(0,0)"/>
<path d="" fill="#ECEDEE" transform="translate(0,0)"/>
<path d="" fill="#5CB2EE" transform="translate(0,0)"/>
<path d="" fill="#5DB2EE" transform="translate(0,0)"/>
<path d="" fill="#617080" transform="translate(0,0)"/>
<path d="" fill="#E4E2E1" transform="translate(0,0)"/>
<path d="" fill="#F0F4F4" transform="translate(0,0)"/>
<path d="" fill="#5A6A7B" transform="translate(0,0)"/>
<path d="" fill="#58697A" transform="translate(0,0)"/>
<path d="" fill="#5A6A7B" transform="translate(0,0)"/>
<path d="" fill="#4D82C1" transform="translate(0,0)"/>
<path d="" fill="#F8FAFA" transform="translate(0,0)"/>
<path d="" fill="#F4F1F3" transform="translate(0,0)"/>
<path d="" fill="#6A7784" transform="translate(0,0)"/>
<path d="" fill="#5DB2EE" transform="translate(0,0)"/>
<path d="" fill="#5CB2EE" transform="translate(0,0)"/>
<path d="" fill="#58697A" transform="translate(0,0)"/>
<path d="" fill="#5A6A7B" transform="translate(0,0)"/>
<path d="" fill="#F3F1F5" transform="translate(0,0)"/>
<path d="" fill="#63B5EF" transform="translate(0,0)"/>
<path d="" fill="#5A6A7B" transform="translate(0,0)"/>
<path d="" fill="#858588" transform="translate(0,0)"/>
<path d="" fill="#BCBEC6" transform="translate(0,0)"/>
<path d="" fill="#5C6C7C" transform="translate(0,0)"/>
<path d="" fill="#5CB2EE" transform="translate(0,0)"/>
<path d="" fill="#F3F1F5" transform="translate(0,0)"/>
<path d="" fill="#60B2ED" transform="translate(0,0)"/>
<path d="" fill="#6A7784" transform="translate(0,0)"/>
<path d="" fill="#6E7C89" transform="translate(0,0)"/>
<path d="" fill="#5B6979" transform="translate(0,0)"/>
<path d="" fill="#58697A" transform="translate(0,0)"/>
<path d="" fill="#576878" transform="translate(0,0)"/>
<path d="" fill="#5CB2EE" transform="translate(0,0)"/>
<path d="" fill="#F3F1F5" transform="translate(0,0)"/>
<path d="" fill="#E6C7AB" transform="translate(0,0)"/>
<path d="" fill="#5C6C7C" transform="translate(0,0)"/>
<path d="" fill="#5A6A7B" transform="translate(0,0)"/>
<path d="" fill="#F8FAFA" transform="translate(0,0)"/>
<path d="" fill="#F3F1F5" transform="translate(0,0)"/>
<path d="" fill="#68ADDE" transform="translate(0,0)"/>
<path d="" fill="#5C6C7C" transform="translate(0,0)"/>
<path d="" fill="#5CB2EE" transform="translate(0,0)"/>
<path d="" fill="#F4F1F3" transform="translate(0,0)"/>
<path d="" fill="#5C6C7C" transform="translate(0,0)"/>
<path d="" fill="#FFFBF4" transform="translate(0,0)"/>
<path d="" fill="#5A6A7B" transform="translate(0,0)"/>
<path d="" fill="#A6B7C6" transform="translate(0,0)"/>
<path d="" fill="#788896" transform="translate(0,0)"/>
<path d="" fill="#788896" transform="translate(0,0)"/>
<path d="" fill="#5C6C7C" transform="translate(0,0)"/>
<path d="" fill="#FFFBF4" transform="translate(0,0)"/>
<path d="" fill="#E6C7AB" transform="translate(0,0)"/>
<path d="" fill="#617080" transform="translate(0,0)"/>
<path d="" fill="#617080" transform="translate(0,0)"/>
<path d="" fill="#DDEEF9" transform="translate(0,0)"/>
<path d="" fill="#F3F2ED" transform="translate(0,0)"/>
<path d="" fill="#5C6C7C" transform="translate(0,0)"/>
<path d="" fill="#5A6A7B" transform="translate(0,0)"/>
<path d="" fill="#5A6A7B" transform="translate(0,0)"/>
<path d="" fill="#5A6A7B" transform="translate(0,0)"/>
<path d="" fill="#5DB2EE" transform="translate(0,0)"/>
<path d="" fill="#5CB2EE" transform="translate(0,0)"/>
<path d="" fill="#58697A" transform="translate(0,0)"/>
<path d="" fill="#58697A" transform="translate(0,0)"/>
<path d="" fill="#5B6979" transform="translate(0,0)"/>
<path d="" fill="#6EBAF0" transform="translate(0,0)"/>
<path d="" fill="#F4F1F3" transform="translate(0,0)"/>
<path d="" fill="#F0D7C8" transform="translate(0,0)"/>
<path d="" fill="#F3F1F5" transform="translate(0,0)"/>
<path d="" fill="#5C6C7C" transform="translate(0,0)"/>
<path d="" fill="#5A6A7B" transform="translate(0,0)"/>
<path d="" fill="#5A6A7B" transform="translate(0,0)"/>
<path d="" fill="#5B6979" transform="translate(0,0)"/>
<path d="" fill="#EED7C9" transform="translate(0,0)"/>
<path d="" fill="#F4F1F3" transform="translate(0,0)"/>
<path d="" fill="#FDFDFD" transform="translate(0,0)"/>
<path d="" fill="#FDFDFD" transform="translate(0,0)"/>
<path d="" fill="#5A6A7B" transform="translate(0,0)"/>
<path d="" fill="#5B6979" transform="translate(0,0)"/>
<path d="" fill="#FAFAFA" transform="translate(0,0)"/>
<path d="" fill="#F0D7C8" transform="translate(0,0)"/>
<path d="" fill="#617080" transform="translate(0,0)"/>
<path d="" fill="#F0D7C8" transform="translate(0,0)"/>
<path d="" fill="#6A7784" transform="translate(0,0)"/>
<path d="" fill="#FDFDFD" transform="translate(0,0)"/>
<path d="" fill="#5A6A7B" transform="translate(0,0)"/>
<path d="" fill="#FFFDFD" transform="translate(0,0)"/>
<path d="" fill="#EED7C9" transform="translate(0,0)"/>
<path d="" fill="#ECD7C7" transform="translate(0,0)"/>
<path d="" fill="#576878" transform="translate(0,0)"/>
<path d="" fill="#5C6C7C" transform="translate(0,0)"/>
<path d="" fill="#8B664F" transform="translate(0,0)"/>
<path d="" fill="#5CB2EE" transform="translate(0,0)"/>
<path d="" fill="#57B2ED" transform="translate(0,0)"/>
<path d="" fill="#78848E" transform="translate(0,0)"/>
<path d="" fill="#EFD8CC" transform="translate(0,0)"/>
<path d="" fill="#F0D7C8" transform="translate(0,0)"/>
<path d="" fill="#766356" transform="translate(0,0)"/>
<path d="" fill="#617080" transform="translate(0,0)"/>
<path d="" fill="#5DB2EE" transform="translate(0,0)"/>
<path d="" fill="#978158" transform="translate(0,0)"/>
<path d="" fill="#F0D7C8" transform="translate(0,0)"/>
<path d="" fill="#5A6A7B" transform="translate(0,0)"/>
<path d="" fill="#5CB2EE" transform="translate(0,0)"/>
<path d="" fill="#5C6C7C" transform="translate(0,0)"/>
<path d="" fill="#2E2D30" transform="translate(0,0)"/>
<path d="" fill="#2E2E30" transform="translate(0,0)"/>
<path d="" fill="#7F93A8" transform="translate(0,0)"/>
<path d="" fill="#4C344D" transform="translate(0,0)"/>
<path d="" fill="#4C344D" transform="translate(0,0)"/>
<path d="" fill="#47334B" transform="translate(0,0)"/>
<path d="" fill="#4C344D" transform="translate(0,0)"/>
<path d="" fill="#63B5EF" transform="translate(0,0)"/>
<path d="" fill="#888688" transform="translate(0,0)"/>
<path d="" fill="#947E5B" transform="translate(0,0)"/>
<path d="" fill="#8292A0" transform="translate(0,0)"/>
<path d="" fill="#56465A" transform="translate(0,0)"/>
<path d="" fill="#F0D7C8" transform="translate(0,0)"/>
<path d="" fill="#5CB2EE" transform="translate(0,0)"/>
<path d="" fill="#EED7C9" transform="translate(0,0)"/>
<path d="" fill="#4C344D" transform="translate(0,0)"/>
<path d="" fill="#EFD8CC" transform="translate(0,0)"/>
<path d="" fill="#FCFDFE" transform="translate(0,0)"/>
<path d="" fill="#5CB2EE" transform="translate(0,0)"/>
<path d="" fill="#5AB3EE" transform="translate(0,0)"/>
<path d="" fill="#FFFDFF" transform="translate(0,0)"/>
<path d="" fill="#FFFDFF" transform="translate(0,0)"/>
<path d="" fill="#4D3E52" transform="translate(0,0)"/>
<path d="" fill="#4C344D" transform="translate(0,0)"/>
<path d="" fill="#95815B" transform="translate(0,0)"/>
<path d="" fill="#858588" transform="translate(0,0)"/>
<path d="" fill="#2E2D30" transform="translate(0,0)"/>
<path d="" fill="#F3F1F5" transform="translate(0,0)"/>
<path d="" fill="#4C344D" transform="translate(0,0)"/>
<path d="" fill="#5CB2EE" transform="translate(0,0)"/>
<path d="" fill="#5DB2EE" transform="translate(0,0)"/>
<path d="" fill="#5DB2EE" transform="translate(0,0)"/>
<path d="" fill="#5DB2EE" transform="translate(0,0)"/>
<path d="" fill="#F7EFE8" transform="translate(0,0)"/>
<path d="" fill="#977266" transform="translate(0,0)"/>
<path d="" fill="#F4F1F3" transform="translate(0,0)"/>
<path d="" fill="#FAFAFA" transform="translate(0,0)"/>
<path d="" fill="#4C344D" transform="translate(0,0)"/>
<path d="" fill="#FFFDFF" transform="translate(0,0)"/>
<path d="" fill="#D2D8DB" transform="translate(0,0)"/>
<path d="" fill="#6F767F" transform="translate(0,0)"/>
<path d="" fill="#9E9894" transform="translate(0,0)"/>
<path d="" fill="#C7C6C8" transform="translate(0,0)"/>
<path d="" fill="#998059" transform="translate(0,0)"/>
<path d="" fill="#EFD8CC" transform="translate(0,0)"/>
<path d="" fill="#998059" transform="translate(0,0)"/>
<path d="" fill="#FFFFFF" transform="translate(0,0)"/>
<path d="" fill="#E6BA9B" transform="translate(0,0)"/>
<path d="" fill="#E5BA96" transform="translate(0,0)"/>
<path d="" fill="#EAC497" transform="translate(0,0)"/>
<path d="" fill="#E6BA9B" transform="translate(0,0)"/>
<path d="" fill="#6C4E39" transform="translate(0,0)"/>
<path d="" fill="#897051" transform="translate(0,0)"/>
<path d="" fill="#D3AF8F" transform="translate(0,0)"/>
<path d="" fill="#7F8488" transform="translate(0,0)"/>
<path d="" fill="#7F8488" transform="translate(0,0)"/>
</svg>
