<?xml version="1.0" encoding="UTF-8"?>
<svg version="1.1" xmlns="http://www.w3.org/2000/svg" width="581" height="240">
<path d="M0 0 C0.66 0 1.32 0 2 0 C2.66 0.66 3.32 1.32 4 2 C6.06874034 2.6425235 6.06874034 2.6425235 8 3 C8.97798721 6.79568461 8.92653069 9.5005999 8.0625 13.3125 C7.86785156 14.19550781 7.67320313 15.07851562 7.47265625 15.98828125 C7.31667969 16.65214844 7.16070312 17.31601563 7 18 C8.65 18.33 10.3 18.66 12 19 C12.495 21.475 12.495 21.475 13 24 C7.375 27 7.375 27 4 27 C4 34.92 4 42.84 4 51 C2.515 50.505 2.515 50.505 1 50 C0.34 50.66 -0.32 51.32 -1 52 C-2.485 52.495 -2.485 52.495 -4 53 C-4.66 53.99 -5.32 54.98 -6 56 C-7.485 56.495 -7.485 56.495 -9 57 C-7.02 57.66 -5.04 58.32 -3 59 C-3 59.66 -3 60.32 -3 61 C-8.05796118 62.78516277 -10.13515282 62.97223535 -15 61 C-17.21036291 62.30344828 -17.21036291 62.30344828 -19 64 C-19.66 64 -20.32 64 -21 64 C-21 63.34 -21 62.68 -21 62 C-21.66 62 -22.32 62 -23 62 C-23 60.02 -23 58.04 -23 56 C-21 58 -21 58 -21 60 C-20.443125 59.4121875 -20.443125 59.4121875 -19.875 58.8125 C-12.25531915 51.44680851 -12.25531915 51.44680851 -6 51 C-6.33 49.02 -6.66 47.04 -7 45 C-7.33 45.99 -7.66 46.98 -8 48 C-9.485 48.495 -9.485 48.495 -11 49 C-11 48.01 -11 47.02 -11 46 C-11.31088368 44.32900023 -11.64080332 42.66128463 -12 41 C-12.33 41 -12.66 41 -13 41 C-13 39.35 -13 37.7 -13 36 C-12.01 36.33 -11.02 36.66 -10 37 C-9.34 34.03 -8.68 31.06 -8 28 C-8.66 27.67 -9.32 27.34 -10 27 C-9.01 26.34 -8.02 25.68 -7 25 C-9.31 24.34 -11.62 23.68 -14 23 C-12 20 -12 20 -8 19 C-8.66 16.03 -9.32 13.06 -10 10 C-9.01 10 -8.02 10 -7 10 C-7 9.34 -7 8.68 -7 8 C-9.64 8 -12.28 8 -15 8 C-14 6 -14 6 -12.15234375 5.3671875 C-11.05599609 5.12355469 -11.05599609 5.12355469 -9.9375 4.875 C-9.20402344 4.70742187 -8.47054687 4.53984375 -7.71484375 4.3671875 C-7.14894531 4.24601562 -6.58304688 4.12484375 -6 4 C-6 3.34 -6 2.68 -6 2 C-5.34 2 -4.68 2 -4 2 C-4 3.65 -4 5.3 -4 7 C-3.34 7 -2.68 7 -2 7 C-2 5.35 -2 3.7 -2 2 C-1.34 2 -0.68 2 0 2 C0 1.34 0 0.68 0 0 Z M-5 8 C-1 9 -1 9 -1 9 Z M6 8 C7 10 7 10 7 10 Z M2 13 C1.67 13.66 1.34 14.32 1 15 C0.34 15 -0.32 15 -1 15 C-1 15.99 -1 16.98 -1 18 C1.97 18.495 1.97 18.495 5 19 C5.33 17.35 5.66 15.7 6 14 C4.68 13.67 3.36 13.34 2 13 Z M8 23 C9 25 9 25 9 25 Z M0 38 C0 39.98 0 41.96 0 44 C0.99 44.495 0.99 44.495 2 45 C2 42.69 2 40.38 2 38 C1.34 38 0.68 38 0 38 Z M-3 47 C-2.67 47.99 -2.34 48.98 -2 50 C-2 49.01 -2 48.02 -2 47 C-2.33 47 -2.66 47 -3 47 Z M-11 59 C-10 61 -10 61 -10 61 Z " fill="#DED3CC" transform="translate(86,73)"/>
<path d="M0 0 C0.33 0 0.66 0 1 0 C1 10.56 1 21.12 1 32 C0.01 31.67 -0.98 31.34 -2 31 C-2.66 31.66 -3.32 32.32 -4 33 C-5.485 33.495 -5.485 33.495 -7 34 C-7.66 34.99 -8.32 35.98 -9 37 C-10.485 37.495 -10.485 37.495 -12 38 C-10.02 38.66 -8.04 39.32 -6 40 C-6 40.66 -6 41.32 -6 42 C-11.05796118 43.78516277 -13.13515282 43.97223535 -18 42 C-20.21036291 43.30344828 -20.21036291 43.30344828 -22 45 C-22.66 45 -23.32 45 -24 45 C-24 44.34 -24 43.68 -24 43 C-24.66 43 -25.32 43 -26 43 C-26 41.02 -26 39.04 -26 37 C-24 39 -24 39 -24 41 C-23.443125 40.4121875 -23.443125 40.4121875 -22.875 39.8125 C-15.52442159 32.70694087 -15.52442159 32.70694087 -11 32 C-8.99617991 31.34490497 -6.99541868 30.68025637 -5 30 C-5.33 28.68 -5.66 27.36 -6 26 C-4.68 25.34 -3.36 24.68 -2 24 C-2.495 14.1 -2.495 14.1 -3 4 C-2.01 3.67 -1.02 3.34 0 3 C0 2.01 0 1.02 0 0 Z M-14 40 C-13 42 -13 42 -13 42 Z " fill="#D8E8F2" transform="translate(89,92)"/>
<path d="M0 0 C0.66 0.66 1.32 1.32 2 2 C1.71281674 3.6752357 1.36871088 5.34080104 1 7 C0.96175377 9.33301986 0.95425716 11.66711508 1 14 C1.66 10.04 2.32 6.08 3 2 C3.33 2 3.66 2 4 2 C4 8.6 4 15.2 4 22 C3.01 22 2.02 22 1 22 C1 23.32 1 24.64 1 26 C0.34 26 -0.32 26 -1 26 C-1.33 26.66 -1.66 27.32 -2 28 C-2.33 26.02 -2.66 24.04 -3 22 C-3.33 22.99 -3.66 23.98 -4 25 C-4.99 25.33 -5.98 25.66 -7 26 C-7 25.01 -7 24.02 -7 23 C-7.31088368 21.32900023 -7.64080332 19.66128463 -8 18 C-8.33 18 -8.66 18 -9 18 C-9 16.35 -9 14.7 -9 13 C-8.01 13.33 -7.02 13.66 -6 14 C-5.34 12.02 -4.68 10.04 -4 8 C-3.34 8 -2.68 8 -2 8 C-1.34 5.36 -0.68 2.72 0 0 Z " fill="#E4D9D2" transform="translate(82,96)"/>
<path d="M0 0 C5.445 1.485 5.445 1.485 11 3 C10.67 3.66 10.34 4.32 10 5 C8.35 5 6.7 5 5 5 C4.67 5.66 4.34 6.32 4 7 C4.66 7.33 5.32 7.66 6 8 C6 8.33 6 8.66 6 9 C7.65 9.33 9.3 9.66 11 10 C11.33 10.99 11.66 11.98 12 13 C9.69 13 7.38 13 5 13 C4.67 12.34 4.34 11.68 4 11 C3.67 12.98 3.34 14.96 3 17 C3.99 17.33 4.98 17.66 6 18 C-1.23809524 18.36190476 -1.23809524 18.36190476 -4.5 16.8125 C-6 15 -6 15 -6.25 12.3125 C-6.1675 11.549375 -6.085 10.78625 -6 10 C-4.68 9.67 -3.36 9.34 -2 9 C-1.34 6.03 -0.68 3.06 0 0 Z M8 10 C9 12 9 12 9 12 Z M-5 12 C-4.34 12.66 -3.68 13.32 -3 14 C-3 13.34 -3 12.68 -3 12 C-3.66 12 -4.32 12 -5 12 Z " fill="#A5D2F1" transform="translate(511,144)"/>
<path d="M0 0 C0.33 0 0.66 0 1 0 C1 10.56 1 21.12 1 32 C0.01 31.67 -0.98 31.34 -2 31 C-2.66 31.66 -3.32 32.32 -4 33 C-6.625 33.625 -6.625 33.625 -9 34 C-7.25 30.125 -7.25 30.125 -5 29 C-5.33 28.01 -5.66 27.02 -6 26 C-4.68 25.34 -3.36 24.68 -2 24 C-2.33 17.4 -2.66 10.8 -3 4 C-2.01 3.67 -1.02 3.34 0 3 C0 2.01 0 1.02 0 0 Z " fill="#FAFAFB" transform="translate(89,92)"/>
<path d="M0 0 C1.32 0.33 2.64 0.66 4 1 C4.97798721 4.79568461 4.92653069 7.5005999 4.0625 11.3125 C3.86785156 12.19550781 3.67320313 13.07851562 3.47265625 13.98828125 C3.31667969 14.65214844 3.16070312 15.31601563 3 16 C4.65 16.33 6.3 16.66 8 17 C8.33 18.65 8.66 20.3 9 22 C6.1875 23.5625 6.1875 23.5625 3 25 C2.01 24.67 1.02 24.34 0 24 C-0.21192221 18.80790596 0.4087311 14.873261 2 10 C1.34 10 0.68 10 0 10 C0 6.7 0 3.4 0 0 Z M2 6 C3 8 3 8 3 8 Z M4 21 C5 23 5 23 5 23 Z " fill="#3C3A3B" transform="translate(90,75)"/>
<path d="M0 0 C2.86331684 0.52060306 5.53522406 1.17167564 8.3125 2.0625 C12.45036388 3.11449929 15.75313177 3.14901292 20 3 C20 4.32 20 5.64 20 7 C17.89651926 7.19504458 15.79217415 7.38078496 13.6875 7.5625 C12.51574219 7.66691406 11.34398437 7.77132812 10.13671875 7.87890625 C7 8 7 8 4 7 C2.8125 4.9375 2.8125 4.9375 2 3 C1.34 3 0.68 3 0 3 C0 2.01 0 1.02 0 0 Z " fill="#E5BA99" transform="translate(161,35)"/>
<path d="M0 0 C0.66 0 1.32 0 2 0 C4.1519437 3.22791555 4.20086443 4.28400809 4 8 C3.01 8.495 3.01 8.495 2 9 C2 7.02 2 5.04 2 3 C1.01 3.495 1.01 3.495 0 4 C0 5.65 0 7.3 0 9 C-4.95 8.67 -9.9 8.34 -15 8 C-14 6 -14 6 -12.15234375 5.3671875 C-11.42144531 5.20476562 -10.69054687 5.04234375 -9.9375 4.875 C-9.20402344 4.70742187 -8.47054687 4.53984375 -7.71484375 4.3671875 C-7.14894531 4.24601562 -6.58304688 4.12484375 -6 4 C-6 3.34 -6 2.68 -6 2 C-5.34 2 -4.68 2 -4 2 C-4 3.65 -4 5.3 -4 7 C-3.34 7 -2.68 7 -2 7 C-2 5.35 -2 3.7 -2 2 C-1.34 2 -0.68 2 0 2 C0 1.34 0 0.68 0 0 Z " fill="#FDFBFB" transform="translate(86,73)"/>
<path d="M0 0 C1.32 0.33 2.64 0.66 4 1 C5.59789351 5.95346987 4.28306814 10.13282415 3 15 C2.34 14.67 1.68 14.34 1 14 C1.33 12.68 1.66 11.36 2 10 C1.34 10 0.68 10 0 10 C0 6.7 0 3.4 0 0 Z M2 6 C3 8 3 8 3 8 Z " fill="#A8A19E" transform="translate(90,75)"/>
<path d="M0 0 C-0.99 0.495 -0.99 0.495 -2 1 C-2 1.66 -2 2.32 -2 3 C-7.75 4 -7.75 4 -10 4 C-10.66 3.34 -11.32 2.68 -12 2 C-12.33 4.31 -12.66 6.62 -13 9 C-13.33 9 -13.66 9 -14 9 C-14 6.36 -14 3.72 -14 1 C-8.83430559 -0.79217969 -5.48946087 -1.12029814 0 0 Z M-6 0 C-5.34 0.66 -4.68 1.32 -4 2 C-4 1.34 -4 0.68 -4 0 C-4.66 0 -5.32 0 -6 0 Z " fill="#848287" transform="translate(412,208)"/>
<path d="M0 0 C2.97 0 5.94 0 9 0 C9.89377528 3.57510111 10.0258444 5.24917563 9.5625 8.75 C9.46066406 9.54921875 9.35882813 10.3484375 9.25390625 11.171875 C9.17011719 11.77515625 9.08632813 12.3784375 9 13 C8.67 13 8.34 13 8 13 C7.67 9.7 7.34 6.4 7 3 C4.36 3 1.72 3 -1 3 C-0.67 2.01 -0.34 1.02 0 0 Z " fill="#777B80" transform="translate(388,204)"/>
<path d="M0 0 C0.33 0 0.66 0 1 0 C1 6.27 1 12.54 1 19 C0.01 19 -0.98 19 -2 19 C-1.85820962 16.77057252 -1.71140302 14.54146372 -1.5625 12.3125 C-1.48128906 11.07113281 -1.40007812 9.82976562 -1.31640625 8.55078125 C-1.05508683 5.61819663 -0.65201621 2.86558383 0 0 Z " fill="#73B3DE" transform="translate(85,98)"/>
<path d="M0 0 C6.93 0 13.86 0 21 0 C21.33 0.66 21.66 1.32 22 2 C21.40985107 1.99476318 20.81970215 1.98952637 20.21166992 1.98413086 C17.53695745 1.96333953 14.86226199 1.95033299 12.1875 1.9375 C10.7943457 1.92493164 10.7943457 1.92493164 9.37304688 1.91210938 C8.48037109 1.90888672 7.58769531 1.90566406 6.66796875 1.90234375 C5.84578857 1.89710693 5.0236084 1.89187012 4.17651367 1.88647461 C1.81827404 1.91258476 1.81827404 1.91258476 -1 3 C-0.67 2.01 -0.34 1.02 0 0 Z " fill="#181819" transform="translate(57,225)"/>
<path d="M0 0 C3.74281699 2.38179263 6.97727468 4.74475735 10 8 C7.69 8 5.38 8 3 8 C3.33 7.01 3.66 6.02 4 5 C2.02 5.33 0.04 5.66 -2 6 C-2 3.17555626 -1.98538594 1.98538594 0 0 Z " fill="#76BDEF" transform="translate(63,136)"/>
<path d="M0 0 C3.63 0 7.26 0 11 0 C11 0.99 11 1.98 11 3 C8.36 2.67 5.72 2.34 3 2 C2.67 2.66 2.34 3.32 2 4 C1.01 3.67 0.02 3.34 -1 3 C-0.67 2.01 -0.34 1.02 0 0 Z " fill="#171719" transform="translate(64,230)"/>
<path d="M0 0 C1.08667969 0.29197266 1.08667969 0.29197266 2.1953125 0.58984375 C2.74960938 0.74582031 3.30390625 0.90179688 3.875 1.0625 C3.875 1.7225 3.875 2.3825 3.875 3.0625 C-2.525 5.27788462 -2.525 5.27788462 -5.5625 4.1875 C-6.078125 3.81625 -6.59375 3.445 -7.125 3.0625 C-6.795 2.0725 -6.465 1.0825 -6.125 0.0625 C-3.57797384 -1.21101308 -2.6967055 -0.73941925 0 0 Z M-4.125 1.0625 C-3.125 3.0625 -3.125 3.0625 -3.125 3.0625 Z " fill="#63B3EC" transform="translate(79.125,130.9375)"/>
<path d="M0 0 C0.66 0 1.32 0 2 0 C2 1.32 2 2.64 2 4 C2.66 4.33 3.32 4.66 4 5 C3.01 5.66 2.02 6.32 1 7 C-0.21284876 10.05429073 -0.21284876 10.05429073 -1 13 C-1.66 13 -2.32 13 -3 13 C-2.68991116 11.39536551 -2.37683713 9.79130769 -2.0625 8.1875 C-1.88847656 7.29417969 -1.71445312 6.40085938 -1.53515625 5.48046875 C-1 3 -1 3 0 0 Z " fill="#5084AD" transform="translate(513,147)"/>
<path d="M0 0 C0.33 0 0.66 0 1 0 C1.25 6.625 1.25 6.625 -1 10 C-2.5 8.8125 -2.5 8.8125 -4 7 C-4.1875 4.3125 -4.1875 4.3125 -4 2 C-3.01 2.33 -2.02 2.66 -1 3 C-0.67 2.01 -0.34 1.02 0 0 Z " fill="#6DB5E7" transform="translate(77,107)"/>
<path d="M0 0 C0.33 1.65 0.66 3.3 1 5 C-2 6 -2 6 -4.1875 5.0625 C-4.785625 4.711875 -5.38375 4.36125 -6 4 C-6 3.01 -6 2.02 -6 1 C-3.92446352 0.4465236 -2.15634036 0 0 0 Z " fill="#A9C7DD" transform="translate(80,124)"/>
<path d="M0 0 C0 1.65 0 3.3 0 5 C-2.97 4.67 -5.94 4.34 -9 4 C-7 1 -7 1 -3.9375 0.3125 C-1 0 -1 0 0 0 Z " fill="#FCFCFC" transform="translate(81,92)"/>
<path d="M0 0 C1.75 1.25 1.75 1.25 3.75 3.25 C-3 3.375 -3 3.375 -5.25 2.25 C-5.25 2.91 -5.25 3.57 -5.25 4.25 C-5.91 4.25 -6.57 4.25 -7.25 4.25 C-7.58 3.26 -7.91 2.27 -8.25 1.25 C-2.8622449 -0.95408163 -2.8622449 -0.95408163 0 0 Z " fill="#7B7E84" transform="translate(435.25,203.75)"/>
<path d="M0 0 C0.99 0.33 1.98 0.66 3 1 C3.66 0.67 4.32 0.34 5 0 C5 0.66 5 1.32 5 2 C5.66 2 6.32 2 7 2 C7 2.66 7 3.32 7 4 C4.625 5.0625 4.625 5.0625 2 6 C1.34 5.67 0.68 5.34 0 5 C0 3.35 0 1.7 0 0 Z " fill="#EDD7CB" transform="translate(85,83)"/>
<path d="M0 0 C2 2 2 2 2 4 C2.33 3.34 2.66 2.68 3 2 C3.66 2 4.32 2 5 2 C5 3.32 5 4.64 5 6 C4.34 6 3.68 6 3 6 C2.67 6.66 2.34 7.32 2 8 C2 7.34 2 6.68 2 6 C1.34 6 0.68 6 0 6 C0 4.02 0 2.04 0 0 Z " fill="#F2F1F3" transform="translate(63,129)"/>
<path d="M0 0 C0.66 0.66 1.32 1.32 2 2 C1.63723355 4.82957829 0.90305236 7.29084291 0 10 C-0.66 10 -1.32 10 -2 10 C-1.33333333 6.66666667 -0.66666667 3.33333333 0 0 Z " fill="#F1D4C4" transform="translate(82,96)"/>
<path d="M0 0 C1.32 0.33 2.64 0.66 4 1 C4.33 3.31 4.66 5.62 5 8 C4.01 7.67 3.02 7.34 2 7 C0.8125 3.4375 0.8125 3.4375 0 0 Z " fill="#9C9895" transform="translate(76,83)"/>
<path d="M0 0 C0.33 0.66 0.66 1.32 1 2 C1.99 2.33 2.98 2.66 4 3 C3.67 3.99 3.34 4.98 3 6 C1.68 5.67 0.36 5.34 -1 5 C-0.67 3.35 -0.34 1.7 0 0 Z " fill="#AFAFB0" transform="translate(146,162)"/>
<path d="M0 0 C0.99 0.33 1.98 0.66 3 1 C3 1.66 3 2.32 3 3 C3.598125 2.79375 4.19625 2.5875 4.8125 2.375 C7 2 7 2 10 4 C2.49230769 4.36923077 2.49230769 4.36923077 0 2.5 C-0.33 2.005 -0.66 1.51 -1 1 C-0.67 0.67 -0.34 0.34 0 0 Z " fill="#A4A8A6" transform="translate(507,158)"/>
<path d="M0 0 C1.65 0 3.3 0 5 0 C5 1.65 5 3.3 5 5 C4.34 5 3.68 5 3 5 C3 4.01 3 3.02 3 2 C2.01 2.99 1.02 3.98 0 5 C0 3.35 0 1.7 0 0 Z " fill="#ECEFF2" transform="translate(505,154)"/>
<path d="M0 0 C0.33 0.99 0.66 1.98 1 3 C0.01 4.485 0.01 4.485 -1 6 C-1.99 5.67 -2.98 5.34 -4 5 C-3.67 4.34 -3.34 3.68 -3 3 C-3.66 2.67 -4.32 2.34 -5 2 C-2 0 -2 0 0 0 Z " fill="#8ABEE1" transform="translate(81,98)"/>
<path d="M0 0 C1.98 0 3.96 0 6 0 C5.01 0.495 5.01 0.495 4 1 C4 1.99 4 2.98 4 4 C2.35 3.67 0.7 3.34 -1 3 C-0.67 2.01 -0.34 1.02 0 0 Z " fill="#DFDED3" transform="translate(530,194)"/>
<path d="M0 0 C0.33 0 0.66 0 1 0 C1 2.97 1 5.94 1 9 C-0.32 8.34 -1.64 7.68 -3 7 C-2.34 7 -1.68 7 -1 7 C-0.67 4.69 -0.34 2.38 0 0 Z " fill="#AAB1B9" transform="translate(432,188)"/>
<path d="M0 0 C1.5625 1.0625 1.5625 1.0625 3 3 C2.6875 6.6875 2.6875 6.6875 2 10 C0.57055055 7.64561267 -0.08661261 6.51967567 0.375 3.75 C0.58125 3.1725 0.7875 2.595 1 2 C0.34 1.67 -0.32 1.34 -1 1 C-0.67 0.67 -0.34 0.34 0 0 Z " fill="#1B191A" transform="translate(92,75)"/>
<path d="M0 0 C1.98 0 3.96 0 6 0 C6.33 1.32 6.66 2.64 7 4 C5.35 4 3.7 4 2 4 C1.34 2.68 0.68 1.36 0 0 Z " fill="#838487" transform="translate(434,6)"/>
<path d="M0 0 C2.97 0 5.94 0 9 0 C9.33 0.66 9.66 1.32 10 2 C7.03 2 4.06 2 1 2 C0.67 1.34 0.34 0.68 0 0 Z " fill="#181819" transform="translate(76,230)"/>
<path d="M0 0 C0.33 0.66 0.66 1.32 1 2 C-3.62 2 -8.24 2 -13 2 C-13 1.67 -13 1.34 -13 1 C-6.565 0.505 -6.565 0.505 0 0 Z " fill="#181819" transform="translate(49,222)"/>
<path d="M0 0 C0.33 0 0.66 0 1 0 C1 4.95 1 9.9 1 15 C0.67 15 0.34 15 0 15 C0 10.05 0 5.1 0 0 Z " fill="#717171" transform="translate(98,108)"/>
<path d="M0 0 C4.29 0 8.58 0 13 0 C13 0.33 13 0.66 13 1 C8.71 1 4.42 1 0 1 C0 0.67 0 0.34 0 0 Z " fill="#181819" transform="translate(36,218)"/>
<path d="M0 0 C1.5625 1.75 1.5625 1.75 3 4 C2.6875 6.25 2.6875 6.25 2 8 C1.34 7.67 0.68 7.34 0 7 C0 4.69 0 2.38 0 0 Z " fill="#5C575F" transform="translate(96,74)"/>
<path d="M0 0 C2.97 0 5.94 0 9 0 C5.23312136 1.88343932 3.97041037 2.22057835 0 2 C0 1.34 0 0.68 0 0 Z " fill="#5B6A7B" transform="translate(418,203)"/>
<path d="M0 0 C0.66 0.33 1.32 0.66 2 1 C2 3.97 2 6.94 2 10 C1.67 10 1.34 10 1 10 C1 7.36 1 4.72 1 2 C0.34 1.67 -0.32 1.34 -1 1 C-0.67 0.67 -0.34 0.34 0 0 Z " fill="#535354" transform="translate(95,106)"/>
<path d="M0 0 C1.32 0.66 2.64 1.32 4 2 C2.02 2.99 2.02 2.99 0 4 C0 2.68 0 1.36 0 0 Z " fill="#802C52" transform="translate(369,189)"/>
<path d="M0 0 C0.99 0 1.98 0 3 0 C3 1.32 3 2.64 3 4 C1.68 3.67 0.36 3.34 -1 3 C-0.67 2.01 -0.34 1.02 0 0 Z " fill="#5A6A7B" transform="translate(423,180)"/>
<path d="M0 0 C2.475 0.495 2.475 0.495 5 1 C5 1.99 5 2.98 5 4 C1.125 2.25 1.125 2.25 0 0 Z " fill="#A5D0EF" transform="translate(56,127)"/>
<path d="M0 0 C2.97 0.495 2.97 0.495 6 1 C4.1875 2.0625 4.1875 2.0625 2 3 C1.01 2.67 0.02 2.34 -1 2 C-0.67 1.34 -0.34 0.68 0 0 Z " fill="#F7F8F8" transform="translate(58,121)"/>
<path d="M0 0 C0.33 0 0.66 0 1 0 C1 3.3 1 6.6 1 10 C0.67 10 0.34 10 0 10 C0 6.7 0 3.4 0 0 Z " fill="#858484" transform="translate(423,207)"/>
<path d="M0 0 C1.98 0 3.96 0 6 0 C5.67 0.66 5.34 1.32 5 2 C3.02 2 1.04 2 -1 2 C-0.67 1.34 -0.34 0.68 0 0 Z " fill="#7B7B7F" transform="translate(416,205)"/>
<path d="M0 0 C1.32 0.66 2.64 1.32 4 2 C2.02 2.99 2.02 2.99 0 4 C-0.33 3.34 -0.66 2.68 -1 2 C-0.67 1.34 -0.34 0.68 0 0 Z " fill="#5A6A7B" transform="translate(380,200)"/>
<path d="M0 0 C0.33 0.66 0.66 1.32 1 2 C0.34 2.66 -0.32 3.32 -1 4 C-1.99 4 -2.98 4 -4 4 C-3.67 3.01 -3.34 2.02 -3 1 C-2.01 0.67 -1.02 0.34 0 0 Z " fill="#BCB9A3" transform="translate(504,161)"/>
<path d="M0 0 C1.32 0.99 2.64 1.98 4 3 C2.68 3.33 1.36 3.66 0 4 C-0.33 3.01 -0.66 2.02 -1 1 C-0.67 0.67 -0.34 0.34 0 0 Z " fill="#9ECFEF" transform="translate(74,136)"/>
<path d="M0 0 C0 1.66666667 0 3.33333333 0 5 C-1.32 4.67 -2.64 4.34 -4 4 C-3.34 4 -2.68 4 -2 4 C-1.34 2.68 -0.68 1.36 0 0 Z " fill="#F4F4F5" transform="translate(68,121)"/>
<path d="M0 0 C1.32 0.33 2.64 0.66 4 1 C3.01 2.485 3.01 2.485 2 4 C1.34 3.67 0.68 3.34 0 3 C0 2.01 0 1.02 0 0 Z " fill="#727375" transform="translate(571,101)"/>
<path d="M0 0 C1.32 0.66 2.64 1.32 4 2 C4 2.66 4 3.32 4 4 C1.525 3.01 1.525 3.01 -1 2 C-0.67 1.34 -0.34 0.68 0 0 Z " fill="#969696" transform="translate(72,86)"/>
<path d="M0 0 C3 0 3 0 6 1 C5.34 1 4.68 1 4 1 C4 1.66 4 2.32 4 3 C2.68 2.67 1.36 2.34 0 2 C0 1.34 0 0.68 0 0 Z " fill="#685E61" transform="translate(95,84)"/>
<path d="M0 0 C2.97 0 5.94 0 9 0 C9 0.33 9 0.66 9 1 C6.03 1 3.06 1 0 1 C0 0.67 0 0.34 0 0 Z " fill="#181819" transform="translate(39,226)"/>
<path d="M0 0 C0.33 0 0.66 0 1 0 C1 2.97 1 5.94 1 9 C0.67 9 0.34 9 0 9 C0 6.03 0 3.06 0 0 Z " fill="#858484" transform="translate(425,208)"/>
<path d="M0 0 C0.66 0 1.32 0 2 0 C2.33 1.65 2.66 3.3 3 5 C2.01 4.34 1.02 3.68 0 3 C0 2.01 0 1.02 0 0 Z " fill="#5E6D7D" transform="translate(423,194)"/>
<path d="M0 0 C1.32 0.33 2.64 0.66 4 1 C3.01 2.485 3.01 2.485 2 4 C1.34 2.68 0.68 1.36 0 0 Z " fill="#625B70" transform="translate(377,190)"/>
<path d="M0 0 C1.65 0 3.3 0 5 0 C5.33 0.99 5.66 1.98 6 3 C5.34 3 4.68 3 4 3 C4 2.34 4 1.68 4 1 C2.68 0.67 1.36 0.34 0 0 Z " fill="#A6D1F0" transform="translate(530,147)"/>
<path d="M0 0 C0.66 0 1.32 0 2 0 C2 2.64 2 5.28 2 8 C1.67 8 1.34 8 1 8 C0.67 5.36 0.34 2.72 0 0 Z " fill="#FDFCFE" transform="translate(101,75)"/>
<path d="M0 0 C0.99 0.99 1.98 1.98 3 3 C2.34 3 1.68 3 1 3 C0.67 3.66 0.34 4.32 0 5 C0 3.35 0 1.7 0 0 Z " fill="#5B6B7B" transform="translate(427,195)"/>
<path d="M0 0 C0.66 0 1.32 0 2 0 C1.67 0.99 1.34 1.98 1 3 C-0.32 2.67 -1.64 2.34 -3 2 C-2.01 2 -1.02 2 0 2 C0 1.34 0 0.68 0 0 Z " fill="#F2EDE9" transform="translate(71,122)"/>
<path d="M0 0 C1.32 0 2.64 0 4 0 C3.67 0.66 3.34 1.32 3 2 C1.68 1.67 0.36 1.34 -1 1 C-0.67 0.67 -0.34 0.34 0 0 Z " fill="#7B7F83" transform="translate(577,101)"/>
<path d="M0 0 C1.65 0 3.3 0 5 0 C4.67 0.66 4.34 1.32 4 2 C2.68 1.67 1.36 1.34 0 1 C0 0.67 0 0.34 0 0 Z " fill="#D6CDC2" transform="translate(64,93)"/>
<path d="M0 0 C2.31 0 4.62 0 7 0 C7 0.33 7 0.66 7 1 C4.69 1 2.38 1 0 1 C0 0.67 0 0.34 0 0 Z " fill="#181819" transform="translate(54,230)"/>
<path d="M0 0 C0.33 0 0.66 0 1 0 C1 2.31 1 4.62 1 7 C0.67 7 0.34 7 0 7 C0 4.69 0 2.38 0 0 Z " fill="#858484" transform="translate(421,210)"/>
<path d="M0 0 C1.65 0 3.3 0 5 0 C5 0.66 5 1.32 5 2 C3.35 1.67 1.7 1.34 0 1 C0 0.67 0 0.34 0 0 Z " fill="#F4F5F6" transform="translate(536,196)"/>
<path d="M0 0 C0.99 0.495 0.99 0.495 2 1 C2 1.99 2 2.98 2 4 C1.34 4 0.68 4 0 4 C0 2.68 0 1.36 0 0 Z " fill="#F4F3F5" transform="translate(148,168)"/>
<path d="M0 0 C0.99 0 1.98 0 3 0 C3 0.99 3 1.98 3 3 C2.34 3 1.68 3 1 3 C0.67 2.01 0.34 1.02 0 0 Z " fill="#FBFBF9" transform="translate(87,138)"/>
<path d="M0 0 C0.66 1.32 1.32 2.64 2 4 C1.01 4.495 1.01 4.495 0 5 C0 3.35 0 1.7 0 0 Z " fill="#161618" transform="translate(93,101)"/>
<path d="M0 0 C0.33 0 0.66 0 1 0 C1 1.65 1 3.3 1 5 C0.01 4.67 -0.98 4.34 -2 4 C-1.34 4 -0.68 4 0 4 C0 2.68 0 1.36 0 0 Z " fill="#D3D3D4" transform="translate(100,78)"/>
<path d="M0 0 C0.99 0 1.98 0 3 0 C2.67 0.66 2.34 1.32 2 2 C1.01 1.67 0.02 1.34 -1 1 C-0.67 0.67 -0.34 0.34 0 0 Z " fill="#858487" transform="translate(409,212)"/>
<path d="M0 0 C0.33 0 0.66 0 1 0 C1 1.65 1 3.3 1 5 C0.34 3.68 -0.32 2.36 -1 1 C-0.67 0.67 -0.34 0.34 0 0 Z " fill="#667583" transform="translate(390,196)"/>
<path d="M0 0 C0.99 0 1.98 0 3 0 C2.67 0.99 2.34 1.98 2 3 C1.34 2.67 0.68 2.34 0 2 C0 1.34 0 0.68 0 0 Z " fill="#843C5A" transform="translate(373,193)"/>
<path d="M0 0 C1.32 0 2.64 0 4 0 C4 0.66 4 1.32 4 2 C2.68 1.34 1.36 0.68 0 0 Z " fill="#85405E" transform="translate(372,177)"/>
<path d="M0 0 C0.99 0.33 1.98 0.66 3 1 C1.68 1.33 0.36 1.66 -1 2 C-0.67 1.34 -0.34 0.68 0 0 Z " fill="#60B3EE" transform="translate(80,141)"/>
<path d="M0 0 C0.99 0.99 1.98 1.98 3 3 C2.01 3 1.02 3 0 3 C0 2.01 0 1.02 0 0 Z " fill="#8DCAF1" transform="translate(69,137)"/>
<path d="M0 0 C0.33 0.99 0.66 1.98 1 3 C1.66 3.33 2.32 3.66 3 4 C2.01 4 1.02 4 0 4 C0 2.68 0 1.36 0 0 Z " fill="#989898" transform="translate(98,124)"/>
<path d="M0 0 C2 2 2 2 2 4 C1.34 4 0.68 4 0 4 C0 2.68 0 1.36 0 0 Z " fill="#2D2C30" transform="translate(568,100)"/>
<path d="M0 0 C0.66 0 1.32 0 2 0 C2 0.66 2 1.32 2 2 C1.01 2.33 0.02 2.66 -1 3 C-0.67 2.01 -0.34 1.02 0 0 Z " fill="#77A5C5" transform="translate(69,102)"/>
<path d="M0 0 C1.32 0.33 2.64 0.66 4 1 C2.68 1.33 1.36 1.66 0 2 C0 1.34 0 0.68 0 0 Z " fill="#61ADE1" transform="translate(67,99)"/>
<path d="M0 0 C0.66 0 1.32 0 2 0 C2 0.99 2 1.98 2 3 C1.01 2.67 0.02 2.34 -1 2 C-0.67 1.34 -0.34 0.68 0 0 Z " fill="#957D59" transform="translate(62,88)"/>
<path d="M0 0 C0.99 0 1.98 0 3 0 C2.67 0.99 2.34 1.98 2 3 C1.34 2.67 0.68 2.34 0 2 C0 1.34 0 0.68 0 0 Z " fill="#989796" transform="translate(73,84)"/>
<path d="M0 0 C0.33 0.66 0.66 1.32 1 2 C1.66 2.33 2.32 2.66 3 3 C1.68 2.67 0.36 2.34 -1 2 C-0.67 1.34 -0.34 0.68 0 0 Z " fill="#FCFBFB" transform="translate(66,78)"/>
<path d="M0 0 C0.66 0 1.32 0 2 0 C2 0.99 2 1.98 2 3 C1.34 3 0.68 3 0 3 C0 2.01 0 1.02 0 0 Z " fill="#828384" transform="translate(443,6)"/>
<path d="M0 0 C0.66 0.66 1.32 1.32 2 2 C1.01 2 0.02 2 -1 2 C-0.67 1.34 -0.34 0.68 0 0 Z " fill="#D2D2D3" transform="translate(80,237)"/>
<path d="M0 0 C0.66 0.66 1.32 1.32 2 2 C1.01 2 0.02 2 -1 2 C-0.67 1.34 -0.34 0.68 0 0 Z " fill="#D2D2D3" transform="translate(77,237)"/>
<path d="M0 0 C0.66 0.66 1.32 1.32 2 2 C1.01 2 0.02 2 -1 2 C-0.67 1.34 -0.34 0.68 0 0 Z " fill="#D2D2D3" transform="translate(74,237)"/>
<path d="M0 0 C0.66 0.66 1.32 1.32 2 2 C1.01 2 0.02 2 -1 2 C-0.67 1.34 -0.34 0.68 0 0 Z " fill="#D2D2D3" transform="translate(71,237)"/>
<path d="M0 0 C0.66 0.66 1.32 1.32 2 2 C1.01 2 0.02 2 -1 2 C-0.67 1.34 -0.34 0.68 0 0 Z " fill="#D2D2D3" transform="translate(68,237)"/>
<path d="M0 0 C0.66 0.66 1.32 1.32 2 2 C1.01 2 0.02 2 -1 2 C-0.67 1.34 -0.34 0.68 0 0 Z " fill="#D2D2D3" transform="translate(65,237)"/>
<path d="M0 0 C0.66 0.66 1.32 1.32 2 2 C1.01 2 0.02 2 -1 2 C-0.67 1.34 -0.34 0.68 0 0 Z " fill="#D2D2D3" transform="translate(62,237)"/>
<path d="M0 0 C0.66 0.66 1.32 1.32 2 2 C1.01 2 0.02 2 -1 2 C-0.67 1.34 -0.34 0.68 0 0 Z " fill="#D2D2D3" transform="translate(59,237)"/>
<path d="M0 0 C0.66 0.66 1.32 1.32 2 2 C1.01 2 0.02 2 -1 2 C-0.67 1.34 -0.34 0.68 0 0 Z " fill="#D2D2D3" transform="translate(56,237)"/>
<path d="M0 0 C0.66 0.66 1.32 1.32 2 2 C1.01 2 0.02 2 -1 2 C-0.67 1.34 -0.34 0.68 0 0 Z " fill="#D2D2D3" transform="translate(53,237)"/>
<path d="M0 0 C0.66 0.66 1.32 1.32 2 2 C1.01 2 0.02 2 -1 2 C-0.67 1.34 -0.34 0.68 0 0 Z " fill="#D2D2D3" transform="translate(50,237)"/>
<path d="M0 0 C0.66 0.66 1.32 1.32 2 2 C1.01 2 0.02 2 -1 2 C-0.67 1.34 -0.34 0.68 0 0 Z " fill="#D2D2D3" transform="translate(47,237)"/>
<path d="M0 0 C0.66 0.66 1.32 1.32 2 2 C1.01 2 0.02 2 -1 2 C-0.67 1.34 -0.34 0.68 0 0 Z " fill="#D2D2D3" transform="translate(44,237)"/>
<path d="M0 0 C0.66 0.66 1.32 1.32 2 2 C1.01 2 0.02 2 -1 2 C-0.67 1.34 -0.34 0.68 0 0 Z " fill="#D2D2D3" transform="translate(41,237)"/>
<path d="M0 0 C0.66 0.66 1.32 1.32 2 2 C1.01 2 0.02 2 -1 2 C-0.67 1.34 -0.34 0.68 0 0 Z " fill="#D2D2D3" transform="translate(38,237)"/>
<path d="M0 0 C0.66 0.66 1.32 1.32 2 2 C1.01 2 0.02 2 -1 2 C-0.67 1.34 -0.34 0.68 0 0 Z " fill="#D2D2D3" transform="translate(35,237)"/>
<path d="M0 0 C0.66 0.66 1.32 1.32 2 2 C1.01 2 0.02 2 -1 2 C-0.67 1.34 -0.34 0.68 0 0 Z " fill="#D2D2D3" transform="translate(32,237)"/>
<path d="M0 0 C0.66 0.66 1.32 1.32 2 2 C1.01 2 0.02 2 -1 2 C-0.67 1.34 -0.34 0.68 0 0 Z " fill="#D2D2D3" transform="translate(29,237)"/>
<path d="M0 0 C0.66 0.66 1.32 1.32 2 2 C1.01 2 0.02 2 -1 2 C-0.67 1.34 -0.34 0.68 0 0 Z " fill="#D2D2D3" transform="translate(26,237)"/>
<path d="M0 0 C0.66 0.66 1.32 1.32 2 2 C1.01 2 0.02 2 -1 2 C-0.67 1.34 -0.34 0.68 0 0 Z " fill="#D2D2D3" transform="translate(23,237)"/>
<path d="M0 0 C0.66 0.66 1.32 1.32 2 2 C1.01 2 0.02 2 -1 2 C-0.67 1.34 -0.34 0.68 0 0 Z " fill="#D2D2D3" transform="translate(20,237)"/>
<path d="M0 0 C0.66 0.66 1.32 1.32 2 2 C1.01 2 0.02 2 -1 2 C-0.67 1.34 -0.34 0.68 0 0 Z " fill="#D2D2D3" transform="translate(17,237)"/>
<path d="M0 0 C0.66 0.66 1.32 1.32 2 2 C1.01 2 0.02 2 -1 2 C-0.67 1.34 -0.34 0.68 0 0 Z " fill="#D2D2D3" transform="translate(14,237)"/>
<path d="M0 0 C0.66 0.66 1.32 1.32 2 2 C1.01 2 0.02 2 -1 2 C-0.67 1.34 -0.34 0.68 0 0 Z " fill="#D2D2D3" transform="translate(11,237)"/>
<path d="M0 0 C0.66 0.66 1.32 1.32 2 2 C1.01 2 0.02 2 -1 2 C-0.67 1.34 -0.34 0.68 0 0 Z " fill="#1B1B1D" transform="translate(7,233)"/>
<path d="M0 0 C0.99 0.33 1.98 0.66 3 1 C2.01 1.33 1.02 1.66 0 2 C0 1.34 0 0.68 0 0 Z " fill="#444445" transform="translate(43,229)"/>
<path d="M0 0 C1.32 0.33 2.64 0.66 4 1 C3.01 1.33 2.02 1.66 1 2 C0.67 1.34 0.34 0.68 0 0 Z " fill="#2A2A2C" transform="translate(50,219)"/>
<path d="M0 0 C0.99 0 1.98 0 3 0 C3 0.66 3 1.32 3 2 C2.01 2 1.02 2 0 2 C0 1.34 0 0.68 0 0 Z " fill="#84767F" transform="translate(384,207)"/>
<path d="M0 0 C1.65 0 3.3 0 5 0 C5 0.33 5 0.66 5 1 C3.35 1 1.7 1 0 1 C0 0.67 0 0.34 0 0 Z " fill="#7D7C7D" transform="translate(441,206)"/>
<path d="M0 0 C0.66 0.66 1.32 1.32 2 2 C0.68 1.67 -0.64 1.34 -2 1 C-1.34 0.67 -0.68 0.34 0 0 Z " fill="#615E73" transform="translate(379,197)"/>
<path d="M0 0 C1.65 0 3.3 0 5 0 C5 0.33 5 0.66 5 1 C3.35 1 1.7 1 0 1 C0 0.67 0 0.34 0 0 Z " fill="#5C6C7C" transform="translate(421,190)"/>
<path d="M0 0 C0.99 0.495 0.99 0.495 2 1 C2 1.66 2 2.32 2 3 C1.34 3 0.68 3 0 3 C0 2.01 0 1.02 0 0 Z " fill="#5A6D7F" transform="translate(429,187)"/>
<path d="M0 0 C0.66 0 1.32 0 2 0 C1.67 1.32 1.34 2.64 1 4 C0.67 2.68 0.34 1.36 0 0 Z " fill="#5A6A7B" transform="translate(426,184)"/>
<path d="M0 0 C0.66 1.32 1.32 2.64 2 4 C1.34 4 0.68 4 0 4 C0 2.68 0 1.36 0 0 Z " fill="#80C6F4" transform="translate(525,147)"/>
<path d="M0 0 C0.33 0.66 0.66 1.32 1 2 C1.66 2.33 2.32 2.66 3 3 C2.01 3 1.02 3 0 3 C0 2.01 0 1.02 0 0 Z " fill="#858587" transform="translate(359,143)"/>
<path d="M0 0 C1.32 0.33 2.64 0.66 4 1 C2.68 1.33 1.36 1.66 0 2 C0 1.34 0 0.68 0 0 Z " fill="#5FB3EE" transform="translate(74,142)"/>
<path d="M0 0 C0.66 0.66 1.32 1.32 2 2 C1.01 2.33 0.02 2.66 -1 3 C-0.67 2.01 -0.34 1.02 0 0 Z " fill="#A7D3ED" transform="translate(62,125)"/>
<path d="M0 0 C0.99 0.33 1.98 0.66 3 1 C1.68 1.33 0.36 1.66 -1 2 C-0.67 1.34 -0.34 0.68 0 0 Z " fill="#5CB3EE" transform="translate(69,114)"/>
<path d="M0 0 C0.66 0 1.32 0 2 0 C2 0.66 2 1.32 2 2 C1.34 2 0.68 2 0 2 C0 1.34 0 0.68 0 0 Z " fill="#666567" transform="translate(8,236)"/>
<path d="M0 0 C0.33 0.99 0.66 1.98 1 3 C0.34 2.67 -0.32 2.34 -1 2 C-0.67 1.34 -0.34 0.68 0 0 Z " fill="#444445" transform="translate(4,234)"/>
<path d="M0 0 C4 1 4 1 4 1 Z " fill="#141415" transform="translate(81,234)"/>
<path d="M0 0 C1.485 0.99 1.485 0.99 3 2 C2.01 2 1.02 2 0 2 C0 1.34 0 0.68 0 0 Z " fill="#222121" transform="translate(34,227)"/>
<path d="M0 0 C0.99 0 1.98 0 3 0 C2.67 0.66 2.34 1.32 2 2 C1.34 1.34 0.68 0.68 0 0 Z " fill="#6C7986" transform="translate(392,200)"/>
<path d="M0 0 C0.99 0.33 1.98 0.66 3 1 C2.01 1.33 1.02 1.66 0 2 C0 1.34 0 0.68 0 0 Z " fill="#5B6B7B" transform="translate(393,197)"/>
<path d="M0 0 C0.66 0.66 1.32 1.32 2 2 C1.01 1.67 0.02 1.34 -1 1 C-0.67 0.67 -0.34 0.34 0 0 Z " fill="#5A6A7A" transform="translate(420,195)"/>
<path d="M0 0 C0.99 0.33 1.98 0.66 3 1 C2.01 1 1.02 1 0 1 C0 0.67 0 0.34 0 0 Z " fill="#5B6A7B" transform="translate(385,196)"/>
<path d="M0 0 C0.66 0.66 1.32 1.32 2 2 C1.01 2.495 1.01 2.495 0 3 C0 2.01 0 1.02 0 0 Z " fill="#677687" transform="translate(396,194)"/>
<path d="M0 0 C0 3 0 3 0 3 Z " fill="#5B6B7B" transform="translate(428,180)"/>
<path d="M0 0 C0.99 0.33 1.98 0.66 3 1 C2.01 1 1.02 1 0 1 C0 0.67 0 0.34 0 0 Z " fill="#62586D" transform="translate(377,179)"/>
<path d="M0 0 C0.66 0 1.32 0 2 0 C2 0.66 2 1.32 2 2 C1.34 2 0.68 2 0 2 C0 1.34 0 0.68 0 0 Z " fill="#EEF3F6" transform="translate(529,154)"/>
<path d="M0 0 C0.66 0 1.32 0 2 0 C2 0.66 2 1.32 2 2 C1.34 2 0.68 2 0 2 C0 1.34 0 0.68 0 0 Z " fill="#65B2E7" transform="translate(508,147)"/>
<path d="M0 0 C0.66 0.66 1.32 1.32 2 2 C1.01 1.67 0.02 1.34 -1 1 C-0.67 0.67 -0.34 0.34 0 0 Z " fill="#828284" transform="translate(357,145)"/>
<path d="M0 0 C0.66 0 1.32 0 2 0 C2 0.66 2 1.32 2 2 C1.34 2 0.68 2 0 2 C0 1.34 0 0.68 0 0 Z " fill="#9D9C9D" transform="translate(354,142)"/>
<path d="M0 0 C0 3 0 3 0 3 Z " fill="#61B4EE" transform="translate(84,137)"/>
<path d="M0 0 C0.66 0 1.32 0 2 0 C2 0.66 2 1.32 2 2 C1.34 2 0.68 2 0 2 C0 1.34 0 0.68 0 0 Z " fill="#F4F4F6" transform="translate(58,138)"/>
<path d="M0 0 C0.99 0.33 1.98 0.66 3 1 C2.01 1 1.02 1 0 1 C0 0.67 0 0.34 0 0 Z " fill="#F3F2F4" transform="translate(51,135)"/>
<path d="M0 0 C0.66 0 1.32 0 2 0 C2 0.66 2 1.32 2 2 C1.34 2 0.68 2 0 2 C0 1.34 0 0.68 0 0 Z " fill="#FCFBF9" transform="translate(88,131)"/>
<path d="M0 0 C0.66 0 1.32 0 2 0 C1.67 0.99 1.34 1.98 1 3 C0.67 2.01 0.34 1.02 0 0 Z " fill="#C8E2F1" transform="translate(56,130)"/>
<path d="M0 0 C0.66 0.66 1.32 1.32 2 2 C1.01 2.495 1.01 2.495 0 3 C0 2.01 0 1.02 0 0 Z " fill="#F6FAFA" transform="translate(87,128)"/>
<path d="M0 0 C0.33 0.66 0.66 1.32 1 2 C0.01 1.67 -0.98 1.34 -2 1 C-1.34 0.67 -0.68 0.34 0 0 Z " fill="#EED7C8" transform="translate(78,121)"/>
<path d="M0 0 C0.99 0.33 1.98 0.66 3 1 C2.01 1 1.02 1 0 1 C0 0.67 0 0.34 0 0 Z " fill="#5EB2EE" transform="translate(64,114)"/>
<path d="M0 0 C0.99 0.33 1.98 0.66 3 1 C2.01 1.33 1.02 1.66 0 2 C0 1.34 0 0.68 0 0 Z " fill="#2D2C30" transform="translate(555,112)"/>
<path d="M0 0 C0.66 0 1.32 0 2 0 C2 0.66 2 1.32 2 2 C1.34 2 0.68 2 0 2 C0 1.34 0 0.68 0 0 Z " fill="#FDFCFD" transform="translate(101,104)"/>
<path d="M0 0 C4 1 4 1 4 1 Z " fill="#7F8286" transform="translate(574,99)"/>
<path d="M0 0 C0 3 0 3 0 3 Z " fill="#666568" transform="translate(97,99)"/>
<path d="M0 0 C4 1 4 1 4 1 Z " fill="#959698" transform="translate(67,88)"/>
<path d="M0 0 C3 1 3 1 3 1 Z " fill="#FFFFFF" transform="translate(0,238)"/>
<path d="M0 0 C0.33 0.66 0.66 1.32 1 2 C0.34 1.67 -0.32 1.34 -1 1 C-0.67 0.67 -0.34 0.34 0 0 Z " fill="#151517" transform="translate(46,231)"/>
<path d="M0 0 C0.66 0 1.32 0 2 0 C1.67 0.66 1.34 1.32 1 2 C0.67 1.34 0.34 0.68 0 0 Z " fill="#181819" transform="translate(86,230)"/>
<path d="M0 0 C3 1 3 1 3 1 Z " fill="#18181A" transform="translate(81,220)"/>
<path d="" fill="#858588" transform="translate(0,0)"/>
<path d="" fill="#858588" transform="translate(0,0)"/>
<path d="M0 0 C3 1 3 1 3 1 Z " fill="#838385" transform="translate(424,206)"/>
<path d="M0 0 C0.66 0 1.32 0 2 0 C1.67 0.66 1.34 1.32 1 2 C0.67 1.34 0.34 0.68 0 0 Z " fill="#7E1F49" transform="translate(365,204)"/>
<path d="M0 0 C0.33 0.66 0.66 1.32 1 2 C0.34 1.67 -0.32 1.34 -1 1 C-0.67 0.67 -0.34 0.34 0 0 Z " fill="#5B6A7A" transform="translate(401,203)"/>
<path d="M0 0 C0.99 0.495 0.99 0.495 2 1 C1.01 1.495 1.01 1.495 0 2 C0 1.34 0 0.68 0 0 Z " fill="#5B6A7A" transform="translate(384,203)"/>
<path d="M0 0 C0.33 0.66 0.66 1.32 1 2 C0.34 1.67 -0.32 1.34 -1 1 C-0.67 0.67 -0.34 0.34 0 0 Z " fill="#5B6B7B" transform="translate(399,202)"/>
<path d="M0 0 C0.99 0.495 0.99 0.495 2 1 C1.01 1.495 1.01 1.495 0 2 C0 1.34 0 0.68 0 0 Z " fill="#5A6979" transform="translate(388,201)"/>
<path d="M0 0 C0.99 0.495 0.99 0.495 2 1 C1.01 1.495 1.01 1.495 0 2 C0 1.34 0 0.68 0 0 Z " fill="#677684" transform="translate(420,200)"/>
<path d="M0 0 C0.66 0 1.32 0 2 0 C1.67 0.66 1.34 1.32 1 2 C0.67 1.34 0.34 0.68 0 0 Z " fill="#75808B" transform="translate(399,199)"/>
<path d="M0 0 C0.66 0 1.32 0 2 0 C1.67 0.66 1.34 1.32 1 2 C0.67 1.34 0.34 0.68 0 0 Z " fill="#7B264C" transform="translate(375,199)"/>
<path d="M0 0 C3 1 3 1 3 1 Z " fill="#5D6C7C" transform="translate(383,192)"/>
<path d="M0 0 C0.33 0.66 0.66 1.32 1 2 C0.34 1.67 -0.32 1.34 -1 1 C-0.67 0.67 -0.34 0.34 0 0 Z " fill="#5A6A7B" transform="translate(428,190)"/>
<path d="M0 0 C3 1 3 1 3 1 Z " fill="#5A6A7B" transform="translate(423,185)"/>
<path d="" fill="#5E6E7E" transform="translate(0,0)"/>
<path d="" fill="#F8F8F9" transform="translate(0,0)"/>
<path d="M0 0 C3 1 3 1 3 1 Z " fill="#97D0F5" transform="translate(61,149)"/>
<path d="M0 0 C0.66 0.66 1.32 1.32 2 2 C1.34 2 0.68 2 0 2 C0 1.34 0 0.68 0 0 Z " fill="#868588" transform="translate(361,137)"/>
<path d="M0 0 C0.33 0.66 0.66 1.32 1 2 C0.34 1.67 -0.32 1.34 -1 1 C-0.67 0.67 -0.34 0.34 0 0 Z " fill="#5CB2EE" transform="translate(83,134)"/>
<path d="M0 0 C0.33 0.66 0.66 1.32 1 2 C0.34 1.67 -0.32 1.34 -1 1 C-0.67 0.67 -0.34 0.34 0 0 Z " fill="#F4F1F3" transform="translate(68,126)"/>
<path d="M0 0 C3 1 3 1 3 1 Z " fill="#B4E5F5" transform="translate(70,105)"/>
<path d="M0 0 C0.66 0 1.32 0 2 0 C1.67 0.66 1.34 1.32 1 2 C0.67 1.34 0.34 0.68 0 0 Z " fill="#8B8792" transform="translate(98,103)"/>
<path d="M0 0 C0.33 0.66 0.66 1.32 1 2 C0.34 1.67 -0.32 1.34 -1 1 C-0.67 0.67 -0.34 0.34 0 0 Z " fill="#5EB3EE" transform="translate(75,101)"/>
<path d="M0 0 C0.66 0 1.32 0 2 0 C1.67 0.66 1.34 1.32 1 2 C0.67 1.34 0.34 0.68 0 0 Z " fill="#EED7C8" transform="translate(88,89)"/>
<path d="M0 0 C0.66 0 1.32 0 2 0 C1.67 0.66 1.34 1.32 1 2 C0.67 1.34 0.34 0.68 0 0 Z " fill="#504451" transform="translate(97,88)"/>
<path d="M0 0 C0.66 0.66 1.32 1.32 2 2 C1.34 2 0.68 2 0 2 C0 1.34 0 0.68 0 0 Z " fill="#98805A" transform="translate(58,82)"/>
<path d="M0 0 C3 1 3 1 3 1 Z " fill="#FFFDFD" transform="translate(77,73)"/>
<path d="M0 0 C2 1 2 1 2 1 Z " fill="#58505A" transform="translate(1,235)"/>
<path d="M0 0 C2 1 2 1 2 1 Z " fill="#141415" transform="translate(78,234)"/>
<path d="M0 0 C2 1 2 1 2 1 Z " fill="#141415" transform="translate(75,234)"/>
<path d="M0 0 C2 1 2 1 2 1 Z " fill="#141415" transform="translate(72,234)"/>
<path d="M0 0 C2 1 2 1 2 1 Z " fill="#151516" transform="translate(39,231)"/>
<path d="" fill="#605F61" transform="translate(0,0)"/>
<path d="M0 0 C2 1 2 1 2 1 Z " fill="#171718" transform="translate(54,220)"/>
<path d="" fill="#F3F1F5" transform="translate(0,0)"/>
<path d="M0 0 C2 1 2 1 2 1 Z " fill="#858486" transform="translate(416,208)"/>
<path d="" fill="#F3F1F5" transform="translate(0,0)"/>
<path d="M0 0 C2 1 2 1 2 1 Z " fill="#5A697A" transform="translate(405,201)"/>
<path d="M0 0 C2 1 2 1 2 1 Z " fill="#5B6979" transform="translate(385,201)"/>
<path d="" fill="#59697A" transform="translate(0,0)"/>
<path d="M0 0 C2 1 2 1 2 1 Z " fill="#788692" transform="translate(396,199)"/>
<path d="M0 0 C2 1 2 1 2 1 Z " fill="#717F8D" transform="translate(384,199)"/>
<path d="M0 0 C2 1 2 1 2 1 Z " fill="#7D2850" transform="translate(369,199)"/>
<path d="M0 0 C2 1 2 1 2 1 Z " fill="#7D2850" transform="translate(365,199)"/>
<path d="M0 0 C2 1 2 1 2 1 Z " fill="#59697A" transform="translate(417,185)"/>
<path d="M0 0 C2 1 2 1 2 1 Z " fill="#832854" transform="translate(368,183)"/>
<path d="M0 0 C2 1 2 1 2 1 Z " fill="#82305A" transform="translate(361,183)"/>
<path d="" fill="#59697A" transform="translate(0,0)"/>
<path d="" fill="#59697A" transform="translate(0,0)"/>
<path d="M0 0 C2 1 2 1 2 1 Z " fill="#6A7885" transform="translate(427,178)"/>
<path d="" fill="#812952" transform="translate(0,0)"/>
<path d="M0 0 C2 1 2 1 2 1 Z " fill="#6A4C67" transform="translate(377,177)"/>
<path d="M0 0 C2 1 2 1 2 1 Z " fill="#5B6B7B" transform="translate(422,171)"/>
<path d="M0 0 C2 1 2 1 2 1 Z " fill="#5E6E7E" transform="translate(419,169)"/>
<path d="" fill="#F3F1F4" transform="translate(0,0)"/>
<path d="M0 0 C2 1 2 1 2 1 Z " fill="#B6B590" transform="translate(509,163)"/>
<path d="" fill="#E9F1F8" transform="translate(0,0)"/>
<path d="" fill="#5A525B" transform="translate(0,0)"/>
<path d="M0 0 C2 1 2 1 2 1 Z " fill="#61B3EE" transform="translate(527,147)"/>
<path d="M0 0 C2 1 2 1 2 1 Z " fill="#5DB2EE" transform="translate(58,143)"/>
<path d="M0 0 C2 1 2 1 2 1 Z " fill="#F1F0F3" transform="translate(56,142)"/>
<path d="M0 0 C2 1 2 1 2 1 Z " fill="#F4F1F3" transform="translate(54,141)"/>
<path d="M0 0 C2 1 2 1 2 1 Z " fill="#858486" transform="translate(358,140)"/>
<path d="M0 0 C2 1 2 1 2 1 Z " fill="#5CB2EE" transform="translate(77,140)"/>
<path d="" fill="#868588" transform="translate(0,0)"/>
<path d="M0 0 C2 1 2 1 2 1 Z " fill="#FCFBFB" transform="translate(88,136)"/>
<path d="" fill="#F3F1F4" transform="translate(0,0)"/>
<path d="" fill="#B2DFF8" transform="translate(0,0)"/>
<path d="M0 0 C2 1 2 1 2 1 Z " fill="#F2F8F9" transform="translate(51,132)"/>
<path d="M0 0 C2 1 2 1 2 1 Z " fill="#60B3EE" transform="translate(82,130)"/>
<path d="M0 0 C2 1 2 1 2 1 Z " fill="#60B3EE" transform="translate(82,126)"/>
<path d="" fill="#E6E9EA" transform="translate(0,0)"/>
<path d="M0 0 C2 1 2 1 2 1 Z " fill="#665348" transform="translate(553,114)"/>
<path d="M0 0 C2 1 2 1 2 1 Z " fill="#2E2D30" transform="translate(554,110)"/>
<path d="M0 0 C2 1 2 1 2 1 Z " fill="#60B3EE" transform="translate(68,108)"/>
<path d="M0 0 C2 1 2 1 2 1 Z " fill="#2D2C30" transform="translate(568,105)"/>
<path d="" fill="#AFAFAF" transform="translate(0,0)"/>
<path d="M0 0 C2 1 2 1 2 1 Z " fill="#5EB2ED" transform="translate(71,101)"/>
<path d="M0 0 C2 1 2 1 2 1 Z " fill="#2D2C30" transform="translate(567,98)"/>
<path d="M0 0 C2 1 2 1 2 1 Z " fill="#D6D6D6" transform="translate(99,91)"/>
<path d="" fill="#FDFDFE" transform="translate(0,0)"/>
<path d="" fill="#FCFBFC" transform="translate(0,0)"/>
<path d="M0 0 C2 1 2 1 2 1 Z " fill="#F7EBE1" transform="translate(63,81)"/>
<path d="" fill="#F9FAFA" transform="translate(0,0)"/>
<path d="M0 0 C2 1 2 1 2 1 Z " fill="#FFFDFD" transform="translate(72,77)"/>
<path d="M0 0 C2 1 2 1 2 1 Z " fill="#D2D7DC" transform="translate(99,74)"/>
<path d="M0 0 C2 1 2 1 2 1 Z " fill="#FFFDFD" transform="translate(82,74)"/>
<path d="" fill="#FAFAF9" transform="translate(0,0)"/>
<path d="M0 0 C2 1 2 1 2 1 Z " fill="#F2F1F3" transform="translate(219,0)"/>
<path d="" fill="#646367" transform="translate(0,0)"/>
<path d="" fill="#352F2D" transform="translate(0,0)"/>
<path d="" fill="#131211" transform="translate(0,0)"/>
<path d="" fill="#1A1A1B" transform="translate(0,0)"/>
<path d="" fill="#17181C" transform="translate(0,0)"/>
<path d="" fill="#181818" transform="translate(0,0)"/>
<path d="" fill="#19191B" transform="translate(0,0)"/>
<path d="" fill="#2F3035" transform="translate(0,0)"/>
<path d="" fill="#181818" transform="translate(0,0)"/>
<path d="" fill="#3C3B3F" transform="translate(0,0)"/>
<path d="" fill="#3C3B3F" transform="translate(0,0)"/>
<path d="" fill="#131211" transform="translate(0,0)"/>
<path d="" fill="#161619" transform="translate(0,0)"/>
<path d="" fill="#19191B" transform="translate(0,0)"/>
<path d="" fill="#161619" transform="translate(0,0)"/>
<path d="" fill="#181818" transform="translate(0,0)"/>
<path d="" fill="#666666" transform="translate(0,0)"/>
<path d="" fill="#474445" transform="translate(0,0)"/>
<path d="" fill="#181818" transform="translate(0,0)"/>
<path d="" fill="#19191B" transform="translate(0,0)"/>
<path d="" fill="#181818" transform="translate(0,0)"/>
<path d="" fill="#19191B" transform="translate(0,0)"/>
<path d="" fill="#181818" transform="translate(0,0)"/>
<path d="" fill="#19191B" transform="translate(0,0)"/>
<path d="" fill="#181818" transform="translate(0,0)"/>
<path d="" fill="#19191B" transform="translate(0,0)"/>
<path d="" fill="#181818" transform="translate(0,0)"/>
<path d="" fill="#19191B" transform="translate(0,0)"/>
<path d="" fill="#181818" transform="translate(0,0)"/>
<path d="" fill="#19191B" transform="translate(0,0)"/>
<path d="" fill="#19191B" transform="translate(0,0)"/>
<path d="" fill="#323338" transform="translate(0,0)"/>
<path d="" fill="#F5F5F4" transform="translate(0,0)"/>
<path d="" fill="#858484" transform="translate(0,0)"/>
<path d="" fill="#F4F1F3" transform="translate(0,0)"/>
<path d="" fill="#D2D8DB" transform="translate(0,0)"/>
<path d="" fill="#888688" transform="translate(0,0)"/>
<path d="" fill="#858588" transform="translate(0,0)"/>
<path d="" fill="#858484" transform="translate(0,0)"/>
<path d="" fill="#858484" transform="translate(0,0)"/>
<path d="" fill="#858588" transform="translate(0,0)"/>
<path d="" fill="#7D3057" transform="translate(0,0)"/>
<path d="" fill="#7F1F48" transform="translate(0,0)"/>
<path d="" fill="#F5F5F4" transform="translate(0,0)"/>
<path d="" fill="#5C6C7C" transform="translate(0,0)"/>
<path d="" fill="#5A6A7B" transform="translate(0,0)"/>
<path d="" fill="#7F1F48" transform="translate(0,0)"/>
<path d="" fill="#7F1F48" transform="translate(0,0)"/>
<path d="" fill="#FFFFFF" transform="translate(0,0)"/>
<path d="" fill="#FFFDFF" transform="translate(0,0)"/>
<path d="" fill="#5C6C7C" transform="translate(0,0)"/>
<path d="" fill="#7E204A" transform="translate(0,0)"/>
<path d="" fill="#7E204A" transform="translate(0,0)"/>
<path d="" fill="#5A6A7B" transform="translate(0,0)"/>
<path d="" fill="#606B76" transform="translate(0,0)"/>
<path d="" fill="#5C6C7C" transform="translate(0,0)"/>
<path d="" fill="#5C6C7C" transform="translate(0,0)"/>
<path d="" fill="#7E204A" transform="translate(0,0)"/>
<path d="" fill="#7E204A" transform="translate(0,0)"/>
<path d="" fill="#7F1F48" transform="translate(0,0)"/>
<path d="" fill="#7E204A" transform="translate(0,0)"/>
<path d="" fill="#5C6C7C" transform="translate(0,0)"/>
<path d="" fill="#5B6979" transform="translate(0,0)"/>
<path d="" fill="#58697A" transform="translate(0,0)"/>
<path d="" fill="#576878" transform="translate(0,0)"/>
<path d="" fill="#58697A" transform="translate(0,0)"/>
<path d="" fill="#7F1F48" transform="translate(0,0)"/>
<path d="" fill="#7F1F48" transform="translate(0,0)"/>
<path d="" fill="#5C6C7C" transform="translate(0,0)"/>
<path d="" fill="#788896" transform="translate(0,0)"/>
<path d="" fill="#5B6979" transform="translate(0,0)"/>
<path d="" fill="#5B6979" transform="translate(0,0)"/>
<path d="" fill="#58697A" transform="translate(0,0)"/>
<path d="" fill="#7F1F48" transform="translate(0,0)"/>
<path d="" fill="#5C6C7C" transform="translate(0,0)"/>
<path d="" fill="#5C6C7C" transform="translate(0,0)"/>
<path d="" fill="#5C6C7C" transform="translate(0,0)"/>
<path d="" fill="#5C6C7C" transform="translate(0,0)"/>
<path d="" fill="#7F1F48" transform="translate(0,0)"/>
<path d="" fill="#7E204A" transform="translate(0,0)"/>
<path d="" fill="#7F1F48" transform="translate(0,0)"/>
<path d="" fill="#5A6A7B" transform="translate(0,0)"/>
<path d="" fill="#5C6C7C" transform="translate(0,0)"/>
<path d="" fill="#5A6A7B" transform="translate(0,0)"/>
<path d="" fill="#7F1F48" transform="translate(0,0)"/>
<path d="" fill="#617080" transform="translate(0,0)"/>
<path d="" fill="#8292A0" transform="translate(0,0)"/>
<path d="" fill="#78848E" transform="translate(0,0)"/>
<path d="" fill="#5A6A7B" transform="translate(0,0)"/>
<path d="" fill="#7F1F48" transform="translate(0,0)"/>
<path d="" fill="#5A6A7B" transform="translate(0,0)"/>
<path d="" fill="#5A6A7B" transform="translate(0,0)"/>
<path d="" fill="#58697A" transform="translate(0,0)"/>
<path d="" fill="#F1F1F2" transform="translate(0,0)"/>
<path d="" fill="#5C6C7C" transform="translate(0,0)"/>
<path d="" fill="#FFFFFF" transform="translate(0,0)"/>
<path d="" fill="#7F1F48" transform="translate(0,0)"/>
<path d="" fill="#5A6A7B" transform="translate(0,0)"/>
<path d="" fill="#58697A" transform="translate(0,0)"/>
<path d="" fill="#5A6A7B" transform="translate(0,0)"/>
<path d="" fill="#788896" transform="translate(0,0)"/>
<path d="" fill="#5C6C7C" transform="translate(0,0)"/>
<path d="" fill="#58697A" transform="translate(0,0)"/>
<path d="" fill="#5A6A7B" transform="translate(0,0)"/>
<path d="" fill="#5C6C7C" transform="translate(0,0)"/>
<path d="" fill="#7F1F48" transform="translate(0,0)"/>
<path d="" fill="#5A6A7B" transform="translate(0,0)"/>
<path d="" fill="#7F93A8" transform="translate(0,0)"/>
<path d="" fill="#788896" transform="translate(0,0)"/>
<path d="" fill="#7D3057" transform="translate(0,0)"/>
<path d="" fill="#5A6A7B" transform="translate(0,0)"/>
<path d="" fill="#F3F1F5" transform="translate(0,0)"/>
<path d="" fill="#5A6A7B" transform="translate(0,0)"/>
<path d="" fill="#888688" transform="translate(0,0)"/>
<path d="" fill="#5C6C7C" transform="translate(0,0)"/>
<path d="" fill="#5A6A7B" transform="translate(0,0)"/>
<path d="" fill="#858484" transform="translate(0,0)"/>
<path d="" fill="#858588" transform="translate(0,0)"/>
<path d="" fill="#B6B590" transform="translate(0,0)"/>
<path d="" fill="#B2B39A" transform="translate(0,0)"/>
<path d="" fill="#B3B590" transform="translate(0,0)"/>
<path d="" fill="#B2B39A" transform="translate(0,0)"/>
<path d="" fill="#BCBCBC" transform="translate(0,0)"/>
<path d="" fill="#FCFDFE" transform="translate(0,0)"/>
<path d="" fill="#FCFDFE" transform="translate(0,0)"/>
<path d="" fill="#636363" transform="translate(0,0)"/>
<path d="" fill="#FBFBFA" transform="translate(0,0)"/>
<path d="" fill="#63B5EF" transform="translate(0,0)"/>
<path d="" fill="#FCFDFE" transform="translate(0,0)"/>
<path d="" fill="#E9E9EA" transform="translate(0,0)"/>
<path d="" fill="#6EBAF0" transform="translate(0,0)"/>
<path d="" fill="#646367" transform="translate(0,0)"/>
<path d="" fill="#5DB2EE" transform="translate(0,0)"/>
<path d="" fill="#60B2ED" transform="translate(0,0)"/>
<path d="" fill="#5CB2EE" transform="translate(0,0)"/>
<path d="" fill="#858484" transform="translate(0,0)"/>
<path d="" fill="#858588" transform="translate(0,0)"/>
<path d="" fill="#6EBAF0" transform="translate(0,0)"/>
<path d="" fill="#A0E4FE" transform="translate(0,0)"/>
<path d="" fill="#5CB2EE" transform="translate(0,0)"/>
<path d="" fill="#6EBAF0" transform="translate(0,0)"/>
<path d="" fill="#858588" transform="translate(0,0)"/>
<path d="" fill="#F3F1F5" transform="translate(0,0)"/>
<path d="" fill="#F4F1F3" transform="translate(0,0)"/>
<path d="" fill="#D1D9E2" transform="translate(0,0)"/>
<path d="" fill="#FFFDFF" transform="translate(0,0)"/>
<path d="" fill="#5AB3EE" transform="translate(0,0)"/>
<path d="" fill="#F4F1F3" transform="translate(0,0)"/>
<path d="" fill="#F8FAFA" transform="translate(0,0)"/>
<path d="" fill="#63B5EF" transform="translate(0,0)"/>
<path d="" fill="#F3F1F5" transform="translate(0,0)"/>
<path d="" fill="#57B2ED" transform="translate(0,0)"/>
<path d="" fill="#F4F1F3" transform="translate(0,0)"/>
<path d="" fill="#F4F1F3" transform="translate(0,0)"/>
<path d="" fill="#F4F1F3" transform="translate(0,0)"/>
<path d="" fill="#FCFDFE" transform="translate(0,0)"/>
<path d="" fill="#F5F5F4" transform="translate(0,0)"/>
<path d="" fill="#F4F1F3" transform="translate(0,0)"/>
<path d="" fill="#FCFDFE" transform="translate(0,0)"/>
<path d="" fill="#F4F4F4" transform="translate(0,0)"/>
<path d="" fill="#FFFFFF" transform="translate(0,0)"/>
<path d="" fill="#F0D7C8" transform="translate(0,0)"/>
<path d="" fill="#161619" transform="translate(0,0)"/>
<path d="" fill="#EFD8CC" transform="translate(0,0)"/>
<path d="" fill="#EEEEEE" transform="translate(0,0)"/>
<path d="" fill="#FFFDFF" transform="translate(0,0)"/>
<path d="" fill="#FCFDFE" transform="translate(0,0)"/>
<path d="" fill="#19191B" transform="translate(0,0)"/>
<path d="" fill="#8B664F" transform="translate(0,0)"/>
<path d="" fill="#5DB2EE" transform="translate(0,0)"/>
<path d="" fill="#766356" transform="translate(0,0)"/>
<path d="" fill="#2E2D30" transform="translate(0,0)"/>
<path d="" fill="#FFFDFF" transform="translate(0,0)"/>
<path d="" fill="#161619" transform="translate(0,0)"/>
<path d="" fill="#60B2ED" transform="translate(0,0)"/>
<path d="" fill="#2E2E30" transform="translate(0,0)"/>
<path d="" fill="#FAFAFA" transform="translate(0,0)"/>
<path d="" fill="#5DB2EE" transform="translate(0,0)"/>
<path d="" fill="#60B2ED" transform="translate(0,0)"/>
<path d="" fill="#686769" transform="translate(0,0)"/>
<path d="" fill="#9ACBE8" transform="translate(0,0)"/>
<path d="" fill="#888688" transform="translate(0,0)"/>
<path d="" fill="#FFFFFF" transform="translate(0,0)"/>
<path d="" fill="#646367" transform="translate(0,0)"/>
<path d="" fill="#60B2ED" transform="translate(0,0)"/>
<path d="" fill="#161619" transform="translate(0,0)"/>
<path d="" fill="#858588" transform="translate(0,0)"/>
<path d="" fill="#2E2D30" transform="translate(0,0)"/>
<path d="" fill="#8C8A84" transform="translate(0,0)"/>
<path d="" fill="#788178" transform="translate(0,0)"/>
<path d="" fill="#90745F" transform="translate(0,0)"/>
<path d="" fill="#FFFDFF" transform="translate(0,0)"/>
<path d="" fill="#8F7552" transform="translate(0,0)"/>
<path d="" fill="#FAFAFA" transform="translate(0,0)"/>
<path d="" fill="#FFFDFF" transform="translate(0,0)"/>
<path d="" fill="#BCBEC6" transform="translate(0,0)"/>
<path d="" fill="#BCBCBC" transform="translate(0,0)"/>
<path d="" fill="#998059" transform="translate(0,0)"/>
<path d="" fill="#636363" transform="translate(0,0)"/>
<path d="" fill="#998059" transform="translate(0,0)"/>
<path d="" fill="#2C2C30" transform="translate(0,0)"/>
<path d="" fill="#978158" transform="translate(0,0)"/>
<path d="" fill="#998059" transform="translate(0,0)"/>
<path d="" fill="#95989B" transform="translate(0,0)"/>
<path d="" fill="#FCFDFE" transform="translate(0,0)"/>
<path d="" fill="#FFFDFF" transform="translate(0,0)"/>
<path d="" fill="#FCFDFE" transform="translate(0,0)"/>
<path d="" fill="#6C5F6D" transform="translate(0,0)"/>
<path d="" fill="#666666" transform="translate(0,0)"/>
<path d="" fill="#998059" transform="translate(0,0)"/>
<path d="" fill="#ABACAC" transform="translate(0,0)"/>
<path d="" fill="#8A8A8B" transform="translate(0,0)"/>
<path d="" fill="#E6BA9B" transform="translate(0,0)"/>
<path d="" fill="#E5BA96" transform="translate(0,0)"/>
<path d="" fill="#EAC497" transform="translate(0,0)"/>
<path d="" fill="#E6BA9B" transform="translate(0,0)"/>
<path d="" fill="#6C4E39" transform="translate(0,0)"/>
<path d="" fill="#897051" transform="translate(0,0)"/>
<path d="" fill="#D3AF8F" transform="translate(0,0)"/>
<path d="" fill="#858588" transform="translate(0,0)"/>
<path d="" fill="#838484" transform="translate(0,0)"/>
</svg>
