<?xml version="1.0" encoding="UTF-8"?>
<svg version="1.1" xmlns="http://www.w3.org/2000/svg" width="581" height="240">
<path d="M0 0 C2.54917646 -0.25073867 4.83421823 -0.32699339 7.375 -0.25 C8.38433594 -0.24226563 8.38433594 -0.24226563 9.4140625 -0.234375 C12.7379899 -0.18202969 15.82109759 -0.01072795 19 1 C19.125 7.75 19.125 7.75 18 10 C19.70135776 13.23257974 21.76039553 16.12050853 24 19 C22.68 19.99 21.36 20.98 20 22 C19.01 21.01 18.02 20.02 17 19 C16.01 19.33 15.02 19.66 14 20 C14.33 20.99 14.66 21.98 15 23 C13.68 23.33 12.36 23.66 11 24 C11.61875 24.28875 12.2375 24.5775 12.875 24.875 C15.40300682 26.21335655 16.98449546 27.98449546 19 30 C19.703125 32.3125 19.703125 32.3125 20.25 35 C20.53617188 36.3303125 20.53617188 36.3303125 20.828125 37.6875 C20.91320312 38.8321875 20.91320312 38.8321875 21 40 C20.34 40.66 19.68 41.32 19 42 C19 42.66 19 43.32 19 44 C16.4375 46.3125 16.4375 46.3125 13 48 C7.19047619 46.19047619 7.19047619 46.19047619 5 44 C4.34 43.67 3.68 43.34 3 43 C3 42.01 3 41.02 3 40 C1.68 39.67 0.36 39.34 -1 39 C-0.34 38.34 0.32 37.68 1 37 C0.67 36.34 0.34 35.68 0 35 C0.66 34.01 1.32 33.02 2 32 C2 31.34 2 30.68 2 30 C1.01 29.67 0.02 29.34 -1 29 C-0.67 28.34 -0.34 27.68 0 27 C-1.32 27 -2.64 27 -4 27 C-4.061875 25.8553125 -4.061875 25.8553125 -4.125 24.6875 C-4.77823609 21.67594887 -4.77823609 21.67594887 -8.0625 20.1875 C-9.031875 19.795625 -10.00125 19.40375 -11 19 C-11 18.34 -11 17.68 -11 17 C-12.32 17 -13.64 17 -15 17 C-15 14.36 -15 11.72 -15 9 C-13.68 9 -12.36 9 -11 9 C-11 10.32 -11 11.64 -11 13 C-10.34 13 -9.68 13 -9 13 C-9 10.69 -9 8.38 -9 6 C-8.34 6 -7.68 6 -7 6 C-6.67 5.34 -6.34 4.68 -6 4 C-4.35 4 -2.7 4 -1 4 C-1.33 3.67 -1.66 3.34 -2 3 C-1.34 2.01 -0.68 1.02 0 0 Z M2 1 C2 1.99 2 2.98 2 4 C2.99 3.67 3.98 3.34 5 3 C4.67 2.34 4.34 1.68 4 1 C3.34 1 2.68 1 2 1 Z M-1 7 C-1 7.66 -1 8.32 -1 9 C-0.34 8.67 0.32 8.34 1 8 C0.34 7.67 -0.32 7.34 -1 7 Z M4 14 C4 17 4 17 4 17 Z M16 14 C16 14.66 16 15.32 16 16 C16.66 15.67 17.32 15.34 18 15 C17.34 14.67 16.68 14.34 16 14 Z M-6 15 C-5 17 -5 17 -5 17 Z M19 16 C18.67 16.66 18.34 17.32 18 18 C18.66 18 19.32 18 20 18 C19.67 17.34 19.34 16.68 19 16 Z M4 17 C4 17.66 4 18.32 4 19 C4.66 19 5.32 19 6 19 C6 18.34 6 17.68 6 17 C5.34 17 4.68 17 4 17 Z M13 31 C13.33 31.99 13.66 32.98 14 34 C15.32 33.34 16.64 32.68 18 32 C18 31.67 18 31.34 18 31 C16.35 31 14.7 31 13 31 Z M9 38 C9 38.99 9 39.98 9 41 C9.99 40.67 10.98 40.34 12 40 C11.67 39.34 11.34 38.68 11 38 C10.34 38 9.68 38 9 38 Z M17 38 C16.67 38.66 16.34 39.32 16 40 C16.66 40 17.32 40 18 40 C17.67 39.34 17.34 38.68 17 38 Z M11 43 C12 45 12 45 12 45 Z M13 44 C14 46 14 46 14 46 Z " fill="#E6D0C0" transform="translate(65,73)"/>
<path d="M0 0 C6.75 -0.125 6.75 -0.125 9 1 C9 1.99 9 2.98 9 4 C7.68 4.33 6.36 4.66 5 5 C5.61875 5.28875 6.2375 5.5775 6.875 5.875 C9.40300682 7.21335655 10.98449546 8.98449546 13 11 C13.703125 13.3125 13.703125 13.3125 14.25 16 C14.44078125 16.886875 14.6315625 17.77375 14.828125 18.6875 C14.88484375 19.450625 14.9415625 20.21375 15 21 C14.34 21.66 13.68 22.32 13 23 C13 23.66 13 24.32 13 25 C10.4375 27.3125 10.4375 27.3125 7 29 C1.19047619 27.19047619 1.19047619 27.19047619 -1 25 C-1.66 24.67 -2.32 24.34 -3 24 C-3 23.01 -3 22.02 -3 21 C-4.32 20.67 -5.64 20.34 -7 20 C-6.34 19.34 -5.68 18.68 -5 18 C-5.33 17.34 -5.66 16.68 -6 16 C-5.690625 15.4225 -5.38125 14.845 -5.0625 14.25 C-3.71375537 11.39383489 -3.85817047 9.12024959 -4 6 C-3.67 6.99 -3.34 7.98 -3 9 C-2.34 9 -1.68 9 -1 9 C-1.020625 7.88625 -1.04125 6.7725 -1.0625 5.625 C-1 2 -1 2 0 0 Z M7 12 C7.33 12.99 7.66 13.98 8 15 C9.32 14.34 10.64 13.68 12 13 C12 12.67 12 12.34 12 12 C10.35 12 8.7 12 7 12 Z M3 19 C3 19.99 3 20.98 3 22 C3.99 21.67 4.98 21.34 6 21 C5.67 20.34 5.34 19.68 5 19 C4.34 19 3.68 19 3 19 Z M11 19 C10.67 19.66 10.34 20.32 10 21 C10.66 21 11.32 21 12 21 C11.67 20.34 11.34 19.68 11 19 Z M5 24 C6 26 6 26 6 26 Z M7 25 C8 27 8 27 8 27 Z " fill="#DCD5D2" transform="translate(71,92)"/>
<path d="M0 0 C2.54917646 -0.25073867 4.83421823 -0.32699339 7.375 -0.25 C8.38433594 -0.24226563 8.38433594 -0.24226563 9.4140625 -0.234375 C12.7379899 -0.18202969 15.82109759 -0.01072795 19 1 C19.04241723 3.33294775 19.04092937 5.66702567 19 8 C18 9 18 9 15.3125 9.09765625 C14.219375 9.08605469 13.12625 9.07445313 12 9.0625 C10.906875 9.05347656 9.81375 9.04445313 8.6875 9.03515625 C7.800625 9.02355469 6.91375 9.01195313 6 9 C5.67 9 5.34 9 5 9 C4.34 9 3.68 9 3 9 C2.95745644 7.00045254 2.95919217 4.99958364 3 3 C3.33 2.67 3.66 2.34 4 2 C3.01 2.495 3.01 2.495 2 3 C1.34444881 5.52733235 1.34444881 5.52733235 1 8 C-0.32 6.68 -1.64 5.36 -3 4 C-2.67 3.67 -2.34 3.34 -2 3 C-1.34 2.01 -0.68 1.02 0 0 Z " fill="#FDFCFD" transform="translate(65,73)"/>
<path d="M0 0 C5.39776952 -0.36802974 5.39776952 -0.36802974 8.25 1.375 C11.37323947 4.27515094 12.39734215 5.80979571 13.25 10 C13.44078125 10.886875 13.6315625 11.77375 13.828125 12.6875 C13.88484375 13.450625 13.9415625 14.21375 14 15 C13.34 15.66 12.68 16.32 12 17 C12 17.66 12 18.32 12 19 C10.68 19 9.36 19 8 19 C6.99303432 16.89915791 5.9946411 14.79420511 5 12.6875 C4.443125 11.51574219 3.88625 10.34398438 3.3125 9.13671875 C2 6 2 6 2 3 C1.34 3 0.68 3 0 3 C0 2.01 0 1.02 0 0 Z M6 6 C6.33 6.99 6.66 7.98 7 9 C8.32 8.34 9.64 7.68 11 7 C11 6.67 11 6.34 11 6 C9.35 6 7.7 6 6 6 Z M10 13 C9.67 13.66 9.34 14.32 9 15 C9.66 15 10.32 15 11 15 C10.67 14.34 10.34 13.68 10 13 Z " fill="#64B4EB" transform="translate(72,98)"/>
<path d="M0 0 C1.93559313 -0.13504138 3.873872 -0.23201129 5.8125 -0.3125 C6.89144531 -0.37050781 7.97039062 -0.42851563 9.08203125 -0.48828125 C12 0 12 0 13.78125 2.375 C14.1834375 3.24125 14.585625 4.1075 15 5 C15.98244845 6.34631825 16.97676564 7.68441297 18 9 C16.68 9.99 15.36 10.98 14 12 C13.62230469 11.50886719 13.24460937 11.01773438 12.85546875 10.51171875 C10.28936708 8.42102117 8.57429067 8.69737798 5.3125 8.8125 C4.31863281 8.83957031 3.32476562 8.86664063 2.30078125 8.89453125 C1.16189453 8.94673828 1.16189453 8.94673828 0 9 C0 6.03 0 3.06 0 0 Z M10 4 C10 4.66 10 5.32 10 6 C10.66 5.67 11.32 5.34 12 5 C11.34 4.67 10.68 4.34 10 4 Z M13 6 C12.67 6.66 12.34 7.32 12 8 C12.66 8 13.32 8 14 8 C13.67 7.34 13.34 6.68 13 6 Z " fill="#9F9F9F" transform="translate(71,83)"/>
<path d="M0 0 C1.32 0.66 2.64 1.32 4 2 C4.66 1.34 5.32 0.68 6 0 C6.99 0.33 7.98 0.66 9 1 C8.01 2.485 8.01 2.485 7 4 C7.2784375 5.1446875 7.2784375 5.1446875 7.5625 6.3125 C8.1606943 9.98712214 6.76947851 11.81493869 5 15 C5 15.66 5 16.32 5 17 C2.36 17 -0.28 17 -3 17 C-2.88648483 15.18674449 -2.75887039 13.37436643 -2.625 11.5625 C-2.55539062 10.55316406 -2.48578125 9.54382813 -2.4140625 8.50390625 C-2.27742187 7.67761719 -2.14078125 6.85132813 -2 6 C-1.34 5.67 -0.68 5.34 0 5 C-0.33 4.34 -0.66 3.68 -1 3 C-0.67 2.01 -0.34 1.02 0 0 Z " fill="#79A6C6" transform="translate(515,145)"/>
<path d="M0 0 C1.32 0.33 2.64 0.66 4 1 C4.33 3.31 4.66 5.62 5 8 C3.35 7.01 1.7 6.02 0 5 C0.66 5.928125 1.32 6.85625 2 7.8125 C4 11 4 11 4 14 C1.61435923 13.42415568 -0.66682784 12.77772405 -3 12 C-3.33 12.99 -3.66 13.98 -4 15 C-4 14.34 -4 13.68 -4 13 C-5.32 13 -6.64 13 -8 13 C-8 10.36 -8 7.72 -8 5 C-6.68 5 -5.36 5 -4 5 C-4 6.32 -4 7.64 -4 9 C-3.34 9 -2.68 9 -2 9 C-2 6.69 -2 4.38 -2 2 C-1.34 2 -0.68 2 0 2 C0 1.34 0 0.68 0 0 Z M1 11 C2 13 2 13 2 13 Z " fill="#9A825D" transform="translate(58,77)"/>
<path d="M0 0 C2.86331684 0.52060306 5.53522406 1.17167564 8.3125 2.0625 C12.45036388 3.11449929 15.75313177 3.14901292 20 3 C20 4.32 20 5.64 20 7 C17.89651926 7.19504458 15.79217415 7.38078496 13.6875 7.5625 C12.51574219 7.66691406 11.34398437 7.77132812 10.13671875 7.87890625 C7 8 7 8 4 7 C2.8125 4.9375 2.8125 4.9375 2 3 C1.34 3 0.68 3 0 3 C0 2.01 0 1.02 0 0 Z " fill="#E5BA99" transform="translate(161,35)"/>
<path d="M0 0 C1.32 0.33 2.64 0.66 4 1 C3.01 2.485 3.01 2.485 2 4 C2.309375 5.1446875 2.309375 5.1446875 2.625 6.3125 C3 9 3 9 1.1875 12.3125 C0.465625 13.199375 -0.25625 14.08625 -1 15 C-1.66 15 -2.32 15 -3 15 C-2.88529863 13.24929483 -2.75780972 11.49942464 -2.625 9.75 C-2.55539062 8.77546875 -2.48578125 7.8009375 -2.4140625 6.796875 C-2.01534751 4.10366811 -1.36492937 2.33036721 0 0 Z " fill="#72BBEE" transform="translate(520,145)"/>
<path d="M0 0 C6.75 -0.125 6.75 -0.125 9 1 C9 1.99 9 2.98 9 4 C5.78548731 5.60725635 2.56387464 5.05748185 -1 5 C-0.67 3.35 -0.34 1.7 0 0 Z " fill="#FDFBFB" transform="translate(71,92)"/>
<path d="M0 0 C-0.99 0.495 -0.99 0.495 -2 1 C-2 1.66 -2 2.32 -2 3 C-7.75 4 -7.75 4 -10 4 C-10.66 3.34 -11.32 2.68 -12 2 C-12.33 4.31 -12.66 6.62 -13 9 C-13.33 9 -13.66 9 -14 9 C-14 6.36 -14 3.72 -14 1 C-8.83430559 -0.79217969 -5.48946087 -1.12029814 0 0 Z M-6 0 C-5.34 0.66 -4.68 1.32 -4 2 C-4 1.34 -4 0.68 -4 0 C-4.66 0 -5.32 0 -6 0 Z " fill="#848286" transform="translate(412,208)"/>
<path d="M0 0 C2.45234885 0.98093954 3.7809268 1.68703828 5.3125 3.875 C6.1132654 6.35009306 5.86325845 7.58287634 5 10 C4.01 10 3.02 10 2 10 C2 9.01 2 8.02 2 7 C0.68 6.67 -0.64 6.34 -2 6 C-1.34 5.34 -0.68 4.68 0 4 C-0.33 3.34 -0.66 2.68 -1 2 C-0.67 1.34 -0.34 0.68 0 0 Z " fill="#63B4EC" transform="translate(66,106)"/>
<path d="M0 0 C2.97 0 5.94 0 9 0 C9.89377528 3.57510111 10.0258444 5.24917563 9.5625 8.75 C9.46066406 9.54921875 9.35882813 10.3484375 9.25390625 11.171875 C9.17011719 11.77515625 9.08632813 12.3784375 9 13 C8.67 13 8.34 13 8 13 C7.67 9.7 7.34 6.4 7 3 C4.36 3 1.72 3 -1 3 C-0.67 2.01 -0.34 1.02 0 0 Z " fill="#787B7F" transform="translate(388,204)"/>
<path d="M0 0 C6.93 0 13.86 0 21 0 C21.33 0.66 21.66 1.32 22 2 C21.40985107 1.99476318 20.81970215 1.98952637 20.21166992 1.98413086 C17.53695745 1.96333953 14.86226199 1.95033299 12.1875 1.9375 C10.7943457 1.92493164 10.7943457 1.92493164 9.37304688 1.91210938 C8.48037109 1.90888672 7.58769531 1.90566406 6.66796875 1.90234375 C5.84578857 1.89710693 5.0236084 1.89187012 4.17651367 1.88647461 C1.81827404 1.91258476 1.81827404 1.91258476 -1 3 C-0.67 2.01 -0.34 1.02 0 0 Z " fill="#181819" transform="translate(57,225)"/>
<path d="M0 0 C3.63 0 7.26 0 11 0 C11 0.99 11 1.98 11 3 C8.36 2.67 5.72 2.34 3 2 C2.67 2.66 2.34 3.32 2 4 C1.01 3.67 0.02 3.34 -1 3 C-0.67 2.01 -0.34 1.02 0 0 Z " fill="#171719" transform="translate(64,230)"/>
<path d="M0 0 C2.375 -0.125 2.375 -0.125 5 0 C5.66 0.66 6.32 1.32 7 2 C9.22658154 2.37004294 9.22658154 2.37004294 11.7890625 2.4140625 C13.20058594 2.47207031 13.20058594 2.47207031 14.640625 2.53125 C15.62546875 2.5621875 16.6103125 2.593125 17.625 2.625 C19.11386719 2.68300781 19.11386719 2.68300781 20.6328125 2.7421875 C23.08835385 2.8366314 25.5438841 2.92219875 28 3 C28 3.33 28 3.66 28 4 C20.08 4 12.16 4 4 4 C4 3.34 4 2.68 4 2 C2.68 1.34 1.36 0.68 0 0 Z " fill="#94CDF0" transform="translate(54,146)"/>
<path d="M0 0 C2.9375 1.625 2.9375 1.625 6 4 C6.875 7.25 6.875 7.25 7 10 C5.68 9.34 4.36 8.68 3 8 C3.33 7.34 3.66 6.68 4 6 C2.68 6 1.36 6 0 6 C0 4.02 0 2.04 0 0 Z " fill="#968972" transform="translate(61,94)"/>
<path d="M0 0 C0.99 0.33 1.98 0.66 3 1 C3 1.99 3 2.98 3 4 C3.66 4.33 4.32 4.66 5 5 C4.67 6.32 4.34 7.64 4 9 C3.01 8.67 2.02 8.34 1 8 C0.67 5.36 0.34 2.72 0 0 Z " fill="#DED2C9" transform="translate(61,78)"/>
<path d="M0 0 C1.65 0 3.3 0 5 0 C4.1875 2.4375 4.1875 2.4375 3 5 C2.01 5.33 1.02 5.66 0 6 C0 4.02 0 2.04 0 0 Z " fill="#EEF6FA" transform="translate(517,154)"/>
<path d="M0 0 C1.32 0.66 2.64 1.32 4 2 C3.34 2 2.68 2 2 2 C2.66 2.66 3.32 3.32 4 4 C4.66 4.66 5.32 5.32 6 6 C3.69 6.66 1.38 7.32 -1 8 C-0.67 5.36 -0.34 2.72 0 0 Z " fill="#8EC4EA" transform="translate(73,126)"/>
<path d="M0 0 C1.98 0.495 1.98 0.495 4 1 C4.33 3.31 4.66 5.62 5 8 C3.02 6.68 1.04 5.36 -1 4 C-0.67 2.68 -0.34 1.36 0 0 Z " fill="#A18B69" transform="translate(58,77)"/>
<path d="M0 0 C2.625 1.3125 2.625 1.3125 5 3 C5 3.66 5 4.32 5 5 C2.69 5 0.38 5 -2 5 C-1.34 4.67 -0.68 4.34 0 4 C0 3.34 0 2.68 0 2 C-0.66 1.67 -1.32 1.34 -2 1 C-1.34 0.67 -0.68 0.34 0 0 Z " fill="#813558" transform="translate(371,190)"/>
<path d="M0 0 C0.33 0.66 0.66 1.32 1 2 C1.99 2.33 2.98 2.66 4 3 C3.67 3.99 3.34 4.98 3 6 C1.68 5.67 0.36 5.34 -1 5 C-0.67 3.35 -0.34 1.7 0 0 Z " fill="#ACACAE" transform="translate(146,162)"/>
<path d="M0 0 C0.33 0 0.66 0 1 0 C1.04254356 1.99954746 1.04080783 4.00041636 1 6 C0.67 6.33 0.34 6.66 0 7 C0.33 7.99 0.66 8.98 1 10 C0.01 9.67 -0.98 9.34 -2 9 C-2 7.68 -2 6.36 -2 5 C-1.34 5 -0.68 5 0 5 C0 3.35 0 1.7 0 0 Z " fill="#BDB9BD" transform="translate(100,80)"/>
<path d="M0 0 C0.66 0 1.32 0 2 0 C2.33 2.31 2.66 4.62 3 7 C2.01 7 1.02 7 0 7 C0 4.69 0 2.38 0 0 Z " fill="#FEFCFE" transform="translate(86,74)"/>
<path d="M0 0 C2.97 0 5.94 0 9 0 C9.33 0.66 9.66 1.32 10 2 C7.03 2 4.06 2 1 2 C0.67 1.34 0.34 0.68 0 0 Z " fill="#181819" transform="translate(76,230)"/>
<path d="M0 0 C0.33 0.66 0.66 1.32 1 2 C-3.62 2 -8.24 2 -13 2 C-13 1.67 -13 1.34 -13 1 C-6.565 0.505 -6.565 0.505 0 0 Z " fill="#181819" transform="translate(49,222)"/>
<path d="M0 0 C0.66 0.33 1.32 0.66 2 1 C1.67 2.65 1.34 4.3 1 6 C0.34 6 -0.32 6 -1 6 C-1.042721 4.33388095 -1.04063832 2.66617115 -1 1 C-0.67 0.67 -0.34 0.34 0 0 Z " fill="#B8BAB9" transform="translate(548,161)"/>
<path d="M0 0 C4.29 0 8.58 0 13 0 C13 0.33 13 0.66 13 1 C8.71 1 4.42 1 0 1 C0 0.67 0 0.34 0 0 Z " fill="#181819" transform="translate(36,218)"/>
<path d="M0 0 C2.1385485 2.1385485 2.42655063 3.13275314 3 6 C2.01 6 1.02 6 0 6 C-1.125 2.25 -1.125 2.25 0 0 Z " fill="#957F59" transform="translate(57,98)"/>
<path d="M0 0 C0.33 0.66 0.66 1.32 1 2 C1.66 2.33 2.32 2.66 3 3 C2.01 4.485 2.01 4.485 1 6 C-0.0625 4.125 -0.0625 4.125 -1 2 C-0.67 1.34 -0.34 0.68 0 0 Z " fill="#605E72" transform="translate(378,188)"/>
<path d="M0 0 C1.32 0.66 2.64 1.32 4 2 C2.02 2.99 2.02 2.99 0 4 C-0.33 3.34 -0.66 2.68 -1 2 C-0.67 1.34 -0.34 0.68 0 0 Z " fill="#5A6A7B" transform="translate(380,200)"/>
<path d="M0 0 C1.4540625 0.0309375 1.4540625 0.0309375 2.9375 0.0625 C1.125 1.125 1.125 1.125 -1.0625 2.0625 C-2.0525 1.7325 -3.0425 1.4025 -4.0625 1.0625 C-3.0625 0.0625 -3.0625 0.0625 0 0 Z " fill="#CFCEB9" transform="translate(533.0625,193.9375)"/>
<path d="M0 0 C0.33 0.66 0.66 1.32 1 2 C1.99 2.33 2.98 2.66 4 3 C2.68 3 1.36 3 0 3 C-0.33 3.66 -0.66 4.32 -1 5 C-1.33 4.01 -1.66 3.02 -2 2 C-1.34 2 -0.68 2 0 2 C0 1.34 0 0.68 0 0 Z " fill="#848385" transform="translate(359,143)"/>
<path d="M0 0 C0.99 0.33 1.98 0.66 3 1 C2.34 1 1.68 1 1 1 C1 2.98 1 4.96 1 7 C-1 4 -1 4 -0.625 1.8125 C-0.41875 1.214375 -0.2125 0.61625 0 0 Z " fill="#E6E1DE" transform="translate(47,135)"/>
<path d="M0 0 C1.32 0.33 2.64 0.66 4 1 C3.01 2.485 3.01 2.485 2 4 C1.34 3.67 0.68 3.34 0 3 C0 2.01 0 1.02 0 0 Z " fill="#706F74" transform="translate(571,101)"/>
<path d="M0 0 C2.97 0 5.94 0 9 0 C9 0.33 9 0.66 9 1 C6.03 1 3.06 1 0 1 C0 0.67 0 0.34 0 0 Z " fill="#181819" transform="translate(39,226)"/>
<path d="M0 0 C0.66 0 1.32 0 2 0 C1.625 1.9375 1.625 1.9375 1 4 C0.01 4.495 0.01 4.495 -1 5 C-0.67 3.35 -0.34 1.7 0 0 Z " fill="#D7E8ED" transform="translate(541,158)"/>
<path d="M0 0 C0.66 0.66 1.32 1.32 2 2 C1.625 4.125 1.625 4.125 1 6 C0.34 5.34 -0.32 4.68 -1 4 C-0.625 1.875 -0.625 1.875 0 0 Z " fill="#8BC2E8" transform="translate(78,124)"/>
<path d="M0 0 C0.99 1.32 1.98 2.64 3 4 C2.67 4.66 2.34 5.32 2 6 C1.34 5.67 0.68 5.34 0 5 C0 3.35 0 1.7 0 0 Z " fill="#F6F3F2" transform="translate(81,119)"/>
<path d="M0 0 C1.32 0.33 2.64 0.66 4 1 C3.01 1.99 2.02 2.98 1 4 C0.67 2.68 0.34 1.36 0 0 Z " fill="#5FB3EE" transform="translate(75,142)"/>
<path d="M0 0 C1.32 0 2.64 0 4 0 C3.67 0.66 3.34 1.32 3 2 C1.68 1.67 0.36 1.34 -1 1 C-0.67 0.67 -0.34 0.34 0 0 Z " fill="#7B7F83" transform="translate(577,101)"/>
<path d="M0 0 C2.31 0 4.62 0 7 0 C7 0.33 7 0.66 7 1 C4.69 1 2.38 1 0 1 C0 0.67 0 0.34 0 0 Z " fill="#181819" transform="translate(54,230)"/>
<path d="M0 0 C0.99 0.495 0.99 0.495 2 1 C2 1.99 2 2.98 2 4 C1.34 4 0.68 4 0 4 C0 2.68 0 1.36 0 0 Z " fill="#F5F4F5" transform="translate(148,168)"/>
<path d="M0 0 C1.32 0.33 2.64 0.66 4 1 C2.68 1.33 1.36 1.66 0 2 C0 1.34 0 0.68 0 0 Z " fill="#EDECEE" transform="translate(558,162)"/>
<path d="M0 0 C0.66 0 1.32 0 2 0 C2.33 1.32 2.66 2.64 3 4 C2.01 3.67 1.02 3.34 0 3 C0 2.01 0 1.02 0 0 Z " fill="#B0C7D6" transform="translate(521,158)"/>
<path d="M0 0 C0.99 0 1.98 0 3 0 C2.67 0.99 2.34 1.98 2 3 C1.34 2.67 0.68 2.34 0 2 C0 1.34 0 0.68 0 0 Z " fill="#71777E" transform="translate(376,143)"/>
<path d="M0 0 C0.99 0 1.98 0 3 0 C3 0.99 3 1.98 3 3 C2.34 3 1.68 3 1 3 C0.67 2.01 0.34 1.02 0 0 Z " fill="#FBFBFA" transform="translate(87,133)"/>
<path d="M0 0 C0.99 0 1.98 0 3 0 C2.67 0.66 2.34 1.32 2 2 C1.01 1.67 0.02 1.34 -1 1 C-0.67 0.67 -0.34 0.34 0 0 Z " fill="#858485" transform="translate(409,212)"/>
<path d="M0 0 C0.66 0 1.32 0 2 0 C2 0.99 2 1.98 2 3 C1.34 3 0.68 3 0 3 C0 2.01 0 1.02 0 0 Z " fill="#845E70" transform="translate(372,206)"/>
<path d="M0 0 C0.33 0 0.66 0 1 0 C1 1.65 1 3.3 1 5 C0.34 3.68 -0.32 2.36 -1 1 C-0.67 0.67 -0.34 0.34 0 0 Z " fill="#647483" transform="translate(390,196)"/>
<path d="M0 0 C1.32 0 2.64 0 4 0 C4 0.66 4 1.32 4 2 C2.68 1.34 1.36 0.68 0 0 Z " fill="#873F5C" transform="translate(372,177)"/>
<path d="M0 0 C0.66 0.99 1.32 1.98 2 3 C0.68 2.67 -0.64 2.34 -2 2 C-1.34 2 -0.68 2 0 2 C0 1.34 0 0.68 0 0 Z " fill="#DADEDF" transform="translate(50,145)"/>
<path d="M0 0 C2.475 0.495 2.475 0.495 5 1 C3.68 1.33 2.36 1.66 1 2 C0.67 1.34 0.34 0.68 0 0 Z " fill="#5EB2EE" transform="translate(61,140)"/>
<path d="M0 0 C0.99 0.33 1.98 0.66 3 1 C1.68 1.33 0.36 1.66 -1 2 C-0.67 1.34 -0.34 0.68 0 0 Z " fill="#88C4ED" transform="translate(75,138)"/>
<path d="M0 0 C1.32 0 2.64 0 4 0 C4 0.66 4 1.32 4 2 C2.68 1.34 1.36 0.68 0 0 Z " fill="#F3F1F4" transform="translate(56,137)"/>
<path d="M0 0 C0.66 0.33 1.32 0.66 2 1 C1.01 2.485 1.01 2.485 0 4 C-0.33 3.01 -0.66 2.02 -1 1 C-0.67 0.67 -0.34 0.34 0 0 Z " fill="#5EB3EE" transform="translate(81,132)"/>
<path d="M0 0 C0.66 0.33 1.32 0.66 2 1 C0.02 1.99 0.02 1.99 -2 3 C-2 2.34 -2 1.68 -2 1 C-1.34 0.67 -0.68 0.34 0 0 Z " fill="#D5ECF8" transform="translate(61,127)"/>
<path d="M0 0 C2 2 2 2 2 4 C1.34 4 0.68 4 0 4 C0 2.68 0 1.36 0 0 Z " fill="#2D2C30" transform="translate(568,100)"/>
<path d="M0 0 C0.33 0 0.66 0 1 0 C1 1.98 1 3.96 1 6 C0.67 6 0.34 6 0 6 C0 4.02 0 2.04 0 0 Z " fill="#FDFDFE" transform="translate(102,80)"/>
<path d="M0 0 C0.66 0.66 1.32 1.32 2 2 C1.01 2 0.02 2 -1 2 C-0.67 1.34 -0.34 0.68 0 0 Z " fill="#D3D4D4" transform="translate(80,237)"/>
<path d="M0 0 C0.66 0.66 1.32 1.32 2 2 C1.01 2 0.02 2 -1 2 C-0.67 1.34 -0.34 0.68 0 0 Z " fill="#D3D4D4" transform="translate(77,237)"/>
<path d="M0 0 C0.66 0.66 1.32 1.32 2 2 C1.01 2 0.02 2 -1 2 C-0.67 1.34 -0.34 0.68 0 0 Z " fill="#D3D4D4" transform="translate(74,237)"/>
<path d="M0 0 C0.66 0.66 1.32 1.32 2 2 C1.01 2 0.02 2 -1 2 C-0.67 1.34 -0.34 0.68 0 0 Z " fill="#D3D4D4" transform="translate(71,237)"/>
<path d="M0 0 C0.66 0.66 1.32 1.32 2 2 C1.01 2 0.02 2 -1 2 C-0.67 1.34 -0.34 0.68 0 0 Z " fill="#D3D4D4" transform="translate(68,237)"/>
<path d="M0 0 C0.66 0.66 1.32 1.32 2 2 C1.01 2 0.02 2 -1 2 C-0.67 1.34 -0.34 0.68 0 0 Z " fill="#D3D4D4" transform="translate(65,237)"/>
<path d="M0 0 C0.66 0.66 1.32 1.32 2 2 C1.01 2 0.02 2 -1 2 C-0.67 1.34 -0.34 0.68 0 0 Z " fill="#D3D4D4" transform="translate(62,237)"/>
<path d="M0 0 C0.66 0.66 1.32 1.32 2 2 C1.01 2 0.02 2 -1 2 C-0.67 1.34 -0.34 0.68 0 0 Z " fill="#D3D4D4" transform="translate(59,237)"/>
<path d="M0 0 C0.66 0.66 1.32 1.32 2 2 C1.01 2 0.02 2 -1 2 C-0.67 1.34 -0.34 0.68 0 0 Z " fill="#D3D4D4" transform="translate(56,237)"/>
<path d="M0 0 C0.66 0.66 1.32 1.32 2 2 C1.01 2 0.02 2 -1 2 C-0.67 1.34 -0.34 0.68 0 0 Z " fill="#D3D4D4" transform="translate(53,237)"/>
<path d="M0 0 C0.66 0.66 1.32 1.32 2 2 C1.01 2 0.02 2 -1 2 C-0.67 1.34 -0.34 0.68 0 0 Z " fill="#D3D4D4" transform="translate(50,237)"/>
<path d="M0 0 C0.66 0.66 1.32 1.32 2 2 C1.01 2 0.02 2 -1 2 C-0.67 1.34 -0.34 0.68 0 0 Z " fill="#D3D4D4" transform="translate(47,237)"/>
<path d="M0 0 C0.66 0.66 1.32 1.32 2 2 C1.01 2 0.02 2 -1 2 C-0.67 1.34 -0.34 0.68 0 0 Z " fill="#D3D4D4" transform="translate(44,237)"/>
<path d="M0 0 C0.66 0.66 1.32 1.32 2 2 C1.01 2 0.02 2 -1 2 C-0.67 1.34 -0.34 0.68 0 0 Z " fill="#D3D4D4" transform="translate(41,237)"/>
<path d="M0 0 C0.66 0.66 1.32 1.32 2 2 C1.01 2 0.02 2 -1 2 C-0.67 1.34 -0.34 0.68 0 0 Z " fill="#D3D4D4" transform="translate(38,237)"/>
<path d="M0 0 C0.66 0.66 1.32 1.32 2 2 C1.01 2 0.02 2 -1 2 C-0.67 1.34 -0.34 0.68 0 0 Z " fill="#D3D4D4" transform="translate(35,237)"/>
<path d="M0 0 C0.66 0.66 1.32 1.32 2 2 C1.01 2 0.02 2 -1 2 C-0.67 1.34 -0.34 0.68 0 0 Z " fill="#D3D4D4" transform="translate(32,237)"/>
<path d="M0 0 C0.66 0.66 1.32 1.32 2 2 C1.01 2 0.02 2 -1 2 C-0.67 1.34 -0.34 0.68 0 0 Z " fill="#D3D4D4" transform="translate(29,237)"/>
<path d="M0 0 C0.66 0.66 1.32 1.32 2 2 C1.01 2 0.02 2 -1 2 C-0.67 1.34 -0.34 0.68 0 0 Z " fill="#D3D4D4" transform="translate(26,237)"/>
<path d="M0 0 C0.66 0.66 1.32 1.32 2 2 C1.01 2 0.02 2 -1 2 C-0.67 1.34 -0.34 0.68 0 0 Z " fill="#D3D4D4" transform="translate(23,237)"/>
<path d="M0 0 C0.66 0.66 1.32 1.32 2 2 C1.01 2 0.02 2 -1 2 C-0.67 1.34 -0.34 0.68 0 0 Z " fill="#D3D4D4" transform="translate(20,237)"/>
<path d="M0 0 C0.66 0.66 1.32 1.32 2 2 C1.01 2 0.02 2 -1 2 C-0.67 1.34 -0.34 0.68 0 0 Z " fill="#D3D4D4" transform="translate(17,237)"/>
<path d="M0 0 C0.66 0.66 1.32 1.32 2 2 C1.01 2 0.02 2 -1 2 C-0.67 1.34 -0.34 0.68 0 0 Z " fill="#D3D4D4" transform="translate(14,237)"/>
<path d="M0 0 C0.66 0.66 1.32 1.32 2 2 C1.01 2 0.02 2 -1 2 C-0.67 1.34 -0.34 0.68 0 0 Z " fill="#D3D4D4" transform="translate(11,237)"/>
<path d="M0 0 C0.66 0.66 1.32 1.32 2 2 C1.01 2 0.02 2 -1 2 C-0.67 1.34 -0.34 0.68 0 0 Z " fill="#1A1A1B" transform="translate(7,233)"/>
<path d="M0 0 C0.99 0.33 1.98 0.66 3 1 C2.01 1.33 1.02 1.66 0 2 C0 1.34 0 0.68 0 0 Z " fill="#444446" transform="translate(43,229)"/>
<path d="M0 0 C1.32 0.33 2.64 0.66 4 1 C3.01 1.33 2.02 1.66 1 2 C0.67 1.34 0.34 0.68 0 0 Z " fill="#2B2B2D" transform="translate(50,219)"/>
<path d="M0 0 C0.99 0 1.98 0 3 0 C3 0.66 3 1.32 3 2 C2.01 2 1.02 2 0 2 C0 1.34 0 0.68 0 0 Z " fill="#83797F" transform="translate(384,207)"/>
<path d="M0 0 C0.99 0 1.98 0 3 0 C2.67 0.66 2.34 1.32 2 2 C1.34 2 0.68 2 0 2 C0 1.34 0 0.68 0 0 Z " fill="#F4F3F5" transform="translate(531,156)"/>
<path d="M0 0 C1.32 0 2.64 0 4 0 C3.67 0.66 3.34 1.32 3 2 C2.01 1.34 1.02 0.68 0 0 Z " fill="#DFEDF6" transform="translate(524,154)"/>
<path d="M0 0 C0.66 0.66 1.32 1.32 2 2 C1.34 2.66 0.68 3.32 0 4 C0 2.68 0 1.36 0 0 Z " fill="#F9FAFA" transform="translate(87,147)"/>
<path d="M0 0 C0.66 0.66 1.32 1.32 2 2 C1.01 2 0.02 2 -1 2 C-0.67 1.34 -0.34 0.68 0 0 Z " fill="#70B8EB" transform="translate(529,146)"/>
<path d="M0 0 C0.99 0 1.98 0 3 0 C3 0.66 3 1.32 3 2 C2.01 1.67 1.02 1.34 0 1 C0 0.67 0 0.34 0 0 Z " fill="#FBFAF9" transform="translate(87,144)"/>
<path d="M0 0 C0.66 0 1.32 0 2 0 C1.67 0.99 1.34 1.98 1 3 C0.67 2.01 0.34 1.02 0 0 Z " fill="#878073" transform="translate(56,113)"/>
<path d="M0 0 C0.99 0.495 0.99 0.495 2 1 C2 1.66 2 2.32 2 3 C1.34 3 0.68 3 0 3 C0 2.01 0 1.02 0 0 Z " fill="#17171A" transform="translate(92,89)"/>
<path d="M0 0 C1.485 0.99 1.485 0.99 3 2 C2.01 2 1.02 2 0 2 C0 1.34 0 0.68 0 0 Z " fill="#969798" transform="translate(85,84)"/>
<path d="M0 0 C0.66 0 1.32 0 2 0 C2 0.66 2 1.32 2 2 C1.34 2 0.68 2 0 2 C0 1.34 0 0.68 0 0 Z " fill="#676667" transform="translate(8,236)"/>
<path d="M0 0 C0.33 0.99 0.66 1.98 1 3 C0.34 2.67 -0.32 2.34 -1 2 C-0.67 1.34 -0.34 0.68 0 0 Z " fill="#434347" transform="translate(4,234)"/>
<path d="M0 0 C4 1 4 1 4 1 Z " fill="#141415" transform="translate(81,234)"/>
<path d="M0 0 C1.485 0.99 1.485 0.99 3 2 C2.01 2 1.02 2 0 2 C0 1.34 0 0.68 0 0 Z " fill="#212223" transform="translate(34,227)"/>
<path d="M0 0 C0.99 0 1.98 0 3 0 C2.67 0.66 2.34 1.32 2 2 C1.34 1.34 0.68 0.68 0 0 Z " fill="#6C7885" transform="translate(392,200)"/>
<path d="M0 0 C0.66 0.66 1.32 1.32 2 2 C1.01 1.67 0.02 1.34 -1 1 C-0.67 0.67 -0.34 0.34 0 0 Z " fill="#F3F4F5" transform="translate(532,196)"/>
<path d="M0 0 C0.99 0.33 1.98 0.66 3 1 C2.01 1.33 1.02 1.66 0 2 C0 1.34 0 0.68 0 0 Z " fill="#5B6A7B" transform="translate(393,197)"/>
<path d="M0 0 C0.99 0.33 1.98 0.66 3 1 C2.01 1 1.02 1 0 1 C0 0.67 0 0.34 0 0 Z " fill="#5A6A7A" transform="translate(385,196)"/>
<path d="M0 0 C0.66 0.66 1.32 1.32 2 2 C1.01 2.495 1.01 2.495 0 3 C0 2.01 0 1.02 0 0 Z " fill="#647587" transform="translate(396,194)"/>
<path d="M0 0 C0.66 0.66 1.32 1.32 2 2 C1.01 1.67 0.02 1.34 -1 1 C-0.67 0.67 -0.34 0.34 0 0 Z " fill="#832854" transform="translate(374,182)"/>
<path d="M0 0 C0.99 0.33 1.98 0.66 3 1 C2.01 1 1.02 1 0 1 C0 0.67 0 0.34 0 0 Z " fill="#615A70" transform="translate(377,179)"/>
<path d="M0 0 C0.99 0 1.98 0 3 0 C2.67 0.66 2.34 1.32 2 2 C1.34 1.34 0.68 0.68 0 0 Z " fill="#B9B8B9" transform="translate(538,150)"/>
<path d="M0 0 C0.66 0 1.32 0 2 0 C2 0.66 2 1.32 2 2 C1.34 2 0.68 2 0 2 C0 1.34 0 0.68 0 0 Z " fill="#9D9C9D" transform="translate(354,142)"/>
<path d="M0 0 C4 1 4 1 4 1 Z " fill="#828286" transform="translate(358,137)"/>
<path d="M0 0 C0.99 0.495 0.99 0.495 2 1 C1.67 1.66 1.34 2.32 1 3 C0.67 2.01 0.34 1.02 0 0 Z " fill="#F4F4F3" transform="translate(56,132)"/>
<path d="M0 0 C0 3 0 3 0 3 Z " fill="#F6F7F7" transform="translate(62,121)"/>
<path d="M0 0 C4 1 4 1 4 1 Z " fill="#7F8286" transform="translate(574,99)"/>
<path d="M0 0 C0.66 0 1.32 0 2 0 C2 0.66 2 1.32 2 2 C1.34 2 0.68 2 0 2 C0 1.34 0 0.68 0 0 Z " fill="#18181A" transform="translate(92,94)"/>
<path d="M0 0 C3 1 3 1 3 1 Z " fill="#FFFDFF" transform="translate(0,238)"/>
<path d="M0 0 C0.33 0.66 0.66 1.32 1 2 C0.34 1.67 -0.32 1.34 -1 1 C-0.67 0.67 -0.34 0.34 0 0 Z " fill="#151416" transform="translate(46,231)"/>
<path d="M0 0 C0.66 0 1.32 0 2 0 C1.67 0.66 1.34 1.32 1 2 C0.67 1.34 0.34 0.68 0 0 Z " fill="#18181A" transform="translate(86,230)"/>
<path d="M0 0 C3 1 3 1 3 1 Z " fill="#181819" transform="translate(81,220)"/>
<path d="" fill="#858484" transform="translate(0,0)"/>
<path d="" fill="#858484" transform="translate(0,0)"/>
<path d="M0 0 C0.66 0.66 1.32 1.32 2 2 C1.34 2 0.68 2 0 2 C0 1.34 0 0.68 0 0 Z " fill="#812550" transform="translate(374,204)"/>
<path d="M0 0 C0.66 0 1.32 0 2 0 C1.67 0.66 1.34 1.32 1 2 C0.67 1.34 0.34 0.68 0 0 Z " fill="#7E1F48" transform="translate(365,204)"/>
<path d="M0 0 C0.33 0.66 0.66 1.32 1 2 C0.34 1.67 -0.32 1.34 -1 1 C-0.67 0.67 -0.34 0.34 0 0 Z " fill="#59697A" transform="translate(401,203)"/>
<path d="M0 0 C0.33 0.66 0.66 1.32 1 2 C0.34 1.67 -0.32 1.34 -1 1 C-0.67 0.67 -0.34 0.34 0 0 Z " fill="#5D6C7D" transform="translate(399,202)"/>
<path d="M0 0 C0.99 0.495 0.99 0.495 2 1 C1.01 1.495 1.01 1.495 0 2 C0 1.34 0 0.68 0 0 Z " fill="#596A7A" transform="translate(384,203)"/>
<path d="M0 0 C0.99 0.495 0.99 0.495 2 1 C1.01 1.495 1.01 1.495 0 2 C0 1.34 0 0.68 0 0 Z " fill="#596979" transform="translate(388,201)"/>
<path d="M0 0 C0.66 0 1.32 0 2 0 C1.67 0.66 1.34 1.32 1 2 C0.67 1.34 0.34 0.68 0 0 Z " fill="#73818D" transform="translate(399,199)"/>
<path d="M0 0 C0.66 0.66 1.32 1.32 2 2 C1.34 2 0.68 2 0 2 C0 1.34 0 0.68 0 0 Z " fill="#7E254D" transform="translate(372,198)"/>
<path d="M0 0 C3 1 3 1 3 1 Z " fill="#5D6D7D" transform="translate(383,192)"/>
<path d="" fill="#606F7E" transform="translate(0,0)"/>
<path d="M0 0 C3 1 3 1 3 1 Z " fill="#803059" transform="translate(369,183)"/>
<path d="M0 0 C0.99 0.495 0.99 0.495 2 1 C1.01 1.495 1.01 1.495 0 2 C0 1.34 0 0.68 0 0 Z " fill="#776B63" transform="translate(534,175)"/>
<path d="M0 0 C3 1 3 1 3 1 Z " fill="#F2F2F4" transform="translate(523,157)"/>
<path d="M0 0 C0.99 0.495 0.99 0.495 2 1 C1.01 1.495 1.01 1.495 0 2 C0 1.34 0 0.68 0 0 Z " fill="#C1C2C2" transform="translate(536,154)"/>
<path d="M0 0 C0.66 0.66 1.32 1.32 2 2 C1.34 2 0.68 2 0 2 C0 1.34 0 0.68 0 0 Z " fill="#EFF4F8" transform="translate(529,154)"/>
<path d="" fill="#F3F1F3" transform="translate(0,0)"/>
<path d="M0 0 C0.99 0.495 0.99 0.495 2 1 C1.01 1.495 1.01 1.495 0 2 C0 1.34 0 0.68 0 0 Z " fill="#D9DCDF" transform="translate(46,151)"/>
<path d="M0 0 C3 1 3 1 3 1 Z " fill="#9FD2F4" transform="translate(525,146)"/>
<path d="M0 0 C0.33 0.66 0.66 1.32 1 2 C0.34 1.67 -0.32 1.34 -1 1 C-0.67 0.67 -0.34 0.34 0 0 Z " fill="#5A6A7A" transform="translate(380,144)"/>
<path d="M0 0 C0.66 0.66 1.32 1.32 2 2 C1.34 2 0.68 2 0 2 C0 1.34 0 0.68 0 0 Z " fill="#C1C3C7" transform="translate(47,144)"/>
<path d="M0 0 C3 1 3 1 3 1 Z " fill="#61B4EE" transform="translate(79,144)"/>
<path d="M0 0 C0.66 0 1.32 0 2 0 C1.67 0.66 1.34 1.32 1 2 C0.67 1.34 0.34 0.68 0 0 Z " fill="#5DB2ED" transform="translate(72,142)"/>
<path d="M0 0 C0.66 0.66 1.32 1.32 2 2 C1.34 2 0.68 2 0 2 C0 1.34 0 0.68 0 0 Z " fill="#868588" transform="translate(356,137)"/>
<path d="M0 0 C0.33 0.66 0.66 1.32 1 2 C0.34 1.67 -0.32 1.34 -1 1 C-0.67 0.67 -0.34 0.34 0 0 Z " fill="#F3F1F4" transform="translate(51,138)"/>
<path d="M0 0 C3 1 3 1 3 1 Z " fill="#F4F4F6" transform="translate(51,134)"/>
<path d="M0 0 C3 1 3 1 3 1 Z " fill="#5EB3EE" transform="translate(83,133)"/>
<path d="M0 0 C0.33 0.66 0.66 1.32 1 2 C0.34 1.67 -0.32 1.34 -1 1 C-0.67 0.67 -0.34 0.34 0 0 Z " fill="#F9F8F9" transform="translate(58,130)"/>
<path d="" fill="#F3F9F9" transform="translate(0,0)"/>
<path d="M0 0 C0.33 0.66 0.66 1.32 1 2 C0.34 1.67 -0.32 1.34 -1 1 C-0.67 0.67 -0.34 0.34 0 0 Z " fill="#5EB3EE" transform="translate(84,127)"/>
<path d="M0 0 C3 1 3 1 3 1 Z " fill="#5EB2ED" transform="translate(56,127)"/>
<path d="M0 0 C0.66 0 1.32 0 2 0 C1.67 0.66 1.34 1.32 1 2 C0.67 1.34 0.34 0.68 0 0 Z " fill="#EED7C8" transform="translate(74,124)"/>
<path d="M0 0 C3 1 3 1 3 1 Z " fill="#FBFBFB" transform="translate(82,118)"/>
<path d="M0 0 C3 1 3 1 3 1 Z " fill="#FBFBFB" transform="translate(87,116)"/>
<path d="M0 0 C0.66 0 1.32 0 2 0 C1.67 0.66 1.34 1.32 1 2 C0.67 1.34 0.34 0.68 0 0 Z " fill="#FDFCFC" transform="translate(88,113)"/>
<path d="M0 0 C0.99 0.495 0.99 0.495 2 1 C1.01 1.495 1.01 1.495 0 2 C0 1.34 0 0.68 0 0 Z " fill="#FBFCFC" transform="translate(87,111)"/>
<path d="M0 0 C3 1 3 1 3 1 Z " fill="#B29B7E" transform="translate(56,109)"/>
<path d="M0 0 C0.66 0 1.32 0 2 0 C1.67 0.66 1.34 1.32 1 2 C0.67 1.34 0.34 0.68 0 0 Z " fill="#978059" transform="translate(62,100)"/>
<path d="M0 0 C3 1 3 1 3 1 Z " fill="#FFFFFF" transform="translate(80,96)"/>
<path d="M0 0 C0.33 0.66 0.66 1.32 1 2 C0.34 1.67 -0.32 1.34 -1 1 C-0.67 0.67 -0.34 0.34 0 0 Z " fill="#716B73" transform="translate(90,89)"/>
<path d="" fill="#FDFDFE" transform="translate(0,0)"/>
<path d="M0 0 C2 1 2 1 2 1 Z " fill="#555356" transform="translate(1,235)"/>
<path d="M0 0 C2 1 2 1 2 1 Z " fill="#141415" transform="translate(78,234)"/>
<path d="M0 0 C2 1 2 1 2 1 Z " fill="#141415" transform="translate(75,234)"/>
<path d="M0 0 C2 1 2 1 2 1 Z " fill="#141415" transform="translate(72,234)"/>
<path d="M0 0 C2 1 2 1 2 1 Z " fill="#17171A" transform="translate(39,231)"/>
<path d="" fill="#625860" transform="translate(0,0)"/>
<path d="M0 0 C2 1 2 1 2 1 Z " fill="#161516" transform="translate(54,220)"/>
<path d="" fill="#F4F1F3" transform="translate(0,0)"/>
<path d="M0 0 C2 1 2 1 2 1 Z " fill="#858486" transform="translate(416,208)"/>
<path d="" fill="#7F1F48" transform="translate(0,0)"/>
<path d="" fill="#F5F5F4" transform="translate(0,0)"/>
<path d="M0 0 C2 1 2 1 2 1 Z " fill="#5A697A" transform="translate(405,201)"/>
<path d="M0 0 C2 1 2 1 2 1 Z " fill="#576879" transform="translate(385,201)"/>
<path d="" fill="#576879" transform="translate(0,0)"/>
<path d="M0 0 C2 1 2 1 2 1 Z " fill="#788692" transform="translate(396,199)"/>
<path d="M0 0 C2 1 2 1 2 1 Z " fill="#73808B" transform="translate(384,199)"/>
<path d="M0 0 C2 1 2 1 2 1 Z " fill="#7D2850" transform="translate(369,199)"/>
<path d="M0 0 C2 1 2 1 2 1 Z " fill="#7D2850" transform="translate(365,199)"/>
<path d="M0 0 C2 1 2 1 2 1 Z " fill="#F6F7F7" transform="translate(534,196)"/>
<path d="M0 0 C2 1 2 1 2 1 Z " fill="#FFFDFD" transform="translate(526,196)"/>
<path d="M0 0 C2 1 2 1 2 1 Z " fill="#FEFDFD" transform="translate(522,196)"/>
<path d="M0 0 C2 1 2 1 2 1 Z " fill="#7F1F48" transform="translate(369,196)"/>
<path d="M0 0 C2 1 2 1 2 1 Z " fill="#863F62" transform="translate(369,189)"/>
<path d="M0 0 C2 1 2 1 2 1 Z " fill="#82305A" transform="translate(366,183)"/>
<path d="M0 0 C2 1 2 1 2 1 Z " fill="#82305A" transform="translate(361,183)"/>
<path d="M0 0 C2 1 2 1 2 1 Z " fill="#8D654D" transform="translate(538,180)"/>
<path d="" fill="#7D2850" transform="translate(0,0)"/>
<path d="M0 0 C2 1 2 1 2 1 Z " fill="#6B4761" transform="translate(377,177)"/>
<path d="M0 0 C2 1 2 1 2 1 Z " fill="#B4B590" transform="translate(529,175)"/>
<path d="M0 0 C2 1 2 1 2 1 Z " fill="#B4B495" transform="translate(525,169)"/>
<path d="M0 0 C2 1 2 1 2 1 Z " fill="#F0F2F2" transform="translate(550,166)"/>
<path d="M0 0 C2 1 2 1 2 1 Z " fill="#F4F1F3" transform="translate(556,164)"/>
<path d="" fill="#F2F1F2" transform="translate(0,0)"/>
<path d="" fill="#BEBEBE" transform="translate(0,0)"/>
<path d="M0 0 C2 1 2 1 2 1 Z " fill="#B3B590" transform="translate(513,163)"/>
<path d="" fill="#FEFEFE" transform="translate(0,0)"/>
<path d="M0 0 C2 1 2 1 2 1 Z " fill="#5CB2EE" transform="translate(510,148)"/>
<path d="M0 0 C2 1 2 1 2 1 Z " fill="#60B3EE" transform="translate(83,144)"/>
<path d="" fill="#858484" transform="translate(0,0)"/>
<path d="M0 0 C2 1 2 1 2 1 Z " fill="#5EB2ED" transform="translate(67,141)"/>
<path d="" fill="#61B3EE" transform="translate(0,0)"/>
<path d="M0 0 C2 1 2 1 2 1 Z " fill="#81C3EE" transform="translate(73,136)"/>
<path d="M0 0 C2 1 2 1 2 1 Z " fill="#F3F1F5" transform="translate(51,132)"/>
<path d="" fill="#60B3EE" transform="translate(0,0)"/>
<path d="M0 0 C2 1 2 1 2 1 Z " fill="#F9F6F3" transform="translate(64,128)"/>
<path d="" fill="#E8ECED" transform="translate(0,0)"/>
<path d="M0 0 C2 1 2 1 2 1 Z " fill="#E9E9EA" transform="translate(68,121)"/>
<path d="M0 0 C2 1 2 1 2 1 Z " fill="#EBE9EB" transform="translate(83,120)"/>
<path d="M0 0 C2 1 2 1 2 1 Z " fill="#ECECED" transform="translate(57,120)"/>
<path d="M0 0 C2 1 2 1 2 1 Z " fill="#5FB3EE" transform="translate(64,114)"/>
<path d="M0 0 C2 1 2 1 2 1 Z " fill="#2D2C30" transform="translate(553,110)"/>
<path d="M0 0 C2 1 2 1 2 1 Z " fill="#FBFBFC" transform="translate(87,109)"/>
<path d="M0 0 C2 1 2 1 2 1 Z " fill="#6B6B6C" transform="translate(97,107)"/>
<path d="M0 0 C2 1 2 1 2 1 Z " fill="#FBFBFC" transform="translate(87,107)"/>
<path d="M0 0 C2 1 2 1 2 1 Z " fill="#967F5B" transform="translate(57,107)"/>
<path d="M0 0 C2 1 2 1 2 1 Z " fill="#2D2C30" transform="translate(568,105)"/>
<path d="" fill="#EFD7C8" transform="translate(0,0)"/>
<path d="" fill="#FBF6F1" transform="translate(0,0)"/>
<path d="M0 0 C2 1 2 1 2 1 Z " fill="#2D2C30" transform="translate(567,98)"/>
<path d="M0 0 C2 1 2 1 2 1 Z " fill="#7E6D5A" transform="translate(50,98)"/>
<path d="" fill="#947E5B" transform="translate(0,0)"/>
<path d="M0 0 C2 1 2 1 2 1 Z " fill="#FCFDFE" transform="translate(82,94)"/>
<path d="M0 0 C2 1 2 1 2 1 Z " fill="#D5D4D5" transform="translate(99,91)"/>
<path d="" fill="#FFFCF9" transform="translate(0,0)"/>
<path d="M0 0 C2 1 2 1 2 1 Z " fill="#F3F1F4" transform="translate(219,0)"/>
<path d="" fill="#666666" transform="translate(0,0)"/>
<path d="" fill="#323338" transform="translate(0,0)"/>
<path d="" fill="#161619" transform="translate(0,0)"/>
<path d="" fill="#19191B" transform="translate(0,0)"/>
<path d="" fill="#161619" transform="translate(0,0)"/>
<path d="" fill="#161619" transform="translate(0,0)"/>
<path d="" fill="#17181C" transform="translate(0,0)"/>
<path d="" fill="#2E2D30" transform="translate(0,0)"/>
<path d="" fill="#19191B" transform="translate(0,0)"/>
<path d="" fill="#414141" transform="translate(0,0)"/>
<path d="" fill="#323338" transform="translate(0,0)"/>
<path d="" fill="#161619" transform="translate(0,0)"/>
<path d="" fill="#181818" transform="translate(0,0)"/>
<path d="" fill="#181818" transform="translate(0,0)"/>
<path d="" fill="#1A1A1B" transform="translate(0,0)"/>
<path d="" fill="#161619" transform="translate(0,0)"/>
<path d="" fill="#646564" transform="translate(0,0)"/>
<path d="" fill="#414141" transform="translate(0,0)"/>
<path d="" fill="#19191B" transform="translate(0,0)"/>
<path d="" fill="#181818" transform="translate(0,0)"/>
<path d="" fill="#19191B" transform="translate(0,0)"/>
<path d="" fill="#181818" transform="translate(0,0)"/>
<path d="" fill="#19191B" transform="translate(0,0)"/>
<path d="" fill="#181818" transform="translate(0,0)"/>
<path d="" fill="#19191B" transform="translate(0,0)"/>
<path d="" fill="#181818" transform="translate(0,0)"/>
<path d="" fill="#19191B" transform="translate(0,0)"/>
<path d="" fill="#181818" transform="translate(0,0)"/>
<path d="" fill="#19191B" transform="translate(0,0)"/>
<path d="" fill="#181818" transform="translate(0,0)"/>
<path d="" fill="#1A1A1B" transform="translate(0,0)"/>
<path d="" fill="#3C3B3F" transform="translate(0,0)"/>
<path d="" fill="#F3F1F5" transform="translate(0,0)"/>
<path d="" fill="#858588" transform="translate(0,0)"/>
<path d="" fill="#F3F1F5" transform="translate(0,0)"/>
<path d="" fill="#D8DEDD" transform="translate(0,0)"/>
<path d="" fill="#858588" transform="translate(0,0)"/>
<path d="" fill="#888688" transform="translate(0,0)"/>
<path d="" fill="#888584" transform="translate(0,0)"/>
<path d="" fill="#7E204A" transform="translate(0,0)"/>
<path d="" fill="#7F1F48" transform="translate(0,0)"/>
<path d="" fill="#5B6979" transform="translate(0,0)"/>
<path d="" fill="#5B6979" transform="translate(0,0)"/>
<path d="" fill="#FCFDFE" transform="translate(0,0)"/>
<path d="" fill="#FFFFFF" transform="translate(0,0)"/>
<path d="" fill="#7F1F48" transform="translate(0,0)"/>
<path d="" fill="#7F1F48" transform="translate(0,0)"/>
<path d="" fill="#5A6A7B" transform="translate(0,0)"/>
<path d="" fill="#5A6A7B" transform="translate(0,0)"/>
<path d="" fill="#7F1F48" transform="translate(0,0)"/>
<path d="" fill="#7F1F48" transform="translate(0,0)"/>
<path d="" fill="#7E204A" transform="translate(0,0)"/>
<path d="" fill="#7F1F48" transform="translate(0,0)"/>
<path d="" fill="#5B6979" transform="translate(0,0)"/>
<path d="" fill="#5A6A7B" transform="translate(0,0)"/>
<path d="" fill="#7E204A" transform="translate(0,0)"/>
<path d="" fill="#78848E" transform="translate(0,0)"/>
<path d="" fill="#7D3057" transform="translate(0,0)"/>
<path d="" fill="#5A6A7B" transform="translate(0,0)"/>
<path d="" fill="#5C6C7C" transform="translate(0,0)"/>
<path d="" fill="#5A6A7B" transform="translate(0,0)"/>
<path d="" fill="#5B6979" transform="translate(0,0)"/>
<path d="" fill="#7E204A" transform="translate(0,0)"/>
<path d="" fill="#5A6A7B" transform="translate(0,0)"/>
<path d="" fill="#5A6A7B" transform="translate(0,0)"/>
<path d="" fill="#5A6A7B" transform="translate(0,0)"/>
<path d="" fill="#5A6A7B" transform="translate(0,0)"/>
<path d="" fill="#5A6A7B" transform="translate(0,0)"/>
<path d="" fill="#5B6979" transform="translate(0,0)"/>
<path d="" fill="#7E204A" transform="translate(0,0)"/>
<path d="" fill="#58697A" transform="translate(0,0)"/>
<path d="" fill="#788896" transform="translate(0,0)"/>
<path d="" fill="#904E6D" transform="translate(0,0)"/>
<path d="" fill="#7E204A" transform="translate(0,0)"/>
<path d="" fill="#576878" transform="translate(0,0)"/>
<path d="" fill="#89515E" transform="translate(0,0)"/>
<path d="" fill="#7E204A" transform="translate(0,0)"/>
<path d="" fill="#7E204A" transform="translate(0,0)"/>
<path d="" fill="#7E204A" transform="translate(0,0)"/>
<path d="" fill="#5A6A7B" transform="translate(0,0)"/>
<path d="" fill="#5B6979" transform="translate(0,0)"/>
<path d="" fill="#8B664F" transform="translate(0,0)"/>
<path d="" fill="#88305E" transform="translate(0,0)"/>
<path d="" fill="#90745F" transform="translate(0,0)"/>
<path d="" fill="#947E5B" transform="translate(0,0)"/>
<path d="" fill="#B6B590" transform="translate(0,0)"/>
<path d="" fill="#F4F1F3" transform="translate(0,0)"/>
<path d="" fill="#8A8A8B" transform="translate(0,0)"/>
<path d="" fill="#828283" transform="translate(0,0)"/>
<path d="" fill="#858484" transform="translate(0,0)"/>
<path d="" fill="#F3F1F5" transform="translate(0,0)"/>
<path d="" fill="#909DAB" transform="translate(0,0)"/>
<path d="" fill="#B3B590" transform="translate(0,0)"/>
<path d="" fill="#858783" transform="translate(0,0)"/>
<path d="" fill="#E9E9EA" transform="translate(0,0)"/>
<path d="" fill="#F4F1F3" transform="translate(0,0)"/>
<path d="" fill="#F4F1F3" transform="translate(0,0)"/>
<path d="" fill="#F4F1F3" transform="translate(0,0)"/>
<path d="" fill="#F5F5F4" transform="translate(0,0)"/>
<path d="" fill="#5DB2EE" transform="translate(0,0)"/>
<path d="" fill="#FAFAFA" transform="translate(0,0)"/>
<path d="" fill="#E9E9EA" transform="translate(0,0)"/>
<path d="" fill="#D0CFCF" transform="translate(0,0)"/>
<path d="" fill="#BCBEC6" transform="translate(0,0)"/>
<path d="" fill="#96D3FC" transform="translate(0,0)"/>
<path d="" fill="#FFFDFF" transform="translate(0,0)"/>
<path d="" fill="#D2D8DB" transform="translate(0,0)"/>
<path d="" fill="#6CB3E1" transform="translate(0,0)"/>
<path d="" fill="#92BADC" transform="translate(0,0)"/>
<path d="" fill="#FFFDFF" transform="translate(0,0)"/>
<path d="" fill="#C2C5C6" transform="translate(0,0)"/>
<path d="" fill="#D1D9E2" transform="translate(0,0)"/>
<path d="" fill="#FFFDFF" transform="translate(0,0)"/>
<path d="" fill="#F4F1F3" transform="translate(0,0)"/>
<path d="" fill="#60B2ED" transform="translate(0,0)"/>
<path d="" fill="#6EBAF0" transform="translate(0,0)"/>
<path d="" fill="#63B5EF" transform="translate(0,0)"/>
<path d="" fill="#FFFDFD" transform="translate(0,0)"/>
<path d="" fill="#888584" transform="translate(0,0)"/>
<path d="" fill="#888688" transform="translate(0,0)"/>
<path d="" fill="#D1D9E2" transform="translate(0,0)"/>
<path d="" fill="#7AC7F8" transform="translate(0,0)"/>
<path d="" fill="#858588" transform="translate(0,0)"/>
<path d="" fill="#858588" transform="translate(0,0)"/>
<path d="" fill="#E4E2E1" transform="translate(0,0)"/>
<path d="" fill="#60B2ED" transform="translate(0,0)"/>
<path d="" fill="#5CB2EE" transform="translate(0,0)"/>
<path d="" fill="#63B5EF" transform="translate(0,0)"/>
<path d="" fill="#63B5EF" transform="translate(0,0)"/>
<path d="" fill="#858484" transform="translate(0,0)"/>
<path d="" fill="#60B2ED" transform="translate(0,0)"/>
<path d="" fill="#63B5EF" transform="translate(0,0)"/>
<path d="" fill="#5CB2EE" transform="translate(0,0)"/>
<path d="" fill="#B6E5FD" transform="translate(0,0)"/>
<path d="" fill="#F4F4F4" transform="translate(0,0)"/>
<path d="" fill="#F3F1F5" transform="translate(0,0)"/>
<path d="" fill="#F5F5F4" transform="translate(0,0)"/>
<path d="" fill="#F4F1F3" transform="translate(0,0)"/>
<path d="" fill="#5CB2EE" transform="translate(0,0)"/>
<path d="" fill="#5CB2EE" transform="translate(0,0)"/>
<path d="" fill="#F4F4F4" transform="translate(0,0)"/>
<path d="" fill="#57B2ED" transform="translate(0,0)"/>
<path d="" fill="#F4F1F3" transform="translate(0,0)"/>
<path d="" fill="#60B2ED" transform="translate(0,0)"/>
<path d="" fill="#F4F1F3" transform="translate(0,0)"/>
<path d="" fill="#F4F1F3" transform="translate(0,0)"/>
<path d="" fill="#5AB3EE" transform="translate(0,0)"/>
<path d="" fill="#FFFFFF" transform="translate(0,0)"/>
<path d="" fill="#F3F1F5" transform="translate(0,0)"/>
<path d="" fill="#6AB1E1" transform="translate(0,0)"/>
<path d="" fill="#F4F1F3" transform="translate(0,0)"/>
<path d="" fill="#F4F4F4" transform="translate(0,0)"/>
<path d="" fill="#F0D7C8" transform="translate(0,0)"/>
<path d="" fill="#EFD8CC" transform="translate(0,0)"/>
<path d="" fill="#F8FAFA" transform="translate(0,0)"/>
<path d="" fill="#FDFDFD" transform="translate(0,0)"/>
<path d="" fill="#FFFDFF" transform="translate(0,0)"/>
<path d="" fill="#EFD8CC" transform="translate(0,0)"/>
<path d="" fill="#F4F1F3" transform="translate(0,0)"/>
<path d="" fill="#E3DAD0" transform="translate(0,0)"/>
<path d="" fill="#FDFDFD" transform="translate(0,0)"/>
<path d="" fill="#FCFDFE" transform="translate(0,0)"/>
<path d="" fill="#FFFDFD" transform="translate(0,0)"/>
<path d="" fill="#FAFAFA" transform="translate(0,0)"/>
<path d="" fill="#FCFDFE" transform="translate(0,0)"/>
<path d="" fill="#57B2ED" transform="translate(0,0)"/>
<path d="" fill="#2E2D30" transform="translate(0,0)"/>
<path d="" fill="#F0D7C8" transform="translate(0,0)"/>
<path d="" fill="#978158" transform="translate(0,0)"/>
<path d="" fill="#F0D7C8" transform="translate(0,0)"/>
<path d="" fill="#947E5B" transform="translate(0,0)"/>
<path d="" fill="#2C2C30" transform="translate(0,0)"/>
<path d="" fill="#5CB2EE" transform="translate(0,0)"/>
<path d="" fill="#2E2D30" transform="translate(0,0)"/>
<path d="" fill="#FAFAFA" transform="translate(0,0)"/>
<path d="" fill="#6CB3E1" transform="translate(0,0)"/>
<path d="" fill="#5CB2EE" transform="translate(0,0)"/>
<path d="" fill="#858588" transform="translate(0,0)"/>
<path d="" fill="#FFFDFD" transform="translate(0,0)"/>
<path d="" fill="#FFFDFF" transform="translate(0,0)"/>
<path d="" fill="#666666" transform="translate(0,0)"/>
<path d="" fill="#6EBAF0" transform="translate(0,0)"/>
<path d="" fill="#F5D3BE" transform="translate(0,0)"/>
<path d="" fill="#5DB2EE" transform="translate(0,0)"/>
<path d="" fill="#7F8488" transform="translate(0,0)"/>
<path d="" fill="#2C2C30" transform="translate(0,0)"/>
<path d="" fill="#60B2ED" transform="translate(0,0)"/>
<path d="" fill="#131211" transform="translate(0,0)"/>
<path d="" fill="#8F7552" transform="translate(0,0)"/>
<path d="" fill="#FFFEFB" transform="translate(0,0)"/>
<path d="" fill="#FFFDFF" transform="translate(0,0)"/>
<path d="" fill="#978158" transform="translate(0,0)"/>
<path d="" fill="#FCFDFE" transform="translate(0,0)"/>
<path d="" fill="#636363" transform="translate(0,0)"/>
<path d="" fill="#6C5F6D" transform="translate(0,0)"/>
<path d="" fill="#95989B" transform="translate(0,0)"/>
<path d="" fill="#646367" transform="translate(0,0)"/>
<path d="" fill="#FFFDFF" transform="translate(0,0)"/>
<path d="" fill="#FFFDFF" transform="translate(0,0)"/>
<path d="" fill="#FAFAFA" transform="translate(0,0)"/>
<path d="" fill="#FFFFFF" transform="translate(0,0)"/>
<path d="" fill="#EFD8CC" transform="translate(0,0)"/>
<path d="" fill="#E5BA96" transform="translate(0,0)"/>
<path d="" fill="#E2B896" transform="translate(0,0)"/>
<path d="" fill="#E6BA9B" transform="translate(0,0)"/>
<path d="" fill="#E5BB98" transform="translate(0,0)"/>
<path d="" fill="#6F573C" transform="translate(0,0)"/>
<path d="" fill="#8F7552" transform="translate(0,0)"/>
<path d="" fill="#E2B896" transform="translate(0,0)"/>
</svg>
