<?xml version="1.0" encoding="UTF-8"?>
<svg version="1.1" xmlns="http://www.w3.org/2000/svg" width="581" height="240">
<path d="M0 0 C1.43085937 0.15855469 1.43085937 0.15855469 2.890625 0.3203125 C6.5126358 0.85296115 10.06239736 1.58934928 13.62109375 2.4453125 C15.98903734 2.7745453 17.55490091 2.48024845 19.8125 1.75 C21.9375 8.375 21.9375 8.375 20.8125 11.75 C21.8025 12.08 22.7925 12.41 23.8125 12.75 C25.8125 15.75 25.8125 15.75 26.8125 17.75 C25.8225 18.41 24.8325 19.07 23.8125 19.75 C24.3075 21.73 24.3075 21.73 24.8125 23.75 C24.1525 23.75 23.4925 23.75 22.8125 23.75 C22.4825 23.42 22.1525 23.09 21.8125 22.75 C20.8225 23.245 20.8225 23.245 19.8125 23.75 C19.3175 25.235 19.3175 25.235 18.8125 26.75 C18.1525 25.43 17.4925 24.11 16.8125 22.75 C15.8225 22.75 14.8325 22.75 13.8125 22.75 C13.8125 23.74 13.8125 24.73 13.8125 25.75 C14.4725 26.08 15.1325 26.41 15.8125 26.75 C15.8125 27.74 15.8125 28.73 15.8125 29.75 C14.8225 30.08 13.8325 30.41 12.8125 30.75 C13.4725 30.75 14.1325 30.75 14.8125 30.75 C14.4825 32.07 14.1525 33.39 13.8125 34.75 C13.3175 34.255 13.3175 34.255 12.8125 33.75 C11.90732038 38.60545091 11.90732038 38.60545091 12.5 43.4375 C12.603125 44.200625 12.70625 44.96375 12.8125 45.75 C10.875 47.875 10.875 47.875 8.8125 49.75 C8.8125 50.74 8.8125 51.73 8.8125 52.75 C8.1525 52.75 7.4925 52.75 6.8125 52.75 C6.4825 54.4 6.1525 56.05 5.8125 57.75 C4.8225 57.75 3.8325 57.75 2.8125 57.75 C2.8125 58.41 2.8125 59.07 2.8125 59.75 C2.19375 60.03875 1.575 60.3275 0.9375 60.625 C-1.32075765 61.68720042 -1.32075765 61.68720042 -3.1875 63.75 C-7.6875 66.75 -7.6875 66.75 -11.1875 66.75 C-11.5175 65.43 -11.8475 64.11 -12.1875 62.75 C-10.8675 62.75 -9.5475 62.75 -8.1875 62.75 C-8.1875 62.09 -8.1875 61.43 -8.1875 60.75 C-6.6875 59.125 -6.6875 59.125 -5.1875 57.75 C-5.6825 56.265 -5.6825 56.265 -6.1875 54.75 C-5.5275 54.75 -4.8675 54.75 -4.1875 54.75 C-3.8575 54.09 -3.5275 53.43 -3.1875 52.75 C-1.7025 52.255 -1.7025 52.255 -0.1875 51.75 C-0.1875 51.09 -0.1875 50.43 -0.1875 49.75 C-0.8475 49.75 -1.5075 49.75 -2.1875 49.75 C-1.8575 48.43 -1.5275 47.11 -1.1875 45.75 C-2.5075 45.09 -3.8275 44.43 -5.1875 43.75 C-5.1875 42.43 -5.1875 41.11 -5.1875 39.75 C-5.8475 39.09 -6.5075 38.43 -7.1875 37.75 C-6.8575 37.09 -6.5275 36.43 -6.1875 35.75 C-5.5275 35.75 -4.8675 35.75 -4.1875 35.75 C-4.1875 35.09 -4.1875 34.43 -4.1875 33.75 C-6.1475281 32.11323743 -6.1475281 32.11323743 -8.1875 30.75 C-7.5275 30.42 -6.8675 30.09 -6.1875 29.75 C-5.52977572 26.72065509 -5.52977572 26.72065509 -5.1875 23.75 C-5.8475 23.75 -6.5075 23.75 -7.1875 23.75 C-7.1875 23.09 -7.1875 22.43 -7.1875 21.75 C-7.80625 21.646875 -8.425 21.54375 -9.0625 21.4375 C-11.1875 20.75 -11.1875 20.75 -13.1875 17.75 C-13.8475 17.42 -14.5075 17.09 -15.1875 16.75 C-14.875 13.375 -14.875 13.375 -14.1875 9.75 C-13.1975 9.09 -12.2075 8.43 -11.1875 7.75 C-10.5275 8.41 -9.8675 9.07 -9.1875 9.75 C-9.5175 9.42 -9.8475 9.09 -10.1875 8.75 C-8.8675 7.43 -7.5475 6.11 -6.1875 4.75 C-7.5075 4.42 -8.8275 4.09 -10.1875 3.75 C-10.1875 3.09 -10.1875 2.43 -10.1875 1.75 C-6.51569462 0.03605135 -4.01920331 -0.45119564 0 0 Z M14.8125 4.75 C15.8125 6.75 15.8125 6.75 15.8125 6.75 Z M8.8125 8.75 C9.4725 9.41 10.1325 10.07 10.8125 10.75 C10.8125 10.09 10.8125 9.43 10.8125 8.75 C10.1525 8.75 9.4925 8.75 8.8125 8.75 Z M-12.1875 9.75 C-11.1875 11.75 -11.1875 11.75 -11.1875 11.75 Z M3.8125 9.75 C4.4725 10.41 5.1325 11.07 5.8125 11.75 C6.1425 11.09 6.4725 10.43 6.8125 9.75 C5.8225 9.75 4.8325 9.75 3.8125 9.75 Z M7.8125 11.75 C8.8125 13.75 8.8125 13.75 8.8125 13.75 Z M21.8125 13.75 C21.8125 15.07 21.8125 16.39 21.8125 17.75 C22.1425 16.43 22.4725 15.11 22.8125 13.75 C22.4825 13.75 22.1525 13.75 21.8125 13.75 Z M-10.1875 17.75 C-9.8575 18.41 -9.5275 19.07 -9.1875 19.75 C-8.8575 19.09 -8.5275 18.43 -8.1875 17.75 C-8.8475 17.75 -9.5075 17.75 -10.1875 17.75 Z M3.8125 18.75 C4.8125 20.75 4.8125 20.75 4.8125 20.75 Z M-3.1875 40.75 C-2.1875 42.75 -2.1875 42.75 -2.1875 42.75 Z M4.8125 44.75 C5.8125 46.75 5.8125 46.75 5.8125 46.75 Z M2.8125 49.75 C2.8125 51.07 2.8125 52.39 2.8125 53.75 C3.8025 53.42 4.7925 53.09 5.8125 52.75 C5.8125 52.09 5.8125 51.43 5.8125 50.75 C4.8225 50.42 3.8325 50.09 2.8125 49.75 Z M-2.1875 54.75 C-1.8575 55.41 -1.5275 56.07 -1.1875 56.75 C-0.5275 56.09 0.1325 55.43 0.8125 54.75 C-0.1775 54.75 -1.1675 54.75 -2.1875 54.75 Z " fill="#E2D7D1" transform="translate(74.1875,72.25)"/>
<path d="M0 0 C0.68707555 2.49064888 1 4.37886292 1 7 C-0.11375 6.979375 -1.2275 6.95875 -2.375 6.9375 C-5.83215921 6.73619282 -5.83215921 6.73619282 -8 8 C-8.84692901 10.22596002 -9.46846299 12.48363587 -10.12109375 14.7734375 C-11.06981594 17.17686705 -12.18118215 18.22072167 -14 20 C-14.35919321 21.99551782 -14.69496569 23.99548879 -15 26 C-15.66 26.33 -16.32 26.66 -17 27 C-17.23428313 31.7897321 -17.23428313 31.7897321 -15 36 C-14.875 39.1875 -14.875 39.1875 -15 42 C-16.65 41.67 -18.3 41.34 -20 41 C-20 39.68 -20 38.36 -20 37 C-20.66 36.34 -21.32 35.68 -22 35 C-21.67 34.34 -21.34 33.68 -21 33 C-20.34 33 -19.68 33 -19 33 C-19 32.34 -19 31.68 -19 31 C-20.9600281 29.36323743 -20.9600281 29.36323743 -23 28 C-22.34 27.67 -21.68 27.34 -21 27 C-20.34227572 23.97065509 -20.34227572 23.97065509 -20 21 C-20.66 21 -21.32 21 -22 21 C-22 20.34 -22 19.68 -22 19 C-22.61875 18.896875 -23.2375 18.79375 -23.875 18.6875 C-26 18 -26 18 -28 15 C-28.66 14.67 -29.32 14.34 -30 14 C-29.6875 10.625 -29.6875 10.625 -29 7 C-28.01 6.34 -27.02 5.68 -26 5 C-25.34 5.66 -24.68 6.32 -24 7 C-24.33 6.67 -24.66 6.34 -25 6 C-23.68 4.68 -22.36 3.36 -21 2 C-22.32 1.67 -23.64 1.34 -25 1 C-25 0.34 -25 -0.32 -25 -1 C-17.02344019 -4.73004595 -8.21741843 -2.02067666 0 0 Z M-27 7 C-26 9 -26 9 -26 9 Z M-25 15 C-24.67 15.66 -24.34 16.32 -24 17 C-23.67 16.34 -23.34 15.68 -23 15 C-23.66 15 -24.32 15 -25 15 Z M-18 38 C-17 40 -17 40 -17 40 Z " fill="#EAD7CC" transform="translate(89,75)"/>
<path d="M0 0 C2.125 6.625 2.125 6.625 1 10 C1.99 10.33 2.98 10.66 4 11 C6 14 6 14 7 16 C6.01 16.66 5.02 17.32 4 18 C4.33 19.32 4.66 20.64 5 22 C4.34 22 3.68 22 3 22 C2.67 21.67 2.34 21.34 2 21 C1.34 21.33 0.68 21.66 0 22 C-0.33 22.99 -0.66 23.98 -1 25 C-2.20628008 22.66785852 -3.1654738 20.50357861 -4 18 C-4.61488281 18.01160156 -5.22976562 18.02320312 -5.86328125 18.03515625 C-6.67152344 18.04417969 -7.47976562 18.05320312 -8.3125 18.0625 C-9.51326172 18.07990234 -9.51326172 18.07990234 -10.73828125 18.09765625 C-13 18 -13 18 -16 17 C-15.41321669 13.47930015 -14.64350079 11.28700157 -13 8 C-10.03 8 -7.06 8 -4 8 C-4 5.69 -4 3.38 -4 1 C-2 0 -2 0 0 0 Z M-12 10 C-11 12 -11 12 -11 12 Z M2 12 C2 13.32 2 14.64 2 16 C2.33 14.68 2.66 13.36 3 12 C2.67 12 2.34 12 2 12 Z " fill="#989697" transform="translate(94,74)"/>
<path d="M0 0 C3.3 0 6.6 0 10 0 C10.33 1.98 10.66 3.96 11 6 C11.66 6 12.32 6 13 6 C12.67 7.32 12.34 8.64 12 10 C11.67 9.67 11.34 9.34 11 9 C10.67 12.63 10.34 16.26 10 20 C8.35 20 6.7 20 5 20 C4 19 4 19 3.9375 16.4375 C3.958125 15.633125 3.97875 14.82875 4 14 C3.34 14 2.68 14 2 14 C1.66576139 11.85430749 1.33263257 9.70844207 1 7.5625 C0.814375 6.36753906 0.62875 5.17257813 0.4375 3.94140625 C0 1 0 1 0 0 Z " fill="#6CB8ED" transform="translate(76,97)"/>
<path d="M0 0 C0.68707555 2.49064888 1 4.37886292 1 7 C-2.96 7 -6.92 7 -11 7 C-11 5.68 -11 4.36 -11 3 C-11.66 4.32 -12.32 5.64 -13 7 C-13.33 7 -13.66 7 -14 7 C-14 4.69 -14 2.38 -14 0 C-14.66 0 -15.32 0 -16 0 C-16 2.31 -16 4.62 -16 7 C-16.66 7 -17.32 7 -18 7 C-18.33 5.68 -18.66 4.36 -19 3 C-19.66 4.32 -20.32 5.64 -21 7 C-22.32 6.34 -23.64 5.68 -25 5 C-24.01 4.67 -23.02 4.34 -22 4 C-21.67 3.34 -21.34 2.68 -21 2 C-22.32 1.67 -23.64 1.34 -25 1 C-25 0.34 -25 -0.32 -25 -1 C-17.02344019 -4.73004595 -8.21741843 -2.02067666 0 0 Z " fill="#FDFBF9" transform="translate(89,75)"/>
<path d="M0 0 C-0.99 1.1446875 -0.99 1.1446875 -2 2.3125 C-4.29850538 4.84277939 -4.29850538 4.84277939 -4 8 C-4.66 8 -5.32 8 -6 8 C-6.33 9.65 -6.66 11.3 -7 13 C-7.99 13 -8.98 13 -10 13 C-10 13.66 -10 14.32 -10 15 C-10.61875 15.28875 -11.2375 15.5775 -11.875 15.875 C-14.13325765 16.93720042 -14.13325765 16.93720042 -16 19 C-20.5 22 -20.5 22 -24 22 C-24.33 20.68 -24.66 19.36 -25 18 C-23.68 18 -22.36 18 -21 18 C-21 17.34 -21 16.68 -21 16 C-19.5 14.375 -19.5 14.375 -18 13 C-18.33 12.01 -18.66 11.02 -19 10 C-18.34 10 -17.68 10 -17 10 C-16.67 9.34 -16.34 8.68 -16 8 C-15.01 7.67 -14.02 7.34 -13 7 C-13 6.34 -13 5.68 -13 5 C-13.66 5 -14.32 5 -15 5 C-14.67 3.68 -14.34 2.36 -14 1 C-8.83430559 -0.79217969 -5.48946087 -1.12029814 0 0 Z M-10 5 C-10 6.32 -10 7.64 -10 9 C-9.01 8.67 -8.02 8.34 -7 8 C-7 7.34 -7 6.68 -7 6 C-7.99 5.67 -8.98 5.34 -10 5 Z M-15 10 C-14.67 10.66 -14.34 11.32 -14 12 C-13.34 11.34 -12.68 10.68 -12 10 C-12.99 10 -13.98 10 -15 10 Z " fill="#EDE4E0" transform="translate(87,117)"/>
<path d="M0 0 C0.66 0 1.32 0 2 0 C4.125 6.625 4.125 6.625 3 10 C3.99 10.33 4.98 10.66 6 11 C8 14 8 14 9 16 C8.01 16.66 7.02 17.32 6 18 C6.33 19.32 6.66 20.64 7 22 C6.34 22 5.68 22 5 22 C4.67 21.67 4.34 21.34 4 21 C3.34 21.33 2.68 21.66 2 22 C1.67 22.99 1.34 23.98 1 25 C-0.66625622 19.91561344 -1.2472402 15.65920365 -1.1875 10.25 C-1.18105469 8.95578125 -1.17460938 7.6615625 -1.16796875 6.328125 C-1 3 -1 3 0 0 Z M4 12 C4 13.32 4 14.64 4 16 C4.33 14.68 4.66 13.36 5 12 C4.67 12 4.34 12 4 12 Z " fill="#29272A" transform="translate(92,74)"/>
<path d="M0 0 C2.625 0.375 2.625 0.375 5 1 C6.125 4.75 6.125 4.75 5 7 C5.20625 7.61875 5.4125 8.2375 5.625 8.875 C6 11 6 11 4.5625 13.25 C4.046875 13.8275 3.53125 14.405 3 15 C0.03 14.505 0.03 14.505 -3 14 C-2.67 11.36 -2.34 8.72 -2 6 C-1.01 6 -0.02 6 1 6 C1 5.34 1 4.68 1 4 C0.01 4 -0.98 4 -2 4 C-2 2 -2 2 0 0 Z " fill="#95BEDD" transform="translate(515,146)"/>
<path d="M0 0 C2.86331684 0.52060306 5.53522406 1.17167564 8.3125 2.0625 C12.45036388 3.11449929 15.75313177 3.14901292 20 3 C20 4.32 20 5.64 20 7 C17.89651926 7.19504458 15.79217415 7.38078496 13.6875 7.5625 C12.51574219 7.66691406 11.34398437 7.77132812 10.13671875 7.87890625 C7 8 7 8 4 7 C2.8125 4.9375 2.8125 4.9375 2 3 C1.34 3 0.68 3 0 3 C0 2.01 0 1.02 0 0 Z " fill="#E5BA99" transform="translate(161,35)"/>
<path d="M0 0 C1.49080078 0.16628906 1.49080078 0.16628906 3.01171875 0.3359375 C3.77097656 0.43132812 4.53023437 0.52671875 5.3125 0.625 C5.3125 1.615 5.3125 2.605 5.3125 3.625 C4.6525 3.625 3.9925 3.625 3.3125 3.625 C3.3125 4.615 3.3125 5.605 3.3125 6.625 C3.9725 6.955 4.6325 7.285 5.3125 7.625 C5.3125 8.615 5.3125 9.605 5.3125 10.625 C4.3225 10.625 3.3325 10.625 2.3125 10.625 C2.3125 8.975 2.3125 7.325 2.3125 5.625 C-1.6475 5.625 -5.6075 5.625 -9.6875 5.625 C-8.14940992 -0.52736032 -5.73284514 -0.67445237 0 0 Z " fill="#FCFBFB" transform="translate(84.6875,91.375)"/>
<path d="M0 0 C-0.99 1.485 -0.99 1.485 -2 3 C-2.66 3 -3.32 3 -4 3 C-4 3.66 -4 4.32 -4 5 C-4.61875 5.28875 -5.2375 5.5775 -5.875 5.875 C-8.13325765 6.93720042 -8.13325765 6.93720042 -10 9 C-14.5 12 -14.5 12 -18 12 C-18.33 10.68 -18.66 9.36 -19 8 C-17.68 8 -16.36 8 -15 8 C-15 7.34 -15 6.68 -15 6 C-12.98406965 3.6135404 -10.82557947 2.17131535 -8.0625 0.75 C-7.39347656 0.39421875 -6.72445312 0.0384375 -6.03515625 -0.328125 C-3.61730731 -1.12634 -2.36988243 -0.82707306 0 0 Z " fill="#BCDDF2" transform="translate(81,127)"/>
<path d="M0 0 C2.38906903 2.38906903 2.28533681 3.16925296 2.5 6.4375 C2.73068183 9.93809684 2.96150563 10.94225845 5 14 C5.125 17.1875 5.125 17.1875 5 20 C3.35 19.67 1.7 19.34 0 19 C0 17.68 0 16.36 0 15 C-0.66 14.34 -1.32 13.68 -2 13 C-1.67 12.34 -1.34 11.68 -1 11 C-0.34 11 0.32 11 1 11 C1 10.34 1 9.68 1 9 C-0.9600281 7.36323743 -0.9600281 7.36323743 -3 6 C-2.34 5.67 -1.68 5.34 -1 5 C-0.34444881 2.47266765 -0.34444881 2.47266765 0 0 Z M2 16 C3 18 3 18 3 18 Z " fill="#6AB5E8" transform="translate(69,97)"/>
<path d="M0 0 C0.86625 0.4640625 0.86625 0.4640625 1.75 0.9375 C3.84294184 1.92583364 5.74535275 2.5168613 8 3 C7.67 4.32 7.34 5.64 7 7 C5.35 6.01 3.7 5.02 2 4 C2.515625 4.78375 3.03125 5.5675 3.5625 6.375 C4.036875 7.24125 4.51125 8.1075 5 9 C4.67 9.66 4.34 10.32 4 11 C3.34 10.67 2.68 10.34 2 10 C2.33 11.32 2.66 12.64 3 14 C1 13 1 13 -1 10 C-1.66 9.67 -2.32 9.34 -3 9 C-2.25 2.25 -2.25 2.25 0 0 Z M0 2 C1 4 1 4 1 4 Z " fill="#9D8A70" transform="translate(62,80)"/>
<path d="M0 0 C-0.99 0.495 -0.99 0.495 -2 1 C-2 1.66 -2 2.32 -2 3 C-7.75 4 -7.75 4 -10 4 C-10.66 3.34 -11.32 2.68 -12 2 C-12.33 4.31 -12.66 6.62 -13 9 C-13.33 9 -13.66 9 -14 9 C-14 6.36 -14 3.72 -14 1 C-8.83430559 -0.79217969 -5.48946087 -1.12029814 0 0 Z M-6 0 C-5.34 0.66 -4.68 1.32 -4 2 C-4 1.34 -4 0.68 -4 0 C-4.66 0 -5.32 0 -6 0 Z " fill="#848287" transform="translate(412,208)"/>
<path d="M0 0 C2.97 0 5.94 0 9 0 C9.89377528 3.57510111 10.0258444 5.24917563 9.5625 8.75 C9.46066406 9.54921875 9.35882813 10.3484375 9.25390625 11.171875 C9.17011719 11.77515625 9.08632813 12.3784375 9 13 C8.67 13 8.34 13 8 13 C7.67 9.7 7.34 6.4 7 3 C4.36 3 1.72 3 -1 3 C-0.67 2.01 -0.34 1.02 0 0 Z " fill="#777B80" transform="translate(388,204)"/>
<path d="M0 0 C6.93 0 13.86 0 21 0 C21.33 0.66 21.66 1.32 22 2 C21.40985107 1.99476318 20.81970215 1.98952637 20.21166992 1.98413086 C17.53695745 1.96333953 14.86226199 1.95033299 12.1875 1.9375 C10.7943457 1.92493164 10.7943457 1.92493164 9.37304688 1.91210938 C8.48037109 1.90888672 7.58769531 1.90566406 6.66796875 1.90234375 C5.84578857 1.89710693 5.0236084 1.89187012 4.17651367 1.88647461 C1.81827404 1.91258476 1.81827404 1.91258476 -1 3 C-0.67 2.01 -0.34 1.02 0 0 Z " fill="#181819" transform="translate(57,225)"/>
<path d="M0 0 C2.375 -0.125 2.375 -0.125 5 0 C5.66 0.66 6.32 1.32 7 2 C9.22658154 2.37004294 9.22658154 2.37004294 11.7890625 2.4140625 C13.20058594 2.47207031 13.20058594 2.47207031 14.640625 2.53125 C15.62546875 2.5621875 16.6103125 2.593125 17.625 2.625 C19.11386719 2.68300781 19.11386719 2.68300781 20.6328125 2.7421875 C23.08835385 2.8366314 25.5438841 2.92219875 28 3 C27.67 3.66 27.34 4.32 27 5 C15.615 4.505 15.615 4.505 4 4 C4 3.34 4 2.68 4 2 C2.68 1.34 1.36 0.68 0 0 Z " fill="#97CEF1" transform="translate(54,146)"/>
<path d="M0 0 C3.63 0 7.26 0 11 0 C11 0.99 11 1.98 11 3 C8.36 2.67 5.72 2.34 3 2 C2.67 2.66 2.34 3.32 2 4 C1.01 3.67 0.02 3.34 -1 3 C-0.67 2.01 -0.34 1.02 0 0 Z " fill="#171719" transform="translate(64,230)"/>
<path d="M0 0 C0.144375 0.61875 0.28875 1.2375 0.4375 1.875 C0.93152225 4.03258322 0.93152225 4.03258322 2 6 C2 6.99 2 7.98 2 9 C0.68 9 -0.64 9 -2 9 C-2 8.34 -2 7.68 -2 7 C-2.66 7 -3.32 7 -4 7 C-4 6.34 -4 5.68 -4 5 C-3.34 4.67 -2.68 4.34 -2 4 C-0.86649466 1.98330173 -0.86649466 1.98330173 0 0 Z " fill="#DFD1C8" transform="translate(78,77)"/>
<path d="M0 0 C3.00617269 3.00617269 2.59585316 5.82381598 3 10 C2.67 9.34 2.34 8.68 2 8 C-0.52733235 7.34444881 -0.52733235 7.34444881 -3 7 C-2.34 6.34 -1.68 5.68 -1 5 C-0.35232207 2.42938689 -0.35232207 2.42938689 0 0 Z " fill="#84B0CD" transform="translate(69,97)"/>
<path d="M0 0 C1.32 0.33 2.64 0.66 4 1 C3.01 2.485 3.01 2.485 2 4 C1.34 4 0.68 4 0 4 C0 4.66 0 5.32 0 6 C-1.98 6.33 -3.96 6.66 -6 7 C-4.02 4.69 -2.04 2.38 0 0 Z " fill="#70B5E6" transform="translate(77,126)"/>
<path d="M0 0 C0.99 0.33 1.98 0.66 3 1 C3 3.64 3 6.28 3 9 C2.34 8.01 1.68 7.02 1 6 C0.01 6.495 0.01 6.495 -1 7 C-1.04254356 5.00045254 -1.04080783 2.99958364 -1 1 C-0.67 0.67 -0.34 0.34 0 0 Z " fill="#ECD3C3" transform="translate(73,102)"/>
<path d="M0 0 C1.32 0 2.64 0 4 0 C4.33 1.98 4.66 3.96 5 6 C2.03 5.505 2.03 5.505 -1 5 C-0.67 3.35 -0.34 1.7 0 0 Z " fill="#A1B6C7" transform="translate(513,155)"/>
<path d="M0 0 C2.625 0.375 2.625 0.375 5 1 C5.33 2.32 5.66 3.64 6 5 C5.01 5.495 5.01 5.495 4 6 C3.34 5.34 2.68 4.68 2 4 C0.68 4 -0.64 4 -2 4 C-2 2 -2 2 0 0 Z " fill="#6CB1E2" transform="translate(515,146)"/>
<path d="M0 0 C2.625 1.3125 2.625 1.3125 5 3 C5 3.66 5 4.32 5 5 C2.69 5 0.38 5 -2 5 C-1.34 4.67 -0.68 4.34 0 4 C0 3.34 0 2.68 0 2 C-0.66 1.67 -1.32 1.34 -2 1 C-1.34 0.67 -0.68 0.34 0 0 Z " fill="#823558" transform="translate(371,190)"/>
<path d="M0 0 C0.33 0.66 0.66 1.32 1 2 C1.99 2.33 2.98 2.66 4 3 C3.67 3.99 3.34 4.98 3 6 C1.68 5.67 0.36 5.34 -1 5 C-0.67 3.35 -0.34 1.7 0 0 Z " fill="#AFAFB0" transform="translate(146,162)"/>
<path d="M0 0 C-0.33 1.98 -0.66 3.96 -1 6 C-1.66 6 -2.32 6 -3 6 C-3 5.34 -3 4.68 -3 4 C-3.66 3.67 -4.32 3.34 -5 3 C-5 2.34 -5 1.68 -5 1 C-2 0 -2 0 0 0 Z " fill="#C8DFF1" transform="translate(59,129)"/>
<path d="M0 0 C2 2 2 2 2.125 5.125 C2.08375 6.07375 2.0425 7.0225 2 8 C1.01 8 0.02 8 -1 8 C-1.125 2.25 -1.125 2.25 0 0 Z " fill="#FAFBFB" transform="translate(88,108)"/>
<path d="M0 0 C2.97 0 5.94 0 9 0 C9.33 0.66 9.66 1.32 10 2 C7.03 2 4.06 2 1 2 C0.67 1.34 0.34 0.68 0 0 Z " fill="#181819" transform="translate(76,230)"/>
<path d="M0 0 C0.33 0.66 0.66 1.32 1 2 C-3.62 2 -8.24 2 -13 2 C-13 1.67 -13 1.34 -13 1 C-6.565 0.505 -6.565 0.505 0 0 Z " fill="#181819" transform="translate(49,222)"/>
<path d="M0 0 C0.66 0.33 1.32 0.66 2 1 C1.67 2.65 1.34 4.3 1 6 C0.34 6 -0.32 6 -1 6 C-1.042721 4.33388095 -1.04063832 2.66617115 -1 1 C-0.67 0.67 -0.34 0.34 0 0 Z " fill="#B8BBBB" transform="translate(548,161)"/>
<path d="M0 0 C4.29 0 8.58 0 13 0 C13 0.33 13 0.66 13 1 C8.71 1 4.42 1 0 1 C0 0.67 0 0.34 0 0 Z " fill="#181819" transform="translate(36,218)"/>
<path d="M0 0 C0.33 0.66 0.66 1.32 1 2 C1.33 1.34 1.66 0.68 2 0 C2.99 0.33 3.98 0.66 5 1 C4.01 2.485 4.01 2.485 3 4 C1.68 3.67 0.36 3.34 -1 3 C-0.67 2.01 -0.34 1.02 0 0 Z " fill="#5FB3EE" transform="translate(81,144)"/>
<path d="M0 0 C0.33 0.66 0.66 1.32 1 2 C1.66 2.33 2.32 2.66 3 3 C2.01 4.485 2.01 4.485 1 6 C-0.0625 4.125 -0.0625 4.125 -1 2 C-0.67 1.34 -0.34 0.68 0 0 Z " fill="#605E72" transform="translate(378,188)"/>
<path d="M0 0 C1.32 0 2.64 0 4 0 C3.67 0.99 3.34 1.98 3 3 C1.35 3 -0.3 3 -2 3 C-1.34 2.01 -0.68 1.02 0 0 Z " fill="#5EB2EE" transform="translate(77,132)"/>
<path d="M0 0 C0.66 0 1.32 0 2 0 C1.34 1.32 0.68 2.64 0 4 C-0.99 4 -1.98 4 -3 4 C-3 3.34 -3 2.68 -3 2 C-2.01 2 -1.02 2 0 2 C0 1.34 0 0.68 0 0 Z " fill="#F7F7F8" transform="translate(66,122)"/>
<path d="M0 0 C0.99 0.66 1.98 1.32 3 2 C2.34 2 1.68 2 1 2 C0.67 2.99 0.34 3.98 0 5 C-0.66 3.68 -1.32 2.36 -2 1 C-1.34 0.67 -0.68 0.34 0 0 Z " fill="#666068" transform="translate(98,80)"/>
<path d="M0 0 C1.32 0.66 2.64 1.32 4 2 C2.02 2.99 2.02 2.99 0 4 C-0.33 3.34 -0.66 2.68 -1 2 C-0.67 1.34 -0.34 0.68 0 0 Z " fill="#5A6A7B" transform="translate(380,200)"/>
<path d="M0 0 C1.65 0.33 3.3 0.66 5 1 C5 1.33 5 1.66 5 2 C3.02 2 1.04 2 -1 2 C-0.67 1.34 -0.34 0.68 0 0 Z " fill="#ECE8E5" transform="translate(518,194)"/>
<path d="M0 0 C1.4540625 0.0309375 1.4540625 0.0309375 2.9375 0.0625 C1.125 1.125 1.125 1.125 -1.0625 2.0625 C-2.0525 1.7325 -3.0425 1.4025 -4.0625 1.0625 C-3.0625 0.0625 -3.0625 0.0625 0 0 Z " fill="#CECDBA" transform="translate(533.0625,193.9375)"/>
<path d="M0 0 C1.2065625 0.0309375 1.2065625 0.0309375 2.4375 0.0625 C0.9525 1.5475 0.9525 1.5475 -0.5625 3.0625 C-1.5525 2.4025 -2.5425 1.7425 -3.5625 1.0625 C-2.5625 0.0625 -2.5625 0.0625 0 0 Z " fill="#FBFAFB" transform="translate(523.5625,156.9375)"/>
<path d="M0 0 C0.33 0.66 0.66 1.32 1 2 C1.99 2.33 2.98 2.66 4 3 C2.68 3 1.36 3 0 3 C-0.33 3.66 -0.66 4.32 -1 5 C-1.33 4.01 -1.66 3.02 -2 2 C-1.34 2 -0.68 2 0 2 C0 1.34 0 0.68 0 0 Z " fill="#848386" transform="translate(359,143)"/>
<path d="M0 0 C0.99 0.33 1.98 0.66 3 1 C2.34 1 1.68 1 1 1 C1 2.98 1 4.96 1 7 C-1 4 -1 4 -0.625 1.8125 C-0.41875 1.214375 -0.2125 0.61625 0 0 Z " fill="#E5E1DD" transform="translate(47,135)"/>
<path d="M0 0 C1.65 0 3.3 0 5 0 C5 0.66 5 1.32 5 2 C3.68 2.33 2.36 2.66 1 3 C0.67 2.01 0.34 1.02 0 0 Z " fill="#5EB3EE" transform="translate(81,131)"/>
<path d="M0 0 C1.32 0.33 2.64 0.66 4 1 C3.01 2.485 3.01 2.485 2 4 C1.34 3.67 0.68 3.34 0 3 C0 2.01 0 1.02 0 0 Z " fill="#727375" transform="translate(571,101)"/>
<path d="M0 0 C2.97 0 5.94 0 9 0 C9 0.33 9 0.66 9 1 C6.03 1 3.06 1 0 1 C0 0.67 0 0.34 0 0 Z " fill="#181819" transform="translate(39,226)"/>
<path d="M0 0 C0.66 0 1.32 0 2 0 C1.625 1.9375 1.625 1.9375 1 4 C0.01 4.495 0.01 4.495 -1 5 C-0.67 3.35 -0.34 1.7 0 0 Z " fill="#D8E7ED" transform="translate(541,158)"/>
<path d="M0 0 C1.98 0.99 1.98 0.99 4 2 C2.68 2 1.36 2 0 2 C0 1.34 0 0.68 0 0 Z " fill="#EDF5F8" transform="translate(86,158)"/>
<path d="M0 0 C0.66 0 1.32 0 2 0 C2 0.66 2 1.32 2 2 C1.34 2 0.68 2 0 2 C-0.33 2.66 -0.66 3.32 -1 4 C-1 1 -1 1 0 0 Z " fill="#B0D6ED" transform="translate(61,126)"/>
<path d="M0 0 C1.32 0 2.64 0 4 0 C3.67 0.66 3.34 1.32 3 2 C1.68 1.67 0.36 1.34 -1 1 C-0.67 0.67 -0.34 0.34 0 0 Z " fill="#7B7F83" transform="translate(577,101)"/>
<path d="M0 0 C2.31 0 4.62 0 7 0 C7 0.33 7 0.66 7 1 C4.69 1 2.38 1 0 1 C0 0.67 0 0.34 0 0 Z " fill="#181819" transform="translate(54,230)"/>
<path d="M0 0 C0.99 0.495 0.99 0.495 2 1 C2 1.99 2 2.98 2 4 C1.34 4 0.68 4 0 4 C0 2.68 0 1.36 0 0 Z " fill="#F4F3F5" transform="translate(148,168)"/>
<path d="M0 0 C1.32 0.33 2.64 0.66 4 1 C2.68 1.33 1.36 1.66 0 2 C0 1.34 0 0.68 0 0 Z " fill="#EDEBED" transform="translate(558,162)"/>
<path d="M0 0 C0.99 0 1.98 0 3 0 C2.67 0.99 2.34 1.98 2 3 C1.34 2.67 0.68 2.34 0 2 C0 1.34 0 0.68 0 0 Z " fill="#71787F" transform="translate(376,143)"/>
<path d="M0 0 C2.475 0.495 2.475 0.495 5 1 C3.68 1.33 2.36 1.66 1 2 C0.67 1.34 0.34 0.68 0 0 Z " fill="#F3F1F3" transform="translate(51,134)"/>
<path d="M0 0 C0.99 0 1.98 0 3 0 C2.67 0.66 2.34 1.32 2 2 C1.01 1.67 0.02 1.34 -1 1 C-0.67 0.67 -0.34 0.34 0 0 Z " fill="#858487" transform="translate(409,212)"/>
<path d="M0 0 C0.66 0 1.32 0 2 0 C2 0.99 2 1.98 2 3 C1.34 3 0.68 3 0 3 C0 2.01 0 1.02 0 0 Z " fill="#865F71" transform="translate(372,206)"/>
<path d="M0 0 C0.33 0 0.66 0 1 0 C1 1.65 1 3.3 1 5 C0.34 3.68 -0.32 2.36 -1 1 C-0.67 0.67 -0.34 0.34 0 0 Z " fill="#667583" transform="translate(390,196)"/>
<path d="M0 0 C1.32 0 2.64 0 4 0 C4 0.66 4 1.32 4 2 C2.68 1.34 1.36 0.68 0 0 Z " fill="#85405E" transform="translate(372,177)"/>
<path d="M0 0 C0 0.99 0 1.98 0 3 C-0.99 2.34 -1.98 1.68 -3 1 C-2.01 0.67 -1.02 0.34 0 0 Z " fill="#CAE3F5" transform="translate(527,153)"/>
<path d="M0 0 C1.32 0.66 2.64 1.32 4 2 C2.35 2 0.7 2 -1 2 C-0.67 1.34 -0.34 0.68 0 0 Z " fill="#5FB3EE" transform="translate(528,150)"/>
<path d="M0 0 C0.66 0.99 1.32 1.98 2 3 C0.68 2.67 -0.64 2.34 -2 2 C-1.34 2 -0.68 2 0 2 C0 1.34 0 0.68 0 0 Z " fill="#DADEE1" transform="translate(50,145)"/>
<path d="M0 0 C0.66 0.33 1.32 0.66 2 1 C2 1.66 2 2.32 2 3 C1.01 2.67 0.02 2.34 -1 2 C-0.67 1.34 -0.34 0.68 0 0 Z " fill="#F4F5F5" transform="translate(58,121)"/>
<path d="M0 0 C1.32 0.33 2.64 0.66 4 1 C2.68 1 1.36 1 0 1 C0 0.67 0 0.34 0 0 Z " fill="#2A292C" transform="translate(93,116)"/>
<path d="M0 0 C2 2 2 2 2 4 C1.34 4 0.68 4 0 4 C0 2.68 0 1.36 0 0 Z " fill="#2D2C30" transform="translate(568,100)"/>
<path d="M0 0 C0.66 0.66 1.32 1.32 2 2 C1.01 2 0.02 2 -1 2 C-0.67 1.34 -0.34 0.68 0 0 Z " fill="#D2D2D3" transform="translate(80,237)"/>
<path d="M0 0 C0.66 0.66 1.32 1.32 2 2 C1.01 2 0.02 2 -1 2 C-0.67 1.34 -0.34 0.68 0 0 Z " fill="#D2D2D3" transform="translate(77,237)"/>
<path d="M0 0 C0.66 0.66 1.32 1.32 2 2 C1.01 2 0.02 2 -1 2 C-0.67 1.34 -0.34 0.68 0 0 Z " fill="#D2D2D3" transform="translate(74,237)"/>
<path d="M0 0 C0.66 0.66 1.32 1.32 2 2 C1.01 2 0.02 2 -1 2 C-0.67 1.34 -0.34 0.68 0 0 Z " fill="#D2D2D3" transform="translate(71,237)"/>
<path d="M0 0 C0.66 0.66 1.32 1.32 2 2 C1.01 2 0.02 2 -1 2 C-0.67 1.34 -0.34 0.68 0 0 Z " fill="#D2D2D3" transform="translate(68,237)"/>
<path d="M0 0 C0.66 0.66 1.32 1.32 2 2 C1.01 2 0.02 2 -1 2 C-0.67 1.34 -0.34 0.68 0 0 Z " fill="#D2D2D3" transform="translate(65,237)"/>
<path d="M0 0 C0.66 0.66 1.32 1.32 2 2 C1.01 2 0.02 2 -1 2 C-0.67 1.34 -0.34 0.68 0 0 Z " fill="#D2D2D3" transform="translate(62,237)"/>
<path d="M0 0 C0.66 0.66 1.32 1.32 2 2 C1.01 2 0.02 2 -1 2 C-0.67 1.34 -0.34 0.68 0 0 Z " fill="#D2D2D3" transform="translate(59,237)"/>
<path d="M0 0 C0.66 0.66 1.32 1.32 2 2 C1.01 2 0.02 2 -1 2 C-0.67 1.34 -0.34 0.68 0 0 Z " fill="#D2D2D3" transform="translate(56,237)"/>
<path d="M0 0 C0.66 0.66 1.32 1.32 2 2 C1.01 2 0.02 2 -1 2 C-0.67 1.34 -0.34 0.68 0 0 Z " fill="#D2D2D3" transform="translate(53,237)"/>
<path d="M0 0 C0.66 0.66 1.32 1.32 2 2 C1.01 2 0.02 2 -1 2 C-0.67 1.34 -0.34 0.68 0 0 Z " fill="#D2D2D3" transform="translate(50,237)"/>
<path d="M0 0 C0.66 0.66 1.32 1.32 2 2 C1.01 2 0.02 2 -1 2 C-0.67 1.34 -0.34 0.68 0 0 Z " fill="#D2D2D3" transform="translate(47,237)"/>
<path d="M0 0 C0.66 0.66 1.32 1.32 2 2 C1.01 2 0.02 2 -1 2 C-0.67 1.34 -0.34 0.68 0 0 Z " fill="#D2D2D3" transform="translate(44,237)"/>
<path d="M0 0 C0.66 0.66 1.32 1.32 2 2 C1.01 2 0.02 2 -1 2 C-0.67 1.34 -0.34 0.68 0 0 Z " fill="#D2D2D3" transform="translate(41,237)"/>
<path d="M0 0 C0.66 0.66 1.32 1.32 2 2 C1.01 2 0.02 2 -1 2 C-0.67 1.34 -0.34 0.68 0 0 Z " fill="#D2D2D3" transform="translate(38,237)"/>
<path d="M0 0 C0.66 0.66 1.32 1.32 2 2 C1.01 2 0.02 2 -1 2 C-0.67 1.34 -0.34 0.68 0 0 Z " fill="#D2D2D3" transform="translate(35,237)"/>
<path d="M0 0 C0.66 0.66 1.32 1.32 2 2 C1.01 2 0.02 2 -1 2 C-0.67 1.34 -0.34 0.68 0 0 Z " fill="#D2D2D3" transform="translate(32,237)"/>
<path d="M0 0 C0.66 0.66 1.32 1.32 2 2 C1.01 2 0.02 2 -1 2 C-0.67 1.34 -0.34 0.68 0 0 Z " fill="#D2D2D3" transform="translate(29,237)"/>
<path d="M0 0 C0.66 0.66 1.32 1.32 2 2 C1.01 2 0.02 2 -1 2 C-0.67 1.34 -0.34 0.68 0 0 Z " fill="#D2D2D3" transform="translate(26,237)"/>
<path d="M0 0 C0.66 0.66 1.32 1.32 2 2 C1.01 2 0.02 2 -1 2 C-0.67 1.34 -0.34 0.68 0 0 Z " fill="#D2D2D3" transform="translate(23,237)"/>
<path d="M0 0 C0.66 0.66 1.32 1.32 2 2 C1.01 2 0.02 2 -1 2 C-0.67 1.34 -0.34 0.68 0 0 Z " fill="#D2D2D3" transform="translate(20,237)"/>
<path d="M0 0 C0.66 0.66 1.32 1.32 2 2 C1.01 2 0.02 2 -1 2 C-0.67 1.34 -0.34 0.68 0 0 Z " fill="#D2D2D3" transform="translate(17,237)"/>
<path d="M0 0 C0.66 0.66 1.32 1.32 2 2 C1.01 2 0.02 2 -1 2 C-0.67 1.34 -0.34 0.68 0 0 Z " fill="#D2D2D3" transform="translate(14,237)"/>
<path d="M0 0 C0.66 0.66 1.32 1.32 2 2 C1.01 2 0.02 2 -1 2 C-0.67 1.34 -0.34 0.68 0 0 Z " fill="#D2D2D3" transform="translate(11,237)"/>
<path d="M0 0 C0.66 0.66 1.32 1.32 2 2 C1.01 2 0.02 2 -1 2 C-0.67 1.34 -0.34 0.68 0 0 Z " fill="#1B1B1D" transform="translate(7,233)"/>
<path d="M0 0 C0.99 0.33 1.98 0.66 3 1 C2.01 1.33 1.02 1.66 0 2 C0 1.34 0 0.68 0 0 Z " fill="#444445" transform="translate(43,229)"/>
<path d="M0 0 C1.32 0.33 2.64 0.66 4 1 C3.01 1.33 2.02 1.66 1 2 C0.67 1.34 0.34 0.68 0 0 Z " fill="#2A2A2C" transform="translate(50,219)"/>
<path d="M0 0 C0.99 0 1.98 0 3 0 C3 0.66 3 1.32 3 2 C2.01 2 1.02 2 0 2 C0 1.34 0 0.68 0 0 Z " fill="#84767F" transform="translate(384,207)"/>
<path d="M0 0 C0.99 0 1.98 0 3 0 C2.67 0.66 2.34 1.32 2 2 C1.34 2 0.68 2 0 2 C0 1.34 0 0.68 0 0 Z " fill="#F4F4F4" transform="translate(531,156)"/>
<path d="M0 0 C0.66 0.66 1.32 1.32 2 2 C1.01 2 0.02 2 -1 2 C-0.67 1.34 -0.34 0.68 0 0 Z " fill="#60B3EE" transform="translate(522,151)"/>
<path d="M0 0 C0.66 0.66 1.32 1.32 2 2 C1.34 2.66 0.68 3.32 0 4 C0 2.68 0 1.36 0 0 Z " fill="#F8FAFA" transform="translate(87,147)"/>
<path d="M0 0 C0.99 0 1.98 0 3 0 C3 0.66 3 1.32 3 2 C2.01 1.67 1.02 1.34 0 1 C0 0.67 0 0.34 0 0 Z " fill="#FCFBFA" transform="translate(87,144)"/>
<path d="M0 0 C1.32 0.33 2.64 0.66 4 1 C2.68 1.33 1.36 1.66 0 2 C0 1.34 0 0.68 0 0 Z " fill="#62B3ED" transform="translate(66,139)"/>
<path d="M0 0 C0.99 0.33 1.98 0.66 3 1 C2.01 1.33 1.02 1.66 0 2 C0 1.34 0 0.68 0 0 Z " fill="#8AC9F2" transform="translate(73,138)"/>
<path d="M0 0 C0.99 0 1.98 0 3 0 C3 0.66 3 1.32 3 2 C2.01 1.67 1.02 1.34 0 1 C0 0.67 0 0.34 0 0 Z " fill="#FBFBFA" transform="translate(87,133)"/>
<path d="M0 0 C1.32 0.33 2.64 0.66 4 1 C3.01 1.495 3.01 1.495 2 2 C1.34 1.34 0.68 0.68 0 0 Z " fill="#927A57" transform="translate(55,98)"/>
<path d="M0 0 C0.66 0 1.32 0 2 0 C2 0.66 2 1.32 2 2 C1.34 2 0.68 2 0 2 C0 1.34 0 0.68 0 0 Z " fill="#666567" transform="translate(8,236)"/>
<path d="M0 0 C0.33 0.99 0.66 1.98 1 3 C0.34 2.67 -0.32 2.34 -1 2 C-0.67 1.34 -0.34 0.68 0 0 Z " fill="#444445" transform="translate(4,234)"/>
<path d="M0 0 C4 1 4 1 4 1 Z " fill="#141415" transform="translate(81,234)"/>
<path d="M0 0 C1.485 0.99 1.485 0.99 3 2 C2.01 2 1.02 2 0 2 C0 1.34 0 0.68 0 0 Z " fill="#222121" transform="translate(34,227)"/>
<path d="M0 0 C0.99 0 1.98 0 3 0 C2.67 0.66 2.34 1.32 2 2 C1.34 1.34 0.68 0.68 0 0 Z " fill="#6C7986" transform="translate(392,200)"/>
<path d="M0 0 C0.66 0.66 1.32 1.32 2 2 C1.01 1.67 0.02 1.34 -1 1 C-0.67 0.67 -0.34 0.34 0 0 Z " fill="#F4F2F4" transform="translate(532,196)"/>
<path d="M0 0 C0.99 0.33 1.98 0.66 3 1 C2.01 1.33 1.02 1.66 0 2 C0 1.34 0 0.68 0 0 Z " fill="#5B6B7B" transform="translate(393,197)"/>
<path d="M0 0 C0.99 0.33 1.98 0.66 3 1 C2.01 1 1.02 1 0 1 C0 0.67 0 0.34 0 0 Z " fill="#5B6A7B" transform="translate(385,196)"/>
<path d="M0 0 C0.66 0.66 1.32 1.32 2 2 C1.01 2.495 1.01 2.495 0 3 C0 2.01 0 1.02 0 0 Z " fill="#677687" transform="translate(396,194)"/>
<path d="M0 0 C0.66 0.66 1.32 1.32 2 2 C1.01 1.67 0.02 1.34 -1 1 C-0.67 0.67 -0.34 0.34 0 0 Z " fill="#802B55" transform="translate(374,182)"/>
<path d="M0 0 C0.99 0.33 1.98 0.66 3 1 C2.01 1 1.02 1 0 1 C0 0.67 0 0.34 0 0 Z " fill="#62586D" transform="translate(377,179)"/>
<path d="M0 0 C0.66 0 1.32 0 2 0 C2 0.66 2 1.32 2 2 C1.34 2 0.68 2 0 2 C0 1.34 0 0.68 0 0 Z " fill="#FDFCFA" transform="translate(88,169)"/>
<path d="M0 0 C0.66 0 1.32 0 2 0 C2 0.66 2 1.32 2 2 C1.34 2 0.68 2 0 2 C0 1.34 0 0.68 0 0 Z " fill="#9D9C9D" transform="translate(354,142)"/>
<path d="M0 0 C0.99 0.33 1.98 0.66 3 1 C2.01 1 1.02 1 0 1 C0 0.67 0 0.34 0 0 Z " fill="#60B3EE" transform="translate(75,142)"/>
<path d="M0 0 C4 1 4 1 4 1 Z " fill="#828286" transform="translate(358,137)"/>
<path d="M0 0 C0.99 0.33 1.98 0.66 3 1 C2.01 1.33 1.02 1.66 0 2 C0 1.34 0 0.68 0 0 Z " fill="#5DB2ED" transform="translate(56,127)"/>
<path d="M0 0 C0.99 0.495 0.99 0.495 2 1 C1.67 1.66 1.34 2.32 1 3 C0.67 2.01 0.34 1.02 0 0 Z " fill="#F4F5F6" transform="translate(84,120)"/>
<path d="M0 0 C4 1 4 1 4 1 Z " fill="#FFFFFF" transform="translate(68,118)"/>
<path d="M0 0 C0.66 0 1.32 0 2 0 C2 0.66 2 1.32 2 2 C1.34 2 0.68 2 0 2 C0 1.34 0 0.68 0 0 Z " fill="#FDFCFD" transform="translate(101,104)"/>
<path d="M0 0 C4 1 4 1 4 1 Z " fill="#7F8286" transform="translate(574,99)"/>
<path d="M0 0 C3 1 3 1 3 1 Z " fill="#FFFFFF" transform="translate(0,238)"/>
<path d="M0 0 C0.33 0.66 0.66 1.32 1 2 C0.34 1.67 -0.32 1.34 -1 1 C-0.67 0.67 -0.34 0.34 0 0 Z " fill="#151517" transform="translate(46,231)"/>
<path d="M0 0 C0.66 0 1.32 0 2 0 C1.67 0.66 1.34 1.32 1 2 C0.67 1.34 0.34 0.68 0 0 Z " fill="#181819" transform="translate(86,230)"/>
<path d="M0 0 C3 1 3 1 3 1 Z " fill="#18181A" transform="translate(81,220)"/>
<path d="" fill="#858588" transform="translate(0,0)"/>
<path d="" fill="#858588" transform="translate(0,0)"/>
<path d="M0 0 C0.66 0.66 1.32 1.32 2 2 C1.34 2 0.68 2 0 2 C0 1.34 0 0.68 0 0 Z " fill="#7E1F49" transform="translate(374,204)"/>
<path d="M0 0 C0.66 0 1.32 0 2 0 C1.67 0.66 1.34 1.32 1 2 C0.67 1.34 0.34 0.68 0 0 Z " fill="#7E1F49" transform="translate(365,204)"/>
<path d="M0 0 C0.33 0.66 0.66 1.32 1 2 C0.34 1.67 -0.32 1.34 -1 1 C-0.67 0.67 -0.34 0.34 0 0 Z " fill="#5B6A7A" transform="translate(401,203)"/>
<path d="M0 0 C0.99 0.495 0.99 0.495 2 1 C1.01 1.495 1.01 1.495 0 2 C0 1.34 0 0.68 0 0 Z " fill="#5B6A7A" transform="translate(384,203)"/>
<path d="M0 0 C0.33 0.66 0.66 1.32 1 2 C0.34 1.67 -0.32 1.34 -1 1 C-0.67 0.67 -0.34 0.34 0 0 Z " fill="#5B6B7B" transform="translate(399,202)"/>
<path d="M0 0 C0.99 0.495 0.99 0.495 2 1 C1.01 1.495 1.01 1.495 0 2 C0 1.34 0 0.68 0 0 Z " fill="#5A6979" transform="translate(388,201)"/>
<path d="M0 0 C0.66 0 1.32 0 2 0 C1.67 0.66 1.34 1.32 1 2 C0.67 1.34 0.34 0.68 0 0 Z " fill="#75808B" transform="translate(399,199)"/>
<path d="M0 0 C0.66 0.66 1.32 1.32 2 2 C1.34 2 0.68 2 0 2 C0 1.34 0 0.68 0 0 Z " fill="#7D254E" transform="translate(372,198)"/>
<path d="M0 0 C3 1 3 1 3 1 Z " fill="#5D6C7C" transform="translate(383,192)"/>
<path d="" fill="#5E6E7E" transform="translate(0,0)"/>
<path d="M0 0 C3 1 3 1 3 1 Z " fill="#842A57" transform="translate(369,183)"/>
<path d="M0 0 C0.99 0.495 0.99 0.495 2 1 C1.01 1.495 1.01 1.495 0 2 C0 1.34 0 0.68 0 0 Z " fill="#726D65" transform="translate(534,175)"/>
<path d="M0 0 C0.99 0.495 0.99 0.495 2 1 C1.01 1.495 1.01 1.495 0 2 C0 1.34 0 0.68 0 0 Z " fill="#9D9A80" transform="translate(512,161)"/>
<path d="M0 0 C0.66 0.66 1.32 1.32 2 2 C1.34 2 0.68 2 0 2 C0 1.34 0 0.68 0 0 Z " fill="#F0F7FB" transform="translate(529,154)"/>
<path d="" fill="#F3F1F4" transform="translate(0,0)"/>
<path d="M0 0 C0.66 0 1.32 0 2 0 C1.67 0.66 1.34 1.32 1 2 C0.67 1.34 0.34 0.68 0 0 Z " fill="#E6E8E9" transform="translate(78,153)"/>
<path d="M0 0 C0.99 0.495 0.99 0.495 2 1 C1.01 1.495 1.01 1.495 0 2 C0 1.34 0 0.68 0 0 Z " fill="#D9DDE0" transform="translate(46,151)"/>
<path d="M0 0 C0.66 0.66 1.32 1.32 2 2 C1.34 2 0.68 2 0 2 C0 1.34 0 0.68 0 0 Z " fill="#93D0F8" transform="translate(525,149)"/>
<path d="M0 0 C0.66 0.66 1.32 1.32 2 2 C1.34 2 0.68 2 0 2 C0 1.34 0 0.68 0 0 Z " fill="#66B4EA" transform="translate(522,148)"/>
<path d="M0 0 C0.66 0.66 1.32 1.32 2 2 C1.34 2 0.68 2 0 2 C0 1.34 0 0.68 0 0 Z " fill="#C6C5C5" transform="translate(47,144)"/>
<path d="M0 0 C0.33 0.66 0.66 1.32 1 2 C0.34 1.67 -0.32 1.34 -1 1 C-0.67 0.67 -0.34 0.34 0 0 Z " fill="#59697A" transform="translate(380,144)"/>
<path d="M0 0 C0.66 0 1.32 0 2 0 C1.67 0.66 1.34 1.32 1 2 C0.67 1.34 0.34 0.68 0 0 Z " fill="#5EB2ED" transform="translate(72,142)"/>
<path d="M0 0 C0.66 0.66 1.32 1.32 2 2 C1.34 2 0.68 2 0 2 C0 1.34 0 0.68 0 0 Z " fill="#878588" transform="translate(356,137)"/>
<path d="" fill="#17181C" transform="translate(0,0)"/>
<path d="M0 0 C3 1 3 1 3 1 Z " fill="#AD9C7E" transform="translate(62,102)"/>
<path d="M0 0 C0.99 0.495 0.99 0.495 2 1 C1.01 1.495 1.01 1.495 0 2 C0 1.34 0 0.68 0 0 Z " fill="#676267" transform="translate(96,97)"/>
<path d="M0 0 C3 1 3 1 3 1 Z " fill="#8C7454" transform="translate(65,97)"/>
<path d="M0 0 C2 1 2 1 2 1 Z " fill="#58505A" transform="translate(1,235)"/>
<path d="M0 0 C2 1 2 1 2 1 Z " fill="#141415" transform="translate(78,234)"/>
<path d="M0 0 C2 1 2 1 2 1 Z " fill="#141415" transform="translate(75,234)"/>
<path d="M0 0 C2 1 2 1 2 1 Z " fill="#141415" transform="translate(72,234)"/>
<path d="M0 0 C2 1 2 1 2 1 Z " fill="#151516" transform="translate(39,231)"/>
<path d="" fill="#605F61" transform="translate(0,0)"/>
<path d="M0 0 C2 1 2 1 2 1 Z " fill="#171718" transform="translate(54,220)"/>
<path d="" fill="#F3F1F5" transform="translate(0,0)"/>
<path d="M0 0 C2 1 2 1 2 1 Z " fill="#858486" transform="translate(416,208)"/>
<path d="" fill="#7E204A" transform="translate(0,0)"/>
<path d="" fill="#F3F1F5" transform="translate(0,0)"/>
<path d="M0 0 C2 1 2 1 2 1 Z " fill="#5A697A" transform="translate(405,201)"/>
<path d="M0 0 C2 1 2 1 2 1 Z " fill="#5B6979" transform="translate(385,201)"/>
<path d="" fill="#59697A" transform="translate(0,0)"/>
<path d="M0 0 C2 1 2 1 2 1 Z " fill="#788692" transform="translate(396,199)"/>
<path d="M0 0 C2 1 2 1 2 1 Z " fill="#717F8D" transform="translate(384,199)"/>
<path d="M0 0 C2 1 2 1 2 1 Z " fill="#7D2850" transform="translate(369,199)"/>
<path d="M0 0 C2 1 2 1 2 1 Z " fill="#7D2850" transform="translate(365,199)"/>
<path d="M0 0 C2 1 2 1 2 1 Z " fill="#F5F5F4" transform="translate(534,196)"/>
<path d="M0 0 C2 1 2 1 2 1 Z " fill="#FFFFFF" transform="translate(526,196)"/>
<path d="M0 0 C2 1 2 1 2 1 Z " fill="#7E204A" transform="translate(369,196)"/>
<path d="M0 0 C2 1 2 1 2 1 Z " fill="#B3B590" transform="translate(518,190)"/>
<path d="M0 0 C2 1 2 1 2 1 Z " fill="#803C5E" transform="translate(369,189)"/>
<path d="M0 0 C2 1 2 1 2 1 Z " fill="#82305A" transform="translate(366,183)"/>
<path d="M0 0 C2 1 2 1 2 1 Z " fill="#82305A" transform="translate(361,183)"/>
<path d="M0 0 C2 1 2 1 2 1 Z " fill="#8D654D" transform="translate(538,180)"/>
<path d="" fill="#812952" transform="translate(0,0)"/>
<path d="M0 0 C2 1 2 1 2 1 Z " fill="#FEFDFD" transform="translate(85,178)"/>
<path d="M0 0 C2 1 2 1 2 1 Z " fill="#6A4C67" transform="translate(377,177)"/>
<path d="M0 0 C2 1 2 1 2 1 Z " fill="#B4B495" transform="translate(529,175)"/>
<path d="M0 0 C2 1 2 1 2 1 Z " fill="#B4B590" transform="translate(525,169)"/>
<path d="M0 0 C2 1 2 1 2 1 Z " fill="#FCFBFB" transform="translate(88,167)"/>
<path d="M0 0 C2 1 2 1 2 1 Z " fill="#F1F1F2" transform="translate(550,166)"/>
<path d="M0 0 C2 1 2 1 2 1 Z " fill="#FCFBFB" transform="translate(88,165)"/>
<path d="M0 0 C2 1 2 1 2 1 Z " fill="#F1F0F3" transform="translate(556,164)"/>
<path d="" fill="#F3F1F4" transform="translate(0,0)"/>
<path d="" fill="#BCBEBF" transform="translate(0,0)"/>
<path d="M0 0 C2 1 2 1 2 1 Z " fill="#FCFBFB" transform="translate(88,163)"/>
<path d="" fill="#80A4B0" transform="translate(0,0)"/>
<path d="" fill="#FCFBFC" transform="translate(0,0)"/>
<path d="" fill="#F3F3F4" transform="translate(0,0)"/>
<path d="" fill="#858588" transform="translate(0,0)"/>
<path d="" fill="#65B6EF" transform="translate(0,0)"/>
<path d="M0 0 C2 1 2 1 2 1 Z " fill="#5DB2EE" transform="translate(77,140)"/>
<path d="M0 0 C2 1 2 1 2 1 Z " fill="#F4F1F3" transform="translate(50,139)"/>
<path d="" fill="#5BB2EE" transform="translate(0,0)"/>
<path d="M0 0 C2 1 2 1 2 1 Z " fill="#F4F1F3" transform="translate(58,138)"/>
<path d="M0 0 C2 1 2 1 2 1 Z " fill="#F3F1F5" transform="translate(60,137)"/>
<path d="M0 0 C2 1 2 1 2 1 Z " fill="#F4F1F3" transform="translate(56,137)"/>
<path d="M0 0 C2 1 2 1 2 1 Z " fill="#FAFAF9" transform="translate(88,136)"/>
<path d="M0 0 C2 1 2 1 2 1 Z " fill="#84C2EC" transform="translate(73,136)"/>
<path d="" fill="#5BB2EE" transform="translate(0,0)"/>
<path d="M0 0 C2 1 2 1 2 1 Z " fill="#EFF4F6" transform="translate(51,132)"/>
<path d="M0 0 C2 1 2 1 2 1 Z " fill="#FDFCF9" transform="translate(88,131)"/>
<path d="M0 0 C2 1 2 1 2 1 Z " fill="#F3F3F3" transform="translate(66,131)"/>
<path d="M0 0 C2 1 2 1 2 1 Z " fill="#F4F3F0" transform="translate(64,128)"/>
<path d="M0 0 C2 1 2 1 2 1 Z " fill="#F3F1F4" transform="translate(68,124)"/>
<path d="M0 0 C2 1 2 1 2 1 Z " fill="#EDE8E4" transform="translate(70,122)"/>
<path d="M0 0 C2 1 2 1 2 1 Z " fill="#E8E7E7" transform="translate(68,121)"/>
<path d="" fill="#171718" transform="translate(0,0)"/>
<path d="M0 0 C2 1 2 1 2 1 Z " fill="#5DB2EE" transform="translate(64,114)"/>
<path d="M0 0 C2 1 2 1 2 1 Z " fill="#2D2C30" transform="translate(553,110)"/>
<path d="" fill="#68ADDE" transform="translate(0,0)"/>
<path d="M0 0 C2 1 2 1 2 1 Z " fill="#2D2C30" transform="translate(568,105)"/>
<path d="" fill="#EFD7C8" transform="translate(0,0)"/>
<path d="" fill="#F9F8F6" transform="translate(0,0)"/>
<path d="M0 0 C2 1 2 1 2 1 Z " fill="#2D2C30" transform="translate(567,98)"/>
<path d="M0 0 C2 1 2 1 2 1 Z " fill="#7F6350" transform="translate(50,98)"/>
<path d="" fill="#967F5B" transform="translate(0,0)"/>
<path d="" fill="#98805B" transform="translate(0,0)"/>
<path d="M0 0 C2 1 2 1 2 1 Z " fill="#D6D6D6" transform="translate(99,91)"/>
<path d="M0 0 C2 1 2 1 2 1 Z " fill="#676168" transform="translate(96,79)"/>
<path d="" fill="#FFFFFF" transform="translate(0,0)"/>
<path d="" fill="#FAFAF9" transform="translate(0,0)"/>
<path d="M0 0 C2 1 2 1 2 1 Z " fill="#F2F1F3" transform="translate(219,0)"/>
<path d="" fill="#646367" transform="translate(0,0)"/>
<path d="" fill="#352F2D" transform="translate(0,0)"/>
<path d="" fill="#131211" transform="translate(0,0)"/>
<path d="" fill="#1A1A1B" transform="translate(0,0)"/>
<path d="" fill="#17181C" transform="translate(0,0)"/>
<path d="" fill="#181818" transform="translate(0,0)"/>
<path d="" fill="#19191B" transform="translate(0,0)"/>
<path d="" fill="#2F3035" transform="translate(0,0)"/>
<path d="" fill="#181818" transform="translate(0,0)"/>
<path d="" fill="#3C3B3F" transform="translate(0,0)"/>
<path d="" fill="#3C3B3F" transform="translate(0,0)"/>
<path d="" fill="#131211" transform="translate(0,0)"/>
<path d="" fill="#161619" transform="translate(0,0)"/>
<path d="" fill="#19191B" transform="translate(0,0)"/>
<path d="" fill="#161619" transform="translate(0,0)"/>
<path d="" fill="#181818" transform="translate(0,0)"/>
<path d="" fill="#666666" transform="translate(0,0)"/>
<path d="" fill="#474445" transform="translate(0,0)"/>
<path d="" fill="#181818" transform="translate(0,0)"/>
<path d="" fill="#19191B" transform="translate(0,0)"/>
<path d="" fill="#181818" transform="translate(0,0)"/>
<path d="" fill="#19191B" transform="translate(0,0)"/>
<path d="" fill="#181818" transform="translate(0,0)"/>
<path d="" fill="#19191B" transform="translate(0,0)"/>
<path d="" fill="#181818" transform="translate(0,0)"/>
<path d="" fill="#19191B" transform="translate(0,0)"/>
<path d="" fill="#181818" transform="translate(0,0)"/>
<path d="" fill="#19191B" transform="translate(0,0)"/>
<path d="" fill="#181818" transform="translate(0,0)"/>
<path d="" fill="#19191B" transform="translate(0,0)"/>
<path d="" fill="#19191B" transform="translate(0,0)"/>
<path d="" fill="#323338" transform="translate(0,0)"/>
<path d="" fill="#F5F5F4" transform="translate(0,0)"/>
<path d="" fill="#858484" transform="translate(0,0)"/>
<path d="" fill="#F4F1F3" transform="translate(0,0)"/>
<path d="" fill="#D2D8DB" transform="translate(0,0)"/>
<path d="" fill="#888688" transform="translate(0,0)"/>
<path d="" fill="#858588" transform="translate(0,0)"/>
<path d="" fill="#858783" transform="translate(0,0)"/>
<path d="" fill="#7D3057" transform="translate(0,0)"/>
<path d="" fill="#7E204A" transform="translate(0,0)"/>
<path d="" fill="#5C6C7C" transform="translate(0,0)"/>
<path d="" fill="#5A6A7B" transform="translate(0,0)"/>
<path d="" fill="#FFFFFF" transform="translate(0,0)"/>
<path d="" fill="#FFFDFF" transform="translate(0,0)"/>
<path d="" fill="#FFFDFF" transform="translate(0,0)"/>
<path d="" fill="#7E204A" transform="translate(0,0)"/>
<path d="" fill="#7E204A" transform="translate(0,0)"/>
<path d="" fill="#5C6C7C" transform="translate(0,0)"/>
<path d="" fill="#5C6C7C" transform="translate(0,0)"/>
<path d="" fill="#7E204A" transform="translate(0,0)"/>
<path d="" fill="#7E204A" transform="translate(0,0)"/>
<path d="" fill="#7F1F48" transform="translate(0,0)"/>
<path d="" fill="#7E204A" transform="translate(0,0)"/>
<path d="" fill="#576878" transform="translate(0,0)"/>
<path d="" fill="#58697A" transform="translate(0,0)"/>
<path d="" fill="#7F1F48" transform="translate(0,0)"/>
<path d="" fill="#788896" transform="translate(0,0)"/>
<path d="" fill="#7A2247" transform="translate(0,0)"/>
<path d="" fill="#5C6C7C" transform="translate(0,0)"/>
<path d="" fill="#5B6979" transform="translate(0,0)"/>
<path d="" fill="#58697A" transform="translate(0,0)"/>
<path d="" fill="#5A6A7B" transform="translate(0,0)"/>
<path d="" fill="#7F1F48" transform="translate(0,0)"/>
<path d="" fill="#5C6C7C" transform="translate(0,0)"/>
<path d="" fill="#5C6C7C" transform="translate(0,0)"/>
<path d="" fill="#5C6C7C" transform="translate(0,0)"/>
<path d="" fill="#5C6C7C" transform="translate(0,0)"/>
<path d="" fill="#5C6C7C" transform="translate(0,0)"/>
<path d="" fill="#5A6A7B" transform="translate(0,0)"/>
<path d="" fill="#7F1F48" transform="translate(0,0)"/>
<path d="" fill="#576878" transform="translate(0,0)"/>
<path d="" fill="#78848E" transform="translate(0,0)"/>
<path d="" fill="#89515E" transform="translate(0,0)"/>
<path d="" fill="#B6B590" transform="translate(0,0)"/>
<path d="" fill="#B2B39A" transform="translate(0,0)"/>
<path d="" fill="#7F1F48" transform="translate(0,0)"/>
<path d="" fill="#58697A" transform="translate(0,0)"/>
<path d="" fill="#904E6D" transform="translate(0,0)"/>
<path d="" fill="#7F1F48" transform="translate(0,0)"/>
<path d="" fill="#7F1F48" transform="translate(0,0)"/>
<path d="" fill="#7F1F48" transform="translate(0,0)"/>
<path d="" fill="#5B6979" transform="translate(0,0)"/>
<path d="" fill="#5C6C7C" transform="translate(0,0)"/>
<path d="" fill="#8F654D" transform="translate(0,0)"/>
<path d="" fill="#7D3057" transform="translate(0,0)"/>
<path d="" fill="#8F7552" transform="translate(0,0)"/>
<path d="" fill="#95815B" transform="translate(0,0)"/>
<path d="" fill="#FFFDFF" transform="translate(0,0)"/>
<path d="" fill="#FCFDFE" transform="translate(0,0)"/>
<path d="" fill="#B2B39A" transform="translate(0,0)"/>
<path d="" fill="#F3F1F5" transform="translate(0,0)"/>
<path d="" fill="#888688" transform="translate(0,0)"/>
<path d="" fill="#858484" transform="translate(0,0)"/>
<path d="" fill="#858588" transform="translate(0,0)"/>
<path d="" fill="#F4F1F3" transform="translate(0,0)"/>
<path d="" fill="#8292A0" transform="translate(0,0)"/>
<path d="" fill="#B3B590" transform="translate(0,0)"/>
<path d="" fill="#B3B590" transform="translate(0,0)"/>
<path d="" fill="#878787" transform="translate(0,0)"/>
<path d="" fill="#F3EBE3" transform="translate(0,0)"/>
<path d="" fill="#858783" transform="translate(0,0)"/>
<path d="" fill="#5CB2EE" transform="translate(0,0)"/>
<path d="" fill="#63B5EF" transform="translate(0,0)"/>
<path d="" fill="#F3F1F5" transform="translate(0,0)"/>
<path d="" fill="#FFFFFF" transform="translate(0,0)"/>
<path d="" fill="#FFFFFF" transform="translate(0,0)"/>
<path d="" fill="#F3F1F5" transform="translate(0,0)"/>
<path d="" fill="#FAFAFA" transform="translate(0,0)"/>
<path d="" fill="#F3F1F5" transform="translate(0,0)"/>
<path d="" fill="#F3F1F5" transform="translate(0,0)"/>
<path d="" fill="#E9E9EA" transform="translate(0,0)"/>
<path d="" fill="#E4E2E1" transform="translate(0,0)"/>
<path d="" fill="#5DB2EE" transform="translate(0,0)"/>
<path d="" fill="#F3F1F5" transform="translate(0,0)"/>
<path d="" fill="#FCFDFE" transform="translate(0,0)"/>
<path d="" fill="#C7C6C8" transform="translate(0,0)"/>
<path d="" fill="#C7C6C8" transform="translate(0,0)"/>
<path d="" fill="#9ACBE8" transform="translate(0,0)"/>
<path d="" fill="#FFFDFF" transform="translate(0,0)"/>
<path d="" fill="#D1D9E2" transform="translate(0,0)"/>
<path d="" fill="#6EBAF0" transform="translate(0,0)"/>
<path d="" fill="#FFFDFD" transform="translate(0,0)"/>
<path d="" fill="#BCBEC6" transform="translate(0,0)"/>
<path d="" fill="#D2D8DB" transform="translate(0,0)"/>
<path d="" fill="#5CB2EE" transform="translate(0,0)"/>
<path d="" fill="#60B2ED" transform="translate(0,0)"/>
<path d="" fill="#6AB1E1" transform="translate(0,0)"/>
<path d="" fill="#63B5EF" transform="translate(0,0)"/>
<path d="" fill="#FFFDFF" transform="translate(0,0)"/>
<path d="" fill="#888688" transform="translate(0,0)"/>
<path d="" fill="#858588" transform="translate(0,0)"/>
<path d="" fill="#D6DEE1" transform="translate(0,0)"/>
<path d="" fill="#888688" transform="translate(0,0)"/>
<path d="" fill="#888688" transform="translate(0,0)"/>
<path d="" fill="#D1D9E2" transform="translate(0,0)"/>
<path d="" fill="#5DB2EE" transform="translate(0,0)"/>
<path d="" fill="#5AB3EE" transform="translate(0,0)"/>
<path d="" fill="#60B2ED" transform="translate(0,0)"/>
<path d="" fill="#60B2ED" transform="translate(0,0)"/>
<path d="" fill="#60B2ED" transform="translate(0,0)"/>
<path d="" fill="#858588" transform="translate(0,0)"/>
<path d="" fill="#60B2ED" transform="translate(0,0)"/>
<path d="" fill="#63B5EF" transform="translate(0,0)"/>
<path d="" fill="#6EBAF0" transform="translate(0,0)"/>
<path d="" fill="#96D3FC" transform="translate(0,0)"/>
<path d="" fill="#A0E4FE" transform="translate(0,0)"/>
<path d="" fill="#F4F1F3" transform="translate(0,0)"/>
<path d="" fill="#F3F1F5" transform="translate(0,0)"/>
<path d="" fill="#F4F1F3" transform="translate(0,0)"/>
<path d="" fill="#F4F1F3" transform="translate(0,0)"/>
<path d="" fill="#F3F1F5" transform="translate(0,0)"/>
<path d="" fill="#F4F1F3" transform="translate(0,0)"/>
<path d="" fill="#F4F1F3" transform="translate(0,0)"/>
<path d="" fill="#60B2ED" transform="translate(0,0)"/>
<path d="" fill="#F4F1F3" transform="translate(0,0)"/>
<path d="" fill="#5DB2EE" transform="translate(0,0)"/>
<path d="" fill="#63B5EF" transform="translate(0,0)"/>
<path d="" fill="#FFFDFF" transform="translate(0,0)"/>
<path d="" fill="#EED7C9" transform="translate(0,0)"/>
<path d="" fill="#5AB3EE" transform="translate(0,0)"/>
<path d="" fill="#2C2C30" transform="translate(0,0)"/>
<path d="" fill="#181818" transform="translate(0,0)"/>
<path d="" fill="#2E2D30" transform="translate(0,0)"/>
<path d="" fill="#2E2E30" transform="translate(0,0)"/>
<path d="" fill="#FCFDFE" transform="translate(0,0)"/>
<path d="" fill="#5DB2EE" transform="translate(0,0)"/>
<path d="" fill="#888688" transform="translate(0,0)"/>
<path d="" fill="#17181C" transform="translate(0,0)"/>
<path d="" fill="#FFFDFF" transform="translate(0,0)"/>
<path d="" fill="#2C2C30" transform="translate(0,0)"/>
<path d="" fill="#63B5EF" transform="translate(0,0)"/>
<path d="" fill="#EED7C9" transform="translate(0,0)"/>
<path d="" fill="#8F7552" transform="translate(0,0)"/>
<path d="" fill="#9B825C" transform="translate(0,0)"/>
<path d="" fill="#95815B" transform="translate(0,0)"/>
<path d="" fill="#858588" transform="translate(0,0)"/>
<path d="" fill="#2E2D30" transform="translate(0,0)"/>
<path d="" fill="#131211" transform="translate(0,0)"/>
<path d="" fill="#95815B" transform="translate(0,0)"/>
<path d="" fill="#8F7552" transform="translate(0,0)"/>
<path d="" fill="#FFFDFF" transform="translate(0,0)"/>
<path d="" fill="#FFFDFF" transform="translate(0,0)"/>
<path d="" fill="#FFFDFF" transform="translate(0,0)"/>
<path d="" fill="#FAFAFA" transform="translate(0,0)"/>
<path d="" fill="#ABACAC" transform="translate(0,0)"/>
<path d="" fill="#FFFDFF" transform="translate(0,0)"/>
<path d="" fill="#FCFDFE" transform="translate(0,0)"/>
<path d="" fill="#FFFDFF" transform="translate(0,0)"/>
<path d="" fill="#323338" transform="translate(0,0)"/>
<path d="" fill="#FCFDFE" transform="translate(0,0)"/>
<path d="" fill="#B3B3B3" transform="translate(0,0)"/>
<path d="" fill="#686769" transform="translate(0,0)"/>
<path d="" fill="#E6BA9B" transform="translate(0,0)"/>
<path d="" fill="#E5BA96" transform="translate(0,0)"/>
<path d="" fill="#EAC497" transform="translate(0,0)"/>
<path d="" fill="#E6BA9B" transform="translate(0,0)"/>
<path d="" fill="#6C4E39" transform="translate(0,0)"/>
<path d="" fill="#897051" transform="translate(0,0)"/>
<path d="" fill="#D3AF8F" transform="translate(0,0)"/>
</svg>
