<?xml version="1.0" encoding="UTF-8"?>
<svg version="1.1" xmlns="http://www.w3.org/2000/svg" width="581" height="240">
<path d="M0 0 C1.65 0 3.3 0 5 0 C5.33 1.32 5.66 2.64 6 4 C6.33 2.68 6.66 1.36 7 0 C8.32 0 9.64 0 11 0 C11 1.65 11 3.3 11 5 C10.34 5 9.68 5 9 5 C9 6.65 9 8.3 9 10 C9.99 9.34 10.98 8.68 12 8 C12.33 9.98 12.66 11.96 13 14 C14.98491642 13.73323796 14.98491642 13.73323796 17 13 C17.33 12.01 17.66 11.02 18 10 C19.98 10 21.96 10 24 10 C24 11.98 24 13.96 24 16 C22.39796533 16.36368892 20.79325797 16.71561952 19.1875 17.0625 C17.84751953 17.35833984 17.84751953 17.35833984 16.48046875 17.66015625 C14 18 14 18 11 17 C11 17.66 11 18.32 11 19 C12.32 19 13.64 19 15 19 C15 19.66 15 20.32 15 21 C17.31 21.66 19.62 22.32 22 23 C21.505 25.475 21.505 25.475 21 28 C20.34 28 19.68 28 19 28 C18.67 28.66 18.34 29.32 18 30 C17.34 30.66 16.68 31.32 16 32 C17.98 32.33 19.96 32.66 22 33 C21.34 33.99 20.68 34.98 20 36 C20.495 36.86625 20.495 36.86625 21 37.75 C22 40 22 40 22 44 C18.30458414 44.95024979 15.69541586 44.95024979 12 44 C12.33 44.99 12.66 45.98 13 47 C11.515 47.495 11.515 47.495 10 48 C9.33333333 46 8.66666667 44 8 42 C6.02 42.495 6.02 42.495 4 43 C3.67 42.01 3.34 41.02 3 40 C2.34 39.34 1.68 38.68 1 38 C2.32 35.69 3.64 33.38 5 31 C4.01 30.67 3.02 30.34 2 30 C1.67 29.34 1.34 28.68 1 28 C1.66 28 2.32 28 3 28 C2.34 27.01 1.68 26.02 1 25 C-1.0790948 24.78733898 -1.0790948 24.78733898 -3.375 25.0625 C-6.78086693 25.17786001 -7.69105258 25.20596494 -10.625 23.25 C-12 21 -12 21 -11.625 19 C-11.41875 18.34 -11.2125 17.68 -11 17 C-11.350625 16.360625 -11.70125 15.72125 -12.0625 15.0625 C-13 13 -13 13 -12.125 10.25 C-11.75375 9.5075 -11.3825 8.765 -11 8 C-10.34 8 -9.68 8 -9 8 C-8.67 7.01 -8.34 6.02 -8 5 C-7.67 5.66 -7.34 6.32 -7 7 C-6.67 6.34 -6.34 5.68 -6 5 C-4.02477154 3.95191959 -2.02518491 2.9479589 0 2 C0 1.34 0 0.68 0 0 Z M0 6 C0 6.66 0 7.32 0 8 C0.66 7.67 1.32 7.34 2 7 C1.34 6.67 0.68 6.34 0 6 Z M-1 14 C0 16 0 16 0 16 Z M3 17 C4 19 4 19 4 19 Z M-1 20 C-1 20.66 -1 21.32 -1 22 C-0.34 21.67 0.32 21.34 1 21 C0.34 20.67 -0.32 20.34 -1 20 Z M13 24 C16.05580974 26.58777208 16.05580974 26.58777208 20 27 C20 26.01 20 25.02 20 24 C17.69 24 15.38 24 13 24 Z M11 35 C11.33 35.66 11.66 36.32 12 37 C12.33 36.34 12.66 35.68 13 35 C12.34 35 11.68 35 11 35 Z M4 36 C5 38 5 38 5 38 Z " fill="#DED6D2" transform="translate(63,74)"/>
<path d="M0 0 C1.65 0 3.3 0 5 0 C5.33 1.32 5.66 2.64 6 4 C6.33 2.68 6.66 1.36 7 0 C8.32 0 9.64 0 11 0 C11 1.65 11 3.3 11 5 C10.34 5 9.68 5 9 5 C9 6.65 9 8.3 9 10 C9.99 9.34 10.98 8.68 12 8 C12.33 9.98 12.66 11.96 13 14 C14.98491642 13.73323796 14.98491642 13.73323796 17 13 C17.33 12.01 17.66 11.02 18 10 C19.98 10 21.96 10 24 10 C24 11.98 24 13.96 24 16 C22.39658445 16.33692785 20.79223445 16.66941093 19.1875 17 C18.29417969 17.185625 17.40085937 17.37125 16.48046875 17.5625 C14 18 14 18 11 18 C11.04125 19.27875 11.0825 20.5575 11.125 21.875 C11.1953125 24.0546875 11.1953125 24.0546875 11 26 C10.34 26.66 9.68 27.32 9 28 C8.79375 27.195625 8.5875 26.39125 8.375 25.5625 C7.92125 24.716875 7.4675 23.87125 7 23 C4.22841653 22.24936281 1.85785481 22 -1 22 C-2.66666667 22 -4.33333333 22 -6 22 C-5.67 21.01 -5.34 20.02 -5 19 C-3.35 19 -1.7 19 0 19 C-2.25740623 16.66475218 -4.2805761 14.81294927 -7 13 C-7 12.34 -7 11.68 -7 11 C-6.34 11 -5.68 11 -5 11 C-5.33 9.02 -5.66 7.04 -6 5 C-4.02 4.01 -2.04 3.02 0 2 C0 1.34 0 0.68 0 0 Z M0 6 C0 6.66 0 7.32 0 8 C0.66 7.67 1.32 7.34 2 7 C1.34 6.67 0.68 6.34 0 6 Z M-1 14 C0 16 0 16 0 16 Z M3 17 C4 19 4 19 4 19 Z " fill="#E8D3C4" transform="translate(63,74)"/>
<path d="M0 0 C0.33 0.66 0.66 1.32 1 2 C1.66 2 2.32 2 3 2 C3 3.32 3 4.64 3 6 C2.34 6 1.68 6 1 6 C3.25740623 8.33524782 5.2805761 10.18705073 8 12 C8 12.66 8 13.32 8 14 C7.195625 14.12375 6.39125 14.2475 5.5625 14.375 C4.716875 14.58125 3.87125 14.7875 3 15 C2.67 15.66 2.34 16.32 2 17 C2.59167969 16.98839844 3.18335938 16.97679688 3.79296875 16.96484375 C8.00231785 16.91677614 11.8922333 16.93993117 16 18 C16 20.31 16 22.62 16 25 C13.69 24.67 11.38 24.34 9 24 C9.66 23.67 10.32 23.34 11 23 C10.34 22.01 9.68 21.02 9 20 C6.9209052 19.78733898 6.9209052 19.78733898 4.625 20.0625 C1.21913307 20.17786001 0.30894742 20.20596494 -2.625 18.25 C-4 16 -4 16 -3.625 14 C-3.41875 13.34 -3.2125 12.68 -3 12 C-3.350625 11.360625 -3.70125 10.72125 -4.0625 10.0625 C-5 8 -5 8 -4.125 5.25 C-3.75375 4.5075 -3.3825 3.765 -3 3 C-2.34 3 -1.68 3 -1 3 C-0.67 2.01 -0.34 1.02 0 0 Z " fill="#9A815D" transform="translate(55,79)"/>
<path d="M0 0 C0.886875 0.309375 1.77375 0.61875 2.6875 0.9375 C5.46709155 1.8290671 8.13136375 2.49377007 11 3 C10.67 3.99 10.34 4.98 10 6 C10 5.34 10 4.68 10 4 C8.68 4 7.36 4 6 4 C6 4.66 6 5.32 6 6 C4 8 4 8 2 9 C2.350625 9.598125 2.70125 10.19625 3.0625 10.8125 C4 13 4 13 3 16 C4.32 16.33 5.64 16.66 7 17 C3.7169902 18.6415049 0.57454967 17.51888624 -3 17 C-3 16.34 -3 15.68 -3 15 C-3.99 14.67 -4.98 14.34 -6 14 C-5.01 13.67 -4.02 13.34 -3 13 C-3 12.01 -3 11.02 -3 10 C-2.68911632 8.32900023 -2.35919668 6.66128463 -2 5 C-2.66 5 -3.32 5 -4 5 C-4 4.34 -4 3.68 -4 3 C-3.01 2.67 -2.02 2.34 -1 2 C-0.67 1.34 -0.34 0.68 0 0 Z M0 8 C1 10 1 10 1 10 Z " fill="#64A7D8" transform="translate(511,144)"/>
<path d="M0 0 C3.34373475 0.55728913 6.03312999 1.35173889 9 3 C9.66 2.34 10.32 1.68 11 1 C13.625 0.875 13.625 0.875 16 1 C13 3 13 3 11 3 C11 3.66 11 4.32 11 5 C12.32 5 13.64 5 15 5 C15 6.65 15 8.3 15 10 C10.38 10 5.76 10 1 10 C0.67 6.7 0.34 3.4 0 0 Z M3 2 C3.99 3.485 3.99 3.485 5 5 C5 4.01 5 3.02 5 2 C4.34 2 3.68 2 3 2 Z " fill="#858285" transform="translate(397,207)"/>
<path d="M0 0 C0.33 0 0.66 0 1 0 C1.66 5.61 2.32 11.22 3 17 C2.01 16.67 1.02 16.34 0 16 C-2.14255793 16.38932856 -2.14255793 16.38932856 -4 17 C-4.33 16.01 -4.66 15.02 -5 14 C-5.66 13.34 -6.32 12.68 -7 12 C-5.68 9.69 -4.36 7.38 -3 5 C-3.99 4.67 -4.98 4.34 -6 4 C-4.02 4 -2.04 4 0 4 C0 2.68 0 1.36 0 0 Z M-4 10 C-3 12 -3 12 -3 12 Z " fill="#63B3EA" transform="translate(71,100)"/>
<path d="M0 0 C2.86331684 0.52060306 5.53522406 1.17167564 8.3125 2.0625 C12.45036388 3.11449929 15.75313177 3.14901292 20 3 C20 4.32 20 5.64 20 7 C17.89651926 7.19504458 15.79217415 7.38078496 13.6875 7.5625 C12.51574219 7.66691406 11.34398437 7.77132812 10.13671875 7.87890625 C7 8 7 8 4 7 C2.8125 4.9375 2.8125 4.9375 2 3 C1.34 3 0.68 3 0 3 C0 2.01 0 1.02 0 0 Z " fill="#E5BA99" transform="translate(161,35)"/>
<path d="M0 0 C1.65 0 3.3 0 5 0 C5.33 1.32 5.66 2.64 6 4 C6.33 2.68 6.66 1.36 7 0 C8.32 0 9.64 0 11 0 C11 1.65 11 3.3 11 5 C10.34 5 9.68 5 9 5 C8.34 6.32 7.68 7.64 7 9 C4.36 8.34 1.72 7.68 -1 7 C-0.67 4.69 -0.34 2.38 0 0 Z " fill="#F9F7F6" transform="translate(63,74)"/>
<path d="M0 0 C1.98828125 -0.328125 1.98828125 -0.328125 4.3125 -0.25 C5.11171875 -0.22421875 5.9109375 -0.1984375 6.734375 -0.171875 C9.21879552 0.01659828 11.58641295 0.37713883 14 1 C14 3.31 14 5.62 14 8 C11.69 7.67 9.38 7.34 7 7 C7.66 6.67 8.32 6.34 9 6 C8.34 5.01 7.68 4.02 7 3 C4.79274927 2.63637182 4.79274927 2.63637182 2.375 2.8125 C1.55773438 2.83957031 0.74046875 2.86664063 -0.1015625 2.89453125 C-1.04128906 2.94673828 -1.04128906 2.94673828 -2 3 C-1.34 2.01 -0.68 1.02 0 0 Z " fill="#95856E" transform="translate(57,96)"/>
<path d="M0 0 C2.31 0 4.62 0 7 0 C6.01 1.485 6.01 1.485 5 3 C5.33 3.5775 5.66 4.155 6 4.75 C7 7 7 7 7 11 C4.6875 11.6875 4.6875 11.6875 2 12 C0.3125 10.8125 0.3125 10.8125 -1 9 C-1.07421875 6.73828125 -1.07421875 6.73828125 -0.6875 4.3125 C-0.56761719 3.50425781 -0.44773437 2.69601563 -0.32421875 1.86328125 C-0.21722656 1.24839844 -0.11023438 0.63351563 0 0 Z " fill="#CFD5D9" transform="translate(78,107)"/>
<path d="M0 0 C0.99 0.33 1.98 0.66 3 1 C3.125 8.75 3.125 8.75 2 11 C2.66 11 3.32 11 4 11 C3.67 11.66 3.34 12.32 3 13 C2.01 13 1.02 13 0 13 C0.33 13.99 0.66 14.98 1 16 C0.01 16.33 -0.98 16.66 -2 17 C-2.33 16.01 -2.66 15.02 -3 14 C-3.33 13.34 -3.66 12.68 -4 12 C-3.01 12 -2.02 12 -1 12 C-1 11.0925 -1 10.185 -1 9.25 C-1 2 -1 2 0 0 Z " fill="#EDD9CD" transform="translate(75,105)"/>
<path d="M0 0 C1.98 0 3.96 0 6 0 C6 1.98 6 3.96 6 6 C4.42074025 6.39180108 2.83631206 6.76280736 1.25 7.125 C0.36828125 7.33382812 -0.5134375 7.54265625 -1.421875 7.7578125 C-4.32875493 8.03088304 -5.56661348 7.53508028 -8 6 C-5.66785852 4.79371992 -3.50357861 3.8345262 -1 3 C-0.67 2.01 -0.34 1.02 0 0 Z " fill="#969696" transform="translate(81,84)"/>
<path d="M0 0 C1.6415049 3.2830098 0.51888624 6.42545033 0 10 C-0.61875 9.814375 -1.2375 9.62875 -1.875 9.4375 C-4.04160178 8.76313824 -4.04160178 8.76313824 -6 10 C-5.67 7.36 -5.34 4.72 -5 2 C-3.35 1.34 -1.7 0.68 0 0 Z " fill="#5B6B7B" transform="translate(412,141)"/>
<path d="M0 0 C3.3 0 6.6 0 10 0 C9.67 1.65 9.34 3.3 9 5 C8.34 5 7.68 5 7 5 C6.67 5.66 6.34 6.32 6 7 C4.35 6.67 2.7 6.34 1 6 C0.67 4.02 0.34 2.04 0 0 Z M1 1 C4.05580974 3.58777208 4.05580974 3.58777208 8 4 C8 3.01 8 2.02 8 1 C5.69 1 3.38 1 1 1 Z " fill="#75BBEB" transform="translate(75,97)"/>
<path d="M0 0 C6.93 0 13.86 0 21 0 C21.33 0.66 21.66 1.32 22 2 C21.40985107 1.99476318 20.81970215 1.98952637 20.21166992 1.98413086 C17.53695745 1.96333953 14.86226199 1.95033299 12.1875 1.9375 C10.7943457 1.92493164 10.7943457 1.92493164 9.37304688 1.91210938 C8.48037109 1.90888672 7.58769531 1.90566406 6.66796875 1.90234375 C5.84578857 1.89710693 5.0236084 1.89187012 4.17651367 1.88647461 C1.81827404 1.91258476 1.81827404 1.91258476 -1 3 C-0.67 2.01 -0.34 1.02 0 0 Z " fill="#181819" transform="translate(57,225)"/>
<path d="M0 0 C3.63 0 7.26 0 11 0 C11 0.99 11 1.98 11 3 C8.36 2.67 5.72 2.34 3 2 C2.67 2.66 2.34 3.32 2 4 C1.01 3.67 0.02 3.34 -1 3 C-0.67 2.01 -0.34 1.02 0 0 Z " fill="#171719" transform="translate(64,230)"/>
<path d="M0 0 C2.1519437 3.22791555 2.20086443 4.28400809 2 8 C1.01 8.33 0.02 8.66 -1 9 C-1.99 8.01 -2.98 7.02 -4 6 C-2.68 4.02 -1.36 2.04 0 0 Z " fill="#937B57" transform="translate(55,89)"/>
<path d="M0 0 C3.63 0 7.26 0 11 0 C11.33 0.66 11.66 1.32 12 2 C7.95858806 2.63394697 4.0934693 3.12404452 0 3 C0 2.01 0 1.02 0 0 Z " fill="#5E6D7D" transform="translate(410,124)"/>
<path d="M0 0 C2.64 0 5.28 0 8 0 C8 0.99 8 1.98 8 3 C5.03 3 2.06 3 -1 3 C-0.67 2.01 -0.34 1.02 0 0 Z " fill="#72777E" transform="translate(388,204)"/>
<path d="M0 0 C0.78375 0.185625 1.5675 0.37125 2.375 0.5625 C4.97089775 1.25962266 4.97089775 1.25962266 7 0 C8.99960012 -0.039992 11.00047242 -0.04346799 13 0 C9.46167734 2.1229936 6.078954 2.62231907 2 3 C1.34 2.67 0.68 2.34 0 2 C0 1.34 0 0.68 0 0 Z " fill="#E1DED4" transform="translate(523,194)"/>
<path d="M0 0 C1.65 1.65 3.3 3.3 5 5 C4.67 5.66 4.34 6.32 4 7 C1.5625 6.1875 1.5625 6.1875 -1 5 C-1.33 4.01 -1.66 3.02 -2 2 C-1.34 2 -0.68 2 0 2 C0 1.34 0 0.68 0 0 Z " fill="#CCB499" transform="translate(58,83)"/>
<path d="M0 0 C0.99 0.99 1.98 1.98 3 3 C2.67 3.99 2.34 4.98 2 6 C3.32 6.33 4.64 6.66 6 7 C4 8 4 8 0.875 7.0625 C-0.07375 6.711875 -1.0225 6.36125 -2 6 C-1.34 4.02 -0.68 2.04 0 0 Z " fill="#C2D6E1" transform="translate(512,154)"/>
<path d="M0 0 C2 3 2 3 2 7 C-0.475 6.01 -0.475 6.01 -3 5 C-3 3.68 -3 2.36 -3 1 C-2.01 0.67 -1.02 0.34 0 0 Z " fill="#6BB7EB" transform="translate(83,111)"/>
<path d="M0 0 C2.75 0.8125 2.75 0.8125 5 2 C4 4 4 4 2.1875 4.75 C-0.49828639 5.05694702 -1.7252187 4.38111722 -4 3 C-2.3125 1.375 -2.3125 1.375 0 0 Z " fill="#5C6B7B" transform="translate(401,131)"/>
<path d="M0 0 C1.0625 1.8125 1.0625 1.8125 2 4 C1.67 4.99 1.34 5.98 1 7 C-0.98 5.35 -2.96 3.7 -5 2 C-2 0 -2 0 0 0 Z " fill="#9F8767" transform="translate(62,78)"/>
<path d="M0 0 C0 1.98 0 3.96 0 6 C-0.99 6.495 -0.99 6.495 -2 7 C-2.99 6.01 -3.98 5.02 -5 4 C-1.125 0 -1.125 0 0 0 Z " fill="#9D9A98" transform="translate(75,82)"/>
<path d="M0 0 C0.33 0.66 0.66 1.32 1 2 C1.99 2.33 2.98 2.66 4 3 C3.67 3.99 3.34 4.98 3 6 C1.68 5.67 0.36 5.34 -1 5 C-0.67 3.35 -0.34 1.7 0 0 Z " fill="#ACACAE" transform="translate(146,162)"/>
<path d="M0 0 C2.31 0 4.62 0 7 0 C6.34 1.32 5.68 2.64 5 4 C3.68 4 2.36 4 1 4 C0.67 2.68 0.34 1.36 0 0 Z " fill="#63B1E7" transform="translate(78,107)"/>
<path d="M0 0 C0.33 0 0.66 0 1 0 C1 2.31 1 4.62 1 7 C-0.32 7 -1.64 7 -3 7 C-3 6.34 -3 5.68 -3 5 C-3.99 4.67 -4.98 4.34 -6 4 C-4.02 4 -2.04 4 0 4 C0 2.68 0 1.36 0 0 Z " fill="#A0D2EE" transform="translate(71,100)"/>
<path d="M0 0 C1.65 0 3.3 0 5 0 C5 1.65 5 3.3 5 5 C3.68 4.67 2.36 4.34 1 4 C0.67 2.68 0.34 1.36 0 0 Z " fill="#6AA8D1" transform="translate(65,98)"/>
<path d="M0 0 C0.33 0 0.66 0 1 0 C1 2.64 1 5.28 1 8 C0.34 8 -0.32 8 -1 8 C-1 7.34 -1 6.68 -1 6 C-1.99 5.67 -2.98 5.34 -4 5 C-3.01 4.67 -2.02 4.34 -1 4 C-1 3.01 -1 2.02 -1 1 C-0.67 0.67 -0.34 0.34 0 0 Z " fill="#C3CED7" transform="translate(509,153)"/>
<path d="M0 0 C0.33 0.66 0.66 1.32 1 2 C0.34 2 -0.32 2 -1 2 C-1 2.66 -1 3.32 -1 4 C-2.65 4 -4.3 4 -6 4 C-5.67 3.01 -5.34 2.02 -5 1 C-3.35 0.67 -1.7 0.34 0 0 Z " fill="#D3BCA1" transform="translate(63,92)"/>
<path d="M0 0 C2.475 0.495 2.475 0.495 5 1 C5 1.66 5 2.32 5 3 C5.66 3.33 6.32 3.66 7 4 C5.35 4.33 3.7 4.66 2 5 C1.34 3.35 0.68 1.7 0 0 Z " fill="#FCFAF8" transform="translate(73,92)"/>
<path d="M0 0 C0.33 0.99 0.66 1.98 1 3 C0.01 4.485 0.01 4.485 -1 6 C-2.32 5.67 -3.64 5.34 -5 5 C-5 4.34 -5 3.68 -5 3 C-4.360625 2.87625 -3.72125 2.7525 -3.0625 2.625 C-2.0415625 2.315625 -2.0415625 2.315625 -1 2 C-0.67 1.34 -0.34 0.68 0 0 Z " fill="#9ED0F3" transform="translate(520,150)"/>
<path d="M0 0 C2.97 0 5.94 0 9 0 C9.33 0.66 9.66 1.32 10 2 C7.03 2 4.06 2 1 2 C0.67 1.34 0.34 0.68 0 0 Z " fill="#181819" transform="translate(76,230)"/>
<path d="M0 0 C0.33 0.66 0.66 1.32 1 2 C-3.62 2 -8.24 2 -13 2 C-13 1.67 -13 1.34 -13 1 C-6.565 0.505 -6.565 0.505 0 0 Z " fill="#181819" transform="translate(49,222)"/>
<path d="M0 0 C-3.4019487 2.09350689 -6.05272412 2.17942163 -10 2 C-6.80505194 -1.19494806 -4.22040044 -1.35655728 0 0 Z " fill="#5FB3EE" transform="translate(83,142)"/>
<path d="M0 0 C0.99 0.33 1.98 0.66 3 1 C3.99 0.67 4.98 0.34 6 0 C6.33 0.99 6.66 1.98 7 3 C4 4 4 4 1.8125 3.0625 C1.214375 2.711875 0.61625 2.36125 0 2 C0 1.34 0 0.68 0 0 Z " fill="#93C7ED" transform="translate(58,138)"/>
<path d="M0 0 C2.475 0.495 2.475 0.495 5 1 C4.67 1.99 4.34 2.98 4 4 C1.9375 4.6875 1.9375 4.6875 0 5 C0 3.33333333 0 1.66666667 0 0 Z " fill="#62707E" transform="translate(412,200)"/>
<path d="M0 0 C4.29 0 8.58 0 13 0 C13 0.33 13 0.66 13 1 C8.71 1 4.42 1 0 1 C0 0.67 0 0.34 0 0 Z " fill="#181819" transform="translate(36,218)"/>
<path d="M0 0 C0 0.66 0 1.32 0 2 C-1.65 2 -3.3 2 -5 2 C-5 2.66 -5 3.32 -5 4 C-5.66 3.67 -6.32 3.34 -7 3 C-7 2.34 -7 1.68 -7 1 C-4.50935112 0.31292445 -2.62113708 0 0 0 Z " fill="#823659" transform="translate(376,193)"/>
<path d="M0 0 C0.99 1.32 1.98 2.64 3 4 C2.01 5.485 2.01 5.485 1 7 C0.34 7 -0.32 7 -1 7 C-0.67 4.69 -0.34 2.38 0 0 Z " fill="#5B6B7B" transform="translate(402,190)"/>
<path d="M0 0 C1.32 1.32 2.64 2.64 4 4 C2.68 4.33 1.36 4.66 0 5 C0 3.33333333 0 1.66666667 0 0 Z " fill="#627181" transform="translate(414,135)"/>
<path d="M0 0 C2.64 0 5.28 0 8 0 C8.33 0.66 8.66 1.32 9 2 C6.03 1.67 3.06 1.34 0 1 C0 0.67 0 0.34 0 0 Z " fill="#707077" transform="translate(427,205)"/>
<path d="M0 0 C2.31 0 4.62 0 7 0 C7.33 0.66 7.66 1.32 8 2 C5.03 2 2.06 2 -1 2 C-0.67 1.34 -0.34 0.68 0 0 Z " fill="#F2F1EF" transform="translate(515,194)"/>
<path d="M0 0 C1.32 0.66 2.64 1.32 4 2 C2.02 2.99 2.02 2.99 0 4 C-0.66 3.34 -1.32 2.68 -2 2 C-1.34 1.34 -0.68 0.68 0 0 Z " fill="#812D52" transform="translate(369,189)"/>
<path d="M0 0 C0.66 0.33 1.32 0.66 2 1 C2 1.99 2 2.98 2 4 C0.68 4 -0.64 4 -2 4 C-2.33 3.01 -2.66 2.02 -3 1 C-2.01 0.67 -1.02 0.34 0 0 Z " fill="#5B6A7A" transform="translate(394,188)"/>
<path d="M0 0 C0.66 0.99 1.32 1.98 2 3 C0.02 3.33 -1.96 3.66 -4 4 C-3.67 3.01 -3.34 2.02 -3 1 C-2.01 0.67 -1.02 0.34 0 0 Z " fill="#66B4E9" transform="translate(78,128)"/>
<path d="M0 0 C1.32 0.33 2.64 0.66 4 1 C3.34 2.32 2.68 3.64 2 5 C2 4.34 2 3.68 2 3 C1.34 2.67 0.68 2.34 0 2 C0 1.34 0 0.68 0 0 Z " fill="#ECD7C7" transform="translate(51,100)"/>
<path d="M0 0 C1.32 0.66 2.64 1.32 4 2 C2.02 2.99 2.02 2.99 0 4 C-0.33 3.34 -0.66 2.68 -1 2 C-0.67 1.34 -0.34 0.68 0 0 Z " fill="#5A6A7B" transform="translate(380,200)"/>
<path d="M0 0 C1.32 0.33 2.64 0.66 4 1 C3.01 2.485 3.01 2.485 2 4 C1.34 3.67 0.68 3.34 0 3 C0 2.01 0 1.02 0 0 Z " fill="#706F74" transform="translate(571,101)"/>
<path d="M0 0 C2.97 0 5.94 0 9 0 C9 0.33 9 0.66 9 1 C6.03 1 3.06 1 0 1 C0 0.67 0 0.34 0 0 Z " fill="#181819" transform="translate(39,226)"/>
<path d="M0 0 C0.33 0 0.66 0 1 0 C1 2.97 1 5.94 1 9 C0.67 9 0.34 9 0 9 C0 6.03 0 3.06 0 0 Z " fill="#858588" transform="translate(425,208)"/>
<path d="M0 0 C0.33 0 0.66 0 1 0 C1 2.97 1 5.94 1 9 C0.67 9 0.34 9 0 9 C0 6.03 0 3.06 0 0 Z " fill="#858588" transform="translate(423,208)"/>
<path d="M0 0 C0.66 0.99 1.32 1.98 2 3 C0.35 3.33 -1.3 3.66 -3 4 C-2.01 2.68 -1.02 1.36 0 0 Z " fill="#72757D" transform="translate(420,203)"/>
<path d="M0 0 C1.32 0.33 2.64 0.66 4 1 C3.01 2.485 3.01 2.485 2 4 C1.34 2.68 0.68 1.36 0 0 Z " fill="#615B70" transform="translate(377,190)"/>
<path d="M0 0 C1.65 0 3.3 0 5 0 C5.33 0.99 5.66 1.98 6 3 C5.34 3 4.68 3 4 3 C4 2.34 4 1.68 4 1 C2.68 0.67 1.36 0.34 0 0 Z " fill="#A5D1F1" transform="translate(530,147)"/>
<path d="M0 0 C2.64 0 5.28 0 8 0 C7.67 0.66 7.34 1.32 7 2 C4.69 1.67 2.38 1.34 0 1 C0 0.67 0 0.34 0 0 Z " fill="#5FB3EE" transform="translate(77,146)"/>
<path d="M0 0 C0.66 0.33 1.32 0.66 2 1 C1.01 1.99 0.02 2.98 -1 4 C-1 1 -1 1 0 0 Z " fill="#5F6376" transform="translate(401,202)"/>
<path d="M0 0 C1.98 0.99 1.98 0.99 4 2 C3.01 2.66 2.02 3.32 1 4 C0.67 2.68 0.34 1.36 0 0 Z " fill="#6A7885" transform="translate(403,199)"/>
<path d="M0 0 C1.98 0 3.96 0 6 0 C6 0.66 6 1.32 6 2 C3.03 1.505 3.03 1.505 0 1 C0 0.67 0 0.34 0 0 Z " fill="#5FB3EE" transform="translate(58,145)"/>
<path d="M0 0 C2.31 0 4.62 0 7 0 C5.02 0.99 5.02 0.99 3 2 C2.01 1.34 1.02 0.68 0 0 Z " fill="#5D6D7D" transform="translate(416,141)"/>
<path d="M0 0 C1.9375 0.3125 1.9375 0.3125 4 1 C4.33 1.99 4.66 2.98 5 4 C4.34 4 3.68 4 3 4 C1.375 2 1.375 2 0 0 Z " fill="#5A6A7B" transform="translate(399,127)"/>
<path d="M0 0 C1.32 0 2.64 0 4 0 C3.67 0.66 3.34 1.32 3 2 C1.68 1.67 0.36 1.34 -1 1 C-0.67 0.67 -0.34 0.34 0 0 Z " fill="#7B7F83" transform="translate(577,101)"/>
<path d="M0 0 C2.31 0 4.62 0 7 0 C7 0.33 7 0.66 7 1 C4.69 1 2.38 1 0 1 C0 0.67 0 0.34 0 0 Z " fill="#181819" transform="translate(54,230)"/>
<path d="M0 0 C0.99 0.495 0.99 0.495 2 1 C2 1.99 2 2.98 2 4 C1.34 4 0.68 4 0 4 C0 2.68 0 1.36 0 0 Z " fill="#F5F4F5" transform="translate(148,168)"/>
<path d="M0 0 C0.99 0.33 1.98 0.66 3 1 C2.34 1 1.68 1 1 1 C1 1.66 1 2.32 1 3 C0.34 3 -0.32 3 -1 3 C-0.67 2.01 -0.34 1.02 0 0 Z " fill="#B9B79D" transform="translate(504,162)"/>
<path d="M0 0 C0.33 0.66 0.66 1.32 1 2 C1.99 2.33 2.98 2.66 4 3 C3.01 3.495 3.01 3.495 2 4 C1.34 3.67 0.68 3.34 0 3 C0 2.01 0 1.02 0 0 Z " fill="#63717F" transform="translate(404,136)"/>
<path d="M0 0 C0.99 0 1.98 0 3 0 C3 0.99 3 1.98 3 3 C2.34 3 1.68 3 1 3 C0.67 2.01 0.34 1.02 0 0 Z " fill="#FBFBFA" transform="translate(87,138)"/>
<path d="M0 0 C0.66 0.99 1.32 1.98 2 3 C1.01 3.66 0.02 4.32 -1 5 C-0.67 3.35 -0.34 1.7 0 0 Z " fill="#E7E4E1" transform="translate(74,125)"/>
<path d="M0 0 C0.66 0.66 1.32 1.32 2 2 C0.02 2 -1.96 2 -4 2 C-2.68 1.34 -1.36 0.68 0 0 Z " fill="#5A6979" transform="translate(403,122)"/>
<path d="M0 0 C1.485 0.99 1.485 0.99 3 2 C1.68 2 0.36 2 -1 2 C-0.67 1.34 -0.34 0.68 0 0 Z " fill="#5EB2EE" transform="translate(83,103)"/>
<path d="M0 0 C0.99 0 1.98 0 3 0 C2.67 0.99 2.34 1.98 2 3 C1.34 2.01 0.68 1.02 0 0 Z " fill="#76737B" transform="translate(423,205)"/>
<path d="M0 0 C0.66 0 1.32 0 2 0 C2 0.99 2 1.98 2 3 C1.34 3 0.68 3 0 3 C0 2.01 0 1.02 0 0 Z " fill="#845E70" transform="translate(372,206)"/>
<path d="M0 0 C1.32 0 2.64 0 4 0 C4 0.66 4 1.32 4 2 C2.68 1.34 1.36 0.68 0 0 Z " fill="#873F5C" transform="translate(372,177)"/>
<path d="M0 0 C0.66 0 1.32 0 2 0 C2.33 0.99 2.66 1.98 3 3 C2.01 2.67 1.02 2.34 0 2 C0 1.34 0 0.68 0 0 Z " fill="#6CB9EE" transform="translate(522,150)"/>
<path d="M0 0 C0.33 0 0.66 0 1 0 C1 1.98 1 3.96 1 6 C0.67 6 0.34 6 0 6 C0 4.02 0 2.04 0 0 Z " fill="#5C6C7C" transform="translate(413,143)"/>
<path d="M0 0 C0.66 0 1.32 0 2 0 C2 0.99 2 1.98 2 3 C1.34 3 0.68 3 0 3 C0 2.01 0 1.02 0 0 Z " fill="#5A6A7A" transform="translate(416,132)"/>
<path d="M0 0 C1.485 0.99 1.485 0.99 3 2 C2.01 2.495 2.01 2.495 1 3 C0.34 2.34 -0.32 1.68 -1 1 C-0.67 0.67 -0.34 0.34 0 0 Z " fill="#607080" transform="translate(398,128)"/>
<path d="M0 0 C0.66 0.33 1.32 0.66 2 1 C2 1.66 2 2.32 2 3 C1.01 2.67 0.02 2.34 -1 2 C-0.67 1.34 -0.34 0.68 0 0 Z " fill="#DDEDF6" transform="translate(59,128)"/>
<path d="M0 0 C0.66 0 1.32 0 2 0 C2 0.99 2 1.98 2 3 C1.01 2.67 0.02 2.34 -1 2 C-0.67 1.34 -0.34 0.68 0 0 Z " fill="#A48B6B" transform="translate(57,107)"/>
<path d="M0 0 C0.33 0 0.66 0 1 0 C1 1.98 1 3.96 1 6 C0.67 6 0.34 6 0 6 C0 4.02 0 2.04 0 0 Z " fill="#FFFDFF" transform="translate(89,102)"/>
<path d="M0 0 C2 2 2 2 2 4 C1.34 4 0.68 4 0 4 C0 2.68 0 1.36 0 0 Z " fill="#2D2C30" transform="translate(568,100)"/>
<path d="M0 0 C0.66 0.66 1.32 1.32 2 2 C1.01 2 0.02 2 -1 2 C-0.67 1.34 -0.34 0.68 0 0 Z " fill="#D3D4D4" transform="translate(80,237)"/>
<path d="M0 0 C0.66 0.66 1.32 1.32 2 2 C1.01 2 0.02 2 -1 2 C-0.67 1.34 -0.34 0.68 0 0 Z " fill="#D3D4D4" transform="translate(77,237)"/>
<path d="M0 0 C0.66 0.66 1.32 1.32 2 2 C1.01 2 0.02 2 -1 2 C-0.67 1.34 -0.34 0.68 0 0 Z " fill="#D3D4D4" transform="translate(74,237)"/>
<path d="M0 0 C0.66 0.66 1.32 1.32 2 2 C1.01 2 0.02 2 -1 2 C-0.67 1.34 -0.34 0.68 0 0 Z " fill="#D3D4D4" transform="translate(71,237)"/>
<path d="M0 0 C0.66 0.66 1.32 1.32 2 2 C1.01 2 0.02 2 -1 2 C-0.67 1.34 -0.34 0.68 0 0 Z " fill="#D3D4D4" transform="translate(68,237)"/>
<path d="M0 0 C0.66 0.66 1.32 1.32 2 2 C1.01 2 0.02 2 -1 2 C-0.67 1.34 -0.34 0.68 0 0 Z " fill="#D3D4D4" transform="translate(65,237)"/>
<path d="M0 0 C0.66 0.66 1.32 1.32 2 2 C1.01 2 0.02 2 -1 2 C-0.67 1.34 -0.34 0.68 0 0 Z " fill="#D3D4D4" transform="translate(62,237)"/>
<path d="M0 0 C0.66 0.66 1.32 1.32 2 2 C1.01 2 0.02 2 -1 2 C-0.67 1.34 -0.34 0.68 0 0 Z " fill="#D3D4D4" transform="translate(59,237)"/>
<path d="M0 0 C0.66 0.66 1.32 1.32 2 2 C1.01 2 0.02 2 -1 2 C-0.67 1.34 -0.34 0.68 0 0 Z " fill="#D3D4D4" transform="translate(56,237)"/>
<path d="M0 0 C0.66 0.66 1.32 1.32 2 2 C1.01 2 0.02 2 -1 2 C-0.67 1.34 -0.34 0.68 0 0 Z " fill="#D3D4D4" transform="translate(53,237)"/>
<path d="M0 0 C0.66 0.66 1.32 1.32 2 2 C1.01 2 0.02 2 -1 2 C-0.67 1.34 -0.34 0.68 0 0 Z " fill="#D3D4D4" transform="translate(50,237)"/>
<path d="M0 0 C0.66 0.66 1.32 1.32 2 2 C1.01 2 0.02 2 -1 2 C-0.67 1.34 -0.34 0.68 0 0 Z " fill="#D3D4D4" transform="translate(47,237)"/>
<path d="M0 0 C0.66 0.66 1.32 1.32 2 2 C1.01 2 0.02 2 -1 2 C-0.67 1.34 -0.34 0.68 0 0 Z " fill="#D3D4D4" transform="translate(44,237)"/>
<path d="M0 0 C0.66 0.66 1.32 1.32 2 2 C1.01 2 0.02 2 -1 2 C-0.67 1.34 -0.34 0.68 0 0 Z " fill="#D3D4D4" transform="translate(41,237)"/>
<path d="M0 0 C0.66 0.66 1.32 1.32 2 2 C1.01 2 0.02 2 -1 2 C-0.67 1.34 -0.34 0.68 0 0 Z " fill="#D3D4D4" transform="translate(38,237)"/>
<path d="M0 0 C0.66 0.66 1.32 1.32 2 2 C1.01 2 0.02 2 -1 2 C-0.67 1.34 -0.34 0.68 0 0 Z " fill="#D3D4D4" transform="translate(35,237)"/>
<path d="M0 0 C0.66 0.66 1.32 1.32 2 2 C1.01 2 0.02 2 -1 2 C-0.67 1.34 -0.34 0.68 0 0 Z " fill="#D3D4D4" transform="translate(32,237)"/>
<path d="M0 0 C0.66 0.66 1.32 1.32 2 2 C1.01 2 0.02 2 -1 2 C-0.67 1.34 -0.34 0.68 0 0 Z " fill="#D3D4D4" transform="translate(29,237)"/>
<path d="M0 0 C0.66 0.66 1.32 1.32 2 2 C1.01 2 0.02 2 -1 2 C-0.67 1.34 -0.34 0.68 0 0 Z " fill="#D3D4D4" transform="translate(26,237)"/>
<path d="M0 0 C0.66 0.66 1.32 1.32 2 2 C1.01 2 0.02 2 -1 2 C-0.67 1.34 -0.34 0.68 0 0 Z " fill="#D3D4D4" transform="translate(23,237)"/>
<path d="M0 0 C0.66 0.66 1.32 1.32 2 2 C1.01 2 0.02 2 -1 2 C-0.67 1.34 -0.34 0.68 0 0 Z " fill="#D3D4D4" transform="translate(20,237)"/>
<path d="M0 0 C0.66 0.66 1.32 1.32 2 2 C1.01 2 0.02 2 -1 2 C-0.67 1.34 -0.34 0.68 0 0 Z " fill="#D3D4D4" transform="translate(17,237)"/>
<path d="M0 0 C0.66 0.66 1.32 1.32 2 2 C1.01 2 0.02 2 -1 2 C-0.67 1.34 -0.34 0.68 0 0 Z " fill="#D3D4D4" transform="translate(14,237)"/>
<path d="M0 0 C0.66 0.66 1.32 1.32 2 2 C1.01 2 0.02 2 -1 2 C-0.67 1.34 -0.34 0.68 0 0 Z " fill="#D3D4D4" transform="translate(11,237)"/>
<path d="M0 0 C0.66 0.66 1.32 1.32 2 2 C1.01 2 0.02 2 -1 2 C-0.67 1.34 -0.34 0.68 0 0 Z " fill="#1A1A1B" transform="translate(7,233)"/>
<path d="M0 0 C0.99 0.33 1.98 0.66 3 1 C2.01 1.33 1.02 1.66 0 2 C0 1.34 0 0.68 0 0 Z " fill="#444446" transform="translate(43,229)"/>
<path d="M0 0 C1.32 0.33 2.64 0.66 4 1 C3.01 1.33 2.02 1.66 1 2 C0.67 1.34 0.34 0.68 0 0 Z " fill="#2B2B2D" transform="translate(50,219)"/>
<path d="M0 0 C0.99 0 1.98 0 3 0 C3 0.66 3 1.32 3 2 C2.01 2 1.02 2 0 2 C0 1.34 0 0.68 0 0 Z " fill="#83797F" transform="translate(384,207)"/>
<path d="M0 0 C1.65 0 3.3 0 5 0 C5 0.33 5 0.66 5 1 C3.35 1 1.7 1 0 1 C0 0.67 0 0.34 0 0 Z " fill="#FFFFFF" transform="translate(517,203)"/>
<path d="M0 0 C1.32 0.33 2.64 0.66 4 1 C2.68 1.33 1.36 1.66 0 2 C0 1.34 0 0.68 0 0 Z " fill="#606D7A" transform="translate(390,187)"/>
<path d="M0 0 C0.66 1.32 1.32 2.64 2 4 C1.34 4 0.68 4 0 4 C0 2.68 0 1.36 0 0 Z " fill="#81C7F6" transform="translate(525,147)"/>
<path d="M0 0 C1.65 0 3.3 0 5 0 C5 0.33 5 0.66 5 1 C3.35 1 1.7 1 0 1 C0 0.67 0 0.34 0 0 Z " fill="#60B3EE" transform="translate(65,146)"/>
<path d="M0 0 C0.33 0.66 0.66 1.32 1 2 C1.66 2.33 2.32 2.66 3 3 C2.01 3 1.02 3 0 3 C0 2.01 0 1.02 0 0 Z " fill="#868586" transform="translate(359,143)"/>
<path d="M0 0 C0.99 0 1.98 0 3 0 C3 0.66 3 1.32 3 2 C2.01 1.67 1.02 1.34 0 1 C0 0.67 0 0.34 0 0 Z " fill="#FCFBFA" transform="translate(87,144)"/>
<path d="M0 0 C0.66 0.66 1.32 1.32 2 2 C1.01 2 0.02 2 -1 2 C-0.67 1.34 -0.34 0.68 0 0 Z " fill="#5A6A7B" transform="translate(392,126)"/>
<path d="M0 0 C1.32 0 2.64 0 4 0 C3.67 0.66 3.34 1.32 3 2 C2.01 1.34 1.02 0.68 0 0 Z " fill="#5D6D7D" transform="translate(423,125)"/>
<path d="M0 0 C1.65 0 3.3 0 5 0 C5 0.33 5 0.66 5 1 C3.35 1 1.7 1 0 1 C0 0.67 0 0.34 0 0 Z " fill="#FDFDFE" transform="translate(66,118)"/>
<path d="M0 0 C0.66 0 1.32 0 2 0 C1.67 0.99 1.34 1.98 1 3 C0.67 2.01 0.34 1.02 0 0 Z " fill="#898070" transform="translate(56,113)"/>
<path d="M0 0 C0.66 0.99 1.32 1.98 2 3 C1.01 2.67 0.02 2.34 -1 2 C-0.67 1.34 -0.34 0.68 0 0 Z " fill="#977F59" transform="translate(57,99)"/>
<path d="M0 0 C0.66 0 1.32 0 2 0 C2 0.66 2 1.32 2 2 C1.34 2 0.68 2 0 2 C0 1.34 0 0.68 0 0 Z " fill="#676667" transform="translate(8,236)"/>
<path d="M0 0 C0.33 0.99 0.66 1.98 1 3 C0.34 2.67 -0.32 2.34 -1 2 C-0.67 1.34 -0.34 0.68 0 0 Z " fill="#434347" transform="translate(4,234)"/>
<path d="M0 0 C4 1 4 1 4 1 Z " fill="#141415" transform="translate(81,234)"/>
<path d="M0 0 C1.485 0.99 1.485 0.99 3 2 C2.01 2 1.02 2 0 2 C0 1.34 0 0.68 0 0 Z " fill="#212223" transform="translate(34,227)"/>
<path d="M0 0 C4 1 4 1 4 1 Z " fill="#868587" transform="translate(426,207)"/>
<path d="M0 0 C0.66 0.66 1.32 1.32 2 2 C1.01 1.67 0.02 1.34 -1 1 C-0.67 0.67 -0.34 0.34 0 0 Z " fill="#F4F3F4" transform="translate(532,196)"/>
<path d="M0 0 C0 3 0 3 0 3 Z " fill="#5B6B7B" transform="translate(398,196)"/>
<path d="M0 0 C0.99 0.33 1.98 0.66 3 1 C2.01 1 1.02 1 0 1 C0 0.67 0 0.34 0 0 Z " fill="#B4B495" transform="translate(514,191)"/>
<path d="M0 0 C0.66 0.66 1.32 1.32 2 2 C1.01 1.67 0.02 1.34 -1 1 C-0.67 0.67 -0.34 0.34 0 0 Z " fill="#5D6C7C" transform="translate(384,188)"/>
<path d="M0 0 C0.99 0.33 1.98 0.66 3 1 C2.01 1 1.02 1 0 1 C0 0.67 0 0.34 0 0 Z " fill="#615A70" transform="translate(377,179)"/>
<path d="M0 0 C0.33 0.66 0.66 1.32 1 2 C0.01 1.67 -0.98 1.34 -2 1 C-1.34 0.67 -0.68 0.34 0 0 Z " fill="#AAA98F" transform="translate(512,161)"/>
<path d="M0 0 C0.66 0 1.32 0 2 0 C2 0.66 2 1.32 2 2 C1.34 2 0.68 2 0 2 C0 1.34 0 0.68 0 0 Z " fill="#EDF2F6" transform="translate(529,154)"/>
<path d="M0 0 C0.66 0.66 1.32 1.32 2 2 C1.01 1.67 0.02 1.34 -1 1 C-0.67 0.67 -0.34 0.34 0 0 Z " fill="#838284" transform="translate(357,145)"/>
<path d="M0 0 C0.66 0 1.32 0 2 0 C2 0.66 2 1.32 2 2 C1.34 2 0.68 2 0 2 C0 1.34 0 0.68 0 0 Z " fill="#9D9C9D" transform="translate(354,142)"/>
<path d="M0 0 C0.66 0.66 1.32 1.32 2 2 C1.01 1.67 0.02 1.34 -1 1 C-0.67 0.67 -0.34 0.34 0 0 Z " fill="#5A697A" transform="translate(401,137)"/>
<path d="M0 0 C0.33 0.66 0.66 1.32 1 2 C0.01 1.67 -0.98 1.34 -2 1 C-1.34 0.67 -0.68 0.34 0 0 Z " fill="#667584" transform="translate(410,136)"/>
<path d="M0 0 C0.66 0 1.32 0 2 0 C2 0.66 2 1.32 2 2 C1.34 2 0.68 2 0 2 C0 1.34 0 0.68 0 0 Z " fill="#5A697A" transform="translate(412,133)"/>
<path d="M0 0 C0.66 0 1.32 0 2 0 C2 0.66 2 1.32 2 2 C1.34 2 0.68 2 0 2 C0 1.34 0 0.68 0 0 Z " fill="#FCFBF9" transform="translate(88,133)"/>
<path d="M0 0 C4 1 4 1 4 1 Z " fill="#60B3EE" transform="translate(81,131)"/>
<path d="M0 0 C0.99 0 1.98 0 3 0 C2.67 0.66 2.34 1.32 2 2 C1.34 1.34 0.68 0.68 0 0 Z " fill="#9AA5B1" transform="translate(392,130)"/>
<path d="M0 0 C0.33 0.99 0.66 1.98 1 3 C0.34 2.67 -0.32 2.34 -1 2 C-0.67 1.34 -0.34 0.68 0 0 Z " fill="#EFD7CA" transform="translate(77,119)"/>
<path d="M0 0 C0.99 0.33 1.98 0.66 3 1 C2.01 1.33 1.02 1.66 0 2 C0 1.34 0 0.68 0 0 Z " fill="#2D2C30" transform="translate(555,112)"/>
<path d="M0 0 C4 1 4 1 4 1 Z " fill="#7F8286" transform="translate(574,99)"/>
<path d="M0 0 C0.99 0.33 1.98 0.66 3 1 C2.01 1 1.02 1 0 1 C0 0.67 0 0.34 0 0 Z " fill="#A08973" transform="translate(52,98)"/>
<path d="M0 0 C0.66 0.33 1.32 0.66 2 1 C1.01 1 0.02 1 -1 1 C-0.67 0.67 -0.34 0.34 0 0 Z " fill="#949393" transform="translate(78,83)"/>
<path d="M0 0 C4 1 4 1 4 1 Z " fill="#99805A" transform="translate(56,77)"/>
<path d="M0 0 C3 1 3 1 3 1 Z " fill="#FFFDFF" transform="translate(0,238)"/>
<path d="M0 0 C0.33 0.66 0.66 1.32 1 2 C0.34 1.67 -0.32 1.34 -1 1 C-0.67 0.67 -0.34 0.34 0 0 Z " fill="#151416" transform="translate(46,231)"/>
<path d="M0 0 C0.66 0 1.32 0 2 0 C1.67 0.66 1.34 1.32 1 2 C0.67 1.34 0.34 0.68 0 0 Z " fill="#18181A" transform="translate(86,230)"/>
<path d="M0 0 C3 1 3 1 3 1 Z " fill="#181819" transform="translate(81,220)"/>
<path d="M0 0 C0.33 0.66 0.66 1.32 1 2 C0.34 1.67 -0.32 1.34 -1 1 C-0.67 0.67 -0.34 0.34 0 0 Z " fill="#868588" transform="translate(527,212)"/>
<path d="M0 0 C3 1 3 1 3 1 Z " fill="#969698" transform="translate(563,209)"/>
<path d="M0 0 C0.99 0.495 0.99 0.495 2 1 C1.01 1.495 1.01 1.495 0 2 C0 1.34 0 0.68 0 0 Z " fill="#878586" transform="translate(395,208)"/>
<path d="M0 0 C3 1 3 1 3 1 Z " fill="#7F8083" transform="translate(406,206)"/>
<path d="M0 0 C3 1 3 1 3 1 Z " fill="#7B3859" transform="translate(403,205)"/>
<path d="M0 0 C0.66 0.66 1.32 1.32 2 2 C1.34 2 0.68 2 0 2 C0 1.34 0 0.68 0 0 Z " fill="#812550" transform="translate(374,204)"/>
<path d="M0 0 C3 1 3 1 3 1 Z " fill="#5A6A7B" transform="translate(408,204)"/>
<path d="M0 0 C0.66 0 1.32 0 2 0 C1.67 0.66 1.34 1.32 1 2 C0.67 1.34 0.34 0.68 0 0 Z " fill="#7E1F48" transform="translate(365,204)"/>
<path d="M0 0 C3 1 3 1 3 1 Z " fill="#5D6C7C" transform="translate(423,203)"/>
<path d="M0 0 C0.99 0.495 0.99 0.495 2 1 C1.01 1.495 1.01 1.495 0 2 C0 1.34 0 0.68 0 0 Z " fill="#596A7A" transform="translate(384,203)"/>
<path d="M0 0 C0.33 0.66 0.66 1.32 1 2 C0.34 1.67 -0.32 1.34 -1 1 C-0.67 0.67 -0.34 0.34 0 0 Z " fill="#616E7C" transform="translate(400,200)"/>
<path d="M0 0 C0.66 0.66 1.32 1.32 2 2 C1.34 2 0.68 2 0 2 C0 1.34 0 0.68 0 0 Z " fill="#7E254D" transform="translate(372,198)"/>
<path d="M0 0 C0.66 0.66 1.32 1.32 2 2 C1.34 2 0.68 2 0 2 C0 1.34 0 0.68 0 0 Z " fill="#5B6A7A" transform="translate(385,195)"/>
<path d="M0 0 C0.33 0.66 0.66 1.32 1 2 C0.34 1.67 -0.32 1.34 -1 1 C-0.67 0.67 -0.34 0.34 0 0 Z " fill="#5A6A7B" transform="translate(398,190)"/>
<path d="M0 0 C0.99 0.495 0.99 0.495 2 1 C1.01 1.495 1.01 1.495 0 2 C0 1.34 0 0.68 0 0 Z " fill="#606D7C" transform="translate(386,187)"/>
<path d="M0 0 C3 1 3 1 3 1 Z " fill="#5A6A7B" transform="translate(396,186)"/>
<path d="" fill="#5B6A7A" transform="translate(0,0)"/>
<path d="" fill="#606F7E" transform="translate(0,0)"/>
<path d="M0 0 C0.99 0.495 0.99 0.495 2 1 C1.01 1.495 1.01 1.495 0 2 C0 1.34 0 0.68 0 0 Z " fill="#E5F0F8" transform="translate(525,154)"/>
<path d="M0 0 C0.66 0 1.32 0 2 0 C1.67 0.66 1.34 1.32 1 2 C0.67 1.34 0.34 0.68 0 0 Z " fill="#E4EFF8" transform="translate(521,154)"/>
<path d="" fill="#F9FAFB" transform="translate(0,0)"/>
<path d="" fill="#5C6C7C" transform="translate(0,0)"/>
<path d="M0 0 C0.66 0.66 1.32 1.32 2 2 C1.34 2 0.68 2 0 2 C0 1.34 0 0.68 0 0 Z " fill="#60B3EE" transform="translate(76,139)"/>
<path d="M0 0 C0.33 0.66 0.66 1.32 1 2 C0.34 1.67 -0.32 1.34 -1 1 C-0.67 0.67 -0.34 0.34 0 0 Z " fill="#75BCEC" transform="translate(81,138)"/>
<path d="M0 0 C0.66 0.66 1.32 1.32 2 2 C1.34 2 0.68 2 0 2 C0 1.34 0 0.68 0 0 Z " fill="#848387" transform="translate(361,137)"/>
<path d="M0 0 C0.99 0.495 0.99 0.495 2 1 C1.01 1.495 1.01 1.495 0 2 C0 1.34 0 0.68 0 0 Z " fill="#5E6E7D" transform="translate(396,137)"/>
<path d="M0 0 C0.66 0.66 1.32 1.32 2 2 C1.34 2 0.68 2 0 2 C0 1.34 0 0.68 0 0 Z " fill="#5A697A" transform="translate(407,133)"/>
<path d="M0 0 C0.66 0 1.32 0 2 0 C1.67 0.66 1.34 1.32 1 2 C0.67 1.34 0.34 0.68 0 0 Z " fill="#748899" transform="translate(389,128)"/>
<path d="M0 0 C0.99 0.495 0.99 0.495 2 1 C1.01 1.495 1.01 1.495 0 2 C0 1.34 0 0.68 0 0 Z " fill="#5D6C7D" transform="translate(428,125)"/>
<path d="M0 0 C0.99 0.495 0.99 0.495 2 1 C1.01 1.495 1.01 1.495 0 2 C0 1.34 0 0.68 0 0 Z " fill="#5D6C7D" transform="translate(407,125)"/>
<path d="M0 0 C0.99 0.495 0.99 0.495 2 1 C1.01 1.495 1.01 1.495 0 2 C0 1.34 0 0.68 0 0 Z " fill="#627180" transform="translate(393,124)"/>
<path d="M0 0 C3 1 3 1 3 1 Z " fill="#EFD7C9" transform="translate(74,123)"/>
<path d="M0 0 C3 1 3 1 3 1 Z " fill="#EFEFF0" transform="translate(83,121)"/>
<path d="M0 0 C0.66 0 1.32 0 2 0 C1.67 0.66 1.34 1.32 1 2 C0.67 1.34 0.34 0.68 0 0 Z " fill="#EFEEEF" transform="translate(69,121)"/>
<path d="M0 0 C0.66 0 1.32 0 2 0 C1.67 0.66 1.34 1.32 1 2 C0.67 1.34 0.34 0.68 0 0 Z " fill="#E4E8E8" transform="translate(57,120)"/>
<path d="M0 0 C2 1 2 1 2 1 Z " fill="#555356" transform="translate(1,235)"/>
<path d="M0 0 C2 1 2 1 2 1 Z " fill="#141415" transform="translate(78,234)"/>
<path d="M0 0 C2 1 2 1 2 1 Z " fill="#141415" transform="translate(75,234)"/>
<path d="M0 0 C2 1 2 1 2 1 Z " fill="#141415" transform="translate(72,234)"/>
<path d="M0 0 C2 1 2 1 2 1 Z " fill="#17171A" transform="translate(39,231)"/>
<path d="" fill="#625860" transform="translate(0,0)"/>
<path d="M0 0 C2 1 2 1 2 1 Z " fill="#161516" transform="translate(54,220)"/>
<path d="" fill="#F4F1F3" transform="translate(0,0)"/>
<path d="M0 0 C2 1 2 1 2 1 Z " fill="#858588" transform="translate(404,208)"/>
<path d="M0 0 C2 1 2 1 2 1 Z " fill="#888688" transform="translate(436,205)"/>
<path d="" fill="#7F1F48" transform="translate(0,0)"/>
<path d="" fill="#F5F5F4" transform="translate(0,0)"/>
<path d="" fill="#576879" transform="translate(0,0)"/>
<path d="M0 0 C2 1 2 1 2 1 Z " fill="#7D2850" transform="translate(369,199)"/>
<path d="M0 0 C2 1 2 1 2 1 Z " fill="#7D2850" transform="translate(365,199)"/>
<path d="" fill="#5C6C7C" transform="translate(0,0)"/>
<path d="" fill="#7E204A" transform="translate(0,0)"/>
<path d="M0 0 C2 1 2 1 2 1 Z " fill="#F5F5F4" transform="translate(534,196)"/>
<path d="" fill="#5B6979" transform="translate(0,0)"/>
<path d="M0 0 C2 1 2 1 2 1 Z " fill="#59697A" transform="translate(399,193)"/>
<path d="" fill="#5B6979" transform="translate(0,0)"/>
<path d="M0 0 C2 1 2 1 2 1 Z " fill="#B4B495" transform="translate(518,190)"/>
<path d="M0 0 C2 1 2 1 2 1 Z " fill="#7D3057" transform="translate(368,183)"/>
<path d="" fill="#7D2850" transform="translate(0,0)"/>
<path d="M0 0 C2 1 2 1 2 1 Z " fill="#6B4761" transform="translate(377,177)"/>
<path d="" fill="#F2F1F2" transform="translate(0,0)"/>
<path d="M0 0 C2 1 2 1 2 1 Z " fill="#B6B590" transform="translate(514,163)"/>
<path d="" fill="#61B3EE" transform="translate(0,0)"/>
<path d="M0 0 C2 1 2 1 2 1 Z " fill="#58697A" transform="translate(408,150)"/>
<path d="" fill="#565057" transform="translate(0,0)"/>
<path d="" fill="#5FB3EE" transform="translate(0,0)"/>
<path d="M0 0 C2 1 2 1 2 1 Z " fill="#61B3EE" transform="translate(527,147)"/>
<path d="M0 0 C2 1 2 1 2 1 Z " fill="#60B3EE" transform="translate(74,146)"/>
<path d="M0 0 C2 1 2 1 2 1 Z " fill="#60B3EE" transform="translate(71,146)"/>
<path d="M0 0 C2 1 2 1 2 1 Z " fill="#60B3EE" transform="translate(83,144)"/>
<path d="M0 0 C2 1 2 1 2 1 Z " fill="#5CB2EE" transform="translate(66,143)"/>
<path d="M0 0 C2 1 2 1 2 1 Z " fill="#5EB2ED" transform="translate(58,143)"/>
<path d="M0 0 C2 1 2 1 2 1 Z " fill="#F4F1F3" transform="translate(54,141)"/>
<path d="M0 0 C2 1 2 1 2 1 Z " fill="#858486" transform="translate(358,140)"/>
<path d="M0 0 C2 1 2 1 2 1 Z " fill="#5EB2ED" transform="translate(69,140)"/>
<path d="M0 0 C2 1 2 1 2 1 Z " fill="#5A6A7B" transform="translate(409,139)"/>
<path d="" fill="#67B4E8" transform="translate(0,0)"/>
<path d="" fill="#6CAEE0" transform="translate(0,0)"/>
<path d="M0 0 C2 1 2 1 2 1 Z " fill="#596979" transform="translate(421,138)"/>
<path d="" fill="#868588" transform="translate(0,0)"/>
<path d="M0 0 C2 1 2 1 2 1 Z " fill="#5B6A7A" transform="translate(388,137)"/>
<path d="M0 0 C2 1 2 1 2 1 Z " fill="#FCFBFB" transform="translate(88,136)"/>
<path d="" fill="#5A6A7B" transform="translate(0,0)"/>
<path d="" fill="#60B2ED" transform="translate(0,0)"/>
<path d="M0 0 C2 1 2 1 2 1 Z " fill="#FAFAF9" transform="translate(88,131)"/>
<path d="M0 0 C2 1 2 1 2 1 Z " fill="#F4F1F3" transform="translate(70,126)"/>
<path d="M0 0 C2 1 2 1 2 1 Z " fill="#ECF6F8" transform="translate(63,126)"/>
<path d="M0 0 C2 1 2 1 2 1 Z " fill="#5B6A7A" transform="translate(407,123)"/>
<path d="M0 0 C2 1 2 1 2 1 Z " fill="#FCFDFE" transform="translate(83,123)"/>
<path d="" fill="#EFD7CA" transform="translate(0,0)"/>
<path d="" fill="#E8EBEF" transform="translate(0,0)"/>
<path d="M0 0 C2 1 2 1 2 1 Z " fill="#E9D9CE" transform="translate(80,121)"/>
<path d="M0 0 C2 1 2 1 2 1 Z " fill="#62564E" transform="translate(553,114)"/>
<path d="M0 0 C2 1 2 1 2 1 Z " fill="#2C2C30" transform="translate(554,110)"/>
<path d="M0 0 C2 1 2 1 2 1 Z " fill="#2D2C30" transform="translate(568,105)"/>
<path d="M0 0 C2 1 2 1 2 1 Z " fill="#8C7251" transform="translate(60,101)"/>
<path d="M0 0 C2 1 2 1 2 1 Z " fill="#2D2C30" transform="translate(567,98)"/>
<path d="" fill="#999694" transform="translate(0,0)"/>
<path d="M0 0 C2 1 2 1 2 1 Z " fill="#FCFBFC" transform="translate(76,80)"/>
<path d="M0 0 C2 1 2 1 2 1 Z " fill="#FFFDFD" transform="translate(76,78)"/>
<path d="M0 0 C2 1 2 1 2 1 Z " fill="#FFFDFD" transform="translate(74,77)"/>
<path d="" fill="#FFFCF9" transform="translate(0,0)"/>
<path d="M0 0 C2 1 2 1 2 1 Z " fill="#F3F1F4" transform="translate(219,0)"/>
<path d="" fill="#666666" transform="translate(0,0)"/>
<path d="" fill="#323338" transform="translate(0,0)"/>
<path d="" fill="#161619" transform="translate(0,0)"/>
<path d="" fill="#19191B" transform="translate(0,0)"/>
<path d="" fill="#161619" transform="translate(0,0)"/>
<path d="" fill="#161619" transform="translate(0,0)"/>
<path d="" fill="#17181C" transform="translate(0,0)"/>
<path d="" fill="#2E2D30" transform="translate(0,0)"/>
<path d="" fill="#19191B" transform="translate(0,0)"/>
<path d="" fill="#414141" transform="translate(0,0)"/>
<path d="" fill="#323338" transform="translate(0,0)"/>
<path d="" fill="#161619" transform="translate(0,0)"/>
<path d="" fill="#181818" transform="translate(0,0)"/>
<path d="" fill="#181818" transform="translate(0,0)"/>
<path d="" fill="#1A1A1B" transform="translate(0,0)"/>
<path d="" fill="#161619" transform="translate(0,0)"/>
<path d="" fill="#646564" transform="translate(0,0)"/>
<path d="" fill="#414141" transform="translate(0,0)"/>
<path d="" fill="#19191B" transform="translate(0,0)"/>
<path d="" fill="#181818" transform="translate(0,0)"/>
<path d="" fill="#19191B" transform="translate(0,0)"/>
<path d="" fill="#181818" transform="translate(0,0)"/>
<path d="" fill="#19191B" transform="translate(0,0)"/>
<path d="" fill="#181818" transform="translate(0,0)"/>
<path d="" fill="#19191B" transform="translate(0,0)"/>
<path d="" fill="#181818" transform="translate(0,0)"/>
<path d="" fill="#19191B" transform="translate(0,0)"/>
<path d="" fill="#181818" transform="translate(0,0)"/>
<path d="" fill="#19191B" transform="translate(0,0)"/>
<path d="" fill="#181818" transform="translate(0,0)"/>
<path d="" fill="#1A1A1B" transform="translate(0,0)"/>
<path d="" fill="#3C3B3F" transform="translate(0,0)"/>
<path d="" fill="#F3F1F5" transform="translate(0,0)"/>
<path d="" fill="#F3F1F5" transform="translate(0,0)"/>
<path d="" fill="#D8DEDD" transform="translate(0,0)"/>
<path d="" fill="#888584" transform="translate(0,0)"/>
<path d="" fill="#888584" transform="translate(0,0)"/>
<path d="" fill="#858484" transform="translate(0,0)"/>
<path d="" fill="#7F1F48" transform="translate(0,0)"/>
<path d="" fill="#FFFFFF" transform="translate(0,0)"/>
<path d="" fill="#7F1F48" transform="translate(0,0)"/>
<path d="" fill="#7F1F48" transform="translate(0,0)"/>
<path d="" fill="#5B6979" transform="translate(0,0)"/>
<path d="" fill="#5A6A7B" transform="translate(0,0)"/>
<path d="" fill="#5C6C7C" transform="translate(0,0)"/>
<path d="" fill="#5C6C7C" transform="translate(0,0)"/>
<path d="" fill="#7F1F48" transform="translate(0,0)"/>
<path d="" fill="#7F1F48" transform="translate(0,0)"/>
<path d="" fill="#7E204A" transform="translate(0,0)"/>
<path d="" fill="#7F1F48" transform="translate(0,0)"/>
<path d="" fill="#5C6C7C" transform="translate(0,0)"/>
<path d="" fill="#7E204A" transform="translate(0,0)"/>
<path d="" fill="#7D3057" transform="translate(0,0)"/>
<path d="" fill="#788896" transform="translate(0,0)"/>
<path d="" fill="#5A6A7B" transform="translate(0,0)"/>
<path d="" fill="#5A6A7B" transform="translate(0,0)"/>
<path d="" fill="#5C6C7C" transform="translate(0,0)"/>
<path d="" fill="#7E204A" transform="translate(0,0)"/>
<path d="" fill="#5C6C7C" transform="translate(0,0)"/>
<path d="" fill="#5C6C7C" transform="translate(0,0)"/>
<path d="" fill="#5A6A7B" transform="translate(0,0)"/>
<path d="" fill="#5C6C7C" transform="translate(0,0)"/>
<path d="" fill="#5C6C7C" transform="translate(0,0)"/>
<path d="" fill="#617080" transform="translate(0,0)"/>
<path d="" fill="#7E204A" transform="translate(0,0)"/>
<path d="" fill="#5C6C7C" transform="translate(0,0)"/>
<path d="" fill="#904E6D" transform="translate(0,0)"/>
<path d="" fill="#B2B39A" transform="translate(0,0)"/>
<path d="" fill="#B6B590" transform="translate(0,0)"/>
<path d="" fill="#5C6C7C" transform="translate(0,0)"/>
<path d="" fill="#5A6A7B" transform="translate(0,0)"/>
<path d="" fill="#617080" transform="translate(0,0)"/>
<path d="" fill="#7E204A" transform="translate(0,0)"/>
<path d="" fill="#5C6C7C" transform="translate(0,0)"/>
<path d="" fill="#5A6A7B" transform="translate(0,0)"/>
<path d="" fill="#576878" transform="translate(0,0)"/>
<path d="" fill="#5C6C7C" transform="translate(0,0)"/>
<path d="" fill="#5B6979" transform="translate(0,0)"/>
<path d="" fill="#5B6979" transform="translate(0,0)"/>
<path d="" fill="#7E204A" transform="translate(0,0)"/>
<path d="" fill="#5B6979" transform="translate(0,0)"/>
<path d="" fill="#5C6C7C" transform="translate(0,0)"/>
<path d="" fill="#5B6979" transform="translate(0,0)"/>
<path d="" fill="#7E204A" transform="translate(0,0)"/>
<path d="" fill="#88305E" transform="translate(0,0)"/>
<path d="" fill="#F4F1F3" transform="translate(0,0)"/>
<path d="" fill="#8A8A8B" transform="translate(0,0)"/>
<path d="" fill="#828283" transform="translate(0,0)"/>
<path d="" fill="#858484" transform="translate(0,0)"/>
<path d="" fill="#B3B590" transform="translate(0,0)"/>
<path d="" fill="#B3B3B3" transform="translate(0,0)"/>
<path d="" fill="#D0CFCF" transform="translate(0,0)"/>
<path d="" fill="#FFFEFB" transform="translate(0,0)"/>
<path d="" fill="#F4F1F3" transform="translate(0,0)"/>
<path d="" fill="#646367" transform="translate(0,0)"/>
<path d="" fill="#FAFAFA" transform="translate(0,0)"/>
<path d="" fill="#60B2ED" transform="translate(0,0)"/>
<path d="" fill="#E4E2E1" transform="translate(0,0)"/>
<path d="" fill="#63B5EF" transform="translate(0,0)"/>
<path d="" fill="#686769" transform="translate(0,0)"/>
<path d="" fill="#5CB2EE" transform="translate(0,0)"/>
<path d="" fill="#FAFAFA" transform="translate(0,0)"/>
<path d="" fill="#5AB3EE" transform="translate(0,0)"/>
<path d="" fill="#5CB2EE" transform="translate(0,0)"/>
<path d="" fill="#5C6C7C" transform="translate(0,0)"/>
<path d="" fill="#858588" transform="translate(0,0)"/>
<path d="" fill="#858484" transform="translate(0,0)"/>
<path d="" fill="#57B2ED" transform="translate(0,0)"/>
<path d="" fill="#B6E5FD" transform="translate(0,0)"/>
<path d="" fill="#5C6C7C" transform="translate(0,0)"/>
<path d="" fill="#5A6A7B" transform="translate(0,0)"/>
<path d="" fill="#58697A" transform="translate(0,0)"/>
<path d="" fill="#5A6A7B" transform="translate(0,0)"/>
<path d="" fill="#63B5EF" transform="translate(0,0)"/>
<path d="" fill="#5C6C7C" transform="translate(0,0)"/>
<path d="" fill="#5C6C7C" transform="translate(0,0)"/>
<path d="" fill="#5C6C7C" transform="translate(0,0)"/>
<path d="" fill="#617080" transform="translate(0,0)"/>
<path d="" fill="#60B2ED" transform="translate(0,0)"/>
<path d="" fill="#5A6A7B" transform="translate(0,0)"/>
<path d="" fill="#5A6A7B" transform="translate(0,0)"/>
<path d="" fill="#58697A" transform="translate(0,0)"/>
<path d="" fill="#5A6A7B" transform="translate(0,0)"/>
<path d="" fill="#58697A" transform="translate(0,0)"/>
<path d="" fill="#5CB2EE" transform="translate(0,0)"/>
<path d="" fill="#5A6A7B" transform="translate(0,0)"/>
<path d="" fill="#5A6A7B" transform="translate(0,0)"/>
<path d="" fill="#5B6979" transform="translate(0,0)"/>
<path d="" fill="#888688" transform="translate(0,0)"/>
<path d="" fill="#5AB3EE" transform="translate(0,0)"/>
<path d="" fill="#5A6A7B" transform="translate(0,0)"/>
<path d="" fill="#58697A" transform="translate(0,0)"/>
<path d="" fill="#5C6C7C" transform="translate(0,0)"/>
<path d="" fill="#5CB2EE" transform="translate(0,0)"/>
<path d="" fill="#5B6979" transform="translate(0,0)"/>
<path d="" fill="#5A6A7B" transform="translate(0,0)"/>
<path d="" fill="#F5F5F4" transform="translate(0,0)"/>
<path d="" fill="#5A6A7B" transform="translate(0,0)"/>
<path d="" fill="#F3F1F5" transform="translate(0,0)"/>
<path d="" fill="#B7B7B9" transform="translate(0,0)"/>
<path d="" fill="#8292A0" transform="translate(0,0)"/>
<path d="" fill="#5A6A7B" transform="translate(0,0)"/>
<path d="" fill="#5CB2EE" transform="translate(0,0)"/>
<path d="" fill="#5DB2EE" transform="translate(0,0)"/>
<path d="" fill="#5A6A7B" transform="translate(0,0)"/>
<path d="" fill="#5C6C7C" transform="translate(0,0)"/>
<path d="" fill="#5A6A7B" transform="translate(0,0)"/>
<path d="" fill="#5C6C7C" transform="translate(0,0)"/>
<path d="" fill="#5C6C7C" transform="translate(0,0)"/>
<path d="" fill="#5DB2EE" transform="translate(0,0)"/>
<path d="" fill="#F3F1F5" transform="translate(0,0)"/>
<path d="" fill="#576878" transform="translate(0,0)"/>
<path d="" fill="#5A6A7B" transform="translate(0,0)"/>
<path d="" fill="#5C6C7C" transform="translate(0,0)"/>
<path d="" fill="#5C6C7C" transform="translate(0,0)"/>
<path d="" fill="#5C6C7C" transform="translate(0,0)"/>
<path d="" fill="#5C6C7C" transform="translate(0,0)"/>
<path d="" fill="#5C6C7C" transform="translate(0,0)"/>
<path d="" fill="#F5F5F4" transform="translate(0,0)"/>
<path d="" fill="#58697A" transform="translate(0,0)"/>
<path d="" fill="#5B6979" transform="translate(0,0)"/>
<path d="" fill="#F3F1F5" transform="translate(0,0)"/>
<path d="" fill="#FFFEFB" transform="translate(0,0)"/>
<path d="" fill="#FBFBFA" transform="translate(0,0)"/>
<path d="" fill="#58697A" transform="translate(0,0)"/>
<path d="" fill="#5A6A7B" transform="translate(0,0)"/>
<path d="" fill="#FCFDFE" transform="translate(0,0)"/>
<path d="" fill="#F3EBE3" transform="translate(0,0)"/>
<path d="" fill="#F7EFE8" transform="translate(0,0)"/>
<path d="" fill="#EFD8CC" transform="translate(0,0)"/>
<path d="" fill="#FAFAFA" transform="translate(0,0)"/>
<path d="" fill="#FCFDFE" transform="translate(0,0)"/>
<path d="" fill="#FFFDFF" transform="translate(0,0)"/>
<path d="" fill="#FFFDFF" transform="translate(0,0)"/>
<path d="" fill="#FAFAFA" transform="translate(0,0)"/>
<path d="" fill="#5DB2EE" transform="translate(0,0)"/>
<path d="" fill="#8C654E" transform="translate(0,0)"/>
<path d="" fill="#FAFAFA" transform="translate(0,0)"/>
<path d="" fill="#5AB3EE" transform="translate(0,0)"/>
<path d="" fill="#ECD7C7" transform="translate(0,0)"/>
<path d="" fill="#735D51" transform="translate(0,0)"/>
<path d="" fill="#998059" transform="translate(0,0)"/>
<path d="" fill="#EED7C9" transform="translate(0,0)"/>
<path d="" fill="#5DB2EE" transform="translate(0,0)"/>
<path d="" fill="#2C2C30" transform="translate(0,0)"/>
<path d="" fill="#2E2D30" transform="translate(0,0)"/>
<path d="" fill="#5DB2EE" transform="translate(0,0)"/>
<path d="" fill="#92BADC" transform="translate(0,0)"/>
<path d="" fill="#858588" transform="translate(0,0)"/>
<path d="" fill="#9C795E" transform="translate(0,0)"/>
<path d="" fill="#EED7C9" transform="translate(0,0)"/>
<path d="" fill="#5DB2EE" transform="translate(0,0)"/>
<path d="" fill="#9B825C" transform="translate(0,0)"/>
<path d="" fill="#95815B" transform="translate(0,0)"/>
<path d="" fill="#947E5B" transform="translate(0,0)"/>
<path d="" fill="#7F8488" transform="translate(0,0)"/>
<path d="" fill="#2C2C30" transform="translate(0,0)"/>
<path d="" fill="#60B2ED" transform="translate(0,0)"/>
<path d="" fill="#977266" transform="translate(0,0)"/>
<path d="" fill="#8F7552" transform="translate(0,0)"/>
<path d="" fill="#FFFDFF" transform="translate(0,0)"/>
<path d="" fill="#C1C1C1" transform="translate(0,0)"/>
<path d="" fill="#1A1A1B" transform="translate(0,0)"/>
<path d="" fill="#9E9894" transform="translate(0,0)"/>
<path d="" fill="#C1C1C1" transform="translate(0,0)"/>
<path d="" fill="#FAFAFA" transform="translate(0,0)"/>
<path d="" fill="#FFFDFF" transform="translate(0,0)"/>
<path d="" fill="#E5BA96" transform="translate(0,0)"/>
<path d="" fill="#E2B896" transform="translate(0,0)"/>
<path d="" fill="#E6BA9B" transform="translate(0,0)"/>
<path d="" fill="#E5BB98" transform="translate(0,0)"/>
<path d="" fill="#6F573C" transform="translate(0,0)"/>
<path d="" fill="#8F7552" transform="translate(0,0)"/>
<path d="" fill="#E2B896" transform="translate(0,0)"/>
</svg>
