<?xml version="1.0" encoding="UTF-8"?>
<svg version="1.1" xmlns="http://www.w3.org/2000/svg" width="517" height="124">
<path d="M0 0 C1.65 0 3.3 0 5 0 C5.33 0.99 5.66 1.98 6 3 C6 2.01 6 1.02 6 0 C8.4375 0.375 8.4375 0.375 11 1 C11.33 1.66 11.66 2.32 12 3 C12.33 2.01 12.66 1.02 13 0 C16.3 0 19.6 0 23 0 C23 1.32 23 2.64 23 4 C23.66 4 24.32 4 25 4 C25 3.01 25 2.02 25 1 C25.66 1 26.32 1 27 1 C27 2.98 27 4.96 27 7 C27.99 7.33 28.98 7.66 30 8 C26.7 8 23.4 8 20 8 C20.99 9.485 20.99 9.485 22 11 C21.01 11.99 20.02 12.98 19 14 C19.8353125 13.566875 19.8353125 13.566875 20.6875 13.125 C23.08494645 11.9586747 25.51596939 10.9660119 28 10 C29.5 11.375 29.5 11.375 31 13 C31 13.66 31 14.32 31 15 C31.99 15 32.98 15 34 15 C34 15.66 34 16.32 34 17 C34.66 17.33 35.32 17.66 36 18 C33.69 18 31.38 18 29 18 C29 17.34 29 16.68 29 16 C25.7 16.66 22.4 17.32 19 18 C19.66 18.33 20.32 18.66 21 19 C20.01 21.475 20.01 21.475 19 24 C19.66 24 20.32 24 21 24 C20.67 24.66 20.34 25.32 20 26 C19.01 26 18.02 26 17 26 C16.67 26.99 16.34 27.98 16 29 C15.34 28.67 14.68 28.34 14 28 C11.02164478 26.63846618 8.79602073 25.98178757 5.5 25.6875 C1.19325737 24.8415327 -0.31963821 23.41136955 -3 20 C-3 19.01 -3 18.02 -3 17 C-2.01 16.67 -1.02 16.34 0 16 C-0.495 15.54625 -0.99 15.0925 -1.5 14.625 C-3 13 -3 13 -3 11 C-2.34 10.34 -1.68 9.68 -1 9 C-1.66 8.34 -2.32 7.68 -3 7 C-2.34 7 -1.68 7 -1 7 C-0.67 4.69 -0.34 2.38 0 0 Z M15 4 C16 6 16 6 16 6 Z M18 4 C19 6 19 6 19 6 Z M21 4 C21 4.66 21 5.32 21 6 C21.66 6 22.32 6 23 6 C23 5.34 23 4.68 23 4 C22.34 4 21.68 4 21 4 Z M0 5 C0.33 5.66 0.66 6.32 1 7 C1.33 6.34 1.66 5.68 2 5 C1.34 5 0.68 5 0 5 Z M12 12 C10.12456646 15.86763446 10.12456646 15.86763446 11 20 C12.32 20 13.64 20 15 20 C15 18.68 15 17.36 15 16 C14.34 16 13.68 16 13 16 C12.67 14.68 12.34 13.36 12 12 Z M13 21 C12.67 21.66 12.34 22.32 12 23 C12.99 23 13.98 23 15 23 C15 22.34 15 21.68 15 21 C14.34 21 13.68 21 13 21 Z M16 23 C16 23.66 16 24.32 16 25 C15.01 25.495 15.01 25.495 14 26 C15.32 25.67 16.64 25.34 18 25 C17.34 24.34 16.68 23.68 16 23 Z " fill="#EAD3BF" transform="translate(8,0)"/>
<path d="M0 0 C2.4375 0.375 2.4375 0.375 5 1 C5.33 1.66 5.66 2.32 6 3 C6.33 2.01 6.66 1.02 7 0 C10.3 0 13.6 0 17 0 C17 1.32 17 2.64 17 4 C17.66 4 18.32 4 19 4 C19 3.01 19 2.02 19 1 C19.66 1 20.32 1 21 1 C21 2.98 21 4.96 21 7 C21.99 7.33 22.98 7.66 24 8 C20.7 8 17.4 8 14 8 C14.99 9.485 14.99 9.485 16 11 C15.01 11.99 14.02 12.98 13 14 C13.556875 13.71125 14.11375 13.4225 14.6875 13.125 C17.08494645 11.9586747 19.51596939 10.9660119 22 10 C23.5 11.375 23.5 11.375 25 13 C25 13.66 25 14.32 25 15 C25.99 15 26.98 15 28 15 C28 15.66 28 16.32 28 17 C28.66 17.33 29.32 17.66 30 18 C27.69 18 25.38 18 23 18 C23 17.34 23 16.68 23 16 C22.01 16.2475 22.01 16.2475 21 16.5 C16.22801644 17.29533059 11.64367656 17.54789219 7 16 C7 14.68 7 13.36 7 12 C6.01 12 5.02 12 4 12 C3.32645501 10.56570999 2.66140299 9.12742943 2 7.6875 C1.62875 6.88699219 1.2575 6.08648437 0.875 5.26171875 C0 3 0 3 0 0 Z M9 4 C10 6 10 6 10 6 Z M12 4 C13 6 13 6 13 6 Z M15 4 C15 4.66 15 5.32 15 6 C15.66 6 16.32 6 17 6 C17 5.34 17 4.68 17 4 C16.34 4 15.68 4 15 4 Z " fill="#969493" transform="translate(14,0)"/>
<path d="M0 0 C3 1 3 1 4 3 C4.33 2.01 4.66 1.02 5 0 C8.3 0 11.6 0 15 0 C15 1.32 15 2.64 15 4 C15.66 4 16.32 4 17 4 C17 3.01 17 2.02 17 1 C17.66 1 18.32 1 19 1 C19 2.98 19 4.96 19 7 C19.99 7.33 20.98 7.66 22 8 C16.06 8 10.12 8 4 8 C4 7.34 4 6.68 4 6 C3.01 5.67 2.02 5.34 1 5 C0.67 3.35 0.34 1.7 0 0 Z M7 4 C8 6 8 6 8 6 Z M10 4 C11 6 11 6 11 6 Z M13 4 C13 4.66 13 5.32 13 6 C13.66 6 14.32 6 15 6 C15 5.34 15 4.68 15 4 C14.34 4 13.68 4 13 4 Z " fill="#FDFCFC" transform="translate(16,0)"/>
<path d="M0 0 C2.475 0.99 2.475 0.99 5 2 C5.33 1.34 5.66 0.68 6 0 C6.93423645 3.01031744 7.04449911 3.86650268 6 7 C5.01 7.33 4.02 7.66 3 8 C3.99 8.33 4.98 8.66 6 9 C5.01 9 4.02 9 3 9 C3.99 10.65 4.98 12.3 6 14 C4.68 13.67 3.36 13.34 2 13 C2 13.66 2 14.32 2 15 C2.99 15.33 3.98 15.66 5 16 C1.94736336 16.98120464 0.05263664 16.98120464 -3 16 C-3.89868727 13.48367565 -4.1616905 12.39267692 -3.125 9.875 C-2.75375 9.25625 -2.3825 8.6375 -2 8 C-1.67 7.34 -1.34 6.68 -1 6 C-2.22880216 4.7058258 -2.22880216 4.7058258 -5 3 C-4.01 3 -3.02 3 -2 3 C-1.67 2.34 -1.34 1.68 -1 1 C-0.67 0.67 -0.34 0.34 0 0 Z M1 5 C2 9 2 9 2 9 Z " fill="#7FADCF" transform="translate(470,71)"/>
<path d="M0 0 C1.65 0 3.3 0 5 0 C5.12375 0.9075 5.2475 1.815 5.375 2.75 C5.8251528 5.91207158 5.8251528 5.91207158 7.125 8.1875 C8 10 8 10 7 13 C5.35 11.35 3.7 9.7 2 8 C2.99 9.32 3.98 10.64 5 12 C4.67 12.66 4.34 13.32 4 14 C2.68 13.67 1.36 13.34 0 13 C-0.33 13.66 -0.66 14.32 -1 15 C-1.66 13.68 -2.32 12.36 -3 11 C-2.34 10.34 -1.68 9.68 -1 9 C-1.66 8.34 -2.32 7.68 -3 7 C-2.34 7 -1.68 7 -1 7 C-0.67 4.69 -0.34 2.38 0 0 Z M0 5 C0.33 5.66 0.66 6.32 1 7 C1.33 6.34 1.66 5.68 2 5 C1.34 5 0.68 5 0 5 Z " fill="#9E8663" transform="translate(8,0)"/>
<path d="M0 0 C2.31 0.33 4.62 0.66 7 1 C6.01 1.33 5.02 1.66 4 2 C4.66 2.33 5.32 2.66 6 3 C5.34 4.65 4.68 6.3 4 8 C4.66 8 5.32 8 6 8 C5.67 8.66 5.34 9.32 5 10 C4.01 10 3.02 10 2 10 C1.67 10.99 1.34 11.98 1 13 C-1.7839183 11.60804085 -1.97898997 9.84424221 -3 7 C-2.01 7 -1.02 7 0 7 C0 6.34 0 5.68 0 5 C-0.99 5.33 -1.98 5.66 -3 6 C-3.33 5.34 -3.66 4.68 -4 4 C-2.68 4 -1.36 4 0 4 C0 2.68 0 1.36 0 0 Z M1 7 C1 7.66 1 8.32 1 9 C0.01 9.495 0.01 9.495 -1 10 C0.32 9.67 1.64 9.34 3 9 C2.34 8.34 1.68 7.68 1 7 Z " fill="#DACEC6" transform="translate(23,16)"/>
<path d="M0 0 C1.875 0.25 1.875 0.25 4 1 C5.25 3.0625 5.25 3.0625 6 5 C4.35 5 2.7 5 1 5 C1 5.66 1 6.32 1 7 C2.051875 7.12375 3.10375 7.2475 4.1875 7.375 C7.45958771 7.91140782 10.00536076 8.63880035 13 10 C9.13489855 11.39143652 5.94568054 10.96911452 2 10 C-0.9375 7.625 -0.9375 7.625 -3 5 C-3 4.01 -3 3.02 -3 2 C-2.01 1.67 -1.02 1.34 0 1 C0 0.67 0 0.34 0 0 Z " fill="#9A8261" transform="translate(8,15)"/>
<path d="M0 0 C1.9375 0.8125 1.9375 0.8125 4 2 C4.33 2.99 4.66 3.98 5 5 C5.99 5 6.98 5 8 5 C8 5.66 8 6.32 8 7 C8.66 7.33 9.32 7.66 10 8 C7.69 8 5.38 8 3 8 C3 7.34 3 6.68 3 6 C1.02 6.33 -0.96 6.66 -3 7 C-3.33 5.68 -3.66 4.36 -4 3 C-2.68 2.01 -1.36 1.02 0 0 Z " fill="#9C9B9C" transform="translate(34,10)"/>
<path d="M0 0 C0.66 0 1.32 0 2 0 C2.433125 1.2065625 2.433125 1.2065625 2.875 2.4375 C3.73262568 5.1326468 3.73262568 5.1326468 6 6 C6 6.66 6 7.32 6 8 C8.31 8 10.62 8 13 8 C13 8.33 13 8.66 13 9 C11.02 9 9.04 9 7 9 C7.66 11.31 8.32 13.62 9 16 C8.34 16 7.68 16 7 16 C7 14.68 7 13.36 7 12 C6.01 12 5.02 12 4 12 C3.32645501 10.56570999 2.66140299 9.12742943 2 7.6875 C1.62875 6.88699219 1.2575 6.08648437 0.875 5.26171875 C0 3 0 3 0 0 Z " fill="#DBCEC4" transform="translate(14,0)"/>
<path d="M0 0 C0.66 0.33 1.32 0.66 2 1 C1.67 2.98 1.34 4.96 1 7 C0.01 7.33 -0.98 7.66 -2 8 C-1.01 8.33 -0.02 8.66 1 9 C0.01 9 -0.98 9 -2 9 C-1.01 10.65 -0.02 12.3 1 14 C-0.32 13.67 -1.64 13.34 -3 13 C-3 13.66 -3 14.32 -3 15 C-2.01 15.33 -1.02 15.66 0 16 C-0.66 16.33 -1.32 16.66 -2 17 C-2.66 16.67 -3.32 16.34 -4 16 C-3.67 11.05 -3.34 6.1 -3 1 C-2.01 1.33 -1.02 1.66 0 2 C0 1.34 0 0.68 0 0 Z " fill="#95C6E9" transform="translate(475,71)"/>
<path d="M0 0 C0.99 0.33 1.98 0.66 3 1 C3 2.98 3 4.96 3 7 C-0.68266103 6.40049704 -4.34543185 5.75241109 -8 5 C-8 4.34 -8 3.68 -8 3 C-5.03 3.495 -5.03 3.495 -2 4 C-2 3.34 -2 2.68 -2 2 C-1.34 2 -0.68 2 0 2 C0 1.34 0 0.68 0 0 Z " fill="#ECD4C0" transform="translate(17,17)"/>
<path d="M0 0 C6.48979592 0.48979592 6.48979592 0.48979592 8.9375 2.9375 C10 5 10 5 10 7 C9.34 7 8.68 7 8 7 C8 7.66 8 8.32 8 9 C6.68 8.67 5.36 8.34 4 8 C4.99 8 5.98 8 7 8 C6.21625 7.236875 5.4325 6.47375 4.625 5.6875 C2 3 2 3 0 0 Z " fill="#E1C7AF" transform="translate(7,12)"/>
<path d="M0 0 C2.475 0.495 2.475 0.495 5 1 C4.34 2.65 3.68 4.3 3 6 C3.66 6 4.32 6 5 6 C4.67 6.66 4.34 7.32 4 8 C3.01 7.67 2.02 7.34 1 7 C0.67 4.69 0.34 2.38 0 0 Z " fill="#DCE8F0" transform="translate(24,18)"/>
<path d="M0 0 C0.66 0 1.32 0 2 0 C5.34821429 6.96428571 5.34821429 6.96428571 4 11 C3.32591692 9.73308493 2.66099503 8.46129251 2 7.1875 C1.62875 6.47980469 1.2575 5.77210937 0.875 5.04296875 C0 3 0 3 0 0 Z " fill="#A08E73" transform="translate(14,0)"/>
<path d="M0 0 C2.97 0 5.94 0 9 0 C8.67 0.99 8.34 1.98 8 3 C5.03 2.67 2.06 2.34 -1 2 C-0.67 1.34 -0.34 0.68 0 0 Z " fill="#E8E4DF" transform="translate(473,120)"/>
<path d="M0 0 C2.03125 0.05078125 2.03125 0.05078125 4.5 0.3125 C5.3146875 0.39113281 6.129375 0.46976563 6.96875 0.55078125 C7.97421875 0.77314453 7.97421875 0.77314453 9 1 C9.33 1.66 9.66 2.32 10 3 C8.741875 3.04125 7.48375 3.0825 6.1875 3.125 C5.47980469 3.14820313 4.77210937 3.17140625 4.04296875 3.1953125 C2 3 2 3 -1 1 C-0.67 0.67 -0.34 0.34 0 0 Z " fill="#8C7964" transform="translate(11,23)"/>
<path d="M0 0 C1.2065625 0.0309375 1.2065625 0.0309375 2.4375 0.0625 C3.0975 1.3825 3.7575 2.7025 4.4375 4.0625 C1.06287285 3.51526317 -0.64485 3.0076 -3.5625 1.0625 C-2.5625 0.0625 -2.5625 0.0625 0 0 Z " fill="#5FB3ED" transform="translate(22.5625,36.9375)"/>
<path d="M0 0 C0.66 0.33 1.32 0.66 2 1 C2 1.66 2 2.32 2 3 C3.32 3.33 4.64 3.66 6 4 C6 4.66 6 5.32 6 6 C3.69 5.67 1.38 5.34 -1 5 C-0.67 3.35 -0.34 1.7 0 0 Z " fill="#D9D4D1" transform="translate(24,29)"/>
<path d="M0 0 C0.66 0.33 1.32 0.66 2 1 C1.67 2.65 1.34 4.3 1 6 C0.34 6 -0.32 6 -1 6 C-1.042721 4.33388095 -1.04063832 2.66617115 -1 1 C-0.67 0.67 -0.34 0.34 0 0 Z " fill="#B8BBBB" transform="translate(503,87)"/>
<path d="M0 0 C0.66 0 1.32 0 2 0 C2.33 0.66 2.66 1.32 3 2 C3.99 2.33 4.98 2.66 6 3 C5.34 4.32 4.68 5.64 4 7 C0 1.125 0 1.125 0 0 Z " fill="#9CCEF1" transform="translate(483,74)"/>
<path d="M0 0 C-2.63904371 1.41377341 -5.07120629 2.37240135 -8 3 C-8 2.34 -8 1.68 -8 1 C-5.29120665 -0.35439668 -2.99066732 -0.06501451 0 0 Z " fill="#DAD9CA" transform="translate(491,120)"/>
<path d="M0 0 C0.33 0 0.66 0 1 0 C1 2.31 1 4.62 1 7 C0.34 7 -0.32 7 -1 7 C-1.625 5.1875 -1.625 5.1875 -2 3 C-1.34 2.01 -0.68 1.02 0 0 Z " fill="#9C8563" transform="translate(13,32)"/>
<path d="M0 0 C0.66 0 1.32 0 2 0 C1.625 1.9375 1.625 1.9375 1 4 C0.01 4.495 0.01 4.495 -1 5 C-0.67 3.35 -0.34 1.7 0 0 Z " fill="#D8E7ED" transform="translate(496,84)"/>
<path d="M0 0 C2.475 0.99 2.475 0.99 5 2 C4.34 2.66 3.68 3.32 3 4 C1.97895449 3.02149805 0.9793879 2.02019573 0 1 C0 0.67 0 0.34 0 0 Z " fill="#969697" transform="translate(38,10)"/>
<path d="M0 0 C0.66 0.66 1.32 1.32 2 2 C0.02 2.99 0.02 2.99 -2 4 C-2 3.01 -2 2.02 -2 1 C-1.34 0.67 -0.68 0.34 0 0 Z " fill="#E8E8E5" transform="translate(13,43)"/>
<path d="M0 0 C0.66 0 1.32 0 2 0 C2 0.99 2 1.98 2 3 C2.66 3.33 3.32 3.66 4 4 C3.01 4 2.02 4 1 4 C0.67 2.68 0.34 1.36 0 0 Z " fill="#967E59" transform="translate(11,26)"/>
<path d="M0 0 C1.32 0.33 2.64 0.66 4 1 C2.68 1.33 1.36 1.66 0 2 C0 1.34 0 0.68 0 0 Z " fill="#EDEBED" transform="translate(513,88)"/>
<path d="M0 0 C0.99 0.33 1.98 0.66 3 1 C3 1.66 3 2.32 3 3 C1.68 2.67 0.36 2.34 -1 2 C-0.67 1.34 -0.34 0.68 0 0 Z " fill="#BECBD4" transform="translate(25,34)"/>
<path d="M0 0 C0 0.99 0 1.98 0 3 C-0.99 2.34 -1.98 1.68 -3 1 C-2.01 0.67 -1.02 0.34 0 0 Z " fill="#CAE3F5" transform="translate(482,79)"/>
<path d="M0 0 C0.66 0.66 1.32 1.32 2 2 C1.01 2.33 0.02 2.66 -1 3 C-1.33 2.34 -1.66 1.68 -2 1 C-1.34 0.67 -0.68 0.34 0 0 Z " fill="#68A3CA" transform="translate(18,33)"/>
<path d="M0 0 C0.99 0 1.98 0 3 0 C2.67 0.66 2.34 1.32 2 2 C1.34 2 0.68 2 0 2 C0 1.34 0 0.68 0 0 Z " fill="#F4F4F4" transform="translate(486,82)"/>
<path d="M0 0 C0.99 0.495 0.99 0.495 2 1 C1.67 1.99 1.34 2.98 1 4 C0.67 2.68 0.34 1.36 0 0 Z " fill="#7197AD" transform="translate(15,36)"/>
<path d="M0 0 C0.66 0.33 1.32 0.66 2 1 C0.68 1.33 -0.64 1.66 -2 2 C-1.34 1.34 -0.68 0.68 0 0 Z " fill="#937B57" transform="translate(17,26)"/>
<path d="M0 0 C0.99 0.33 1.98 0.66 3 1 C2.01 1 1.02 1 0 1 C0 0.67 0 0.34 0 0 Z " fill="#5DB2ED" transform="translate(35,33)"/>
<path d="M0 0 C1.485 0.99 1.485 0.99 3 2 C2.01 2 1.02 2 0 2 C0 1.34 0 0.68 0 0 Z " fill="#EFD7C9" transform="translate(8,28)"/>
<path d="M0 0 C0.66 0.66 1.32 1.32 2 2 C1.34 2 0.68 2 0 2 C0 1.34 0 0.68 0 0 Z " fill="#F2F1F2" transform="translate(487,122)"/>
<path d="M0 0 C0.66 0.66 1.32 1.32 2 2 C1.34 2 0.68 2 0 2 C0 1.34 0 0.68 0 0 Z " fill="#FDFDFD" transform="translate(475,81)"/>
<path d="M0 0 C0.66 0.66 1.32 1.32 2 2 C1.34 2 0.68 2 0 2 C0 1.34 0 0.68 0 0 Z " fill="#F0F7FB" transform="translate(484,80)"/>
<path d="M0 0 C0.99 0.495 0.99 0.495 2 1 C1.01 1.495 1.01 1.495 0 2 C0 1.34 0 0.68 0 0 Z " fill="#F6F5F6" transform="translate(490,78)"/>
<path d="M0 0 C0.66 0.66 1.32 1.32 2 2 C1.34 2 0.68 2 0 2 C0 1.34 0 0.68 0 0 Z " fill="#60B3EE" transform="translate(480,73)"/>
<path d="" fill="#D5D1CD" transform="translate(0,0)"/>
<path d="M0 0 C3 1 3 1 3 1 Z " fill="#5EB3EE" transform="translate(18,40)"/>
<path d="M0 0 C0.33 0.66 0.66 1.32 1 2 C0.34 1.67 -0.32 1.34 -1 1 C-0.67 0.67 -0.34 0.34 0 0 Z " fill="#5BB2ED" transform="translate(34,36)"/>
<path d="M0 0 C0.99 0.495 0.99 0.495 2 1 C1.01 1.495 1.01 1.495 0 2 C0 1.34 0 0.68 0 0 Z " fill="#FDFDFA" transform="translate(40,19)"/>
<path d="M0 0 C0.99 0.495 0.99 0.495 2 1 C1.01 1.495 1.01 1.495 0 2 C0 1.34 0 0.68 0 0 Z " fill="#18181A" transform="translate(47,9)"/>
<path d="M0 0 C2 1 2 1 2 1 Z " fill="#F5F5F4" transform="translate(489,122)"/>
<path d="M0 0 C2 1 2 1 2 1 Z " fill="#B4B495" transform="translate(473,118)"/>
<path d="M0 0 C2 1 2 1 2 1 Z " fill="#B4B495" transform="translate(473,116)"/>
<path d="M0 0 C2 1 2 1 2 1 Z " fill="#F1F1F2" transform="translate(505,92)"/>
<path d="M0 0 C2 1 2 1 2 1 Z " fill="#F1F0F3" transform="translate(511,90)"/>
<path d="" fill="#BCBEBF" transform="translate(0,0)"/>
<path d="M0 0 C2 1 2 1 2 1 Z " fill="#818990" transform="translate(477,87)"/>
<path d="" fill="#FCFBFC" transform="translate(0,0)"/>
<path d="M0 0 C2 1 2 1 2 1 Z " fill="#F6F5F7" transform="translate(482,83)"/>
<path d="M0 0 C2 1 2 1 2 1 Z " fill="#F0F0F1" transform="translate(479,83)"/>
<path d="" fill="#F3F3F4" transform="translate(0,0)"/>
<path d="M0 0 C2 1 2 1 2 1 Z " fill="#5EB2ED" transform="translate(477,79)"/>
<path d="" fill="#5CB2EE" transform="translate(0,0)"/>
<path d="M0 0 C2 1 2 1 2 1 Z " fill="#EBEBEC" transform="translate(38,46)"/>
<path d="M0 0 C2 1 2 1 2 1 Z " fill="#E9D3C8" transform="translate(33,46)"/>
<path d="M0 0 C2 1 2 1 2 1 Z " fill="#EFD8CC" transform="translate(30,46)"/>
<path d="M0 0 C2 1 2 1 2 1 Z " fill="#60B3EE" transform="translate(36,40)"/>
<path d="M0 0 C2 1 2 1 2 1 Z " fill="#62AFE6" transform="translate(31,33)"/>
<path d="M0 0 C2 1 2 1 2 1 Z " fill="#B39675" transform="translate(11,31)"/>
<path d="M0 0 C2 1 2 1 2 1 Z " fill="#978158" transform="translate(19,27)"/>
<path d="" fill="#F7F7F5" transform="translate(0,0)"/>
<path d="M0 0 C2 1 2 1 2 1 Z " fill="#FFFDFD" transform="translate(29,21)"/>
<path d="" fill="#19191B" transform="translate(0,0)"/>
<path d="M0 0 C2 1 2 1 2 1 Z " fill="#FFFDFF" transform="translate(31,18)"/>
<path d="" fill="#18181B" transform="translate(0,0)"/>
<path d="" fill="#584F5B" transform="translate(0,0)"/>
<path d="M0 0 C2 1 2 1 2 1 Z " fill="#8F8F90" transform="translate(40,9)"/>
<path d="M0 0 C2 1 2 1 2 1 Z " fill="#8F8F90" transform="translate(36,9)"/>
<path d="M0 0 C2 1 2 1 2 1 Z " fill="#8F8F90" transform="translate(30,9)"/>
<path d="" fill="#F4F1F3" transform="translate(0,0)"/>
<path d="" fill="#8292A0" transform="translate(0,0)"/>
<path d="" fill="#B6B590" transform="translate(0,0)"/>
<path d="" fill="#B2B39A" transform="translate(0,0)"/>
<path d="" fill="#B2B39A" transform="translate(0,0)"/>
<path d="" fill="#878787" transform="translate(0,0)"/>
<path d="" fill="#F3EBE3" transform="translate(0,0)"/>
<path d="" fill="#75BFDC" transform="translate(0,0)"/>
<path d="" fill="#5CB2EE" transform="translate(0,0)"/>
<path d="" fill="#63B5EF" transform="translate(0,0)"/>
<path d="" fill="#A0E4FE" transform="translate(0,0)"/>
<path d="" fill="#6EBAF0" transform="translate(0,0)"/>
<path d="" fill="#6EBAF0" transform="translate(0,0)"/>
<path d="" fill="#F0D7C8" transform="translate(0,0)"/>
<path d="" fill="#F3F1F5" transform="translate(0,0)"/>
<path d="" fill="#EED7C9" transform="translate(0,0)"/>
<path d="" fill="#5CB2EE" transform="translate(0,0)"/>
<path d="" fill="#ECD7C7" transform="translate(0,0)"/>
<path d="" fill="#5DB2EE" transform="translate(0,0)"/>
<path d="" fill="#EFD8CC" transform="translate(0,0)"/>
<path d="" fill="#5AB3EE" transform="translate(0,0)"/>
<path d="" fill="#788178" transform="translate(0,0)"/>
<path d="" fill="#F3F2ED" transform="translate(0,0)"/>
<path d="" fill="#977266" transform="translate(0,0)"/>
<path d="" fill="#D5C5B4" transform="translate(0,0)"/>
<path d="" fill="#FFFFFF" transform="translate(0,0)"/>
<path d="" fill="#FFFDFD" transform="translate(0,0)"/>
<path d="" fill="#947E5B" transform="translate(0,0)"/>
<path d="" fill="#FFFDFD" transform="translate(0,0)"/>
<path d="" fill="#19191B" transform="translate(0,0)"/>
<path d="" fill="#6C5F6D" transform="translate(0,0)"/>
<path d="" fill="#C1C1C1" transform="translate(0,0)"/>
<path d="" fill="#9E9894" transform="translate(0,0)"/>
<path d="" fill="#F0D7C8" transform="translate(0,0)"/>
<path d="" fill="#9B825C" transform="translate(0,0)"/>
<path d="" fill="#95989B" transform="translate(0,0)"/>
<path d="" fill="#95989B" transform="translate(0,0)"/>
<path d="" fill="#959595" transform="translate(0,0)"/>
<path d="" fill="#998059" transform="translate(0,0)"/>
</svg>
