<?xml version="1.0" encoding="UTF-8"?>
<svg version="1.1" xmlns="http://www.w3.org/2000/svg" width="587" height="321">
<path d="M0 0 C0.99 0.66 1.98 1.32 3 2 C5.50446022 2.27637388 7.92673304 2.46380255 10.4375 2.5625 C17.53990767 2.88440276 17.53990767 2.88440276 20.34765625 3.58984375 C22.10790912 4.21668 22.10790912 4.21668 24 3 C24.91397824 8.68697571 24.91397824 13.31302429 24 19 C24.66 19.33 25.32 19.66 26 20 C27.43440058 22.86880117 28 25.79514913 28 29 C27.34 29 26.68 29 26 29 C25.731875 28.360625 25.46375 27.72125 25.1875 27.0625 C24.11332248 24.66868314 24.11332248 24.66868314 21 24 C20.814375 24.9590625 20.814375 24.9590625 20.625 25.9375 C20.41875 26.948125 20.2125 27.95875 20 29 C19.85433594 29.72445312 19.70867187 30.44890625 19.55859375 31.1953125 C19.39488281 31.97648437 19.23117188 32.75765625 19.0625 33.5625 C18.83240234 34.67818359 18.83240234 34.67818359 18.59765625 35.81640625 C18 38 18 38 16.94140625 40.10546875 C15.75173975 42.49961089 15.8534862 44.36275154 16 47 C15.01 47 14.02 47 13 47 C13.66 47.33 14.32 47.66 15 48 C15 52 15 52 14 54 C13.01 54.495 13.01 54.495 12 55 C11.34 54.67 10.68 54.34 10 54 C10.33 55.98 10.66 57.96 11 60 C8.525 60.495 8.525 60.495 6 61 C5.67 61.99 5.34 62.98 5 64 C3.02 64 1.04 64 -1 64 C-1 64.66 -1 65.32 -1 66 C-1.598125 66.061875 -2.19625 66.12375 -2.8125 66.1875 C-5.87143458 67.3236757 -6.55041099 69.17330142 -8 72 C-8.99 71.67 -9.98 71.34 -11 71 C-10.34 71 -9.68 71 -9 71 C-8.82984375 70.31292969 -8.6596875 69.62585938 -8.484375 68.91796875 C-8.24203125 68.01691406 -7.9996875 67.11585938 -7.75 66.1875 C-7.51796875 65.29417969 -7.2859375 64.40085937 -7.046875 63.48046875 C-5.82167904 60.57748579 -4.68640911 59.58742357 -2 58 C0.75 57.3125 0.75 57.3125 3 57 C1.90201339 55.68810584 1.90201339 55.68810584 -0.8125 55.75 C-3.96966833 55.70656762 -3.96966833 55.70656762 -5.875 57.4375 C-9.077049 59.79194779 -12.0726577 59.67272147 -16 60 C-14.37835853 56.75671706 -11.15364305 55.52660428 -8 54 C-4.59500205 52.97058201 -2.37669426 52.87443525 1 54 C1 53.34 1 52.68 1 52 C-0.485 51.505 -0.485 51.505 -2 51 C-1.67 50.01 -1.34 49.02 -1 48 C-0.34 48.33 0.32 48.66 1 49 C0.67 49.66 0.34 50.32 0 51 C1.98 51.33 3.96 51.66 6 52 C6 52.66 6 53.32 6 54 C6.66 53.34 7.32 52.68 8 52 C7.38125 51.7525 6.7625 51.505 6.125 51.25 C4 50 4 50 3.125 48.1875 C1.9243613 45.85292476 0.91783401 45.02212825 -1.125 43.4375 C-2.07375 42.633125 -3.0225 41.82875 -4 41 C-4 40.01 -4 39.02 -4 38 C-3 38 -2 38 -1 38 C-1 37.01 -1 36.02 -1 35 C-1.66 34.34 -2.32 33.68 -3 33 C-2.34 31.68 -1.68 30.36 -1 29 C-2.32 28.67 -3.64 28.34 -5 28 C-4.505 23.545 -4.505 23.545 -4 19 C-4.969375 18.71125 -5.93875 18.4225 -6.9375 18.125 C-10 17 -10 17 -11 15 C-10.375 13 -10.375 13 -9 11 C-6.375 9.75 -6.375 9.75 -4 9 C-4.66 8.67 -5.32 8.34 -6 8 C-5.34 8 -4.68 8 -4 8 C-4 7.34 -4 6.68 -4 6 C-4.66 6 -5.32 6 -6 6 C-5.8125 4.125 -5.8125 4.125 -5 2 C-2.625 0.625 -2.625 0.625 0 0 Z M10 4 C10 4.99 10 5.98 10 7 C11.65 7 13.3 7 15 7 C15 6.34 15 5.68 15 5 C13.35 4.67 11.7 4.34 10 4 Z M19 6 C20 8 20 8 20 8 Z M13 10 C13.33 10.99 13.66 11.98 14 13 C14.33 12.01 14.66 11.02 15 10 C14.34 10 13.68 10 13 10 Z M9 20 C9 20.66 9 21.32 9 22 C9.66 21.67 10.32 21.34 11 21 C10.34 20.67 9.68 20.34 9 20 Z M-3 24 C-3.33 24.66 -3.66 25.32 -4 26 C-3.34 26.66 -2.68 27.32 -2 28 C-1.67 26.68 -1.34 25.36 -1 24 C-1.66 24 -2.32 24 -3 24 Z M7 25 C6.67 25.66 6.34 26.32 6 27 C7.65 26.67 9.3 26.34 11 26 C9.68 25.67 8.36 25.34 7 25 Z M8 44 C9 46 9 46 9 46 Z M9 47 C9.66 47.66 10.32 48.32 11 49 C11 48.34 11 47.68 11 47 C10.34 47 9.68 47 9 47 Z M-5 63 C-4 65 -4 65 -4 65 Z " fill="#E8D8CD" transform="translate(70,152)"/>
<path d="M0 0 C0 6.93 0 13.86 0 21 C-0.99 21 -1.98 21 -3 21 C-2.34 21.33 -1.68 21.66 -1 22 C-1 26 -1 26 -2 28 C-2.66 28.33 -3.32 28.66 -4 29 C-4.66 28.67 -5.32 28.34 -6 28 C-5.67 29.98 -5.34 31.96 -5 34 C-7.475 34.495 -7.475 34.495 -10 35 C-10.33 35.99 -10.66 36.98 -11 38 C-12.98 38 -14.96 38 -17 38 C-17 38.66 -17 39.32 -17 40 C-17.598125 40.061875 -18.19625 40.12375 -18.8125 40.1875 C-21.87143458 41.3236757 -22.55041099 43.17330142 -24 46 C-24.99 45.67 -25.98 45.34 -27 45 C-26.34 45 -25.68 45 -25 45 C-24.74476562 43.96939453 -24.74476562 43.96939453 -24.484375 42.91796875 C-24.24203125 42.01691406 -23.9996875 41.11585938 -23.75 40.1875 C-23.51796875 39.29417969 -23.2859375 38.40085938 -23.046875 37.48046875 C-21.82167904 34.57748579 -20.68640911 33.58742357 -18 32 C-15.25 31.3125 -15.25 31.3125 -13 31 C-14.09798661 29.68810584 -14.09798661 29.68810584 -16.8125 29.75 C-19.96966833 29.70656762 -19.96966833 29.70656762 -21.875 31.4375 C-25.077049 33.79194779 -28.0726577 33.67272147 -32 34 C-30.37835853 30.75671706 -27.15364305 29.52660428 -24 28 C-20.59500205 26.97058201 -18.37669426 26.87443525 -15 28 C-15 27.34 -15 26.68 -15 26 C-15.99 25.67 -16.98 25.34 -18 25 C-17.67 24.01 -17.34 23.02 -17 22 C-16.34 22.33 -15.68 22.66 -15 23 C-15.33 23.66 -15.66 24.32 -16 25 C-14.02 25.33 -12.04 25.66 -10 26 C-10 26.66 -10 27.32 -10 28 C-9.34 27.34 -8.68 26.68 -8 26 C-8.61875 25.7525 -9.2375 25.505 -9.875 25.25 C-12 24 -12 24 -12.875 22.1875 C-14.0756387 19.85292476 -15.08216599 19.02212825 -17.125 17.4375 C-18.07375 16.633125 -19.0225 15.82875 -20 15 C-20 14.01 -20 13.02 -20 12 C-19 12 -18 12 -17 12 C-14.87953208 8.46588679 -14.46800711 5.05606165 -14 1 C-13.34 1 -12.68 1 -12 1 C-12 1.66 -12 2.32 -12 3 C-11.319375 2.505 -10.63875 2.01 -9.9375 1.5 C-7 0 -7 0 0 0 Z M-8 18 C-7 20 -7 20 -7 20 Z M-7 21 C-6.34 21.66 -5.68 22.32 -5 23 C-5 22.34 -5 21.68 -5 21 C-5.66 21 -6.32 21 -7 21 Z M-21 37 C-20 39 -20 39 -20 39 Z " fill="#DFD6D0" transform="translate(86,178)"/>
<path d="M0 0 C1.72327319 2.9901855 2.25156728 5.12033978 2.1875 8.5625 C2.18105469 9.32691406 2.17460938 10.09132812 2.16796875 10.87890625 C2 13 2 13 1 16 C1.66 16.33 2.32 16.66 3 17 C4.43440058 19.86880117 5 22.79514913 5 26 C4.34 26 3.68 26 3 26 C2.7525 25.360625 2.505 24.72125 2.25 24.0625 C1.18437567 21.81258459 1.18437567 21.81258459 -1.125 21.25 C-1.74375 21.1675 -2.3625 21.085 -3 21 C-3 20.01 -3 19.02 -3 18 C-6.3 18 -9.6 18 -13 18 C-15 14 -15 14 -14.1875 11.3125 C-11.2534016 8.21073883 -8.99968048 8.28706248 -4.86328125 8.04296875 C-4.24839844 8.02878906 -3.63351563 8.01460937 -3 8 C-3.061875 7.05125 -3.12375 6.1025 -3.1875 5.125 C-3.125625 4.09375 -3.06375 3.0625 -3 2 C-2.01 1.34 -1.02 0.68 0 0 Z " fill="#969697" transform="translate(93,155)"/>
<path d="M0 0 C0.66 0.33 1.32 0.66 2 1 C1.67 1.66 1.34 2.32 1 3 C3.97 3.495 3.97 3.495 7 4 C6.67 4.99 6.34 5.98 6 7 C7.65 7 9.3 7 11 7 C11.33 8.65 11.66 10.3 12 12 C10.35 12.33 8.7 12.66 7 13 C6.67 13.99 6.34 14.98 6 16 C4.02 16 2.04 16 0 16 C0 16.66 0 17.32 0 18 C-0.598125 18.061875 -1.19625 18.12375 -1.8125 18.1875 C-4.87143458 19.3236757 -5.55041099 21.17330142 -7 24 C-7.99 23.67 -8.98 23.34 -10 23 C-9.34 23 -8.68 23 -8 23 C-7.82984375 22.31292969 -7.6596875 21.62585938 -7.484375 20.91796875 C-7.24203125 20.01691406 -6.9996875 19.11585938 -6.75 18.1875 C-6.40195312 16.84751953 -6.40195312 16.84751953 -6.046875 15.48046875 C-4.82167904 12.57748579 -3.68640911 11.58742357 -1 10 C1.75 9.3125 1.75 9.3125 4 9 C2.90201339 7.68810584 2.90201339 7.68810584 0.1875 7.75 C-2.96966833 7.70656762 -2.96966833 7.70656762 -4.875 9.4375 C-8.077049 11.79194779 -11.0726577 11.67272147 -15 12 C-13.37835853 8.75671706 -10.15364305 7.52660428 -7 6 C-3.59500205 4.97058201 -1.37669426 4.87443525 2 6 C2 5.34 2 4.68 2 4 C1.01 3.67 0.02 3.34 -1 3 C-0.67 2.01 -0.34 1.02 0 0 Z M-4 15 C-3 17 -3 17 -3 17 Z " fill="#CAE1F0" transform="translate(69,200)"/>
<path d="M0 0 C0.02888514 3.14581423 0.04675923 6.29159469 0.0625 9.4375 C0.07087891 10.33533203 0.07925781 11.23316406 0.08789062 12.15820312 C0.09111328 13.01220703 0.09433594 13.86621094 0.09765625 14.74609375 C0.10289307 15.53685303 0.10812988 16.3276123 0.11352539 17.14233398 C0 19 0 19 -1 20 C-2.66617115 20.04063832 -4.33388095 20.042721 -6 20 C-6 18.35 -6 16.7 -6 15 C-6.66 15 -7.32 15 -8 15 C-8 12.03 -8 9.06 -8 6 C-8.66 6 -9.32 6 -10 6 C-10 4.35 -10 2.7 -10 1 C-6.52674819 -0.1577506 -3.63932552 -0.06866652 0 0 Z " fill="#66B5EC" transform="translate(86,178)"/>
<path d="M0 0 C6.75 0.75 6.75 0.75 9 3 C9.34153937 4.66500443 9.67449498 6.33178677 10 8 C10.99 9.485 10.99 9.485 12 11 C10.37660195 12.70884005 8.70680947 14.37446717 7 16 C6.34 16 5.68 16 5 16 C5 16.99 5 17.98 5 19 C3.0625 18.25 3.0625 18.25 1 17 C0.3125 15.0625 0.3125 15.0625 0 13 C-0.33 12.01 -0.66 11.02 -1 10 C-0.01 9.34 0.98 8.68 2 8 C2 4.79604584 1.25664978 2.90600261 0 0 Z M5 3 C6 5 6 5 6 5 Z M4 8 C5 10 5 10 5 10 Z M6 9 C6.99 10.32 7.98 11.64 9 13 C9.33 12.01 9.66 11.02 10 10 C8.68 9.67 7.36 9.34 6 9 Z " fill="#A1C7E3" transform="translate(506,226)"/>
<path d="M0 0 C1.77503906 0.03480469 1.77503906 0.03480469 3.5859375 0.0703125 C5.36871094 0.09738281 5.36871094 0.09738281 7.1875 0.125 C8.10273437 0.14820313 9.01796875 0.17140625 9.9609375 0.1953125 C10.18178374 6.29312251 9.97261425 11.41174185 7.9609375 17.1953125 C7.6309375 17.1953125 7.3009375 17.1953125 6.9609375 17.1953125 C6.6309375 13.5653125 6.3009375 9.9353125 5.9609375 6.1953125 C2.3309375 5.8653125 -1.2990625 5.5353125 -5.0390625 5.1953125 C-5.0390625 0.98675239 -4.16473689 0.26765661 0 0 Z " fill="#FBFBFB" transform="translate(80.0390625,172.8046875)"/>
<path d="M0 0 C0.9796875 0.10699219 1.959375 0.21398437 2.96875 0.32421875 C4.43828125 0.47310547 4.43828125 0.47310547 5.9375 0.625 C8.46875 1.01171875 8.46875 1.01171875 10.46875 2.01171875 C10.46875 4.32171875 10.46875 6.63171875 10.46875 9.01171875 C7.82875 9.01171875 5.18875 9.01171875 2.46875 9.01171875 C2.46875 8.35171875 2.46875 7.69171875 2.46875 7.01171875 C1.47875 7.01171875 0.48875 7.01171875 -0.53125 7.01171875 C-0.86125 6.35171875 -1.19125 5.69171875 -1.53125 5.01171875 C-2.19125 6.33171875 -2.85125 7.65171875 -3.53125 9.01171875 C-3.86125 9.01171875 -4.19125 9.01171875 -4.53125 9.01171875 C-4.65625 5.63671875 -4.65625 5.63671875 -4.53125 2.01171875 C-2.53125 0.01171875 -2.53125 0.01171875 0 0 Z M0.46875 2.01171875 C0.46875 3.00171875 0.46875 3.99171875 0.46875 5.01171875 C2.11875 5.01171875 3.76875 5.01171875 5.46875 5.01171875 C5.46875 4.35171875 5.46875 3.69171875 5.46875 3.01171875 C3.81875 2.68171875 2.16875 2.35171875 0.46875 2.01171875 Z " fill="#FDFCFB" transform="translate(79.53125,153.98828125)"/>
<path d="M0 0 C1.72327319 2.9901855 2.25156728 5.12033978 2.1875 8.5625 C2.18105469 9.32691406 2.17460938 10.09132812 2.16796875 10.87890625 C2 13 2 13 1 16 C1.66 16.33 2.32 16.66 3 17 C4.43440058 19.86880117 5 22.79514913 5 26 C4.34 26 3.68 26 3 26 C2.71125 25.360625 2.4225 24.72125 2.125 24.0625 C1.17176549 21.84793921 1.17176549 21.84793921 -1 21 C-2.23915102 17.28254693 -2.18407713 13.80876619 -2.1875 9.9375 C-2.19974609 9.20466797 -2.21199219 8.47183594 -2.22460938 7.71679688 C-2.22986299 5.80973493 -2.12218272 3.90315114 -2 2 C-1.34 1.34 -0.68 0.68 0 0 Z " fill="#232224" transform="translate(93,155)"/>
<path d="M0 0 C2.86331684 0.52060306 5.53522406 1.17167564 8.3125 2.0625 C12.45036388 3.11449929 15.75313177 3.14901292 20 3 C20 4.32 20 5.64 20 7 C17.89651926 7.19504458 15.79217415 7.38078496 13.6875 7.5625 C12.51574219 7.66691406 11.34398437 7.77132812 10.13671875 7.87890625 C7 8 7 8 4 7 C2.8125 4.9375 2.8125 4.9375 2 3 C1.34 3 0.68 3 0 3 C0 2.01 0 1.02 0 0 Z " fill="#E5BA99" transform="translate(161,116)"/>
<path d="M0 0 C0.33 0 0.66 0 1 0 C1 1.65 1 3.3 1 5 C2.98 5 4.96 5 7 5 C6.01 5.33 5.02 5.66 4 6 C4.66 6.33 5.32 6.66 6 7 C6 11 6 11 5 13 C2.6859378 13.73075648 0.35171131 14.40138258 -2 15 C-2.33 14.34 -2.66 13.68 -3 13 C-2.34 12.34 -1.68 11.68 -1 11 C-1.639375 10.731875 -2.27875 10.46375 -2.9375 10.1875 C-5 9 -5 9 -6 6 C-5.01 5.67 -4.02 5.34 -3 5 C-1.8499169 3.03327085 -1.8499169 3.03327085 -1 1 C-0.67 0.67 -0.34 0.34 0 0 Z M0 6 C0.66 6.66 1.32 7.32 2 8 C2 7.34 2 6.68 2 6 C1.34 6 0.68 6 0 6 Z " fill="#ECD9CD" transform="translate(79,193)"/>
<path d="M0 0 C0.99 0.66 1.98 1.32 3 2 C3.99 2.33 4.98 2.66 6 3 C5.01 3.33 4.02 3.66 3 4 C3 6.31 3 8.62 3 11 C2.34 11 1.68 11 1 11 C1 9.35 1 7.7 1 6 C0.34 6 -0.32 6 -1 6 C-1.33 7.65 -1.66 9.3 -2 11 C-2.66 11 -3.32 11 -4 11 C-4 10.34 -4 9.68 -4 9 C-4.66 8.67 -5.32 8.34 -6 8 C-5.34 8 -4.68 8 -4 8 C-4 7.34 -4 6.68 -4 6 C-4.66 6 -5.32 6 -6 6 C-5.8125 4.125 -5.8125 4.125 -5 2 C-2.625 0.625 -2.625 0.625 0 0 Z " fill="#FCFAF8" transform="translate(70,152)"/>
<path d="M0 0 C0.66 0.33 1.32 0.66 2 1 C1.67 1.66 1.34 2.32 1 3 C3.97 3.495 3.97 3.495 7 4 C7 5.32 7 6.64 7 8 C6.34 8.66 5.68 9.32 5 10 C4.34 9.34 3.68 8.68 3 8 C-1.23724501 7.51941582 -1.23724501 7.51941582 -4.875 9.4375 C-8.077049 11.79194779 -11.0726577 11.67272147 -15 12 C-13.37835853 8.75671706 -10.15364305 7.52660428 -7 6 C-3.59500205 4.97058201 -1.37669426 4.87443525 2 6 C2 5.34 2 4.68 2 4 C1.01 3.67 0.02 3.34 -1 3 C-0.67 2.01 -0.34 1.02 0 0 Z " fill="#D5E1EA" transform="translate(69,200)"/>
<path d="M0 0 C0.99 0 1.98 0 3 0 C3.66 0.99 4.32 1.98 5 3 C7.56282742 3.72965366 7.56282742 3.72965366 10 4 C10 5.65 10 7.3 10 9 C10.33 8.34 10.66 7.68 11 7 C11.99 7 12.98 7 14 7 C14.33 8.65 14.66 10.3 15 12 C10.94568308 13.15837626 8.78187881 12.83691257 5 11 C5.66 10.67 6.32 10.34 7 10 C7 9.01 7 8.02 7 7 C5.35 6.67 3.7 6.34 2 6 C2 4.35 2 2.7 2 1 C1.34 0.67 0.68 0.34 0 0 Z " fill="#D7D5D5" transform="translate(40,208)"/>
<path d="M0 0 C-0.66 0 -1.32 0 -2 0 C-2 0.66 -2 1.32 -2 2 C-1.01 2.66 -0.02 3.32 1 4 C-0.98 4.33 -2.96 4.66 -5 5 C-5 4.34 -5 3.68 -5 3 C-5.99 3 -6.98 3 -8 3 C-8 3.66 -8 4.32 -8 5 C-7.34 5.66 -6.68 6.32 -6 7 C-6.99 7 -7.98 7 -9 7 C-9.33 7.66 -9.66 8.32 -10 9 C-10.66 9 -11.32 9 -12 9 C-11.1875 6.0625 -11.1875 6.0625 -10 3 C-9.01 2.67 -8.02 2.34 -7 2 C-7.33 1.01 -7.66 0.02 -8 -1 C-4.59745511 -2.2151946 -3.06748874 -1.86240388 0 0 Z M-4 -1 C-3 1 -3 1 -3 1 Z " fill="#86878A" transform="translate(580,199)"/>
<path d="M0 0 C0.99 0 1.98 0 3 0 C3.33 1.65 3.66 3.3 4 5 C2.35 5.33 0.7 5.66 -1 6 C-1.33 6.99 -1.66 7.98 -2 9 C-3.98 9 -5.96 9 -8 9 C-8 9.66 -8 10.32 -8 11 C-8.99 10.67 -9.98 10.34 -11 10 C-8.61426621 8.10786631 -6.92824652 6.97608217 -4 6 C-3.01 4.4840625 -3.01 4.4840625 -2 2.9375 C-1.34 1.968125 -0.68 0.99875 0 0 Z " fill="#66B4EB" transform="translate(77,207)"/>
<path d="M0 0 C2.43542455 1.90598443 3.00158196 3.00596275 3.8125 6.0625 C3.874375 7.031875 3.93625 8.00125 4 9 C3.34 9.66 2.68 10.32 2 11 C-2.6875 7.38671875 -2.6875 7.38671875 -4 6 C-4 5.01 -4 4.02 -4 3 C-3 3 -2 3 -1 3 C-0.67 2.01 -0.34 1.02 0 0 Z " fill="#5FB3EE" transform="translate(70,187)"/>
<path d="M0 0 C3 1 3 1 4.25 3.4375 C5 6 5 6 4 8 C1.9375 8.625 1.9375 8.625 0 9 C-1.32 7.35 -2.64 5.7 -4 4 C-2.66666667 2.66666667 -1.33333333 1.33333333 0 0 Z " fill="#5B6A7B" transform="translate(402,271)"/>
<path d="M0 0 C6.93 0 13.86 0 21 0 C21.33 0.66 21.66 1.32 22 2 C21.40985107 1.99476318 20.81970215 1.98952637 20.21166992 1.98413086 C17.53695745 1.96333953 14.86226199 1.95033299 12.1875 1.9375 C10.7943457 1.92493164 10.7943457 1.92493164 9.37304688 1.91210938 C8.48037109 1.90888672 7.58769531 1.90566406 6.66796875 1.90234375 C5.84578857 1.89710693 5.0236084 1.89187012 4.17651367 1.88647461 C1.81827404 1.91258476 1.81827404 1.91258476 -1 3 C-0.67 2.01 -0.34 1.02 0 0 Z " fill="#181819" transform="translate(57,306)"/>
<path d="M0 0 C1.32 0.33 2.64 0.66 4 1 C3.01 1 2.02 1 1 1 C1.66 1.33 2.32 1.66 3 2 C3 6 3 6 2 8 C-0.3140622 8.73075648 -2.64828869 9.40138258 -5 10 C-5.33 9.34 -5.66 8.68 -6 8 C-5.071875 7.4121875 -5.071875 7.4121875 -4.125 6.8125 C-1.67503632 4.72282509 -0.98120002 3.02536673 0 0 Z " fill="#E6EAED" transform="translate(82,198)"/>
<path d="M0 0 C3.63 0 7.26 0 11 0 C11 0.99 11 1.98 11 3 C8.36 2.67 5.72 2.34 3 2 C2.67 2.66 2.34 3.32 2 4 C1.01 3.67 0.02 3.34 -1 3 C-0.67 2.01 -0.34 1.02 0 0 Z " fill="#171719" transform="translate(64,311)"/>
<path d="M0 0 C0.66 0 1.32 0 2 0 C2 0.66 2 1.32 2 2 C2.66 2 3.32 2 4 2 C4 4.64 4 7.28 4 10 C3.01 10.495 3.01 10.495 2 11 C-0.32590854 7.36576791 -0.16265833 4.22911669 0 0 Z " fill="#F0D6C5" transform="translate(72,179)"/>
<path d="M0 0 C1.66611905 -0.042721 3.33382885 -0.04063832 5 0 C6 1 6 1 6.25 3.9375 C6.1675 4.948125 6.085 5.95875 6 7 C5.01 7.66 4.02 8.32 3 9 C2.34 8.34 1.68 7.68 1 7 C1.66 5.68 2.32 4.36 3 3 C1.68 2.67 0.36 2.34 -1 2 C-0.67 1.34 -0.34 0.68 0 0 Z " fill="#92B3C9" transform="translate(66,178)"/>
<path d="M0 0 C3.3 0 6.6 0 10 0 C9.01 0.66 8.02 1.32 7 2 C7 2.66 7 3.32 7 4 C4.125 4.125 4.125 4.125 1 4 C0.34 3.34 -0.32 2.68 -1 2 C-0.67 1.34 -0.34 0.68 0 0 Z " fill="#747980" transform="translate(388,285)"/>
<path d="M0 0 C1.32 0.33 2.64 0.66 4 1 C4.12375 1.763125 4.2475 2.52625 4.375 3.3125 C4.88102792 6.20267136 4.88102792 6.20267136 7 9 C6.01 9.66 5.02 10.32 4 11 C3.67 10.01 3.34 9.02 3 8 C2.34 7.67 1.68 7.34 1 7 C0.59270772 4.67843403 0.25561323 2.3431213 0 0 Z " fill="#8ABEE4" transform="translate(511,228)"/>
<path d="M0 0 C0.66 0 1.32 0 2 0 C5.875 6.75 5.875 6.75 7 9 C0.25 7.375 0.25 7.375 -2 4 C-1.34 2.68 -0.68 1.36 0 0 Z " fill="#9A8868" transform="translate(61,163)"/>
<path d="M0 0 C0.66 0 1.32 0 2 0 C2.66 1.98 3.32 3.96 4 6 C3.34 6 2.68 6 2 6 C1.67 5.67 1.34 5.34 1 5 C0.01 5.99 -0.98 6.98 -2 8 C-2.66 7.34 -3.32 6.68 -4 6 C-3.34 5.34 -2.68 4.68 -2 4 C-2 3.34 -2 2.68 -2 2 C-1.34 1.34 -0.68 0.68 0 0 Z " fill="#90A3AD" transform="translate(12,183)"/>
<path d="M0 0 C2.475 0.99 2.475 0.99 5 2 C5 3.32 5 4.64 5 6 C3.68 6.33 2.36 6.66 1 7 C-1 4 -1 4 -0.625 1.8125 C-0.41875 1.214375 -0.2125 0.61625 0 0 Z " fill="#C0B5A9" transform="translate(64,162)"/>
<path d="M0 0 C0.66 0 1.32 0 2 0 C2 1.65 2 3.3 2 5 C2.66 5 3.32 5 4 5 C4 5.99 4 6.98 4 8 C3.34 8 2.68 8 2 8 C1.67 8.99 1.34 9.98 1 11 C0.34 10.67 -0.32 10.34 -1 10 C-0.67 6.7 -0.34 3.4 0 0 Z " fill="#DCCFC4" transform="translate(69,158)"/>
<path d="M0 0 C1.0326802 2.78823655 1.04509293 3.8677274 0.0625 6.75 C-0.288125 7.4925 -0.63875 8.235 -1 9 C-1.99 9 -2.98 9 -4 9 C-4 6.69 -4 4.38 -4 2 C-2.68 1.34 -1.36 0.68 0 0 Z " fill="#78747A" transform="translate(100,159)"/>
<path d="M0 0 C2.875 0.3125 2.875 0.3125 6 1 C6.66 1.99 7.32 2.98 8 4 C7.34 5.32 6.68 6.64 6 8 C5.34 7.01 4.68 6.02 4 5 C1.94074861 4.27617533 1.94074861 4.27617533 0 4 C0 2.68 0 1.36 0 0 Z " fill="#858486" transform="translate(404,290)"/>
<path d="M0 0 C7.26 0 14.52 0 22 0 C22 0.33 22 0.66 22 1 C14.74 1 7.48 1 0 1 C0 0.67 0 0.34 0 0 Z " fill="#5B6B7B" transform="translate(401,268)"/>
<path d="M0 0 C1.79244141 0.01740234 1.79244141 0.01740234 3.62109375 0.03515625 C5.41740234 0.04869141 5.41740234 0.04869141 7.25 0.0625 C8.17683594 0.07410156 9.10367188 0.08570313 10.05859375 0.09765625 C10.05859375 0.75765625 10.05859375 1.41765625 10.05859375 2.09765625 C4.71236411 3.21663455 1.18278824 2.80572108 -3.94140625 1.09765625 C-2.94140625 0.09765625 -2.94140625 0.09765625 0 0 Z " fill="#87C6F0" transform="translate(519.94140625,226.90234375)"/>
<path d="M0 0 C0.33 0 0.66 0 1 0 C1 2.97 1 5.94 1 9 C-0.32 8.34 -1.64 7.68 -3 7 C-3 6.01 -3 5.02 -3 4 C-2.34 4 -1.68 4 -1 4 C-0.67 2.68 -0.34 1.36 0 0 Z " fill="#949DA0" transform="translate(510,236)"/>
<path d="M0 0 C0.99 0 1.98 0 3 0 C3.33 1.65 3.66 3.3 4 5 C2.35 5.33 0.7 5.66 -1 6 C-0.67 4.02 -0.34 2.04 0 0 Z " fill="#F4F1F4" transform="translate(51,215)"/>
<path d="M0 0 C2.52259061 1.97420135 2.9929808 2.96745642 3.6875 6.1875 C3.790625 7.115625 3.89375 8.04375 4 9 C1.4375 6.75 1.4375 6.75 -1 4 C-0.8125 1.6875 -0.8125 1.6875 0 0 Z " fill="#70B3E3" transform="translate(70,187)"/>
<path d="M0 0 C1.32 0.66 2.64 1.32 4 2 C4 2.66 4 3.32 4 4 C3.34 4 2.68 4 2 4 C1.67 4.66 1.34 5.32 1 6 C0.34 5.34 -0.32 4.68 -1 4 C-0.625 1.875 -0.625 1.875 0 0 Z " fill="#B1B1B2" transform="translate(146,243)"/>
<path d="M0 0 C2.86724686 0.57344937 3.8614515 0.8614515 6 3 C3.69 3.33 1.38 3.66 -1 4 C-0.67 2.68 -0.34 1.36 0 0 Z " fill="#5EB3EE" transform="translate(77,213)"/>
<path d="M0 0 C-0.33 0.66 -0.66 1.32 -1 2 C-3.3140622 2.73075648 -5.64828869 3.40138258 -8 4 C-8.33 3.34 -8.66 2.68 -9 2 C-5.5647952 -0.29013653 -4.014669 -0.17842973 0 0 Z " fill="#F2EBE8" transform="translate(85,204)"/>
<path d="M0 0 C0.66 0.33 1.32 0.66 2 1 C1.34 2.98 0.68 4.96 0 7 C-0.99 7 -1.98 7 -3 7 C-1.125 1.125 -1.125 1.125 0 0 Z " fill="#A09C97" transform="translate(81,164)"/>
<path d="M0 0 C2.97 0 5.94 0 9 0 C9.33 0.66 9.66 1.32 10 2 C7.03 2 4.06 2 1 2 C0.67 1.34 0.34 0.68 0 0 Z " fill="#181819" transform="translate(76,311)"/>
<path d="M0 0 C0.33 0.66 0.66 1.32 1 2 C-3.62 2 -8.24 2 -13 2 C-13 1.67 -13 1.34 -13 1 C-6.565 0.505 -6.565 0.505 0 0 Z " fill="#181819" transform="translate(49,303)"/>
<path d="M0 0 C0.99 0.33 1.98 0.66 3 1 C3 1.66 3 2.32 3 3 C2.34 3 1.68 3 1 3 C1 5.31 1 7.62 1 10 C0.67 10 0.34 10 0 10 C-0.19412181 8.52168779 -0.38012131 7.04230684 -0.5625 5.5625 C-0.66691406 4.73878906 -0.77132813 3.91507812 -0.87890625 3.06640625 C-0.91886719 2.38449219 -0.95882813 1.70257813 -1 1 C-0.67 0.67 -0.34 0.34 0 0 Z " fill="#828186" transform="translate(400,288)"/>
<path d="M0 0 C0.99 0 1.98 0 3 0 C3.33 1.32 3.66 2.64 4 4 C1.69 4.33 -0.62 4.66 -3 5 C-2 3 -2 3 0 0 Z " fill="#818387" transform="translate(564,131)"/>
<path d="M0 0 C0.66 0.33 1.32 0.66 2 1 C1.67 2.32 1.34 3.64 1 5 C-1.31 4.67 -3.62 4.34 -6 4 C-6 3.67 -6 3.34 -6 3 C-4.35 3 -2.7 3 -1 3 C-0.67 2.01 -0.34 1.02 0 0 Z " fill="#656874" transform="translate(433,283)"/>
<path d="M0 0 C4.29 0 8.58 0 13 0 C13 0.33 13 0.66 13 1 C8.71 1 4.42 1 0 1 C0 0.67 0 0.34 0 0 Z " fill="#181819" transform="translate(36,299)"/>
<path d="M0 0 C2.475 0.495 2.475 0.495 5 1 C4.67 1.99 4.34 2.98 4 4 C2.68 3.67 1.36 3.34 0 3 C0 2.01 0 1.02 0 0 Z " fill="#646E7D" transform="translate(412,281)"/>
<path d="M0 0 C-2.63904371 1.41377341 -5.07120629 2.37240135 -8 3 C-8 2.34 -8 1.68 -8 1 C-5.29120665 -0.35439668 -2.99066732 -0.06501451 0 0 Z " fill="#D9D9C9" transform="translate(536,275)"/>
<path d="M0 0 C2.64 0 5.28 0 8 0 C7.67 0.66 7.34 1.32 7 2 C4.69 2 2.38 2 0 2 C0 1.34 0 0.68 0 0 Z " fill="#E8DDD7" transform="translate(41,205)"/>
<path d="M0 0 C1.98 0 3.96 0 6 0 C5.67 0.66 5.34 1.32 5 2 C3.02 2 1.04 2 -1 2 C-0.67 1.34 -0.34 0.68 0 0 Z " fill="#F9F9F9" transform="translate(563,282)"/>
<path d="M0 0 C1.32 0.66 2.64 1.32 4 2 C2.02 2.99 2.02 2.99 0 4 C0 2.68 0 1.36 0 0 Z " fill="#802C52" transform="translate(369,270)"/>
<path d="M0 0 C0.99 0.99 1.98 1.98 3 3 C1.35 3.33 -0.3 3.66 -2 4 C-2.33 3.01 -2.66 2.02 -3 1 C-2.01 0.67 -1.02 0.34 0 0 Z " fill="#5D6B7A" transform="translate(394,269)"/>
<path d="M0 0 C1.32 0.66 2.64 1.32 4 2 C2.02 2.99 2.02 2.99 0 4 C-0.33 3.34 -0.66 2.68 -1 2 C-0.67 1.34 -0.34 0.68 0 0 Z " fill="#5A6A7B" transform="translate(380,281)"/>
<path d="M0 0 C1.32 0 2.64 0 4 0 C3.67 0.99 3.34 1.98 3 3 C2.01 2.67 1.02 2.34 0 2 C0 1.34 0 0.68 0 0 Z " fill="#E7E4DE" transform="translate(523,275)"/>
<path d="M0 0 C0.99 0.99 1.98 1.98 3 3 C1.02 3.99 1.02 3.99 -1 5 C-1.33 4.34 -1.66 3.68 -2 3 C-1.34 3 -0.68 3 0 3 C0 2.01 0 1.02 0 0 Z " fill="#61B2EB" transform="translate(65,219)"/>
<path d="M0 0 C0.99 0.66 1.98 1.32 3 2 C2 3 2 3 -0.5625 3.0625 C-1.7690625 3.0315625 -1.7690625 3.0315625 -3 3 C-2.01 2.01 -1.02 1.02 0 0 Z " fill="#77B5DF" transform="translate(16,192)"/>
<path d="M0 0 C2.97 0 5.94 0 9 0 C9 0.33 9 0.66 9 1 C6.03 1 3.06 1 0 1 C0 0.67 0 0.34 0 0 Z " fill="#181819" transform="translate(39,307)"/>
<path d="M0 0 C0.66 0 1.32 0 2 0 C2 0.99 2 1.98 2 3 C0.68 2.67 -0.64 2.34 -2 2 C-1.34 1.34 -0.68 0.68 0 0 Z " fill="#BBBCBC" transform="translate(563,288)"/>
<path d="M0 0 C0.33 0 0.66 0 1 0 C1 2.97 1 5.94 1 9 C0.67 9 0.34 9 0 9 C0 6.03 0 3.06 0 0 Z " fill="#858484" transform="translate(425,289)"/>
<path d="M0 0 C0.33 0 0.66 0 1 0 C1 2.97 1 5.94 1 9 C0.67 9 0.34 9 0 9 C0 6.03 0 3.06 0 0 Z " fill="#858484" transform="translate(423,289)"/>
<path d="M0 0 C1.9375 0.375 1.9375 0.375 4 1 C4.33 1.66 4.66 2.32 5 3 C3.0625 2.625 3.0625 2.625 1 2 C0.67 1.34 0.34 0.68 0 0 Z " fill="#81757E" transform="translate(405,287)"/>
<path d="M0 0 C0.66 0.99 1.32 1.98 2 3 C0.35 3.33 -1.3 3.66 -3 4 C-2.01 2.68 -1.02 1.36 0 0 Z " fill="#72757C" transform="translate(420,284)"/>
<path d="M0 0 C1.32 0.66 2.64 1.32 4 2 C3.34 2.66 2.68 3.32 2 4 C2 3.34 2 2.68 2 2 C1.01 2.33 0.02 2.66 -1 3 C-0.67 2.01 -0.34 1.02 0 0 Z " fill="#5D6C7C" transform="translate(405,281)"/>
<path d="M0 0 C-3.01031744 0.93423645 -3.86650268 1.04449911 -7 0 C-4.3333581 -1.33332095 -2.83319697 -0.67102033 0 0 Z " fill="#62707F" transform="translate(397,282)"/>
<path d="M0 0 C2.475 0.495 2.475 0.495 5 1 C5 1.33 5 1.66 5 2 C3.35 2 1.7 2 0 2 C0 1.34 0 0.68 0 0 Z " fill="#E9E5E1" transform="translate(518,275)"/>
<path d="M0 0 C1.32 0.33 2.64 0.66 4 1 C3.01 2.485 3.01 2.485 2 4 C1.34 2.68 0.68 1.36 0 0 Z " fill="#625B70" transform="translate(377,271)"/>
<path d="M0 0 C1.98 0.99 1.98 0.99 4 2 C3.01 3.485 3.01 3.485 2 5 C1.34 3.35 0.68 1.7 0 0 Z " fill="#CDD2D6" transform="translate(47,225)"/>
<path d="M0 0 C3 1 3 1 4 3 C2.35 2.67 0.7 2.34 -1 2 C-0.67 1.34 -0.34 0.68 0 0 Z " fill="#848587" transform="translate(575,189)"/>
<path d="M0 0 C0.78375 0.04125 1.5675 0.0825 2.375 0.125 C0.375 2.125 0.375 2.125 -2.25 2.25 C-3.03375 2.20875 -3.8175 2.1675 -4.625 2.125 C-2.625 0.125 -2.625 0.125 0 0 Z " fill="#858485" transform="translate(579.625,184.875)"/>
<path d="M0 0 C2.475 0.495 2.475 0.495 5 1 C5 1.66 5 2.32 5 3 C4.34 3 3.68 3 3 3 C3 2.34 3 1.68 3 1 C2.01 0.67 1.02 0.34 0 0 Z " fill="#ADD4F1" transform="translate(531,228)"/>
<path d="M0 0 C2.475 0.99 2.475 0.99 5 2 C4.67 2.66 4.34 3.32 4 4 C2.68 2.68 1.36 1.36 0 0 Z " fill="#BDB8B5" transform="translate(40,214)"/>
<path d="M0 0 C0.33 0 0.66 0 1 0 C1 1.98 1 3.96 1 6 C0.34 5.67 -0.32 5.34 -1 5 C-0.67 3.35 -0.34 1.7 0 0 Z " fill="#FDFDFD" transform="translate(89,189)"/>
<path d="M0 0 C0.33 0 0.66 0 1 0 C1 1.65 1 3.3 1 5 C0.34 4.67 -0.32 4.34 -1 4 C-0.67 2.68 -0.34 1.36 0 0 Z " fill="#666268" transform="translate(97,168)"/>
<path d="M0 0 C0.66 0 1.32 0 2 0 C2 2.31 2 4.62 2 7 C1.67 7 1.34 7 1 7 C0.67 4.69 0.34 2.38 0 0 Z " fill="#FDFDFD" transform="translate(101,156)"/>
<path d="M0 0 C0.66 0 1.32 0 2 0 C2 1.32 2 2.64 2 4 C1.34 4 0.68 4 0 4 C0 2.68 0 1.36 0 0 Z " fill="#878586" transform="translate(571,131)"/>
<path d="M0 0 C2.31 0 4.62 0 7 0 C7 0.33 7 0.66 7 1 C4.69 1 2.38 1 0 1 C0 0.67 0 0.34 0 0 Z " fill="#181819" transform="translate(54,311)"/>
<path d="M0 0 C0.33 0 0.66 0 1 0 C1 2.31 1 4.62 1 7 C0.67 7 0.34 7 0 7 C0 4.69 0 2.38 0 0 Z " fill="#858484" transform="translate(398,291)"/>
<path d="M0 0 C1.32 0 2.64 0 4 0 C4 0.66 4 1.32 4 2 C2.68 1.67 1.36 1.34 0 1 C0 0.67 0 0.34 0 0 Z " fill="#F3F1F4" transform="translate(46,236)"/>
<path d="M0 0 C0.99 0.33 1.98 0.66 3 1 C2.67 1.99 2.34 2.98 2 4 C1.34 3.67 0.68 3.34 0 3 C0 2.01 0 1.02 0 0 Z " fill="#C2C9D0" transform="translate(42,230)"/>
<path d="M0 0 C0.33 0 0.66 0 1 0 C1 1.98 1 3.96 1 6 C0.34 5.67 -0.32 5.34 -1 5 C-0.67 3.35 -0.34 1.7 0 0 Z " fill="#6D91B4" transform="translate(37,230)"/>
<path d="M0 0 C0.66 0.33 1.32 0.66 2 1 C0.35 1.66 -1.3 2.32 -3 3 C-2.01 2.01 -1.02 1.02 0 0 Z " fill="#F4F2F4" transform="translate(52,221)"/>
<path d="M0 0 C0.33 0.99 0.66 1.98 1 3 C-0.32 2.34 -1.64 1.68 -3 1 C-2.01 0.67 -1.02 0.34 0 0 Z " fill="#D0D1D1" transform="translate(568,199)"/>
<path d="M0 0 C0.99 0 1.98 0 3 0 C3 1.65 3 3.3 3 5 C2.87625 4.360625 2.7525 3.72125 2.625 3.0625 C2.315625 2.0415625 2.315625 2.0415625 2 1 C1.34 0.67 0.68 0.34 0 0 Z " fill="#504F52" transform="translate(94,198)"/>
<path d="M0 0 C0.66 0.66 1.32 1.32 2 2 C0.68 2.33 -0.64 2.66 -2 3 C-1.34 2.67 -0.68 2.34 0 2 C0 1.34 0 0.68 0 0 Z " fill="#E6E4E6" transform="translate(85,318)"/>
<path d="M0 0 C0.33 1.32 0.66 2.64 1 4 C0.01 3.67 -0.98 3.34 -2 3 C-1.34 3 -0.68 3 0 3 C0 2.01 0 1.02 0 0 Z " fill="#828183" transform="translate(397,287)"/>
<path d="M0 0 C0.99 0 1.98 0 3 0 C2.67 0.99 2.34 1.98 2 3 C1.34 2.01 0.68 1.02 0 0 Z " fill="#74757C" transform="translate(423,286)"/>
<path d="M0 0 C0.99 0 1.98 0 3 0 C2.67 0.99 2.34 1.98 2 3 C1.34 2.67 0.68 2.34 0 2 C0 1.34 0 0.68 0 0 Z " fill="#843C5A" transform="translate(373,274)"/>
<path d="M0 0 C0.99 0.33 1.98 0.66 3 1 C3 1.66 3 2.32 3 3 C2.34 3 1.68 3 1 3 C0.67 2.01 0.34 1.02 0 0 Z " fill="#5B6B7B" transform="translate(423,270)"/>
<path d="M0 0 C1.32 0 2.64 0 4 0 C4 0.66 4 1.32 4 2 C2.68 1.34 1.36 0.68 0 0 Z " fill="#85405E" transform="translate(372,258)"/>
<path d="M0 0 C0.33 1.32 0.66 2.64 1 4 C0.01 4.495 0.01 4.495 -1 5 C-0.67 3.35 -0.34 1.7 0 0 Z " fill="#E0E0DE" transform="translate(32,218)"/>
<path d="M0 0 C0.66 0.99 1.32 1.98 2 3 C0.68 2.67 -0.64 2.34 -2 2 C-1.34 2 -0.68 2 0 2 C0 1.34 0 0.68 0 0 Z " fill="#D3C5BC" transform="translate(36,212)"/>
<path d="M0 0 C0.99 0.33 1.98 0.66 3 1 C2.01 1.66 1.02 2.32 0 3 C0 2.01 0 1.02 0 0 Z " fill="#F8F9FA" transform="translate(60,202)"/>
<path d="M0 0 C0.66 0.66 1.32 1.32 2 2 C1.67 2.66 1.34 3.32 1 4 C0.34 3.67 -0.32 3.34 -1 3 C-0.67 2.01 -0.34 1.02 0 0 Z " fill="#545356" transform="translate(571,187)"/>
<path d="M0 0 C0.66 0 1.32 0 2 0 C2 0.99 2 1.98 2 3 C1.01 2.67 0.02 2.34 -1 2 C-0.67 1.34 -0.34 0.68 0 0 Z " fill="#A38D6C" transform="translate(57,188)"/>
<path d="M0 0 C0.66 0 1.32 0 2 0 C2.33 0.99 2.66 1.98 3 3 C2.01 2.67 1.02 2.34 0 2 C0 1.34 0 0.68 0 0 Z " fill="#69656A" transform="translate(96,186)"/>
<path d="M0 0 C0.99 0.495 0.99 0.495 2 1 C1.67 1.99 1.34 2.98 1 4 C0.67 2.68 0.34 1.36 0 0 Z " fill="#161518" transform="translate(93,184)"/>
<path d="M0 0 C0.99 0.99 1.98 1.98 3 3 C2.01 3 1.02 3 0 3 C0 2.01 0 1.02 0 0 Z " fill="#7C7F84" transform="translate(580,179)"/>
<path d="M0 0 C0.66 0.33 1.32 0.66 2 1 C1.67 1.99 1.34 2.98 1 4 C0.34 3.67 -0.32 3.34 -1 3 C-0.67 2.01 -0.34 1.02 0 0 Z " fill="#977F59" transform="translate(53,167)"/>
<path d="M0 0 C0.66 0.66 1.32 1.32 2 2 C1.01 2 0.02 2 -1 2 C-0.67 1.34 -0.34 0.68 0 0 Z " fill="#D2D2D3" transform="translate(80,318)"/>
<path d="M0 0 C0.66 0.66 1.32 1.32 2 2 C1.01 2 0.02 2 -1 2 C-0.67 1.34 -0.34 0.68 0 0 Z " fill="#D2D2D3" transform="translate(77,318)"/>
<path d="M0 0 C0.66 0.66 1.32 1.32 2 2 C1.01 2 0.02 2 -1 2 C-0.67 1.34 -0.34 0.68 0 0 Z " fill="#D2D2D3" transform="translate(74,318)"/>
<path d="M0 0 C0.66 0.66 1.32 1.32 2 2 C1.01 2 0.02 2 -1 2 C-0.67 1.34 -0.34 0.68 0 0 Z " fill="#D2D2D3" transform="translate(71,318)"/>
<path d="M0 0 C0.66 0.66 1.32 1.32 2 2 C1.01 2 0.02 2 -1 2 C-0.67 1.34 -0.34 0.68 0 0 Z " fill="#D2D2D3" transform="translate(68,318)"/>
<path d="M0 0 C0.66 0.66 1.32 1.32 2 2 C1.01 2 0.02 2 -1 2 C-0.67 1.34 -0.34 0.68 0 0 Z " fill="#D2D2D3" transform="translate(65,318)"/>
<path d="M0 0 C0.66 0.66 1.32 1.32 2 2 C1.01 2 0.02 2 -1 2 C-0.67 1.34 -0.34 0.68 0 0 Z " fill="#D2D2D3" transform="translate(62,318)"/>
<path d="M0 0 C0.66 0.66 1.32 1.32 2 2 C1.01 2 0.02 2 -1 2 C-0.67 1.34 -0.34 0.68 0 0 Z " fill="#D2D2D3" transform="translate(59,318)"/>
<path d="M0 0 C0.66 0.66 1.32 1.32 2 2 C1.01 2 0.02 2 -1 2 C-0.67 1.34 -0.34 0.68 0 0 Z " fill="#D2D2D3" transform="translate(56,318)"/>
<path d="M0 0 C0.66 0.66 1.32 1.32 2 2 C1.01 2 0.02 2 -1 2 C-0.67 1.34 -0.34 0.68 0 0 Z " fill="#D2D2D3" transform="translate(53,318)"/>
<path d="M0 0 C0.66 0.66 1.32 1.32 2 2 C1.01 2 0.02 2 -1 2 C-0.67 1.34 -0.34 0.68 0 0 Z " fill="#D2D2D3" transform="translate(50,318)"/>
<path d="M0 0 C0.66 0.66 1.32 1.32 2 2 C1.01 2 0.02 2 -1 2 C-0.67 1.34 -0.34 0.68 0 0 Z " fill="#D2D2D3" transform="translate(47,318)"/>
<path d="M0 0 C0.66 0.66 1.32 1.32 2 2 C1.01 2 0.02 2 -1 2 C-0.67 1.34 -0.34 0.68 0 0 Z " fill="#D2D2D3" transform="translate(44,318)"/>
<path d="M0 0 C0.66 0.66 1.32 1.32 2 2 C1.01 2 0.02 2 -1 2 C-0.67 1.34 -0.34 0.68 0 0 Z " fill="#D2D2D3" transform="translate(41,318)"/>
<path d="M0 0 C0.66 0.66 1.32 1.32 2 2 C1.01 2 0.02 2 -1 2 C-0.67 1.34 -0.34 0.68 0 0 Z " fill="#D2D2D3" transform="translate(38,318)"/>
<path d="M0 0 C0.66 0.66 1.32 1.32 2 2 C1.01 2 0.02 2 -1 2 C-0.67 1.34 -0.34 0.68 0 0 Z " fill="#D2D2D3" transform="translate(35,318)"/>
<path d="M0 0 C0.66 0.66 1.32 1.32 2 2 C1.01 2 0.02 2 -1 2 C-0.67 1.34 -0.34 0.68 0 0 Z " fill="#D2D2D3" transform="translate(32,318)"/>
<path d="M0 0 C0.66 0.66 1.32 1.32 2 2 C1.01 2 0.02 2 -1 2 C-0.67 1.34 -0.34 0.68 0 0 Z " fill="#D2D2D3" transform="translate(29,318)"/>
<path d="M0 0 C0.66 0.66 1.32 1.32 2 2 C1.01 2 0.02 2 -1 2 C-0.67 1.34 -0.34 0.68 0 0 Z " fill="#D2D2D3" transform="translate(26,318)"/>
<path d="M0 0 C0.66 0.66 1.32 1.32 2 2 C1.01 2 0.02 2 -1 2 C-0.67 1.34 -0.34 0.68 0 0 Z " fill="#D2D2D3" transform="translate(23,318)"/>
<path d="M0 0 C0.66 0.66 1.32 1.32 2 2 C1.01 2 0.02 2 -1 2 C-0.67 1.34 -0.34 0.68 0 0 Z " fill="#D2D2D3" transform="translate(20,318)"/>
<path d="M0 0 C0.66 0.66 1.32 1.32 2 2 C1.01 2 0.02 2 -1 2 C-0.67 1.34 -0.34 0.68 0 0 Z " fill="#D2D2D3" transform="translate(17,318)"/>
<path d="M0 0 C0.66 0.66 1.32 1.32 2 2 C1.01 2 0.02 2 -1 2 C-0.67 1.34 -0.34 0.68 0 0 Z " fill="#D2D2D3" transform="translate(14,318)"/>
<path d="M0 0 C0.66 0.66 1.32 1.32 2 2 C1.01 2 0.02 2 -1 2 C-0.67 1.34 -0.34 0.68 0 0 Z " fill="#D2D2D3" transform="translate(11,318)"/>
<path d="M0 0 C0.66 0 1.32 0 2 0 C2 0.66 2 1.32 2 2 C1.01 1.67 0.02 1.34 -1 1 C-0.67 0.67 -0.34 0.34 0 0 Z " fill="#666567" transform="translate(8,317)"/>
<path d="M0 0 C0.99 0.33 1.98 0.66 3 1 C2.01 1.33 1.02 1.66 0 2 C0 1.34 0 0.68 0 0 Z " fill="#444445" transform="translate(43,310)"/>
<path d="M0 0 C1.32 0.33 2.64 0.66 4 1 C3.01 1.33 2.02 1.66 1 2 C0.67 1.34 0.34 0.68 0 0 Z " fill="#2A2A2C" transform="translate(50,300)"/>
<path d="M0 0 C0.99 0 1.98 0 3 0 C3 0.66 3 1.32 3 2 C2.01 2 1.02 2 0 2 C0 1.34 0 0.68 0 0 Z " fill="#84767F" transform="translate(384,288)"/>
<path d="M0 0 C0.99 0.495 0.99 0.495 2 1 C1.01 2.485 1.01 2.485 0 4 C0 2.68 0 1.36 0 0 Z " fill="#68506A" transform="translate(399,284)"/>
<path d="M0 0 C0.99 0.33 1.98 0.66 3 1 C2.34 1.66 1.68 2.32 1 3 C0.67 2.01 0.34 1.02 0 0 Z " fill="#707D8A" transform="translate(399,280)"/>
<path d="M0 0 C0.66 0.66 1.32 1.32 2 2 C0.68 1.67 -0.64 1.34 -2 1 C-1.34 0.67 -0.68 0.34 0 0 Z " fill="#615E73" transform="translate(379,278)"/>
<path d="M0 0 C0.66 0 1.32 0 2 0 C2 0.66 2 1.32 2 2 C1.01 1.67 0.02 1.34 -1 1 C-0.67 0.67 -0.34 0.34 0 0 Z " fill="#EFEAE8" transform="translate(515,275)"/>
<path d="M0 0 C0.99 0.33 1.98 0.66 3 1 C2.01 1.33 1.02 1.66 0 2 C0 1.34 0 0.68 0 0 Z " fill="#B3B494" transform="translate(513,272)"/>
<path d="M0 0 C1.32 0.33 2.64 0.66 4 1 C2.68 1.33 1.36 1.66 0 2 C0 1.34 0 0.68 0 0 Z " fill="#5E6B79" transform="translate(390,268)"/>
<path d="M0 0 C0.66 0.66 1.32 1.32 2 2 C0.68 1.67 -0.64 1.34 -2 1 C-1.34 0.67 -0.68 0.34 0 0 Z " fill="#F4F0F2" transform="translate(45,240)"/>
<path d="M0 0 C0.33 0.66 0.66 1.32 1 2 C1.66 2.33 2.32 2.66 3 3 C2.01 3 1.02 3 0 3 C0 2.01 0 1.02 0 0 Z " fill="#F0F4F5" transform="translate(533,231)"/>
<path d="M0 0 C0.99 0 1.98 0 3 0 C2.67 0.66 2.34 1.32 2 2 C1.34 2 0.68 2 0 2 C0 1.34 0 0.68 0 0 Z " fill="#90CBF2" transform="translate(518,231)"/>
<path d="M0 0 C0.33 0.66 0.66 1.32 1 2 C1.66 2.33 2.32 2.66 3 3 C2.01 3 1.02 3 0 3 C0 2.01 0 1.02 0 0 Z " fill="#858587" transform="translate(359,224)"/>
<path d="M0 0 C0.99 0 1.98 0 3 0 C2.67 0.66 2.34 1.32 2 2 C1.34 2 0.68 2 0 2 C0 1.34 0 0.68 0 0 Z " fill="#D0C2B2" transform="translate(23,199)"/>
<path d="M0 0 C0.66 0 1.32 0 2 0 C1.67 0.99 1.34 1.98 1 3 C0.67 2.01 0.34 1.02 0 0 Z " fill="#878073" transform="translate(56,194)"/>
<path d="M0 0 C0.33 1.32 0.66 2.64 1 4 C0.34 3.34 -0.32 2.68 -1 2 C-0.67 1.34 -0.34 0.68 0 0 Z " fill="#2C2C30" transform="translate(569,186)"/>
<path d="M0 0 C0.99 0.33 1.98 0.66 3 1 C2.01 1.33 1.02 1.66 0 2 C0 1.34 0 0.68 0 0 Z " fill="#918D93" transform="translate(98,184)"/>
<path d="M0 0 C0.99 0.495 0.99 0.495 2 1 C2 1.66 2 2.32 2 3 C1.34 3 0.68 3 0 3 C0 2.01 0 1.02 0 0 Z " fill="#605D61" transform="translate(571,183)"/>
<path d="M0 0 C0.66 0 1.32 0 2 0 C1.67 0.99 1.34 1.98 1 3 C0.67 2.01 0.34 1.02 0 0 Z " fill="#2C2C30" transform="translate(568,182)"/>
<path d="M0 0 C0.33 0.66 0.66 1.32 1 2 C-0.32 1.67 -1.64 1.34 -3 1 C-2.01 0.67 -1.02 0.34 0 0 Z " fill="#937B57" transform="translate(63,181)"/>
<path d="M0 0 C1.65 0 3.3 0 5 0 C5 0.33 5 0.66 5 1 C3.35 1 1.7 1 0 1 C0 0.67 0 0.34 0 0 Z " fill="#8B7251" transform="translate(55,178)"/>
<path d="M0 0 C4 1 4 1 4 1 Z " fill="#141415" transform="translate(81,315)"/>
<path d="M0 0 C1.485 0.99 1.485 0.99 3 2 C2.01 2 1.02 2 0 2 C0 1.34 0 0.68 0 0 Z " fill="#222121" transform="translate(34,308)"/>
<path d="M0 0 C1 4 1 4 1 4 Z " fill="#858588" transform="translate(412,294)"/>
<path d="M0 0 C0 3 0 3 0 3 Z " fill="#858587" transform="translate(527,293)"/>
<path d="M0 0 C0.99 0.33 1.98 0.66 3 1 C2.01 1 1.02 1 0 1 C0 0.67 0 0.34 0 0 Z " fill="#787D83" transform="translate(569,288)"/>
<path d="M0 0 C4 1 4 1 4 1 Z " fill="#868587" transform="translate(426,288)"/>
<path d="M0 0 C4 1 4 1 4 1 Z " fill="#FFFDFF" transform="translate(517,284)"/>
<path d="M0 0 C0.66 0.66 1.32 1.32 2 2 C1.01 1.67 0.02 1.34 -1 1 C-0.67 0.67 -0.34 0.34 0 0 Z " fill="#5C6B7B" transform="translate(426,279)"/>
<path d="M0 0 C0.99 0.33 1.98 0.66 3 1 C2.01 1 1.02 1 0 1 C0 0.67 0 0.34 0 0 Z " fill="#788692" transform="translate(396,280)"/>
<path d="M0 0 C0.66 0.66 1.32 1.32 2 2 C1.01 1.67 0.02 1.34 -1 1 C-0.67 0.67 -0.34 0.34 0 0 Z " fill="#F3F2F4" transform="translate(532,277)"/>
<path d="M0 0 C0.99 0.33 1.98 0.66 3 1 C2.01 1.33 1.02 1.66 0 2 C0 1.34 0 0.68 0 0 Z " fill="#5B6A7A" transform="translate(420,277)"/>
<path d="M0 0 C1 4 1 4 1 4 Z " fill="#5A6A7B" transform="translate(406,271)"/>
<path d="M0 0 C0.66 0.66 1.32 1.32 2 2 C1.01 1.67 0.02 1.34 -1 1 C-0.67 0.67 -0.34 0.34 0 0 Z " fill="#5E6D7D" transform="translate(384,269)"/>
<path d="M0 0 C0 3 0 3 0 3 Z " fill="#5E6D7D" transform="translate(400,269)"/>
<path d="M0 0 C0.99 0 1.98 0 3 0 C2.67 0.66 2.34 1.32 2 2 C1.34 1.34 0.68 0.68 0 0 Z " fill="#5C6B7B" transform="translate(396,267)"/>
<path d="M0 0 C0.99 0.33 1.98 0.66 3 1 C2.01 1 1.02 1 0 1 C0 0.67 0 0.34 0 0 Z " fill="#62586D" transform="translate(377,260)"/>
<path d="M0 0 C0.99 0.33 1.98 0.66 3 1 C2.01 1 1.02 1 0 1 C0 0.67 0 0.34 0 0 Z " fill="#A8A7A9" transform="translate(538,231)"/>
<path d="M0 0 C0.66 0.66 1.32 1.32 2 2 C1.01 1.67 0.02 1.34 -1 1 C-0.67 0.67 -0.34 0.34 0 0 Z " fill="#828284" transform="translate(357,226)"/>
<path d="M0 0 C0.66 0 1.32 0 2 0 C2 0.66 2 1.32 2 2 C1.34 2 0.68 2 0 2 C0 1.34 0 0.68 0 0 Z " fill="#9D9C9D" transform="translate(354,223)"/>
<path d="M0 0 C0.99 0.33 1.98 0.66 3 1 C2.01 1 1.02 1 0 1 C0 0.67 0 0.34 0 0 Z " fill="#85A9C8" transform="translate(33,217)"/>
<path d="M0 0 C0.66 0.66 1.32 1.32 2 2 C1.01 1.67 0.02 1.34 -1 1 C-0.67 0.67 -0.34 0.34 0 0 Z " fill="#5EB2EE" transform="translate(32,207)"/>
<path d="M0 0 C0.66 0 1.32 0 2 0 C2 0.66 2 1.32 2 2 C1.34 2 0.68 2 0 2 C0 1.34 0 0.68 0 0 Z " fill="#F0D6C6" transform="translate(36,206)"/>
<path d="M0 0 C0.66 0.66 1.32 1.32 2 2 C1.01 1.67 0.02 1.34 -1 1 C-0.67 0.67 -0.34 0.34 0 0 Z " fill="#58B2ED" transform="translate(67,196)"/>
<path d="M0 0 C0.99 0.33 1.98 0.66 3 1 C2.01 1 1.02 1 0 1 C0 0.67 0 0.34 0 0 Z " fill="#2D2C30" transform="translate(555,193)"/>
<path d="M0 0 C1.485 0.99 1.485 0.99 3 2 C2.01 2 1.02 2 0 2 C0 1.34 0 0.68 0 0 Z " fill="#957D58" transform="translate(16,185)"/>
<path d="M0 0 C0.66 0.66 1.32 1.32 2 2 C1.01 1.67 0.02 1.34 -1 1 C-0.67 0.67 -0.34 0.34 0 0 Z " fill="#F1DACA" transform="translate(52,182)"/>
<path d="M0 0 C0.66 0.66 1.32 1.32 2 2 C1.01 2.495 1.01 2.495 0 3 C0 2.01 0 1.02 0 0 Z " fill="#656467" transform="translate(96,155)"/>
<path d="M0 0 C0.66 0 1.32 0 2 0 C2 0.66 2 1.32 2 2 C1.34 2 0.68 2 0 2 C0 1.34 0 0.68 0 0 Z " fill="#DCDBDC" transform="translate(480,0)"/>
<path d="M0 0 C3 1 3 1 3 1 Z " fill="#FFFFFF" transform="translate(0,319)"/>
<path d="M0 0 C0.33 0.66 0.66 1.32 1 2 C0.34 1.67 -0.32 1.34 -1 1 C-0.67 0.67 -0.34 0.34 0 0 Z " fill="#151517" transform="translate(46,312)"/>
<path d="M0 0 C0.66 0 1.32 0 2 0 C1.67 0.66 1.34 1.32 1 2 C0.67 1.34 0.34 0.68 0 0 Z " fill="#181819" transform="translate(86,311)"/>
<path d="M0 0 C3 1 3 1 3 1 Z " fill="#18181A" transform="translate(81,301)"/>
<path d="M0 0 C0.66 0.66 1.32 1.32 2 2 C1.34 2 0.68 2 0 2 C0 1.34 0 0.68 0 0 Z " fill="#85335E" transform="translate(403,287)"/>
<path d="M0 0 C3 1 3 1 3 1 Z " fill="#7E7F81" transform="translate(569,286)"/>
<path d="M0 0 C0.66 0 1.32 0 2 0 C1.67 0.66 1.34 1.32 1 2 C0.67 1.34 0.34 0.68 0 0 Z " fill="#7E1F49" transform="translate(365,285)"/>
<path d="M0 0 C0.99 0.495 0.99 0.495 2 1 C1.01 1.495 1.01 1.495 0 2 C0 1.34 0 0.68 0 0 Z " fill="#5B6A7A" transform="translate(384,284)"/>
<path d="M0 0 C0.99 0.495 0.99 0.495 2 1 C1.01 1.495 1.01 1.495 0 2 C0 1.34 0 0.68 0 0 Z " fill="#5A6A7B" transform="translate(425,282)"/>
<path d="M0 0 C3 1 3 1 3 1 Z " fill="#A5AFB8" transform="translate(431,280)"/>
<path d="M0 0 C0.66 0 1.32 0 2 0 C1.67 0.66 1.34 1.32 1 2 C0.67 1.34 0.34 0.68 0 0 Z " fill="#7B264C" transform="translate(375,280)"/>
<path d="M0 0 C3 1 3 1 3 1 Z " fill="#5C6C7C" transform="translate(396,278)"/>
<path d="M0 0 C0.66 0.66 1.32 1.32 2 2 C1.34 2 0.68 2 0 2 C0 1.34 0 0.68 0 0 Z " fill="#5B6A7A" transform="translate(385,276)"/>
<path d="M0 0 C0.66 0 1.32 0 2 0 C1.67 0.66 1.34 1.32 1 2 C0.67 1.34 0.34 0.68 0 0 Z " fill="#BDC3C9" transform="translate(431,276)"/>
<path d="M0 0 C0.66 0 1.32 0 2 0 C1.67 0.66 1.34 1.32 1 2 C0.67 1.34 0.34 0.68 0 0 Z " fill="#667B8E" transform="translate(427,274)"/>
<path d="M0 0 C0.99 0.495 0.99 0.495 2 1 C1.01 1.495 1.01 1.495 0 2 C0 1.34 0 0.68 0 0 Z " fill="#5D6D7D" transform="translate(386,268)"/>
<path d="" fill="#5A6A7B" transform="translate(0,0)"/>
<path d="" fill="#5E6E7E" transform="translate(0,0)"/>
<path d="M0 0 C0.33 0.66 0.66 1.32 1 2 C0.34 1.67 -0.32 1.34 -1 1 C-0.67 0.67 -0.34 0.34 0 0 Z " fill="#F3F1F4" transform="translate(48,239)"/>
<path d="M0 0 C0.66 0 1.32 0 2 0 C1.67 0.66 1.34 1.32 1 2 C0.67 1.34 0.34 0.68 0 0 Z " fill="#E7E7E6" transform="translate(35,238)"/>
<path d="M0 0 C0.99 0.495 0.99 0.495 2 1 C1.01 1.495 1.01 1.495 0 2 C0 1.34 0 0.68 0 0 Z " fill="#C3C3C5" transform="translate(536,235)"/>
<path d="M0 0 C0.99 0.495 0.99 0.495 2 1 C1.01 1.495 1.01 1.495 0 2 C0 1.34 0 0.68 0 0 Z " fill="#62B4EE" transform="translate(527,232)"/>
<path d="M0 0 C3 1 3 1 3 1 Z " fill="#AAD8F4" transform="translate(524,231)"/>
<path d="M0 0 C3 1 3 1 3 1 Z " fill="#DFDFE2" transform="translate(52,224)"/>
<path d="M0 0 C0.33 0.66 0.66 1.32 1 2 C0.34 1.67 -0.32 1.34 -1 1 C-0.67 0.67 -0.34 0.34 0 0 Z " fill="#F3F3F5" transform="translate(57,222)"/>
<path d="M0 0 C0.66 0 1.32 0 2 0 C1.67 0.66 1.34 1.32 1 2 C0.67 1.34 0.34 0.68 0 0 Z " fill="#E8E2DC" transform="translate(46,220)"/>
<path d="M0 0 C0.66 0.66 1.32 1.32 2 2 C1.34 2 0.68 2 0 2 C0 1.34 0 0.68 0 0 Z " fill="#868588" transform="translate(361,218)"/>
<path d="M0 0 C0.66 0.66 1.32 1.32 2 2 C1.34 2 0.68 2 0 2 C0 1.34 0 0.68 0 0 Z " fill="#5EB3EE" transform="translate(84,214)"/>
<path d="M0 0 C0.66 0.66 1.32 1.32 2 2 C1.34 2 0.68 2 0 2 C0 1.34 0 0.68 0 0 Z " fill="#F4F2F4" transform="translate(56,214)"/>
<path d="M0 0 C0.99 0.495 0.99 0.495 2 1 C1.01 1.495 1.01 1.495 0 2 C0 1.34 0 0.68 0 0 Z " fill="#FDFCFA" transform="translate(564,207)"/>
<path d="M0 0 C3 1 3 1 3 1 Z " fill="#BFBEBF" transform="translate(98,208)"/>
<path d="M0 0 C0.99 0.495 0.99 0.495 2 1 C1.01 1.495 1.01 1.495 0 2 C0 1.34 0 0.68 0 0 Z " fill="#8CA4B4" transform="translate(562,204)"/>
<path d="M0 0 C0.66 0.66 1.32 1.32 2 2 C1.34 2 0.68 2 0 2 C0 1.34 0 0.68 0 0 Z " fill="#EBEDEE" transform="translate(56,202)"/>
<path d="M0 0 C3 1 3 1 3 1 Z " fill="#F1D5C4" transform="translate(38,202)"/>
<path d="M0 0 C3 1 3 1 3 1 Z " fill="#EEE0D5" transform="translate(26,201)"/>
<path d="M0 0 C0.66 0 1.32 0 2 0 C1.67 0.66 1.34 1.32 1 2 C0.67 1.34 0.34 0.68 0 0 Z " fill="#5EB3EE" transform="translate(64,195)"/>
<path d="M0 0 C0.99 0.495 0.99 0.495 2 1 C1.01 1.495 1.01 1.495 0 2 C0 1.34 0 0.68 0 0 Z " fill="#A7A19B" transform="translate(21,194)"/>
<path d="M0 0 C3 1 3 1 3 1 Z " fill="#787A7F" transform="translate(572,182)"/>
<path d="M0 0 C0.66 0.66 1.32 1.32 2 2 C1.34 2 0.68 2 0 2 C0 1.34 0 0.68 0 0 Z " fill="#171719" transform="translate(93,179)"/>
<path d="M0 0 C0.66 0.66 1.32 1.32 2 2 C1.34 2 0.68 2 0 2 C0 1.34 0 0.68 0 0 Z " fill="#848387" transform="translate(572,178)"/>
<path d="M0 0 C0.99 0.495 0.99 0.495 2 1 C1.01 1.495 1.01 1.495 0 2 C0 1.34 0 0.68 0 0 Z " fill="#A59386" transform="translate(50,179)"/>
<path d="" fill="#978059" transform="translate(0,0)"/>
<path d="M0 0 C3 1 3 1 3 1 Z " fill="#858486" transform="translate(557,133)"/>
<path d="M0 0 C0.66 0.66 1.32 1.32 2 2 C1.34 2 0.68 2 0 2 C0 1.34 0 0.68 0 0 Z " fill="#858486" transform="translate(560,131)"/>
<path d="M0 0 C2 1 2 1 2 1 Z " fill="#58505A" transform="translate(1,316)"/>
<path d="M0 0 C2 1 2 1 2 1 Z " fill="#141415" transform="translate(78,315)"/>
<path d="M0 0 C2 1 2 1 2 1 Z " fill="#141415" transform="translate(75,315)"/>
<path d="M0 0 C2 1 2 1 2 1 Z " fill="#141415" transform="translate(72,315)"/>
<path d="M0 0 C2 1 2 1 2 1 Z " fill="#151516" transform="translate(39,312)"/>
<path d="" fill="#605F61" transform="translate(0,0)"/>
<path d="M0 0 C2 1 2 1 2 1 Z " fill="#171718" transform="translate(54,301)"/>
<path d="" fill="#F3F1F5" transform="translate(0,0)"/>
<path d="M0 0 C2 1 2 1 2 1 Z " fill="#828286" transform="translate(411,288)"/>
<path d="" fill="#838487" transform="translate(0,0)"/>
<path d="M0 0 C2 1 2 1 2 1 Z " fill="#75787D" transform="translate(410,286)"/>
<path d="" fill="#6E4B70" transform="translate(0,0)"/>
<path d="M0 0 C2 1 2 1 2 1 Z " fill="#E5EAEA" transform="translate(435,285)"/>
<path d="M0 0 C2 1 2 1 2 1 Z " fill="#5B6A7A" transform="translate(423,284)"/>
<path d="" fill="#F3F1F5" transform="translate(0,0)"/>
<path d="" fill="#59697A" transform="translate(0,0)"/>
<path d="M0 0 C2 1 2 1 2 1 Z " fill="#7D2850" transform="translate(369,280)"/>
<path d="M0 0 C2 1 2 1 2 1 Z " fill="#7D2850" transform="translate(365,280)"/>
<path d="M0 0 C2 1 2 1 2 1 Z " fill="#EFEFF1" transform="translate(433,278)"/>
<path d="" fill="#5A6A7B" transform="translate(0,0)"/>
<path d="M0 0 C2 1 2 1 2 1 Z " fill="#F6F7F7" transform="translate(534,277)"/>
<path d="" fill="#5B6B7B" transform="translate(0,0)"/>
<path d="M0 0 C2 1 2 1 2 1 Z " fill="#B4B495" transform="translate(516,273)"/>
<path d="M0 0 C2 1 2 1 2 1 Z " fill="#5A697A" transform="translate(397,272)"/>
<path d="" fill="#5A6A7B" transform="translate(0,0)"/>
<path d="M0 0 C2 1 2 1 2 1 Z " fill="#B3B590" transform="translate(512,270)"/>
<path d="M0 0 C2 1 2 1 2 1 Z " fill="#B3B590" transform="translate(510,268)"/>
<path d="M0 0 C2 1 2 1 2 1 Z " fill="#832854" transform="translate(368,264)"/>
<path d="M0 0 C2 1 2 1 2 1 Z " fill="#82305A" transform="translate(361,264)"/>
<path d="" fill="#812952" transform="translate(0,0)"/>
<path d="M0 0 C2 1 2 1 2 1 Z " fill="#6A4C67" transform="translate(377,258)"/>
<path d="M0 0 C2 1 2 1 2 1 Z " fill="#B4B495" transform="translate(511,246)"/>
<path d="" fill="#E9F1F8" transform="translate(0,0)"/>
<path d="M0 0 C2 1 2 1 2 1 Z " fill="#E4E3E1" transform="translate(34,236)"/>
<path d="" fill="#F9F7F8" transform="translate(0,0)"/>
<path d="" fill="#F1F1F2" transform="translate(0,0)"/>
<path d="" fill="#D0CFCE" transform="translate(0,0)"/>
<path d="" fill="#5AB2ED" transform="translate(0,0)"/>
<path d="" fill="#6CB5E8" transform="translate(0,0)"/>
<path d="" fill="#565057" transform="translate(0,0)"/>
<path d="M0 0 C2 1 2 1 2 1 Z " fill="#DAD9D5" transform="translate(45,229)"/>
<path d="M0 0 C2 1 2 1 2 1 Z " fill="#BED2DC" transform="translate(43,228)"/>
<path d="M0 0 C2 1 2 1 2 1 Z " fill="#B0CADE" transform="translate(43,225)"/>
<path d="M0 0 C2 1 2 1 2 1 Z " fill="#60B3EE" transform="translate(75,222)"/>
<path d="M0 0 C2 1 2 1 2 1 Z " fill="#858486" transform="translate(358,221)"/>
<path d="" fill="#F4F3F3" transform="translate(0,0)"/>
<path d="M0 0 C2 1 2 1 2 1 Z " fill="#6494C1" transform="translate(43,220)"/>
<path d="" fill="#868588" transform="translate(0,0)"/>
<path d="" fill="#CDC5C2" transform="translate(0,0)"/>
<path d="M0 0 C2 1 2 1 2 1 Z " fill="#F4F1F3" transform="translate(56,218)"/>
<path d="" fill="#81CCF6" transform="translate(0,0)"/>
<path d="M0 0 C2 1 2 1 2 1 Z " fill="#B5CBDB" transform="translate(45,215)"/>
<path d="M0 0 C2 1 2 1 2 1 Z " fill="#D7E3ED" transform="translate(54,213)"/>
<path d="M0 0 C2 1 2 1 2 1 Z " fill="#F1F4F4" transform="translate(56,212)"/>
<path d="M0 0 C2 1 2 1 2 1 Z " fill="#DCCABC" transform="translate(39,212)"/>
<path d="" fill="#F4F4F4" transform="translate(0,0)"/>
<path d="M0 0 C2 1 2 1 2 1 Z " fill="#878687" transform="translate(578,205)"/>
<path d="" fill="#161619" transform="translate(0,0)"/>
<path d="" fill="#FCFDFE" transform="translate(0,0)"/>
<path d="" fill="#EED7CA" transform="translate(0,0)"/>
<path d="M0 0 C2 1 2 1 2 1 Z " fill="#F2D5C3" transform="translate(35,202)"/>
<path d="M0 0 C2 1 2 1 2 1 Z " fill="#858588" transform="translate(579,200)"/>
<path d="M0 0 C2 1 2 1 2 1 Z " fill="#FBFBFC" transform="translate(66,200)"/>
<path d="M0 0 C2 1 2 1 2 1 Z " fill="#838588" transform="translate(581,199)"/>
<path d="M0 0 C2 1 2 1 2 1 Z " fill="#FFFFFF" transform="translate(20,199)"/>
<path d="" fill="#2E2D30" transform="translate(0,0)"/>
<path d="" fill="#8B654E" transform="translate(0,0)"/>
<path d="M0 0 C2 1 2 1 2 1 Z " fill="#F9FAFA" transform="translate(87,197)"/>
<path d="M0 0 C2 1 2 1 2 1 Z " fill="#828488" transform="translate(573,196)"/>
<path d="M0 0 C2 1 2 1 2 1 Z " fill="#3D3430" transform="translate(554,195)"/>
<path d="M0 0 C2 1 2 1 2 1 Z " fill="#2D2C30" transform="translate(566,194)"/>
<path d="M0 0 C2 1 2 1 2 1 Z " fill="#888586" transform="translate(582,192)"/>
<path d="" fill="#7C7B7C" transform="translate(0,0)"/>
<path d="M0 0 C2 1 2 1 2 1 Z " fill="#2E2D30" transform="translate(554,191)"/>
<path d="" fill="#837B65" transform="translate(0,0)"/>
<path d="M0 0 C2 1 2 1 2 1 Z " fill="#201F20" transform="translate(94,188)"/>
<path d="M0 0 C2 1 2 1 2 1 Z " fill="#998059" transform="translate(64,183)"/>
<path d="M0 0 C2 1 2 1 2 1 Z " fill="#7F8286" transform="translate(577,180)"/>
<path d="M0 0 C2 1 2 1 2 1 Z " fill="#7F8286" transform="translate(574,180)"/>
<path d="M0 0 C2 1 2 1 2 1 Z " fill="#8C7251" transform="translate(60,180)"/>
<path d="M0 0 C2 1 2 1 2 1 Z " fill="#828488" transform="translate(577,178)"/>
<path d="M0 0 C2 1 2 1 2 1 Z " fill="#19191B" transform="translate(92,177)"/>
<path d="M0 0 C2 1 2 1 2 1 Z " fill="#917956" transform="translate(53,176)"/>
<path d="M0 0 C2 1 2 1 2 1 Z " fill="#8C7358" transform="translate(63,174)"/>
<path d="M0 0 C2 1 2 1 2 1 Z " fill="#998059" transform="translate(58,163)"/>
<path d="" fill="#858588" transform="translate(0,0)"/>
<path d="" fill="#858588" transform="translate(0,0)"/>
<path d="" fill="#FAFAF9" transform="translate(0,0)"/>
<path d="M0 0 C2 1 2 1 2 1 Z " fill="#F2F1F3" transform="translate(219,81)"/>
<path d="" fill="#FFFDFF" transform="translate(0,0)"/>
<path d="" fill="#666666" transform="translate(0,0)"/>
<path d="" fill="#636363" transform="translate(0,0)"/>
<path d="" fill="#323338" transform="translate(0,0)"/>
<path d="" fill="#131211" transform="translate(0,0)"/>
<path d="" fill="#161619" transform="translate(0,0)"/>
<path d="" fill="#161619" transform="translate(0,0)"/>
<path d="" fill="#181818" transform="translate(0,0)"/>
<path d="" fill="#1A1A1B" transform="translate(0,0)"/>
<path d="" fill="#181818" transform="translate(0,0)"/>
<path d="" fill="#17181C" transform="translate(0,0)"/>
<path d="" fill="#181818" transform="translate(0,0)"/>
<path d="" fill="#19191B" transform="translate(0,0)"/>
<path d="" fill="#2F3035" transform="translate(0,0)"/>
<path d="" fill="#181818" transform="translate(0,0)"/>
<path d="" fill="#3C3B3F" transform="translate(0,0)"/>
<path d="" fill="#3C3B3F" transform="translate(0,0)"/>
<path d="" fill="#131211" transform="translate(0,0)"/>
<path d="" fill="#161619" transform="translate(0,0)"/>
<path d="" fill="#19191B" transform="translate(0,0)"/>
<path d="" fill="#161619" transform="translate(0,0)"/>
<path d="" fill="#181818" transform="translate(0,0)"/>
<path d="" fill="#666666" transform="translate(0,0)"/>
<path d="" fill="#474445" transform="translate(0,0)"/>
<path d="" fill="#181818" transform="translate(0,0)"/>
<path d="" fill="#19191B" transform="translate(0,0)"/>
<path d="" fill="#181818" transform="translate(0,0)"/>
<path d="" fill="#19191B" transform="translate(0,0)"/>
<path d="" fill="#181818" transform="translate(0,0)"/>
<path d="" fill="#19191B" transform="translate(0,0)"/>
<path d="" fill="#181818" transform="translate(0,0)"/>
<path d="" fill="#19191B" transform="translate(0,0)"/>
<path d="" fill="#181818" transform="translate(0,0)"/>
<path d="" fill="#19191B" transform="translate(0,0)"/>
<path d="" fill="#181818" transform="translate(0,0)"/>
<path d="" fill="#19191B" transform="translate(0,0)"/>
<path d="" fill="#19191B" transform="translate(0,0)"/>
<path d="" fill="#323338" transform="translate(0,0)"/>
<path d="" fill="#F5F5F4" transform="translate(0,0)"/>
<path d="" fill="#F4F1F3" transform="translate(0,0)"/>
<path d="" fill="#D2D8DB" transform="translate(0,0)"/>
<path d="" fill="#858484" transform="translate(0,0)"/>
<path d="" fill="#858588" transform="translate(0,0)"/>
<path d="" fill="#7D7E83" transform="translate(0,0)"/>
<path d="" fill="#828283" transform="translate(0,0)"/>
<path d="" fill="#888688" transform="translate(0,0)"/>
<path d="" fill="#828283" transform="translate(0,0)"/>
<path d="" fill="#7F1F48" transform="translate(0,0)"/>
<path d="" fill="#F5F5F4" transform="translate(0,0)"/>
<path d="" fill="#58697A" transform="translate(0,0)"/>
<path d="" fill="#7F1F48" transform="translate(0,0)"/>
<path d="" fill="#7F1F48" transform="translate(0,0)"/>
<path d="" fill="#FFFDFF" transform="translate(0,0)"/>
<path d="" fill="#5B6979" transform="translate(0,0)"/>
<path d="" fill="#7E204A" transform="translate(0,0)"/>
<path d="" fill="#7E204A" transform="translate(0,0)"/>
<path d="" fill="#5A6A7B" transform="translate(0,0)"/>
<path d="" fill="#5A6A7B" transform="translate(0,0)"/>
<path d="" fill="#5A6A7B" transform="translate(0,0)"/>
<path d="" fill="#7E204A" transform="translate(0,0)"/>
<path d="" fill="#7E204A" transform="translate(0,0)"/>
<path d="" fill="#7F1F48" transform="translate(0,0)"/>
<path d="" fill="#7E204A" transform="translate(0,0)"/>
<path d="" fill="#FFFDFF" transform="translate(0,0)"/>
<path d="" fill="#B3B3B3" transform="translate(0,0)"/>
<path d="" fill="#7F1F48" transform="translate(0,0)"/>
<path d="" fill="#7F1F48" transform="translate(0,0)"/>
<path d="" fill="#5A6A7B" transform="translate(0,0)"/>
<path d="" fill="#5A6A7B" transform="translate(0,0)"/>
<path d="" fill="#6E7C89" transform="translate(0,0)"/>
<path d="" fill="#5A6A7B" transform="translate(0,0)"/>
<path d="" fill="#617080" transform="translate(0,0)"/>
<path d="" fill="#5A6A7B" transform="translate(0,0)"/>
<path d="" fill="#5A6A7B" transform="translate(0,0)"/>
<path d="" fill="#5B6979" transform="translate(0,0)"/>
<path d="" fill="#5C6C7C" transform="translate(0,0)"/>
<path d="" fill="#5B6979" transform="translate(0,0)"/>
<path d="" fill="#5B6979" transform="translate(0,0)"/>
<path d="" fill="#58697A" transform="translate(0,0)"/>
<path d="" fill="#7F1F48" transform="translate(0,0)"/>
<path d="" fill="#5A6A7B" transform="translate(0,0)"/>
<path d="" fill="#5A6A7B" transform="translate(0,0)"/>
<path d="" fill="#7F1F48" transform="translate(0,0)"/>
<path d="" fill="#7E204A" transform="translate(0,0)"/>
<path d="" fill="#7F1F48" transform="translate(0,0)"/>
<path d="" fill="#5A6A7B" transform="translate(0,0)"/>
<path d="" fill="#576878" transform="translate(0,0)"/>
<path d="" fill="#5C6C7C" transform="translate(0,0)"/>
<path d="" fill="#617080" transform="translate(0,0)"/>
<path d="" fill="#5A6A7B" transform="translate(0,0)"/>
<path d="" fill="#7F1F48" transform="translate(0,0)"/>
<path d="" fill="#5A6A7B" transform="translate(0,0)"/>
<path d="" fill="#8292A0" transform="translate(0,0)"/>
<path d="" fill="#5B6979" transform="translate(0,0)"/>
<path d="" fill="#5C6C7C" transform="translate(0,0)"/>
<path d="" fill="#7F1F48" transform="translate(0,0)"/>
<path d="" fill="#5C6C7C" transform="translate(0,0)"/>
<path d="" fill="#5B6979" transform="translate(0,0)"/>
<path d="" fill="#5C6C7C" transform="translate(0,0)"/>
<path d="" fill="#58697A" transform="translate(0,0)"/>
<path d="" fill="#5A6A7B" transform="translate(0,0)"/>
<path d="" fill="#606B76" transform="translate(0,0)"/>
<path d="" fill="#606B76" transform="translate(0,0)"/>
<path d="" fill="#7F1F48" transform="translate(0,0)"/>
<path d="" fill="#5A6A7B" transform="translate(0,0)"/>
<path d="" fill="#5C6C7C" transform="translate(0,0)"/>
<path d="" fill="#7F1F48" transform="translate(0,0)"/>
<path d="" fill="#7D3057" transform="translate(0,0)"/>
<path d="" fill="#F3F1F5" transform="translate(0,0)"/>
<path d="" fill="#F5F5F4" transform="translate(0,0)"/>
<path d="" fill="#858588" transform="translate(0,0)"/>
<path d="" fill="#F1F1F2" transform="translate(0,0)"/>
<path d="" fill="#B6B590" transform="translate(0,0)"/>
<path d="" fill="#B6B590" transform="translate(0,0)"/>
<path d="" fill="#F3F1F5" transform="translate(0,0)"/>
<path d="" fill="#9E9894" transform="translate(0,0)"/>
<path d="" fill="#F3F1F5" transform="translate(0,0)"/>
<path d="" fill="#6CB3E1" transform="translate(0,0)"/>
<path d="" fill="#F4F1F3" transform="translate(0,0)"/>
<path d="" fill="#ECEDEE" transform="translate(0,0)"/>
<path d="" fill="#F4F1F3" transform="translate(0,0)"/>
<path d="" fill="#F3F1F5" transform="translate(0,0)"/>
<path d="" fill="#F3F1F5" transform="translate(0,0)"/>
<path d="" fill="#D4E4F1" transform="translate(0,0)"/>
<path d="" fill="#F4F1F3" transform="translate(0,0)"/>
<path d="" fill="#FAFAFA" transform="translate(0,0)"/>
<path d="" fill="#F5F5F4" transform="translate(0,0)"/>
<path d="" fill="#F7EFE8" transform="translate(0,0)"/>
<path d="" fill="#FDFDFD" transform="translate(0,0)"/>
<path d="" fill="#FAFAFA" transform="translate(0,0)"/>
<path d="" fill="#5DB2EE" transform="translate(0,0)"/>
<path d="" fill="#5CB2EE" transform="translate(0,0)"/>
<path d="" fill="#63B5EF" transform="translate(0,0)"/>
<path d="" fill="#F3F1F5" transform="translate(0,0)"/>
<path d="" fill="#6EBAF0" transform="translate(0,0)"/>
<path d="" fill="#F0F4F4" transform="translate(0,0)"/>
<path d="" fill="#57B2ED" transform="translate(0,0)"/>
<path d="" fill="#858484" transform="translate(0,0)"/>
<path d="" fill="#858588" transform="translate(0,0)"/>
<path d="" fill="#78ABD3" transform="translate(0,0)"/>
<path d="" fill="#D6DEE1" transform="translate(0,0)"/>
<path d="" fill="#FFFDFD" transform="translate(0,0)"/>
<path d="" fill="#5CB2EE" transform="translate(0,0)"/>
<path d="" fill="#D1D9E2" transform="translate(0,0)"/>
<path d="" fill="#F0F0F1" transform="translate(0,0)"/>
<path d="" fill="#F4F1F3" transform="translate(0,0)"/>
<path d="" fill="#63B5EF" transform="translate(0,0)"/>
<path d="" fill="#E4E2E1" transform="translate(0,0)"/>
<path d="" fill="#FAFAFA" transform="translate(0,0)"/>
<path d="" fill="#63B5EF" transform="translate(0,0)"/>
<path d="" fill="#5DB2EE" transform="translate(0,0)"/>
<path d="" fill="#858588" transform="translate(0,0)"/>
<path d="" fill="#5A7B94" transform="translate(0,0)"/>
<path d="" fill="#E3CFC5" transform="translate(0,0)"/>
<path d="" fill="#60B2ED" transform="translate(0,0)"/>
<path d="" fill="#9ACBE8" transform="translate(0,0)"/>
<path d="" fill="#F4F1F3" transform="translate(0,0)"/>
<path d="" fill="#E3CFC5" transform="translate(0,0)"/>
<path d="" fill="#D5C5B4" transform="translate(0,0)"/>
<path d="" fill="#5DB2EE" transform="translate(0,0)"/>
<path d="" fill="#E6C7AB" transform="translate(0,0)"/>
<path d="" fill="#5DB2EE" transform="translate(0,0)"/>
<path d="" fill="#63B5EF" transform="translate(0,0)"/>
<path d="" fill="#D5C5B4" transform="translate(0,0)"/>
<path d="" fill="#5DB2EE" transform="translate(0,0)"/>
<path d="" fill="#63B5EF" transform="translate(0,0)"/>
<path d="" fill="#5AB3EE" transform="translate(0,0)"/>
<path d="" fill="#5DB2EE" transform="translate(0,0)"/>
<path d="" fill="#161619" transform="translate(0,0)"/>
<path d="" fill="#60B2ED" transform="translate(0,0)"/>
<path d="" fill="#5DB2EE" transform="translate(0,0)"/>
<path d="" fill="#646367" transform="translate(0,0)"/>
<path d="" fill="#63B5EF" transform="translate(0,0)"/>
<path d="" fill="#6F6F6F" transform="translate(0,0)"/>
<path d="" fill="#838484" transform="translate(0,0)"/>
<path d="" fill="#F1F1F2" transform="translate(0,0)"/>
<path d="" fill="#6F6F6F" transform="translate(0,0)"/>
<path d="" fill="#F3F1F5" transform="translate(0,0)"/>
<path d="" fill="#FFFDFF" transform="translate(0,0)"/>
<path d="" fill="#F0F0F1" transform="translate(0,0)"/>
<path d="" fill="#FCFDFE" transform="translate(0,0)"/>
<path d="" fill="#FAFAFA" transform="translate(0,0)"/>
<path d="" fill="#6F6F6F" transform="translate(0,0)"/>
<path d="" fill="#FCFDFE" transform="translate(0,0)"/>
<path d="" fill="#ECEDEE" transform="translate(0,0)"/>
<path d="" fill="#D2D8DB" transform="translate(0,0)"/>
<path d="" fill="#48394A" transform="translate(0,0)"/>
<path d="" fill="#F0F0F1" transform="translate(0,0)"/>
<path d="" fill="#EED7C9" transform="translate(0,0)"/>
<path d="" fill="#6F6F6F" transform="translate(0,0)"/>
<path d="" fill="#FDFDFD" transform="translate(0,0)"/>
<path d="" fill="#F0D7C8" transform="translate(0,0)"/>
<path d="" fill="#FFFDFF" transform="translate(0,0)"/>
<path d="" fill="#FFFDFD" transform="translate(0,0)"/>
<path d="" fill="#EFD8CC" transform="translate(0,0)"/>
<path d="" fill="#ABACAC" transform="translate(0,0)"/>
<path d="" fill="#6F6F6F" transform="translate(0,0)"/>
<path d="" fill="#858588" transform="translate(0,0)"/>
<path d="" fill="#3C3B3F" transform="translate(0,0)"/>
<path d="" fill="#4D2C2E" transform="translate(0,0)"/>
<path d="" fill="#181818" transform="translate(0,0)"/>
<path d="" fill="#EFD8CC" transform="translate(0,0)"/>
<path d="" fill="#7F8488" transform="translate(0,0)"/>
<path d="" fill="#2C2C30" transform="translate(0,0)"/>
<path d="" fill="#57B2ED" transform="translate(0,0)"/>
<path d="" fill="#EFD8CC" transform="translate(0,0)"/>
<path d="" fill="#D6DEE1" transform="translate(0,0)"/>
<path d="" fill="#63B5EF" transform="translate(0,0)"/>
<path d="" fill="#F0D7C8" transform="translate(0,0)"/>
<path d="" fill="#63B5EF" transform="translate(0,0)"/>
<path d="" fill="#766356" transform="translate(0,0)"/>
<path d="" fill="#978158" transform="translate(0,0)"/>
<path d="" fill="#F0D7C8" transform="translate(0,0)"/>
<path d="" fill="#858484" transform="translate(0,0)"/>
<path d="" fill="#8F7552" transform="translate(0,0)"/>
<path d="" fill="#2E2D30" transform="translate(0,0)"/>
<path d="" fill="#F8FAFA" transform="translate(0,0)"/>
<path d="" fill="#6AB1E1" transform="translate(0,0)"/>
<path d="" fill="#5CB2EE" transform="translate(0,0)"/>
<path d="" fill="#2E2D30" transform="translate(0,0)"/>
<path d="" fill="#63B5EF" transform="translate(0,0)"/>
<path d="" fill="#6AB1E1" transform="translate(0,0)"/>
<path d="" fill="#FCFDFE" transform="translate(0,0)"/>
<path d="" fill="#5DB2EE" transform="translate(0,0)"/>
<path d="" fill="#947E5B" transform="translate(0,0)"/>
<path d="" fill="#7F8488" transform="translate(0,0)"/>
<path d="" fill="#ABACAC" transform="translate(0,0)"/>
<path d="" fill="#161619" transform="translate(0,0)"/>
<path d="" fill="#78848E" transform="translate(0,0)"/>
<path d="" fill="#95815B" transform="translate(0,0)"/>
<path d="" fill="#858588" transform="translate(0,0)"/>
<path d="" fill="#FFFFFF" transform="translate(0,0)"/>
<path d="" fill="#2C2C30" transform="translate(0,0)"/>
<path d="" fill="#2C2C30" transform="translate(0,0)"/>
<path d="" fill="#2C2C30" transform="translate(0,0)"/>
<path d="" fill="#7F8488" transform="translate(0,0)"/>
<path d="" fill="#161619" transform="translate(0,0)"/>
<path d="" fill="#998059" transform="translate(0,0)"/>
<path d="" fill="#8A8A8B" transform="translate(0,0)"/>
<path d="" fill="#947E5B" transform="translate(0,0)"/>
<path d="" fill="#8F7552" transform="translate(0,0)"/>
<path d="" fill="#95815B" transform="translate(0,0)"/>
<path d="" fill="#8F7552" transform="translate(0,0)"/>
<path d="" fill="#9B825C" transform="translate(0,0)"/>
<path d="" fill="#47334B" transform="translate(0,0)"/>
<path d="" fill="#998059" transform="translate(0,0)"/>
<path d="" fill="#FCFDFE" transform="translate(0,0)"/>
<path d="" fill="#FFFDFF" transform="translate(0,0)"/>
<path d="" fill="#998059" transform="translate(0,0)"/>
<path d="" fill="#FFFDFF" transform="translate(0,0)"/>
<path d="" fill="#FAFAFA" transform="translate(0,0)"/>
<path d="" fill="#978158" transform="translate(0,0)"/>
<path d="" fill="#FCFDFE" transform="translate(0,0)"/>
<path d="" fill="#FFFDFF" transform="translate(0,0)"/>
<path d="" fill="#FFFFFF" transform="translate(0,0)"/>
<path d="" fill="#FFFFFF" transform="translate(0,0)"/>
<path d="" fill="#FCFDFE" transform="translate(0,0)"/>
<path d="" fill="#EAEEEF" transform="translate(0,0)"/>
<path d="" fill="#858588" transform="translate(0,0)"/>
<path d="" fill="#E6BA9B" transform="translate(0,0)"/>
<path d="" fill="#E5BA96" transform="translate(0,0)"/>
<path d="" fill="#EAC497" transform="translate(0,0)"/>
<path d="" fill="#E6BA9B" transform="translate(0,0)"/>
<path d="" fill="#6C4E39" transform="translate(0,0)"/>
<path d="" fill="#897051" transform="translate(0,0)"/>
<path d="" fill="#D3AF8F" transform="translate(0,0)"/>
<path d="" fill="#646367" transform="translate(0,0)"/>
<path d="" fill="#646367" transform="translate(0,0)"/>
<path d="" fill="#17181C" transform="translate(0,0)"/>
</svg>
