<?xml version="1.0" encoding="UTF-8"?>
<svg version="1.1" viewBox="0 0 1600 800" width="1280" height="1280" xmlns="http://www.w3.org/2000/svg">
<path transform="translate(0)" d="m0 0h1600v800h-1600z" fill="transparent"/>
<path transform="translate(990,115)" d="m0 0h10l22 12 54 30 23 13 11 6v2l6 2 10 6 24 13 19 11 27 15 46 26 27 15 42 24 6 7 1 2v8l-5 16-20 58-13 37-14 40-6 17-15 43-14 41-4-1-32-20v5l-5-2-15-9-1-1v-8l-4-1-18-11-16-10-23-15-1 7-4-1-13-8-1-1v-10l-6-2-15-10-18-11-19-12-25-16-38-24-7-4 1 14 15 10 17 11 50 32 23 15 25 16 23 15 17 11 22 14 46 30 17 11 12 8 6 6-1 9-2 4-17 10-20 12-19 11-58 34-53 31-21 12-5 2-10-1-18-11-15-10-22-14-25-16-23-15-25-16-15-10-16-10-23-15-17-11-33-22-5-2-1-3h-3l-1-2-3-1v-2l-5-2-9-6-7-3-16-10-15-10-22-14-12-8-20-13-4-7v-9h-4v3l-6 3-3 2-3-1 3-2h-2l-7 4-2 2 2 1-14 10-4 1v-2l-5 4-6 9-1 3v16l3 14 1 4h2l4 6 7 6 10 7 6 3 10 7 10 5v2l5 2 6 3v-2l5 2 5 4-3 1 8 6 1-3 5 2v2l4 1 3 2-1 2 2 4 6 2 10 6h3l4 5 9 6 11 8 15 9h4l4 7v2l5 1 2 1v2l6 2 5 4 6 4 5 3 10 8 2 1v2h2l1-2 3 1 1 4 4 3 2-1h3l4 4v4l10 6-1-2h3v2l5 2 2 1v2l5 2 2 3-3 1 4 3v2h2v2l5 2 6 3 9 3 8 7 7 6 3 3 7 5-1 3-4-2-8-6v2 2l6 2 6 5 7 8 6 5 1 6-1 3-5 1h-61l-25-2-3-1-14-1h-12l-3-5v-11l-2-1-2-6-3 12-3 5-18 11-9 6-8 6-5 1v2l-5 1-1 3-7 4-2 2h-3v2l-4 2h-63l-10-7v-2l-5-2-2-1v-2l-5-2-20-14-3-3-3-1v-2l-4-1v-2l-5-2-11-8-14-10-18-13-16-12-15-11-14-9-13-10-2-1v-2h-3l-5-5-5-6 1-7 4-5 20-12 25-14 23-14 13-8 12-4-9 1-8 4h-3v2l-11 6h-3v2l-16 8-3 1-4-2-4-4-2-1-1-8-8-6-1-9-3-5-3-9-6-14-1-4 6-9 3-9v-33l2-4v-14l-16-11-17-11-27-18-14-10-9-5-21-14-25-17-17-11-11-7-4-4-16-10-9-7-1-2-1-17v-83l5 1 26 17 33 22 16 10 21 14 32 21 27 18 22 14 14 10 2 3 1 71 2 4h4l2-5 6-3 4-5 6-2 2-14 2 1 3-10 3-17 4-1-3-9v-4l-4-1-1-11v-7l3-9 4-5h9l5 2 5 4 3 4v3h2l1 2 3-5 5-2 5-5 10-7 5-2 4-1-3-6-2-1 3-2h4v-14l5 1 24 15-6-5v-3l6-2v-2l3-1h3l7-4 9-3 7-5 13-2 6-3 11-1 8-7 5-2v2l17-3 3-1 1-2 5-1 1 1 10-1 7-4 9-1 2-2 11 1 1-2h2l-2-1v-2l-5-2-3-1v-2l-5-1-7-4v-2l-5-2-3-1v-2l-9-3-2-2v-16l5 2 9 5v2l5 1 7 4v2l5 1v2l5 1v2l5 1 7 4v2l9 3 6 5h4 40l6 2 1-3 6 1 1-3-4-1v-17l10 5 27 16 5 2 1-5 9-26 4-10 3-9 1-6 4-9 1-43 4 2 1-11 5 1 1 15 10-29 9-26 11-30 4-6z" fill="#0D2771"/>
<path transform="translate(990,115)" d="m0 0h10l22 12 54 30 23 13 11 6v2l6 2 10 6 24 13 19 11 27 15 46 26 27 15 42 24 6 7 1 2v8l-5 16-20 58-13 37-14 40-6 17-15 43-14 41-4-1-32-20v5l-5-2-15-9-1-1v-8l-4-1-18-11-16-10-23-15-1 7-4-1-13-8-1-1v-10l-6-2-15-10-18-11-19-12-25-16-38-24-18-11-41-26-10-6 1-7 8-23v-3l-25-14-10-6v-17l10 5 27 16 5 2 1-5 9-26 4-10 3-9 1-6 4-9 1-43 4 2 1-11 5 1 1 15 10-29 9-26 11-30 4-6z" fill="#2339CF"/>
<path transform="translate(836,349)" d="m0 0 7 4 1 18 16-10 10-5 11-1 15 9 16 10 23 14 13 8 10 6 24 16 17 11 50 32 23 15 25 16 23 15 17 11 22 14 46 30 17 11 12 8 6 6-1 9-2 4-17 10-20 12-19 11-58 34-53 31-21 12-5 2-10-1-18-11-15-10-22-14-25-16-23-15-25-16-15-10-16-10-23-15-17-11-33-22-5-2-1-3h-3l-1-2-3-1v-2l-5-2-9-6-7-3-16-10-15-10-22-14-12-8-20-13-4-7 1-10 2-3h3v-2l-5-2-3-2v-9l5 2 3 3v2h-3v2l4 2 4-1 3-2-1-6 5 3h3l-8-6 1-3 17 11-5-5-12-8-1-4-2 1 1 4h-2l-1-2-1 2-5-2-13-8 4 4 14 9v3l-5-2-14-9v-2l-6-2-1-5-2-9 2-2-2-8v-6l8 4 6 5v-2h3l-7-5 1-3 16 10-3-3v-2l-4-1-10-7 1-3 11 7 6 4-5-5-12-8-1-4 12 7 6 4 1 4 2 1 3 5 16 10 7 5-1 3-22-14-1-3v4l18 12v3l-5-2-12-8 5 5 7 6 12 8 3 1v-2h3v-2l6-2 4-2 5-5 17-9 15-9 9-3 9-6h2l-5-6v-29l5 2 2 1v-20l4 1 3 2v43l1-34 5 2 1 1 1 24 6 2v23l-11-6-6-3 9 6-2 2-4 2-1 4-7 3-11 6-2 5h-2v-2l-13 6-4 2-2 4-1 32v41l4 5 5 3 1-63 1-10 5 2 18 11 6 1-1 4h2v2l5 1 8 5h6l-1 4 8 5 2-1 5 3v2h2v4l5 1 17 11 22 14 14 9 7 3 4 3 1 3 5 2 14 9 6-1 12-7-3-1-12 7-5-2-31-20-17-11-8-5v-2l-4-1-5-3v-2l-4-1-12-8-4-3 4-2v-2l6-3h3l-1-2-4 1-9 4h-2l-1 2-9-7-3-2v-3l9-5h2l-2-3-4-1v2l-10 5-3-1 3-3 6-1v-2h-3l2-5-5-2-1-2h-3v-2l-2-1 1-2-3-1 2-1 3 2 6-1 7-4 6-2v-3l-5 1-4 1-1-2-4-1v-3l2-1 1-3h-2l1-2 6 4 5 2 3 2h4l1-2 6-3h2l-1-3-11-6-11-7-7-4v-44l5 2 1 1v12l5 2 2 1 1-32 5 1 2 2z" fill="#2238CE"/>
<path transform="translate(675,469)" d="m0 0h4l2 12 2 4 5 2 15 10 23 15 17 11 11 7 17 11 7 3 11 7v2l4 1v2h3l2 3 7 3 30 20 51 33 11 7 20 13 25 16 23 15 22 14 14 9 17 11 16 10 10 1 16-8 53-31 27-16 45-26 15-9 22-13 13-8h2l2-7h2l1-3 1 3v7l-3 9-5 5-1 4 10 7 8 4 5 4 7 6 3 1 7 11 3 12-1 17-3 10-7 10-9 7-16 12-15 11-11 8-11 7-12 9-6 4-10 8-16 11-9 6-4 5-12 8-2 4h-395l4-2v-2l5-3 7-4 3-3h3v-2l6-3 10-7 16-10 6-4h2l2-5 2-6 1-9 1 3 2 1v5l3 1v12l2 3h15l11 1 3 1 25 2h66v-9l-4-2-14-14-5-3-3-3-1-4 8 6 5 3v-3l-8-5-5-6-9-7-6-3-7-2-8-5v-2h-2l-5-6 3-1-6-4v-2l-5-2-2-1v-2l-2 1 1 2-5-2-8-6 1-4-5-3-1 2-4-2-5-4 1-1h-3-2v-2l-5-2-9-8-6-3-8-6-6-3v-2l-7-2-3-5-2-4-2-1-1 2-20-12-11-9-6-4-2-2-12-6-7-4v-2l-4-2 3-2-4-2-3-1v-2h-4l-2 2-9-7 1-2-5-4-2-1v2l4 2-5-1-10-6v-2l-6-2-10-6-7-5-9-5-10-8-5-6v-2h-2l-3-7-2-11v-16l4-8 7-8 3-1 1 2 12-8 2-2-2-1 8-6 5-2 1 3 5-3h3z" fill="#03101E"/>
<path transform="translate(178,442)" d="m0 0 9 3 10 7 9 5 9 6 11 7 12 7 9 6 7 5 5 3 10 5 14 10 7 4 12 9 11 4 6 4 2 5v8l2 5v35l5-1 2 4 1 17v186l-1 14h-99l-8-6-20-13-3-1-3-3-10-7-7-3-7-5v-2h-3l-2-3-1-5v-218l1-87 2-2h3v-2z" fill="#131C2C"/>
<path transform="translate(761,269)" d="m0 0 5 2 9 5v2l5 1 7 4v2l5 1v2l5 1v2l5 1 7 4v2l9 3 6 5h4 40l6 2 1-3 6 1 1-2 5 2 17 10 10 6-2 9-8 24 5 2 24 15 19 12 14 9v14l-5-2-10-6-18-11-21-13-18-11-13-8-11 1-12 6-14 9h-1l-1-19-5-3-1 78h-1l-1-66-6-3v33l-8-4-1-12-5-3 1 44 4 2 1-29h1l1 31 11 7 11 6v3l-5 3h-3l-1 3-6-1-2-2-7-3-3-2 1 1-1 4h-2v3l5 1v2l5-3 5 1-1 4-9 4-6 3-5-1h-1l1 5 4-1 5 5-2 5h3v2l-8 3 2 1 7-4h3v-2l5 1 1 3-9 5h-2l1 3 11 8 6-3h2l1-2 4-2 4 1v2l-9 3v2l-3 2 15 10 4 2v2l5 2 4 2v2l5 2 34 22 20 13 5-2 9-5 4 1-4 4-11 6-5-1-16-10h-3l-2-5-5-3-4-1-22-14-25-16-8-5-3-1v-4h-2v-2l-6-2h-3l-7-5v-3l-6-1-7-5-4-1v-2h-2l1-4h-6l-18-11-5-3-1 71-1 2-5-2-5-6v-41l1-32 3-5 14-7h3v2h2l2-6 14-8h4l1-5 4-3-9-6-2-2 5 1 15 9 1-22-6-2-1 3-1-27-5-3v37l-2-3v-43l-6-3v20l-5-2-2-1 1 30 4 3v2l-15 9-7 2-22 13-11 6-4 4-3 2h-5v2h-3v2l-4-1-14-9-5-5-6-5 1-2 10 7 8 5-1-3-16-10-3-5 2-1 5 5 16 10 2 1 5-5 3 3 1-10-10-7-17-11-22-14-25-16-18-12v-12l5 1 24 15-6-5v-3l6-2v-2l3-1h3l7-4 9-3 7-5 13-2 6-3 11-1 8-7 5-2v2l17-3 3-1 1-2 5-1 1 1 10-1 7-4 9-1 2-2 11 1 1-2h2l-2-1v-2l-5-2-3-1v-2l-5-1-7-4v-2l-5-2-3-1v-2l-9-3-2-2z" fill="#0C2770"/>
<path transform="translate(299,550)" d="m0 0 7 1 9 6v124l-1 17-6 2h-3v3l-5 3-6 4-2 6-3 3-8-5 1-6-4-7 3 5-1 7 2 3 3 1 2 5v6h-4l2 6 1 6-2 3-4-2-1-2-2 1v5h-5l-3-4-2-5-5 1-4-6v-10h-2l1 5v6l5 6 5-1 1 5-5 4-5 5-4 2h-6v3l3 1-3 5-12 9v6l-14-7-13-8-25-16-10-6v-68l3-3 5-3 4-4 2 1 1-9 5 2 16 10 9 5 4 1v-2l-5-2-20-12-9-6v-9l5 2 9 5 3 1 1-5 5-5-5-4v-2l-4-1-3-4v-4l-3-1-6-16 1-7h-2v-7l2-2-1-4 2-4 2-1 1-4 4-1 1 2v-3l3-1 9 4 1 4 5 1 3 3-1 6 4-1 3 6-1 3h-3l1 2 4-1 2 6v4h-3v2l4 1 1 7 3-6-2-1 3-4 6-2 4-8 4-5 10-6 3-6 6-3 2-5 7-9 5-5h3l2-4 5-5z" fill="#2239CE"/>
<path transform="translate(275,110)" d="m0 0 4 1 19 12 57 37 43 28 25 16 43 28 6 5 1 4-1 100-3 1-2-1v-2l-4-1-6-4v-2l-5-2-19-12-12-8-16-11-12-7-24-16-2-1v-2l-5-2-14-9-17-11-23-15-8-5v-2l-5-2-17-11-3-4v-83l-1-1v-17z" fill="#362F74"/>
<path transform="translate(337,274)" d="m0 0 5 1 26 17 33 22 16 10 21 14 32 21 27 18 22 14 14 10 2 3v33l-1 67-3 1-19-13-17-11-30-20-14-10-9-5-21-14-25-17-17-11-11-7-4-4-16-10-9-7-1-2-1-17z" fill="#342F75"/>
<path transform="translate(278,355)" d="m0 0 10 6 43 29 17 11 117 78 6 6v63l-1 32-3 3-39-26-20-14-8-6-1-4 8-2 5-5 8-6 4-2h3l1-5 2-2h3l-1-4-4-2 1 3h-2v3l-13 4h-2l1 8-3 2-5-5h-26l1 3-5-2-16-11-48-32-14-9-3-3-15-10-2-6v-94z" fill="#362F74"/>
<path transform="translate(597,609)" d="m0 0h17l42 28 11 8-1 6 1 15-1 2h-5l5 5 1 4v109 3 3l-6-2-3-2v-2l-5-2-20-14-3-3-3-1v-2l-4-1v-2l-5-2-11-8-14-10-18-13-16-12-15-11-14-9-13-10-2-1v-2h-3l-5-5-5-6 1-7 4-5 20-12 25-14 23-14 13-8z" fill="#01E0FD"/>
<path transform="translate(675,469)" d="m0 0h4v9h-1l-1-6-3 11-5 5-8 6-6 8-1 5v14l2 12 5 10 5 4 3 3 11 7 1 2 6 3 10 6 4 4 6 3v2l6 2 10 7 5 3 11 7 4 3 4 2v2l6 2 7 4v2l5 2 5 4 11 7 15 10 11 8 6 3 13 9 3 3 16 9 16 12 5 2 1 2 9 5 5 5 6 3 11 8 2 1v2l6 2 5 5 12 8 6 5 8 5v2l5 1 5 4v2l6 2 15 11 12 8 7 6v2l6 2 7 4 4 4 9 6 16 11 3 2v2h-294l4-2v-2l5-3 7-4 3-3h3v-2l6-3 10-7 16-10 6-4h2l2-5 2-6 1-9 1 3 2 1v5l3 1v12l2 3h15l11 1 3 1 25 2h66v-9l-4-2-14-14-5-3-3-3-1-4 8 6 5 3v-3l-8-5-5-6-9-7-6-3-7-2-8-5v-2h-2l-5-6 3-1-6-4v-2l-5-2-2-1v-2l-2 1 1 2-5-2-8-6 1-4-5-3-1 2-4-2-5-4 1-1h-3-2v-2l-5-2-9-8-6-3-8-6-6-3v-2l-7-2-3-5-2-4-2-1-1 2-20-12-11-9-6-4-2-2-12-6-7-4v-2l-4-2 3-2-4-2-3-1v-2h-4l-2 2-9-7 1-2-5-4-2-1v2l4 2-5-1-10-6v-2l-6-2-10-6-7-5-9-5-10-8-5-6v-2h-2l-3-7-2-11v-16l4-8 7-8 3-1 1 2 12-8 2-2-2-1 8-6 5-2 1 3 5-3h3z" fill="#04153C"/>
<path transform="translate(987,97)" d="m0 0 10 2 3 1v2l4 1 8 4v2l5 1 3 1v2l4 1 17 10 5 2 14 8 7 5 13 6v2l5 1 9 6 6 3 7 3v2l6 2 7 3v2l6 2 4 3 12 6 8 5 5 2v2l5 1 13 8 11 6 10 6 16 8 14 8 9 5v2l5 1 2 1v2h4v2l4 1 12 6 9 6 5 2v2l4 1 2 1v2l6 1 8 4 7 5 6 3 10 6 8 4 8 6 2 5v8l-2 11-4 10-3 10-3 7-9 26-7 19-4 14-4 10-5 13-4 13-3 8-7 21-4 10-3 10-5 14-2 9-4 13-3 7-8 24-7 20-1 5h-2v3h-2v2l-5-1-13-9-6-3-7-3-60-39-11-7-17-11-25-16-23-15-25-16-23-15-22-14-20-13-15-10-1-1v-14l5 2 18 11 82 52 16 10 7 4 1 10 14 9 3 1v-8l12 7 14 9 33 21 3 1 1 8 20 12v-5l4 2 14 8 15 10 3 1 2-9 21-61 7-20 15-43 17-48 20-58 4-13v-8l-4-6-9-6-46-26-27-15-64-36-23-13-21-12-11-6-2-1v-2l-6-2-25-14-23-13-27-15-25-14-4-2h-10l-4 4-7 18-9 26-9 25-4 12-3 8h-1v-17l-3-1-1-4h2l-1-3 4-10 6-18 4-10 14-42 5-5z" fill="#091B30"/>
<path transform="translate(666,644)" d="m0 0 5 2 23 15v2l5 2 16 10 12 8v2l5 1 1 3h3l1 2 5 3 6 3 16 11 18 13 18 14 4 6 1 8-3 8-4 4-17 11-14 9-5 3h-2v2l-5 1-1 3-7 4-2 2h-3v2l-4 2h-63l-10-7 1-4v-3-112l-5-4v-2h5l-1-18z" fill="#2239CE"/>
<path transform="translate(174,469)" d="m0 0 5 2 11 7 15 9 5 4 9 5 20 13 14 9 24 15 3 1v2l4 2 17 10 1 2-8 4-5 5-2 3-6 3-4 6-5 6-2 5-6 3-3 6-10 6-5 7-3 6-7 3v3l-1 5-3 3v-9l-4-1v-2h3l-3-9-4 1v-3l3-1-2-8-5 2 1-7-3-3-4-1-2-4-5-1v-2h-6l1 6-2-2v-3l-4 1v5l-3 1-1 5 1 3-2 1-1 7h2v7l6 16 2 1 2 5 2 3 3 1 5 5 1 2-3 1-4 8 2 1-5-1-14-8 1 9 23 14 10 6v2l-6-1-10-6-18-11v10l-3-1-7 6-4 1-1 2z" fill="#201274"/>
<path transform="translate(275,110)" d="m0 0 4 1 19 12 57 37 43 28 25 16 43 28 6 5 1 7-1 13-11-7-25-16-26-17-6-4h-2l5 3 1 9 2 4 5 3v6l-4 1 3 4v5h-5l5 5v5l-4-1-8-5-1 4h-4l-3 6v7h-3v-2l-4-2-9-4-5-3-1 1-4 1-5-4-5-2-2-2-7-2-2-5-4-2-2-6-11-8v-6l1-3-1-2v-8l-3-1 4-1-1-1-6-4v-3l-4-2-2-2v-4l4 1 9 6 8 3 2 1-4-4-4-3v-5l8 2 5 3 2-3v4l2-2 1-4 5 1 5 2 5-3 6 1-16-10-43-28-22-14-16-11-1-1v-17z" fill="#552A6C"/>
<path transform="translate(337,274)" d="m0 0 5 1 26 17 33 22 16 10 21 14 32 21 27 18 22 14 14 10 2 3v18l-5-2-43-29-11-7-24-16h-2l7 5 6 3v6l3 6 2 1v2l5 2 4 4-1 5-11-6 2 4 10 7-1 5-5-2-6-4-5-1 1 3-4 2-2 2h-2l2 3v6l-5-2-5-3h-2l4 4 8 5v6l-5-2-17-11-12-6-1 2-5-3-1 2-4-8-3-2v-2l-4-2-4-4-5-3v-2h-2v-5l2-2-2-6 1-2 5 1 6 3-4-6-15-10-5-4v-4l5 1 13 9 4 1v-2l-21-14-1-7 6 2-4-4-2-1v-6l6 1 11 6 1-3 2-2-1-3-17-11-45-30z" fill="#562A6C"/>
<path transform="translate(278,355)" d="m0 0 10 6 43 29 17 11 117 78 5 5v19l-9-6-43-29-12-8 5 5-2 3h-2l6 8 1 5-5 1 3 5 2 1-1 4h-3l1 3 2 1v6l-5-2-6-4-2-3-1 2-4 1-1 5h-4v-2h-4l7 7v4l-5-1-10-7-11-7-7-2-3-2-2 1-3-3h-3l-1-3 2-1-16-11-3-2v-7l1-2h-3l1-5h-3v-2l-3 1-5-5-12-8-1-5h3l6 4 10 4 2 2 1 5v-4h3l-5-5-7-6 1-4 5 2 2 2h3l-5-5-5-4v-5l4 2 11 7h3l-5-5-12-8-1-1v-5l4 2 14 9 7 3 4-1h8l8 5-11-8-44-29-33-22v-18z" fill="#552A6C"/>
<path transform="translate(792,352)" d="m0 0 4 1 3 2v43l1-34 5 2 1 1 1 24 6 2v23l-11-6-6-3 9 6-2 2-4 2-1 4-7 3-11 6-2 5h-2v-2l-13 6-4 2-2 4-1 32v41l4 5 5 4h-3l-4-3h-2l-1 2h-2v2l5 2 1 3-5-2-11-7-34-22-26-17-4-7 1-10 2-3h3v-2l-5-2-3-2v-9l5 2 3 3v2h-3v2l4 2 4-1 3-2-1-6 5 3h3l-8-6 1-3 17 11-5-5-12-8-1-4-2 1 1 4h-2l-1-2-1 2-5-2-13-8 4 4 14 9v3l-5-2-14-9v-2l-6-2-1-5-2-9 2-2-2-8v-6l8 4 6 5v-2h3l-7-5 1-3 16 10-3-3v-2l-4-1-10-7 1-3 11 7 6 4-5-5-12-8-1-4 12 7 6 4 1 4 2 1 3 5 16 10 7 5-1 3-22-14-1-3v4l18 12v3l-5-2-12-8 5 5 7 6 12 8 3 1v-2h3v-2l6-2 4-2 5-5 17-9 15-9 9-3 9-6h2l-5-6v-29l5 2 2 1z" fill="#211B98"/>
<path transform="translate(948,191)" d="m0 0 4 2v19l5 1 1 1v9l4 1 1-7 5 2v10l5 2 1 8 4 2v4l5 2 1-7 5 2v-9l6 3v-5l5 2v-6l6 3-1-5 4 1 2 1v9l5 2 1 8 5 3v7l5 2 1 1v9l5 2 2-4 4 3v7l5 2 1 1v5l6 1v-3l4 1 2 1v5l6 2v-5l6 2v-6l6 1v-2l4 1 2 1v-6l5 1 1 1 2-4 5 3v10l4 1 2 1v6l5 1 2 2v6l4 1 2 1 1 13v33l-5-2-13-8-25-15-27-16-26-16-25-15-14-9-11-6-25-15v-51l4 2z" fill="#61B7F3"/>
<path transform="translate(990,115)" d="m0 0h10l22 12 54 30 19 11-3 1-18-10-5 2-5 5-9 2-3 5-10 2-4 6-1 1-8 1-5 4-11 1-2 4-11 8-10 1-2 1-3 6-10 2-3 6-4-2v3l2 2v9l2 1h-4v-10l-5-2v8l-5-2-1-9-5-2-1-20h2l1 15 10-29 9-26 11-30 4-6z" fill="#211B99"/>
<path transform="translate(588,612)" d="m0 0h2v27l-1 94 2 4 5 5-4-2-17-12-16-12-15-11-14-9-13-10-2-1v-2h-3l-5-5-5-6 1-7 4-5 20-12 25-14 23-14z" fill="#0777C4"/>
<path transform="translate(516,702)" d="m0 0 5 1 20 14 13 10 12 8 13 10 18 13 32 24 10 8 12 9v1h-58l-3-4 1-4-5 2-4-1v-3l-4-2-5-3v-2l-4-2-3-2v-2l-6-2-10-7-14-10-3-2v-2l-5-2-5-4-5-3-11-8-1-4h-2l-3-9v-10l3-4h2l1-3 4-3z" fill="#03101F"/>
<path transform="translate(314,681)" d="m0 0h1v119h-48l-4-4-18-11-14-9 3-1h1l1-5 12-9v-3l2-1-2-1v-3l8-1 5-6 4-1 1-3 1-1-1-3-4 1-6-7v-11h2l1 5 1 7 2 3 5-1 2 2 3 7 5 1-1-6h4l4 4 1-7-2-3v-5h4l-2-11-4-1-2-5 1-5-3-4 1-2 4 5 1 4-1 5 7 4 4-6 2-4 5-3 5-2v-3l6-2 2-1z" fill="#0C2670"/>
<path transform="translate(747,527)" d="m0 0 5 2 18 11 8 4 11 7v2l4 1v2h3l2 3 7 3 30 20 51 33 11 7 20 13 25 16 23 15 22 14 14 9 17 11 16 10 10 1 16-8 53-31 27-16 5-3 2 1 1 4 3 1v2h-2l-2 4-4 3-6 1v2l-14 9-9 5-10 6-34 20-14 8-9 3h-8l-9-3-20-13-11-7-16-10-17-11-21-13-10-7-18-11-22-14-20-13-28-18-11-7-16-10-9-6-17-11-19-12-11-8-7-4-6-4-1-2-5-2-2-3 3-3 4 2 1 2 3-1-7-5z" fill="#06163C"/>
<path transform="translate(493,397)" d="m0 0 7 2 35 23-1 82-3 1-19-13-17-11-30-20-16-11-1-5 10-2 5-6 11 6-2-5-2-2v-3l7 1 1-3 5-1-1-3 1-2h3l-3-5 6 1 3 3 7 5h5l-1-4-10-7-2-4 6 2v2h5l3 2v2l5 2 18 11-2-5-13-9-9-6-7-3-7-5 2-9z" fill="#105EA8"/>
<path transform="translate(299,550)" d="m0 0 7 1 9 6v9h-1v-5l-5 5-9 8-4 3-3 5-6 5h-2l-2 4-4 5-6 5-5 3-1 6-6-2-6-3 1 10-3 7-3 3h-2l-1 3h-2l-4 6-7 3h-4l-2 10-10 8 11 8v10l-4-1-12-7-15-9-9-6v-9l5 2 9 5 3 1 1-5 5-5-5-4v-2l-4-1-3-4v-4l-3-1-6-16 1-7h-2v-7l2-2-1-4 2-4 2-1 1-4 4-1 1 2v-3l3-1 9 4 1 4 5 1 3 3-1 6 4-1 3 6-1 3h-3l1 2 4-1 2 6v4h-3v2l4 1 1 7 3-6-2-1 3-4 6-2 4-8 4-5 10-6 3-6 6-3 2-5 7-9 5-5h3l2-4 5-5z" fill="#211B99"/>
<path transform="translate(813,373)" d="m0 0h1l1 44 4 2 1-29h1l1 31 11 7 11 6v3l-5 3h-3l-1 3-6-1-2-2-7-3-3-2 1 1-1 4h-2v3l5 1v2l5-3 5 1-1 4-9 4-6 3-5-1h-1l1 5 4-1 5 5-2 5h3v2l-8 3 2 1 7-4h3v-2l5 1 1 3-9 5h-2l1 3 11 8 6-3h2l1-2 4-2 4 1v2l-9 3v2l-3 2 15 10 4 2v2l5 2 4 2v2l5 2 34 22 20 13 5-2 9-5 4 1-4 4-11 6-5-1-16-10h-3l-2-5-5-3-4-1-22-14-25-16-8-5-3-1v-4h-2v-2l-6-2h-3l-7-5v-3l-6-1-7-5-4-1v-2h-2l1-4h-6l-18-11-5-3-1 71-1 2-5-2-5-6v-41l1-32 3-5 14-7h3v2h2l2-6 14-8h4l1-5 4-3-9-6-2-2 5 1 15 9 1-22-4-2 4-1z" fill="#201B96"/>
<path transform="translate(275,110)" d="m0 0 4 1 19 12 57 37 43 28 25 16 43 28 6 5 1 7-1 13-11-7-25-16-123-80-22-14-16-11-1-1v-17z" fill="#88AAD8"/>
<path transform="translate(740,693)" d="m0 0 8 4 16 11 18 13 18 14 4 6 1 8-3 8-4 4-17 11-14 9-5 3h-2v2l-5 1-1 3-7 4-2 2h-3v2l-3 1 1-10v-66h2l-1-4-1-1z" fill="#2338CE"/>
<path transform="translate(337,274)" d="m0 0 5 1 26 17 33 22 16 10 21 14 32 21 27 18 22 14 14 10 2 3v18l-5-2-43-29-11-7-18-12-76-50-45-30z" fill="#87AAD8"/>
<path transform="translate(278,355)" d="m0 0 10 6 43 29 17 11 117 78 5 5v19l-9-6-43-29-141-94v-18z" fill="#88AAD8"/>
<path transform="translate(446,240)" d="m0 0 9 5 16 11 1-12h1l-1 97-3 1-2-1v-2l-4-1-6-4v-2l-5-2-19-12-12-8-16-11-5-5 11-6h2l2-4 9-6 3-3h2l1-3 7 2 5 2-2-5-3-5h6l-1-6-4-4 5 2 9 4 13 8-1-5-16-10-5-6v-2h2l-1-5z" fill="#0D7095"/>
<path transform="translate(1034,266)" d="m0 0 5 3v7l5 2 1 1v5l6 1v-3l4 1 2 1v5l6 2v-5l6 2v-6l6 1v-2l4 1 2 1v-6l5 1 1 1 2-4 5 3v10l4 1 2 1v6l5 1 2 2v6l4 1 2 1 1 13v33l-5-2-13-8-25-15-27-16-13-8-3-3 5 1v-31z" fill="#5EBAF6"/>
<path transform="translate(440,483)" d="m0 0 5 2 19 13 5 4 1-17h1v63l-1 32-3 3-39-26-20-14-8-6-1-4 8-2 5-5 8-6 4-2h3l1-5 2-2h3l2-4 6 3-2-5-1-4 6 1 1 3 5 3v2l4 1 3 3h-5l1 6h3v2l4 1v2h4l-2-5 1-4h2v-6l-5-1-16-11-4-3-1-7v-3z" fill="#0D7294"/>
<path transform="translate(832,496)" d="m0 0 5 1 17 11 22 14 14 9 7 3 4 3v18l-2 58-5-2-4-3 1-49h-1l-2-7-6-3-2 7-10 7-12 7-4 1v-24l-7-4v30l-4-1v-2l-5-2-6-4-1-16v-15z" fill="#2439CF"/>
<path transform="translate(337,292)" d="m0 0 9 5 54 36 2 2-5 6-6-2-8-4-3-1v6l5 2 2 4-7-3v6l1 4-2 2v5l-1 1-7-1-4-2v7l4 2-3 1h-2v5l9 7v2l-2 1v2h-2l2 11h-5l-27-18-3-4-1-17z" fill="#0D7195"/>
<path transform="translate(712,675)" d="m0 0 5 1 10 7v2l5 1 1 3h3l1 2 3 1 1 7v19l2 2-1 4-2-1 1 8v63l-3 6h-25v-95h3l-4-7z" fill="#E634C6"/>
<path transform="translate(640,627)" d="m0 0 9 5 18 13-1 6 1 15-1 2h-5l5 5 1 4v109 3 3l-6-2-3-2v-2l-5-2-14-10 2-1h3v-141l-4-3z" fill="#2A9CE9"/>
<path transform="translate(1270,495)" d="m0 0h6l1 1 1 7 4 5h1v10l-1 4 1 49h-2l-5 9-2 7-4 3-2 10-4 6-7 1-8-4-5-2-2-14-2-3 1-8h2l-1-3 6-16 7-21 4-11 5-13 1-5z" fill="#0B256F"/>
<path transform="translate(691,661)" d="m0 0 8 4 14 9v24l3 5v2h-3v95h-21z" fill="#8642EA"/>
<path transform="translate(276,130)" d="m0 0 5 2 21 14 22 14 4 4 1 3-2 5-6-1-3-1v9l-3-1-1 3h-2v2l-5-1-16-9-8-5h-2l1 5 20 14 6 5-3 2-1-2-1 5 1 6-1 1-1 7h-2l2 19-5-2-18-11-4-5v-81z" fill="#0D7194"/>
<path transform="translate(836,349)" d="m0 0 6 3v29l5 1 3 2 1 20 6 3 1-38 7 4v73l-5-1-9-6-21-12-11-7-5-3v-44l5 2 1 1v12l5 2 2 1 1-32 5 1 2 2z" fill="#60B9F4"/>
<path transform="translate(277,374)" d="m0 0 8 4 13 9 29 19-5 5-4 1-2 5-5 3-4 3-2 8-2-2 1 7-2 1-2-5-10-6-6-3v6l11 7 5 6h-2l1 13v13l-5-2-15-10-2-6z" fill="#0D7294"/>
<path transform="translate(547,637)" d="m0 0h4v68l-1 3-5-2-15-10-13-10-2-1v-2h-3l-5-5-5-6 1-7 4-5 20-12z" fill="#2338CE"/>
<path transform="translate(189,654)" d="m0 0 5 2 16 10 9 5 1 1v9 4l17 10 1 1v9l-6-2-19-12h-4v9l-2 1 1 3 26 15 1 1v9l-6-2-39-24v-9h2l-4-3v-2l-5 3-6 5h-3v-25l3-3 5-3 4-4 2 1z" fill="#221B9A"/>
<path transform="translate(491,414)" d="m0 0 6 2v2h5l3 2v2l5 2 8 7v2h-4l1 8h2l1 3-3 2v2h-5l-1 4-7 8h-2v3h-2l-1 3-5 1v2h-2l-2 6-5-2-18-12-16-11-1-5 10-2 5-6 11 6-2-5-2-2v-3l7 1 1-3 5-1-1-3 1-2h3l-3-5 6 1 3 3 7 5h5l-1-4-10-7z" fill="#0D7294"/>
<path transform="translate(1145,653)" d="m0 0 2 1 1 4 3 1v2h-2l-2 4-4 3-6 1v2l-14 9-9 5-10 6-34 20-14 8-9 3h-8l-9-3-20-13-11-7-14-9v-3l1-4 4 1 10 6 7 3 22 14 5 3 10 1 16-8 53-31 27-16z" fill="#121C2F"/>
<path transform="translate(669,393)" d="m0 0 12 7 6 4 1 4 2 1 3 5 16 10 7 5-1 3-22-14-1-3v4l18 12v3l-5-2-12-8 5 5 3 2-1 3-3 1v2l5 2 17 11 1 4h-3v4h-3l2 3v3l-5-2-18-12-1-4 12 7 6 4-5-5-12-8-1-4-2 1 1 4h-2l-1-2-1 2-5-2-13-8 4 4 14 9v3l-5-2-14-9v-2l-6-2-1-5-2-9 2-2-2-8v-6l8 4 6 5v-2h3l-7-5 1-3 16 10-3-3v-2l-4-1-10-7 1-3 11 7 6 4-5-5-12-8z" fill="#2D41CB"/>
<path transform="translate(1034,266)" d="m0 0 5 3v7l5 2 1 1v5l6 1v-3l4 1 2 1v5l6 2v-5l6 2v-6l6 1v-2l4 1 3 2v36h-1l-1-36-3 1-1 45-5-2-27-16-13-8-3-3 5 1v-31z" fill="#5BB2F3"/>
<path transform="translate(203,575)" d="m0 0 9 3 2 2v3l5 1 3 3-1 6 4-1 3 6-1 3h-3l1 2 4-1 2 6v4h-3l-1 2-3-1 2 6v3l-5 5-2 5-1-3h-4v8h-1l-2-9-3-1v6l-5-1-3-4v-4l-3-1-6-16 1-7h-2v-7l2-2-1-4 2-4 2-1 1-4 4-1 1 2v-3z" fill="#21137A"/>
<path transform="translate(813,373)" d="m0 0h1l1 44 4 2 1-29h1l1 31 11 7 11 6v3l-5 3h-3l-1 3-6-1-2-2-7-3-3-2 1 1-1 4h-2v3l5 1v2l5-3 5 1-1 4-9 4-6 3-5-1-5-4-25-15v-5l15-9h4l1-5 4-3-9-6-2-2 5 1 15 9 1-22-4-2 4-1z" fill="#201B96"/>
<path transform="translate(948,191)" d="m0 0 4 2v19l5 1 1 1v9l4 1 1-7 5 2v10l5 2 1 8 4 2v28l-9-4-4-1-22-13v-51l4 2z" fill="#60B9F6"/>
<path transform="translate(697,433)" d="m0 0h5l15 10 3 1v-2h3v-2h2v54l-1 4-5-1-18-11-8-6-12-8-1-4 2-3h3v-2l-5-2-3-2v-9l5 2 3 3v2h-3v2l4 2 4-1 3-2-1-6 5 3h5l14 9-3-7 4 1v-4h3l-2-4-21-13-1-3z" fill="#2239CE"/>
<path transform="translate(879,339)" d="m0 0 11 6 13 7 1 3 5 2 24 15 19 12 14 9v14l-5-2-10-6-18-11-21-13-18-11-13-8-3-2v-14z" fill="#B1217F"/>
<path transform="translate(632,347)" d="m0 0 5 1 24 15 17 11 22 14 23 15 2 4v11l-5-2-23-15-22-14-25-16-18-12z" fill="#9CBFE1"/>
<path transform="translate(762,218)" d="m0 0 14 8 25 14 26 15 10 6 1 1v16l-11-6-23-13-22-13-20-12-1-1v-14z" fill="#105FA7"/>
<path transform="translate(1241,590)" d="m0 0 2 3v7l-3 9-5 5-5 3-3 1-1 3-19 9-5 3h-2v2l-4 3-9 2-2 4-5 1v2l-9 5-15 8h-3v2l-4 1v-2h2v-2l-4-1-1-4 4-4 23-13 34-20 15-9 13-8h2l2-7h2z" fill="#091120"/>
<path transform="translate(882,548)" d="m0 0 6 3 2 2-1 46-1 7-5-2-3-2-1-3-16-10-9-6 1-13 10-5 14-9z" fill="#2238CE"/>
<path transform="translate(510,680)" d="m0 0 2 1v2h3v2l5 2 11 9 16 10 13 10 19 14 18 13 10 7 16 11v2l4 1v2l4 1 6 5-1 3-5-2-9-7-5-4-11-7-22-16v-2l-5-1v3l-6-1-9-7-7-1-16-12-17-12-5-5v-2l-4-1v-2l-3-1 1-5 2-1-5-4z" fill="#0D1C3A"/>
<path transform="translate(261,692)" d="m0 0h6l2 3 2 6 2 1v-2l4 1 4 5-1 7 2 3 3 1 2 5v6h-4l2 6 1 6-2 3-4-2-1-2-2 1v5h-5l-3-4-2-5-5 1-4-6v-8l-1-2-4-2-2-10h5l-3-7-1-3 3-5 4 3v2h3z" fill="#A1C2E4"/>
<path transform="translate(328,656)" d="m0 0h1l1 10 1 42v78l-1 14h-8v-74l1-57 3-12z" fill="#091019"/>
<path transform="translate(178,442)" d="m0 0 9 3 10 7 9 5 9 6 11 7 12 7 9 6 7 5 5 3 10 5 14 10 7 4 12 9 5 2 4 4-1 4-3 1-7-3v-2l-6-2-10-7-18-11-13-8v-2l-5-2-7-4-17-11-18-12-7-4-17-11-9-6v-2z" fill="#091019"/>
<path transform="translate(761,269)" d="m0 0 5 2 9 5v2l5 1 7 4v2l5 1v2l5 1v2l5 1 7 4v2l9 3 8 6v15l-4-1-5-2v-2l-5-1v-2l-5-1-7-4v-2l-5-2-3-1v-2l-5-1-7-4v-2l-5-2-3-1v-2l-9-3-2-2z" fill="#AF207B"/>
<path transform="translate(747,527)" d="m0 0 5 2 18 11 8 4 11 7v2l4 1v2h3l5 5 2 1v2l6 2 1 2 7 4 9 6 10 6 5 5-1 2 4-1 4 4-6-1 5 3 2 1v2h-2l-1 2-10-6-16-10-9-6-17-11-19-12-11-8-7-4-6-4-1-2-5-2-2-3 3-3 4 2 1 2 3-1-7-5z" fill="#131C2F"/>
<path transform="translate(766,449)" d="m0 0 6 3 16 10 1 1h5l11-6h4v2l4-1 5 5-2 5h3v2l-8 3 2 1 7-4h3v-2l5 1 1 3-9 5h-2l1 3 11 8 6-3h2l1-2 4-2 4 1v2l-9 3v2l-3 2 15 10 4 2v2l5 2 4 2v2l5 2 34 22 20 13 5-2 9-5 4 1-4 4-11 6-5-1-16-10h-3l-2-5-5-3-4-1-22-14-25-16-8-5-3-1v-4h-2v-2l-6-2h-3l-7-5v-3l-6-1-7-5-4-1v-2h-2l1-4h-6l-18-11-5-3z" fill="#1F1C95"/>
<path transform="translate(588,612)" d="m0 0h2v27l-1 94 2 4 5 5-4-2-13-9 1-10v-93l-1-8 2-4z" fill="#2A9CE8"/>
<path transform="translate(792,352)" d="m0 0 4 1 3 2v43l1-34 5 2 1 1 1 24 6 2v23l-11-6-15-9-2-3v-29l5 2 2 1z" fill="#87A9D8"/>
<path transform="translate(440,483)" d="m0 0 5 2 19 13 5 4 1-17h1v63l-1 32-3 3-18-12 3-6 6-5v-3h2l2-4 6-5-4-2 1-4 1-2h2v-22h-3v6l-3-4 1-4h2v-6l-5-1-16-11-4-3-1-7v-3z" fill="#0E6495"/>
<path transform="translate(940,214)" d="m0 0h1v34l-3 7-1 7-4 10-6 17-5 14h-3l-1 4-6-4-1-5 4-12 5-16 4-9 12-36z" fill="#0A1C31"/>
<path transform="translate(790,403)" d="m0 0 3 1 4 4 8 5-2 2-4 2-1 4-7 3-11 6-2 5h-2v-2l-13 6-4 2-2 2-7-7v-2l3-1 1 2 1-3-7-1 1-3h3l1-3 6-3 18-11z" fill="#2238CE"/>
<path transform="translate(677,471)" d="m0 0h1v7h2l3 5v2l5 2 15 10 23 15 17 11 5 5 7 5-4 2-3-4h-4v2l-5-1-20-12-22-13-9-6-8-6v-2l-3-1-2-5v-12z" fill="#09101C"/>
<path transform="translate(858,369)" d="m0 0 7 4v73l-5-1-9-6-5-3 2-1v-29l4-2 5 3z" fill="#60BDF8"/>
<path transform="translate(761,244)" d="m0 0 6 2 22 13 20 12 1 1v16l-5-1-20-12-17-10-7-5z" fill="#AE1F76"/>
<path transform="translate(893,155)" d="m0 0 5 2 7 4v70l-5-2-7-5z" fill="#6F66ED"/>
<path transform="translate(468,515)" d="m0 0h1v26l-4 2-1 3h5v6l-2-2-6 5-3 3v3l-6 5-2 4-4-1-15-10-1-5 5-3 5-5 7-4 5-4 2-3 13-2v-4h-2l-4-4 3-1 1-6h3z" fill="#0777C2"/>
<path transform="translate(878,285)" d="m0 0 10 5 27 16 5 2 3 3 4 3v14l-5-1-11-6-23-13-10-6z" fill="#105FA7"/>
<path transform="translate(762,194)" d="m0 0 5 2 27 15 19 11v15h-4v-2l-5-2-8-4-22-13-12-6z" fill="#7268EE"/>
<path transform="translate(836,349)" d="m0 0 6 3v29l5 1 3 2v24h-1l-1 27-5-1-2-3-5-3z" fill="#68B9F1"/>
<path transform="translate(659,406)" d="m0 0 8 4 6 5v-2l7 2 5 3v3l1 4-7-6-1 3 5 2v2l5 2 4 4-5-2-8-5 1 3 11 7 3 3 1-2 5 5 11 7v2l-6-1-12-8h-3l1 4h-2l-1-2-1 2-5-2-13-8 4 4 14 9v3l-5-2-14-9v-2l-6-2-1-5-2-9 2-2-2-8z" fill="#30239E"/>
<path transform="translate(827,115)" d="m0 0 6 2 5 3v71l-11-6z" fill="#7268EE"/>
<path transform="translate(560,629)" d="m0 0 2 1-4 4h2l1 8-1 69-1 4-4-2-5-4 1-72-2-1z" fill="#1644A7"/>
<path transform="translate(840,132)" d="m0 0 7 4 5 2v61l-4-2-7-4-1-1z" fill="#6B64EB"/>
<path transform="translate(777,781)" d="m0 0 2 3 9-3 4 1 10 5 5 4v2l3 1 1 6h-54l2-3v-5l-3-1 9-5h2l1 5h3v-5h2v2l2 1v-2h2z" fill="#031020"/>
<path transform="translate(764,341)" d="m0 0 4 1 2 1v46l1-1v-22l6 2 1-12 6 3v39l-5-2-15-9z" fill="#74A8DC"/>
<path transform="translate(824,487)" d="m0 0 6 3v2h2v41l-1 35-5-1-4-4 1-75z" fill="#B62284"/>
<path transform="translate(776,92)" d="m0 0 11 6v62l-4-2-7-4z" fill="#7268EE"/>
<path transform="translate(533,454)" d="m0 0h1v50l-3 1-19-13-6-4 3-5 11-10 5-5 6-8z" fill="#1643A7"/>
<path transform="translate(907,177)" d="m0 0 12 6v56l-10-5-2-2z" fill="#7268EE"/>
<path transform="translate(758,446)" d="m0 0 6 2 3 3-1 73-1 2-5-2-3-3v-39z" fill="#B4207C"/>
<path transform="translate(893,532)" d="m0 0 7 4 1 1v18l-2 58-5-2-4-3 2-73z" fill="#A1C3E4"/>
<path transform="translate(1100,297)" d="m0 0 7 2v6l4 1 2 1 1 13v33l-5-2-8-5-1-2z" fill="#5CB4F4"/>
<path transform="translate(1019,249)" d="m0 0 2 2v5l5 1 2 2v9l5 2v32l-9-2-9-6 2-1v-42h2z" fill="#5EB6F5"/>
<path transform="translate(928,428)" d="m0 0 4 2 5 3 2 2v57l-5-2-6-4z" fill="#8643EA"/>
<path transform="translate(989,233)" d="m0 0 6 3v45l-5-2-11-7-11-6 2-2 7 4 1-23 5 2 1-7 5 2z" fill="#59AFEF"/>
<path transform="translate(1094,439)" d="m0 0 5 1 15 9 14 8 1 17-4 1-30-18-1-1z" fill="#B51E79"/>
<path transform="translate(677,450)" d="m0 0 5 2 3 3v2h-3v2l4 2 4-1 3-2-1-6 12 7 6 4 1 4h-2l2 4 9 6 1 9-4-1-16-10-3 1-3-2h-4v2h4l-2 4-12-8-1-4 2-3h3v-2l-5-2-3-2z" fill="#2139C8"/>
<path transform="translate(866,158)" d="m0 0 6 2 6 4v50l-5-1v-2l-7-2z" fill="#6B66EA"/>
<path transform="translate(748,439)" d="m0 0 5 2 3 2v34l-1 42-5-2-3-3v-25z" fill="#A2C5E4"/>
<path transform="translate(578,386)" d="m0 0 9 3 6 7 1 3 4 2-3 1 1 6 4 2h-3v6l-3 5-1 2-6 1-1-2h-4l-3-6v-4h-3l-2-10 3-2v-2l-3-1 1-7z" fill="#0E246F"/>
<path transform="translate(763,94)" d="m0 0 6 2 5 3v53l-5-2-6-3z" fill="#6B64EB"/>
<path transform="translate(801,117)" d="m0 0 5 2 6 4v52l-5-2-6-5z" fill="#7268EE"/>
<path transform="translate(632,347)" d="m0 0 5 1 24 15 17 11 6 4-2 3-9-6-2 1v2h-5v-2l-5 2-22-14-7-5z" fill="#9EC1E2"/>
<path transform="translate(573,377)" d="m0 0h9l5 2 5 4 3 4v3h2l2 5-1 5-5-1-1-5-4-2-3-3-6-2-3 3-2 7 4 1-1 3-2 1 2 13-3 4-3-5v-4l-4-1-1-11v-7l3-9z" fill="#C42DA9"/>
<path transform="translate(337,292)" d="m0 0 9 5 19 13-1 2-3-2-4 1-3 1-2 4-6 9-5 7h-2l1 6h-2v15h-1z" fill="#1544A6"/>
<path transform="translate(878,260)" d="m0 0 5 2 20 11 8 5v16l-6-2v-2l-6-2-8-4v-2l-7-2v-2l-5-2-1-1z" fill="#7268EE"/>
<path transform="translate(880,173)" d="m0 0 5 2 7 3v44l-5-1-7-4z" fill="#6B64EB"/>
<path transform="translate(986,473)" d="m0 0 5 2 6 4v47l-5-2-6-4z" fill="#8643EA"/>
<path transform="translate(633,360)" d="m0 0 5 2 9 6v2l11 7-2 3-9 5-5 6h-2l1 3-5 7-1 3h-2l-1-22v-19z" fill="#105FA6"/>
<path transform="translate(816,481)" d="m0 0 5 2 8 4h2l7-2 1-2 4-2 4 1v2l-9 3v2l-3 2 15 10 4 2v2l5 2 4 2v2l5 2 34 22 20 13 5-2 9-5 4 1-4 4-11 6-5-1-16-10h-3l-2-5-5-3-4-1-22-14-25-16-8-5-3-1v-4h-2v-2l-6-2h-3l-6-4z" fill="#091A51"/>
<path transform="translate(327,164)" d="m0 0 4 1 16 10 23 15 3 3-7-1-5 3-10-4v5l-5 1-5-3 4-1 1-6-5-2-20-13 2-1 4 1-1-3h2z" fill="#302F72"/>
<path transform="translate(190,707)" d="m0 0 5 2 22 13 28 16v10l-5-2-17-10-20-12-13-8z" fill="#9E2FA7"/>
<path transform="translate(428,505)" d="m0 0 5 2 1 2-1 2-4 2-2 5-12 6-6 5-2 3-7 2 1 4-5-2-11-8-5-3-1-5 4-1h22l6 5 1-1v-8l9-3 6-1z" fill="#0C2670"/>
<path transform="translate(882,548)" d="m0 0 6 3 2 2-1 46-1 7-5-2-3-2v-36l1-17z" fill="#B62182"/>
<path transform="translate(469,304)" d="m0 0h2l1 11v26l-3 1-2-1v-2l-4-1-6-4v-2l-5-2-1-5 1-2h3l1-4 5-4 6-10z" fill="#105FA6"/>
<path transform="translate(778,396)" d="m0 0 4 1 8 5v2l-15 9-7 2-22 13-11 6-8 5-2-1 5-5v-1l-3-1 3-2 6 1 3-4 3-1 1-2 3-1-2-2 9-6 2 1-4 4 5-3h2v-2l6-4-2-2 10-7 2 1 3-4z" fill="#051642"/>
<path transform="translate(190,668)" d="m0 0 5 2 25 15 17 10 1 1v9l-6-2-21-13-15-9-6-4z" fill="#9F2FA7"/>
<path transform="translate(814,136)" d="m0 0 5 2 6 4v41l-8-4-3-3z" fill="#7268EE"/>
<path transform="translate(353,447)" d="m0 0 5 2 28 18 2 3-1 5-4-1-9-6v2l4 2 2 2v5l-2 1-16-10-9-7-1-4 1-2 5 2 13 8-5-5-13-9-1-4z" fill="#B3207D"/>
<path transform="translate(1e3 490)" d="m0 0 5 2 6 4 1 8v30l-5-1-7-4z" fill="#8543EA"/>
<path transform="translate(813,504)" d="m0 0 5 2 3 2v36l-1 18-7-4-1-1v-25z" fill="#A1C4E4"/>
<path transform="translate(740,723)" d="m0 0 5 2 1 1v67l-4 5-3 1 1-10z" fill="#8642E9"/>
<path transform="translate(493,397)" d="m0 0 7 2 29 19-1 3-2 2v3l-10-3-12-8-7-3-7-5 2-9z" fill="#0D6F97"/>
<path transform="translate(515,691)" d="m0 0 6 4 20 14 3 1 2 3 4 2 4 4 14 10 9 7 1 3-5-1-9-7-7-1-16-12-17-12-5-5-3-5-2-1z" fill="#061A49"/>
<path transform="translate(697,433)" d="m0 0h5l15 10 3 1v-2h3l1-2-1 40h-3l-2-4-8-5-1-4v-4l-10-6 3-2 14 9-3-7 4 1v-4h3l-2-4-21-13-1-3z" fill="#1742AD"/>
<path transform="translate(190,694)" d="m0 0 12 6 20 12 13 8v9l-6-2-39-24z" fill="#9F2FA5"/>
<path transform="translate(469,546)" d="m0 0h1v34l-3 3-18-12 3-6 6-5v-3h2l2-4 6-5z" fill="#105EA7"/>
<path transform="translate(400,335)" d="m0 0 5 1 27 18 17 11-2 2-15-10-8 1h-3l-4-2-8 1v-5h-2l-4-4-16-10 3-1 7 4 1-3 2-2z" fill="#313074"/>
<path transform="translate(904,317)" d="m0 0 6 2 4 3-2 9-7 20-3 2-8-5 1-8 1-1 1-17h1l1 7 2-6 1-4h2z" fill="#0A1B33"/>
<path transform="translate(173,467)" d="m0 0 5 1 9 6 7 3v2l5 2 15 10-1 2-7-4-22-14-10-6v271l6 2 6 4-3 1-10-6z" fill="#04153B"/>
<path transform="translate(785,768)" d="m0 0 2 1-5 6 2 2v6l-5 2-1-1-1 3h-2v2l-3-1 1-2h-2v5l-3 1-1-1v-5l-6 3-3 2 2 7-3 2h-19l4-2v-2l5-3 7-4 3-3h3v-2l6-3 10-7z" fill="#0C1941"/>
<path transform="translate(189,641)" d="m0 0 5 2 9 5 20 12 5 5v7h-3l-12-7-15-9-9-6z" fill="#9F2EA5"/>
<path transform="translate(942,463)" d="m0 0 7 2v2l4 1 1 3v29l-5-1-6-4-1-2z" fill="#8443EA"/>
<path transform="translate(789,128)" d="m0 0 5 2 6 4v33l-5-1-6-4z" fill="#7268EE"/>
<path transform="translate(304,195)" d="m0 0h3v2l5 2 4 3 8 3 1 1v7 4l1 5-1 2-4-1-3-3-12-8-4-1v-7l1-2v-6z" fill="#4A2C6F"/>
<path transform="translate(515,655)" d="m0 0 4 1-1 2 2 1v27l-5-1v-2h-3l-5-5-5-6 1-7 4-5z" fill="#8142E9"/>
<path transform="translate(1075,281)" d="m0 0 4 1 3 2v36h-1l-1-36-3 1-1 45-5-2-3-3 1-43 6 1z" fill="#52AFF1"/>
<path transform="translate(421,482)" d="m0 0 9 5 18 13 14 9 3 1v6l-2 1 1 8h-4v-2l-4-1v-2h-3l-1-6 4-1-6-3-3-3-3-2v-3l-5-2-16-10-3-3z" fill="#CA32BC"/>
<path transform="translate(324,407)" d="m0 0 6 1 36 24-2 2-7-5h-8l-4 1-12-6-11-8-4-2v-2l4-2z" fill="#323175"/>
<path transform="translate(1175,514)" d="m0 0 4 2 11 6 5 4v17l-5-2-15-9-1-1z" fill="#AD217E"/>
<path transform="translate(853,171)" d="m0 0 5 2 7 4v29l-5-1-7-5z" fill="#7268EE"/>
<path transform="translate(1139,293)" d="m0 0 11 6 25 15 12 7v7l-6-2-20-12-11-7-11-6-1-7z" fill="#E834C7"/>
<path transform="translate(659,412)" d="m0 0 6 3 8 5v3l-5-2-5-3v2l5 2 5 5 14 9v3l-5-2-11-7-3-2 5 5 14 10v2l-5-2-13-8 4 4 14 9v3l-5-2-14-9v-2l-6-2-1-5-2-9 2-2-1-4z" fill="#2237CB"/>
<path transform="translate(757,325)" d="m0 0 6 2v59l-6-4z" fill="#64BBF5"/>
<path transform="translate(430,511)" d="m0 0 7 1v3l-4-1-1 9-8 4h-3l-2 6-2 4-7 4h-5l-5-4-1-4 8-2 5-5 8-6 4-2h3l1-5z" fill="#105FA6"/>
<path transform="translate(851,404)" d="m0 0 6 3 1 2v33l-4-1-8-5 2-1v-29z" fill="#4DA5E4"/>
<path transform="translate(801,366)" d="m0 0 3 1 1 6 1 20 1-2 6 2v23l-11-6-1-3z" fill="#61BDF7"/>
<path transform="translate(957,473)" d="m0 0 8 4 3 2v30l-5-2-6-4z" fill="#8643EA"/>
<path transform="translate(878,313)" d="m0 0 9 3 2 1v2l5 1v2l3 1v16l-2 1v-2l-5-1-5-3v-2l-5-1-2-1z" fill="#B21E76"/>
<path transform="translate(671,374)" d="m0 0 5 2 6 4 4-1 9 6v3 4h-2v3l3 1 3 4-2 1-22-14-12-8v-3h3v2h5l-1-3z" fill="#9CBEE2"/>
<path transform="translate(1145,332)" d="m0 0 12 6 13 8 17 10 1 2v6l-6-2-20-12-16-10-1-1z" fill="#E834C7"/>
<path transform="translate(256,620)" d="m0 0 6 2 25 14 10 6v8l-14-7-25-15-2-1z" fill="#2B9DEA"/>
<path transform="translate(813,373)" d="m0 0h1l1 44 4 2 1-29h1l1 31 2 2-8 5-5-1-11-7-1 2-1-5 5-4-9-6-2-2 5 1 15 9 1-22-4-2 4-1z" fill="#1F1D97"/>
<path transform="translate(1095,467)" d="m0 0 5 2 10 6 2 2v16l-4-1-13-8-1-1v-9z" fill="#A92382"/>
<path transform="translate(691,661)" d="m0 0 6 3-3 1 1 14v10h-2l3 4-1 11-1 96h-2z" fill="#7369EF"/>
<path transform="translate(264,706)" d="m0 0 5 1 5 5 3 6v10l-3 3-5-1-6-7-2-5v-9z" fill="#1D37B9"/>
<path transform="translate(1094,288)" d="m0 0 4 1 2 1v6l5 1v3l-4-2v47l-5-2-3-3h2z" fill="#63BAF5"/>
<path transform="translate(1148,311)" d="m0 0 6 2 27 16 6 4v7l-5-2-29-17-6-5z" fill="#E834C7"/>
<path transform="translate(1170,589)" d="m0 0 4 1v2l-21 12-36 21-5-2-11-7v-3l5 2 8 5 6-1 13-8 22-13z" fill="#061A4C"/>
<path transform="translate(190,655)" d="m0 0 5 2 15 9 9 5 1 1v9l-5-2-22-13-3-2z" fill="#9E2FA7"/>
<path transform="translate(847,543)" d="m0 0 4 1 4 3v33l-3 3-5-4-1-6z" fill="#E433C5"/>
<path transform="translate(1094,382)" d="m0 0 14 7 2 4v15l-5-2-11-6z" fill="#7369EF"/>
<path transform="translate(255,631)" d="m0 0 7 3 3 2v2l5 2 7 3v2l4 2 1 1v7l-6-1-6-3v-2l-7-2-8-5z" fill="#A0207C"/>
<path transform="translate(972,488)" d="m0 0 9 5 2 2v22l-5-1-7-5v-22z" fill="#8643EB"/>
<path transform="translate(696,436)" d="m0 0 11 6 12 8 1 4h-3v4h-3l2 3v3l-5-2-18-12-1-4 12 7 6 4-5-5-12-8-1-4 12 7 7 3v-2l-5-2-10-7z" fill="#2538CC"/>
<path transform="translate(780,499)" d="m0 0 5 2 2 2v35l-2 1-5-3-1-2v-14z" fill="#E834C7"/>
<path transform="translate(1174,428)" d="m0 0 6 2 9 6v17l-6-2-9-6z" fill="#7369EF"/>
<path transform="translate(415,367)" d="m0 0 5 2 12 7 13 8v2l5 2v7l-4-1-11-7-20-14-1-5z" fill="#A22C9F"/>
<path transform="translate(842,382)" d="m0 0 6 3v20h2l-1 3-1 27-5-1z" fill="#5FBCF7"/>
<path transform="translate(1154,362)" d="m0 0 4 1 22 13 8 5v7l-4-1-22-13-8-6z" fill="#E834C7"/>
<path transform="translate(560,629)" d="m0 0 2 1-4 4h2l1 8-1 69-1 4-3-1 1-83z" fill="#105FA7"/>
<path transform="translate(421,238)" d="m0 0 4 1 13 8 27 18v5l-5-2-16-10-14-9-8-5z" fill="#C930B4"/>
<path transform="translate(1120,570)" d="m0 0 4 2 5 4-3 9h-2l-1 4-2 2h-3l-1-2v4h-7l-1-5v-8l6-1 1-2h3z" fill="#7F42E9"/>
<path transform="translate(1174,485)" d="m0 0 5 1 2 1v2l4 2 1 2v15l-5 1v-2l-5-1-1-3h-2v-17z" fill="#9E1E77"/>
<path transform="translate(352,203)" d="m0 0 5 2 21 13 9 6 1 5-1 2-5-2-8-5-19-13-3-2z" fill="#B61E78"/>
<path transform="translate(426,270)" d="m0 0 4 1-1 4-12 9-6 5-10 5v2l-4-2-5-5-2-3 2-1 4 1 4-2h5l2-3 6 1 2-4 8-5 5-1h-2z" fill="#0C2670"/>
<path transform="translate(533,474)" d="m0 0h1v30l-3 1-13-9 2-4 5-5 4-5 4-1z" fill="#2339CF"/>
<path transform="translate(814,375)" d="m0 0 5 2 1 18v25l-6-3z" fill="#63BCF6"/>
<path transform="translate(582,735)" d="m0 0 7 2 18 13 16 11v2l4 1v2l4 1 6 5-1 3-5-2-9-7-5-4-11-7-22-16v-2h-2z" fill="#0A1F32"/>
<path transform="translate(510,680)" d="m0 0 2 1v2h3v2l5 2 11 9 16 10v1h-6v2l-4-2-12-8-9-7-2 3 4 2 1 2-4-1v-2l-3-1 1-5 2-1-5-4z" fill="#0D1D44"/>
<path transform="translate(280,146)" d="m0 0 5 1 23 15 4 2 1 4-1 4-5-2-14-10-11-7-2-2z" fill="#962273"/>
<path transform="translate(1019,249)" d="m0 0 2 2 1 5v41l-4-1-3-3h2v-42h2z" fill="#60BDF8"/>
<path transform="translate(420,403)" d="m0 0 5 2 30 20v6l-5-2-17-11-4-4-5-2-4-3z" fill="#C730B3"/>
<path transform="translate(1063,286)" d="m0 0 5 2 1 1v36h-3l-3-2z" fill="#5BB5F4"/>
<path transform="translate(1174,456)" d="m0 0 5 1 5 3 1 2v16l-3 1-8-5-1-2v-15z" fill="#115AA7"/>
<path transform="translate(661,289)" d="m0 0 12 7 20 13 6 4v5l-4-1-22-14-12-8z" fill="#6CB7EE"/>
<path transform="translate(1039,277)" d="m0 0 5 3 1 4 5 1 1 2-5-1v26l-5-2-2-3z" fill="#54B3F3"/>
<path transform="translate(483,412)" d="m0 0h3v2h2l4 4 5 2 8 6-1 4h-5l-10-7v-2h-5l2 4h-3v5l-5 2v3l-5-1v-3l4-5 3-1z" fill="#154AA4"/>
<path transform="translate(359,483)" d="m0 0 8 4 20 14 6 5v4l-5-1-10-7-12-8-8-6z" fill="#B5207E"/>
<path transform="translate(358,309)" d="m0 0 5 1-1 5-3 3-4 3h-2l-2 4-4 5-1 5h-2l1 7h-2v6l-3-1-2-9h2l-1-6h2l2-4 7-11 4-5z" fill="#0F60A6"/>
<path transform="translate(359,240)" d="m0 0 11 7 22 15 1 1v5l-5-2-25-16-5-4v-5z" fill="#B61E77"/>
<path transform="translate(910,277)" d="m0 0h2l1 19-1 6 6 4 1-3h2l-1 5-5-1-24-14 1-3h2l1-5 10 5v2l5 1z" fill="#091F58"/>
<path transform="translate(1326,285)" d="m0 0 5 2 2 2 2 5v8l-2 11-4 10-3 10-3 7-9 26-2 5h-1v-6l3-6 5-18 1-10 5-5 4-14 3-4v-11l-3-4-2-6z" fill="#141D2C"/>
<path transform="translate(281,167)" d="m0 0 5 2 13 8 4 4 9 6v4l-5-1-10-5-5-4-11-8-1-5z" fill="#9E2174"/>
<path transform="translate(415,377)" d="m0 0 5 2 18 11 5 5-1 5-6-2-20-14-2-3z" fill="#AC258B"/>
<path transform="translate(572,324)" d="m0 0 5 2 22 12 4 3v6l-4-1-18-10-9-6z" fill="#0E79C6"/>
<path transform="translate(659,406)" d="m0 0 8 4 6 5v-2l7 2 5 3v3l1 4-7-6-1 3 5 2v2l5 2 4 4-5-2-8-5-2 3-4-2-2-3h2v-3l-5-2-8-5z" fill="#2234C5"/>
<path transform="translate(484,403)" d="m0 0h3v2h3l4 4 6 4 7 3 19 13 2 2v4l-5-2-18-11v-2l-3-1-3-3-5-2-3-3h-2l-1-2-4-2z" fill="#BB3AD4"/>
<path transform="translate(1160,354)" d="m0 0 5 1 23 14v7l-4-1-20-12-3-2z" fill="#E834C7"/>
<path transform="translate(573,377)" d="m0 0h9l5 2 5 4 3 4v3h2l2 5-1 5-5-1-1-5-4-2-3-3 1-8-3-1v5l-2-1v-6l-3 1-1 2-2 1v-3l-2 1 1 6h-3l-2-1-1 6h-1l1-7 4-6z" fill="#9C2A92"/>
<path transform="translate(1094,411)" d="m0 0 5 1 6 4 1 1v16l-5-2-6-4-1-1z" fill="#1060A7"/>
<path transform="translate(844,435)" d="m0 0 4 2 11 6 3 3-8 5-5-1-4-2v-2l-9-3v-3l6-3h2z" fill="#2136C6"/>
<path transform="translate(352,214)" d="m0 0 5 1 22 14 1 1v6h-3l-11-7-13-9-1-1z" fill="#B61E77"/>
<path transform="translate(428,398)" d="m0 0 4 1 22 15 1 1v6l-5-2-17-11-5-3z" fill="#C630B4"/>
<path transform="translate(858,369)" d="m0 0 7 4v73l-5-1-2-3 4 1v-69l-2-1v32l-2 2z" fill="#83A0DC"/>
<path transform="translate(828,359)" d="m0 0 5 1 2 2v15l-1 8h-1v-23h-2l-1 11-1 20-1 4h-2v-5h-2l-1 24-2-2-1-19h-1l-1-18-4-2v-2l5 2 1 1v12l5 2 2 1z" fill="#82A9DE"/>
<path transform="translate(353,457)" d="m0 0 5 2 13 8v2l6 2 3 3v5l-2 1-16-10-9-7-1-4z" fill="#B51E79"/>
<path transform="translate(415,356)" d="m0 0 11 6 14 9 2 2v6h-3l-23-16-1-1z" fill="#AE2387"/>
<path transform="translate(571,344)" d="m0 0 5 1 8 5 14 8v7l-4-1-17-10-6-4z" fill="#4D286C"/>
<path transform="translate(257,648)" d="m0 0 5 2 14 9 7 4 6 4v5l-5-2-9-6-12-6-6-4z" fill="#9E30A8"/>
<path transform="translate(578,386)" d="m0 0 9 3 5 5-1 6-3-1-9 2-1 4-4-3 3-2v-2l-3-1 1-7z" fill="#051743"/>
<path transform="translate(1147,306)" d="m0 0 4 1 29 17 7 4-1-7-2-2 4 1 1 3-1 7-2 1h-3l-16-9-15-9-4-2-1 4v-6h3z" fill="#614CE3"/>
<path transform="translate(366,235)" d="m0 0 5 2 2 1v2l4 1 12 8 4 3v6l-6-3-20-13-2-3z" fill="#B61E77"/>
<path transform="translate(823,369)" d="m0 0h5v23l-8-4-1-12-3-2 1-4z" fill="#04163F"/>
<path transform="translate(659,366)" d="m0 0 3 1v2l2-1-1-2 6 2 15 10-2 3-9-6-2 1v2h-5v-2l-5 2-5-3-3-6 4 1v-3z" fill="#A2C4E4"/>
<path transform="translate(352,193)" d="m0 0 4 1 18 11 6 4v6l-4-1-24-16z" fill="#B61E77"/>
<path transform="translate(1035,554)" d="m0 0h3v3l-24 13-10 6-5-1-14-9v-2l3-1 13 9 6-2 21-12z" fill="#071A4E"/>
<path transform="translate(366,478)" d="m0 0 4 1 22 15 1 6-5-1-15-10-7-5z" fill="#B51F7B"/>
<path transform="translate(911,517)" d="m0 0 4 1 22 14 5 3 5-1 9-5h4l-1 3-14 8-4-1-19-12-12-8z" fill="#061A4D"/>
<path transform="translate(203,575)" d="m0 0 4 1 1 11h-5l-3 2h-1l-1 6-6-4-1-4 2-4 2-1 1-4 4-1 1 2v-3z" fill="#2237CB"/>
<path transform="translate(353,437)" d="m0 0 5 2 21 14 1 1v5l-5-1-11-8-11-7z" fill="#B61E77"/>
<path transform="translate(764,341)" d="m0 0 4 1 2 1v24l-1 20-3-1-1-6 1-33h-2z" fill="#5FBDF8"/>
<path transform="translate(887,717)" d="m0 0 9 3 8 7 7 6 3 3 7 5-1 3-4-2-8-6-8-5-4-4-5-3-4-4z" fill="#071D54"/>
<path transform="translate(816,456)" d="m0 0h5l10 7 12-6 6 1v2h-3v2l-5 1-4 4-7 1-14-7-1-4z" fill="#0E1A62"/>
<path transform="translate(380,334)" d="m0 0 6 1 1 3 5 2 15 10 1 5-2 1-18-12-8-4z" fill="#AD207A"/>
<path transform="translate(1e3 601)" d="m0 0 5 1 23 15 5 3 6-2 10-5 1 3-14 8-6-1-30-20z" fill="#061A4B"/>
<path transform="translate(380,343)" d="m0 0 4 1 4 4 17 11 2 1 1 5-4 1-11-8-12-8z" fill="#B21F78"/>
<path transform="translate(691,473)" d="m0 0 5 1 3 1 2-1 17 11-1 2-7-2 2 4-6-2-9-6-3-1v-3l-4-1z" fill="#1646A9"/>
<path transform="translate(190,681)" d="m0 0 11 6 6 3 1 2v7l-2 1-16-10z" fill="#9E30A8"/>
<path transform="translate(653,375)" d="m0 0 5 2-2 3-9 5-5 6h-2l1 3-5 7-1 3h-2v-10l8-10 7-6z" fill="#1543A6"/>
<path transform="translate(807,391)" d="m0 0 6 2v23l-11-6 1-2h2l1-14z" fill="#66B2ED"/>
<path transform="translate(380,355)" d="m0 0 5 1 22 15 1 5-5-1-12-8-10-7z" fill="#B61E78"/>
<path transform="translate(712,400)" d="m0 0 5 1 6 2 2 4v11l-5-2-8-5v-3h2v-2l-5-1 1-2 2-1z" fill="#99BBE0"/>
<path transform="translate(571,314)" d="m0 0 6 1v2l5 1 6 4 5 3v7l-6-2-9-6-7-4z" fill="#2038B4"/>
<path transform="translate(756,445)" d="m0 0 2 1v47l-1 26-2-1v-41z" fill="#202493"/>
<path transform="translate(991,236)" d="m0 0 3 1v42l-3-1-1-3v-32z" fill="#63BCF6"/>
<path transform="translate(226,730)" d="m0 0 10 3 9 5v10l-5-2-8-5-5-6h2v-3h-3z" fill="#AF2387"/>
<path transform="translate(318,192)" d="m0 0 4 1 23 15v5l-4-1-20-13-3-3z" fill="#B71E77"/>
<path transform="translate(794,354)" d="m0 0 3 1 1 50-4-2-1-31z" fill="#60BDF8"/>
<path transform="translate(299,450)" d="m0 0 2 1 3 9 4 4 2 1 1 6-1 3h-5l-8-5 1-6v-10z" fill="#0D2670"/>
<path transform="translate(320,435)" d="m0 0 5 2 11 8 9 6 1 1v5l-5-2-20-14-2-2z" fill="#B71E77"/>
<path transform="translate(780,359)" d="m0 0 3 1 1 11-1 25-4-2-1-3v-12l1-18z" fill="#5CBBF7"/>
<path transform="translate(257,607)" d="m0 0 2 1v3l1-2 6 2 1 4v2l3-1-1-2 6 2 8 5v8l-11-6v-5l-6 1-9-5z" fill="#6761EA"/>
<path transform="translate(318,171)" d="m0 0 4 1 19 12 4 3v5l-4-1-15-10-8-6z" fill="#B71E77"/>
<path transform="translate(950,540)" d="m0 0 5 2 10 7 15 9 5-2 7-3v4l-9 5-6-1-15-10-13-8z" fill="#061A4B"/>
<path transform="translate(1058,291)" d="m0 0 3 2 2-1v30l-5-2-2-1v-2h2z" fill="#61BBF8"/>
<path transform="translate(320,425)" d="m0 0 4 2 17 11 5 4-1 5-11-7-13-9-1-1z" fill="#B71E77"/>
<path transform="translate(471,320)" d="m0 0h1v21l-3 1-2-1v-2l-4-1-6-4 3-1 1-4 6-2h4z" fill="#163C99"/>
<path transform="translate(380,549)" d="m0 0 5 3 1 1v23l-5-2-1-1z" fill="#91B3DC"/>
<path transform="translate(455,393)" d="m0 0 5 2 16 11 1 5h-4l-16-10-2-2z" fill="#C732B9"/>
<path transform="translate(900,535)" d="m0 0 5 2 17 11 5-2 9-5 4 1-4 4-11 6-5-1-16-10h-3z" fill="#071B4B"/>
<path transform="translate(635,495)" d="m0 0 2 2-4 11-1 9 2 15 3 6-1 2-3-1-3-6-2-13 1-14 5-10z" fill="#0B256E"/>
<path transform="translate(780,433)" d="m0 0 4 1 26 16 4 1 12-7 3 1-4 4-11 6-5-1-5-4-20-12-4-3z" fill="#04153E"/>
<path transform="translate(740,693)" d="m0 0 6 4v22l-1 2-4-2-1-1z" fill="#8743EB"/>
<path transform="translate(757,325)" d="m0 0 6 2v13h-1l-1-11-1-1v54h3l-1 4-5-4z" fill="#88AAD8"/>
<path transform="translate(320,415)" d="m0 0 4 2 20 13 2 2v4l-4-1-21-14-1-1z" fill="#B71E77"/>
<path transform="translate(572,334)" d="m0 0 5 2 14 8v7l-6-2-13-8-1-1v-5z" fill="#9F2074"/>
<path transform="translate(573,393)" d="m0 0 1 4 4 1-1 3-2 1 2 13-3 4-3-5v-4l-4-1-1-9 3-1 4 1z" fill="#21248B"/>
<path transform="translate(189,654)" d="m0 0 2 1-1 9 5 2 23 14 2 4-5-1-22-13-3-2v9h-1v-10l-1-3z" fill="#2127A6"/>
<path transform="translate(281,180)" d="m0 0 4 1 12 7 2 2v6h-4l-14-10-1-5z" fill="#8F2373"/>
<path transform="translate(214,493)" d="m0 0 5 1 20 13 16 10 21 13 4 4-5-1-17-11-30-19-14-9z" fill="#04153B"/>
<path transform="translate(595,417)" d="m0 0 4 1 2 2-1 7-3 5h-8l-1-2v-7h5z" fill="#2234C6"/>
<path transform="translate(1046,286)" d="m0 0 5 1v27l-5-1-1-3z" fill="#60BDF8"/>
<path transform="translate(967,531)" d="m0 0 5 2 17 11 16-8h4l-3 3-15 9-5-2-19-12z" fill="#061A4C"/>
<path transform="translate(836,443)" d="m0 0 5 1 4 2v2l5 2 5-1 6-3h4v-2l3 1v2l-14 8-6-1-13-8z" fill="#091B56"/>
<path transform="translate(836,468)" d="m0 0 4 1 11 7 12-7 4 1-4 4-6 3h-2v2l-5 2-4-3-7-3-2-1v-2l-3-1v-2z" fill="#0B1B5B"/>
<path transform="translate(671,374)" d="m0 0 5 2 6 4 4-1 3 2v2l-5-1 1 3-3 1-2-2-1-2-4 3-5-1-8-6 1-2h3v2h5l-1-3z" fill="#A1C4E4"/>
<path transform="translate(813,373)" d="m0 0h1l1 44 4 2 1-29h1v31l-5 5-1-4-7-4 2-3h2l1-22-4-2 4-1z" fill="#1A41B1"/>
<path transform="translate(393,230)" d="m0 0 4 1 15 10 2 2v5l-5-2-14-9-2-2z" fill="#B61E78"/>
<path transform="translate(1163,576)" d="m0 0 5 2 8 5 5-1 9-5 5 1-3 3-12 7-6-1-12-8z" fill="#061A4D"/>
<path transform="translate(196,527)" d="m0 0 5 2 1 1v23l-4-1-2-1z" fill="#9DC0E2"/>
<path transform="translate(444,503)" d="m0 0 9 5 8 5 3 1 1-4v6l-2 1 1 8h-4v-2l-4-1v-2h-3l-1-6 4-1-6-3-3-3-3-2z" fill="#234FB8"/>
<path transform="translate(869,395)" d="m0 0 3 1v2l-5 2v11l5 2 3 1 13-7 3 1-4 4-10 6h-5l-8-5v-15l2-2z" fill="#071D53"/>
<path transform="translate(394,386)" d="m0 0 8 4 12 8 1 1v5l-5-1-11-8-5-3-1-3z" fill="#B51E79"/>
<path transform="translate(547,715)" d="m0 0 9 5 16 12 6 5v2l-5-1-16-12-10-7z" fill="#1644A7"/>
<path transform="translate(823,490)" d="m0 0 3 1-1 8v64l5 5-5-2-3-3z" fill="#B331B0"/>
<path transform="translate(393,474)" d="m0 0 4 1 10 7 5 5 2 1-1 4-5-2-15-10-1-5z" fill="#B2217F"/>
<path transform="translate(416,369)" d="m0 0 5 2 22 14 6 5v3l-5-2-16-11-12-8z" fill="#E834C7"/>
<path transform="translate(366,367)" d="m0 0h2v2l5 2 14 10v4l-5-1-10-7-5-2-2-2v-5z" fill="#AB1F75"/>
<path transform="translate(422,248)" d="m0 0 9 5 11 8 1 4-3 1-14-9-5-4z" fill="#CD31B7"/>
<path transform="translate(764,451)" d="m0 0 3 2-1 58-2-4z" fill="#BF31B6"/>
<path transform="translate(332,223)" d="m0 0 12 7 8 6v5l-5-2-11-7-5-4z" fill="#B71E77"/>
<path transform="translate(515,691)" d="m0 0 6 4 10 7 12 9v3l-4-1-14-10-11-8z" fill="#1644A7"/>
<path transform="translate(367,357)" d="m0 0 6 3v2l5 2 8 6 1 4h-4l-12-8-4-1-1-7z" fill="#AC1F75"/>
<path transform="translate(815,503)" d="m0 0 7 4 1 1v38l-1 17-2-2v-53l-5-3z" fill="#212690"/>
<path transform="translate(823,391)" d="m0 0 3 1 1 5v25l-6-2v-6h1z" fill="#60BEF9"/>
<path transform="translate(343,342)" d="m0 0 4 1 13 9 1 5-3 1-14-9-1-1z" fill="#9A2173"/>
<path transform="translate(541,707)" d="m0 0h7l12 9 1 3 6 4-2 2-8-6-7-2-1-2-5-3v-2h-3z" fill="#0E1B39"/>
<path transform="translate(872,493)" d="m0 0h5l10 7 6-2 8-5 4 1v2l-16 9-8-4-9-6z" fill="#071A4D"/>
<path transform="translate(976,674)" d="m0 0 5 2 17 11 4 4-5-2-11-6 1 6-5-1-6-4 1-5h3v-2l-4-1z" fill="#061741"/>
<path transform="translate(422,259)" d="m0 0 5 2 14 10 1 5-4-1-16-10-1-5z" fill="#C72FB2"/>
<path transform="translate(816,481)" d="m0 0 5 2 8 4h2l7-2 1-2 4-2 4 1v2l-9 3v2l-3 2 4 4-9-3v-2l-6-2h-3l-6-4z" fill="#131D6E"/>
<path transform="translate(333,466)" d="m0 0 5 2 15 10v6l-8-4-12-9z" fill="#B61E77"/>
<path transform="translate(766,449)" d="m0 0 6 3 16 10 1 1h5l11-6 3 1-4 3-10 6-6-1-19-12-3-3z" fill="#04153B"/>
<path transform="translate(825,426)" d="m0 0 4 1 11 7-5 4-5-1-9-6 1-4z" fill="#2237CC"/>
<path transform="translate(300,211)" d="m0 0h3l4 15 2 4 3 3-4 1-6-2-2-2 1-1-1-5z" fill="#0D2670"/>
<path transform="translate(420,493)" d="m0 0 5 1 15 11 1 5-5-2-14-9-2-2z" fill="#C732B9"/>
<path transform="translate(337,292)" d="m0 0 7 4 2 4h-3l-1-1v4l-3 3-1 47h-1z" fill="#303176"/>
<path transform="translate(893,480)" d="m0 0 5 1 9 6 4-1 9-5h5v2l-16 9-5-2-12-8z" fill="#061B4E"/>
<path transform="translate(785,369)" d="m0 0 5 2 2 1 1 6v23h-2v-28l-3-1-1 28-2-2z" fill="#4492D3"/>
<path transform="translate(1143,565)" d="m0 0 6 1 10 6 12-7h4l-1 3-12 7-3 2-15-9z" fill="#071B4F"/>
<path transform="translate(854,481)" d="m0 0 6 1 9 6 14-7 3 1-3 3-12 7-5-1-11-7z" fill="#071A4E"/>
<path transform="translate(874,468)" d="m0 0 6 1 9 6 5-2 9-5 3 1v2l-13 7-4 2-16-10z" fill="#071A4E"/>
<path transform="translate(1172,337)" d="m0 0 6 2 9 6 1 7-4-1-12-7z" fill="#E834C7"/>
<path transform="translate(276,130)" d="m0 0 5 2 6 4-3 5h-4l-2 5h-3v-15z" fill="#105FA7"/>
<path transform="translate(1049,504)" d="m0 0 5 1 23 15 5 3v4h-2v-2l-5-2-11-7-15-10z" fill="#061B4D"/>
<path transform="translate(878,419)" d="m0 0 4 1 10 6 4-1 12-6 2 2-9 6-7 4-5-2-12-8z" fill="#061948"/>
<path transform="translate(765,786)" d="m0 0h2l1 5h3v-5h2v2l2 2-10 7-5 3-3-1 2-2v-5l-3-1z" fill="#04153B"/>
<path transform="translate(906,734)" d="m0 0 8 6 10 7 2 2h3l2 1v2h-2l8 8h-6l-16-16-5-3-3-3z" fill="#061949"/>
<path transform="translate(1080,625)" d="m0 0 5 1 9 6 5-1 8-5h5l-1 3-16 8-14-9z" fill="#061949"/>
<path transform="translate(966,577)" d="m0 0 5 2 8 5 5-1 10-5h3l-1 3-14 8-6-2-11-8z" fill="#071B4E"/>
<path transform="translate(855,456)" d="m0 0 5 1 10 6 6-2 7-4 4 1-15 10-5-2-13-8z" fill="#071B50"/>
<path transform="translate(1162,350)" d="m0 0 5 2 19 11 2 1 1-4v5l-2 1h-2l-2 1-20-12-3-1v-2h3z" fill="#5C4BE2"/>
<path transform="translate(304,206)" d="m0 0 4 1 15 10 1 1v5l-11-6-9-6z" fill="#B71E77"/>
<path transform="translate(305,196)" d="m0 0 5 2 14 9v5l-4-1-15-10-1-4z" fill="#B71E77"/>
<path transform="translate(1063,589)" d="m0 0 6 2 7 5 5-1 12-6v4l-14 8-5-2-12-8z" fill="#061A4C"/>
<path transform="translate(1028,540)" d="m0 0 9 5 6 3 12-7 4 1-3 3-12 7-5-1-12-8-1-2z" fill="#061B4D"/>
<path transform="translate(764,347)" d="m0 0h2v34l1 5 2 1v-20h1v23l-6-3z" fill="#86AAD8"/>
<path transform="translate(1283,261)" d="m0 0 4 1 7 3 7 5 6 3 10 6 8 4 1 2-9-2-1-3-15-6-4-3-6-3-8-6z" fill="#141D2C"/>
<path transform="translate(305,448)" d="m0 0 4 1 15 10 2 4-1 2-4-2-11-7-5-4z" fill="#B71E77"/>
<path transform="translate(787,371)" d="m0 0 4 2v24l-1 3h-3z" fill="#60BDF8"/>
<path transform="translate(379,345)" d="m0 0 2 3 4 4 11 7 7 5-1 3-7-3-12-8-3-1-1 3-1-4 3-1-2-4z" fill="#432D71"/>
<path transform="translate(928,553)" d="m0 0 6 2 7 5 6-1 8-5 5 1-4 3-12 7-5-2-12-8z" fill="#061A4B"/>
<path transform="translate(1048,528)" d="m0 0 5 2 8 5 5-1 9-5 5 1-4 3-12 7-5-2-12-8z" fill="#061B4D"/>
<path transform="translate(950,516)" d="m0 0 5 2 8 5 6-1 9-5h3l-1 3-14 8-6-2-11-8z" fill="#071B4E"/>
<path transform="translate(284,422)" d="m0 0 6 3 5 5 5 4-1 4-7-3-9-6v-6z" fill="#9E2174"/>
<path transform="translate(716,415)" d="m0 0 7 3 2 1-1 10-2 1-3-3-2 3-4-3v-2l-1-2h2l2-6z" fill="#1641A6"/>
<path transform="translate(898,407)" d="m0 0 5 1 9 6 4-1 11-6 3 1v2l-14 8h-5l-12-8z" fill="#06194A"/>
<path transform="translate(879,395)" d="m0 0 6 1 9 6 5-2 8-5 4 1-4 4-11 6-5-1-12-8z" fill="#061A4A"/>
<path transform="translate(1042,601)" d="m0 0 5 1 9 6 5-1 10-6 3 1v2l-14 8-6-1-12-8z" fill="#061A4A"/>
<path transform="translate(955,443)" d="m0 0 5 2 8 5 6-1 9-5h3l-1 3-14 8-5-2-11-7z" fill="#061A4B"/>
<path transform="translate(435,233)" d="m0 0 9 5 2 3-1 3v3h-2l4 6-5-2-4-3-1-3-3-3h3v-5z" fill="#122C79"/>
<path transform="translate(1059,637)" d="m0 0 5 1 9 6 5-1 12-6v4l-13 7-6-1-12-8z" fill="#051847"/>
<path transform="translate(1011,480)" d="m0 0 5 1 10 6 14-7 3 1-4 4-11 6-4-1-13-8z" fill="#061A4B"/>
<path transform="translate(307,438)" d="m0 0 11 7 7 5v5l-5-2-10-7-4-3z" fill="#B71E77"/>
<path transform="translate(940,214)" d="m0 0h1l-1 8-4 11-2 9h-1l-8 24-3 2 3-11 11-32z" fill="#141D2C"/>
<path transform="translate(1152,553)" d="m0 0 5 1-3 3-13 7-4-1-8-5v-3l4 1 5 3 5-1z" fill="#061A4B"/>
<path transform="translate(896,455)" d="m0 0 11 6 4 2 12-7h4v2l-14 8-4 1-14-9z" fill="#061A4C"/>
<path transform="translate(842,387)" d="m0 0h1v46l-4-1-12-7-6-4 2-1 4 2-1-7 3-1v7l2 4 3 1v2l7 1z" fill="#4C80C3"/>
<path transform="translate(209,539)" d="m0 0 6 2v20l-5-2-1-2z" fill="#8BABDA"/>
<path transform="translate(898,431)" d="m0 0 11 6 5 1 11-6h3l-1 3-11 6-2 2-5-1-12-8-1-2z" fill="#071A4E"/>
<path transform="translate(876,444)" d="m0 0 5 1 11 6 13-7h2v3l-13 7-5 1-13-9z" fill="#061A4B"/>
<path transform="translate(892,505)" d="m0 0 4 1 9 6 6-1 9-5h3v2l-12 7-2 2-5-1-12-8z" fill="#061A4D"/>
<path transform="translate(889,383)" d="m0 0h3v3l-13 7-4 2-11-7 1-4 4 2 6 4 6-2z" fill="#071D53"/>
<path transform="translate(1083,601)" d="m0 0 9 5 6 3 12-7 3 1-9 6-5 4-5-1-11-7-2-3z" fill="#061B4E"/>
<path transform="translate(780,777)" d="m0 0h2v7h-4l-1 3h-2v2l-3-1 1-2h-2v5l-3 1-1-1v-5l3-4h2v-2l8-1z" fill="#11378F"/>
<path transform="translate(855,579)" d="m0 0 11 7 14 9-1 4-16-10-9-6z" fill="#08194E"/>
<path transform="translate(923,574)" d="m0 0 3 1-5 5-19 11-3 1 1-5 20-11z" fill="#091A4A"/>
<path transform="translate(394,562)" d="m0 0 5 2v20l-5-3z" fill="#A3C6E4"/>
<path transform="translate(931,504)" d="m0 0 5 2 8 5 6-1 9-5h2l-2 4-12 7-5-2-12-8z" fill="#061A4C"/>
<path transform="translate(954,468)" d="m0 0 4 1 10 6 5-2 9-5 3 1-5 4-9 6h-5l-8-5v-2l-5-2z" fill="#0A1950"/>
<path transform="translate(1062,613)" d="m0 0 5 2 8 5 5-1 9-5 4 1-8 5-7 5-4-1-12-8z" fill="#06194A"/>
<path transform="translate(1044,577)" d="m0 0 4 1 10 6 5-1 8-5h4v2l-14 8-5-1-11-7z" fill="#061A4B"/>
<path transform="translate(993,467)" d="m0 0 5 2 8 5 6-1 9-5h3v2l-14 8-3 1-14-9z" fill="#061A4B"/>
<path transform="translate(283,432)" d="m0 0 5 2 7 4 1 7h-4l-8-6-1-1z" fill="#8B2373"/>
<path transform="translate(661,301)" d="m0 0 9 5 8 5v6l-8-4-9-6z" fill="#89ADDA"/>
<path transform="translate(1023,589)" d="m0 0 5 1 10 6 6-2 8-5 3 1-3 3-10 6-5 1-14-9z" fill="#061A4C"/>
<path transform="translate(1083,522)" d="m0 0h2l6 10-1 6-4-1-6-6z" fill="#9BB7E5"/>
<path transform="translate(1029,516)" d="m0 0 4 1 10 6 6-2 7-4h4v2l-14 8-5-1-13-8z" fill="#061A4C"/>
<path transform="translate(912,493)" d="m0 0 5 1 8 5h5l10-6h2v3l-12 7-4 1-14-9z" fill="#071A4C"/>
<path transform="translate(936,431)" d="m0 0 4 1 10 6 5-1 9-5h3v2l-14 8-6-1-11-8z" fill="#081A4F"/>
<path transform="translate(484,413)" d="m0 0 4 1 4 4 5 2 8 6-1 4-5-2-1-3-6-2v-2l-7-2z" fill="#BF39D2"/>
<path transform="translate(709,395)" d="m0 0 5 2 6 4v2l-4-2-4-1 1 4h-3l4 2v2h-2l-1 2-8-5v-2l3-2v-3z" fill="#A0C3E3"/>
<path transform="translate(946,566)" d="m0 0 6 1 9 6 5-2 9-5h3v2l-12 7-3 2-4-1-12-8z" fill="#061A4B"/>
<path transform="translate(1111,522)" d="m0 0 3 1 5 7-2 5-2 3-4-2-2-5z" fill="#98B3E5"/>
<path transform="translate(1080,533)" d="m0 0 8 6 1 1v8l-9-3-1-8z" fill="#99B3E6"/>
<path transform="translate(1128,174)" d="m0 0 6 2 16 9 5 2v2l5 1 12 7-3 1-9-4-2-2-5-2-1-3-5-1-14-7-1-2-4-2z" fill="#141D2C"/>
<path transform="translate(882,548)" d="m0 0 6 3 2 2-1 41-2 1v-14l1-28-5-1v5l-2-1v-7z" fill="#BE31B5"/>
<path transform="translate(282,190)" d="m0 0 11 6 1 1v6l-3 1-10-8v-5z" fill="#8F2273"/>
<path transform="translate(637,774)" d="m0 0 9 4 9 7 4 5-1 2h-2v-2l-4-2-11-8-5-3z" fill="#0B1A32"/>
<path transform="translate(1041,625)" d="m0 0 5 2 8 5 6-1 9-5 3 1-15 10-5-2-11-7z" fill="#061A4B"/>
<path transform="translate(1030,492)" d="m0 0 5 1 9 6 5-1 9-5 4 1-12 7h-2v2l-3 1-15-10z" fill="#061A4A"/>
<path transform="translate(758,489)" d="m0 0h1v32l5 2 1-11h1v12l-1 2-5-2-3-3v-28z" fill="#C532B8"/>
<path transform="translate(973,456)" d="m0 0 6 1 9 6 6-2 10-5 1 2-13 8-5 1-12-8z" fill="#061A4C"/>
<path transform="translate(917,419)" d="m0 0 4 1 9 6 6-1 9-5h3l-1 3-11 6-5 1-14-8z" fill="#071A4B"/>
<path transform="translate(812,373)" d="m0 0h1v17l-5 1-1-1v-15h4z" fill="#04153C"/>
<path transform="translate(1103,590)" d="m0 0 9 3 4 3 5-1 9-5h3v2l-14 8-6-1-10-7z" fill="#08194C"/>
<path transform="translate(1092,514)" d="m0 0h8l2 12v2h-5l-5-12z" fill="#9AB7E4"/>
<path transform="translate(885,432)" d="m0 0 4 1-4 4-11 6-5-1-5-4 1-3 6 3 5-1z" fill="#071D51"/>
<path transform="translate(582,735)" d="m0 0 7 2 16 12-1 4-11-7-9-7v-2h-2z" fill="#0D1B30"/>
<path transform="translate(1113,553)" d="m0 0h4v2l-14 8-3 1-10-6 1-4 8 5 5-1z" fill="#081A51"/>
<path transform="translate(797,469)" d="m0 0 4 1 9 6 4-1 10-5 3 1-8 5h-2v2l-3 2-6-1-7-5-4-1z" fill="#051743"/>
<path transform="translate(416,379)" d="m0 0 5 2 9 6 11 7v4l-5-2-17-12-3-2z" fill="#E834C7"/>
<path transform="translate(773,368)" d="m0 0 5 1-1 20-2 3-2-2z" fill="#5EBCF7"/>
<path transform="translate(448,277)" d="m0 0 5 1 12 9v4l-4-1-12-8z" fill="#CA32BA"/>
<path transform="translate(831,548)" d="m0 0h1v16l5 2 6 4 3 3v4l-5-2-10-6z" fill="#101A67"/>
<path transform="translate(1036,529)" d="m0 0h4v2l-14 8-4 1-10-7v-3l5 2 5 3 5-1z" fill="#061A4D"/>
<path transform="translate(1102,515)" d="m0 0 7 4 1 4-2 9-5-3-1-5z" fill="#99B4E6"/>
<path transform="translate(1089,515)" d="m0 0 3 1 4 13-5 2-6-10 2-4z" fill="#9AB8E4"/>
<path transform="translate(386,343)" d="m0 0 5 2 13 9 5 5-9-2-16-11 2-2z" fill="#412D71"/>
<path transform="translate(1109,580)" d="m0 0h6l2 9v4h-7l-1-5z" fill="#7B41E7"/>
<path transform="translate(1080,548)" d="m0 0 8 1 2 7-1 3-6 1-3-9z" fill="#8743EB"/>
<path transform="translate(416,359)" d="m0 0 6 2 18 12 1 5-11-7-14-10z" fill="#E834C7"/>
<path transform="translate(1152,577)" d="m0 0 3 1-4 4-11 6-5-1-7-5v-2l5 1 4 3 4-1z" fill="#061948"/>
<path transform="translate(1096,570)" d="m0 0 2 1v2h2v11l-3 1-1-2-3-1-2-6z" fill="#8442EA"/>
<path transform="translate(677,450)" d="m0 0 5 2 3 3v2h-3v2l4 2 6 4v3l-4-2-11-7z" fill="#849DDC"/>
<path transform="translate(638,286)" d="m0 0 9 5 7 5v5l-5-2-11-7z" fill="#7DB2E3"/>
<path transform="translate(891,556)" d="m0 0h1v13l-1 29h-2v-34z" fill="#202D9F"/>
<path transform="translate(1012,505)" d="m0 0 5 2 6 4 6-1 9-5h3v2l-11 6h-2v2l-3 1-13-8z" fill="#061A4C"/>
<path transform="translate(1119,534)" d="m0 0 3 1 3 7-1 4-6 1-3-7z" fill="#8743EB"/>
<path transform="translate(953,470)" d="m0 0 5 2-1 24h-4z" fill="#192999"/>
<path transform="translate(696,468)" d="m0 0 4 2 13 8 7 5v3l-5-2-15-10-4-3z" fill="#8299DD"/>
<path transform="translate(342,299)" d="m0 0 7 2 1 2-2 3-5 1-1 6-4 1v-8l2-3h2z" fill="#2239CE"/>
<path transform="translate(327,164)" d="m0 0 4 1 11 7-1 2-5-3-4 1-1 3h-6l-4-4 6 1-1-3h2z" fill="#142E76"/>
<path transform="translate(192,678)" d="m0 0 11 6 8 5v2h-2v9h-1l-1-10-6-2-11-7 2-1z" fill="#2222A5"/>
<path transform="translate(344,352)" d="m0 0 9 5 3 4-1 4-5-2-7-5v-5z" fill="#9D2174"/>
<path transform="translate(785,768)" d="m0 0 2 1-5 6 2 2v6h-2v-6h-2v2l-2 1-11 1 4-4 10-6z" fill="#0B1C4B"/>
<path transform="translate(502,661)" d="m0 0h1v11l6 8h-4l-4-1-3-6v-6l2-5z" fill="#0D1C2C"/>
<path transform="translate(800,560)" d="m0 0 5 2 36 24v2l-5-2v-2l-5-2-10-6-8-6-4-2v-2l-4-1-2-1v-2l-3-1z" fill="#061949"/>
<path transform="translate(1284,455)" d="m0 0 1 3 7-1 2 8 2 3h-9l-2-2z" fill="#0C2670"/>
<path transform="translate(588,363)" d="m0 0 4 1 5 3-3 3-3 1v3l-2 1-1 3-12-1v-1l10-2v-6l1 2h2l1-3-2-1z" fill="#122268"/>
<path transform="translate(963,456)" d="m0 0 3 1-4 4-9 5-6-1-8-4v-2l5 1 4 2 6-1z" fill="#08194E"/>
<path transform="translate(864,403)" d="m0 0h1v43l-5-1-2-3 4 1 1-34z" fill="#8196E0"/>
<path transform="translate(1147,306)" d="m0 0 4 1 15 9 2 4-6-1-14-8-1 4v-6h3z" fill="#5949E1"/>
<path transform="translate(1186,332)" d="m0 0h2v17l-2-4-14-8v7h-1v-9l5 1-1-2 5 2 7 4z" fill="#6553E6"/>
<path transform="translate(276,113)" d="m0 0 5 1 8 5-2 4h-5l-5-2-1-2z" fill="#60BEF9"/>
<path transform="translate(173,684)" d="m0 0h1v56l6 2 6 4-3 1-10-6z" fill="#0A2367"/>
<path transform="translate(387,562)" d="m0 0 5 2v16l-5-2z" fill="#8AACD9"/>
<path transform="translate(1089,561)" d="m0 0h3l2 5-1 5-2 3-3-1-3-6v-5z" fill="#8743EB"/>
<path transform="translate(203,539)" d="m0 0 5 2v16l-5-2z" fill="#A0C3E3"/>
<path transform="translate(939,461)" d="m0 0 4 2-1 25-3-1z" fill="#1A299B"/>
<path transform="translate(696,436)" d="m0 0 11 6 12 8 1 4-4-2-16-10-4-3z" fill="#869DDA"/>
<path transform="translate(692,414)" d="m0 0 11 6 13 9-1 3-22-14z" fill="#889FDC"/>
<path transform="translate(1009,107)" d="m0 0h3v2l5 1 3 1v2l4 1 12 7-3 1-14-5-3-4-5-3z" fill="#141D2C"/>
<path transform="translate(901,725)" d="m0 0 8 6 5 5 7 5-1 3-4-2-8-6-5-4-1-4z" fill="#0B2369"/>
<path transform="translate(1116,577)" d="m0 0 4 1 4 7-1 4-2 2h-3l-3-9z" fill="#8743EB"/>
<path transform="translate(599,400)" d="m0 0 3 4v14l-4-2-1-1v-5l1-1-2-1-1-6z" fill="#C42FB0"/>
<path transform="translate(1124,548)" d="m0 0h3l2 12-8-2-1-9z" fill="#8743EB"/>
<path transform="translate(692,446)" d="m0 0 12 7 12 8v3l-5-2-18-12z" fill="#87A5DA"/>
<path transform="translate(657,367)" d="m0 0 3 4h3v2l8 1v4h-5v-2l-5 2-5-3-3-6 4 1z" fill="#90B2DC"/>
<path transform="translate(217,550)" d="m0 0 6 3v12l-4-1-2-1z" fill="#96B6DF"/>
<path transform="translate(520,637)" d="m0 0 1 2h10l1 3-5 2-3 1-1 2-5-3-2-4z" fill="#0B246C"/>
<path transform="translate(1102,577)" d="m0 0 5 2 1 5v7l-4-1-3-1v-7z" fill="#8542EA"/>
<path transform="translate(401,573)" d="m0 0 5 2 1 1v12l-5-2-1-1z" fill="#9CBFE1"/>
<path transform="translate(943,200)" d="m0 0 4 2-1 3-2-1 1 44v2l3 1-3 1-2-1z" fill="#88A9D9"/>
<path transform="translate(1122,560)" d="m0 0 7 2 1 4v6l-3 1-6-6v-6z" fill="#8743EB"/>
<path transform="translate(1035,554)" d="m0 0h3v3l-20 11-3-1 4-4z" fill="#051947"/>
<path transform="translate(761,269)" d="m0 0 5 2 9 5v2l-5-2-7-4 1 12 8 5-2 1-8-4-1-1z" fill="#722C83"/>
<path transform="translate(430,511)" d="m0 0h4l-1 2-2 3h-2l-1 3-11 7-5 4-4 1 1-3 11-8 4-2h3l1-5z" fill="#1644A7"/>
<path transform="translate(457,436)" d="m0 0 4 1 1 2-4 5-10 1-1 2-2-4 4-1 4-4z" fill="#0C2670"/>
<path transform="translate(1064,565)" d="m0 0 6 1 9 6 7-2v3l-4 3-5-1-13-8z" fill="#071B4E"/>
<path transform="translate(661,289)" d="m0 0 12 7 15 10-3 1-10-7-10-6v1l7 5-2 1-9-6z" fill="#89ABD8"/>
<path transform="translate(823,468)" d="m0 0 5 1 1 3-9 5h-2l1 3 7 5-2 1-7-4-3 1 1-5h2v-2l9-5-6 2-5 2v-2l5-3h3z" fill="#1B1D8B"/>
<path transform="translate(818,432)" d="m0 0 4 1 9 6 5-1 5-3h3v2l-5 3h-3l-1 3-6-1-9-7-2-1z" fill="#051642"/>
<path transform="translate(466,390)" d="m0 0 6 2 5 5-1 5-9-5-1-1z" fill="#C332B7"/>
<path transform="translate(199,755)" d="m0 0 12 7 16 10 4 2 1 3-5-2-12-7-10-7-6-4z" fill="#061A4D"/>
<path transform="translate(519,699)" d="m0 0 5 2 13 10 3 3-3 1-17-12z" fill="#071B50"/>
<path transform="translate(690,436)" d="m0 0 4 2 1-2 5 5 11 7v2l-6-1-12-8v-2l-3-1z" fill="#1A2A81"/>
<path transform="translate(333,191)" d="m0 0 5 2 7 5v5l-5-2-7-5z" fill="#B71E77"/>
<path transform="translate(530,696)" d="m0 0 8 4 9 6v1h-6v2l-4-2-4-4 2-3-5-2z" fill="#091B44"/>
<path transform="translate(1145,523)" d="m0 0 5 1 11 8 9 5 12 9h-3l-25-16-9-6z" fill="#071B4F"/>
<path transform="translate(400,511)" d="m0 0 5 2 6 4 1 5h-4l-8-5z" fill="#C330B3"/>
<path transform="translate(701,465)" d="m0 0 12 7 7 5v3l-5-2-14-9z" fill="#8397DF"/>
<path transform="translate(825,423)" d="m0 0 14 8 5 3-4 3-5 3-5-1-4-4 5 2 6-1 2-2-10-6-4-1-3-1 3-1z" fill="#1B2597"/>
<path transform="translate(800,420)" d="m0 0 5 2 8 5 4-1 6-3h2v2l-7 4h-2v2l-5-1-11-7z" fill="#04153B"/>
<path transform="translate(828,359)" d="m0 0 5 1 2 2v15l-1 8h-1v-23h-2l-2 11h-1z" fill="#88AAD8"/>
<path transform="translate(817,303)" d="m0 0 4 1 5 3v15l-4-1-5-2v-2l7-1-1-6-2-1-2-4z" fill="#9F2EA2"/>
<path transform="translate(400,269)" d="m0 0 5 1 7 5v5l-4-1-8-6z" fill="#B62181"/>
<path transform="translate(403,471)" d="m0 0 5 1 5 4 1 5h-4l-7-5z" fill="#C22A9F"/>
<path transform="translate(516,434)" d="m0 0 5 2 7 5v4l-5-1-7-5-1-4z" fill="#A53EDF"/>
<path transform="translate(697,433)" d="m0 0h4l2 4 14 9 1 3-5-2-16-10-1-3z" fill="#212C89"/>
<path transform="translate(775,293)" d="m0 0 5 2v2l3 1 3 3 7 4-2 2-10 1 4-2 1-1-5-3-4-4z" fill="#102368"/>
<path transform="translate(404,226)" d="m0 0 5 2 5 4v5l-4-1-6-4-1-5z" fill="#B41F7C"/>
<path transform="translate(332,213)" d="m0 0 5 2 5 4v5l-4-1-6-4-1-5z" fill="#B71E77"/>
<path transform="translate(973,118)" d="m0 0 1 2h2l-2 7-5 12-3 8-2 4-1-4 3-8 5-14z" fill="#141D2C"/>
<path transform="translate(755,792)" d="m0 0h4l1 6-3 2h-8v-5z" fill="#103489"/>
<path transform="translate(604,750)" d="m0 0 5 1 14 10-3 1-10-4-6-5z" fill="#0A253D"/>
<path transform="translate(880,555)" d="m0 0 1 4-6 3-19 12-1-4 10-5 14-9z" fill="#102275"/>
<path transform="translate(778,356)" d="m0 0 6 3v10h-1v-9l-3 1-1 18-1 14h-1v-20z" fill="#6292C8"/>
<path transform="translate(404,247)" d="m0 0 9 5 1 1v5l-4-1-7-5z" fill="#B61E77"/>
<path transform="translate(510,680)" d="m0 0 2 1v2h3v2l5 2-2 4-3 1-1 3 4 2 1 2-4-1v-2l-3-1 1-5 2-1-5-4z" fill="#0C1F52"/>
<path transform="translate(257,607)" d="m0 0 2 1v3l1-2 6 2 1 4 1 3-2 1-9-5z" fill="#6F66ED"/>
<path transform="translate(820,376)" d="m0 0h1l1 8 6-3v11l-8-4z" fill="#203AC3"/>
<path transform="translate(440,483)" d="m0 0 5 2 7 5-1 2-6-3-3 5 3 2-1 2-4-3-1-7v-3z" fill="#1942A8"/>
<path transform="translate(690,415)" d="m0 0h2l5 5 15 9-1 6-2-1v-3l-16-10-3-5z" fill="#24268F"/>
<path transform="translate(793,383)" d="m0 0h1l1 20 3 2v-7l2 3v7l-10-5-3-3h3l1-3v4h2z" fill="#7A94DF"/>
<path transform="translate(394,376)" d="m0 0 5 2 5 3v6l-5-2-5-4z" fill="#B41F7B"/>
<path transform="translate(1083,577)" d="m0 0 5 1 9 5v2l4 1-1 2-5-1-12-8z" fill="#091A53"/>
<path transform="translate(704,479)" d="m0 0 6 2 3 4h-3l2 4-6-2-6-4 1-2h3z" fill="#0F61A9"/>
<path transform="translate(701,433)" d="m0 0 12 7 7 5v3l-4-2-14-9z" fill="#869FDA"/>
<path transform="translate(692,420)" d="m0 0 11 6 7 5v3l-5-2-12-8z" fill="#879AD7"/>
<path transform="translate(485,408)" d="m0 0 4 1 5 3v2l5 1 3 3h-5l-1-2h-3l1 3-5-2-1-3-2-1v-3z" fill="#4041C8"/>
<path transform="translate(692,408)" d="m0 0 8 4 10 7v3l-5-2-13-9z" fill="#879BD7"/>
<path transform="translate(669,405)" d="m0 0 11 6 7 5v3l-5-2-12-8z" fill="#8999D5"/>
<path transform="translate(454,270)" d="m0 0 5 2 6 4v5l-5-2-6-4-1-4z" fill="#CA32BA"/>
<path transform="translate(856,692)" d="m0 0h3v2l5 2 2 1v2l5 2 2 3-2 1-5-1v-2l-4-1-3-5z" fill="#092160"/>
<path transform="translate(205,673)" d="m0 0 5 2 8 5 2 4-5-1-14-8z" fill="#222AB4"/>
<path transform="translate(573,377)" d="m0 0h9l1 2-1 5h-1v-6l-3 1-1 2-2 1v-3l-2 1 1 6h-3l-2-1-1 6h-1l1-7 4-6z" fill="#9C247D"/>
<path transform="translate(191,592)" d="m0 0 4 2 3 3v5l-6-1-2-1v-7z" fill="#2339CF"/>
<path transform="translate(333,456)" d="m0 0 5 2 5 4v5l-5-2-5-4z" fill="#B71E77"/>
<path transform="translate(669,437)" d="m0 0 12 7 6 4v3l-5-2-12-8z" fill="#889BD5"/>
<path transform="translate(466,411)" d="m0 0 5 2 5 4v5l-5-2-5-4-1-3z" fill="#C532B8"/>
<path transform="translate(669,399)" d="m0 0 12 7 6 4v3l-4-1v-2l-4-1-10-7z" fill="#8A99D6"/>
<path transform="translate(669,393)" d="m0 0 12 7 6 4v3l-5-2-12-8z" fill="#899CD5"/>
<path transform="translate(792,352)" d="m0 0 4 1 2 1-1 2-2-1-1 23h-2z" fill="#87ABD9"/>
<path transform="translate(688,319)" d="m0 0 5 2 6 5v4l-4-1-7-5z" fill="#7FB1E2"/>
<path transform="translate(948,191)" d="m0 0 4 2v18h-1l-1-16-1 31h-1z" fill="#89ABD8"/>
<path transform="translate(588,792)" d="m0 0h3l1 5 1 3h-10l1-3-3 1v-2z" fill="#2D4167"/>
<path transform="translate(228,602)" d="m0 0 2 2 1 8-7-1-1-7z" fill="#A92791"/>
<path transform="translate(191,603)" d="m0 0 7 1 1 7-6 2-2-6z" fill="#2339CF"/>
<path transform="translate(452,514)" d="m0 0 5 2 3 3 3 1 1 5h-4v-2l-4-1v-2h-3z" fill="#C136CA"/>
<path transform="translate(692,452)" d="m0 0 12 7 6 4v3l-5-2-13-9z" fill="#85A2DA"/>
<path transform="translate(692,440)" d="m0 0 12 7 6 4-1 4-10-7-7-5z" fill="#86A1D9"/>
<path transform="translate(808,752)" d="m0 0 2 3v11l-3 1-1 7 1 2-6-1 2-4 3-5z" fill="#0C2670"/>
<path transform="translate(203,575)" d="m0 0 4 1 1 11h-4l-3-8v-3z" fill="#2439CF"/>
<path transform="translate(403,491)" d="m0 0 4 1 2 3 4 1v6l-5-2-5-4z" fill="#C72CA6"/>
<path transform="translate(668,428)" d="m0 0 5 2 9 6 5 4-1 3-16-11z" fill="#302591"/>
<path transform="translate(463,432)" d="m0 0 4 2 7 5v4l-5-2-6-4-1-4z" fill="#CE32BC"/>
<path transform="translate(669,425)" d="m0 0 12 7 6 4v3l-5-2-11-7-2-2z" fill="#86A1D9"/>
<path transform="translate(812,286)" d="m0 0 1 2-1 4 6 3v2l-4 1-7-4 3-1v-2l-5 1v-2l-2-1h7z" fill="#0B256D"/>
<path transform="translate(191,691)" d="m0 0 5 2 10 6 1 4-5-2-9-5z" fill="#2229B3"/>
<path transform="translate(222,592)" d="m0 0h3l3 6-1 3-5 1-2-3 1-6z" fill="#A82894"/>
<path transform="translate(215,583)" d="m0 0 4 1 3 3-1 5-4 2-2-3z" fill="#9C2FA6"/>
<path transform="translate(1105,564)" d="m0 0 8 4 6 4-1 4-14-9-1-2z" fill="#081A51"/>
<path transform="translate(816,481)" d="m0 0 5 2 8 4 3 1 3-1-2 4-5-1-4-2h-3l-6-4z" fill="#08174B"/>
<path transform="translate(1058,453)" d="m0 0 5 1 16 10 11 7-3 1-11-7-15-10z" fill="#071A4B"/>
<path transform="translate(669,431)" d="m0 0 11 7 7 5v2l-5-2-13-8z" fill="#889FD6"/>
<path transform="translate(842,381)" d="m0 0 5 1 3 2v21h-2v-20l-5-2z" fill="#7EAAE1"/>
<path transform="translate(224,621)" d="m0 0 5 3 2 4-2 5h-2l-4-7z" fill="#839ADD"/>
<path transform="translate(469,516)" d="m0 0h1v30l-3 1-3-1 1-4 1-2h2z" fill="#0D7394"/>
<path transform="translate(721,466)" d="m0 0h2v14h-3l-3-6 1-2 1-3z" fill="#105CA7"/>
<path transform="translate(634,433)" d="m0 0 4 1 3 5 2-1-1 6-5-1-3-3-1-4z" fill="#1541A2"/>
<path transform="translate(1113,179)" d="m0 0 5 1 8 4 16 9 2 1v2l-5-2-16-9-10-5z" fill="#071B50"/>
<path transform="translate(1042,124)" d="m0 0 11 6 8 5-2 1-9-2v-2l-4-2-5-5z" fill="#141D2C"/>
<path transform="translate(214,629)" d="m0 0h4l3 11h-6z" fill="#849EDB"/>
<path transform="translate(221,626)" d="m0 0 4 5 2 5-3 3h-2l-3-11z" fill="#839CDC"/>
<path transform="translate(203,621)" d="m0 0 4 3-1 9-3-1-3-4 1-5z" fill="#849DDC"/>
<path transform="translate(197,613)" d="m0 0h3l2 4-1 4-3 3-4-8z" fill="#2339CF"/>
<path transform="translate(1224,227)" d="m0 0 5 2 4 2v2l5 1 2 1-1 2-8-1-2-3-5-1z" fill="#141D2C"/>
<path transform="translate(963,217)" d="m0 0 5 2v10l4 1v10h-1v-9h-4l-1-2v-9l-1 5-2-1z" fill="#88A9D9"/>
<path transform="translate(1213,567)" d="m0 0 6 2 11 7 7 5v2l-4-2-11-7-9-6z" fill="#071B4F"/>
<path transform="translate(813,373)" d="m0 0h1v44h-1v-24l-4-2 4-1z" fill="#1355A9"/>
<path transform="translate(432,387)" d="m0 0 6 3 5 5-1 5-6-2-9-6 3-1 11 7v-4l-5-2-4-3z" fill="#A62A97"/>
<path transform="translate(685,317)" d="m0 0 5 1-2 1v5l-2-4v3l-2 4-4-1-2 1 1-5z" fill="#0C2671"/>
<path transform="translate(571,731)" d="m0 0h10l6 5h-3-5l-1 3-4-5z" fill="#0B1D46"/>
<path transform="translate(407,394)" d="m0 0 7 4 1 1v5l-5-1-1-5-4-1-2-2z" fill="#C22797"/>
<path transform="translate(224,613)" d="m0 0 6 1 1 1v9l-7-6z" fill="#849BDC"/>
<path transform="translate(823,544)" d="m0 0h1l1 19 5 5-5-2-3-3v-17z" fill="#BE31B4"/>
<path transform="translate(213,541)" d="m0 0h2v20l-5-2-1-2 1-15h1l1 15 1 1v-8l1-4-2-1z" fill="#A2C3E5"/>
<path transform="translate(468,515)" d="m0 0h1v13l-4 1-4-4 3-1 1-6h3z" fill="#0875C4"/>
<path transform="translate(1143,505)" d="m0 0 11 6 11 7 3 3-5-1-16-10-4-3z" fill="#061B4E"/>
<path transform="translate(1011,480)" d="m0 0 5 1 11 7v3l-5-2-11-7z" fill="#061948"/>
<path transform="translate(440,259)" d="m0 0 3 1 1 6-5 1v2l-5-2-5-5-1-2 9 3 5 2z" fill="#263286"/>
<path transform="translate(256,721)" d="m0 0h2l1 5 1 7 2 3 5-1 2 4-3-1-4 1-6-7z" fill="#123482"/>
<path transform="translate(208,627)" d="m0 0 4 1 1 3v8l-6-4z" fill="#839CDC"/>
<path transform="translate(655,785)" d="m0 0 3 1v2l5 2 2 1v2l5 2 5 5-5-2-7-5-3 1-2-1-1-4z" fill="#081E47"/>
<path transform="translate(1247,603)" d="m0 0 5 3 4 4-1 2-6-3-6-2v-2z" fill="#0B246A"/>
<path transform="translate(395,564)" d="m0 0 3 1v16l-3-1z" fill="#88AAD8"/>
<path transform="translate(913,468)" d="m0 0 6 1 9 6v3l-4-1-11-7z" fill="#07184A"/>
<path transform="translate(770,413)" d="m0 0 3 1-10 7-7 4h-5l5-4z" fill="#172086"/>
<path transform="translate(671,398)" d="m0 0 5 2 10 7 2 2-1 4v-3l-5-2-9-6-3-3z" fill="#222486"/>
<path transform="translate(668,370)" d="m0 0 5 1 11 7-2 3-14-9z" fill="#93B6DD"/>
<path transform="translate(644,326)" d="m0 0 9 5v6l-9-6z" fill="#84B1DF"/>
<path transform="translate(957,165)" d="m0 0 1 4-4 15-3 5h-2v-2h2l-1-3 4-10z" fill="#141D2C"/>
<path transform="translate(772,780)" d="m0 0h2l1 9-3-1 1-2h-2v5l-3 1-1-1v-5l3-4h2z" fill="#0E2C79"/>
<path transform="translate(681,572)" d="m0 0 6 3 4 3v3l4 2-5-1-10-6z" fill="#081D56"/>
<path transform="translate(1203,543)" d="m0 0 5 2 19 12-4 1-10-7-10-6z" fill="#071C52"/>
<path transform="translate(1247,240)" d="m0 0 10 4 9 6-4 2-4-2-5-5-6-3z" fill="#141D2C"/>
<path transform="translate(1200,214)" d="m0 0 4 1 9 5 11 6v1h-5l-7-5-11-6z" fill="#141D2C"/>
<path transform="translate(1071,601)" d="m0 0 3 1v2l-14 7 2-5z" fill="#061A4D"/>
<path transform="translate(972,480)" d="m0 0 5 1 9 6v3l-5-2-9-6z" fill="#07194C"/>
<path transform="translate(668,434)" d="m0 0 11 6 8 5-3 2-14-9z" fill="#232487"/>
<path transform="translate(491,414)" d="m0 0 6 2v2h5l3 2v2h-3l2 1-1 2-10-7z" fill="#1455AA"/>
<path transform="translate(659,406)" d="m0 0 8 4 6 5v2l-5-2-9-6z" fill="#8998D8"/>
<path transform="translate(1309,373)" d="m0 0 1 4-6 17-2 6h-1l1-9 3-7 2-6z" fill="#141D2C"/>
<path transform="translate(989,233)" d="m0 0 4 2 2 2h-3l-1 6h-3l-2 5-2-2v-6l5 2z" fill="#8196DF"/>
<path transform="translate(1112,485)" d="m0 0 12 7 10 7-2 1-16-10-4-1z" fill="#071A4E"/>
<path transform="translate(907,419)" d="m0 0 3 2-9 6-5 2 2-5z" fill="#061A4B"/>
<path transform="translate(659,412)" d="m0 0 6 3 8 5v3l-5-2-9-6z" fill="#889DD7"/>
<path transform="translate(595,391)" d="m0 0 3 1 1 7-5 1-2-5z" fill="#C52CA5"/>
<path transform="translate(489,392)" d="m0 0 9 6-2 1h-3l-2 6-3-3 2-6-2-3z" fill="#102F79"/>
<path transform="translate(793,282)" d="m0 0 6 2 4 4-4 1v2h-2v-2l-5-1 2-3z" fill="#0D1E5A"/>
<path transform="translate(746,794)" d="m0 0h6l-3 1v5h-11l4-2v-2z" fill="#0C1A39"/>
<path transform="translate(659,444)" d="m0 0 4 2 10 6v3l-5-2-9-6z" fill="#899AD6"/>
<path transform="translate(470,436)" d="m0 0 5 1 1 1v6l-8-1-4-2v-2l-2-1 2-1 10 6-2-5z" fill="#1F40BB"/>
<path transform="translate(491,404)" d="m0 0 10 6 4 3-1 2-7-3-7-5z" fill="#3942C5"/>
<path transform="translate(676,382)" d="m0 0 6 1 1 2 2 1-4 4-8-4z" fill="#94B5DE"/>
<path transform="translate(646,280)" d="m0 0 5 2 3 2v6l-8-5z" fill="#81B0DF"/>
<path transform="translate(820,665)" d="m0 0 5 2 4 4 3 2-1 2h-4v-2l-5-2-2-4z" fill="#071C53"/>
<path transform="translate(997,495)" d="m0 0 4 2-1 11-3 1z" fill="#172892"/>
<path transform="translate(916,443)" d="m0 0 6 2 6 5v2l-4-1-9-6z" fill="#081B51"/>
<path transform="translate(659,438)" d="m0 0 6 3 8 6v2l-5-2-3-1v-2l-5-2z" fill="#859EDA"/>
<path transform="translate(678,424)" d="m0 0 12 7 2 2-1 3-12-8z" fill="#85A1DB"/>
<path transform="translate(693,412)" d="m0 0 5 2 10 7-1 3-15-10z" fill="#1F2787"/>
<path transform="translate(848,406)" d="m0 0h1l1 30 4 4-6-2-2-3h2z" fill="#87A6D9"/>
<path transform="translate(826,369)" d="m0 0m-3 0 3 1v4l-4 1-2-1-1 2-3-2 1-4z" fill="#081E51"/>
<path transform="translate(920,481)" d="m0 0h5v2l-11 6-3-1 4-4z" fill="#061A4B"/>
<path transform="translate(953,470)" d="m0 0 5 2-1 12-3 1z" fill="#2237CC"/>
<path transform="translate(696,446)" d="m0 0 6 3 8 6v2l-5-2-11-7z" fill="#292C8E"/>
<path transform="translate(415,367)" d="m0 0 5 2-2 1-2-1 1 3 11 7 3 3-4-1-11-7-2-3z" fill="#AF2385"/>
<path transform="translate(646,303)" d="m0 0 5 2 3 2v6l-7-4z" fill="#83B2E1"/>
<path transform="translate(438,501)" d="m0 0 6 1-3 1v2h2l-1 8-5-2-3-3h3l4 2-2-5z" fill="#1B45B1"/>
<path transform="translate(677,450)" d="m0 0 5 2 3 3v2l-5 1-1-1-2 2z" fill="#5469B9"/>
<path transform="translate(514,427)" d="m0 0 10 6-1 4-7-2-2 2v-4h4l-4-4z" fill="#164FAF"/>
<path transform="translate(851,404)" d="m0 0 6 3-2 2-3-2v29h-1l-1-31z" fill="#88A9D9"/>
<path transform="translate(683,332)" d="m0 0h5l1 3-7 4-4 1v-4l5-1z" fill="#0C2670"/>
<path transform="translate(868,293)" d="m0 0 3 1-1 7-10-1 4-3h3z" fill="#0C2670"/>
<path transform="translate(1006,535)" d="m0 0 3 1-3 3-10 6-1-2 4-4z" fill="#071B50"/>
<path transform="translate(1122,508)" d="m0 0 6 2 15 10-1 2-16-10z" fill="#071B4E"/>
<path transform="translate(442,415)" d="m0 0 5 1 8 5-3 3-9-6z" fill="#3F2B71"/>
<path transform="translate(212,664)" d="m0 0 11 6v2l-6-1-8-5z" fill="#2222A1"/>
<path transform="translate(631,525)" d="m0 0 2 3 4 10-1 2-3-1-3-6z" fill="#0A2367"/>
<path transform="translate(692,414)" d="m0 0 11 6 1 2-2 2-10-7z" fill="#8A9BD4"/>
<path transform="translate(632,347)" d="m0 0 5 1 2 1v3h-3l-1 2h-2v5h-1z" fill="#93B5DD"/>
<path transform="translate(457,281)" d="m0 0 5 2 5 4v5l-4 1-6-4 1-2 7 4-2-5-6-4z" fill="#174FB6"/>
<path transform="translate(248,787)" d="m0 0 5 2 14 9-1 2-16-10z" fill="#04153B"/>
<path transform="translate(1015,565)" d="m0 0 2 1-1 3-9 5-3-1 4-4z" fill="#061A4B"/>
<path transform="translate(764,341)" d="m0 0 4 1 2 1v23h-1l-1-21-1-1-2 2z" fill="#89ABD8"/>
<path transform="translate(1147,306)" d="m0 0 4 1 5 3 2 4-6-1-4-2-1 4v-6h3z" fill="#6552E6"/>
<path transform="translate(984,98)" d="m0 0 3 1-5 4-2 8-4 1 3-9z" fill="#141D2C"/>
<path transform="translate(790,645)" d="m0 0 7 3 9 6 1 3-5-2-10-7-2-1z" fill="#0B256E"/>
<path transform="translate(387,562)" d="m0 0 5 2v16l-5-2v-2l3-1 1-10-4 1z" fill="#9EC1E2"/>
<path transform="translate(280,534)" d="m0 0 5 2 9 6 4 4-5-2-10-6-3-2z" fill="#04153B"/>
<path transform="translate(999,508)" d="m0 0h1v14l-3-2v-11z" fill="#2339CF"/>
<path transform="translate(644,396)" d="m0 0 11 7-1 3-10-6-1-3z" fill="#88A0D7"/>
<path transform="translate(687,391)" d="m0 0h5l1 3 6 5-2 2-8-5z" fill="#93B5DD"/>
<path transform="translate(871,287)" d="m0 0 4 1 1 3-3 4-2-2-5-1v-2z" fill="#0C2670"/>
<path transform="translate(542,710)" d="m0 0h2l2 3 4 2-2 1v4l-4-2-4-4h3z" fill="#0B256D"/>
<path transform="translate(227,692)" d="m0 0 6 2 3 3v6l-1-2-4-1v-3z" fill="#B71E77"/>
<path transform="translate(1130,590)" d="m0 0h3v2l-12 7-1-3z" fill="#071D54"/>
<path transform="translate(401,481)" d="m0 0 6 2 7 5v2l-5-1-7-5z" fill="#E333C5"/>
<path transform="translate(706,455)" d="m0 0 10 6v3l-5-2-6-4z" fill="#8398DE"/>
<path transform="translate(805,452)" d="m0 0 5 2 7 1-2 5-6-1v-2l-2-1 1-2-3-1z" fill="#2339CF"/>
<path transform="translate(820,427)" d="m0 0 4 2-2 2 4 4-5-2-7 1 2-5z" fill="#1E27A3"/>
<path transform="translate(1166,317)" d="m0 0 5 2 5 3-3 2 3 1-2 1-8-5v-3z" fill="#6551E5"/>
<path transform="translate(1089,614)" d="m0 0 4 1-8 5-6 3 1-4z" fill="#061B4E"/>
<path transform="translate(841,587)" d="m0 0 5 2 9 6v2l-5-2-6-4h-4z" fill="#061845"/>
<path transform="translate(1020,492)" d="m0 0 3 2-10 6h-2l2-4z" fill="#07194B"/>
<path transform="translate(438,481)" d="m0 0 2 1 1 5-1 2-1 4-4-3 2-8z" fill="#0C2A74"/>
<path transform="translate(964,432)" d="m0 0h3v2l-12 7-1-2 4-4z" fill="#061A4D"/>
<path transform="translate(869,395)" d="m0 0 3 1v2l-5 2v11l-2-1-1-12 2-2z" fill="#122073"/>
<path transform="translate(679,379)" d="m0 0h4l4 1 2 1v2l-5-1 1 3-3 1-2-2-2-3z" fill="#A4C7E5"/>
<path transform="translate(838,298)" d="m0 0h17l-1 4h-9v-1l-7-2z" fill="#0C2670"/>
<path transform="translate(401,212)" d="m0 0 4 1 14 9-1 2-16-10z" fill="#152A5F"/>
<path transform="translate(553,718)" d="m0 0 5 1 7 5 2 4-4-2-10-7z" fill="#081E57"/>
<path transform="translate(192,678)" d="m0 0 9 5-2 1-1 2-8-5 2-1z" fill="#2228B1"/>
<path transform="translate(1239,579)" d="m0 0h1l2 6 1 6-3 2-2-7-1-5h2z" fill="#051742"/>
<path transform="translate(1113,553)" d="m0 0h4v2l-9 5-3-1 3-3z" fill="#061B4D"/>
<path transform="translate(936,541)" d="m0 0 4 1-4 4-7 3 2-5z" fill="#071B4F"/>
<path transform="translate(956,529)" d="m0 0h4l-1 3-10 5 2-5z" fill="#061949"/>
<path transform="translate(940,493)" d="m0 0h2v3l-12 6 1-4z" fill="#071B50"/>
<path transform="translate(701,455)" d="m0 0 11 7 3 3-6-2-10-6z" fill="#212DB4"/>
<path transform="translate(486,418)" d="m0 0 6 3 1 2 5 2 4 5-4-1-9-6v-2l-3-1z" fill="#3940C9"/>
<path transform="translate(907,395)" d="m0 0 4 1-4 4-7 3 2-5z" fill="#081D55"/>
<path transform="translate(588,363)" d="m0 0 4 1 5 3-3 3-5-1 1-2-2-1z" fill="#0B256E"/>
<path transform="translate(878,283)" d="m0 0 2 1-1 1-1 17 4 2-3 1-3-5v-16z" fill="#0B256E"/>
<path transform="translate(887,284)" d="m0 0 3 1-1 2 4 2-7 1-3-2v-3z" fill="#0B246B"/>
<path transform="translate(942,243)" d="m0 0h1v8l4 1v2l-5-2-2-1-2 6-1-2z" fill="#1F27A6"/>
<path transform="translate(649,783)" d="m0 0 6 2 4 5-1 2h-2v-2l-4-2-5-4z" fill="#131C2C"/>
<path transform="translate(390,650)" d="m0 0h3v11h-3z" fill="#4B6DA9"/>
<path transform="translate(994,578)" d="m0 0h3l-1 3-10 5 2-5z" fill="#061A4C"/>
<path transform="translate(196,527)" d="m0 0 5 2 1 1v8l-4-4-2-4z" fill="#94B4DF"/>
<path transform="translate(982,468)" d="m0 0 3 1-5 4-8 4 1-4z" fill="#071D54"/>
<path transform="translate(923,456)" d="m0 0h4v2l-9 5-3-1 3-3z" fill="#081B52"/>
<path transform="translate(687,433)" d="m0 0 4 2v3l2 2-3 1 1 4h-2l-3-6z" fill="#2333B5"/>
<path transform="translate(473,429)" d="m0 0 2 1-4 4 1 2-5-1-2-2v-3h7z" fill="#162A7F"/>
<path transform="translate(1294,418)" d="m0 0 1 2-4 13h-1l-1-9 3-5z" fill="#141D2C"/>
<path transform="translate(660,410)" d="m0 0 11 6v2h2v2l-5-2-8-5z" fill="#232089"/>
<path transform="translate(674,406)" d="m0 0 5 2 4 2v2l4 2-1 2-13-8z" fill="#20248D"/>
<path transform="translate(879,339)" d="m0 0 4 2-1 4h-3l1 8 1 2-3-1v-14z" fill="#9E2FA6"/>
<path transform="translate(891,284)" d="m0 0 4 1-2 7-5-1v-2l3-1-2-1v-2z" fill="#061A4B"/>
<path transform="translate(1152,577)" d="m0 0 3 1-4 4-7 3 1-4z" fill="#071C52"/>
<path transform="translate(1175,514)" d="m0 0 3 1-2 1 1 14 1 3-4-2z" fill="#892D92"/>
<path transform="translate(963,456)" d="m0 0 3 1-4 4-7 3 2-5z" fill="#071B4E"/>
<path transform="translate(661,442)" d="m0 0 4 2v2l4 1 4 3-2 2-10-7z" fill="#22298A"/>
<path transform="translate(644,428)" d="m0 0 11 7-1 3-10-7z" fill="#89A8DA"/>
<path transform="translate(596,417)" d="m0 0 4 2 1 5-2 2-4-5z" fill="#8743EB"/>
<path transform="translate(1188,349)" d="m0 0h1v10l-2-1v-2l-5-2v-3h3l3 1z" fill="#764FE9"/>
<path transform="translate(640,335)" d="m0 0 5 1-2 5-4 1-1-4z" fill="#0B256E"/>
<path transform="translate(1174,200)" d="m0 0 5 1 10 6-4 1-7-4z" fill="#141D2C"/>
<path transform="translate(987,97)" d="m0 0 10 2 3 1v2l4 1-2 1-7-2-2-2-6-2z" fill="#141D2C"/>
<path transform="translate(632,649)" d="m0 0 6 2 4 3v2l-5-1-5-4z" fill="#2B9DEA"/>
<path transform="translate(1058,493)" d="m0 0 4 1-12 7-1-3z" fill="#071C51"/>
<path transform="translate(1e3 456)" d="m0 0 2 2-12 7-1-3z" fill="#071D54"/>
<path transform="translate(677,421)" d="m0 0 6 3v2l5 2 4 4-5-2-10-6z" fill="#281E8C"/>
<path transform="translate(583,422)" d="m0 0 3 1 1 8-5-2z" fill="#8743EB"/>
<path transform="translate(578,417)" d="m0 0 3 2v6h-3l-2-2 1-5z" fill="#8743EB"/>
<path transform="translate(574,410)" d="m0 0 3 3-2 6-3-3-1-5z" fill="#8743EB"/>
<path transform="translate(888,407)" d="m0 0 3 1-4 4-4 2-3-1 4-4z" fill="#071B4F"/>
<path transform="translate(568,401)" d="m0 0 5 1 1 6-4 1-2-4z" fill="#8743EB"/>
<path transform="translate(1300,400)" d="m0 0 1 3-3 10-2-3 1-7z" fill="#141D2C"/>
<path transform="translate(415,379)" d="m0 0 1 3 4 2 9 6-3 1-11-8z" fill="#B02283"/>
<path transform="translate(828,359)" d="m0 0 5 1v3l-2-1-2 11h-1z" fill="#88ACD9"/>
<path transform="translate(895,285)" d="m0 0 6 3-2 3-3 2-4-3h2z" fill="#0C256F"/>
<path transform="translate(762,272)" d="m0 0h1l1 12 8 5-2 1-8-4z" fill="#902E9C"/>
<path transform="translate(386,201)" d="m0 0 12 7 3 3-2 1-11-7-2-1z" fill="#223676"/>
<path transform="translate(662,792)" d="m0 0 11 7v1h-5l-7-5z" fill="#0F1C2C"/>
<path transform="translate(560,717)" d="m0 0 4 2 11 8-2 1-6-4-7-5z" fill="#061A4A"/>
<path transform="translate(1069,626)" d="m0 0 3 1-9 6-3 1 1-4z" fill="#071C51"/>
<path transform="translate(1242,591)" d="m0 0h2l1 10 3 2-3 2h-3z" fill="#051539"/>
<path transform="translate(920,506)" d="m0 0h3v2l-12 6v-3z" fill="#071C53"/>
<path transform="translate(883,481)" d="m0 0 3 1-3 3-5 3-3-1 4-4z" fill="#071B50"/>
<path transform="translate(677,414)" d="m0 0 5 2 3 3v2l1 4-7-6v-3h-2z" fill="#342097"/>
<path transform="translate(576,412)" d="m0 0h3l2 7-3-1-2 5-1-3h-2l1-2 2-5z" fill="#1F26A0"/>
<path transform="translate(597,410)" d="m0 0 5 2v6l-4-2-1-1z" fill="#8743EB"/>
<path transform="translate(797,291)" d="m0 0 5 1 7 4v2l4 2-5-1-11-7z" fill="#862D96"/>
<path transform="translate(304,195)" d="m0 0 3 1-2 1 1 4 2 2-4 2-1 6h-1v-7l1-2v-6z" fill="#402D71"/>
<path transform="translate(582,735)" d="m0 0 7 2 2 4v2l-4-2-3-2v-2h-2z" fill="#121C2F"/>
<path transform="translate(800,560)" d="m0 0 5 2 6 4 4 4-6-2v-2l-4-1-2-1v-2l-3-1z" fill="#0E1C66"/>
<path transform="translate(765,512)" d="m0 0h1v12l-1 2-5-2-1-2 5 1z" fill="#BA31B3"/>
<path transform="translate(662,437)" d="m0 0 6 1v2l2 1-4 2-6-4z" fill="#1B297B"/>
<path transform="translate(322,432)" d="m0 0 4 2 7 7-7-2-4-4z" fill="#452C70"/>
<path transform="translate(588,424)" d="m0 0h3l2 8h-4l-1-2z" fill="#8743EB"/>
<path transform="translate(712,400)" d="m0 0 5 1 1 2h-2v2l-5 1-2-2 3-2z" fill="#8AACD8"/>
<path transform="translate(967,396)" d="m0 0 2 1v4l5 3v2l-5-1-2 2z" fill="#121C2D"/>
<path transform="translate(691,309)" d="m0 0 5 2 3 2v5l-4-1-3-3 4 1 1-2-5-2z" fill="#8AACD8"/>
<path transform="translate(664,305)" d="m0 0 10 5 3 4-6-2-7-5z" fill="#60BEF9"/>
<path transform="translate(966,216)" d="m0 0 4 3v9l2 1h-4v-10l-3-1z" fill="#20219D"/>
<path transform="translate(1109,163)" d="m0 0 6 2 5 2v2h-7z" fill="#141D2C"/>
<path transform="translate(752,794)" d="m0 0h2l1 6h-6v-5z" fill="#0B2769"/>
<path transform="translate(766,786)" d="m0 0h1l1 5h3v-5h2v2l2 2-5 4-4-2z" fill="#061B4D"/>
<path transform="translate(913,736)" d="m0 0 7 4v3h-3l-4-4z" fill="#0B246C"/>
<path transform="translate(661,668)" d="m0 0 5 1v2l4 2 1 2-5-1-5-4z" fill="#0778C5"/>
<path transform="translate(502,664)" d="m0 0 1 3v5l6 8-4-2-3-2-1-3v-8z" fill="#121C69"/>
<path transform="translate(406,576)" d="m0 0h1v12l-5-2v-3h3z" fill="#91B3DC"/>
<path transform="translate(507,569)" d="m0 0 2 1-1 6h-2l1 10-2-1v-10z" fill="#0C2670"/>
<path transform="translate(420,370)" d="m0 0 5 2 10 6v3l-15-10z" fill="#AE2386"/>
<path transform="translate(655,363)" d="m0 0 4 1 6 4-1 2-6-3-5-1 2-1z" fill="#8BADD9"/>
<path transform="translate(345,297)" d="m0 0 11 7 2 1v2l-5-2-8-6z" fill="#0E3A85"/>
<path transform="translate(422,248)" d="m0 0 9 5 1 2-5-2-4-2 2 4-4-2z" fill="#AD258A"/>
<path transform="translate(1e3 225)" d="m0 0 4 1 2 1v9h-2l-1-8-2 1z" fill="#808FE2"/>
<path transform="translate(952,212)" d="m0 0 5 1 1 1v9l-2-1-1-5-3-4z" fill="#7F90E1"/>
<path transform="translate(615,759)" d="m0 0 5 2 6 3v2l-3 1-6-5-2-1z" fill="#101B2E"/>
<path transform="translate(840,679)" d="m0 0 4 2 3 3-4 2-3-2z" fill="#081E58"/>
<path transform="translate(440,483)" d="m0 0 5 2 7 5-1 2-8-5-4-2z" fill="#0E4089"/>
<path transform="translate(593,422)" d="m0 0h2l3 5-2 4-2-1-2-7z" fill="#8743EB"/>
<path transform="translate(945,420)" d="m0 0h3l-1 3-9 4v-3z" fill="#071C52"/>
<path transform="translate(819,404)" d="m0 0h1v16l-6-3v-2l5 2z" fill="#86A9DA"/>
<path transform="translate(669,399)" d="m0 0 9 5-1 3-7-4z" fill="#88A0D9"/>
<path transform="translate(889,383)" d="m0 0h3v3l-6 3-3-1 4-4z" fill="#0A1C5B"/>
<path transform="translate(897,322)" d="m0 0h1l1 7 1 4-2 6h-1z" fill="#04153B"/>
<path transform="translate(960,217)" d="m0 0h3v8l-5-2z" fill="#2231BD"/>
<path transform="translate(764,784)" d="m0 0h3v2l-12 6 2-4z" fill="#101C2C"/>
<path transform="translate(212,678)" d="m0 0 4 1 4 4-3 1-6-4z" fill="#2222A2"/>
<path transform="translate(390,614)" d="m0 0h3v11h-3z" fill="#5B70AA"/>
<path transform="translate(519,602)" d="m0 0 2 1 2 10 1 2-4-2-1-1z" fill="#0C2670"/>
<path transform="translate(210,579)" d="m0 0 4 1-1 8-3-3z" fill="#9E30A8"/>
<path transform="translate(975,566)" d="m0 0h3v2l-10 5v-3z" fill="#081D57"/>
<path transform="translate(978,517)" d="m0 0h3l-1 3-8 4 2-5z" fill="#07194B"/>
<path transform="translate(959,505)" d="m0 0h2l-2 4-6 3-2-1 4-4z" fill="#061849"/>
<path transform="translate(433,496)" d="m0 0 7 4-2 1v2l-5-2v-3z" fill="#27308F"/>
<path transform="translate(939,461)" d="m0 0 4 2-2 7h-2z" fill="#2339CF"/>
<path transform="translate(678,430)" d="m0 0 7 1 3 5-4-1-6-4z" fill="#231F90"/>
<path transform="translate(792,405)" d="m0 0 5 1 10 6-4 1-9-6z" fill="#2129AF"/>
<path transform="translate(850,401)" d="m0 0 5 1 2 1v3l-7-1z" fill="#091D52"/>
<path transform="translate(371,355)" d="m0 0h4v2l3 1v3h-5l1-3-3-1z" fill="#0F61A5"/>
<path transform="translate(661,289)" d="m0 0 2 2 2 4 7 5-2 1-9-6z" fill="#8BADD9"/>
</svg>
