<?xml version="1.0" encoding="utf-8"?>
<!-- Generator: Adobe Illustrator 19.2.0, SVG Export Plug-In . SVG Version: 6.00 Build 0)  -->
<svg version="1.1" xmlns:x="&ns_extend;" xmlns:i="&ns_ai;" xmlns:graph="&ns_graphs;"
	 xmlns="http://www.w3.org/2000/svg" xmlns:xlink="http://www.w3.org/1999/xlink" x="0px" y="0px" viewBox="0 0 1482.8 394.9"
	 style="enable-background:new 0 0 1482.8 394.9;" xml:space="preserve">
<style type="text/css">
	.st0{fill:#DB6300;}
	.st1{fill:none;stroke:#000000;stroke-width:6;stroke-miterlimit:10;}
	.st2{fill:#AAAAAA;}
	.st3{fill:#7F7F7F;}
	.st4{fill:#1B188C;}
	.st5{fill:#161670;}
	.st6{fill:#D31C13;}
	.st7{fill:#9E0202;}
	.st8{fill:#F4710F;stroke:#000000;stroke-width:6;stroke-miterlimit:10;}
	.st9{font-family:'Kartika-Bold';}
	.st10{font-size:283.5px;}
</style>
<metadata>
	<sfw  xmlns="&ns_sfw;">
		<slices></slices>
		<sliceSourceBounds  bottomLeftOrigin="true" height="440.8" width="1416.3" x="24.7" y="-154.9"></sliceSourceBounds>
	</sfw>
</metadata>
<g id="Layer_2">
	<polygon class="st0" points="1336.4,136.3 1349,159.3 1289.8,270.3 1255.3,216.2 1272,193.2 1293.3,209.9 	"/>
	<polygon class="st0" points="1339.3,136.3 1368,133.5 1380.6,156.5 1349,159.3 	"/>
</g>
<g id="Layer_3">
	<polygon class="st1" points="1336.7,136.1 1367.7,134.3 1382.4,158.5 1316,269.7 1290.1,269.7 1255.6,216.2 1271.2,193.8 
		1293.6,210.2 	"/>
	<polygon class="st2" points="1185.8,122.5 1289.8,186.3 1288.7,219.1 1181.8,147.3 	"/>
	<polygon class="st3" points="1289.8,186.3 1311.7,177.7 1313.4,207 1288.7,219.1 	"/>
	<polygon class="st3" points="1309.9,173.1 1241.6,126.6 1259.9,105.9 1238.1,89.2 1184.1,120.2 1289.8,186.3 1311.7,177.7 	"/>
	<polyline class="st1" points="1290.1,269.7 1349.6,159.3 1336.7,136.1 	"/>
	<line class="st1" x1="1382.4" y1="158.5" x2="1349.6" y2="159.3"/>
</g>
<g id="Layer_4">
	<polygon class="st1" points="1313.8,175.6 1313.6,206.7 1288.5,219.8 1181.8,146.4 1183.5,120.6 1239,89.6 1260.4,106.5 
		1242.6,127.8 	"/>
	<polygon class="st4" points="1230.6,121.4 1298.5,11.4 1325.5,12.8 1263.4,123.1 	"/>
	<polygon class="st5" points="1325.5,12.8 1357.4,65.4 1342.7,89.5 1319.4,72.3 1274.6,146.4 1242.7,148.1 1230.6,121.4 
		1263.4,123.1 	"/>
	<polyline class="st1" points="1183.5,120.6 1289.8,187 1313.8,175.6 	"/>
	<line class="st1" x1="1289.8" y1="187" x2="1288.5" y2="219.8"/>
</g>
<g id="Layer_5">
	<polygon class="st1" points="1275.4,145 1244.3,145.9 1230.3,121.4 1299.7,12 1325.6,12.7 1358.6,67.1 1342.5,89.1 1320.5,72.1 	
		"/>
	<polyline class="st1" points="1325.6,12.7 1263.1,121.4 1275.4,145 	"/>
	<line class="st1" x1="1263.1" y1="121.4" x2="1230.3" y2="121.4"/>
	<polygon class="st6" points="1326.3,67.1 1327.2,98.1 1437.5,156.7 1438.4,129.2 	"/>
	<polygon class="st7" points="1437.5,156.7 1385,190.4 1361.7,176.6 1376.3,154.2 1303.9,111 1300.5,79.1 1326.3,67.1 1327.2,98.1 	
		"/>
</g>
<g id="Layer_1">
	
		<image style="display:none;overflow:visible;" width="541" height="509" xlink:href="../jagaban/Screenshot (83).jpg"  transform="matrix(0.4982 0 0 0.4982 1168.3412 20.2642)">
	</image>
	<polygon class="st1" points="1303.7,111.1 1301.5,80.1 1325.5,65.1 1437.6,130 1437.9,155.8 1385,191 1362.3,175.8 1378.4,153.2 	
		"/>
	<polyline class="st1" points="1437.9,155.8 1326.8,97.8 1303.7,111.1 	"/>
	<line class="st1" x1="1326.8" y1="97.8" x2="1325.5" y2="65.1"/>
	<polygon class="st8" points="1349,159.3 1291.5,268 1317.5,269 1382.5,157 	"/>
</g>
<g id="Layer_6">
	<text transform="matrix(1 0 0 1 24.6631 318.6804)" class="st9 st10">Glesyde.</text>
</g>
</svg>
