<?xml version="1.0" encoding="UTF-8"?>
<svg version="1.1" viewBox="0 0 2048 630" width="1280" height="1280" xmlns="http://www.w3.org/2000/svg">
<path transform="translate(304,42)" d="m0 0h7v167l25-5 42-9 54-12 33-6 16-2 14-1h11l17 2 13 4 12 7 10 9 7 8 8 14 6 15 4 18 1 8v38l-4 23-6 22-9 24-11 25-15 29-16 27-14 22-16 24-24 34-13 18-11 16-13 18-11 16-13 18-8 12-3 1 1-6 9-27 17-41 13-28 15-33 12-26 14-34 11-30 8-28 5-23 3-22v-32l-3-17-5-12-7-9-11-7-13-4-6-1h-20l-28 4-42 10-34 8-61 13-57 12-54 11-1 4v226l-69 1-3-1v-69l2-145-22 5h-17l-11-4-10-6-12-11-11-14-8-12-2-2v-3l25-5 64-14 3-1 1-61 1-102 8-3 53-11 6-1 1 4v161l12-3 63-12h4v-131l-1-25 3-9 7-6 8-4 15-4z" fill="#41DBFE"/>
<path transform="translate(304,295)" d="m0 0h7v237h-28l-29-1-12-1v-220l10-4 23-6z" fill="black"/>
<path transform="translate(548,1)" d="m0 0h12l13 3 12 6 10 8 8 10 8 16 4 15 1 15-2 14-5 14-7 11-4 5-10 8-15 7-17 4h-17l-12-3-10-4-10-7-9-8-9-13-7-16-2-11v-14l4-16 6-11 9-10 9-8 12-7 13-5z" fill="black"/>
<path transform="translate(960,199)" d="m0 0h12l8 3 5 4 4 8 1 7 6-5 4-5 14-9 10-3h13l8 3 6 5 4 8 1 4v12l-6 31-9 41-1 1h-31l1-8 12-57v-10l-5-5h-7l-10 6-6 7-6 12-6 26-6 28-1 1h-31l1-9 12-57v-8l-3-5-2-1h-7l-8 4-7 7-6 11-3 9-10 47-1 2h-32l2-12 13-60 5-29 1-2h30l1 5-2 14h2l2-4 7-7 11-7z" fill="black"/>
<path transform="translate(1413,160)" d="m0 0h31l1 3-8 36-4 19 5-1h54l1-8 9-42 3-7h31l1 2-8 36-12 57-10 47-1 2h-32l1-10 10-47-59-1-1 9-10 48-1 1h-32l1-9 28-132z" fill="black"/>
<path transform="translate(1227,152)" d="m0 0h32l-2 11-9 42-2 10 9-9 12-6 4-1h12l11 4 6 5 5 8 3 10v23l-4 16-7 14-10 12-14 9-15 5-5 1h-25l-14-3-13-5-4-3 1-9 22-104 6-28zm32 71-8 5-6 7-6 13-5 19-2 10v5l7 2h12l10-5 7-8 6-12 3-16-1-10-3-6-3-3-3-1z" fill="black"/>
<path transform="translate(1967,152)" d="m0 0h31l-1 8-11 52-1 7 10-10 14-8 8-2h12l10 4 6 8 3 7v16l-8 36-7 33-1 1h-31l1-9 11-53 1-11-2-6-3-1h-8l-9 5-8 9-5 10-7 30-5 24-1 2h-32l2-11 17-81 12-57z" fill="black"/>
<path transform="translate(1881,388)" d="m0 0h18l17 2 16 3-2 12-13 62-3 25-1 1h-31v-8l1-8-12 12-6 4-5 2-10 1-11-2-8-5-6-7-4-10-2-12v-9l3-16 7-16 8-11 7-7 14-8 14-4zm1 22-10 3-8 6-5 6-5 11-3 13v8l3 9 6 5h9l9-6 6-8 6-16 6-25v-5l-2-1z" fill="black"/>
<path transform="translate(1718,199)" d="m0 0h19l25 3 8 2-1 9-12 56-3 20-1 14-1 1h-31v-12l1-4-5 4-6 7-10 6-3 1h-17l-9-4-5-4-6-10-3-12v-19l4-16 7-14 8-10 10-8 12-6 11-3zm2 22-10 3-8 6-7 10-4 11-1 6v15l3 6 5 4h9l8-5 6-7 5-10 8-32v-7z" fill="black"/>
<path transform="translate(1347,388)" d="m0 0h19l17 2 15 3 1 2-9 43-5 24-4 31h-31l-1-1 1-15-5 5-4 5-9 6-5 2-9 1-12-2-9-6-6-8-4-12-1-16 3-16 4-11 7-12 9-10 10-7 12-5zm2 22-10 3-8 6-6 8-5 12-2 10v8l3 9 5 5h10l9-6 6-8 4-10 5-18 3-14-1-5z" fill="black"/>
<path transform="translate(1621,388)" d="m0 0h14l10 2 9 4 8 6 6 8 4 11 1 5v15l-3 15-6 14-7 9-5 5-8 6-8 4-12 3-15 1-13-2-9-4-6-4-8-9-4-9-2-10v-13l4-18 7-14 9-10 7-6 10-5 10-3zm2 24-8 3-8 8-6 13-2 9v12l4 9 4 4 3 1h10l8-4 7-9 4-10 2-9v-12l-3-8-4-5-6-2z" fill="black"/>
<path transform="translate(1128,199)" d="m0 0h16l13 3 10 6 7 8 5 10 2 9v15l-3 15-5 12-7 10-9 9-14 7-11 3h-23l-10-3-10-6-8-9-4-10-2-11v-10l3-16 5-12 7-10 4-5 13-9 10-4zm2 24-8 4-5 5-6 9-4 16v11l3 8 5 5 3 1h9l10-5 6-8 4-9 2-11v-11l-3-8-4-5-4-2z" fill="black"/>
<path transform="translate(824,388)" d="m0 0h12l10 4 6 7 3 9v14l-6 30-8 38-2 3h-31l2-12 11-53v-10l-3-4-9-1-8 4-8 8-7 14-6 26-5 24-2 4h-31l-1-2 8-35 10-49 3-16 4-1h26l1 1v9l-2 9 5-5 10-8 8-5z" fill="black"/>
<path transform="translate(1769,388)" d="m0 0h12l10 4 6 7 3 8v16l-14 67-2 3h-31l2-12 11-53v-9l-2-4-4-2-9 1-6 4-7 7-5 8-5 17-8 39-2 4h-31l-1-2 8-36 9-42 4-22 4-1 27 1v8l-2 10 8-7 7-6 8-5z" fill="black"/>
<path transform="translate(1236,388)" d="m0 0h12l8 3 6 5 4 7 1 4v15l-5 25-9 43-2 3h-31l2-12 9-43 2-10v-10l-3-4-8-1-7 3-6 4-7 10-4 9-8 36-4 17-1 1h-31l-1-2 8-35 9-43 4-22 4-1h26l1 1v9l-1 9 10-10 12-8z" fill="black"/>
<path transform="translate(703,160)" d="m0 0h112l1 2-5 23-4 2h-37l-23 109-3 8h-32l5-25 13-63 7-30h-41l2-11 3-13z" fill="black"/>
<path transform="translate(1010,388)" d="m0 0h16l10 2 9 5 5 4 5 10 1 5v7l-3 10-4 6-7 6-11 5-17 4-25 2h-2l4 11 6 5 6 2h10l15-3 12-5h2l-2 11-3 12-8 4-16 4-15 1-13-2-10-4-10-9-5-8-3-11v-20l3-12 8-16 9-10 8-7 12-6zm0 21-8 4-8 9-4 9v3h11l11-2 10-5 4-7-1-6-5-5z" fill="black"/>
<path transform="translate(1599,199)" d="m0 0h16l12 3 8 5 7 8 2 5v16l-4 9-5 6-10 6-17 5-14 2-18 1 3 10 5 5 8 3h11l16-4 9-4h3l-4 20-2 4-14 5-10 2h-23l-12-4-8-6-7-8-4-9-2-11v-10l3-15 5-12 9-13 10-9 16-8zm-1 21-8 4-6 7-5 10v4h9l13-2 8-4 5-6 1-4-3-7-3-2z" fill="black"/>
<path transform="translate(1914,169)" d="m0 0h1l-1 9-5 24 23-1 1 3-5 20-1 1h-23l-9 43v10l1 2 3 1h7l10-2-4 19-2 5-12 3h-19l-8-3-7-8-3-10v-8l6-31 4-21h-14l-1-3 5-20 1-1h14l5-21 2-3z" fill="black"/>
<path transform="translate(1468,359)" d="m0 0h5l-2 13-4 18h23l1 3-5 20-1 1h-23l-9 42-1 8 2 5 2 1h9l9-2-4 19-2 5-12 3h-20l-10-5-6-10-1-4v-12l8-39 2-11h-14l-1-3 5-20 5-1h10l5-22 5-3z" fill="black"/>
<path transform="translate(929,359)" d="m0 0h5l-5 25-2 7 24-1 1 2-5 21-1 1h-23l-4 16-6 30v6l4 4h9l8-2-1 9-3 13-5 3-9 2h-19l-9-4-5-6-3-8v-14l10-50-4 1h-11l1-8 4-15 5-1h10l5-23 9-3z" fill="black"/>
<path transform="translate(1813,152)" d="m0 0h32l-2 12-16 75-7 34 2 6 1 1h11l3-1-1 11-3 12-7 3-5 1h-15l-9-3-7-7-3-8v-15l10-49 13-61z" fill="black"/>
<path transform="translate(1975,341)" d="m0 0h31l-1 10-22 103-1 12 2 3 8 1 7-1-1 8-4 15-11 3h-17l-9-4-6-7-2-5v-18l6-31 16-75 3-13z" fill="black"/>
<path transform="translate(705,349)" d="m0 0h32l-1 8-17 81-11 51-2 4h-32l2-11 12-58 15-70z" fill="black"/>
<path transform="translate(1137,388)" d="m0 0h12l3 1-1 11-4 18-2 2-5-2h-12l-7 4-7 8-4 8-5 17-8 37-1 1h-31l-1-2 7-30 10-49 3-19 3-3h28l1 1-1 18 7-10 7-7z" fill="black"/>
<path transform="translate(830,201)" d="m0 0h30l1 3-14 66v7l1 3h16l-3 17-2 6-12 3h-15l-8-3-6-5-4-8-1-9 3-21 12-57z" fill="black"/>
<path transform="translate(1515,390)" d="m0 0h30l1 2-14 65v9l2 3 7 1 7-1-1 11-3 12-12 3h-16l-8-3-5-5-4-7-1-4v-10l2-13 10-48 3-14z" fill="black"/>
<path transform="translate(1553,548)" d="m0 0h14l7 4 3 6-1 7-4 5-7 4 8 10v2l5-5 5-9 2-10 3-1 8 1-1 9-7 14-8 9v3l2 1 11 1-1 5-2 4-2 1h-8l-6-3-3-4-5 2-9 4-4 1h-10l-7-2-7-8-1-2v-9l3-6 7-6 6-3-3-9 1-7 6-7zm3 8-4 5 1 5 2 2h5l5-5-1-6-2-1zm-5 22-7 5-3 5v6l5 5 5 1 9-3 6-4-5-9-7-6z" fill="#41DBFE"/>
<path transform="translate(667,549)" d="m0 0h12l1 3-5 21h24l4-23 1-1h13l-1 9-10 46-2 4-12-1 2-12 3-11h-25l-1 9-3 14h-14l12-57z" fill="#41DBFE"/>
<path transform="translate(908,546)" d="m0 0h10l1 4-4 18v3l9-6 7-1 6 3 3 5-1 10-5 24-5 2-8-1 1-10 3-14 1-8h-6l-5 3-3 5-5 23-1 1h-13l11-52 2-8z" fill="#41DBFE"/>
<path transform="translate(1e3 548)" d="m0 0h17l7 3-2 11h-4l-4-2h-13l-8 5-4 5-2 5v13l4 6 5 3h10l9-3-1 9-5 5-5 1h-12l-9-3-7-7-4-9v-14l4-11 6-8 8-6z" fill="#41DBFE"/>
<path transform="translate(1645,548)" d="m0 0h15l8 2-1 10-3 1-9-3-7 1-3 3 1 7 12 9 4 5 2 5-1 9-6 8-6 3-4 1h-10l-12-3-1-4 2-8 4 2 5 2h11l3-3-1-7-12-9-4-5-2-5 1-9 4-6 5-4z" fill="#41DBFE"/>
<path transform="translate(1329,564)" d="m0 0 15 1 5 2-1 9-6 31-5 1h-6l-2-1 1-5-7 6-3 1h-7l-5-3-3-4-2-11 2-9 6-10 9-6zm-1 10-6 3-4 6-2 7 1 7 4 3 6-2 4-6 4-16-1-2z" fill="#41DBFE"/>
<path transform="translate(799,564)" d="m0 0 18 2 1 3-6 29-1 8-2 2h-8l-3-1-1-4h-2l-2 4-4 2h-8l-7-6-2-6v-9l4-11 7-8 8-4zm-3 10-5 3-4 5-2 5v9l2 3 5 1 6-5 4-11 1-10z" fill="#41DBFE"/>
<path transform="translate(1459,566)" d="m0 0h13l2 14 1 14 5-8 9-19 1-1h13l-2 5-14 25-12 20-9 10-10 3-7-2 1-9h8l5-5 2-3v-9l-6-30z" fill="#41DBFE"/>
<path transform="translate(1054,564)" d="m0 0 9 1 6 4 5 10-1 12-4 8-5 6-10 4h-10l-7-3-5-6-1-3v-14l5-10 7-6 5-2zm-2 10-6 5-3 9 1 8 3 3h6l5-4 2-5 1-9-3-6-1-1z" fill="#41DBFE"/>
<path transform="translate(1187,566)" d="m0 0h13l-2 12-4 20 5 1 5-3 4-6 6-24h13l-2 12-6 29-4 1-9-1 1-6-10 7-9 1-5-3-2-4v-8l5-25z" fill="#41DBFE"/>
<path transform="translate(1390,564)" d="m0 0 7 1 5 4 1 9-6 29-5 1-8-1 1-8 3-15 1-9h-6l-6 5-4 13-3 14h-13l1-9 7-32h12v5l5-2z" fill="#41DBFE"/>
<path transform="translate(1116,564)" d="m0 0 7 1 5 6v10l-5 23-1 3h-13l5-26v-5l-5-1-6 4-3 8-4 18-1 2h-13l2-10 6-31h13v6l8-6z" fill="#41DBFE"/>
<path transform="translate(1914,564)" d="m0 0 9 1 6 4 2 4v7l-3 5-7 4-11 2h-7l3 6 7 2 9-3 4-1-2 9-3 3-8 2h-9l-7-3-4-5-2-5v-11l4-9 7-8 6-3zm-3 9-5 4-2 5 5 1 9-3 1-5-2-2z" fill="#41DBFE"/>
<path transform="translate(1701,564)" d="m0 0 9 2 5 6 1 6-3 6-5 4-13 3h-8l3 5v2h12l8-3-1 7-2 4-9 3h-10l-6-3-5-6-2-5v-9l4-10 6-7 8-4zm-3 8-6 4-3 3v4l9-1 5-3v-5z" fill="#41DBFE"/>
<path transform="translate(749,564)" d="m0 0 9 2 5 5 1 2v7l-4 6-10 4-14 1 3 6 7 2 12-4 1 2-3 8-5 3-5 1h-9l-7-3-5-6-1-4v-11l4-10 7-7 6-3zm-5 9-6 5-1 4 5 1 9-3 1-5-1-2z" fill="#41DBFE"/>
<path transform="translate(847,153)" d="m0 0h10l8 4 4 6 1 8-3 7-6 5-5 2h-12l-6-4-4-5-1-2v-9l4-6 5-4z" fill="black"/>
<path transform="translate(1532,342)" d="m0 0h8l8 3 5 6 1 2v10l-6 8-7 3h-12l-7-4-4-6v-11l5-7z" fill="black"/>
<path transform="translate(1811,565)" d="m0 0 1 3-14 24-9 15h-15l-5-37v-4h12l1 1 2 28 11-23 3-6z" fill="#41DBFE"/>
<path transform="translate(879,554)" d="m0 0h3l-1 9-1 3h10l-2 9-9 1-4 17v5h8l-1 7-2 3-4 1h-8l-5-3-2-4 1-13 3-13-6-1 1-5 2-4h6l1-8 1-2z" fill="#41DBFE"/>
<path transform="translate(1288,554)" d="m0 0h4l-3 12h9l1 2-2 7-4 1h-5l-3 13-2 10 9-1-1 6-3 4-3 1h-8l-5-3-2-3v-9l3-14v-4l-5-1 1-5 2-4h6l1-9 7-2z" fill="#41DBFE"/>
<path transform="translate(839,546)" d="m0 0h11l1 4-10 47v1l7 2-2 7-3 2h-8l-5-3-3-5 1-9 9-43z" fill="#41DBFE"/>
<path transform="translate(1248,546)" d="m0 0 12 1-1 8-8 38v5l6 1-1 7-4 3h-8l-5-3-2-3v-10l9-43z" fill="#41DBFE"/>
<path transform="translate(1152,565)" d="m0 0h19l-1 10-13-1h-2l1 7 5 2 7 6 1 2v7l-4 6-3 3-8 2h-10l-7-2 1-8 3-1 7 2 7-1 1-4-5-4-7-5-2-3v-8l4-6z" fill="#41DBFE"/>
<path transform="translate(1953,565)" d="m0 0h17l2 1-1 8-4 1-2-1h-8l-2 4 11 9 3 4v8l-4 6-6 3-5 1h-10l-7-2 2-9 9 2h6l3-3-1-3-9-6-4-4-1-7 3-7 5-4z" fill="#41DBFE"/>
<path transform="translate(1866,565)" d="m0 0h15l3 2-1 8-1 2-5-2-9 1-5 6-2 10 2 5 7 2 8-2-1 7-4 4-4 1h-10l-6-4-4-5-1-3v-13l5-10 8-7z" fill="#41DBFE"/>
<path transform="translate(1432,565)" d="m0 0h16l2 1-1 10-2 1-4-2h-7l-6 5-3 8 1 8 3 2h8l5-1-1 7-4 4-5 1h-8l-5-2-6-7-1-2v-13l4-10 9-8z" fill="#41DBFE"/>
<path transform="translate(1754,564)" d="m0 0 4 1-2 10-1 1-9 1-4 5-4 14-2 10-4 2-10-1 4-19 4-22h13v5h2l4-6z" fill="#41DBFE"/>
<path transform="translate(1823,566)" d="m0 0h13l-2 12-4 21h7l-1 7-4 3h-8l-5-3-2-3v-10l5-25z" fill="#41DBFE"/>
<path transform="translate(1831,546)" d="m0 0 7 2 2 4-3 7-1 1h-7l-4-3v-6l3-4z" fill="#41DBFE"/>
</svg>
