<?xml version="1.0" encoding="UTF-8"?>
<svg version="1.1" xmlns="http://www.w3.org/2000/svg" width="289" height="140">
<path d="M0 0 C4.96956792 2.06428206 9.37026949 5.26648508 12 10 C13.41733803 15.68903737 13.4840056 20.84860736 11.07421875 26.24609375 C8.50257149 30.44489237 5.14127888 32.5262616 0.6875 34.375 C-5.42704461 35.41136349 -10.60334806 35.27555626 -15.875 31.75 C-20.11690601 28.29363214 -21.99622316 25.02581598 -22.875 19.625 C-23.24012986 15.04566297 -22.32215031 12.02506053 -20 8 C-14.16635274 1.24525054 -8.90993873 -1.45108591 0 0 Z M-10.375 11.0625 C-12.42783478 14.77339365 -12.6724224 16.8160384 -12 21 C-10.0405988 24.1264113 -10.0405988 24.1264113 -7 26 C-3.75708844 26 -1.89600274 25.58703627 0.8125 23.8125 C2.54363816 21.1702365 2.87409169 19.14770774 3 16 C1.6260627 13.12127423 0.25010563 11.25010563 -2 9 C-5.87702307 8.41001823 -7.37112511 8.45387181 -10.375 11.0625 Z " fill="black" transform="translate(135,59)"/>
<path d="M0 0 C2.84625 -0.061875 5.6925 -0.12375 8.625 -0.1875 C9.51010254 -0.21481201 10.39520508 -0.24212402 11.30712891 -0.27026367 C17.40640842 -0.33409813 21.41166178 0.91494977 26.25 4.8125 C29.91291702 9.39114628 30.5930078 14.26759124 30 20 C28.08598537 25.7964193 25.51949983 29.12526051 20 32 C13.52430386 33.61892404 6.6749948 33 0 33 C0 22.11 0 11.22 0 0 Z M10 8 C9.14701624 11.67387495 8.89210529 15.0447393 8.9375 18.8125 C8.94652344 19.78832031 8.95554688 20.76414062 8.96484375 21.76953125 C8.97644531 22.50558594 8.98804688 23.24164063 9 24 C12.45669582 24.31424507 14.39901677 24.37956836 17.375 22.5 C19.80664499 18.75900771 19.49174842 16.42573582 19 12 C18.01951062 9.93597315 18.01951062 9.93597315 16 9 C12.89160979 8.2730774 12.89160979 8.2730774 10 8 Z " fill="black" transform="translate(152,60)"/>
<path d="M0 0 C2.84625 -0.0825 5.6925 -0.165 8.625 -0.25 C9.51010254 -0.28641602 10.39520508 -0.32283203 11.30712891 -0.36035156 C16.66871631 -0.43517002 19.81276382 0.32791275 24 4 C25.40257857 8.20773572 25.59594233 12.11284927 24.25 16.375 C22.6623588 18.43893356 21.48671652 18.48446121 19 19 C19.5053125 19.75925781 20.010625 20.51851562 20.53125 21.30078125 C21.1809375 22.29464844 21.830625 23.28851563 22.5 24.3125 C23.1496875 25.29863281 23.799375 26.28476563 24.46875 27.30078125 C26 30 26 30 26 33 C22.55019843 33.48230236 19.4263204 33.7114192 16 33 C13.64062109 30.63543564 12.2972254 28.05872094 11 25 C10.7834375 26.7015625 10.7834375 26.7015625 10.5625 28.4375 C10 32 10 32 9 33 C6.03 33 3.06 33 0 33 C0 22.11 0 11.22 0 0 Z M10 8 C10 9.98 10 11.96 10 14 C11.65 13.67 13.3 13.34 15 13 C14.67 11.35 14.34 9.7 14 8 C12.68 8 11.36 8 10 8 Z " fill="black" transform="translate(42,60)"/>
<path d="M0 0 C0 2.64 0 5.28 0 8 C-3.3 8.33 -6.6 8.66 -10 9 C-10 9.66 -10 10.32 -10 11 C-9.36191406 11.04898438 -8.72382813 11.09796875 -8.06640625 11.1484375 C-7.24011719 11.22320312 -6.41382813 11.29796875 -5.5625 11.375 C-4.73878906 11.44460937 -3.91507813 11.51421875 -3.06640625 11.5859375 C-2.38449219 11.72257812 -1.70257813 11.85921875 -1 12 C0.36623674 14.73247348 0.128426 16.98198902 0 20 C-1 21 -1 21 -3.28515625 21.09765625 C-4.65994141 21.08025391 -4.65994141 21.08025391 -6.0625 21.0625 C-6.98160156 21.05347656 -7.90070313 21.04445313 -8.84765625 21.03515625 C-9.55792969 21.02355469 -10.26820313 21.01195313 -11 21 C-11 21.99 -11 22.98 -11 24 C-10.28972656 23.98839844 -9.57945312 23.97679688 -8.84765625 23.96484375 C-7.92855469 23.95582031 -7.00945312 23.94679688 -6.0625 23.9375 C-5.14597656 23.92589844 -4.22945312 23.91429688 -3.28515625 23.90234375 C-1 24 -1 24 0 25 C0.14115161 27.67058851 0.04247107 30.32432238 0 33 C-3.31248187 33.02888146 -6.62493167 33.04675799 -9.9375 33.0625 C-10.88302734 33.07087891 -11.82855469 33.07925781 -12.80273438 33.08789062 C-14.15141602 33.09272461 -14.15141602 33.09272461 -15.52734375 33.09765625 C-16.77632446 33.10551147 -16.77632446 33.10551147 -18.05053711 33.11352539 C-20 33 -20 33 -21 32 C-21.1002093 29.72052208 -21.13081303 27.43792865 -21.1328125 25.15625 C-21.13376923 24.47195923 -21.13472595 23.78766846 -21.13571167 23.0826416 C-21.1363933 21.63338123 -21.13454023 20.18411782 -21.13037109 18.73486328 C-21.12502252 16.50937072 -21.1303166 14.28407999 -21.13671875 12.05859375 C-21.13605797 10.65364539 -21.1347768 9.24869715 -21.1328125 7.84375 C-21.13168457 6.55662109 -21.13055664 5.26949219 -21.12939453 3.94335938 C-21 1 -21 1 -20 0 C-17.20238412 -0.26503729 -14.42893112 -0.46922605 -11.625 -0.625 C-10.45324219 -0.70234375 -10.45324219 -0.70234375 -9.2578125 -0.78125 C-5.86129641 -0.97899238 -3.25708045 -1.08569348 0 0 Z " fill="black" transform="translate(206,60)"/>
<path d="M0 0 C4.06983741 2.03491871 6.6936773 4.42814539 9.8125 7.625 C10.35092529 8.16914551 10.88935059 8.71329102 11.4440918 9.27392578 C14.17799226 12.05772848 16.81095449 14.87835695 19.3125 17.875 C23.43986108 22.76975987 28.27381528 26.97546947 33.02270508 31.25341797 C33.98406372 32.12957764 33.98406372 32.12957764 34.96484375 33.0234375 C35.5487085 33.54856934 36.13257324 34.07370117 36.73413086 34.61474609 C38 36 38 36 38 38 C27.25041426 38.86073195 27.25041426 38.86073195 23.3125 35.625 C21 33 21 33 21 31 C15.33099382 35.90555835 9.79718123 40.94023871 4.3203125 46.05859375 C2 48 2 48 0 48 C-0.6269791 37.89867004 -0.6269791 37.89867004 1.875 34.3125 C4 33 4 33 6 33 C6 32.34 6 31.68 6 31 C6.66 31 7.32 31 8 31 C8.33 30.01 8.66 29.02 9 28 C9.66 28 10.32 28 11 28 C11 27.34 11 26.68 11 26 C11.66 26 12.32 26 13 26 C8.42843664 20.67554314 8.42843664 20.67554314 3.5625 15.625 C2 14 2 14 2 12 C1.34 12 0.68 12 0 12 C0 8.04 0 4.08 0 0 Z " fill="#69E245" transform="translate(244,62)"/>
<path d="M0 0 C2.23687266 2.30902984 2.27362637 2.9593407 2.375 6.0625 C1.9375 10 1.9375 10 -0.0625 12 C-0.619375 11.505 -1.17625 11.01 -1.75 10.5 C-4.49008164 8.72264975 -5.85623024 8.67115182 -9.0625 9 C-10.0525 9.33 -11.0425 9.66 -12.0625 10 C-13.55334832 14.47254497 -13.55334832 18.52745503 -12.0625 23 C-10.64626784 23.05447047 -9.22941809 23.09300508 -7.8125 23.125 C-6.62914062 23.15980469 -6.62914062 23.15980469 -5.421875 23.1953125 C-2.85518059 22.9828378 -1.2708933 22.28654105 0.9375 21 C2.05195498 23.22890995 2.10230286 24.53055106 2.125 27 C2.13917969 27.70125 2.15335938 28.4025 2.16796875 29.125 C1.9375 31 1.9375 31 -0.0625 33 C-5.65811342 34.41314881 -10.7138645 34.26288425 -16.0625 32 C-18.8125 29.6875 -18.8125 29.6875 -21.0625 27 C-21.660625 26.29875 -22.25875 25.5975 -22.875 24.875 C-25.05468537 19.597867 -24.96426313 13.51526267 -23.04296875 8.15625 C-22.71941406 7.4446875 -22.39585938 6.733125 -22.0625 6 C-21.4025 6 -20.7425 6 -20.0625 6 C-19.85625 5.401875 -19.65 4.80375 -19.4375 4.1875 C-15.25996664 -2.4585758 -6.67557316 -2.17977899 0 0 Z " fill="black" transform="translate(109.0625,60)"/>
<path d="M0 0 C0.64377876 4.16310264 0.8245117 7.85304766 0 12 C-2.32112397 15.0534572 -4.78768618 17.37357483 -7.71484375 19.84375 C-10.02113567 22.0199434 -10.80221604 22.88649774 -11 26 C-10.67 26.99 -10.34 27.98 -10 29 C-9.443125 29.268125 -8.88625 29.53625 -8.3125 29.8125 C-4.79388794 31.61935484 -2.05781429 33.56358464 0 37 C0.50177194 40.72232854 0.35851993 44.26873702 0 48 C-3.40219909 46.37159701 -6.16821057 44.51714616 -9 42 C-9 41.34 -9 40.68 -9 40 C-9.66 40 -10.32 40 -11 40 C-11 39.34 -11 38.68 -11 38 C-11.55171875 37.77570313 -12.1034375 37.55140625 -12.671875 37.3203125 C-15.71211744 35.59614817 -17.81425673 33.37484178 -20.25 30.875 C-21.14203125 29.96492188 -22.0340625 29.05484375 -22.953125 28.1171875 C-23.62859375 27.41851562 -24.3040625 26.71984375 -25 26 C-23.58261511 22.74792908 -21.87473588 20.68638933 -19.3125 18.25 C-16.53690409 15.54969151 -13.90033002 12.81090706 -11.375 9.875 C-2.84659091 0 -2.84659091 0 0 0 Z " fill="black" transform="translate(248,44)"/>
<path d="M0 0 C7.92 0 15.84 0 24 0 C24 2.97 24 5.94 24 9 C22.02 9 20.04 9 18 9 C18.00785522 10.0372522 18.00785522 10.0372522 18.01586914 11.09545898 C18.036575 14.20946352 18.04963963 17.32345361 18.0625 20.4375 C18.07087891 21.52611328 18.07925781 22.61472656 18.08789062 23.73632812 C18.09272461 25.28803711 18.09272461 25.28803711 18.09765625 26.87109375 C18.10551147 28.30859985 18.10551147 28.30859985 18.11352539 29.77514648 C18 32 18 32 17 33 C15.50261876 33.0979057 14.00057108 33.12974864 12.5 33.125 C11.6853125 33.12757812 10.870625 33.13015625 10.03125 33.1328125 C8 33 8 33 7 32 C6.91286169 30.29227642 6.89299993 28.58101351 6.90234375 26.87109375 C6.90556641 25.83662109 6.90878906 24.80214844 6.91210938 23.73632812 C6.92048828 22.64771484 6.92886719 21.55910156 6.9375 20.4375 C6.94201172 19.34501953 6.94652344 18.25253906 6.95117188 17.12695312 C6.96300174 14.41791505 6.97948457 11.70898401 7 9 C5.5459375 9.0309375 5.5459375 9.0309375 4.0625 9.0625 C1 9 1 9 0 8 C0 5.36 0 2.72 0 0 Z " fill="black" transform="translate(15,60)"/>
<path d="M0 0 C3.3 0 6.6 0 10 0 C10.02465392 4.53897705 10.04283789 9.07791543 10.05493164 13.61694336 C10.0599714 15.16219766 10.0668032 16.70744716 10.07543945 18.25268555 C10.08752076 20.46925029 10.09323173 22.68575218 10.09765625 24.90234375 C10.10281754 25.5971434 10.10797882 26.29194305 10.11329651 27.00779724 C10.11349277 28.6722933 10.06189129 30.33665499 10 32 C9.505 32.495 9.505 32.495 9 33 C6.03 33 3.06 33 0 33 C0 22.11 0 11.22 0 0 Z " fill="black" transform="translate(71,60)"/>
<path d="M0 0 C5.4144841 3.83936145 10.75195857 7.84924977 15 13 C15 13.66 15 14.32 15 15 C4.25041426 15.86073195 4.25041426 15.86073195 0.3125 12.625 C-2 10 -2 10 -2 8 C-2.66 7.67 -3.32 7.34 -4 7 C-3.34 6.21625 -2.68 5.4325 -2 4.625 C0.20201441 2.28487188 0.20201441 2.28487188 0 0 Z " fill="#535852" transform="translate(267,85)"/>
<path d="M0 0 C0.33 0 0.66 0 1 0 C1 2.64 1 5.28 1 8 C-2.3 8.33 -5.6 8.66 -9 9 C-9 9.66 -9 10.32 -9 11 C-8.36191406 11.04898438 -7.72382813 11.09796875 -7.06640625 11.1484375 C-6.24011719 11.22320312 -5.41382813 11.29796875 -4.5625 11.375 C-3.73878906 11.44460937 -2.91507813 11.51421875 -2.06640625 11.5859375 C-1.04353516 11.79089844 -1.04353516 11.79089844 0 12 C1.36623674 14.73247348 1.128426 16.98198902 1 20 C0 21 0 21 -2.28515625 21.09765625 C-3.65994141 21.08025391 -3.65994141 21.08025391 -5.0625 21.0625 C-5.98160156 21.05347656 -6.90070313 21.04445313 -7.84765625 21.03515625 C-8.55792969 21.02355469 -9.26820313 21.01195313 -10 21 C-10 21.99 -10 22.98 -10 24 C-6.7 24 -3.4 24 0 24 C0 24.33 0 24.66 0 25 C-3.63 25 -7.26 25 -11 25 C-11 23.02 -11 21.04 -11 19 C-7.7 19 -4.4 19 -1 19 C-1 17.35 -1 15.7 -1 14 C-4.3 14 -7.6 14 -11 14 C-11 11.69 -11 9.38 -11 7 C-7.37 7 -3.74 7 0 7 C0 4.69 0 2.38 0 0 Z " fill="#929393" transform="translate(205,60)"/>
<path d="M0 0 C4.393125 -0.061875 4.393125 -0.061875 8.875 -0.125 C9.79651855 -0.14320801 10.71803711 -0.16141602 11.66748047 -0.18017578 C12.39338379 -0.1851709 13.11928711 -0.19016602 13.8671875 -0.1953125 C14.98262939 -0.21102295 14.98262939 -0.21102295 16.12060547 -0.22705078 C18 0 18 0 20 2 C13.73 1.67 7.46 1.34 1 1 C1.33 10.9 1.66 20.8 2 31 C3.98 31 5.96 31 8 31 C8 27.37 8 23.74 8 20 C8.66 20 9.32 20 10 20 C11.53617912 24.09647766 10.69045256 27.78823937 10 32 C9.505 32.495 9.505 32.495 9 33 C6.03 33 3.06 33 0 33 C0 22.11 0 11.22 0 0 Z " fill="#989898" transform="translate(42,60)"/>
<path d="M0 0 C0.66 0 1.32 0 2 0 C1.53327749 4.97059477 -2.56130634 7.64629079 -6.05078125 10.7578125 C-9.50958556 14.00671576 -10.72022706 16.25784862 -11 21 C-10.34 21.33 -9.68 21.66 -9 22 C-10.98 22.99 -10.98 22.99 -13 24 C-13.6269791 13.89867004 -13.6269791 13.89867004 -11.125 10.3125 C-9 9 -9 9 -7 9 C-7 8.34 -7 7.68 -7 7 C-6.34 7 -5.68 7 -5 7 C-4.67 6.01 -4.34 5.02 -4 4 C-3.34 4 -2.68 4 -2 4 C-2 3.34 -2 2.68 -2 2 C-1.34 2 -0.68 2 0 2 C0 1.34 0 0.68 0 0 Z " fill="#4AA331" transform="translate(257,86)"/>
<path d="M0 0 C3.20815804 1.60407902 4.66358318 2.41713934 7.015625 4.8203125 C7.80839844 5.62275391 7.80839844 5.62275391 8.6171875 6.44140625 C9.15601563 6.99699219 9.69484375 7.55257812 10.25 8.125 C11.08144531 8.96998047 11.08144531 8.96998047 11.9296875 9.83203125 C13.29104485 11.21686028 14.64614859 12.60783204 16 14 C15.67 14.66 15.34 15.32 15 16 C14.15695312 15.14535156 13.31390625 14.29070312 12.4453125 13.41015625 C11.33867407 12.29413953 10.23189598 11.17826128 9.125 10.0625 C8.56941406 9.49853516 8.01382813 8.93457031 7.44140625 8.35351562 C4.5078429 5.30139972 4.5078429 5.30139972 1 3 C1 5.97 1 8.94 1 12 C0.67 12 0.34 12 0 12 C0 8.04 0 4.08 0 0 Z " fill="#306D21" transform="translate(244,62)"/>
<path d="M0 0 C0.66 0 1.32 0 2 0 C3.53166168 4.08443115 2.63081652 7.79455657 2 12 C-0.64 12 -3.28 12 -6 12 C-6 11.67 -6 11.34 -6 11 C-4.02 11 -2.04 11 0 11 C0 7.37 0 3.74 0 0 Z " fill="black" transform="translate(50,80)"/>
<path d="M0 0 C2 2 2 2 2.1953125 3.9453125 C2.13020833 5.96354167 2.06510417 7.98177083 2 10 C1.01 10.495 1.01 10.495 0 11 C0 8.36 0 5.72 0 3 C-0.99 3.495 -0.99 3.495 -2 4 C-4.3329866 4.04022391 -6.66706666 4.04320247 -9 4 C-9 3.67 -9 3.34 -9 3 C-7.88625 2.690625 -6.7725 2.38125 -5.625 2.0625 C-2.2054845 1.17673517 -2.2054845 1.17673517 0 0 Z " fill="#757575" transform="translate(109,81)"/>
<path d="M0 0 C2 1.8125 2 1.8125 4 4 C4 4.99 4 5.98 4 7 C0.7 7 -2.6 7 -6 7 C-4 5 -4 5 -0.875 4.875 C0.07375 4.91625 1.0225 4.9575 2 5 C1.34 3.35 0.68 1.7 0 0 Z " fill="#B9B9B9" transform="translate(64,86)"/>
<path d="M0 0 C0.33 0 0.66 0 1 0 C1.1953125 6.0546875 1.1953125 6.0546875 1 8 C0.34 8.66 -0.32 9.32 -1 10 C-2.32 8.68 -3.64 7.36 -5 6 C-3.68 6.33 -2.36 6.66 -1 7 C-0.67 4.69 -0.34 2.38 0 0 Z " fill="#5F5F5F" transform="translate(110,62)"/>
</svg>
