<?xml version="1.0" standalone="no"?>
<!DOCTYPE svg PUBLIC "-//W3C//DTD SVG 20010904//EN"
 "http://www.w3.org/TR/2001/REC-SVG-20010904/DTD/svg10.dtd">
<svg version="1.0" xmlns="http://www.w3.org/2000/svg"
 width="360.000000pt" height="233.000000pt" viewBox="0 0 360.000000 233.000000"
 preserveAspectRatio="xMidYMid meet">

<g transform="translate(0.000000,233.000000) scale(0.100000,-0.100000)"
fill="#000000" stroke="none">
<path d="M1635 2204 c-407 -91 -662 -480 -579 -882 32 -156 106 -286 229 -400
85 -80 218 -152 325 -177 81 -19 254 -19 341 -1 135 29 273 110 376 219 77 83
126 166 166 282 28 82 31 101 31 220 1 147 -13 214 -69 330 -92 192 -276 345
-480 400 -89 23 -255 28 -340 9z m275 -28 c151 -27 286 -101 392 -215 78 -84
122 -156 161 -268 28 -80 31 -100 31 -213 1 -143 -14 -211 -72 -328 -92 -185
-273 -329 -474 -377 -91 -21 -248 -19 -340 4 -236 61 -421 235 -504 476 -25
71 -28 95 -29 210 0 109 4 142 23 205 36 113 88 203 164 285 173 185 405 264
648 221z"/>
<path d="M1655 2100 c-120 -24 -272 -113 -350 -204 -25 -29 -45 -56 -45 -59 0
-4 51 -8 113 -9 104 -3 112 -4 112 -23 0 -15 -10 -22 -40 -29 -22 -5 -42 -11
-44 -12 -4 -3 219 -674 224 -674 2 0 34 92 71 204 l68 203 -49 136 -48 135
-40 5 c-46 6 -62 19 -54 42 6 13 31 15 199 13 185 -3 193 -4 193 -23 0 -15
-10 -22 -40 -29 -22 -5 -42 -11 -44 -12 -2 -2 48 -154 110 -337 l113 -335 48
152 c66 211 73 252 53 329 -9 34 -34 93 -57 131 -68 115 -60 198 22 235 l39
17 -62 41 c-86 57 -117 71 -204 94 -79 20 -212 24 -288 9z"/>
<path d="M2351 1700 c-1 -36 -7 -87 -15 -115 -11 -41 -197 -585 -222 -649 -12
-32 75 34 144 109 68 75 124 179 146 275 31 128 17 295 -33 404 l-19 41 -1
-65z"/>
<path d="M1172 1648 c-16 -54 -22 -100 -22 -173 0 -188 54 -320 184 -450 85
-85 176 -146 162 -109 -4 10 -71 192 -148 404 -77 212 -143 389 -147 393 -4 4
-18 -25 -29 -65z"/>
<path d="M1701 1134 c-52 -151 -92 -276 -89 -279 12 -12 162 -27 222 -21 78 7
156 25 156 35 0 7 -190 534 -194 538 -1 1 -44 -122 -95 -273z"/>
<path d="M65 510 c3 -5 17 -10 30 -10 14 0 31 -9 39 -22 8 -13 42 -107 76
-210 34 -104 64 -188 68 -188 4 0 29 68 55 151 27 83 52 148 55 144 4 -4 27
-70 52 -147 25 -77 49 -140 54 -141 5 -1 38 83 72 186 34 104 70 197 80 208 9
10 27 19 40 19 13 0 26 5 29 10 4 6 -28 10 -89 10 -53 0 -96 -4 -96 -9 0 -5
12 -11 28 -13 19 -2 28 -9 30 -26 4 -28 -68 -247 -77 -235 -4 4 -27 70 -51
146 -24 75 -49 137 -55 137 -5 0 -30 -62 -55 -136 -25 -75 -48 -140 -52 -146
-8 -14 -81 215 -76 240 2 10 14 18 31 20 15 2 27 8 27 13 0 5 -49 9 -111 9
-71 0 -108 -4 -104 -10z"/>
<path d="M1840 511 c0 -5 12 -11 27 -13 44 -5 53 -36 52 -188 -1 -166 -5 -182
-47 -195 -58 -17 -34 -25 78 -25 61 0 110 3 110 8 0 4 -15 14 -33 22 -30 14
-32 19 -39 79 -4 35 -5 68 -2 73 3 4 28 8 55 8 99 0 154 43 154 120 0 54 -20
84 -72 106 -37 16 -283 20 -283 5z m257 -45 c22 -19 28 -32 28 -65 0 -58 -29
-84 -92 -85 l-48 -1 2 85 c1 47 3 86 3 88 0 1 18 2 39 2 28 0 49 -7 68 -24z"/>
<path d="M3156 425 c-4 -12 -10 -13 -25 -5 -11 5 -40 10 -65 10 -61 0 -100
-33 -100 -84 0 -46 22 -68 111 -115 58 -31 69 -40 71 -66 10 -82 -119 -69
-157 16 -10 21 -21 36 -24 32 -9 -8 -9 -133 -1 -133 4 0 12 7 18 15 10 14 15
14 48 0 47 -19 72 -19 113 1 39 18 68 72 59 108 -8 33 -33 54 -113 96 -59 31
-66 38 -66 65 0 62 91 55 122 -10 9 -19 20 -35 25 -35 11 0 10 107 -1 114 -5
3 -12 -1 -15 -9z"/>
<path d="M3462 424 c-7 -13 -13 -14 -30 -5 -11 6 -39 11 -62 11 -33 0 -48 -6
-71 -29 -53 -54 -31 -114 58 -155 99 -47 124 -84 83 -121 -14 -13 -29 -16 -56
-12 -44 7 -72 30 -91 75 -7 17 -15 32 -18 32 -3 0 -5 -31 -5 -70 0 -40 4 -70
10 -70 6 0 10 7 10 15 0 19 11 19 54 -1 97 -47 212 63 148 142 -9 12 -49 38
-89 59 -82 42 -99 68 -63 97 12 10 31 18 42 18 23 0 78 -52 78 -74 0 -9 5 -16
10 -16 6 0 10 27 10 60 0 63 -3 70 -18 44z"/>
<path d="M752 409 c-113 -56 -129 -208 -30 -283 97 -73 230 -53 296 44 41 62
41 119 -1 181 -52 77 -173 103 -265 58z m179 -35 c69 -66 57 -209 -21 -249
-89 -46 -180 20 -180 132 0 65 20 107 63 134 43 27 99 20 138 -17z"/>
<path d="M1098 404 l32 -14 0 -128 c0 -132 -5 -152 -42 -152 -10 0 -18 -4 -18
-10 0 -6 38 -10 95 -10 57 0 95 4 95 10 0 6 -8 10 -18 10 -10 0 -23 5 -30 12
-14 14 -16 108 -2 108 5 0 35 -31 66 -70 l56 -70 143 0 c212 0 268 15 319 84
30 40 29 130 -3 175 -40 56 -87 71 -231 70 -117 0 -123 -1 -92 -14 l33 -14 -3
-132 c-3 -149 -7 -157 -73 -145 -28 6 -52 22 -92 63 l-53 56 39 18 c65 29 71
106 12 146 -31 21 -45 23 -150 22 -109 -1 -114 -1 -83 -15z m187 -29 c30 -30
31 -54 4 -89 -15 -19 -30 -26 -55 -26 l-34 0 0 70 0 70 30 0 c19 0 40 -9 55
-25z m378 14 c51 -14 77 -57 77 -127 0 -29 -7 -67 -16 -83 -24 -47 -113 -76
-142 -47 -8 8 -12 54 -12 140 l0 128 28 0 c15 0 44 -5 65 -11z"/>
<path d="M2250 407 c14 -6 28 -16 32 -22 4 -5 8 -63 8 -127 0 -120 -9 -148
-46 -148 -8 0 -14 -4 -14 -10 0 -6 38 -10 95 -10 57 0 95 4 95 10 0 6 -8 10
-18 10 -10 0 -23 5 -30 12 -14 14 -17 108 -3 108 5 0 34 -32 65 -70 l57 -70
199 0 200 0 0 23 c0 12 3 32 6 44 4 14 2 23 -5 23 -6 0 -11 -6 -11 -14 0 -25
-42 -46 -92 -46 -57 0 -78 23 -78 87 0 42 1 43 34 43 35 0 51 -12 59 -45 2
-11 5 16 5 60 0 44 -2 71 -5 60 -6 -28 -32 -45 -65 -45 -29 0 -29 0 -26 58 3
56 4 57 34 60 53 5 98 -11 112 -42 18 -37 26 -27 17 23 l-7 41 -146 0 c-132
-1 -144 -2 -116 -14 17 -8 34 -21 38 -31 3 -9 6 -63 6 -119 0 -76 -4 -107 -16
-124 -28 -40 -71 -27 -146 46 -50 48 -58 62 -34 62 29 0 76 50 76 82 0 77 -42
98 -192 97 -94 0 -109 -2 -88 -12z m196 -28 c19 -16 18 -78 -3 -101 -9 -10
-30 -18 -50 -18 l-33 0 0 71 0 72 36 -6 c20 -3 42 -11 50 -18z"/>
</g>
</svg>
